<svg id="_ëîé_1" data-name="‘ëîé_1" xmlns="http://www.w3.org/2000/svg" viewBox="0 0 2669.39 1715.87"><defs><style>.cls-1{fill:#f8fbff;}.cls-2{fill:#f8fcff;}.cls-3{fill:#adc8fe;}.cls-4{fill:#ff9f57;}.cls-5{fill:#ed7d2b;}.cls-6{fill:#f99746;}.cls-7{fill:#c2d9ff;}.cls-8{fill:#f9ddbf;}.cls-9{fill:#ffa969;}.cls-10{fill:#233862;}.cls-11{fill:#fff3e9;}.cls-12,.cls-26{fill:#95beef;}.cls-12{opacity:0.5;}.cls-13{fill:#73a3dd;}.cls-14{fill:#ffb27d;}.cls-15{fill:#b23f36;}.cls-16{fill:#f4a671;}.cls-17{fill:#fff;}.cls-18{fill:#2c3a64;}.cls-19{fill:#ed975d;}.cls-20{fill:#e2915a;}.cls-21{fill:#c65447;}.cls-22{fill:#163560;}.cls-23{fill:#e8945b;}.cls-24{fill:#ebf3fa;}.cls-25{fill:#142644;}.cls-27{fill:#ffbb8d;}</style></defs><path class="cls-1" d="M2062.13,303.14a34.33,34.33,0,1,1,34.33,34.33A34.33,34.33,0,0,1,2062.13,303.14Z" transform="translate(-185.62 -150.19)"/><path class="cls-2" d="M1365.61,376.52s31.62-44.71,107.26-39.74c0,0,109.8-74.52,226.89-9.93,0,0,124.47-16,216.65,13.85,61.45,19.91,81.75,40.79,81.75,40.79Z" transform="translate(-185.62 -150.19)"/><path class="cls-2" d="M1935.44,501.88s23.42-40.81,79.44-36.28c0,0,81.33-68,168-9.07,0,0,92.19-14.6,160.46,12.65,45.52,18.17,60.55,37.23,60.55,37.23Z" transform="translate(-185.62 -150.19)"/><path class="cls-3" d="M2350.59,1257.59H719L185.62,1628.64c354.15,173.18,857.59,237.42,1350.43,237.42,510.08,0,1008.84-68.81,1319-156.92Z" transform="translate(-185.62 -150.19)"/><path class="cls-4" d="M2453.79,550.59h185.37a0,0,0,0,1,0,0v96.79a21.82,21.82,0,0,1-21.82,21.82H2472.9a42.26,42.26,0,0,1-42.26-42.26V573.74A23.15,23.15,0,0,1,2453.79,550.59Z" transform="translate(4884.18 1069.61) rotate(180)"/><rect class="cls-4" x="2163.85" y="467.94" width="81.16" height="51.07"/><path class="cls-4" d="M646.61,578.3v90.9H470.25c-17.77,0-32.16-13.16-32.16-29.38V604.26c0-29.64,26.29-53.66,58.71-53.66H616.29C633,550.6,646.61,563,646.61,578.3Z" transform="translate(-185.62 -150.19)"/><path class="cls-4" d="M727.77,618.13V669.2H470.25c-17.77,0-32.16-13.16-32.16-29.38V618.13Z" transform="translate(-185.62 -150.19)"/><polygon class="cls-5" points="451.72 565.61 501.04 489.62 2201.66 489.62 2219.95 565.61 1732.94 852.98 815.46 852.98 451.72 565.61"/><path class="cls-6" d="M938.05,176.94c161.34-14.16,688.67-52.38,1193.61,0,27.8,2.89,53.52,20.94,71.27,49.9,49.2,80.28,148.16,252.66,184.36,395.31,6.48,25.54-7.5,52.11-27.54,52.11H712.47c-20,0-33.56-27.43-25.81-52.27,25-80.25,80.75-239.87,167.26-385.8C874.55,201.41,905.05,179.83,938.05,176.94Z" transform="translate(-185.62 -150.19)"/><path class="cls-7" d="M2318.64,674.28h0c-.22.14-.45.27-.67.39a21.22,21.22,0,0,1-10.43,2.76H764.77c-.33,0-.67,0-1,0-7.29-.36-13.61-4.63-18.09-11.07a37.5,37.5,0,0,1-4.25-8.13,45.88,45.88,0,0,1-.84-29.73C764,553.33,816.21,403.84,897.23,267.16c19.32-32.59,47.88-52.8,78.79-55.51,151.11-13.25,645-49,1117.89,0,26.05,2.7,50.13,19.61,66.76,46.73,46.08,75.2,138.75,236.64,172.64,370.23C2338.09,647.44,2331,666.86,2318.64,674.28Z" transform="translate(-185.62 -150.19)"/><path class="cls-8" d="M914.14,244.27c17.49-19.06,39.05-30.62,61.88-32.62,151.1-13.24,645-49,1117.9,0,26,2.71,41.95,13.58,53.89,29.4C2149.79,243.69,914.14,244.27,914.14,244.27Z" transform="translate(-185.62 -150.19)"/><path class="cls-9" d="M509.47,1003.17s-32-173.69,127.87-287.37c0,0,435.57-41.63,546.78,287.37Z" transform="translate(-185.62 -150.19)"/><path class="cls-9" d="M2533.44,1003.17s32-173.69-127.87-287.37c0,0-435.57-41.63-546.78,287.37Z" transform="translate(-185.62 -150.19)"/><rect class="cls-10" x="400.72" y="1088.8" width="282.85" height="343.23" rx="37.96"/><rect class="cls-10" x="2020.6" y="1088.8" width="282.85" height="343.23" rx="37.96"/><path class="cls-9" d="M2536.05,1003.17v397c0,41.2-36.53,74.61-81.62,74.61H1986.35a74,74,0,0,1-44-14.17,66.12,66.12,0,0,1-18.38-20.52c-10.15-17.89-29.91-29.51-52-29.51H1162.9c-29.21,0-50.54,13.54-66.47,35.92-10.78,15.15-21.92,29.16-47.93,28.28H586.25c-42.4,0-76.79-31.43-76.79-70.19V1003.17Z" transform="translate(-185.62 -150.19)"/><path class="cls-8" d="M2476.83,826.44v121.3c0,16.58-14.69,30-32.82,30H2002.26c-15,0-24.06-15.28-15.8-26.77L2031,889c32.61-45.36,87.07-73.62,146.38-76l271.89-10.72C2464.3,801.73,2476.83,812.7,2476.83,826.44Z" transform="translate(-185.62 -150.19)"/><path class="cls-8" d="M1088,977.75H646.27c-18.13,0-32.82-13.43-32.82-30V826.44c0-13.74,12.53-24.71,27.54-24.12l22.75.91,153.25,6,26.6,1.06L912.88,813c44,1.74,85.44,17.78,117.16,44.5A173,173,0,0,1,1059.27,889l44.55,62C1112.08,962.47,1103.07,977.75,1088,977.75Z" transform="translate(-185.62 -150.19)"/><path class="cls-8" d="M823.64,1286.45H602.76c-9.07,0-16.41,6.71-16.41,15v60.65c0,6.87,6.26,12.36,13.77,12.06l11.37-.45,76.63-3,13.29-.53,34.65-1.37a97,97,0,0,0,58.58-22.24,86.54,86.54,0,0,0,14.61-15.74l22.28-31C835.66,1294.09,831.16,1286.45,823.64,1286.45Z" transform="translate(-185.62 -150.19)"/><path class="cls-8" d="M2233.74,1286.45h220.88c9.06,0,16.41,6.71,16.41,15v60.65c0,6.87-6.27,12.36-13.77,12.06l-11.38-.45-76.62-3-13.3-.53-34.65-1.37a97,97,0,0,1-58.58-22.24,86.54,86.54,0,0,1-14.61-15.74l-22.28-31C2221.71,1294.09,2226.22,1286.45,2233.74,1286.45Z" transform="translate(-185.62 -150.19)"/><path class="cls-9" d="M1161.13,850.66h721.18c11.26,0,18.7,11.38,13.94,21.32l-35.82,74.76a55.27,55.27,0,0,1-50,31H1239.34a54,54,0,0,1-47-26.94l-44.55-78.1C1142.16,862.82,1149.51,850.66,1161.13,850.66Z" transform="translate(-185.62 -150.19)"/><rect class="cls-8" x="1026.3" y="987.11" width="655.67" height="122.85" rx="16.27"/><path class="cls-11" d="M1030.34,864.84c0,51.93-46.07,94.06-102.89,94.06s-102.89-42.13-102.89-94.06a88.29,88.29,0,0,1,19-54.52L912.88,813c44,1.74,85.44,17.78,117.16,44.5C1030.23,860,1030.34,862.38,1030.34,864.84Z" transform="translate(-185.62 -150.19)"/><path class="cls-11" d="M818.5,823.35c0,39.85-35.34,72.16-78.93,72.16s-79-32.31-79-72.16a65.9,65.9,0,0,1,3.12-20.12l153.25,6A66.25,66.25,0,0,1,818.5,823.35Z" transform="translate(-185.62 -150.19)"/><path class="cls-11" d="M2060.34,864.84c0,51.93,46.06,94.06,102.89,94.06s102.89-42.13,102.89-94.06a88.35,88.35,0,0,0-19-54.52L2177.8,813c-44.06,1.74-85.44,17.78-117.17,44.5C2060.45,860,2060.34,862.38,2060.34,864.84Z" transform="translate(-185.62 -150.19)"/><path class="cls-11" d="M2272.17,823.35c0,39.85,35.35,72.16,78.94,72.16s78.94-32.31,78.94-72.16a65.9,65.9,0,0,0-3.12-20.12l-153.24,6A66.26,66.26,0,0,0,2272.17,823.35Z" transform="translate(-185.62 -150.19)"/><path class="cls-10" d="M1942.35,1460.64a66.12,66.12,0,0,1-18.38-20.52c-10.15-17.89-29.91-29.51-52-29.51H1162.9c-29.21,0-50.54,13.54-66.47,35.92,0,0,15.87-116,97-116.22s665.41,0,665.41,0S1932.71,1332.54,1942.35,1460.64Z" transform="translate(-185.62 -150.19)"/><rect class="cls-12" x="1681.97" y="165.22" width="142.35" height="83.32" rx="15.68"/><rect class="cls-12" x="850.16" y="165.22" width="142.35" height="83.32" rx="15.68"/><path class="cls-12" d="M1297.6,475.53V650.81a62.84,62.84,0,0,1-3.36,20.32,59,59,0,0,1-2.56,6.31H851.41a62.7,62.7,0,0,1-5.92-26.63V475.53c0-.32,0-.64,0-1a63.5,63.5,0,0,1,63.28-62.34h325.53a62.65,62.65,0,0,1,33.91,9.93,63.81,63.81,0,0,1,26,33,62.83,62.83,0,0,1,3.34,18.83C1297.6,474.52,1297.6,475,1297.6,475.53Z" transform="translate(-185.62 -150.19)"/><path class="cls-12" d="M1743,475.53V650.81a62.55,62.55,0,0,1-5.92,26.63H1296.81a61.26,61.26,0,0,1-2.57-6.31,62.84,62.84,0,0,1-3.36-20.32V475.53a63.21,63.21,0,0,1,3.36-20.33,63.88,63.88,0,0,1,16-25.11,63.25,63.25,0,0,1,27.12-15.56,62.27,62.27,0,0,1,16.82-2.3h325.54a62.7,62.7,0,0,1,20.94,3.59h0a62.76,62.76,0,0,1,14.45,7.33h0c1.56,1.05,3.06,2.18,4.49,3.36a63.8,63.8,0,0,1,12.18,13.18h0A62.79,62.79,0,0,1,1743,475.53Z" transform="translate(-185.62 -150.19)"/><path class="cls-12" d="M2197.42,475.53V650.81c0,.4,0,.78,0,1.17a63.16,63.16,0,0,1-3.08,18.34v0a60.68,60.68,0,0,1-2.83,7.1H1751.23a62.55,62.55,0,0,1-5.92-26.63V475.53a63.49,63.49,0,0,1,63.29-63.3h325.53a63.51,63.51,0,0,1,58.06,38.19A62.57,62.57,0,0,1,2197.42,475.53Z" transform="translate(-185.62 -150.19)"/><path class="cls-13" d="M1208.82,533.08v134c0,1,0,1.94,0,2.9-.07,2.5-.26,5-.52,7.41H825.13a94.71,94.71,0,0,1-.57-10.31v-134a93,93,0,0,1,86.53-92.47c2-.15,4.08-.22,6.15-.22h198.9a91.9,91.9,0,0,1,30.56,5.21C1182.77,458.3,1208.82,492.8,1208.82,533.08Z" transform="translate(-185.62 -150.19)"/><path class="cls-13" d="M2243.05,533.08v134a94.71,94.71,0,0,1-.57,10.31H1859.36a92.26,92.26,0,0,1-.57-10.31v-134c0-51,41.7-92.69,92.68-92.69h198.9a92,92,0,0,1,41.82,10A93,93,0,0,1,2243.05,533.08Z" transform="translate(-185.62 -150.19)"/><rect class="cls-13" x="1752.99" y="154.22" width="205.24" height="116.89" rx="30.85"/><rect class="cls-13" x="728.51" y="154.22" width="205.23" height="116.89" rx="30.85"/><path class="cls-14" d="M1519.07,677.44h-68.15c-2.65-6.92-4.17-11.16-4.17-11.16l2.77-113.11s29.34,17.52,39.2,40c2.06,4.68,4.4,10.59,6.93,17.34C1502.67,629.17,1511.16,654.34,1519.07,677.44Z" transform="translate(-185.62 -150.19)"/><path class="cls-14" d="M1306.29,603.43s-3.35,3.65-8.69,9.54l-6.72,7.42c-5.84,6.47-12.84,14.28-20.08,22.45-10.34,11.69-21.16,24.15-29.82,34.6h-52.16c4.41-9.31,9.15-18.54,14-27.53v0q3-5.49,6-10.84c7.65-13.6,15.42-26.39,22.56-37.69,7.65-12.13,14.57-22.53,19.84-30.35,4-6,34.55-24.84,34.55-24.84l5.11,14.26,6.72,18.76Z" transform="translate(-185.62 -150.19)"/><path class="cls-15" d="M1499.28,600.48a77.61,77.61,0,0,1-3.63,10c-4,9.24-11.67,22.43-24.08,28.5l-.72,38.48H1272.51q.06-9.23-.34-18.46l-.08-1.78-.6-14.09-.69-.27c-27.71-10.79-36.62-31.16-39.42-41.48a36.33,36.33,0,0,1-1.25-6.33c13-21.86,40.08-48.76,54.89-56.82a44,44,0,0,1,5.86-2.58,70,70,0,0,1,6.72-2c10.91-2.73,25.18-4,40.82-4.43a598.59,598.59,0,0,1,62.8,2.4h0c7,.61,13.85,1.3,20.29,2,34.12,3.83,52.17,24.56,52.17,24.56S1484.92,566.82,1499.28,600.48Z" transform="translate(-185.62 -150.19)"/><path class="cls-14" d="M1393.87,552.28c-12.84,6.21-39.13,10.72-56.25-5-2.53-2.33-1.75-6.63-.92-10a147.93,147.93,0,0,0,4.06-36.7,168,168,0,0,0-4.26-36.11l55.31,18.31a96,96,0,0,0-.23,12.05c.09,2,.22,4.23.45,6.54a87.57,87.57,0,0,0,2.67,14.71c.58,2,1.24,4,2,6a51.14,51.14,0,0,0,3.17,6.69C1405,537.79,1403.21,547.75,1393.87,552.28Z" transform="translate(-185.62 -150.19)"/><path class="cls-16" d="M1394.7,516.08c-43.54,1.09-53.94-15.5-53.94-15.5l51.27.79A87.57,87.57,0,0,0,1394.7,516.08Z" transform="translate(-185.62 -150.19)"/><path class="cls-14" d="M1408.33,503.69s-55.74,24.33-82.94-18.78c-29.35-46.52-11.24-86.53,8.11-92,38.6-11,63.78.49,73.15,15.29S1439.13,490.54,1408.33,503.69Z" transform="translate(-185.62 -150.19)"/><path class="cls-17" d="M1381.27,481.23s3.36,5.62,18.16-.11c0,0,12.44-4.82,9.93-11.37C1409.36,469.75,1395.55,468.91,1381.27,481.23Z" transform="translate(-185.62 -150.19)"/><path class="cls-18" d="M1338.27,499.48s-9.92-19-10.75-29.75c0,0-18.16-17-10.06-23.15s14.63,4.55,16.31,2-1-41,9.87-41.51,52.52,5.7,67.61-12S1375,325.25,1307,359,1265.85,470,1338.27,499.48Z" transform="translate(-185.62 -150.19)"/><path class="cls-18" d="M1276.5,395.64s-4.73-9.16-2.32-16.61c0,0,1.64,9.49,6,13.14S1276.5,395.64,1276.5,395.64Z" transform="translate(-185.62 -150.19)"/><path class="cls-18" d="M1277,388.65s-9,.37-12.14,7.82c0,0,5.59-5.18,12.58-1.68Z" transform="translate(-185.62 -150.19)"/><path class="cls-14" d="M1602.76,588.11l-13.09,89.33h-41.32c2.24-14.48,7.25-47,10.52-68.52,1.82-11.88,3.09-20.42,3.09-20.81Z" transform="translate(-185.62 -150.19)"/><path class="cls-18" d="M1650.81,394.91a41.65,41.65,0,0,0-32,0c-16.94,7.24-29.27,38.09-21.68,66.89s-18,29.29-6.17,52.4c4.21,8.19,59.88,15.16,61.78-16.75,1.18-19.76-16.72-20.74-11.5-42.22S1650.81,394.91,1650.81,394.91Z" transform="translate(-185.62 -150.19)"/><path class="cls-18" d="M1614.53,403.67c.47-.77,19.73-31.22,55.72-37.29,29.17-4.93,56.46,15.68,61,44.91s-.09,67.44-48,81.15Z" transform="translate(-185.62 -150.19)"/><path class="cls-14" d="M1623.34,534.57l54.23,32.22,13.71-38.18s-6.29-13.91-8.12-36.17a148.54,148.54,0,0,1,.88-32.08l-47.16,20.48a86.35,86.35,0,0,1,1.15,10.57c.35,6.79.12,15.89-2.34,24.39C1633.57,523.1,1629.8,530,1623.34,534.57Z" transform="translate(-185.62 -150.19)"/><path class="cls-19" d="M1635.71,515.8c26,1,47.47-23.36,47.47-23.36l-45.13-1C1638.4,498.19,1638.17,507.3,1635.71,515.8Z" transform="translate(-185.62 -150.19)"/><path class="cls-14" d="M1624,500.53s50.93,17,71.43-23.09c22.11-43.23,3-77-14.44-80.27-34.81-6.59-56,5.49-63.1,19.24S1595.91,491.42,1624,500.53Z" transform="translate(-185.62 -150.19)"/><path class="cls-17" d="M1646,478.64s-2.51,5.21-16,1.34c0,0-11.32-3.25-9.63-9.21C1620.43,470.77,1632.5,468.94,1646,478.64Z" transform="translate(-185.62 -150.19)"/><path class="cls-8" d="M1757.87,677.44H1577.32c-1.62-21.58-2.86-43.23-3.47-62.47-.3-9.67-.46-18.73-.45-26.86.07-20.66,1.33-35.4,4.22-39.06.27-.28.4-.43.4-.43,22.57-19.67,48.94-21.66,52.5-22,0,.2,0,.4-.06.6h0c-.56,7.83,2.41,15.07,16.08,17.74,18,3.53,35.08-7.32,44.4-15.45h0c.34-.28.64-.56,1-.84,13.47,2.8,36.49,12,51.1,25.05.78.69,1.55,1.41,2.3,2.14.41.41.82.82,1.22,1.25C1753.89,564.83,1757,615.24,1757.87,677.44Z" transform="translate(-185.62 -150.19)"/><path class="cls-18" d="M1659.72,401.92s-4.83,47.79,40.5,64.72c18,6.73,27.41-66.25-10.25-80.82s-74.81,2.73-79.25,28.21-1.06,30.78-1.06,30.78S1627.29,396.35,1659.72,401.92Z" transform="translate(-185.62 -150.19)"/><path class="cls-18" d="M1716,395.32a37.39,37.39,0,0,1,32,0c16.94,8.15,29.27,42.88,21.68,75.32s18,33,6.16,59c-4.2,9.23-59.87,17.08-61.77-18.85-1.18-22.26,16.72-23.36,11.5-47.55S1716,395.32,1716,395.32Z" transform="translate(-185.62 -150.19)"/><path class="cls-8" d="M1578,548.62s-22.57,23.87-24.74,56.42c0,0,15.19,12.59,29.08,10S1578,548.62,1578,548.62Z" transform="translate(-185.62 -150.19)"/><path class="cls-14" d="M1739.61,623.7s-6.93,26.76-16.15,53.74h-54.73c7.84-29.05,17.07-73.7,17.07-73.7C1708.37,626.3,1739.61,623.7,1739.61,623.7Z" transform="translate(-185.62 -150.19)"/><path class="cls-15" d="M2243.05,548.19a298.78,298.78,0,0,0-25.69-23.89,128.6,128.6,0,0,0-19.94-12.76c-40.47-21.35-96.17-29.72-104.36-30.86-.67-.11-1-.14-1-.14,0,16.09-34.31,30-62.28,28.18-23.55-1.54-38.85-19.44-38.85-29.15l0,0h0c-.09,0-.38.06-.89.17-8.57,1.65-75.7,15.69-124.1,51.39a81.57,81.57,0,0,0-7,6c-24.82,23.06-72.15,84.74-95.92,140.37h544.67a18.24,18.24,0,0,0,2.67-.18,21.45,21.45,0,0,0,8.43-3h0a29.66,29.66,0,0,0,9.69-9.85C2306.37,619.74,2270.07,575.88,2243.05,548.19Z" transform="translate(-185.62 -150.19)"/><path class="cls-14" d="M2025.84,515.63c-38.64-4.58-35.9-35.95-35.9-35.95s4.06-9.41,6.65-25a157.46,157.46,0,0,0,1.58-37.5l12.17-2,74.47,1.5a1.65,1.65,0,0,1,.33.24c.52.45.76.83.71,1.15-4.1,26.68,2.78,50.7,7.2,62.59C2094.1,504.85,2064.46,520.22,2025.84,515.63Z" transform="translate(-185.62 -150.19)"/><path class="cls-20" d="M2085.19,416.67c0,.08,0,.15-.05.24-1.46,7.27-20.42,33.38-59.6,37.95-5.69.67-18,.66-29-.19a157.46,157.46,0,0,0,1.58-37.5l12.17-2,74.47,1.5Z" transform="translate(-185.62 -150.19)"/><path class="cls-14" d="M2092.23,401.23c-8.68,46.74-69,45.21-95.06,42.27-7.33-.82-12-1.75-12-1.75-8.27-2.21-12.88-15.24-15-32.3-4.26-33.77,1.12-83.34,6.82-96,8.59-19.08,24.76-39.71,85.49-24.82S2103.38,341.34,2092.23,401.23Z" transform="translate(-185.62 -150.19)"/><path class="cls-17" d="M1977.35,406.53s1.7,9.55,9.42,10.78c18.27,2.92,22.69-6.71,22.69-6.71S1988.84,403.29,1977.35,406.53Z" transform="translate(-185.62 -150.19)"/><path class="cls-10" d="M2093.55,264.4a1.53,1.53,0,0,0,.38-.43c.86-1.54,3.26-1.2,3.26-1.2-3.43-1.54-8.76-.57-8.76-.57s-.1-.32-.58-.68c-.69-4.67-5.4-8-5.4-8a15.55,15.55,0,0,1,2.56,6.3c-10.48-5.52-30.48-24.44-68.36-6.65a240.59,240.59,0,0,1-46.93,16.14,24.59,24.59,0,0,0-14.63,37.94,76,76,0,0,0,18.42,18.82c22.53,7.07,53.14-5.44,67.9,6.5s.7,31.62,17.56,38.64l.09,0a9.4,9.4,0,0,0,11.65-3.78c4.11-6.79,9.8-13.1,15.79-9.25,12.39,8,6.27,32.59,3.27,37.69-4.58,7.82-3.92,22.14-3.92,22.14s31.92-18.29,41.13-39.8C2149.68,325.23,2133.47,283.69,2093.55,264.4Z" transform="translate(-185.62 -150.19)"/><path class="cls-21" d="M1869.82,677.44h25.94c1.52-10,2.65-19.1,3.4-25.85.07-.61.14-1.19.2-1.75.66-6,1-9.71,1-10l0,0c.14-.47,2.79-8.95-4.89-13.92-3.56-2.31-9.35-3.87-18.66-3.5,0,0-4,1.7-10.54,4.79-2.21,1-4.74,2.24-7.51,3.58-19.86,9.67-52.26,26.82-77,46.69h88Z" transform="translate(-185.62 -150.19)"/><path class="cls-21" d="M2243.05,625.85c-11.85-7.42-19.9-11.86-19.9-11.86h0c-9.8-.39-17.17,2.26-22.67,6h0a31,31,0,0,0-3,2.29,38,38,0,0,0-6.73,7.6h0a37.17,37.17,0,0,0-4.86,9.92s.5,5.93,1.59,15.06c.08.76.17,1.56.27,2.37.71,5.83,1.62,12.76,2.75,20.2h117.1a18.24,18.24,0,0,0,2.67-.18C2289.34,656.42,2261.57,637.47,2243.05,625.85Z" transform="translate(-185.62 -150.19)"/><path class="cls-22" d="M1208.82,566.86c-4.2-13.32-13.1-28.56-28-45.94-23.63-27.58-31.72-52.3-34.13-75.32-1.23-11.5-1-22.58-.64-33.37.13-3.84.28-7.62.41-11.39,0-.68,0-1.37,0-2.1.08-19.18-6.87-54.69-25.42-83.33-17.59-27.17-45.63-48.17-88-43.21,0,0-22.92-8.82-52.22,5.6a92.68,92.68,0,0,0-33.66,27.39c-20,26.38-24.6,61.31-28.81,93.3-.6,4.66-1.21,9.25-1.85,13.74a236,236,0,0,1-5.46,28.38c-4.26,15.64-10.87,28.38-22.91,35.87-20.8,12.94-34.65,28.8-42.69,45.4-12.29,25.42-11,52.61,0,73.83a74.62,74.62,0,0,0,6.56,10.51c15.86,21.13,42.84,33.17,75.4,25.36-1.21-2.34,4-7.34,13-12.62,32.41-19.12,113.57-42.18,115.16,41.43,0,0,39.42-1,78.66-11,22.32-5.73,44.57-14.39,59.47-27.5,6.79-6,12-12.85,15.09-20.81C1212.57,591.33,1213,580,1208.82,566.86Z" transform="translate(-185.62 -150.19)"/><path class="cls-14" d="M1137.37,677.44H938.43c.67-20.16,1.36-40.15,2-58.48,1.67-47.6,3.08-84.12,3.08-84.12,3.68-1.15,11.06-2.17,15.1-3.06a37.91,37.91,0,0,0,27.67-24.07c5.27-14.8,9.48-36.63,9.38-64v0l4,.79,66.88,13.24s0,.41-.08,1.18c0,.18,0,.36,0,.57v.08c0,.12,0,.26,0,.39-.06.65-.1,1.43-.15,2.35,0,.29,0,.6-.07.92s0,.52,0,.79,0,.55-.05.84c-.07,1.16-.13,2.42-.21,3.79,0,.28,0,.54,0,.83-.07,1.35-.15,2.78-.21,4.28,0,.52-.06,1-.07,1.58,0,.19,0,.37,0,.56,0,.53,0,1.08-.06,1.62s-.06,1.39-.08,2.11c-.06,1.44-.11,2.91-.16,4.4,0,.94-.06,1.9-.08,2.85-.06,1.93-.1,3.88-.12,5.84,0,.3,0,.61,0,.9,0,1.66,0,3.33,0,5v.5a38.45,38.45,0,0,0,27.76,37.19c8.21,2.37,15.39,4.41,15.78,4.53h0a638.47,638.47,0,0,1,25.74,108.56C1135.55,658.54,1136.63,668,1137.37,677.44Z" transform="translate(-185.62 -150.19)"/><path class="cls-23" d="M1066.53,457.7s-1.52,21.05-1.57,40.87c-37.42-1.05-57.2-35.19-65.31-54.11Z" transform="translate(-185.62 -150.19)"/><path class="cls-14" d="M1079,476.47s-88.55,1.46-88.61-53.69-11.53-92.11,45-95.38,67.54,17.77,72,36.18S1102.06,474.67,1079,476.47Z" transform="translate(-185.62 -150.19)"/><path class="cls-22" d="M1075.75,326.05s-24.24,64.71-61.45,74.28-53.34-.4-53.34-.4,28.54-22.68,34.46-62.25C995.42,337.68,1057.46,295.25,1075.75,326.05Z" transform="translate(-185.62 -150.19)"/><path class="cls-22" d="M1069.74,331.3s18,6.73,25.38,19.84c7.23,12.82,13.4,29.8,12,50.63,0,0,18.26-44-2.26-68.86C1083.06,306.53,1069.74,331.3,1069.74,331.3Z" transform="translate(-185.62 -150.19)"/><path class="cls-24" d="M1059.76,442.26s6.11,8,18.34,7.46c9.84-.47,13.64-9,13.64-9S1073.65,436.36,1059.76,442.26Z" transform="translate(-185.62 -150.19)"/><path class="cls-17" d="M1061.73,443.73s1.53,6.5,17.7,5.5c0,0,13.57-.84,13.16-8C1092.59,441.25,1079.43,436.17,1061.73,443.73Z" transform="translate(-185.62 -150.19)"/><path class="cls-8" d="M1208.77,670c.73,2.51,1.43,5,2.12,7.41H839.43c1.89-13.75,3.88-27.24,6.06-39.75,2-11.52,4.17-22.2,6.56-31.47,2.46-9.52,5.16-17.55,8.16-23.47,26.32-51.89,83.18-47.9,83.3-47.91h0c92.53,75.46,163.76,7.13,165,5.95h0v0s45.19,9.54,61,29.82c8.71,11.2,16.87,30.2,24.24,51.26,3.18,9.12,6.22,18.61,9.1,28v0C1204.9,656.71,1206.88,663.48,1208.77,670Z" transform="translate(-185.62 -150.19)"/><path class="cls-25" d="M2200.86,620.54s-.14-.2-.42-.55h0c-.4-.54-1.1-1.46-2-2.6a3.68,3.68,0,0,0-.3-.39c-.21-.26-.44-.56-.68-.84-.77-.94-1.64-2-2.6-3.08a189.57,189.57,0,0,0-50.68-42.45h0A189,189,0,0,0,1911,606.78h0c-1.48,1.61-3,3.27-4.38,4.94h0c-.76.87-1.49,1.74-2.22,2.62q-4.62,5.58-8.82,11.52A189,189,0,0,0,1879,654.25a186.74,186.74,0,0,0-9.13,23.19H1903a156.17,156.17,0,0,1,11.57-23.58,158,158,0,0,1,272,1.31q.63,1,1.2,2.07,3.61,6.38,6.64,13.08v0q1.58,3.49,3,7.1h33.16A188.46,188.46,0,0,0,2200.86,620.54Z" transform="translate(-185.62 -150.19)"/><path class="cls-25" d="M2200.88,651.09s-1.24.29-3.47.89-5.77,1.59-10,2.89l-.93.3c-13.18,4.11-33.53,11.43-52.85,22.27H1971.32c-14.72-10.53-33.3-19.08-56.79-23.58q-7.35-1.41-15.37-2.27l-3.09-.29h0c-.81-.08-1.62-.14-2.45-.21l6.76-11.26,0,0,6.24-10.4c.69,0,4.26.9,10.41,2.3,3.15.7,7,1.52,11.47,2.43,39.89,8,130.56,21.49,242.72-.63q9.49-1.87,19.23-4.1l.23.48h0l6.73,14Z" transform="translate(-185.62 -150.19)"/><path class="cls-14" d="M2223.15,614a233.6,233.6,0,0,0-17-19.17c-12.59-12.74-30-27.26-44.63-28-8.42-.42-34.11,7.62-31.25,16.78,3.25,10.42,27.77,14.76,46.51,15.84,9,.52,24.07,21.09,24.07,21.09A40.73,40.73,0,0,1,2223.15,614Z" transform="translate(-185.62 -150.19)"/><path class="cls-14" d="M1880.59,605.17c4.47-.95,18.53,5.23,21.69,7.64,11.83,9,26.3,19.91,0,35.47-13.38,7.92-29.34,7.27-34.28,2.46C1863.29,646.15,1863.79,608.71,1880.59,605.17Z" transform="translate(-185.62 -150.19)"/><path class="cls-14" d="M1884.75,605.61s17.63-.94,24.13-2.08.11,6.59-2.55,8.36-11.42,4.73-11.42,4.73Z" transform="translate(-185.62 -150.19)"/><rect class="cls-12" x="1261.62" y="165.22" width="142.35" height="83.32" rx="15.68"/><rect class="cls-26" x="1291.71" y="248.54" width="6.36" height="13.5"/><rect class="cls-26" x="1714.99" y="248.54" width="6.37" height="13.5"/><rect class="cls-26" x="1364.33" y="248.54" width="6.37" height="13.5"/><path class="cls-9" d="M2318,674.68a21.22,21.22,0,0,1-10.43,2.76H764.77c-.33,0-.67,0-1,0-7.29-.36-13.61-4.63-18.09-11.07a198.4,198.4,0,0,1,54-8.67c35-.95,1447.87,0,1447.87,0S2308.26,660,2318,674.68Z" transform="translate(-185.62 -150.19)"/><rect class="cls-18" x="1201.87" y="77.92" width="243.76" height="59.89" rx="8.55"/><rect class="cls-18" x="1320.62" y="36.42" width="6.27" height="41.5"/><rect class="cls-27" x="323.84" y="852.95" width="2025.44" height="42.38"/><rect class="cls-17" x="1290.19" y="1292.95" width="54.43" height="107.68"/><rect class="cls-17" x="1290.19" y="1519.4" width="54.43" height="107.68"/></svg>