<svg xmlns="http://www.w3.org/2000/svg" viewBox="0 0 731.97 327.28"><defs><style>.cls-1{fill:#263238;}.cls-2{fill:#e8505b;}.cls-3{opacity:0.5;}.cls-4{fill:#fafafa;}.cls-5{fill:#e0e0e0;}.cls-6{opacity:0.4;}.cls-7{fill:#fff;}.cls-8{fill:#455a64;}.cls-9{fill:none;stroke:#4e585d;stroke-miterlimit:10;stroke-width:0.05px;}.cls-10{opacity:0.2;}.cls-11{fill:#b78876;}.cls-12{fill:#aa6550;}.cls-13{fill:#ebebeb;}.cls-14{opacity:0.3;}</style></defs><g id="Floor"><path class="cls-1" d="M731,350.22c0,.15-160.12.28-357.6.28s-357.62-.13-357.62-.28,160.08-.28,357.62-.28S731,350.07,731,350.22Z" transform="translate(-8.07 -23.22)"/></g><g id="Car"><rect class="cls-2" x="95.52" y="182.91" width="592.33" height="86.91"/><g class="cls-3"><rect x="95.52" y="182.91" width="592.33" height="86.91"/></g><circle class="cls-1" cx="183.18" cy="292.46" r="57.12" transform="translate(-27.29 -10.26) rotate(-3.85)"/><path class="cls-1" d="M126.08,291.49c0,.05,0,.1,0,.15a57.12,57.12,0,0,0,114.22,1.65v-.15Z" transform="translate(-8.07 -23.22)"/><path class="cls-4" d="M143.09,291.88a40.1,40.1,0,1,0,40.67-39.51A40.1,40.1,0,0,0,143.09,291.88Z" transform="translate(-8.07 -23.22)"/><path class="cls-5" d="M183.76,252.37a40.1,40.1,0,0,0-40.67,39.51L223.28,293A40.1,40.1,0,0,0,183.76,252.37Z" transform="translate(-8.07 -23.22)"/><path class="cls-1" d="M158.76,292.11A24.43,24.43,0,1,0,183.53,268,24.43,24.43,0,0,0,158.76,292.11Z" transform="translate(-8.07 -23.22)"/><circle class="cls-1" cx="619.94" cy="292.46" r="57.12" transform="translate(-23.94 13.12) rotate(-3.32)"/><path class="cls-1" d="M562.84,291.49c0,.05,0,.1,0,.15a57.12,57.12,0,0,0,114.22,1.65v-.15Z" transform="translate(-8.07 -23.22)"/><path class="cls-4" d="M579.85,291.88a40.1,40.1,0,1,0,40.67-39.51A40.1,40.1,0,0,0,579.85,291.88Z" transform="translate(-8.07 -23.22)"/><path class="cls-5" d="M620.52,252.37a40.1,40.1,0,0,0-40.67,39.51L660,293A40.1,40.1,0,0,0,620.52,252.37Z" transform="translate(-8.07 -23.22)"/><path class="cls-1" d="M595.52,292.11A24.43,24.43,0,1,0,620.29,268,24.43,24.43,0,0,0,595.52,292.11Z" transform="translate(-8.07 -23.22)"/><path class="cls-2" d="M258.05,157.23s-84.11,6.21-115.28,13.2c-22,4.93-64.33,13.43-63.82,40.08l3.36,19.11s-15.72,7.18-15.72,25.49S62.75,301.83,99.43,303c6,.19,17.53,0,17.53,0s-7-78.12,64.73-80.41c73-2.32,68.16,79.7,68.16,79.7H554.57s-12.5-79.91,66.1-80,66.64,80.55,66.64,80.55,28.91,2.5,42.36-21.8,10-41.6,10-41.6L739.18,224a9.93,9.93,0,0,0-9.56-9.64h0s5.25-38.68-2.8-45.37-52.23-47.08-52.23-47.08l2.1-1.32a5,5,0,0,0-1-8.88c-16.77-5.76-49.93-17.17-57.73-19.9a14,14,0,0,0-3.62-.76c-4.65-.36-17.82-1.19-42-1.45-29.46-.32-146.41,0-146.41,0s-40.24,3.31-62.67,13.18C339.67,113.17,258.05,157.23,258.05,157.23Z" transform="translate(-8.07 -23.22)"/><g class="cls-6"><path d="M87.91,253c-3-.62-7.73-.68-10,1.39-1.73,1.54-2.19,4-2.45,6.32a27.06,27.06,0,0,0,.21,9.46A11.54,11.54,0,0,0,81,277.71c2.79,1.52,6.62,1.27,8.78-1,2-2.11,2.21-5.3,2.16-8.2-.07-4.12.26-7.6-.5-11.65a5.62,5.62,0,0,0-1.05-2.35A3.18,3.18,0,0,0,87.91,253" transform="translate(-8.07 -23.22)"/></g><path class="cls-4" d="M82.31,229.62c8.93,0,17.59-.49,26.5-1.09a4.25,4.25,0,0,0,2.71-.82,4.36,4.36,0,0,0,.93-3.25c0-4.79-.19-10.22-3.82-13.34-2.22-1.91-5.26-2.5-8.18-2.77A52.8,52.8,0,0,0,79,210.51Z" transform="translate(-8.07 -23.22)"/><path class="cls-7" d="M267.71,299.81s0-.26-.07-.76-.09-1.27-.15-2.24c-.11-2-.27-4.89-.47-8.62s-.46-8.32-1-13.61a107.46,107.46,0,0,0-3.14-17.76,80.68,80.68,0,0,0-8.6-20,62.86,62.86,0,0,0-16.62-18.53c-14.41-10.25-33.87-16-54.23-16.29s-39.79,6.2-53.84,17a79.18,79.18,0,0,0-17.48,17.84A84,84,0,0,0,101.88,256a77.76,77.76,0,0,0-4.32,17.47,73.17,73.17,0,0,0-.53,13.6,67.45,67.45,0,0,0,1,8.55c.17.95.3,1.69.4,2.2l.12.76s-.07-.25-.18-.74-.26-1.25-.45-2.2a65.37,65.37,0,0,1-1.16-8.56,72.79,72.79,0,0,1,.44-13.65,77.71,77.71,0,0,1,4.26-17.57,84.73,84.73,0,0,1,10.22-19.38,79.43,79.43,0,0,1,17.55-18c14.12-10.84,33.64-17.34,54.16-17.1s40,6.09,54.52,16.43a63.34,63.34,0,0,1,16.71,18.71,80.45,80.45,0,0,1,8.58,20.16,105.88,105.88,0,0,1,3.08,17.83c.51,5.3.73,9.89.9,13.63s.29,6.63.37,8.62c0,1,.07,1.72.09,2.25S267.71,299.81,267.71,299.81Z" transform="translate(-8.07 -23.22)"/><path class="cls-1" d="M270.94,301.14s0-.22,0-.64l-.06-1.89c-.06-1.69-.13-4.16-.23-7.38-.19-6.48-.46-16-.8-28s-.73-26.69-1.19-43.45q-.17-6.3-.35-13a44.34,44.34,0,0,1,.29-6.78c.16-1.14.33-2.28.49-3.44s.47-2.28.71-3.44a71.49,71.49,0,0,1,12.57-26.67l0,0,0,0,52.77-33.24,14.25-9a111.65,111.65,0,0,1,15.08-8.42,154,154,0,0,1,16.38-6.54c2.81-1,5.68-1.79,8.55-2.65s5.8-1.55,8.76-2.15a199.76,199.76,0,0,1,34-4.29,319.56,319.56,0,0,1,32.93.11l.31,0-.07.31c-5.05,22.59-9.81,43.9-14.18,63.43v0l0,0a69.2,69.2,0,0,0-6.36,13.63,37.19,37.19,0,0,0-2.15,14.1c.36,4.69.49,9.27.61,13.72s.17,8.77.25,13c.25,16.76.31,31.38.36,43.43s0,21.5,0,28c0,3.23,0,5.7,0,7.38,0,.83,0,1.46,0,1.89s0,.64,0,.64,0-.22,0-.64,0-1.06,0-1.89c0-1.68,0-4.15,0-7.38,0-6.46-.1-15.93-.17-28s-.19-26.66-.47-43.42c-.08-4.19-.18-8.51-.27-13s-.27-9-.64-13.7a37.82,37.82,0,0,1,2.16-14.28,69.34,69.34,0,0,1,6.39-13.74l0,.08c4.35-19.53,9.1-40.84,14.13-63.44l.24.33a318.25,318.25,0,0,0-32.86-.1A199.47,199.47,0,0,0,398.3,105c-2.95.6-5.84,1.42-8.73,2.15s-5.72,1.65-8.52,2.63a153.28,153.28,0,0,0-16.32,6.52,111.15,111.15,0,0,0-15,8.37l-14.25,9-52.82,33.21.06-.05a68.1,68.1,0,0,0-7.77,12.88,69.19,69.19,0,0,0-4.74,13.58c-2.4,9.15-1.19,18.18-1.17,26.54.41,16.76.78,31.39,1.07,43.45s.51,21.52.67,28c.07,3.23.12,5.7.15,7.38,0,.83,0,1.46,0,1.9S270.94,301.14,270.94,301.14Z" transform="translate(-8.07 -23.22)"/><path class="cls-1" d="M464.76,102.06l.5,0,1.47,0,5.66-.14,21-.41,70.88-1.21h.13l.09.1,9.93,12.16,28.35,34.77q1.63,2,3.23,4a22.11,22.11,0,0,1,3.05,22.27q-1.68,3.93-3.23,7.52c-4.13,9.56-7.47,17.3-9.8,22.68-1.16,2.65-2.06,4.72-2.69,6.15l-.71,1.59c-.16.36-.26.54-.26.54s.06-.19.21-.56.38-.92.66-1.62c.6-1.43,1.48-3.52,2.59-6.19,2.29-5.39,5.58-13.15,9.64-22.74,1.84-4.83,5.07-9.9,4.85-16.09a21.51,21.51,0,0,0-4.7-13.24l-3.24-4L574,112.83l-9.92-12.16.22.1-70.88,1-21,.25-5.67,0h-1.47A4.79,4.79,0,0,1,464.76,102.06Z" transform="translate(-8.07 -23.22)"/><path class="cls-1" d="M429,196.3s.3,0,.85-.12a6,6,0,0,0,2.25-.89,5.78,5.78,0,0,0,2.28-3,6.54,6.54,0,0,0,.29-2.35,5.78,5.78,0,0,0-.66-2.53,5.67,5.67,0,0,0-4.92-3l-7.19,0-16.5,0a5.62,5.62,0,0,0-5.55,5,6.28,6.28,0,0,0,.69,3.77,5.69,5.69,0,0,0,2.73,2.43,8.5,8.5,0,0,0,3.55.43h3.49l6.28,0,9.08.09,2.47.05a8.08,8.08,0,0,1,.86.05,4.73,4.73,0,0,1-.86.06l-2.47,0-9.08.09-6.28,0H406.8c-.61,0-1.19,0-1.85,0a6,6,0,0,1-4.89-3.07,6.78,6.78,0,0,1-.77-4.09,6.15,6.15,0,0,1,6.09-5.45l16.5,0,7.2,0a6,6,0,0,1,5.92,6,6.58,6.58,0,0,1-.35,2.46,5.92,5.92,0,0,1-2.46,3.05,5.64,5.64,0,0,1-2.34.82A3.6,3.6,0,0,1,429,196.3Z" transform="translate(-8.07 -23.22)"/><path class="cls-1" d="M586.91,196.3s.3,0,.85-.12a6,6,0,0,0,2.25-.89,5.78,5.78,0,0,0,2.28-3,6.13,6.13,0,0,0,.29-2.35,5.78,5.78,0,0,0-.66-2.53,5.67,5.67,0,0,0-4.92-3l-7.19,0-16.5,0a5.6,5.6,0,0,0-5.54,5,6.2,6.2,0,0,0,.68,3.77,5.69,5.69,0,0,0,2.73,2.43,8.5,8.5,0,0,0,3.55.43h3.5l6.27,0,9.08.09,2.47.05a8.08,8.08,0,0,1,.86.05,4.73,4.73,0,0,1-.86.06l-2.47,0-9.08.09-6.27,0h-3.5c-.61,0-1.19,0-1.84,0a6,6,0,0,1-1.9-.43,6.15,6.15,0,0,1-3-2.64,6.78,6.78,0,0,1-.77-4.09,6.15,6.15,0,0,1,6.09-5.45l16.5,0,7.2,0a6.08,6.08,0,0,1,5.26,3.27,6.2,6.2,0,0,1,.67,2.72,6.58,6.58,0,0,1-.36,2.46,5.87,5.87,0,0,1-2.46,3.05,5.64,5.64,0,0,1-2.34.82A3.6,3.6,0,0,1,586.91,196.3Z" transform="translate(-8.07 -23.22)"/><path class="cls-4" d="M725.41,170.53h-31.6a11.65,11.65,0,0,0-10.32,6.24h0a11.6,11.6,0,0,0-.35,10.12L695.53,215l31.64-.31S733.9,179.05,725.41,170.53Z" transform="translate(-8.07 -23.22)"/><path class="cls-1" d="M286.52,166.55l163.06-3,106.12-2,35-20.2a5.44,5.44,0,0,0,1.61-8l-21.79-28.62A12.14,12.14,0,0,0,561,100L442.28,99s-44.7-2.6-79.91,17.12C325.31,136.91,286.52,166.55,286.52,166.55Z" transform="translate(-8.07 -23.22)"/><path class="cls-8" d="M361.25,102s8.17,3.73,2.85,7.18-87.93,55.54-87.93,55.54l-19-8.6C290.82,137.37,324.8,119.17,361.25,102Z" transform="translate(-8.07 -23.22)"/><path class="cls-1" d="M278.84,166l-.51.13-1.5.33-5.79,1.2c-5,1-12.35,2.41-21.4,4-18.11,3.12-43.26,6.75-71.21,9.17-7,.61-13.81,1.11-20.41,1.54s-13,.83-19,1.39c-12.09,1.05-22.92,2.81-31.72,5.43a89.58,89.58,0,0,0-20,8.34c-2.28,1.2-3.89,2.37-5,3.08L81,201.4c-.3.19-.46.27-.46.27l.42-.31,1.27-.87a59.26,59.26,0,0,1,5-3.18,87.74,87.74,0,0,1,20-8.53c8.82-2.67,19.68-4.48,31.78-5.56,6.05-.57,12.42-1,19-1.42s13.42-1,20.41-1.56c27.92-2.41,53.06-6,71.18-9,9.06-1.51,16.37-2.86,21.42-3.8l5.82-1.09,1.51-.27Z" transform="translate(-8.07 -23.22)"/><path class="cls-1" d="M738,239c0,.15-10.87.28-24.27.28s-24.28-.13-24.28-.28,10.87-.28,24.28-.28S738,238.88,738,239Z" transform="translate(-8.07 -23.22)"/><path class="cls-1" d="M539.22,266.76c0,.16-61.35.28-137,.28s-137-.12-137-.28,61.33-.27,137-.27S539.22,266.61,539.22,266.76Z" transform="translate(-8.07 -23.22)"/><path class="cls-1" d="M109.67,240c0,.15-8.67.27-19.37.27s-19.38-.12-19.38-.27,8.68-.28,19.38-.28S109.67,239.79,109.67,240Z" transform="translate(-8.07 -23.22)"/><path class="cls-8" d="M673.72,120.81S666.44,129,669.3,135s32.44,26.92,32.44,26.92l21.47,4Z" transform="translate(-8.07 -23.22)"/><polygon class="cls-8" points="461.52 83.01 456.69 135.14 543.08 132.68 577.9 112.44 555.36 83.01 461.52 83.01"/><path class="cls-8" d="M307,161s52.12-37.64,72.68-45.12c19.85-7.22,30.19-9,48.83-9.56,17.82-.51,28.68,0,28.68,0l-13.77,53Z" transform="translate(-8.07 -23.22)"/><path class="cls-2" d="M299.35,161.2h0a9.13,9.13,0,0,1,4.66-8l12-6.72a22.84,22.84,0,0,1,11.18-2.93h0a22.66,22.66,0,0,1,7.11,1.14A13,13,0,0,1,343,156.64h0a13.2,13.2,0,0,1-13.18,13.7H308.49A9.14,9.14,0,0,1,299.35,161.2Z" transform="translate(-8.07 -23.22)"/><path class="cls-1" d="M299.35,161.2s0,.41.14,1.16a9.08,9.08,0,0,0,4.72,6.74,9,9,0,0,0,3.08,1,33.94,33.94,0,0,0,3.68.07l18.27-.06a14,14,0,0,0,5.08-.83,13.06,13.06,0,0,0,4.52-2.87,12.87,12.87,0,0,0,3-4.63,13.14,13.14,0,0,0,.8-5.65,12.9,12.9,0,0,0-5.39-9.55,13.6,13.6,0,0,0-5-2.09,22.62,22.62,0,0,0-14.54,1.4c-1.38.61-2.63,1.39-3.88,2.06l-3.57,2-6.14,3.4a9.05,9.05,0,0,0-3.66,3.61,9.43,9.43,0,0,0-1.07,3.13c-.11.75-.1,1.16-.13,1.15a6.09,6.09,0,0,1,0-1.17,8.8,8.8,0,0,1,1-3.21,9.22,9.22,0,0,1,3.7-3.78l6.1-3.48,3.55-2c1.24-.68,2.49-1.47,3.9-2.11a22.8,22.8,0,0,1,9.56-2.1,23,23,0,0,1,5.3.6,14.24,14.24,0,0,1,5.13,2.16,13.41,13.41,0,0,1,5.63,10,13.79,13.79,0,0,1-.83,5.89,13.43,13.43,0,0,1-3.18,4.82,13.59,13.59,0,0,1-4.71,3,14.47,14.47,0,0,1-5.27.84L311,170.53a32.25,32.25,0,0,1-3.72-.11,9.36,9.36,0,0,1-3.19-1,9.52,9.52,0,0,1-3.71-3.79,8.69,8.69,0,0,1-1-3.21A7,7,0,0,1,299.35,161.2Z" transform="translate(-8.07 -23.22)"/><path class="cls-7" d="M700.9,300.3s0-.26,0-.74.08-1.23.15-2.17.17-2.13.23-3.53.11-3,.17-4.81,0-3.83,0-6-.16-4.6-.46-7.16a92.53,92.53,0,0,0-3.08-17.17,78,78,0,0,0-3.4-9.56,63.65,63.65,0,0,0-5.16-9.7A66,66,0,0,0,672.66,222a79,79,0,0,0-23.94-11.8c-8.91-2.73-18.6-3.72-28.46-3.79a93.77,93.77,0,0,0-28.4,4.13,80,80,0,0,0-12.64,5.22,73.34,73.34,0,0,0-11,7.17,92,92,0,0,0-16.91,17.34,69.19,69.19,0,0,0-5.62,9.44,93.83,93.83,0,0,0-3.88,9.38,111.72,111.72,0,0,0-6.16,30c-.18,3.62-.16,6.43-.07,8.34.06.94.1,1.66.13,2.17s0,.74,0,.74,0-.25-.08-.74-.1-1.23-.18-2.17c-.12-1.9-.18-4.72,0-8.35a110.23,110.23,0,0,1,6-30.08,93.16,93.16,0,0,1,3.87-9.44A67.63,67.63,0,0,1,551,240a91.42,91.42,0,0,1,17-17.47,73.27,73.27,0,0,1,11-7.24A81.51,81.51,0,0,1,591.69,210a93.69,93.69,0,0,1,28.57-4.16c9.9.06,19.65,1.06,28.62,3.82A79,79,0,0,1,673,221.59a73,73,0,0,1,9.45,8.28,57.74,57.74,0,0,1,7.33,9.31A63.08,63.08,0,0,1,694.9,249a75.89,75.89,0,0,1,3.38,9.62,91.57,91.57,0,0,1,3,17.25c.29,2.57.29,5,.41,7.18s0,4.23,0,6-.15,3.42-.21,4.82-.21,2.57-.29,3.53-.15,1.66-.2,2.16S700.9,300.3,700.9,300.3Z" transform="translate(-8.07 -23.22)"/><path class="cls-9" d="M210.48,205.63" transform="translate(-8.07 -23.22)"/><path class="cls-7" d="M441.12,166.55l-.25,0-.72,0-2.79.06-10.24.19c-8.65.16-20.59.48-33.78.83s-25.14.62-33.79.68c-4.33,0-7.83,0-10.25,0l-2.78,0-.73,0a.12.12,0,1,1,0-.06l.73,0,2.78-.06,10.24-.18c8.65-.16,20.59-.48,33.79-.84s25.14-.62,33.79-.68c4.32,0,7.82,0,10.24,0l2.79,0,.72,0A.87.87,0,0,1,441.12,166.55Z" transform="translate(-8.07 -23.22)"/><path class="cls-7" d="M427,182.61a81,81,0,0,1-9.35.27,81.11,81.11,0,0,1-9.36-.27,77.13,77.13,0,0,1,9.36-.28A77,77,0,0,1,427,182.61Z" transform="translate(-8.07 -23.22)"/><path class="cls-7" d="M430.39,125.47c.06.14-11.55,5-25.93,10.8s-26.08,10.42-26.14,10.28,11.55-5,25.93-10.8S430.34,125.33,430.39,125.47Z" transform="translate(-8.07 -23.22)"/><path class="cls-7" d="M406.87,129.12c.06.14-11,5-24.69,10.87s-24.86,10.51-24.92,10.37,11-5,24.7-10.88S406.81,129,406.87,129.12Z" transform="translate(-8.07 -23.22)"/><path class="cls-7" d="M556.08,123.45c0,.15-11.56,5-25.94,10.8S504.06,144.67,504,144.53s11.55-5,25.94-10.8S556,123.31,556.08,123.45Z" transform="translate(-8.07 -23.22)"/><path class="cls-7" d="M532.55,127.1c.06.14-11,5-24.69,10.88S483,148.48,483,148.34s11-5,24.69-10.88S532.49,127,532.55,127.1Z" transform="translate(-8.07 -23.22)"/><path class="cls-7" d="M558.34,166.54c0,.16-23.09.42-51.57.59s-51.58.18-51.58,0,23.09-.42,51.58-.59S558.34,166.39,558.34,166.54Z" transform="translate(-8.07 -23.22)"/><path class="cls-7" d="M583.92,181.71c0,.16-6.48.34-14.47.41S555,182.14,555,182s6.48-.34,14.47-.41S583.92,181.56,583.92,181.71Z" transform="translate(-8.07 -23.22)"/><path class="cls-7" d="M141.77,173.82a2.83,2.83,0,0,1-.63.12l-1.81.24c-.79.09-1.75.21-2.86.39s-2.38.34-3.77.62c-2.79.48-6.08,1.21-9.69,2.17s-7.52,2.26-11.55,3.82-7.74,3.33-11.06,5-6.22,3.45-8.59,5c-1.21.74-2.25,1.49-3.18,2.11s-1.73,1.19-2.37,1.66l-1.48,1a2.5,2.5,0,0,1-.55.34,2.88,2.88,0,0,1,.48-.42l1.42-1.14c.62-.5,1.39-1.09,2.32-1.74s2-1.42,3.15-2.19c2.35-1.58,5.25-3.33,8.56-5.11a115.93,115.93,0,0,1,11.1-5.12,114.73,114.73,0,0,1,11.62-3.79c3.63-.94,7-1.64,9.75-2.07,1.4-.26,2.68-.39,3.8-.54s2.08-.24,2.88-.3l1.82-.13A2.42,2.42,0,0,1,141.77,173.82Z" transform="translate(-8.07 -23.22)"/><path class="cls-7" d="M332.41,148.63a13.64,13.64,0,0,0-1-1,7.07,7.07,0,0,0-3.52-1.43,15.38,15.38,0,0,0-5.69.62,43.57,43.57,0,0,0-17.66,9.08c-2.54,2.14-3.88,3.71-4,3.63a7.52,7.52,0,0,1,.9-1.13,33.14,33.14,0,0,1,2.8-2.79,40.6,40.6,0,0,1,11-7,41,41,0,0,1,6.82-2.28,15.34,15.34,0,0,1,5.87-.51,7,7,0,0,1,3.62,1.65,5.29,5.29,0,0,1,.71.82C332.37,148.5,332.43,148.62,332.41,148.63Z" transform="translate(-8.07 -23.22)"/><path class="cls-1" d="M676.13,120.44a17.33,17.33,0,0,1-4.54.46,28.49,28.49,0,0,1-5.33-.66,47.14,47.14,0,0,1-6.79-2.1c-2.47-.93-5.1-2.11-7.94-3.32L647.1,113c-1.53-.6-3.14-1.13-4.76-1.72a183.75,183.75,0,0,0-21.76-5.93,249.56,249.56,0,0,0-40.67-5.07c-2.62-.14-5-.14-7.08-.2h-5.35l-3.38.08h-1.18a.88.88,0,0,1,.3,0l.87-.06,3.38-.18,5.36-.1c2.09,0,4.47,0,7.1.12a237.66,237.66,0,0,1,40.76,4.91,180.11,180.11,0,0,1,21.81,6c1.64.61,3.25,1.14,4.78,1.76l4.43,1.82c2.84,1.23,5.45,2.43,7.9,3.38a50,50,0,0,0,6.72,2.16,29.5,29.5,0,0,0,5.27.74,23.77,23.77,0,0,0,3.36-.12l.87-.11A1,1,0,0,1,676.13,120.44Z" transform="translate(-8.07 -23.22)"/></g><g id="Character"><path class="cls-2" d="M162.48,121.9c-4.27-23.36-7.14-26.94-9.55-35s-6.25-13.26-11-15.1c-3.22-1.24-19.28-7-24.88-5.11a69.77,69.77,0,0,0-15.51,7.79,20.75,20.75,0,0,0-8.1,10.35l-8.6,24.09,15,15,7.54-16,8.18,19.17-1.21,19.38,46.91,12.62C165.54,152.26,164.9,135.16,162.48,121.9Z" transform="translate(-8.07 -23.22)"/><g class="cls-10"><path d="M150.26,96.43c-2.07,12.15-2.4,13.83-4.47,26-.71,4.18-2.79,10.69-5.76,13.7-2.21,2.24-4.36,4.39-7.42,5.11-2.84.68-7.16.75-9.84-.43s-5-6.37-3.85-9.08c4,.85,5.21,2.18,8.64,0,3-1.9,7.23-6.11,8.86-9.26,6.85-13.24,8.73-13.71,13.84-26" transform="translate(-8.07 -23.22)"/></g><path class="cls-1" d="M116.32,120a27.52,27.52,0,0,1-2.07-3.23l-4.84-7.88-5-7.81a27.79,27.79,0,0,1-2-3.28,3.78,3.78,0,0,1,.67.79c.4.53,1,1.3,1.65,2.27,1.36,1.94,3.18,4.67,5.09,7.74s3.56,5.9,4.71,8c.57,1,1,1.88,1.32,2.47A4.32,4.32,0,0,1,116.32,120Z" transform="translate(-8.07 -23.22)"/><path class="cls-1" d="M149,141.8a5,5,0,0,1-1.1.41,11.43,11.43,0,0,1-1.33.37c-.52.12-1.12.28-1.79.38a31.26,31.26,0,0,1-4.74.43,33.66,33.66,0,0,1-5.82-.5,34.43,34.43,0,0,1-5.63-1.59,30.81,30.81,0,0,1-4.29-2.08c-.59-.32-1.09-.69-1.54-1a13.46,13.46,0,0,1-1.11-.82,4.65,4.65,0,0,1-.89-.78c.07-.08,1.38,1,3.74,2.24a33.26,33.26,0,0,0,4.28,1.94,32.8,32.8,0,0,0,11.25,2.05,33.6,33.6,0,0,0,4.69-.3C147.42,142.2,149,141.69,149,141.8Z" transform="translate(-8.07 -23.22)"/><path class="cls-11" d="M130.23,105.4c-.09.42-5.13,10.45-5.13,10.45l-23.79-12.53L98.89,93.07a6.38,6.38,0,0,0-7.7-4.72l-7,2.87A1.86,1.86,0,0,0,83,92.58c-.1.52,0,1,.92,1,1.75-.14,5.38-.52,5.38-.52l-1.66,5.83a6.18,6.18,0,0,0,.47,4.58l1.05,2,2.32,3.74,0,0s23.12,23.75,36.11,25.29c7.8.93,16.64-20.94,16.64-20.94Z" transform="translate(-8.07 -23.22)"/><path class="cls-12" d="M89.11,93.4s.18-.25.58-.51a3.12,3.12,0,0,1,1.8-.56,1.92,1.92,0,0,1,1.6,1c.21.47.07.8,0,.78s0-.3-.26-.67a1.86,1.86,0,0,0-1.4-.79,3.59,3.59,0,0,0-1.66.42C89.4,93.3,89.14,93.44,89.11,93.4Z" transform="translate(-8.07 -23.22)"/><path class="cls-12" d="M92.11,97s-.16-.19-.38-.47a2.81,2.81,0,0,0-1.1-.83,2.76,2.76,0,0,0-1.37-.15c-.36,0-.58.13-.6.09s.16-.21.55-.33a2.37,2.37,0,0,1,1.54.07,2.33,2.33,0,0,1,1.18,1C92.13,96.78,92.15,97,92.11,97Z" transform="translate(-8.07 -23.22)"/><path class="cls-2" d="M135.16,73.72l-6.44,30.53,17.07,10.26,6.56-18.76S149.63,73,135.16,73.72Z" transform="translate(-8.07 -23.22)"/><path class="cls-13" d="M144.36,74.26s-.14.11-.43.27-.73.4-1.3.69c-1.13.58-2.79,1.39-4.87,2.31a71.77,71.77,0,0,1-17,5.35,42.16,42.16,0,0,1-17.74-.6A30,30,0,0,1,98,80.46c-.59-.26-1-.52-1.31-.67a2.16,2.16,0,0,1-.44-.27,19,19,0,0,1,1.84.74,35.09,35.09,0,0,0,5.1,1.64,43.91,43.91,0,0,0,17.55.43,77.36,77.36,0,0,0,16.91-5.16c2.1-.87,3.77-1.63,4.94-2.15A14.63,14.63,0,0,1,144.36,74.26Z" transform="translate(-8.07 -23.22)"/><path class="cls-13" d="M148.85,77.63a2,2,0,0,1-.47.35l-1.42.91c-.61.39-1.38.86-2.3,1.34s-1.94,1.08-3.14,1.6l-1.87.85c-.65.3-1.35.54-2.07.83-1.42.6-3,1.08-4.64,1.61a64.2,64.2,0,0,1-22.27,2.64c-1.72-.14-3.37-.24-4.89-.49-.76-.11-1.5-.18-2.2-.32l-2-.4c-1.29-.22-2.42-.56-3.43-.82s-1.86-.52-2.55-.76L94,84.42a2.52,2.52,0,0,1-.54-.23,2,2,0,0,1,.58.12l1.62.45c.69.21,1.55.45,2.56.67s2.14.54,3.43.74l2,.36c.7.12,1.43.18,2.19.29,1.51.22,3.15.3,4.86.42a73.86,73.86,0,0,0,11.16-.37,73.16,73.16,0,0,0,10.93-2.24c1.64-.52,3.21-1,4.63-1.55.71-.28,1.41-.51,2.06-.79l1.87-.82c1.21-.49,2.24-1.06,3.16-1.52s1.71-.88,2.34-1.25l1.47-.82A2.83,2.83,0,0,1,148.85,77.63Z" transform="translate(-8.07 -23.22)"/><path class="cls-1" d="M145.79,114.51a10.66,10.66,0,0,1-1.39-.71l-3.76-2.11-12.84-7.4-.16-.09,0-.19c.45-2.28.95-4.72,1.45-7.25.78-3.79,1.52-7.41,2.19-10.71.36-1.64.64-3.21,1-4.68a16.75,16.75,0,0,1,1.37-4,8,8,0,0,1,4.41-4,5.37,5.37,0,0,1,1.63-.27,1.45,1.45,0,0,1,.57.07,7.55,7.55,0,0,0-2.13.41,7.84,7.84,0,0,0-4.13,4,16.6,16.6,0,0,0-1.27,3.89c-.29,1.47-.59,3-.91,4.68-.67,3.3-1.39,6.92-2.15,10.71-.51,2.53-1,5-1.48,7.25l-.13-.28,12.74,7.57,3.69,2.24A10.7,10.7,0,0,1,145.79,114.51Z" transform="translate(-8.07 -23.22)"/><path class="cls-1" d="M151,94.85a11.51,11.51,0,0,1-.09,2.84,43.56,43.56,0,0,1-3.49,13.25,11.5,11.5,0,0,1-1.32,2.52,18.53,18.53,0,0,1,1-2.67,62.26,62.26,0,0,0,3.46-13.15A18.21,18.21,0,0,1,151,94.85Z" transform="translate(-8.07 -23.22)"/><path class="cls-8" d="M58.39,264.62l-.18,16.3s-16.63,5.28-17,8.29l31.59,1.5,1.33-25.38Z" transform="translate(-8.07 -23.22)"/><path class="cls-5" d="M68,280a1.3,1.3,0,0,1,.82,1.52,1.25,1.25,0,0,1-1.49.83,1.38,1.38,0,0,1-.87-1.61,1.29,1.29,0,0,1,1.65-.69" transform="translate(-8.07 -23.22)"/><path class="cls-5" d="M72.84,290.71l0-2.56-30.3-.48s-1.43.54-1.32,1.54Z" transform="translate(-8.07 -23.22)"/><path class="cls-1" d="M57.7,280.73c0,.16.77.27,1.5.8s1.11,1.2,1.26,1.14-.05-.95-1-1.58S57.67,280.59,57.7,280.73Z" transform="translate(-8.07 -23.22)"/><path class="cls-1" d="M54.32,282c0,.14.62.44,1.11,1.12s.61,1.37.76,1.37.3-.87-.33-1.7S54.33,281.8,54.32,282Z" transform="translate(-8.07 -23.22)"/><path class="cls-1" d="M52.25,285.82c.14,0,.39-.72,0-1.58s-1.07-1.24-1.14-1.11.36.6.64,1.31S52.1,285.8,52.25,285.82Z" transform="translate(-8.07 -23.22)"/><path class="cls-1" d="M58.16,277c.05.15.77,0,1.64.07s1.54.41,1.62.28-.54-.71-1.56-.81S58.09,276.9,58.16,277Z" transform="translate(-8.07 -23.22)"/><g class="cls-14"><polygon points="50.29 244.63 50.26 247.53 65.79 248.13 65.93 245.52 50.29 244.63"/></g><path class="cls-1" d="M58.25,273.74a3.11,3.11,0,0,0,1.59.06,7,7,0,0,0,1.68-.43,7,7,0,0,0,.93-.43,2.26,2.26,0,0,0,.49-.35.67.67,0,0,0,.11-.82.86.86,0,0,0-.66-.39,2.1,2.1,0,0,0-.59.06,5.84,5.84,0,0,0-1,.29,5.38,5.38,0,0,0-1.51.89c-.76.64-1,1.2-1,1.24s.45-.41,1.22-.94a6.32,6.32,0,0,1,1.45-.73,5.38,5.38,0,0,1,.92-.23c.34-.08.62-.07.7.09s0,.08,0,.17a1.87,1.87,0,0,1-.36.26c-.29.17-.58.31-.86.44a9.06,9.06,0,0,1-1.56.51A10.05,10.05,0,0,0,58.25,273.74Z" transform="translate(-8.07 -23.22)"/><path class="cls-1" d="M58.44,274c.06,0,.39-.51.49-1.51a5.13,5.13,0,0,0-.13-1.74,4.85,4.85,0,0,0-.36-1,1.31,1.31,0,0,0-1-.85.74.74,0,0,0-.68.41,2.54,2.54,0,0,0-.19.57,3.9,3.9,0,0,0-.05,1.07,3.62,3.62,0,0,0,.6,1.66c.58.85,1.21,1.07,1.23,1s-.47-.4-.91-1.21A3.84,3.84,0,0,1,57,270.9a3.51,3.51,0,0,1,.08-.91c.06-.34.2-.6.32-.56s.42.27.53.54a4.61,4.61,0,0,1,.35.88,6.14,6.14,0,0,1,.24,1.59C58.55,273.37,58.36,273.94,58.44,274Z" transform="translate(-8.07 -23.22)"/><path class="cls-1" d="M122.77,146.64S73.44,126,58.16,125.06c-9.58-.55-16.82,5.6-15.52,15.51.65,5,14.28,63,14.28,63l20.8-9.5L67.73,154l40.53,19.7Z" transform="translate(-8.07 -23.22)"/><path class="cls-8" d="M61.5,143.79c-.16.14,1.48,2.25,3.2,5s2.87,5.19,3.07,5.11-.69-2.65-2.46-5.49S61.64,143.66,61.5,143.79Z" transform="translate(-8.07 -23.22)"/><path class="cls-8" d="M57.46,146.1c-.1.18,2.39,1.76,5.31,3.91s5.18,4.05,5.32,3.9-1.92-2.31-4.89-4.48S57.55,145.93,57.46,146.1Z" transform="translate(-8.07 -23.22)"/><path class="cls-1" d="M161.27,159.09s-6.21,8-12.13,10.18C141.71,172,86.73,198,86.73,198s-10,74.07-9.18,71l-23-.55L57,200.16c.3-8.74,7.3-18.77,14.83-23.23l50.9-30.29Z" transform="translate(-8.07 -23.22)"/><path class="cls-8" d="M56.61,212.64a5.71,5.71,0,0,0,.09-.93c0-.69.08-1.58.14-2.69a90.09,90.09,0,0,1,.91-9.81,33.84,33.84,0,0,1,5-13.52,25.51,25.51,0,0,1,5.92-6.11,70.57,70.57,0,0,1,7.8-4.94c11.07-6.34,20.63-12.81,27.69-17.24,3.52-2.24,6.39-4,8.38-5.25l2.28-1.41a5.46,5.46,0,0,0,.78-.53,4.55,4.55,0,0,0-.85.4c-.54.29-1.35.72-2.36,1.3-2,1.14-4.94,2.87-8.5,5.05-7.14,4.33-16.74,10.73-27.78,17a68.61,68.61,0,0,0-7.88,5,26,26,0,0,0-6,6.3,33.86,33.86,0,0,0-4.93,13.82,75.61,75.61,0,0,0-.68,9.88c0,1.1,0,2,0,2.68A3.79,3.79,0,0,0,56.61,212.64Z" transform="translate(-8.07 -23.22)"/><path class="cls-8" d="M141,166.9a20.42,20.42,0,0,0-1.41-1.9,13.7,13.7,0,0,1-2.17-5.1,13.88,13.88,0,0,1,0-5.56,19.1,19.1,0,0,0,.56-2.29,4.91,4.91,0,0,0-1.06,2.17,12.23,12.23,0,0,0,2.24,11.09C140.11,166.47,140.91,167,141,166.9Z" transform="translate(-8.07 -23.22)"/><path class="cls-8" d="M63,268.39s0-.13.07-.38.09-.66.14-1.12c.11-1,.27-2.48.46-4.31.38-3.81.91-9.22,1.56-15.88.32-3.36.67-7,1-11s.77-8.15,1.08-12.59.76-9.08,1.57-13.84a57.33,57.33,0,0,1,4.23-14.25,47.56,47.56,0,0,1,8.35-12.24,74.84,74.84,0,0,1,10.42-9.18c7.15-5.27,14.21-9.11,20-12.5s10.49-6.22,13.58-8.37c1.56-1.07,2.74-1.94,3.52-2.55l.89-.7c.2-.16.29-.24.28-.25a1.58,1.58,0,0,0-.33.2l-.93.64c-.81.56-2,1.39-3.58,2.42-3.14,2.08-7.82,4.86-13.69,8.16s-12.94,7.14-20.17,12.41A74.69,74.69,0,0,0,81,182.32a48.21,48.21,0,0,0-8.49,12.43,57.42,57.42,0,0,0-4.27,14.43c-.8,4.8-1.21,9.47-1.54,13.91s-.66,8.65-1,12.6-.67,7.61-1,11c-.56,6.67-1,12.08-1.33,15.89-.14,1.84-.24,3.28-.32,4.33,0,.46-.05.83-.07,1.12A1.91,1.91,0,0,0,63,268.39Z" transform="translate(-8.07 -23.22)"/><path class="cls-1" d="M117.17,29.14a9,9,0,0,0-10.28-5.53,11.49,11.49,0,0,1-2.87.61c-1.2,0-2.29-.68-3.47-.92a5.25,5.25,0,0,0-5.9,3.82,7.1,7.1,0,0,0-5.86,1.17,4.59,4.59,0,0,0-1.37,5.53c.41.78,1.1,1.4,1.48,2.19.62,1.32.34,2.9.78,4.29.65,2.05,2.83,3.33,5,3.57A17,17,0,0,0,101,43" transform="translate(-8.07 -23.22)"/><path class="cls-11" d="M107.27,71.36c-.27-2.06-.45-3.51-.45-3.51s-6.88,0-9.66-8.57C95.78,55,94.87,47.88,94.31,42a9.35,9.35,0,0,1,8.81-10.23l18.28-1,.39,2.83,4.82,35.14a9.76,9.76,0,0,1-8.4,11h0A9.75,9.75,0,0,1,107.27,71.36Z" transform="translate(-8.07 -23.22)"/><path class="cls-1" d="M96.9,47a1.12,1.12,0,0,0,1.26,1,1.08,1.08,0,0,0,1-1.19,1.13,1.13,0,0,0-1.26-1A1.07,1.07,0,0,0,96.9,47Z" transform="translate(-8.07 -23.22)"/><path class="cls-1" d="M96.44,45.45c.16.13.91-.64,2.12-.83s2.19.28,2.3.11-.13-.32-.56-.54a3.16,3.16,0,0,0-1.87-.26,3,3,0,0,0-1.66.84C96.45,45.11,96.36,45.4,96.44,45.45Z" transform="translate(-8.07 -23.22)"/><path class="cls-1" d="M108.36,45.09a1.15,1.15,0,0,0,1.26,1,1.09,1.09,0,0,0,1-1.2,1.14,1.14,0,0,0-1.26-1A1.1,1.1,0,0,0,108.36,45.09Z" transform="translate(-8.07 -23.22)"/><path class="cls-1" d="M108.34,43.79c.16.13.91-.64,2.12-.83s2.18.28,2.29.11-.13-.32-.56-.54a3,3,0,0,0-1.86-.26,3,3,0,0,0-1.66.84C108.34,43.45,108.26,43.74,108.34,43.79Z" transform="translate(-8.07 -23.22)"/><path class="cls-1" d="M105.38,53.44a8.15,8.15,0,0,0-2,0c-.32,0-.62,0-.7-.2a1.5,1.5,0,0,1,.06-.94c.17-.79.35-1.62.53-2.49a41.28,41.28,0,0,0,1.08-6.46,39,39,0,0,0-1.59,6.36c-.18.87-.34,1.7-.5,2.5a1.8,1.8,0,0,0,0,1.23.77.77,0,0,0,.58.37,2.37,2.37,0,0,0,.54,0A8,8,0,0,0,105.38,53.44Z" transform="translate(-8.07 -23.22)"/><path class="cls-12" d="M106.82,67.85a22.54,22.54,0,0,0,11.21-5s-1.89,6.46-10.77,7Z" transform="translate(-8.07 -23.22)"/><path class="cls-1" d="M109.07,53.71c-.2,0,0,1.33-1,2.43s-2.39,1.19-2.37,1.37.35.21.94.13a3.27,3.27,0,0,0,2-1.07,2.85,2.85,0,0,0,.73-2C109.35,54,109.15,53.68,109.07,53.71Z" transform="translate(-8.07 -23.22)"/><path class="cls-1" d="M107.28,39.11c.17.31,1.35,0,2.79-.09s2.65.15,2.79-.17c.06-.16-.19-.43-.7-.68a4.73,4.73,0,0,0-2.15-.39,4.63,4.63,0,0,0-2.1.59C107.42,38.67,107.2,39,107.28,39.11Z" transform="translate(-8.07 -23.22)"/><path class="cls-1" d="M96.33,41.89c.26.24,1-.18,2-.35s1.88-.11,2-.43c.07-.15-.11-.4-.52-.6a3,3,0,0,0-3.27.62C96.29,41.47,96.22,41.77,96.33,41.89Z" transform="translate(-8.07 -23.22)"/><path class="cls-1" d="M93.4,38.16s4.84,1.63,10.39-2.09c3.65-2.43,8.06-4,9.16-3.3s1.82,4.64,5.82,5.32c0,0,.71,7.69,3.73,7,2.14-.47.89-8.95,0-13.78a4.22,4.22,0,0,0-4-3.44l-5.63-.22-7,2L98.3,31.7l-5.73,2.38Z" transform="translate(-8.07 -23.22)"/><path class="cls-11" d="M121.82,42c.11-.08,4.78-2.53,5.64,2.56S123,49.47,123,49.33,121.82,42,121.82,42Z" transform="translate(-8.07 -23.22)"/><path class="cls-12" d="M124.23,47.14s.1,0,.26.09a1,1,0,0,0,.67-.1,2.24,2.24,0,0,0,.68-2.14,3,3,0,0,0-.47-1.23,1,1,0,0,0-.78-.57.47.47,0,0,0-.48.33c0,.16,0,.25,0,.27s-.12-.07-.12-.29a.58.58,0,0,1,.15-.35.65.65,0,0,1,.47-.21,1.27,1.27,0,0,1,1.06.63,3,3,0,0,1,.54,1.37,2.3,2.3,0,0,1-.92,2.41,1,1,0,0,1-.83,0C124.26,47.26,124.21,47.15,124.23,47.14Z" transform="translate(-8.07 -23.22)"/><path class="cls-8" d="M95.85,25.25s.17.27.53.68a4.46,4.46,0,0,0,1.93,1.24,6.32,6.32,0,0,0,3.39.15A30.6,30.6,0,0,0,105.81,26a11.37,11.37,0,0,1,4.36-.78,4.85,4.85,0,0,1,3.31,1.49,3.54,3.54,0,0,1,1,2.23,1.5,1.5,0,0,1-.15.89s0-.32-.07-.86a3.51,3.51,0,0,0-1.08-2,4.46,4.46,0,0,0-3.06-1.25,11.06,11.06,0,0,0-4.15.79,27.72,27.72,0,0,1-4.2,1.28,6.49,6.49,0,0,1-3.62-.28,4.33,4.33,0,0,1-2-1.47C95.88,25.58,95.82,25.26,95.85,25.25Z" transform="translate(-8.07 -23.22)"/><path class="cls-8" d="M113.05,30.13s-.26-.28-.79-.64a4.74,4.74,0,0,0-2.56-.76,8.22,8.22,0,0,0-3.89.95,40.31,40.31,0,0,1-4.63,2.16,11.54,11.54,0,0,1-9.13-1,9.84,9.84,0,0,1-2.24-1.73,3.24,3.24,0,0,1-.65-.81,18.94,18.94,0,0,0,3.08,2.19,11.61,11.61,0,0,0,8.76.82,45.52,45.52,0,0,0,4.59-2.11,8.37,8.37,0,0,1,4.13-.87,4.58,4.58,0,0,1,2.67,1C112.91,29.76,113.07,30.11,113.05,30.13Z" transform="translate(-8.07 -23.22)"/><path class="cls-2" d="M75.19,92.63" transform="translate(-8.07 -23.22)"/><path class="cls-11" d="M97.24,116.88,72.44,95.75,64.27,97.6s8.61,17.91,14.85,24.47c0,0,6.16,8.25,16.32,4.69S97.24,116.88,97.24,116.88Z" transform="translate(-8.07 -23.22)"/><path class="cls-8" d="M70.57,72.48H60a2.68,2.68,0,0,0-2.44,3.36l10.6,20.64a2.39,2.39,0,0,0,2.13,1.3l12.85,0A1.84,1.84,0,0,0,84.57,95L74.34,74.83A4.19,4.19,0,0,0,70.57,72.48Z" transform="translate(-8.07 -23.22)"/><path class="cls-1" d="M69.86,73.72H59.32a1.77,1.77,0,0,0-1.57,2.57L68.09,96.48a2.4,2.4,0,0,0,2.14,1.3h12.7a1,1,0,0,0,.93-1.5L73.63,76.07A4.21,4.21,0,0,0,69.86,73.72Z" transform="translate(-8.07 -23.22)"/><path class="cls-11" d="M69,82.18l-6.42,2.56-1.37,5.17,3.09,7.69L75.6,99.25l-3.32-3.4.43-2.95s3.16-1,3.24-1.47-.39-2.11-.88-2.19a24.16,24.16,0,0,0-3.8,1.16s3.92-3.11,3.81-3.61-.53-1.77-1.31-1.91-7.12,2.84-7.12,2.84l-1,2.34-.9-3.75S70.36,84.74,69,82.18Z" transform="translate(-8.07 -23.22)"/><path class="cls-12" d="M69.77,94.29s-.16-.22-.21-.64A3.24,3.24,0,0,1,69.75,92a3.39,3.39,0,0,1,.91-1.35c.31-.28.55-.38.58-.34a6.63,6.63,0,0,0-1.18,1.81A7.37,7.37,0,0,0,69.77,94.29Z" transform="translate(-8.07 -23.22)"/><path class="cls-12" d="M66.73,93.17A14,14,0,0,0,67,91.49a7.48,7.48,0,0,1,.32-1.86,2.74,2.74,0,0,1,.59-1,3,3,0,0,1,1-.66c1.53-.56,2.91-1,3.93-1.33a8.53,8.53,0,0,1,1.65-.46,8.93,8.93,0,0,1-1.58.68c-1,.38-2.37.87-3.88,1.42a2.69,2.69,0,0,0-.94.57,2.65,2.65,0,0,0-.53.88,8.15,8.15,0,0,0-.38,1.78A3.45,3.45,0,0,1,66.73,93.17Z" transform="translate(-8.07 -23.22)"/><path class="cls-12" d="M65.25,92c-.09,0-.07-.58,0-1.26s.28-1.23.37-1.21.07.58,0,1.26S65.34,92,65.25,92Z" transform="translate(-8.07 -23.22)"/><path class="cls-4" d="M65.08,77.62a1.35,1.35,0,1,0,1.34-1.34A1.34,1.34,0,0,0,65.08,77.62Z" transform="translate(-8.07 -23.22)"/></g><g id="Plant"><path class="cls-2" d="M28.16,281.12a13,13,0,0,1,7.78,6.59,23,23,0,0,1,2.37,10.11c.22,6.76-2.58,14-5.88,19.92-6.3-4.07-8.83-12.4-9.85-16.71-1.61-6.81-.38-20.09,5.58-19.91" transform="translate(-8.07 -23.22)"/><path class="cls-2" d="M40.54,327.77a11.1,11.1,0,0,1,2-11,14.76,14.76,0,0,1,10.27-4.93c1.8-.12,3.8.12,5,1.44a4.75,4.75,0,0,1,.76,4.75,9.67,9.67,0,0,1-3,4c-4.41,3.75-9.36,6.56-15.08,5.72" transform="translate(-8.07 -23.22)"/><path class="cls-1" d="M36.33,349.19a7.1,7.1,0,0,1,0-1.39c0-1,.08-2.26.14-3.79a39.09,39.09,0,0,1,2.09-12.35,23.84,23.84,0,0,1,7.15-10.22,16.23,16.23,0,0,1,3.23-2c.4-.2.74-.31,1-.4a1.21,1.21,0,0,1,.35-.1,25.25,25.25,0,0,0-4.32,2.8A24.6,24.6,0,0,0,39,331.84c-1.74,4.54-2,9-2.21,12.19-.11,1.6-.2,2.89-.29,3.78A7.84,7.84,0,0,1,36.33,349.19Z" transform="translate(-8.07 -23.22)"/><path class="cls-1" d="M28.12,291.32a3.36,3.36,0,0,1,.15.58l.35,1.7c.3,1.48.7,3.62,1.17,6.27.95,5.3,2.16,12.64,3.31,20.78s2,15.53,2.57,20.89c.28,2.67.49,4.84.61,6.34.06.71.1,1.29.14,1.73a2.82,2.82,0,0,1,0,.61,2.88,2.88,0,0,1-.11-.6c-.06-.44-.13-1-.23-1.72-.18-1.55-.44-3.7-.76-6.32-.64-5.35-1.57-12.73-2.72-20.86s-2.3-15.48-3.16-20.79c-.42-2.61-.76-4.75-1-6.29-.11-.71-.2-1.28-.26-1.72A2.26,2.26,0,0,1,28.12,291.32Z" transform="translate(-8.07 -23.22)"/><path class="cls-2" d="M31.44,333.22a26,26,0,0,0-16.78-16.79c-2-.62-4.52-.85-5.86.77s-.63,4.06.41,5.89a22.18,22.18,0,0,0,22.18,10.7" transform="translate(-8.07 -23.22)"/><path class="cls-1" d="M16.49,322.61a5.9,5.9,0,0,1,1.26.34,14,14,0,0,1,1.45.52,18.67,18.67,0,0,1,1.86.83,22.69,22.69,0,0,1,2.17,1.18,25.08,25.08,0,0,1,2.36,1.59,28.94,28.94,0,0,1,4.69,4.5,29.09,29.09,0,0,1,3.46,5.51,26,26,0,0,1,1.06,2.64,20.36,20.36,0,0,1,.68,2.38,16.62,16.62,0,0,1,.39,2,12.94,12.94,0,0,1,.18,1.53,6.74,6.74,0,0,1,0,1.3c-.11,0-.19-1.86-.94-4.75a20.47,20.47,0,0,0-.74-2.32,23.74,23.74,0,0,0-1.08-2.58,28.91,28.91,0,0,0-3.43-5.4,30.31,30.31,0,0,0-4.59-4.45c-.79-.59-1.54-1.15-2.29-1.6s-1.46-.87-2.11-1.23C18.25,323.23,16.45,322.71,16.49,322.61Z" transform="translate(-8.07 -23.22)"/></g></svg>