<svg xmlns="http://www.w3.org/2000/svg" xmlns:xlink="http://www.w3.org/1999/xlink" viewBox="0 0 3493.04 3515.17"><defs><style>.cls-1{fill:url(#linear-gradient);}.cls-2{fill:url(#linear-gradient-2);}.cls-3,.cls-8{fill:#91b3fa;}.cls-3{opacity:0.21;}.cls-4{fill:url(#linear-gradient-3);}.cls-5{fill:#7d97f4;}.cls-11,.cls-13,.cls-6,.cls-9{fill:#fff;}.cls-7{fill:url(#linear-gradient-4);}.cls-10,.cls-9{opacity:0.51;}.cls-11{opacity:0.7;}.cls-12{fill:url(#linear-gradient-5);}.cls-13{opacity:0.61;}.cls-14{fill:url(#linear-gradient-6);}.cls-15{fill:url(#linear-gradient-7);}.cls-16{fill:url(#linear-gradient-8);}.cls-17{fill:url(#linear-gradient-9);}.cls-18{fill:url(#linear-gradient-10);}.cls-19{fill:url(#linear-gradient-11);}.cls-20{fill:url(#linear-gradient-12);}.cls-21{fill:url(#linear-gradient-13);}.cls-22{fill:url(#linear-gradient-14);}.cls-23{fill:url(#linear-gradient-15);}.cls-24{fill:url(#linear-gradient-16);}.cls-25{fill:url(#linear-gradient-17);}.cls-26{fill:url(#linear-gradient-18);}.cls-27{fill:url(#linear-gradient-19);}</style><linearGradient id="linear-gradient" x1="3868.67" y1="3661.08" x2="1343.79" y2="1451.82" gradientUnits="userSpaceOnUse"><stop offset="0" stop-color="#dae3fe"/><stop offset="1" stop-color="#e9effd"/></linearGradient><linearGradient id="linear-gradient-2" x1="1851.32" y1="364.74" x2="-851.93" y2="4559.43" gradientTransform="matrix(-1, 0, 0, 1, 2257.33, 0)" gradientUnits="userSpaceOnUse"><stop offset="0" stop-color="#4f52ff"/><stop offset="1" stop-color="#4042e2"/></linearGradient><linearGradient id="linear-gradient-3" x1="-613.05" y1="3434.83" x2="-162.96" y2="2084.56" gradientTransform="matrix(-1, 0, 0, 1, 1155.78, 0)" gradientUnits="userSpaceOnUse"><stop offset="0" stop-color="#09005d"/><stop offset="1" stop-color="#1a0f91"/></linearGradient><linearGradient id="linear-gradient-4" x1="434.4" y1="3354.07" x2="-1570.22" y2="3841.69" gradientTransform="matrix(1, 0, 0, -1, 1995.1, 7123.64)" xlink:href="#linear-gradient-3"/><linearGradient id="linear-gradient-5" x1="4148.49" y1="474.47" x2="3565.27" y2="1045.02" gradientUnits="userSpaceOnUse"><stop offset="0" stop-color="#ff928e"/><stop offset="1" stop-color="#fe7062"/></linearGradient><linearGradient id="linear-gradient-6" x1="1950.62" y1="1902.53" x2="2108.12" y2="2067.03" gradientTransform="matrix(-1, 0, 0, 1, 2478.46, 0)" xlink:href="#linear-gradient-3"/><linearGradient id="linear-gradient-7" x1="2159.55" y1="2315.43" x2="2457.48" y2="2534.09" gradientTransform="matrix(-1, 0, 0, 1, 2478.46, 0)" xlink:href="#linear-gradient-3"/><linearGradient id="linear-gradient-8" x1="1678.23" y1="1507.31" x2="1475.97" y2="1747.84" gradientTransform="matrix(-1, 0, 0, 1, 2478.46, 0)" gradientUnits="userSpaceOnUse"><stop offset="0" stop-color="#febbba"/><stop offset="1" stop-color="#ff928e"/></linearGradient><linearGradient id="linear-gradient-9" x1="1803.1" y1="915.31" x2="1194.49" y2="1549.28" xlink:href="#linear-gradient-5"/><linearGradient id="linear-gradient-10" x1="1442.39" y1="1726.16" x2="1846.67" y2="1173.08" xlink:href="#linear-gradient-8"/><linearGradient id="linear-gradient-11" x1="1195.07" y1="1267.82" x2="1209.97" y2="1133.8" xlink:href="#linear-gradient-8"/><linearGradient id="linear-gradient-12" x1="1274.5" y1="1150.92" x2="1208.86" y2="934.43" xlink:href="#linear-gradient-8"/><linearGradient id="linear-gradient-13" x1="1215.27" y1="753.41" x2="1276.29" y2="1101.48" gradientTransform="matrix(-1, 0, 0, 1, 2478.46, 0)" xlink:href="#linear-gradient-3"/><linearGradient id="linear-gradient-14" x1="1206.51" y1="1171.53" x2="1140.88" y2="955.04" xlink:href="#linear-gradient-8"/><linearGradient id="linear-gradient-15" x1="1743.01" y1="1601.03" x2="2050.65" y2="1601.03" gradientTransform="matrix(-1, 0, 0, 1, 2478.46, 0)" xlink:href="#linear-gradient-3"/><linearGradient id="linear-gradient-16" x1="1780.35" y1="1735.51" x2="1534.36" y2="1802.93" gradientTransform="matrix(-1, 0, 0, 1, 2478.46, 0)" xlink:href="#linear-gradient-3"/><linearGradient id="linear-gradient-17" x1="1153.47" y1="574.53" x2="1058.38" y2="2038.93" gradientUnits="userSpaceOnUse"><stop offset="0" stop-color="#e1473d"/><stop offset="1" stop-color="#e9605a"/></linearGradient><linearGradient id="linear-gradient-18" x1="1326.59" y1="585.77" x2="1231.5" y2="2050.17" xlink:href="#linear-gradient-17"/><linearGradient id="linear-gradient-19" x1="1455.4" y1="594.13" x2="1360.31" y2="2058.54" xlink:href="#linear-gradient-17"/></defs><g id="Illustration"><path class="cls-1" d="M3430.11,2518.62C3105.84,3293.33,2242,3727.33,1493,3610.26c-121.89-19.05-456.06-75.8-751.92-343.5-569.56-515.36-691.36-1535.82-231.92-2255,334.39-523.41,933.83-820.12,1503.4-805.27,122.69,3.19,592.88,22.89,1006.09,368.6,60.7,50.78,194.56,171.45,315.2,362.87C3617.1,1387.49,3641.45,2013.73,3430.11,2518.62Z" transform="translate(-124.96 -114)"/><path class="cls-2" d="M144.21,2374.06c55.36-236.31,236.41-421.82,466.9-478.56,158.46-39,310.49-18.07,439,45.13,42.62,21,93.26-2.76,105.07-49.7,113.59-451.44,513.38-785,989.16-785,564.16,0,1021.51,468.93,1021.51,1047.38,0,15.36-.3,36.33-.56,56.46,2,43.26,20.42,61.63,47.91,66.24,221,23.58,394.75,210.42,404.39,440.87,11.07,264.6-199,483.82-457.27,483.82H771.06C362.06,3200.74,41.82,2811.07,144.21,2374.06Z" transform="translate(-124.96 -114)"/><path class="cls-3" d="M329.25,2462.62c49.44-211,211.09-376.63,416.88-427.28,141.49-34.83,277.23-16.14,392,40.29,38.06,18.72,83.28-2.47,93.82-44.37,101.42-403.09,458.38-700.87,883.19-700.87,503.72,0,912.07,418.69,912.07,935.17,0,13.71-.27,32.44-.5,50.41,1.78,38.62,18.23,55,42.78,59.14,197.36,21.06,352.46,187.88,361.07,393.64,9.88,236.25-177.66,432-408.29,432H889C523.76,3200.74,237.83,2852.82,329.25,2462.62Z" transform="translate(-124.96 -114)"/><path class="cls-4" d="M606.66,3483.81A35.33,35.33,0,0,0,641.9,3519H2547.61a35.33,35.33,0,0,0,35.25-35.21l15.85-1095.16c0-19.36-22.81-57.16-64.62-54.32L671.62,2286.14A88.8,88.8,0,0,0,580.49,2377Z" transform="translate(-124.96 -114)"/><path class="cls-5" d="M641.45,3450a33.45,33.45,0,0,0,33.34,33.34H2501.66A33.45,33.45,0,0,0,2535,3450l15-994.2c-1.76-59.83-54.21-81.33-86-80.06l-1785-47.89a62.39,62.39,0,0,0-64,63.87Z" transform="translate(-124.96 -114)"/><path class="cls-6" d="M2515.26,2977.72h-.05a4.88,4.88,0,0,1-4.84-5l1.18-80.62a4.89,4.89,0,0,1,4.88-4.82h.05a4.89,4.89,0,0,1,4.84,5l-1.18,80.63A4.89,4.89,0,0,1,2515.26,2977.72Z" transform="translate(-124.96 -114)"/><path class="cls-6" d="M2518.16,2780.14h-.07a4.89,4.89,0,0,1-4.82-5l4.53-308.8c-.08-18.34-5.65-33-16.55-43.43-20.34-19.49-52.63-18.5-54-18.43l-570.53-15.3a4.89,4.89,0,0,1-4.76-5,4.69,4.69,0,0,1,5-4.75l570.19,15.3c3.55-.21,37.93-.8,60.83,21.14,12.89,12.34,19.47,29.35,19.57,50.54l-4.54,308.9A4.89,4.89,0,0,1,2518.16,2780.14Z" transform="translate(-124.96 -114)"/><rect class="cls-7" x="452.06" y="3513.71" width="2246.76" height="96.22" rx="5.65" transform="translate(3025.92 7009.64) rotate(-180)"/><path class="cls-8" d="M1434,3434.88H730.64a47,47,0,0,1-47-47V2469.78a47,47,0,0,1,48.76-46.92l703.38,26.91A47,47,0,0,1,1481,2496.7v891.22A47,47,0,0,1,1434,3434.88Z" transform="translate(-124.96 -114)"/><rect class="cls-9" x="696.55" y="2669.03" width="479.31" height="61.92" rx="5.33"/><rect class="cls-9" x="697.49" y="2767.91" width="479.31" height="61.92" rx="5.33"/><rect class="cls-9" x="700.3" y="2868.86" width="479.31" height="61.92" rx="5.33"/><rect class="cls-9" x="701.25" y="2967.75" width="479.31" height="61.92" rx="5.33"/><rect class="cls-9" x="1508.55" y="2668.96" width="689.1" height="61.92" rx="5.33"/><rect class="cls-9" x="1510.68" y="2767.91" width="689.1" height="61.92" rx="5.33"/><rect class="cls-9" x="1510.68" y="2868.86" width="408.33" height="61.92" rx="5.33"/><g class="cls-10"><path class="cls-6" d="M1999.32,2552.18h-10.49a9.44,9.44,0,0,1-9.44-9.43v-35.88a23.25,23.25,0,0,0-23.25-23.25h-65a23.26,23.26,0,0,0-23.26,23.25v35.88a9.43,9.43,0,0,1-9.43,9.43h-10.5a9.44,9.44,0,0,1-9.44-9.43v-35.88a52.63,52.63,0,0,1,52.63-52.63h65a52.63,52.63,0,0,1,52.62,52.63v35.88A9.43,9.43,0,0,1,1999.32,2552.18Z" transform="translate(-124.96 -114)"/><path class="cls-6" d="M2012.33,2560.65H1834.9a19.7,19.7,0,0,0-19.69,19.69v136.17a19.69,19.69,0,0,0,19.69,19.69h177.43a19.68,19.68,0,0,0,19.69-19.69V2580.34A19.69,19.69,0,0,0,2012.33,2560.65ZM1949,2692.27a7.28,7.28,0,0,1-7.09,9h-36.59a7.3,7.3,0,0,1-7.09-9l8.54-35.54a32.89,32.89,0,1,1,33.7,0Z" transform="translate(-124.96 -114)"/></g><path class="cls-8" d="M2515.82,962.43a4.08,4.08,0,0,1-2-.54,4.21,4.21,0,0,1-1.65-5.74q4.08-7.35,7.92-14.79a4.23,4.23,0,0,1,7.51,3.88q-3.9,7.56-8,15A4.23,4.23,0,0,1,2515.82,962.43Z" transform="translate(-124.96 -114)"/><path class="cls-8" d="M2021.4,1253.43c-2.49,0-5,0-7.48,0a4.23,4.23,0,0,1,0-8.46h.06c10.93.15,22,0,32.89-.53a4.3,4.3,0,0,1,4.41,4,4.22,4.22,0,0,1-4,4.41C2038.71,1253.24,2030,1253.43,2021.4,1253.43Zm-61.17-3.29a3.4,3.4,0,0,1-.45,0c-11-1.19-22.17-2.73-33.08-4.55a4.23,4.23,0,1,1,1.4-8.34c10.75,1.8,21.71,3.31,32.58,4.49a4.23,4.23,0,0,1-.45,8.43Zm140.49-2.27a4.23,4.23,0,0,1-.59-8.41c10.82-1.52,21.73-3.39,32.43-5.54a4.22,4.22,0,1,1,1.67,8.28c-10.86,2.19-21.94,4.08-32.92,5.63A4,4,0,0,1,2100.72,1247.87Zm-225.93-13.66a4.09,4.09,0,0,1-1.09-.15c-10.71-2.86-21.47-6.07-32-9.55a4.22,4.22,0,1,1,2.66-8c10.36,3.42,21,6.59,31.51,9.41a4.23,4.23,0,0,1-1.09,8.31Zm310.82-5.06a4.23,4.23,0,0,1-1.22-8.27c10.47-3.17,21-6.69,31.19-10.46a4.23,4.23,0,0,1,2.92,7.93c-10.38,3.83-21,7.4-31.66,10.62A4,4,0,0,1,2185.61,1229.15Zm-392.82-23.76a4.26,4.26,0,0,1-1.7-.36c-10.16-4.48-20.3-9.31-30.14-14.36a4.23,4.23,0,1,1,3.87-7.52c9.68,5,19.67,9.73,29.68,14.14a4.23,4.23,0,0,1-1.71,8.1Zm473.82-7.8a4.23,4.23,0,0,1-1.84-8c9.83-4.73,19.66-9.83,29.21-15.15a4.23,4.23,0,1,1,4.11,7.39c-9.69,5.4-19.67,10.58-29.65,15.38A4.15,4.15,0,0,1,2266.61,1197.59Zm-550.38-33.3a4.17,4.17,0,0,1-2.28-.67c-9.33-6-18.6-12.32-27.55-18.84a4.23,4.23,0,1,1,5-6.83c8.81,6.42,17.94,12.66,27.14,18.56a4.23,4.23,0,0,1-2.29,7.78Zm625.54-10.39a4.23,4.23,0,0,1-2.41-7.7c9-6.21,17.92-12.76,26.54-19.48a4.23,4.23,0,0,1,5.2,6.67c-8.75,6.82-17.81,13.47-26.93,19.76A4.22,4.22,0,0,1,2341.77,1153.9Zm-694.83-42a4.2,4.2,0,0,1-2.8-1.06c-8.27-7.32-16.47-15-24.34-22.84a4.22,4.22,0,1,1,6-6c7.76,7.71,15.83,15.29,24,22.5a4.22,4.22,0,0,1-2.8,7.39Zm762.44-12.68a4.23,4.23,0,0,1-2.9-7.3c8-7.51,15.79-15.33,23.27-23.26a4.23,4.23,0,0,1,6.15,5.8c-7.6,8-15.54,16-23.61,23.61A4.29,4.29,0,0,1,2409.38,1099.2Zm-823-49.72a4.24,4.24,0,0,1-3.26-1.52c-7.08-8.5-14-17.34-20.61-26.26a4.23,4.23,0,1,1,6.8-5c6.5,8.79,13.33,17.5,20.31,25.88a4.23,4.23,0,0,1-3.24,6.93Zm881.46-14.56a4.22,4.22,0,0,1-3.33-6.82c6.73-8.65,13.27-17.58,19.44-26.54a4.23,4.23,0,1,1,7,4.79c-6.27,9.1-12.9,18.16-19.74,26.94A4.22,4.22,0,0,1,2467.88,1034.92Zm-931.82-56.29a4.21,4.21,0,0,1-3.63-2.06c-5.73-9.53-11.23-19.33-16.34-29.12a4.22,4.22,0,1,1,7.49-3.91c5,9.64,10.46,19.29,16.1,28.68a4.24,4.24,0,0,1-3.62,6.41Zm-38.86-77.76a4.22,4.22,0,0,1-3.91-2.64c-4.19-10.3-8.1-20.83-11.65-31.3a4.23,4.23,0,0,1,8-2.7c3.49,10.3,7.35,20.67,11.47,30.82a4.23,4.23,0,0,1-3.92,5.82Z" transform="translate(-124.96 -114)"/><path class="cls-8" d="M1470.76,817.82a4.22,4.22,0,0,1-4.11-3.26q-2-8.29-3.65-16.63a4.23,4.23,0,0,1,8.28-1.69q1.68,8.22,3.6,16.39a4.24,4.24,0,0,1-3.15,5.08A4.65,4.65,0,0,1,1470.76,817.82Z" transform="translate(-124.96 -114)"/><path class="cls-8" d="M1542.42,386.81a4.22,4.22,0,0,1-3.57-6.48q4.53-7.18,9.28-14.26a4.23,4.23,0,1,1,7,4.71q-4.7,7-9.15,14.06A4.23,4.23,0,0,1,1542.42,386.81Z" transform="translate(-124.96 -114)"/><path class="cls-8" d="M2563.91,528.4a4.23,4.23,0,0,1-4.06-3c-3.23-11-6.85-22.07-10.75-32.87a4.23,4.23,0,0,1,8-2.87c4,10.95,7.63,22.18,10.91,33.36a4.23,4.23,0,0,1-2.86,5.25A4.5,4.5,0,0,1,2563.91,528.4Zm-32.75-85.31a4.24,4.24,0,0,1-3.82-2.4c-5-10.36-10.34-20.69-15.94-30.69a4.23,4.23,0,1,1,7.38-4.12C2524.45,416,2529.9,426.5,2535,437a4.22,4.22,0,0,1-2,5.64A4.1,4.1,0,0,1,2531.16,443.09ZM2485,364.21a4.21,4.21,0,0,1-3.47-1.8C2475,353,2468,343.7,2460.84,334.7a4.22,4.22,0,1,1,6.61-5.26c7.26,9.13,14.33,18.59,21,28.12a4.23,4.23,0,0,1-1,5.89A4.17,4.17,0,0,1,2485,364.21Zm-899.45-36.88a4.23,4.23,0,0,1-3.25-6.93c7.42-8.93,15.24-17.78,23.23-26.31a4.23,4.23,0,0,1,6.17,5.79c-7.89,8.4-15.59,17.12-22.89,25.92A4.22,4.22,0,0,1,1585.55,327.33Zm841.2-33.54a4.23,4.23,0,0,1-3-1.28c-8-8.21-16.31-16.31-24.82-24.06a4.23,4.23,0,1,1,5.7-6.25c8.63,7.87,17.11,16.09,25.19,24.42a4.22,4.22,0,0,1-3,7.17Zm-777.39-31.88a4.22,4.22,0,0,1-2.78-7.4c8.8-7.69,17.93-15.18,27.14-22.3a4.23,4.23,0,0,1,5.17,6.7c-9.08,7-18.08,14.39-26.74,22A4.23,4.23,0,0,1,1649.36,261.91Zm708.71-28.34a4.19,4.19,0,0,1-2.52-.84c-9.21-6.84-18.75-13.48-28.36-19.74a4.22,4.22,0,1,1,4.61-7.08c9.75,6.35,19.45,13.09,28.8,20a4.23,4.23,0,0,1-2.53,7.62Zm-635.26-26.08a4.23,4.23,0,0,1-2.24-7.82c9.89-6.15,20.11-12.09,30.37-17.63a4.23,4.23,0,0,1,4,7.44c-10.12,5.46-20.18,11.3-29.92,17.37A4.25,4.25,0,0,1,1722.81,207.49Zm557.75-22.26a4.19,4.19,0,0,1-1.93-.47c-10.19-5.25-20.69-10.26-31.2-14.88a4.23,4.23,0,0,1,3.4-7.74c10.67,4.69,21.33,9.77,31.67,15.11a4.22,4.22,0,0,1-1.94,8Zm-476.5-19.59a4.23,4.23,0,0,1-1.62-8.13c10.74-4.46,21.78-8.66,32.83-12.47a4.23,4.23,0,1,1,2.75,8c-10.88,3.75-21.76,7.89-32.33,12.29A4.23,4.23,0,0,1,1804.06,165.64Zm392.18-15.55a4.32,4.32,0,0,1-1.31-.21c-10.91-3.54-22.08-6.78-33.2-9.65a4.22,4.22,0,1,1,2.11-8.18c11.28,2.9,22.63,6.2,33.7,9.79a4.23,4.23,0,0,1-1.3,8.25ZM1891,137.53a4.23,4.23,0,0,1-1-8.34c11.37-2.68,23-5,34.41-7a4.23,4.23,0,1,1,1.43,8.33c-11.3,1.93-22.7,4.25-33.9,6.89A4.65,4.65,0,0,1,1891,137.53ZM2107.34,129a3.45,3.45,0,0,1-.64-.05c-11.35-1.74-22.9-3.15-34.34-4.19a4.23,4.23,0,0,1,.77-8.42c11.6,1.06,23.33,2.49,34.85,4.26a4.22,4.22,0,0,1-.64,8.4Zm-126-5.18a4.23,4.23,0,0,1-.29-8.44c11.6-.82,23.4-1.28,35.07-1.38h0a4.23,4.23,0,0,1,0,8.45c-11.5.1-23.13.56-34.56,1.36Z" transform="translate(-124.96 -114)"/><path class="cls-8" d="M2580,600.36a4.24,4.24,0,0,1-4.18-3.58q-1.29-8.28-2.83-16.53a4.23,4.23,0,0,1,8.31-1.55q1.56,8.37,2.88,16.78a4.23,4.23,0,0,1-3.53,4.83A4.87,4.87,0,0,1,2580,600.36Z" transform="translate(-124.96 -114)"/><path class="cls-8" d="M2455.48,671.08a6.79,6.79,0,0,0-4.06-6.76l-75.76-32.91a359.86,359.86,0,0,0-36.08-110.86l41.81-71.19a6.79,6.79,0,0,0-.69-7.85l-64.41-75.29a6.8,6.8,0,0,0-7.65-1.91l-76.8,30.29a359.54,359.54,0,0,0-103.94-52.81l-20.78-80a6.77,6.77,0,0,0-6-5.05l-98.79-7.7a6.79,6.79,0,0,0-6.75,4.06l-32.91,75.77A359.83,359.83,0,0,0,1851.77,365l-71.19-41.81a6.77,6.77,0,0,0-7.85.7l-75.29,64.41a6.78,6.78,0,0,0-1.91,7.64l30.29,76.8A359.54,359.54,0,0,0,1673,576.66l-80,20.78a6.78,6.78,0,0,0-5,6l-7.7,98.79a6.78,6.78,0,0,0,4.06,6.75l75.77,32.92A359.92,359.92,0,0,0,1696.2,852.8L1654.39,924a6.78,6.78,0,0,0,.69,7.85l64.42,75.3a6.78,6.78,0,0,0,7.64,1.9l76.8-30.28a359.91,359.91,0,0,0,103.94,52.81l20.78,80a6.8,6.8,0,0,0,6,5.06l98.79,7.7a6.79,6.79,0,0,0,6.75-4.07l32.92-75.76A359.94,359.94,0,0,0,2184,1008.36l71.18,41.81a6.78,6.78,0,0,0,7.85-.69l75.3-64.41a6.79,6.79,0,0,0,1.9-7.65L2310,900.62a360.11,360.11,0,0,0,52.81-103.93l79.95-20.79a6.79,6.79,0,0,0,5.06-6Z" transform="translate(-124.96 -114)"/><path class="cls-11" d="M2017.69,781a94.64,94.64,0,1,1,16.12-1.38A95.62,95.62,0,0,1,2017.69,781Zm.37-176a82.26,82.26,0,0,0-13.94,1.19A81.66,81.66,0,1,0,2065.05,620h0A81,81,0,0,0,2018.06,605Z" transform="translate(-124.96 -114)"/><path class="cls-11" d="M2016.18,932.13q-9.69,0-19.46-.76a245.48,245.48,0,0,1-226.39-244.29q0-9.69.76-19.46a245.44,245.44,0,0,1,431.2-140.48,246.57,246.57,0,0,1,29.58,43.07l-11.15,6a234.09,234.09,0,0,0-28.07-40.84A232.75,232.75,0,0,0,1783.73,668.6q-.72,9.27-.72,18.46a232.8,232.8,0,0,0,453.45,73.74l12,4a245.61,245.61,0,0,1-232.31,167.3Z" transform="translate(-124.96 -114)"/><path class="cls-8" d="M2992.55,1101.17a4.23,4.23,0,0,1-3.63-6.39c2.84-4.79,5.55-9.69,8.07-14.56a4.23,4.23,0,1,1,7.51,3.88c-2.59,5-5.38,10.06-8.31,15A4.22,4.22,0,0,1,2992.55,1101.17Z" transform="translate(-124.96 -114)"/><path class="cls-8" d="M2719.77,1242.62h-.34a300.28,300.28,0,0,1-34.23-4.71,4.23,4.23,0,1,1,1.64-8.3,285.78,285.78,0,0,0,33.25,4.58,4.23,4.23,0,0,1-.32,8.44Zm55.28-.89a4.23,4.23,0,0,1-.47-8.43,291.66,291.66,0,0,0,33.09-5.67,4.22,4.22,0,1,1,1.91,8.23,296.9,296.9,0,0,1-34.06,5.84Zm-142-19.58a4.33,4.33,0,0,1-1.6-.31,295.56,295.56,0,0,1-31.18-14.87,4.23,4.23,0,1,1,4.08-7.4,289.51,289.51,0,0,0,30.29,14.44,4.23,4.23,0,0,1-1.59,8.14Zm228-3.79a4.23,4.23,0,0,1-1.73-8.09,285,285,0,0,0,29.79-15.48,4.23,4.23,0,0,1,4.33,7.26,294.09,294.09,0,0,1-30.67,15.94A4.23,4.23,0,0,1,2861.05,1218.36Zm-304.37-42.08a4.21,4.21,0,0,1-2.71-1,298.71,298.71,0,0,1-25.18-23.64,4.23,4.23,0,1,1,6.13-5.82,288.18,288.18,0,0,0,24.47,23,4.23,4.23,0,0,1-2.71,7.47Zm379.16-6.37a4.23,4.23,0,0,1-2.82-7.38l2.49-2.24a293.32,293.32,0,0,0,21.25-21.51,4.22,4.22,0,1,1,6.31,5.62,296.57,296.57,0,0,1-21.87,22.14l-2.55,2.3A4.21,4.21,0,0,1,2935.84,1169.91Zm-438.09-60.46a4.23,4.23,0,0,1-3.56-2,295.62,295.62,0,0,1-16.9-30.15,4.23,4.23,0,0,1,7.61-3.69,284.53,284.53,0,0,0,16.41,29.28,4.23,4.23,0,0,1-3.56,6.51Z" transform="translate(-124.96 -114)"/><path class="cls-8" d="M2461.8,1027.73a4.22,4.22,0,0,1-4.08-3.15c-1.46-5.49-2.77-11.11-3.9-16.69a4.22,4.22,0,1,1,8.28-1.68c1.1,5.42,2.38,10.87,3.79,16.21a4.23,4.23,0,0,1-3,5.17A4.53,4.53,0,0,1,2461.8,1027.73Z" transform="translate(-124.96 -114)"/><path class="cls-8" d="M2496.62,798.36a4.14,4.14,0,0,1-2.25-.66,4.21,4.21,0,0,1-1.32-5.82c3-4.82,6.25-9.61,9.56-14.24a4.22,4.22,0,0,1,6.87,4.91c-3.21,4.5-6.33,9.15-9.28,13.83A4.22,4.22,0,0,1,2496.62,798.36Z" transform="translate(-124.96 -114)"/><path class="cls-8" d="M3010,839.46a4.22,4.22,0,0,1-3.89-2.57,284.43,284.43,0,0,0-14.66-29.59,4.23,4.23,0,0,1,7.35-4.19,294.34,294.34,0,0,1,15.09,30.47,4.24,4.24,0,0,1-2.24,5.55A4.38,4.38,0,0,1,3010,839.46Zm-46.12-74.56a4.24,4.24,0,0,1-3.22-1.49q-3.22-3.79-6.62-7.52c-5.16-5.65-10.6-11.16-16.18-16.38a4.23,4.23,0,1,1,5.78-6.17c5.74,5.37,11.34,11,16.64,16.85q3.49,3.82,6.82,7.74a4.23,4.23,0,0,1-3.22,7Zm-422.22-21.68a4.23,4.23,0,0,1-2.92-7.29c1.71-1.63,3.44-3.24,5.19-4.85,6.61-6,13.56-11.81,20.67-17.21a4.23,4.23,0,0,1,5.11,6.73c-6.91,5.25-13.66,10.87-20.08,16.72-1.7,1.56-3.39,3.14-5,4.73A4.22,4.22,0,0,1,2541.69,743.22Zm356-35.84a4.14,4.14,0,0,1-2.25-.66,288,288,0,0,0-28.87-16,4.22,4.22,0,0,1,3.65-7.62A295.78,295.78,0,0,1,2900,699.57a4.23,4.23,0,0,1-2.26,7.81Zm-284.34-14.6a4.22,4.22,0,0,1-1.88-8,295.66,295.66,0,0,1,31.28-13.35,4.23,4.23,0,0,1,2.86,8,283.71,283.71,0,0,0-30.38,13A4.21,4.21,0,0,1,2613.4,692.78Zm204-20.46a4.53,4.53,0,0,1-1.09-.14,287.14,287.14,0,0,0-32.35-6.63,4.22,4.22,0,0,1-3.57-4.79,4.16,4.16,0,0,1,4.78-3.57,299.27,299.27,0,0,1,33.31,6.81,4.23,4.23,0,0,1-1.08,8.32Zm-120.51-6.19a4.22,4.22,0,0,1-.66-8.39,296.28,296.28,0,0,1,33.83-3.38,4.22,4.22,0,1,1,.36,8.44,290.81,290.81,0,0,0-32.87,3.28A3.67,3.67,0,0,1,2696.92,666.13Z" transform="translate(-124.96 -114)"/><path class="cls-8" d="M3029.59,908.05a4.24,4.24,0,0,1-4.17-3.58c-.85-5.46-1.87-11-3-16.37a4.23,4.23,0,0,1,8.27-1.78c1.19,5.56,2.24,11.23,3.12,16.85a4.22,4.22,0,0,1-3.52,4.83A4.89,4.89,0,0,1,3029.59,908.05Z" transform="translate(-124.96 -114)"/><path class="cls-8" d="M2965.65,942.32a3.49,3.49,0,0,0-2.09-3.47l-38.92-16.91A185,185,0,0,0,2906.11,865l21.48-36.57a3.48,3.48,0,0,0-.36-4l-33.09-38.68a3.48,3.48,0,0,0-3.92-1l-39.45,15.56a184.79,184.79,0,0,0-53.39-27.13L2786.7,732.1a3.49,3.49,0,0,0-3.1-2.6l-50.75-4a3.49,3.49,0,0,0-3.47,2.09l-16.9,38.92a184.45,184.45,0,0,0-56.95,18.53L2619,763.61a3.47,3.47,0,0,0-4,.36l-38.68,33.08a3.48,3.48,0,0,0-1,3.93l15.55,39.45a185.16,185.16,0,0,0-27.13,53.39l-41.07,10.68a3.49,3.49,0,0,0-2.6,3.1l-4,50.74a3.47,3.47,0,0,0,2.09,3.47l38.92,16.91a184.71,184.71,0,0,0,18.53,57l-21.48,36.56a3.5,3.5,0,0,0,.36,4l33.08,38.68a3.5,3.5,0,0,0,3.93,1l39.45-15.55a184.88,184.88,0,0,0,53.39,27.12l10.68,41.07a3.47,3.47,0,0,0,3.1,2.6l50.75,4a3.49,3.49,0,0,0,3.46-2.09l16.91-38.92a185,185,0,0,0,56.95-18.53l36.57,21.48a3.48,3.48,0,0,0,4-.36l38.67-33.09a3.46,3.46,0,0,0,1-3.93l-15.55-39.45a185,185,0,0,0,27.13-53.39l41.06-10.67a3.49,3.49,0,0,0,2.6-3.11Z" transform="translate(-124.96 -114)"/><path class="cls-11" d="M2740.76,1001.88a51.66,51.66,0,1,1,8.8-.75A52.46,52.46,0,0,1,2740.76,1001.88Zm.16-90.39a38.83,38.83,0,1,0,22.39,7.13h0A38.59,38.59,0,0,0,2740.92,911.49Z" transform="translate(-124.96 -114)"/><path class="cls-11" d="M2740,1079.5c-3.4,0-6.82-.13-10.24-.4a129.19,129.19,0,0,1-73.92-226.91c54.11-46.3,135.8-39.93,182.1,14.19l1.08,1.28a130.27,130.27,0,0,1,13.31,19.26l0,.08.16.3.3.53.16.29.5.92-11.15,6a117.27,117.27,0,0,0-14.05-20.45h0a116.45,116.45,0,1,0,21.92,112.81l12,4a129.25,129.25,0,0,1-122.25,88Z" transform="translate(-124.96 -114)"/><path class="cls-12" d="M1917,1533a50.09,50.09,0,0,1,38.73-13.33c152.13,13.68,436-59.59,621.45-249.39,12.88-13.18,36.36-5.73,51.12,5.3,206.3,154.19,548.26,186.12,667,192.64a50.09,50.09,0,0,1,47,44.87c108,1042.68-570.92,1420.51-711.73,1487.2a50.23,50.23,0,0,1-48-2.77c-701.74-437.11-671.72-1005.55-681.43-1426.74A50.17,50.17,0,0,1,1917,1533Z" transform="translate(-124.96 -114)"/><path class="cls-13" d="M2611.55,2924.5a16.71,16.71,0,0,1-9-2.62c-269-172-444.38-377.58-536.06-628.55-81.88-224.16-85.88-452.4-89.42-653.78l-.48-26.85a16.42,16.42,0,0,1,4.73-11.9,16.63,16.63,0,0,1,11.94-5h0c166.61,0,416.68-73.57,600.1-237.92a16.61,16.61,0,0,1,20.28-1.47c201.53,133.72,489,172.66,642.42,184a16.55,16.55,0,0,1,15.33,15.13c35.66,406.84-49,750.87-251.51,1022.53-151.28,202.88-330.67,308.6-400.77,344.63h0A16.56,16.56,0,0,1,2611.55,2924.5Zm4.44-7.89,1.57,3-1.57-3c69.69-35.82,248-140.9,398.42-342.64,201.52-270.28,285.69-612.73,250.18-1017.85a9.75,9.75,0,0,0-9-8.92c-154.08-11.36-442.87-50.5-645.69-185.09a9.8,9.8,0,0,0-12,.87c-184.76,165.55-436.75,239.66-604.52,239.66h0a9.93,9.93,0,0,0-7.21,2.95,9.62,9.62,0,0,0-2.78,7l.48,26.85c3.52,200.85,7.52,428.49,89,651.56,91.14,249.52,265.59,454,533.32,625.14A9.84,9.84,0,0,0,2616,2916.61Z" transform="translate(-124.96 -114)"/><path class="cls-13" d="M2856.84,1926.55h-31.73a28.53,28.53,0,0,1-28.53-28.53V1789.55a70.31,70.31,0,0,0-70.3-70.3H2529.65a70.3,70.3,0,0,0-70.3,70.3V1898a28.54,28.54,0,0,1-28.53,28.53h-31.74a28.54,28.54,0,0,1-28.53-28.53V1789.55a159.1,159.1,0,0,1,159.1-159.09h196.63a159.09,159.09,0,0,1,159.09,159.09V1898A28.53,28.53,0,0,1,2856.84,1926.55Z" transform="translate(-124.96 -114)"/><path class="cls-13" d="M2896.18,1952.15H2359.75a59.52,59.52,0,0,0-59.52,59.52v411.68a59.52,59.52,0,0,0,59.52,59.52h536.43a59.52,59.52,0,0,0,59.52-59.52V2011.67A59.52,59.52,0,0,0,2896.18,1952.15Zm-191.47,397.9a22.05,22.05,0,0,1-21.44,27.2H2572.65a22.06,22.06,0,0,1-21.44-27.21L2577,2242.6a99.38,99.38,0,0,1-48.35-90.79c2.64-49.89,43.07-90.74,92.94-93.84a99.43,99.43,0,0,1,57.29,184.63Z" transform="translate(-124.96 -114)"/><path class="cls-14" d="M571.74,1817.57s43.45,2.3,48.78,91.68c0,0-100.75,90.31-236.84,111.81-10.21,1.61,14.29-69.74,18-79.41C419.17,1895.66,474.36,1866,571.74,1817.57Z" transform="translate(-124.96 -114)"/><path class="cls-5" d="M1061,1712.47H969.36s-281.4-310.78-466-342.13c0,0-128.48,164,6.84,470.41,10.88,24.65,41.33,35.6,64,21.09a36.62,36.62,0,0,0,14.63-17.44L578,1582.77s240,209.94,281.75,250.45S1113.58,1849,1061,1712.47Z" transform="translate(-124.96 -114)"/><path class="cls-15" d="M174.66,2365c38.42-33.66,99.64-71.44,188-82.27L392.56,2301s-19.06,28.11-53.88,57.8c-32,18.59-81.4,43.76-122.37,49.21C176.49,2413.29,170.61,2389.22,174.66,2365Z" transform="translate(-124.96 -114)"/><path class="cls-8" d="M401.65,1941.65c23.67,7.66,34.08,41.2,94.14,19a531.28,531.28,0,0,0,123.52-65.08c.5,4.33.92,8.84,1.21,13.66,0,0-106.23,101-242.32,122.53-10.21,1.62-18.31-8.58-14.63-18.25A342.28,342.28,0,0,1,401.65,1941.65Z" transform="translate(-124.96 -114)"/><path class="cls-8" d="M145.72,2393.71A317.29,317.29,0,0,1,174.66,2365c-4,24.26,1.83,48.33,41.65,43,41-5.45,90.38-30.62,122.37-49.21-40.1,34.21-101.12,70.51-178.14,68.38C143.44,2426.67,134.41,2406.56,145.72,2393.71Z" transform="translate(-124.96 -114)"/><path class="cls-5" d="M1057.68,1778.81l-429.34,4.64s-245.18,202.86-289.66,512.18c0,0-7.38,22.75,36.94,26.64,0,0,148.24-96.81,244.9-268,118.51-209.88,353.31-115.4,353.31-115.4,112.8,24.89,202.58,15.63,268.28-85.48Z" transform="translate(-124.96 -114)"/><path class="cls-16" d="M1047.54,1433s-46.22,231.63-272.68,323.27l-80.55-9.5-19,30.31,189,6s161.51-64,247.09-238.29C1114.18,1539,1161.3,1441.7,1047.54,1433Z" transform="translate(-124.96 -114)"/><path class="cls-17" d="M1022.78,1775s52.55-142.87,63.85-281.69c0,0-38.45-33-62.48-47.31a17.37,17.37,0,0,1-6.79-22.53c17.67-36.6,124.53-180.33,132.53-182.33,43.51-10.86,221.94-95.7,347.61,76.2,53.93,73.77-10.7,300.86-255.39,536C1163.38,1866.22,1089.77,1843.53,1022.78,1775Z" transform="translate(-124.96 -114)"/><path class="cls-18" d="M1225.3,1524.63s-146,172.9-332.72,198.18c0,0-48.25-44-84.13-28.28s-85.07,85-85.07,85H963.1s226.66-8,339.92-145.43C1293.91,1586,1266.61,1557.3,1225.3,1524.63Z" transform="translate(-124.96 -114)"/><path class="cls-19" d="M1310.49,1119.89l32,106.56a11.7,11.7,0,0,1-4.55,13c-15.38,10.54-55.59,31.49-110.74,11.13A17.38,17.38,0,0,1,1216,1235.7l-7.57-92.83Z" transform="translate(-124.96 -114)"/><path class="cls-20" d="M1123.4,1033.59s15.71,110.46,58.14,144.43,125.11,8.39,153-74.88l-55.64-142.39Z" transform="translate(-124.96 -114)"/><path class="cls-21" d="M1285.2,1052.89a5.47,5.47,0,0,1-7.11-4.38c-1.53-10.2-5.35-30.38-13.09-44.13,0,0,4-14.49-36.63,7.4s-101.77,54.06-137.74,34.91c-35.07-18.68-70.59-112.64,22.09-95.23a5.46,5.46,0,0,0,6.5-5.73c-1.13-15.44.4-51,36.38-62.38,33.67-10.67,52.1,4.53,59.7,13.7a5.43,5.43,0,0,0,8.51-.13c10.09-13.17,37.48-41.2,77.81-23.43,33.21,14.64,38.37,35.1,37.83,47.84a5.45,5.45,0,0,0,7.77,5.2c10.17-4.68,26.53-7.11,42.2,12.52,21.67,27.15-9.29,50.69-18.58,56.87a5.47,5.47,0,0,0-2.48,4.51c-.09,14.12-2.29,75.71-33.15,110.45a5.51,5.51,0,0,1-9.17-1.59l-23.77-56.62a5.5,5.5,0,0,0-6.75-3.11Z" transform="translate(-124.96 -114)"/><path class="cls-22" d="M1284.7,1064.38s14.52-59.11,36.56-39.91-5.74,61.43-31,69.48Z" transform="translate(-124.96 -114)"/><path class="cls-23" d="M735.45,1793,627.81,1434A36.69,36.69,0,0,0,595.16,1408L449.84,1398A20.61,20.61,0,0,0,429,1425.4l120.32,342.78a30.18,30.18,0,0,0,25.44,20l143.1,15.89Z" transform="translate(-124.96 -114)"/><path class="cls-8" d="M536.94,1555.68c8,16.22,21.92,25.72,31,21.22s9.93-21.29,1.89-37.51-21.91-25.72-31-21.22S528.91,1539.46,536.94,1555.68Z" transform="translate(-124.96 -114)"/><path class="cls-24" d="M717.85,1804.1l.7,0,304.92-15.41a13.67,13.67,0,0,0-1.38-27.3l-304.92,15.41a13.67,13.67,0,0,0,.68,27.32Z" transform="translate(-124.96 -114)"/><path class="cls-25" d="M1086.63,1495.44a2.11,2.11,0,0,1-2.11-2.11c-.22-64.36,24.55-149.55,24.8-150.4a2.11,2.11,0,1,1,4.06,1.18c-.25.85-24.85,85.46-24.64,149.21a2.12,2.12,0,0,1-2.1,2.12Z" transform="translate(-124.96 -114)"/><path class="cls-26" d="M1225.3,1526.74a2.08,2.08,0,0,1-1.31-.45,2.12,2.12,0,0,1-.35-3c.67-.84,66.95-85.1,89.63-142.58a2.11,2.11,0,0,1,3.93,1.55c-22.91,58.06-89.57,142.8-90.24,143.65A2.11,2.11,0,0,1,1225.3,1526.74Z" transform="translate(-124.96 -114)"/><path class="cls-27" d="M1319.25,1656.29l-12.06-17a2.13,2.13,0,0,1,.51-3,2.1,2.1,0,0,1,2.94.51l10.09,14.25c94-41.22,152.26-153.73,152.84-154.87a2.11,2.11,0,0,1,3.76,1.92c-.59,1.16-60.12,116.25-156.51,157.52Z" transform="translate(-124.96 -114)"/></g></svg>