<svg id="Layer_1" data-name="Layer 1" xmlns="http://www.w3.org/2000/svg" viewBox="0 0 2144.17 1571.17"><defs><style>.cls-1{fill:#50bfa5;}.cls-2{fill:#3c8f7c;}.cls-3{fill:#355389;}.cls-4{fill:#466eb6;}.cls-5{fill:#f7cc7f;}.cls-6{fill:#fae0b2;}.cls-7{fill:#96d9c9;}.cls-8{fill:#f48c7f;}.cls-9{fill:#b75742;}.cls-10{fill:#86b1f2;}.cls-11{fill:#f47458;}.cls-12{fill:#184655;}.cls-13{fill:#f7a491;}.cls-14{fill:#13375b;}.cls-15{fill:#fff;}.cls-16{fill:#9bc1f9;}</style></defs><polygon class="cls-1" points="814.78 298.24 797.96 303.4 786.66 277.25 761.13 281.76 749.48 263.58 740.27 269.48 755.86 293.8 780.05 289.52 791.8 316.73 817.12 308.96 814.78 298.24"/><polygon class="cls-1" points="1893.66 1238.85 1876.83 1244.01 1865.54 1217.86 1840.01 1222.38 1828.35 1204.19 1819.15 1210.09 1834.73 1234.41 1858.93 1230.13 1870.68 1257.34 1895.99 1249.57 1893.66 1238.85"/><path class="cls-1" d="M774.12,1715s-89.77-304.28-97-371.4,43-46.32,43-46.32-42.23-127.9-11.7-158.25,58.09,26.22,58.09,26.22,9.24-155.25,41.8-155.31c60.64-.11,59.44,169.32,59.44,169.32s15.48-66.33,48-48.14c49,27.42-21.25,160.35-21.25,160.35s62.4,0,84.31,31.51C1018.12,1379.4,774.12,1715,774.12,1715Z" transform="translate(-63 -166.5)"/><path class="cls-1" d="M803.47,1674.69s-258.8-43.27-315.09-89.13-.58-66.53-.58-66.53-130-66.65-128.5-112,66.09-22.28,66.09-22.28-109.54-124.91-83.61-148.63c48.31-44.19,175,85.66,175,85.66s-37.61-61.75,2-71.52c59.72-14.74,103.8,137.53,103.8,137.53s-11.2-60.14,30-52.13C726.4,1350.07,803.47,1674.69,803.47,1674.69Z" transform="translate(-63 -166.5)"/><path class="cls-2" d="M652.51,1335.69c-41.28-7.46-30,52.13-30,52.13s-44.08-152.27-103.8-137.53c-39.61,9.77-2,71.52-2,71.52s-126.64-129.85-175-85.66L802.6,1674.77C794.4,1632.87,721.73,1348.21,652.51,1335.69Z" transform="translate(-63 -166.5)"/><path class="cls-3" d="M877.1,1710.39s-136.29-138.6-204.92-153-56.3,34.4-56.3,34.4-136.17-119.08-167.73-90.23,2.58,56.71,2.58,56.71-113.43-20.1-129.66,17.12c-24.95,57.2,161.59,88.33,161.59,88.33s-78.17,5.42-60,41.28C450,1759.05,877.1,1710.39,877.1,1710.39Z" transform="translate(-63 -166.5)"/><path class="cls-4" d="M321.07,1575.35c16.23-37.22,129.66-17.12,129.66-17.12s-34.13-27.85-2.58-56.71,163.5,74,163.5,74-31.11-59.47,37.53-45S877.1,1710.39,877.1,1710.39Z" transform="translate(-63 -166.5)"/><path class="cls-5" d="M1094.08,280.91c-45.87,7.55-59.5,67.76-21.36,94.69a35,35,0,0,1,13.61,20.25l6.94,28a15.26,15.26,0,0,0,17.28,11.38l17.38-2.86a15.25,15.25,0,0,0,12.73-16.32c-2.41-28.91-5.4-39.4,4-52.3C1172.16,326,1140,273.36,1094.08,280.91Z" transform="translate(-63 -166.5)"/><path class="cls-6" d="M1098.77,403.32c-3-24.78-7.18-50.93-8.61-58.35-26.3,1.45-16.3-26.27-4.17-15,3.46,3.21,5.09,7.56,6.17,12.34a68.08,68.08,0,0,0,25.06-7.3c-.42-6.11-1-10.74.68-14.65,2.58-5.91,10.06-7.52,13.1-1.76a9.15,9.15,0,0,1,.52,7.21c-1.76,4.89-7.07,8.11-11.7,10.64,1.39,19.7,3.3,39.54,5.72,59.09l-2.49.31c-2.37-19.23-4.27-38.75-5.64-58.14a70.37,70.37,0,0,1-24.74,7.06c1.8,9.49,5.77,35,8.58,58.24Zm-21.1-64.19c2.34,2.52,6.25,3.63,12,3.36-1-4.21-2.44-8-5.34-10.68C1077.76,325.74,1073.75,334.91,1077.67,339.13Zm42.52-17.76c-1.43,3.28-.89,7.49-.56,12.33,3.76-2.13,8.12-4.81,9.54-8.73,1-2.74-.13-6.63-2.92-7.34C1125.94,317.55,1121.2,319.06,1120.19,321.37Z" transform="translate(-63 -166.5)"/><path class="cls-7" d="M1086.13,395.16c.06.23.14.46.2.69l6.94,28a15.26,15.26,0,0,0,17.28,11.38l17.38-2.86a15.25,15.25,0,0,0,12.73-16.32c-1.07-12.86-2.26-22.07-2.42-29.47Z" transform="translate(-63 -166.5)"/><path class="cls-6" d="M1060.08,260l-13.72-25a5,5,0,0,1,8.78-4.81l13.71,25.05a5,5,0,1,1-8.77,4.8Z" transform="translate(-63 -166.5)"/><path class="cls-6" d="M1030.09,320.57l-29.9-2.62a5,5,0,0,1,.87-10l29.9,2.62a5,5,0,1,1-.87,10Z" transform="translate(-63 -166.5)"/><path class="cls-6" d="M1000.44,412.24a5,5,0,0,1,0-7.07,163.13,163.13,0,0,1,24-19.6,5,5,0,1,1,5.56,8.32,153.16,153.16,0,0,0-22.55,18.4A5,5,0,0,1,1000.44,412.24Z" transform="translate(-63 -166.5)"/><path class="cls-6" d="M1134,258.64a5,5,0,0,1-3.54-6.13,190.54,190.54,0,0,0,6.17-38.85,5,5,0,1,1,10,.54,200.82,200.82,0,0,1-6.49,40.9A5,5,0,0,1,1134,258.64Z" transform="translate(-63 -166.5)"/><path class="cls-6" d="M1164.76,297.08a5,5,0,0,1,3.34-6.24l31.09-9.36a5,5,0,0,1,2.89,9.58L1171,300.43A5,5,0,0,1,1164.76,297.08Z" transform="translate(-63 -166.5)"/><path class="cls-6" d="M1215.82,379.8a4.84,4.84,0,0,1-1.35-.19,155.77,155.77,0,0,1-31.13-12.48,5,5,0,0,1,4.69-8.83A147.81,147.81,0,0,0,1217.18,370a5,5,0,0,1-1.36,9.82Z" transform="translate(-63 -166.5)"/><path class="cls-5" d="M1671.17,601l-15.69-37.09L1616,555.8a5.53,5.53,0,0,1-2.51-9.6L1644,519.82l-4.48-40a5.53,5.53,0,0,1,8.36-5.35l34.49,20.78L1719,478.6a5.54,5.54,0,0,1,7.68,6.3l-9.11,39.22,27.14,29.74a5.53,5.53,0,0,1-3.61,9.24L1701,566.56l-19.89,35A5.54,5.54,0,0,1,1671.17,601Z" transform="translate(-63 -166.5)"/><polygon class="cls-8" points="1857.84 307.23 1851.39 333.2 1808.47 327.44 1794.36 364.24 1761.54 365.18 1762.02 381.8 1805.92 380.54 1819.29 345.66 1863.94 351.65 1873.64 312.58 1857.84 307.23"/><path class="cls-9" d="M1538.43,1718.37H783.92c-28.82,0-52.18-24.23-52.18-54.12v-32.18c0-29.89,23.36-54.12,52.18-54.12h754.51c-34.52,39.13-35.11,98.92-1.39,138.79Z" transform="translate(-63 -166.5)"/><path class="cls-6" d="M1526.78,1594H1108.29c-28.82,0-52.18,24.23-52.18,54.12h0c0,29.89,23.36,54.12,52.18,54.12h418.52A107.38,107.38,0,0,1,1526.78,1594Z" transform="translate(-63 -166.5)"/><path class="cls-10" d="M1273.36,1480.42c1.09-2.06-.57-4.44-3.11-4.44H871c-31.29,0-56.66,22.83-56.66,51h0c0,28.17,25.37,51,56.66,51h399.35c2.55,0,4.22-2.4,3.11-4.47h0A97.67,97.67,0,0,1,1273.36,1480.42Z" transform="translate(-63 -166.5)"/><path class="cls-5" d="M1270.84,1485.47H1073c-36.73,0-66.5,19.13-66.5,42.73s29.77,42.73,66.5,42.73h199.16A97.49,97.49,0,0,1,1270.84,1485.47Z" transform="translate(-63 -166.5)"/><path class="cls-9" d="M1219.74,1505.73H1194c-5.54,0-10,1.86-10,4.15v.38h35.8Z" transform="translate(-63 -166.5)"/><path class="cls-11" d="M1241.72,1516.15c0-5.76-6.73-10.42-15-10.42h-33.07c6.3,0,11.4,3.54,11.4,7.9l-.16,111.72,18.28-14.36,18.62,14.36Z" transform="translate(-63 -166.5)"/><path class="cls-6" d="M1200,1472.3H967.66c-20.6,0-37.3-19.82-37.3-44.27h0c0-24.44,16.7-44.27,37.3-44.27H1200c-17.76,24.55-18.45,60.55-1.66,86Z" transform="translate(-63 -166.5)"/><path class="cls-4" d="M930.38,1428h0c0-24.44,17.1-44.27,38.18-44.27h235.82a2.16,2.16,0,0,0,2-2.31h0a2.15,2.15,0,0,0-2-2.27H830.29c-23.27,0-42.14,21.87-42.14,48.85h0c0,27,18.87,48.86,42.14,48.86h374.09a2.15,2.15,0,0,0,2-2.27h0a2.16,2.16,0,0,0-2-2.32H968.56C947.48,1472.3,930.38,1452.48,930.38,1428Z" transform="translate(-63 -166.5)"/><path class="cls-12" d="M1159.39,1405.52h-25.76c-5.55,0-10,1.83-10,4.08v.36h35.8Z" transform="translate(-63 -166.5)"/><path class="cls-2" d="M1181.38,1415.74c0-5.64-6.73-10.22-15-10.22h-33.07c6.3,0,11.41,3.47,11.41,7.75l-.16,109.57,18.27-14.09,18.62,14.09Z" transform="translate(-63 -166.5)"/><path class="cls-12" d="M1570.08,728.75l34.29-9-23.25,310-41.14,1.37L1560.74,740A12.56,12.56,0,0,1,1570.08,728.75Z" transform="translate(-63 -166.5)"/><path class="cls-5" d="M1584.2,1038.58a11.56,11.56,0,0,1-2.35,0c-6.81-.81-11.85-7.58-11.26-15.14l22.83-291.5c.59-7.55,6.58-13,13.4-12.21s11.85,7.57,11.26,15.13l-22.82,291.5C1594.73,1033,1590,1038.05,1584.2,1038.58Z" transform="translate(-63 -166.5)"/><path class="cls-5" d="M1268.58,1054.1c0,.22,0,.43.05.65h0c1.07,11.86,10.26,20.73,20.52,19.81l289.61-25.92c10.26-.92,17.71-11.28,16.64-23.14-.05-.5-.12-1-.19-1.48Z" transform="translate(-63 -166.5)"/><path class="cls-13" d="M1470.25,1367.22c-19,10.51-76.93-7.93-76.93-9.59-.83,15.84-64.91,170.9-64.91,170.9l0,47.71s132,6.29,130.14-5.37-9-4.08-35.34-26.12c-2.34-2-39.32-10.54-29.31-32.43C1414.1,1468.24,1456.91,1394.74,1470.25,1367.22Z" transform="translate(-63 -166.5)"/><path class="cls-2" d="M1324.12,1577.94l144.53,0c5.22-.53,6.44-4.77,4.6-7.35-3.8-5.31-31.5-17.84-50.12-26.15-32.43,3.79-89.44-8.68-94.66-16.08C1314.75,1546.79,1321.21,1577.34,1324.12,1577.94Z" transform="translate(-63 -166.5)"/><path class="cls-3" d="M1292.42,1255.89c-2-5.87,124.43-59.5,130.09-53.38,10,10.84-68.38,214.33-68.38,214.33l90.06,27.51s93.64-235.08,89.73-278.08-50.82-91.86-152.45-60.59S1292.42,1255.89,1292.42,1255.89Z" transform="translate(-63 -166.5)"/><path class="cls-13" d="M1554.11,1394c-21.34-3.88-49-5-71.13-5.37,2.61,19.71,15.28,120.78,13,127a75.85,75.85,0,0,1-30.19,36.94s98.14,88.55,104.07,78.32-4.38-8.86-10.79-42.6c-.57-3-14.76-50.09-15.64-75.49C1541.71,1464.31,1553.38,1420.86,1554.11,1394Z" transform="translate(-63 -166.5)"/><path class="cls-4" d="M1522.62,1063.3c-13.69-7.3-49.24-7.56-88.32-5a896.39,896.39,0,0,0-223.89,43.94l-48.51,16.07.16-49.73s-154.3-25.82-159.66,12.42c-8.09,57.59,1.94,174.51,53.35,200.6,159.69,81.06,383.47-129.13,384.28-101.63,1.08,36.93,32.22,174.36,40.18,234.53,22.14.39,60.17.37,76.67-3.42C1560.09,1293.19,1561.59,1084.1,1522.62,1063.3Z" transform="translate(-63 -166.5)"/><path class="cls-2" d="M1462.76,1554.59l110.32,88.13c4.37,2.89,8,.38,8.21-2.78.44-6.51-13-33.76-22.19-52-27.48-17.62-63.73-63.59-63.08-72.61C1484.39,1525.16,1460.89,1552.28,1462.76,1554.59Z" transform="translate(-63 -166.5)"/><path class="cls-14" d="M1213,582.63c-3.7-33.88-7.61-67.88-35.69-92.71-22.72-20.09-51.62-23.5-80.19-12.75-81,30.46-39.24,102.36-142.47,174.85-32.07,22.52-67.43,37.94-91.57,68.27-33.81,42.45-21,93.52,9.76,127.61,147.4,163.13,312-57.18,323.78-110.07C1205.45,698.49,1215.43,604.44,1213,582.63Z" transform="translate(-63 -166.5)"/><path class="cls-1" d="M1183.11,773.13a449.46,449.46,0,0,0-24.44-39.81c-12.49-22.2-44.76-33.43-44.76-33.43s-10.79.22-23.19.82c-.76,2.06-1.54,3.53-2.33,4.12-4.66,3.49-31.35-1-48.59,10.69C982,765.05,998,1005.15,1002.54,1081l176,1.67s-22.19-163.17,13.57-205.09C1217,848.36,1201,806.06,1183.11,773.13Z" transform="translate(-63 -166.5)"/><path class="cls-13" d="M1103.78,618.66s-9.67,69.09-16.43,85.88,37.15,52.69,73.69,63.59-11.17-37.08-9.65-55,8.15-102.92,8.15-102.92Z" transform="translate(-63 -166.5)"/><path class="cls-11" d="M1157.69,634.54c1.07-14,1.85-24.36,1.85-24.36l-55.76,8.48s-1.4,8.12-3,19.6C1123.43,651.37,1143.75,647.23,1157.69,634.54Z" transform="translate(-63 -166.5)"/><path class="cls-13" d="M1121.27,492.47s-22,4.95-35.55,25.66-22.88,81.67,21.81,110.13,79.45-11.8,80-51.06S1179.73,485.55,1121.27,492.47Z" transform="translate(-63 -166.5)"/><path class="cls-13" d="M1197.79,564.92c-3.81,9.47-11.38,15.35-16.9,13.13s-6.9-11.7-3.08-21.18,11.37-15.35,16.89-13.13S1201.6,555.44,1197.79,564.92Z" transform="translate(-63 -166.5)"/><path class="cls-14" d="M1127.86,491.18s-28,62.85-52.63,68.46S1051,596.88,1051,596.88s.55-73,23.62-89.78S1127.86,491.18,1127.86,491.18Z" transform="translate(-63 -166.5)"/><path class="cls-13" d="M1085,572.7c3.24,10.21.27,20.26-6.62,22.45s-15.12-4.31-18.36-14.51-.28-20.26,6.62-22.45S1081.77,562.5,1085,572.7Z" transform="translate(-63 -166.5)"/><path class="cls-13" d="M1399.79,1026.41c-10.56-3.82-26.27-4.29-26-5.69,1.06-5.64,47.71,12.45,41.4,4.22-3.5-4.58-38.41-20.82-46.9-18.14-8.24,2.6-62.3,17.77-62.3,17.77L1158.23,990s-37.3-84.75-40.94-157.56c-30.83,4.16-51.82,11.78-78.61,26.65,12.92,69.63,44.33,182.5,79,203.68,14.61,8.91,189-10.66,189-10.66s38.43-2.72,44.71-5.13c4.77-1.83,17-8.74,23.7-10.63,15.16-4.29,42.17,6.49,42.26,3.52C1417.44,1037.66,1410.58,1030.31,1399.79,1026.41Z" transform="translate(-63 -166.5)"/><path class="cls-7" d="M1118.2,754.59c-1.42-22.41-9.91-44-33.75-51-14.77-4.32-31.35-.19-43.16,9.45-14,11.48-18,29.88-17.9,47.3.15,39.55,2.84,80.55,10.07,119.49,26.79-14.87,58.07-23.81,88.9-28C1122.35,851.62,1120.08,784.2,1118.2,754.59Z" transform="translate(-63 -166.5)"/><path class="cls-5" d="M660.41,796.86,431.34,754.21a8.47,8.47,0,0,1-6.78-9.88l28.69-154.1a8.47,8.47,0,0,1,9.88-6.78L692.2,626.1A8.48,8.48,0,0,1,699,636l-28.69,154.1A8.47,8.47,0,0,1,660.41,796.86Z" transform="translate(-63 -166.5)"/><path class="cls-5" d="M551.37,620.7l-69.73-13a8.47,8.47,0,0,1-6.78-9.88l4.37-23.45a8.46,8.46,0,0,1,9.88-6.77l69.72,13a8.47,8.47,0,0,1,6.78,9.88l-4.36,23.45A8.48,8.48,0,0,1,551.37,620.7Z" transform="translate(-63 -166.5)"/><path class="cls-6" d="M670.84,791a8.48,8.48,0,0,1-9.71,6L430.57,754.07a8.48,8.48,0,0,1-6.89-9.07l12.06-138.14a8.49,8.49,0,0,1,10-7.59L701.87,647a8.46,8.46,0,0,1,6.6,10.63Z" transform="translate(-63 -166.5)"/><polygon class="cls-1" points="1658.49 119.75 1619.26 130.46 1610.82 82.92 1623.65 80.64 1629.6 114.12 1655.06 107.17 1658.49 119.75"/><path class="cls-3" d="M471.81,939.06c9.82-.8,24.91,3.53,31.67,8.12,1,1,8.79,4,16.87,17.43l-1.82,1.26c-8.53-8.92-14.26-10.92-21.1-13-11.26-2.9-22.61-.73-23.54-.23Z" transform="translate(-63 -166.5)"/><path class="cls-11" d="M519.44,965.25s-59.85,10-54.27,56.74,68.72,83.13,125.08,54.21c75.81-38.9,45.87-137.8-8.09-145.45S519.44,965.25,519.44,965.25Z" transform="translate(-63 -166.5)"/><path class="cls-8" d="M544.83,944.66s15.62-16,49.83-1.45,36.69,82.6,6.18,78.65S520.43,954.47,544.83,944.66Z" transform="translate(-63 -166.5)"/><path class="cls-10" d="M956.57,323.5,710.41,411.31a15.25,15.25,0,0,1-19.49-9.24L645.48,274.69a15.26,15.26,0,0,1,9.24-19.49l246.17-87.81a15.26,15.26,0,0,1,19.49,9.24L965.81,304A15.26,15.26,0,0,1,956.57,323.5Z" transform="translate(-63 -166.5)"/><path class="cls-15" d="M793.41,290.76a48.78,48.78,0,1,1-62.34-29.56A48.78,48.78,0,0,1,793.41,290.76Z" transform="translate(-63 -166.5)"/><path class="cls-10" d="M754.45,283.93a14.38,14.38,0,1,1-18.38-8.72A14.38,14.38,0,0,1,754.45,283.93Z" transform="translate(-63 -166.5)"/><path class="cls-10" d="M743.73,310.21H761.3a14.2,14.2,0,0,1,14.2,14.2v8a0,0,0,0,1,0,0h-46a0,0,0,0,1,0,0v-8A14.2,14.2,0,0,1,743.73,310.21Z" transform="translate(-127.21 105) rotate(-19.63)"/><path class="cls-15" d="M799.48,264.13a6.22,6.22,0,0,1-2.09-12.08L905,213.66a6.17,6.17,0,0,1,2.09-.36,6.22,6.22,0,0,1,2.09,12.08L801.57,263.77A6.25,6.25,0,0,1,799.48,264.13Z" transform="translate(-63 -166.5)"/><path class="cls-15" d="M828.53,291a6.22,6.22,0,0,1-2.09-12.08l84-30a6.22,6.22,0,1,1,4.18,11.72l-84,30A6.25,6.25,0,0,1,828.53,291Z" transform="translate(-63 -166.5)"/><path class="cls-11" d="M1339.05,1284.24H744.66a33.42,33.42,0,0,0-33.42,33.42v28.11a33.42,33.42,0,0,0,33.42,33.42h594.39l-.31-.32A68.06,68.06,0,0,1,1339.05,1284.24Z" transform="translate(-63 -166.5)"/><path class="cls-6" d="M1328.53,1298.29H1010.78a33.42,33.42,0,0,0-33.42,33.42h0a33.43,33.43,0,0,0,33.42,33.43h317.74A68.17,68.17,0,0,1,1328.53,1298.29Z" transform="translate(-63 -166.5)"/><path class="cls-6" d="M1825.52,1287l-45-113a11.08,11.08,0,0,1,6.19-14.4l162.13-64.62a11.1,11.1,0,0,1,14.4,6.19l45,113a11.07,11.07,0,0,1-6.19,14.4l-162.13,64.63A11.09,11.09,0,0,1,1825.52,1287Z" transform="translate(-63 -166.5)"/><path class="cls-4" d="M1978.46,1221.61,1938,1120a3.18,3.18,0,0,1,1.77-4.13h0a3.18,3.18,0,0,1,4.13,1.78l40.49,101.58a3.17,3.17,0,0,1-1.78,4.13h0A3.18,3.18,0,0,1,1978.46,1221.61Z" transform="translate(-63 -166.5)"/><path class="cls-4" d="M1959.17,1208.23l-33.24-83.4a3.18,3.18,0,0,1,1.78-4.13h0a3.18,3.18,0,0,1,4.13,1.78l33.24,83.4a3.18,3.18,0,0,1-1.77,4.13h0A3.19,3.19,0,0,1,1959.17,1208.23Z" transform="translate(-63 -166.5)"/><path class="cls-4" d="M1954.38,1231.21l-40.49-101.58a3.17,3.17,0,0,1,1.78-4.13h0a3.18,3.18,0,0,1,4.13,1.78l40.48,101.58a3.18,3.18,0,0,1-1.77,4.13h0A3.18,3.18,0,0,1,1954.38,1231.21Z" transform="translate(-63 -166.5)"/><path class="cls-4" d="M1933.09,1212.83l-31.25-78.39a3.19,3.19,0,0,1,1.78-4.14h0a3.18,3.18,0,0,1,4.13,1.78l31.25,78.4a3.17,3.17,0,0,1-1.78,4.13h0A3.17,3.17,0,0,1,1933.09,1212.83Z" transform="translate(-63 -166.5)"/><path class="cls-3" d="M1977.37,1109.2l-.81-2a1.43,1.43,0,0,0-1.83-.86l-15.38,6.14a1.42,1.42,0,0,0-.74,1.87l.81,2a1.43,1.43,0,0,0,1.83.85l15.39-6.13A1.44,1.44,0,0,0,1977.37,1109.2Z" transform="translate(-63 -166.5)"/><path class="cls-3" d="M1980.86,1118l-.81-2a1.43,1.43,0,0,0-1.83-.86l-15.39,6.14a1.42,1.42,0,0,0-.73,1.87l.81,2a1.43,1.43,0,0,0,1.82.85l15.39-6.13A1.44,1.44,0,0,0,1980.86,1118Z" transform="translate(-63 -166.5)"/><path class="cls-3" d="M1984.35,1126.7l-.82-2a1.42,1.42,0,0,0-1.82-.85l-15.39,6.14a1.42,1.42,0,0,0-.74,1.87l.82,2a1.42,1.42,0,0,0,1.82.85l15.39-6.14A1.42,1.42,0,0,0,1984.35,1126.7Z" transform="translate(-63 -166.5)"/><path class="cls-3" d="M1987.84,1135.45l-.82-2a1.43,1.43,0,0,0-1.83-.85l-15.38,6.13a1.44,1.44,0,0,0-.74,1.88l.81,2a1.43,1.43,0,0,0,1.83.86l15.39-6.14A1.42,1.42,0,0,0,1987.84,1135.45Z" transform="translate(-63 -166.5)"/><path class="cls-3" d="M1991.32,1144.2l-.81-2a1.43,1.43,0,0,0-1.83-.85l-15.39,6.13a1.45,1.45,0,0,0-.74,1.88l.82,2a1.43,1.43,0,0,0,1.83.86l15.38-6.14A1.42,1.42,0,0,0,1991.32,1144.2Z" transform="translate(-63 -166.5)"/><path class="cls-3" d="M1994.81,1153l-.81-2a1.44,1.44,0,0,0-1.83-.85l-15.39,6.13a1.43,1.43,0,0,0-.74,1.88l.82,2a1.42,1.42,0,0,0,1.82.85l15.39-6.13A1.42,1.42,0,0,0,1994.81,1153Z" transform="translate(-63 -166.5)"/><path class="cls-3" d="M1998.3,1161.7l-.82-2a1.42,1.42,0,0,0-1.82-.85l-15.39,6.13a1.43,1.43,0,0,0-.74,1.88l.82,2a1.41,1.41,0,0,0,1.82.85l15.39-6.13A1.42,1.42,0,0,0,1998.3,1161.7Z" transform="translate(-63 -166.5)"/><path class="cls-3" d="M2001.78,1170.44l-.81-2a1.42,1.42,0,0,0-1.83-.85l-15.38,6.13a1.42,1.42,0,0,0-.74,1.87l.81,2a1.43,1.43,0,0,0,1.83.85l15.39-6.13A1.43,1.43,0,0,0,2001.78,1170.44Z" transform="translate(-63 -166.5)"/><path class="cls-3" d="M2005.27,1179.19l-.81-2a1.42,1.42,0,0,0-1.83-.85l-15.39,6.13a1.43,1.43,0,0,0-.74,1.87l.82,2a1.43,1.43,0,0,0,1.83.85l15.38-6.13A1.43,1.43,0,0,0,2005.27,1179.19Z" transform="translate(-63 -166.5)"/><path class="cls-3" d="M2008.76,1187.94l-.82-2a1.42,1.42,0,0,0-1.82-.86l-15.39,6.14a1.42,1.42,0,0,0-.74,1.87l.82,2a1.42,1.42,0,0,0,1.82.85l15.39-6.13A1.44,1.44,0,0,0,2008.76,1187.94Z" transform="translate(-63 -166.5)"/><path class="cls-3" d="M2012.25,1196.69l-.82-2a1.43,1.43,0,0,0-1.83-.85l-15.38,6.14a1.42,1.42,0,0,0-.74,1.87l.81,2a1.43,1.43,0,0,0,1.83.85l15.39-6.13A1.44,1.44,0,0,0,2012.25,1196.69Z" transform="translate(-63 -166.5)"/><path class="cls-3" d="M2015.73,1205.44l-.81-2a1.43,1.43,0,0,0-1.83-.85l-15.39,6.14a1.42,1.42,0,0,0-.73,1.87l.81,2a1.43,1.43,0,0,0,1.83.86l15.38-6.14A1.42,1.42,0,0,0,2015.73,1205.44Z" transform="translate(-63 -166.5)"/><path class="cls-9" d="M2058.24,1196.43l-64.34,91.63a2.49,2.49,0,0,0-.34.67l-6.55,20.13a2.52,2.52,0,0,0,3.91,2.8l17.22-13a2.48,2.48,0,0,0,.55-.57l64.51-91.86a2.53,2.53,0,0,0-.71-3.58l-10.83-6.91A2.52,2.52,0,0,0,2058.24,1196.43Z" transform="translate(-63 -166.5)"/><path class="cls-5" d="M2008.62,1298.21l-.16.23L1991.84,1311l-4.53-3,6.22-19.08C1998.4,1291.51,2004.23,1294.24,2008.62,1298.21Z" transform="translate(-63 -166.5)"/><path class="cls-4" d="M1406.36,204.51c9.26,7.39,25.37,31.18,45.93,47.88,12,9.76,21.29,7.28,36.64,9.14,72.83,8.8,53.09,23.69,61.83,25.15-2.48,5.71-25.17,53.94-29.41,63.69-3.91,9-10.67,13-20.47,11.66-15.06-2.08-30.26-3.63-45.09-6.85-38-8.24-59.16-27.25-86.4-50.34-7.23-6.12-9-13.76-5.26-22.42C1381.57,242.13,1404.47,208.21,1406.36,204.51Z" transform="translate(-63 -166.5)"/><path class="cls-10" d="M1558.65,344.7c-.33,15.87.89,19.06-5.93,16.65a95.93,95.93,0,0,1-12-5.34c-2.74-1.41-2.84-3.27-.62-5.5,3.23-3.25,6.55-6.41,9.79-9.56a14.05,14.05,0,0,1,6.16-16.88c1.19-.69.32.78,10.47-22.56-33.54-4.14-57.21-6.92-98.13-11.95a55,55,0,0,1-29.13-12.67q-43.85-36.69-87.66-73.4c-4-3.32-4.46-8.18-1.32-11.93,2.41-2.86,5.6-3,9-2.57,9.34,1.17,100.91,12.55,110.2,13.63A60.23,60.23,0,0,1,1502,216.56q43.07,36.08,86.25,72c4,3.3,5,6.32,3.63,10-1.52,4-4.85,5.95-9.87,4.86-3.63-.78-5.24.31-6.48,3.67-5.64,15.18-9.58,18.54-8.22,24.09C1568.33,335.43,1563.25,342.84,1558.65,344.7Z" transform="translate(-63 -166.5)"/><path class="cls-4" d="M1710.55,1422.88l16.69,15.92a443.37,443.37,0,0,1,95,131.57l2.56,5.41s43.69,3.86,49.8-35.64h0a660.73,660.73,0,0,1-96-140.91l-7.89-18.48Z" transform="translate(-63 -166.5)"/><path class="cls-10" d="M1770.67,1380.7c2.14,3.08-9.58,15-26.18,26.54s-31.88,18.61-34,15.54,9.65-15.1,26.25-26.68S1768.52,1377.63,1770.67,1380.7Z" transform="translate(-63 -166.5)"/><path class="cls-3" d="M1770.74,1380.81l0-.06s-33.27,28.16-47,31l4.23,5.76a173.64,173.64,0,0,0,16.55-10.3C1760.9,1395.79,1772.54,1384.05,1770.74,1380.81Z" transform="translate(-63 -166.5)"/><path class="cls-9" d="M1815.18,1462.56c.06,4.85-1.8,25.8-36.65,34.54q3.43,4.7,6.76,9.46c22.06-6.53,32-17.85,36.44-26.47.7-1.37,1.55-3.2,2.12-4.61Q1819.44,1469.06,1815.18,1462.56Z" transform="translate(-63 -166.5)"/><polygon class="cls-9" points="1718.65 1324.41 1667.36 1322.58 1679.51 1332.89 1672.25 1346.07 1720.8 1333.7 1718.65 1324.41"/><polygon class="cls-9" points="1723.33 1336.34 1705.1 1368.09 1717.92 1363.21 1722.86 1373.29 1731.42 1339.9 1723.33 1336.34"/><path class="cls-11" d="M1793.29,1511.45a16.85,16.85,0,1,1,15.12-18A16.61,16.61,0,0,1,1793.29,1511.45Z" transform="translate(-63 -166.5)"/><path class="cls-16" d="M1902.17,791.12l-108-96.39c-7-6.26-4.1-19.15,5.58-24.63l86.21-48.82c5.52-3.12,11.74-2.83,15.74.74l108,96.39c7,6.26,4.1,19.15-5.59,24.63l-86.21,48.82C1912.38,795,1906.17,794.69,1902.17,791.12Z" transform="translate(-63 -166.5)"/><path class="cls-15" d="M1897.05,714.44l-9-74.05a6.64,6.64,0,0,1,4.62-6.77c2.89-.9,5.51.67,5.86,3.5l8.29,68.15,81.91,19.81c2.67.64,3.9,3.52,2.74,6.43s-4.26,4.74-6.93,4.09Z" transform="translate(-63 -166.5)"/><path class="cls-12" d="M73.47,1717.49c-5.78,0-10.47,5.42-10.47,12.11s4.69,12.11,11.72,4h2127.5c2.72,0,4.93-3.57,5-8h0c0-4.47-2.21-8.1-5-8.1Z" transform="translate(-63 -166.5)"/><polygon class="cls-5" points="423.49 208.73 434.66 230.82 459.88 230 470.65 255.65 497.25 246.49 510.7 274.95 536.23 269.55 553.65 294.82 544.09 301.41 531.06 282.51 504.12 288.22 491.19 260.86 464.14 270.17 452.27 241.87 427.63 242.67 417.28 222.19 401.22 226.1 398.47 214.81 423.49 208.73"/><polygon class="cls-1" points="1774.38 773.76 1797.31 783.08 1815.79 765.89 1840.75 778.15 1854.8 753.78 1883.63 766.4 1899.33 745.55 1929.07 753.16 1926.19 764.41 1903.96 758.72 1887.39 780.73 1859.67 768.59 1845.39 793.38 1817.85 779.84 1799.8 796.63 1778.55 787.99 1769 801.49 1759.51 794.78 1774.38 773.76"/></svg>