<svg id="Слой_1" data-name="Слой 1" xmlns="http://www.w3.org/2000/svg" xmlns:xlink="http://www.w3.org/1999/xlink" viewBox="0 0 2172.09 1876.5"><defs><style>.cls-1{fill:url(#linear-gradient);}.cls-2{fill:url(#linear-gradient-2);}.cls-3{fill:#d88a51;}.cls-4{fill:url(#linear-gradient-3);}.cls-5{fill:url(#linear-gradient-4);}.cls-6{fill:#323657;}.cls-7{fill:#eea886;}.cls-8{fill:#c5cddb;}.cls-9{fill:#e55353;}.cls-10{fill:#1f2136;}.cls-11{fill:#525252;}.cls-12{fill:#292c47;}.cls-13{fill:#292929;}.cls-14{fill:#a77860;}.cls-15{fill:#ffca55;}.cls-16{fill:#deb04a;}.cls-17{fill:#f0be50;}.cls-18{fill:#b58f3c;}</style><linearGradient id="linear-gradient" x1="325.4" y1="1082.77" x2="325.4" y2="2156.66" gradientTransform="translate(650.81 3003.76) rotate(-180)" gradientUnits="userSpaceOnUse"><stop offset="0" stop-color="#cfbeb8"/><stop offset="1" stop-color="#f2ded7"/></linearGradient><linearGradient id="linear-gradient-2" x1="2052.29" y1="1364.85" x2="2052.29" y2="2034.38" gradientTransform="translate(4104.58 3003.76) rotate(-180)" xlink:href="#linear-gradient"/><linearGradient id="linear-gradient-3" x1="-2631.9" y1="1196.11" x2="-2631.9" y2="1654.45" gradientTransform="matrix(1, 0, 0, -1, 3824.83, 2795.62)" gradientUnits="userSpaceOnUse"><stop offset="0" stop-color="#d88a51"/><stop offset="1" stop-color="#bd6c31"/></linearGradient><linearGradient id="linear-gradient-4" x1="-2639.23" y1="1239.42" x2="-2639.23" y2="928.68" gradientTransform="matrix(1, 0, 0, -1, 3839.47, 2070.21)" gradientUnits="userSpaceOnUse"><stop offset="0" stop-color="#b57341"/><stop offset="1" stop-color="#d6884d"/></linearGradient></defs><rect class="cls-1" x="282.29" y="1050.76" width="86.22" height="902.24" transform="translate(540.27 2927.26) rotate(180)"/><rect class="cls-2" x="2009.18" y="1050.76" width="86.22" height="902.24" transform="translate(3994.04 2927.26) rotate(180)"/><rect class="cls-3" x="110.54" y="1310.6" width="2164.77" height="223.44" transform="translate(2275.31 2768.14) rotate(180)"/><rect class="cls-4" x="110.54" y="1310.6" width="2164.77" height="174.42" transform="translate(2275.31 2719.12) rotate(180)"/><rect class="cls-5" x="117.87" y="911.83" width="2164.77" height="246.54" transform="translate(2289.96 1993.71) rotate(180)"/><path class="cls-6" d="M2013,1116c-3,21.21-130.47,110.46-155.57,128.29-20.14,14.31-37.65,20.87-68.1,32.32h0c-69.19,18.2-503.32,147.74-503.32,147.74-1.14-4.41-1.76-8.24-4.31-13.2-16.21,6.46-32.88,10.64-43.48,14-16.16,5-144.46,9.09-170.72,14.14s-78.79,13.13-100-7.07,13.14-63.64,42.43-74.75,136.37-14.14,155.57-16.17,44.45-9.09,56.57-5c3.82,1.28,20.76-3.69,42.13-11.08-.53-7.87-.66-12.83-.66-12.83l114-32.86-21.11-201.83s49.59-186.88,247.73-44.32c0,0,44.21,13,59.36,17a16.92,16.92,0,0,0,5.07.14c30.23-2.28,160.11-41.56,207.07-41.56,50.51,0,66.67-3,84.85,6.06S2016.07,1094.74,2013,1116Z" transform="translate(-110.54 -76.5)"/><path class="cls-6" d="M1810.06,1432.14c-21.22,20.2-73.75,12.12-100,7.07s-154.56-9.09-170.72-14.14-46.47-12.12-67.68-26.27c-1.71-1.14-5.61-2.84-11.34-5l0,0L1428.21,1417,982.15,1275c-26.72-7.33-47.93-18.48-62-30.75C896.86,1224,767.56,1137.17,764.53,1116s34.35-91.93,52.53-101,34.34-6.06,84.85-6.06,197,45.46,212.14,41.42c6.89-1.84,21.15-9.11,34.67-16.49C1164.92,1025,1180,1016,1180,1016c217-96.84,241.1,61.62,241.1,61.62l-12.84,195.64s18.08,9,41.6,20.14l107.53,30.39-14.08,10.16c6.08,2,10.39,2.86,12.14,2.27,12.13-4,37.38,3,56.57,5s126.27,5,155.57,16.17S1831.27,1411.94,1810.06,1432.14Z" transform="translate(-110.54 -76.5)"/><path class="cls-6" d="M1148.72,1033.81c15,1,116,59.6,140,73.6-36.46-19-174.71-57.11-174.71-57.11C1120.94,1048.46,1135.2,1041.19,1148.72,1033.81Z" transform="translate(-110.54 -76.5)"/><path class="cls-6" d="M1668.6,1050.45s-174.15,42.25-206,59.94c1.44-1.05,91.77-69.69,139.2-78.84,0,0,46.59,14.7,61.74,18.75a16.92,16.92,0,0,0,5.07.14Z" transform="translate(-110.54 -76.5)"/><path class="cls-7" d="M1810.06,1432.14c-21.22,20.2-73.75,12.12-100,7.07s-154.56-9.09-170.72-14.14c-4.65-1.46-10.46-3.07-16.89-5h0c-15.94-4.72-35.67-11.21-50.78-21.29-1.71-1.14-5.61-2.84-11.34-5l80.73-58.25,2.31-1.67c6.08,2,10.39,2.86,12.14,2.27,12.13-4,37.38,3,56.57,5s126.27,5,155.57,16.17S1831.27,1411.94,1810.06,1432.14Z" transform="translate(-110.54 -76.5)"/><path class="cls-8" d="M1810.06,1432.14c-21.22,20.2-73.75,12.12-100,7.07s-154.56-9.09-170.72-14.14c-4.65-1.46-10.46-3.07-16.89-5h0s35.32-34.94,18.63-84.51l2.31-1.67c6.08,2,10.39,2.86,12.14,2.27,12.13-4,37.38,3,56.57,5s126.27,5,155.57,16.17S1831.27,1411.94,1810.06,1432.14Z" transform="translate(-110.54 -76.5)"/><path class="cls-9" d="M1193,1078.4c.23.54.18.93-.16,1.19C1190.83,1081.1,1191.15,1080.45,1193,1078.4Z" transform="translate(-110.54 -76.5)"/><path class="cls-9" d="M1776.83,842.2c-1.69-3.41-93.72-148.16-118.64-214.15s-84.85-96.31-113.13-105.74C1535,519,1517,513.09,1498,507c-34.16-11-71.49-23-71.49-23H1308.67s-40.83,13.67-84.18,28.87l0,0c-40,14-82,29.31-96.25,36.42-29.63,14.81-79.46,120.55-89.56,132.67s-87.79,156.11-99,211.46c-8.71,43,246.41,168.89,253.37,185,8.08-9,45.24-44.59,45.24-44.59s-11.9-7.48-28.66-18.5c68.34,3.13,235.33-2.76,259.29-1.56a122.58,122.58,0,0,0,15.43-.33l0,0c7.42,5.38,55.24,47.63,55.24,47.63s117.86-48.94,172-103.71C1788.54,879.58,1785.3,859.38,1776.83,842.2ZM1106.72,938c-25.25-30.31-60-48.64-51.26-62.11s82.83-141.42,82.83-141.42,38.39,84.18,49.16,128,9.93,63.81,5.39,77.44c-4.07,12.21-7.34,20.51-11,56.88C1151.63,976.1,1118.3,951.87,1106.72,938Zm521.08-14.47c-9.91,11.26-49.1,36.16-84.33,56.65-2.68-24.42-6.73-62.86-7.17-76.68-.67-20.87,8.08-80.81,18.86-103.7s18.18-85.53,18.18-85.53,89.23,121.22,103.37,134S1661.26,885.5,1627.8,923.51Z" transform="translate(-110.54 -76.5)"/><path class="cls-10" d="M1246.05,1222.23s-141.09-84.55-202.71-97.86c-58.23-12.56-79.47-34.34-79.47-34.34s92.6,0,154.22,43.77C1159.93,1163.53,1246.05,1222.23,1246.05,1222.23Z" transform="translate(-110.54 -76.5)"/><path class="cls-10" d="M1371.38,1281.18s245.4-128.86,345.59-156.81c57.38-16,79.46-34.34,79.46-34.34s-151.71,14.82-244,70.38C1508.49,1186.88,1371.38,1281.18,1371.38,1281.18Z" transform="translate(-110.54 -76.5)"/><path class="cls-7" d="M1281.72,1411.11c-16.21,6.46-32.88,10.64-43.48,14-16.16,5-144.46,9.09-170.72,14.14s-78.79,13.13-100-7.07,13.14-63.64,42.43-74.75,136.37-14.14,155.57-16.17,44.45-9.09,56.57-5c3.82,1.28,20.76-3.69,42.13-11.08C1264.86,1337.91,1281.72,1411.11,1281.72,1411.11Z" transform="translate(-110.54 -76.5)"/><path class="cls-6" d="M1371.38,1398.9l241.24-71.39-47.7-14.57S1372.13,1382.83,1371.38,1398.9Z" transform="translate(-110.54 -76.5)"/><polygon class="cls-10" points="1260.84 1322.4 1373.73 1287.96 1295.46 1333.42 1260.84 1322.4"/><path class="cls-11" d="M1293.84,1110.39l-5.08-3A49.9,49.9,0,0,1,1293.84,1110.39Z" transform="translate(-110.54 -76.5)"/><path class="cls-8" d="M1238.24,1425.07c-16.16,5-144.46,9.09-170.72,14.14s-78.79,13.13-100-7.07,13.14-63.64,42.43-74.75,136.37-14.14,155.57-16.17,44.45-9.09,56.57-5C1222.08,1336.17,1189.69,1385.67,1238.24,1425.07Z" transform="translate(-110.54 -76.5)"/><path class="cls-11" d="M1158.5,1090l-37.18-211.46L1602,867.45l-31,208.1s-153.42,56.16-205.49,88.91C1365.52,1164.46,1233.92,1110.39,1158.5,1090Z" transform="translate(-110.54 -76.5)"/><path class="cls-7" d="M1427.74,484.32c0-.13-.08-.27-.13-.39-5.74-12.84-2.94-75.44-2.94-75.44s-117.38-29.88-114-7-10.11,85.21-10.11,85.21l-60.22,20.61s64.16,172.28,137.9,150.06,101.58-156.27,101.58-156.27Z" transform="translate(-110.54 -76.5)"/><path class="cls-7" d="M1362.37,156.36s123.9-29.14,111,124.63c-13.05,156-41.4,174.18-80.94,176.94C1342.88,461.39,1292,439.77,1263.62,319,1236.63,203.92,1286.59,156.3,1362.37,156.36Z" transform="translate(-110.54 -76.5)"/><path class="cls-12" d="M1272.61,351.68s-6.15-24,2.62-29.81c11.31-7.53,17.7,5.44,17.7,5.44l12-.59s-18.6-42.25,19.1-46.07,117-1.49,138.67-14.41c0,0,5.49,28.57,5.42,35.36s3.37.86,3.37.86,20.34-109.89-43.55-155.57-143.69-10.43-161,30.33S1241.54,259.27,1272.61,351.68Z" transform="translate(-110.54 -76.5)"/><polygon class="cls-13" points="1141.12 192.76 1012.63 136.28 1263.72 0 1476.29 108.36 1363.49 168.65 1141.12 192.76"/><path class="cls-11" d="M1254.23,279.59s122.19-38.66,220.22-21.84l-.9-27.32s-91.8-22-225.4,19.09Z" transform="translate(-110.54 -76.5)"/><rect class="cls-13" x="1212.45" y="225.11" width="6.03" height="149.72" transform="translate(-111.02 -74.56) rotate(-0.09)"/><path class="cls-13" d="M1215.77,372.09v0l-.09,0-.1,0v0c-14.19.69-12.43,73.73-12.43,73.73l12.56,0h.18l12.56,0S1230,372.73,1215.77,372.09Z" transform="translate(-110.54 -76.5)"/><path class="cls-9" d="M1300.53,486.67s8.7,74.41,74.35,64,52.79-66.54,52.79-66.54,69.73,22.35,96.87,31.48c0,0-55.17,232.83-192.31,202.72s-93.07-210.61-93.07-210.61Z" transform="translate(-110.54 -76.5)"/><path class="cls-14" d="M1416.24,452.85s-47.93,21.5-95.61-17.31c0,0,18,40.21,51.84,42.72S1416.24,452.85,1416.24,452.85Z" transform="translate(-110.54 -76.5)"/><path class="cls-13" d="M1443.55,344.81c-16.44,0-29.82-14.55-29.82-32.43s13.38-32.44,29.82-32.44,29.81,14.55,29.81,32.44S1460,344.81,1443.55,344.81Zm0-59.85c-13.68,0-24.8,12.3-24.8,27.42s11.12,27.41,24.8,27.41,24.79-12.29,24.79-27.41S1457.22,285,1443.55,285Z" transform="translate(-110.54 -76.5)"/><path class="cls-13" d="M1358.7,352c-16.45,0-29.82-14.55-29.82-32.44s13.37-32.43,29.82-32.43,29.81,14.55,29.81,32.43S1375.13,352,1358.7,352Zm0-59.85c-13.68,0-24.8,12.3-24.8,27.41S1345,347,1358.7,347s24.79-12.3,24.79-27.42S1372.37,292.14,1358.7,292.14Z" transform="translate(-110.54 -76.5)"/><path class="cls-13" d="M1386.34,318.14l-1.14-4.89c20.81-4.86,31.11-3.08,31.54-3l-.89,4.94C1415.75,315.17,1406,313.55,1386.34,318.14Z" transform="translate(-110.54 -76.5)"/><rect class="cls-13" x="1297.59" y="277.84" width="5.02" height="65.18" transform="translate(527.67 1395.2) rotate(-73.75)"/><path class="cls-7" d="M1284.76,295.57s-12.34-12.39-15.8-1.38,16,61.79,22.47,62.91S1299.36,310.58,1284.76,295.57Z" transform="translate(-110.54 -76.5)"/><path class="cls-15" d="M357.58,923.07c0-41.65,36.87-75.55,82.18-75.55s82.18,33.9,82.18,75.55-36.87,75.56-82.18,75.56S357.58,964.74,357.58,923.07Zm19,0c0,32.48,28.32,58.89,63.14,58.89s63.15-26.41,63.15-58.89-28.33-58.88-63.15-58.88S376.62,890.6,376.62,923.07Z" transform="translate(-110.54 -76.5)"/><rect class="cls-16" x="234.56" y="1189.48" width="410.4" height="204.8" transform="translate(768.98 2507.27) rotate(180)"/><path class="cls-15" d="M626.06,1432.57s1.75-46,0-292.85c-1.81-256.48-188.5-252.66-188.5-252.66s-186.69-3.82-188.5,252.66c-1.74,246.9,0,292.85,0,292.85Z" transform="translate(-110.54 -76.5)"/><rect class="cls-17" x="291.66" y="1189.48" width="291.81" height="204.8" transform="translate(764.58 2507.27) rotate(180)"/><rect class="cls-18" x="291.66" y="1189.48" width="291.81" height="56.94" transform="translate(764.58 2359.41) rotate(180)"/></svg>