<svg xmlns="http://www.w3.org/2000/svg" viewBox="0 0 500 500"><defs><style>.cls-1{fill:#fff;}.cls-2{fill:#eef0f5;}.cls-3{fill:#8b594a;}.cls-4{fill:#6e8048;}.cls-5{fill:#c74d3b;}.cls-6{fill:#973d2f;}.cls-7{fill:#7f6318;}.cls-8{fill:#624d13;}.cls-9{fill:#a5cac6;}.cls-10{fill:#d2e1e0;}.cls-11{fill:#9ead55;}.cls-12{fill:#f1cb4a;}</style></defs><g id="BACKGROUND"><rect class="cls-1" width="500" height="500"/></g><g id="OBJECTS"><path class="cls-2" d="M346.8,22.46c-7.59-8.76-18.36-12.57-29.61-13.55C291,6.62,269.85,22.44,251.78,39.41c-11.32,10.63-23.24,16.52-39,15.16-15-1.29-27.23-9.68-40.9-15A42.14,42.14,0,0,0,133.65,43c-11.05,6.68-19.92,17.16-23.47,29.62-6.57,23,9.45,45.5,29.85,54.56,19.58,8.7,42.38,7.88,63.09,4.51a123.09,123.09,0,0,0,41-14.89C256.62,109.59,267,99.38,279.29,92c8.32-5,18.7-9,28.57-7.27,8.51,1.52,10.6,8.14,11.48,15.23-1.16,3.68-.67,7.57.05,11.72.43,2.45,4.48,2.44,4.91,0,1-5.62,1.51-10,5.73-14a193.14,193.14,0,0,0,15-15.52c7.55-9.13,12.68-19.42,12.76-31.43C357.89,40.21,353.54,30.23,346.8,22.46Z" transform="translate(0 0)"/><rect class="cls-3" x="398.97" y="383.71" width="15.22" height="81.17"/><path class="cls-4" d="M465.6,361.58c0,73.59-26.7,65.56-59.63,65.56s-59.64,8-59.64-65.56S406,160.69,406,160.69,465.6,288,465.6,361.58Z" transform="translate(0 0)"/><rect class="cls-3" x="81.89" y="393.86" width="12.68" height="71.02"/><path class="cls-4" d="M141.82,371.79c0,66.27-24,59-53.71,59s-53.71,7.22-53.71-59,53.71-181,53.71-181S141.82,305.51,141.82,371.79Z" transform="translate(0 0)"/><rect class="cls-5" x="302.58" y="104.68" width="45.66" height="126.83"/><rect class="cls-6" x="302.58" y="104.68" width="45.66" height="20.29"/><rect class="cls-5" x="284.82" y="94.54" width="78.63" height="15.22"/><polygon class="cls-5" points="378.67 258.83 378.67 457.27 99.65 457.27 99.65 234.44 220.91 101.55 378.67 258.83"/><polygon class="cls-1" points="270 472.82 258.36 289.77 333.49 293.43 335.6 467.33 270 472.82"/><polygon class="cls-7" points="282.7 461.84 272.53 309.45 323.56 306.94 325.02 460.01 282.7 461.84"/><path class="cls-8" d="M317.61,380.38c0,3-2.84,5.49-6.34,5.49s-6.35-2.46-6.35-5.49,2.84-5.49,6.35-5.49S317.61,377.35,317.61,380.38Z" transform="translate(0 0)"/><polygon class="cls-1" points="126.6 312.1 123.02 423.19 224.69 423.19 228.31 354.42 228.81 345 230.54 312.1 126.6 312.1"/><polygon class="cls-9" points="216.08 414.65 132.38 413.83 132.93 394.8 135.02 322.61 186.47 322.83 186.57 322.83 220.41 322.72 220.71 322.5 216.08 414.65"/><polygon class="cls-10" points="220.43 322.55 152.27 414.25 132.38 413.94 132.95 395.13 186.47 322.83 186.57 322.83 220.43 322.55"/><polygon class="cls-1" points="228.33 354.19 126.95 353.19 127.82 343.95 228.82 344.95 228.33 354.19"/><path class="cls-11" d="M440.81,491.31V486a31.74,31.74,0,0,0-31.74-31.74H91.68A31.74,31.74,0,0,0,59.94,486v5.29Z" transform="translate(0 0)"/><polygon class="cls-6" points="378.67 258.83 378.67 286.08 222.26 130.71 99.65 286.44 99.65 234.44 220.91 101.55 378.67 258.83"/><polygon class="cls-12" points="86.79 279.83 223.05 111.59 388.72 279.83 418.42 279.83 221.51 79.87 59.56 279.83 86.79 279.83"/><circle class="cls-1" cx="228.88" cy="217.67" r="37.3"/><path class="cls-9" d="M255.06,217.66a26.17,26.17,0,0,1-24.29,26.12c-.63.05-1.25.07-1.89.07a26.18,26.18,0,1,1,0-52.36,24,24,0,0,1,3.42.23,26.17,26.17,0,0,1,22.76,25.94Z" transform="translate(0 0)"/><path class="cls-10" d="M247.9,199.68l-17.13,44.1c-.63.05-1.25.07-1.89.07a26.13,26.13,0,0,1-21.36-11l24.78-41.08A26,26,0,0,1,247.9,199.68Z" transform="translate(0 0)"/></g></svg>