<svg xmlns="http://www.w3.org/2000/svg" viewBox="0 0 481.86 448.41"><defs><style>.cls-1{fill:#27debf;}.cls-2,.cls-4{opacity:0.15;}.cls-3,.cls-8{opacity:0.1;}.cls-17,.cls-28,.cls-5{fill:#fff;}.cls-25,.cls-6{opacity:0.3;}.cls-28,.cls-7{opacity:0.7;}.cls-9{fill:#37474f;}.cls-10{fill:#455a64;}.cls-11{fill:#fafafa;}.cls-12{fill:#ebebeb;}.cls-13{fill:#263238;}.cls-14{fill:#e0e0e0;}.cls-15{fill:#f0f0f0;}.cls-16{opacity:0.85;}.cls-17,.cls-19{opacity:0.45;}.cls-18{fill:#f5f5f5;}.cls-20{opacity:0.05;}.cls-21{fill:#f28f8f;}.cls-22{opacity:0.4;}.cls-23{fill:#b16668;}.cls-24{fill:#ffa8a7;}.cls-26{opacity:0.5;}.cls-27{opacity:0.25;}</style></defs><g id="Floor"><g id="Floor-2" data-name="Floor"><polygon class="cls-1" points="240.93 436.88 0 297.77 240.93 158.86 481.86 297.77 240.93 436.88"/><polygon class="cls-1" points="0 297.77 0 309.31 240.93 448.42 240.93 436.88 0 297.77"/><polygon class="cls-2" points="0 297.77 0 309.31 240.93 448.42 240.93 436.88 0 297.77"/><polygon class="cls-1" points="240.93 448.42 481.86 309.31 481.86 297.77 240.93 436.88 240.93 448.42"/><polygon class="cls-3" points="240.93 448.42 481.86 309.31 481.86 297.77 240.93 436.88 240.93 448.42"/></g></g><g id="Plants"><g id="Plants-2" data-name="Plants"><path class="cls-1" d="M408.16,278.39c-.81-5.5,1.5-17.48,6.17-25.46s12.87-14.52,19.57-13.27c6.24,1.16,6.73,9,.28,15.26s-20.29,18-22.16,27.34l-1.08,8.26Z" transform="translate(-10.28 -15.19)"/><g class="cls-4"><path d="M408.16,278.39c-.81-5.5,1.5-17.48,6.17-25.46s12.87-14.52,19.57-13.27c6.24,1.16,6.73,9,.28,15.26s-20.29,18-22.16,27.34l-1.08,8.26Z" transform="translate(-10.28 -15.19)"/></g><path class="cls-5" d="M408.86,286a.41.41,0,0,0,.31-.38c.93-19.32,13.89-36.81,22.49-41.52a.41.41,0,0,0,.17-.55.42.42,0,0,0-.56-.16c-8.76,4.79-22,22.58-22.91,42.19a.41.41,0,0,0,.38.43Z" transform="translate(-10.28 -15.19)"/><path class="cls-1" d="M408.73,302.22c.43-3.22,3.46-8.88,8.95-14,6.08-5.65,14.32-9.05,15.76-13,1.73-4.7-2.55-8.29-9.37-6.41s-17.63,13.14-17.5,27.69Z" transform="translate(-10.28 -15.19)"/><g class="cls-6"><path d="M408.73,302.22c.43-3.22,3.46-8.88,8.95-14,6.08-5.65,14.32-9.05,15.76-13,1.73-4.7-2.55-8.29-9.37-6.41s-17.63,13.14-17.5,27.69Z" transform="translate(-10.28 -15.19)"/></g><path class="cls-5" d="M406.91,299.17a.41.41,0,0,0,.31-.31c3.4-16.94,14.85-24.38,20.43-25.95a.41.41,0,0,0,.28-.5.41.41,0,0,0-.5-.29c-6.17,1.74-17.54,9.29-21,26.58a.39.39,0,0,0,.32.47A.33.33,0,0,0,406.91,299.17Z" transform="translate(-10.28 -15.19)"/></g><g id="Plants-3" data-name="Plants"><path class="cls-1" d="M80.81,274.83s.77-13-3.84-24S64.74,232.2,56.74,230.14s-15.86,4.27-8.08,10.91S71,255.62,74.72,276Z" transform="translate(-10.28 -15.19)"/><g class="cls-4"><path d="M80.81,274.83s.77-13-3.84-24S64.74,232.2,56.74,230.14s-15.86,4.27-8.08,10.91S71,255.62,74.72,276Z" transform="translate(-10.28 -15.19)"/></g><path class="cls-5" d="M79,271.11h.09a.44.44,0,0,0,.34-.52C74.55,248,59.78,236.33,52.65,233.33a.44.44,0,0,0-.58.23.45.45,0,0,0,.24.58c7,2.94,21.45,14.39,26.26,36.62A.45.45,0,0,0,79,271.11Z" transform="translate(-10.28 -15.19)"/><path class="cls-1" d="M46.52,264.75c.18,1.73,1.57,3.05,2.9,4.17s2.78,2.31,3.15,4c.73,3.42-3.33,6.59-2.45,10A5.41,5.41,0,0,0,53,286.09c1.08.59,2.24,1,3.37,1.44a14.61,14.61,0,0,0,1.68.4A7.87,7.87,0,0,1,62.64,290c1.87,2,1.63,5.15,2.3,7.84a11.43,11.43,0,0,0,6.14,7.34c2.49,1.19,6.57,1.87,7.62.94.79-.71.13-3.84.42-4.86a43.78,43.78,0,0,0,1.53-8,15.1,15.1,0,0,1,.64-3.66c.44-1.32.87-2.65,1.29-4s1.16-2.46,1.12-4.07a15.81,15.81,0,0,0-1-4.5c-.5-1.44-1-2.87-1.52-4.3a21.84,21.84,0,0,0-2.25-4.85A11.46,11.46,0,0,0,71.24,263c-2.55-.38-5.35.21-7.8-.72s-4.55-2.31-7.08-2.94a9,9,0,0,0-7.83,1.32A4.78,4.78,0,0,0,46.52,264.75Z" transform="translate(-10.28 -15.19)"/><g class="cls-6"><path d="M46.52,264.75c.18,1.73,1.57,3.05,2.9,4.17s2.78,2.31,3.15,4c.73,3.42-3.33,6.59-2.45,10A5.41,5.41,0,0,0,53,286.09c1.08.59,2.24,1,3.37,1.44a14.61,14.61,0,0,0,1.68.4A7.87,7.87,0,0,1,62.64,290c1.87,2,1.63,5.15,2.3,7.84a11.43,11.43,0,0,0,6.14,7.34c2.49,1.19,6.57,1.87,7.62.94.79-.71.13-3.84.42-4.86a43.78,43.78,0,0,0,1.53-8,15.1,15.1,0,0,1,.64-3.66c.44-1.32.87-2.65,1.29-4s1.16-2.46,1.12-4.07a15.81,15.81,0,0,0-1-4.5c-.5-1.44-1-2.87-1.52-4.3a21.84,21.84,0,0,0-2.25-4.85A11.46,11.46,0,0,0,71.24,263c-2.55-.38-5.35.21-7.8-.72s-4.55-2.31-7.08-2.94a9,9,0,0,0-7.83,1.32A4.78,4.78,0,0,0,46.52,264.75Z" transform="translate(-10.28 -15.19)"/></g><path class="cls-5" d="M80,299.23h0a.38.38,0,0,0,.4-.38c.76-24.55-22.21-35-27.93-36.29a.39.39,0,0,0-.18.76c5.61,1.25,28.07,11.49,27.33,35.51A.39.39,0,0,0,80,299.23Z" transform="translate(-10.28 -15.19)"/><path class="cls-5" d="M56.05,279.84a.46.46,0,0,0,.23-.06,20.77,20.77,0,0,1,17.65-1,.39.39,0,0,0,.5-.23.38.38,0,0,0-.23-.5,21.57,21.57,0,0,0-18.35,1.1.39.39,0,0,0-.11.54A.38.38,0,0,0,56.05,279.84Z" transform="translate(-10.28 -15.19)"/></g></g><g id="Home"><g id="Walls"><polygon class="cls-1" points="240.9 190.62 240.9 17.33 408.98 114.37 408.98 287.66 240.9 190.62"/><g class="cls-7"><polygon class="cls-5" points="240.9 190.62 240.9 17.33 408.98 114.37 408.98 287.66 240.9 190.62"/></g><polygon class="cls-1" points="240.9 190.62 240.9 17.33 72.81 114.37 72.81 287.66 240.9 190.62"/><g class="cls-7"><polygon class="cls-5" points="240.9 190.62 240.9 17.33 72.81 114.37 72.81 287.66 240.9 190.62"/></g><g class="cls-8"><polygon points="240.9 190.62 240.9 17.33 72.81 114.37 72.81 287.66 240.9 190.62"/></g><polygon class="cls-1" points="240.91 384.71 408.98 287.66 240.9 190.62 72.81 287.66 240.91 384.71"/><polygon class="cls-2" points="240.91 384.71 408.98 287.66 240.9 190.62 72.81 287.66 240.91 384.71"/><polygon class="cls-9" points="240.9 391.64 240.91 384.71 408.98 287.66 408.98 114.37 414.98 117.84 414.26 291.55 240.9 391.64"/><polygon class="cls-10" points="240.93 391.64 240.91 384.71 72.84 287.66 72.84 114.37 66.84 110.91 67.57 291.55 240.93 391.64"/><polygon class="cls-11" points="408.98 287.66 408.98 278.04 240.9 181 240.9 190.62 408.98 287.66"/><polygon class="cls-12" points="72.81 287.66 72.81 278.04 240.9 181 240.9 190.62 72.81 287.66"/></g><g id="Roof"><polygon class="cls-10" points="138.84 0 48.8 114.37 108.83 149.03 198.88 34.66 138.84 0"/><polygon class="cls-13" points="48.8 114.37 48.8 121.3 108.83 155.96 108.83 149.03 48.8 114.37"/><polygon class="cls-9" points="198.88 34.66 198.87 41.59 108.83 155.96 108.83 149.03 198.88 34.66"/><polygon class="cls-9" points="250.65 18.98 138.84 0 318.93 103.97 430.74 122.95 250.65 18.98"/><polygon class="cls-13" points="198.87 41.59 318.94 110.91 318.93 103.97 198.88 34.66 198.87 41.59"/><polygon class="cls-10" points="318.94 110.91 430.74 129.88 430.74 122.95 318.93 103.97 318.94 110.91"/><polygon class="cls-14" points="80.15 50.75 102.83 63.84 102.83 105.38 80.16 92.29 80.15 50.75"/><polygon class="cls-15" points="102.83 63.84 125.5 50.75 125.5 76.58 102.83 105.38 102.83 63.84"/><polygon class="cls-10" points="102.83 28.48 77.8 42.89 77.8 49.44 102.83 63.84 127.86 49.44 127.86 42.89 102.83 28.48"/><polygon class="cls-9" points="102.83 33.31 102.83 52.47 86.19 42.89 102.83 33.31"/><polygon class="cls-13" points="102.83 33.31 119.47 42.89 102.83 52.47 102.83 33.31"/><polygon class="cls-9" points="77.8 49.44 102.83 63.84 102.83 57.3 77.8 42.89 77.8 49.44"/><polygon class="cls-13" points="127.86 49.44 102.83 63.84 102.83 57.3 127.86 42.89 127.86 49.44"/></g></g><g id="Window"><g id="Window-2" data-name="Window"><polygon class="cls-10" points="352.82 208.1 350.67 209.34 297.12 178.42 299.26 177.18 352.82 208.1"/><polygon class="cls-1" points="299.26 177.18 350.67 206.87 350.67 155.54 299.26 125.85 299.26 177.18"/><g class="cls-16"><polygon class="cls-5" points="299.26 177.18 350.67 206.87 350.67 155.54 299.26 125.85 299.26 177.18"/></g><polygon class="cls-9" points="323.9 138.84 323.9 192.65 321.75 191.41 321.75 137.61 323.9 138.84"/><polygon class="cls-13" points="324.97 138.22 323.9 138.84 323.9 192.65 324.97 192.02 324.97 138.22"/><polygon class="cls-11" points="323.9 138.84 321.75 137.61 322.82 136.99 324.97 138.22 323.9 138.84"/><path class="cls-9" d="M305.25,194.85l57.84,33.39V169.49L305.25,136.1Zm2.15-55L361,170.73v53.8L307.4,193.61Z" transform="translate(-10.28 -15.19)"/><polygon class="cls-13" points="297.12 178.42 299.26 177.18 299.26 125.85 297.12 124.62 297.12 178.42"/><polygon class="cls-10" points="294.98 120.91 297.12 119.67 354.96 153.06 352.82 154.3 294.98 120.91"/><polygon class="cls-13" points="354.96 153.06 352.82 154.3 352.82 213.05 354.96 211.81 354.96 153.06"/><polygon class="cls-13" points="323.9 140.08 321.76 138.84 321.76 140.08 323.9 141.31 323.9 140.08"/><polygon points="323.9 141.31 324.97 140.7 323.9 140.08 323.9 141.31"/></g></g><g id="Carpet"><polygon id="Shadow" class="cls-2" points="251.59 278.86 303.85 309.1 220.19 357.27 167.98 327.03 251.59 278.86"/><g id="Carpet-2" data-name="Carpet"><polygon class="cls-1" points="250.93 278.21 301.01 307.19 220.85 353.35 170.82 324.37 250.93 278.21"/><polygon class="cls-17" points="250.93 278.21 301.01 307.19 220.85 353.35 170.82 324.37 250.93 278.21"/><path class="cls-11" d="M231.17,368.88a.37.37,0,0,1-.15,0l-50.08-28.92a.3.3,0,0,1-.15-.26.33.33,0,0,1,.15-.27l80.12-46.25a.29.29,0,0,1,.31,0l50.07,28.91a.3.3,0,0,1,.15.26.32.32,0,0,1-.15.27l-80.11,46.26A.47.47,0,0,1,231.17,368.88Zm-49.46-29.22,49.46,28.55,79.5-45.9-49.46-28.55Z" transform="translate(-10.28 -15.19)"/><path class="cls-11" d="M261.21,293.71a.29.29,0,0,1-.26-.15.3.3,0,0,1,.11-.42l2.2-1.28a.31.31,0,0,1,.42.12.3.3,0,0,1-.11.42l-2.2,1.27A.29.29,0,0,1,261.21,293.71Z" transform="translate(-10.28 -15.19)"/><path class="cls-11" d="M264,295.32a.31.31,0,0,1-.15-.58l2.2-1.27a.31.31,0,0,1,.31.53l-2.21,1.27A.27.27,0,0,1,264,295.32Z" transform="translate(-10.28 -15.19)"/><path class="cls-11" d="M266.79,296.92a.33.33,0,0,1-.27-.15.3.3,0,0,1,.11-.42l2.2-1.28a.32.32,0,0,1,.43.11.31.31,0,0,1-.12.42l-2.2,1.28A.28.28,0,0,1,266.79,296.92Z" transform="translate(-10.28 -15.19)"/><path class="cls-11" d="M269.57,298.52a.31.31,0,0,1-.27-.15.31.31,0,0,1,.12-.42l2.2-1.27a.31.31,0,0,1,.31.53l-2.2,1.27A.32.32,0,0,1,269.57,298.52Z" transform="translate(-10.28 -15.19)"/><path class="cls-11" d="M272.36,300.13a.32.32,0,0,1-.27-.16.32.32,0,0,1,.11-.42l2.21-1.27a.3.3,0,0,1,.42.11.32.32,0,0,1-.11.42l-2.21,1.28A.42.42,0,0,1,272.36,300.13Z" transform="translate(-10.28 -15.19)"/><path class="cls-11" d="M275.14,301.73a.29.29,0,0,1-.26-.15.3.3,0,0,1,.11-.42l2.2-1.28a.32.32,0,0,1,.42.11.31.31,0,0,1-.11.43l-2.2,1.27A.29.29,0,0,1,275.14,301.73Z" transform="translate(-10.28 -15.19)"/><path class="cls-11" d="M277.93,303.34a.32.32,0,0,1-.27-.16.32.32,0,0,1,.11-.42l2.21-1.27a.3.3,0,0,1,.42.11.32.32,0,0,1-.11.42l-2.21,1.27A.3.3,0,0,1,277.93,303.34Z" transform="translate(-10.28 -15.19)"/><path class="cls-11" d="M280.71,304.94a.31.31,0,0,1-.15-.58l2.2-1.27a.31.31,0,0,1,.42.11.3.3,0,0,1-.11.42l-2.2,1.28A.29.29,0,0,1,280.71,304.94Z" transform="translate(-10.28 -15.19)"/><path class="cls-11" d="M283.5,306.54a.31.31,0,0,1-.27-.15.32.32,0,0,1,.11-.42l2.21-1.28a.31.31,0,0,1,.42.12.3.3,0,0,1-.11.42l-2.21,1.27A.28.28,0,0,1,283.5,306.54Z" transform="translate(-10.28 -15.19)"/><path class="cls-11" d="M286.29,308.15A.32.32,0,0,1,286,308a.3.3,0,0,1,.11-.42l2.21-1.27a.3.3,0,0,1,.42.11.31.31,0,0,1-.12.42l-2.2,1.27A.3.3,0,0,1,286.29,308.15Z" transform="translate(-10.28 -15.19)"/><path class="cls-11" d="M289.07,309.75a.33.33,0,0,1-.27-.15.31.31,0,0,1,.12-.42l2.2-1.28a.32.32,0,0,1,.42.11.31.31,0,0,1-.11.43l-2.2,1.27A.32.32,0,0,1,289.07,309.75Z" transform="translate(-10.28 -15.19)"/><path class="cls-11" d="M291.86,311.35a.31.31,0,0,1-.27-.15.32.32,0,0,1,.11-.42l2.21-1.27a.3.3,0,0,1,.42.11.32.32,0,0,1-.11.42L292,311.31A.28.28,0,0,1,291.86,311.35Z" transform="translate(-10.28 -15.19)"/><path class="cls-11" d="M294.64,313a.31.31,0,0,1-.15-.58l2.2-1.27a.31.31,0,0,1,.42.11.3.3,0,0,1-.11.42l-2.2,1.28A.32.32,0,0,1,294.64,313Z" transform="translate(-10.28 -15.19)"/><path class="cls-11" d="M297.43,314.56a.31.31,0,0,1-.27-.15.32.32,0,0,1,.11-.42l2.21-1.28a.32.32,0,0,1,.42.11.31.31,0,0,1-.11.43l-2.21,1.27A.28.28,0,0,1,297.43,314.56Z" transform="translate(-10.28 -15.19)"/><path class="cls-11" d="M300.21,316.16A.29.29,0,0,1,300,316a.3.3,0,0,1,.11-.42l2.2-1.27a.31.31,0,1,1,.31.53l-2.2,1.27A.29.29,0,0,1,300.21,316.16Z" transform="translate(-10.28 -15.19)"/><path class="cls-11" d="M303,317.77a.33.33,0,0,1-.27-.15.32.32,0,0,1,.12-.43l2.2-1.27a.31.31,0,0,1,.42.11.3.3,0,0,1-.11.42l-2.21,1.28A.26.26,0,0,1,303,317.77Z" transform="translate(-10.28 -15.19)"/><path class="cls-11" d="M305.79,319.37a.31.31,0,0,1-.27-.15.3.3,0,0,1,.11-.42l2.21-1.28a.31.31,0,0,1,.42.12.32.32,0,0,1-.11.42l-2.21,1.27A.28.28,0,0,1,305.79,319.37Z" transform="translate(-10.28 -15.19)"/><path class="cls-11" d="M308.57,321a.31.31,0,0,1-.15-.58l2.2-1.27a.31.31,0,0,1,.31.53l-2.2,1.28A.47.47,0,0,1,308.57,321Z" transform="translate(-10.28 -15.19)"/><path class="cls-11" d="M311.36,322.58a.31.31,0,0,1-.27-.15.32.32,0,0,1,.11-.42l2.21-1.28a.31.31,0,0,1,.42.11.32.32,0,0,1-.11.42l-2.21,1.28A.28.28,0,0,1,311.36,322.58Z" transform="translate(-10.28 -15.19)"/><path class="cls-11" d="M178.86,341.26a.31.31,0,0,1-.15-.58l2.2-1.27a.31.31,0,0,1,.31.53l-2.2,1.28A.42.42,0,0,1,178.86,341.26Z" transform="translate(-10.28 -15.19)"/><path class="cls-11" d="M181.65,342.86a.31.31,0,0,1-.27-.15.32.32,0,0,1,.11-.42L183.7,341a.32.32,0,0,1,.42.11.31.31,0,0,1-.11.43l-2.21,1.27A.28.28,0,0,1,181.65,342.86Z" transform="translate(-10.28 -15.19)"/><path class="cls-11" d="M184.44,344.47a.32.32,0,0,1-.27-.16.3.3,0,0,1,.11-.42l2.2-1.27a.31.31,0,1,1,.31.53l-2.2,1.27A.3.3,0,0,1,184.44,344.47Z" transform="translate(-10.28 -15.19)"/><path class="cls-11" d="M187.22,346.07a.31.31,0,0,1-.15-.58l2.2-1.27a.31.31,0,0,1,.42.11.3.3,0,0,1-.11.42l-2.2,1.28A.32.32,0,0,1,187.22,346.07Z" transform="translate(-10.28 -15.19)"/><path class="cls-11" d="M190,347.67a.31.31,0,0,1-.27-.15.32.32,0,0,1,.11-.42l2.21-1.28a.31.31,0,0,1,.42.12.32.32,0,0,1-.11.42l-2.21,1.27A.28.28,0,0,1,190,347.67Z" transform="translate(-10.28 -15.19)"/><path class="cls-11" d="M192.79,349.28a.31.31,0,0,1-.15-.58l2.2-1.27a.31.31,0,0,1,.42.11.3.3,0,0,1-.11.42l-2.2,1.27A.33.33,0,0,1,192.79,349.28Z" transform="translate(-10.28 -15.19)"/><path class="cls-11" d="M195.58,350.88a.33.33,0,0,1-.27-.15.32.32,0,0,1,.11-.42l2.21-1.28a.31.31,0,1,1,.31.53l-2.21,1.28A.28.28,0,0,1,195.58,350.88Z" transform="translate(-10.28 -15.19)"/><path class="cls-11" d="M198.36,352.48a.29.29,0,0,1-.26-.15.3.3,0,0,1,.11-.42l2.2-1.28a.31.31,0,0,1,.42.12.3.3,0,0,1-.11.42l-2.2,1.27A.29.29,0,0,1,198.36,352.48Z" transform="translate(-10.28 -15.19)"/><path class="cls-11" d="M201.15,354.09a.32.32,0,0,1-.27-.16.32.32,0,0,1,.11-.42l2.21-1.27a.31.31,0,0,1,.31.53l-2.21,1.28A.28.28,0,0,1,201.15,354.09Z" transform="translate(-10.28 -15.19)"/><path class="cls-11" d="M203.93,355.69a.3.3,0,0,1-.26-.15.3.3,0,0,1,.11-.42l2.21-1.28a.32.32,0,0,1,.42.11.32.32,0,0,1-.12.43l-2.2,1.27A.29.29,0,0,1,203.93,355.69Z" transform="translate(-10.28 -15.19)"/><path class="cls-11" d="M206.72,357.29a.31.31,0,0,1-.27-.15.31.31,0,0,1,.12-.42l2.2-1.27a.31.31,0,0,1,.31.53l-2.2,1.27A.32.32,0,0,1,206.72,357.29Z" transform="translate(-10.28 -15.19)"/><path class="cls-11" d="M209.51,358.9a.33.33,0,0,1-.27-.15.32.32,0,0,1,.11-.43l2.21-1.27a.31.31,0,0,1,.42.11.32.32,0,0,1-.11.42l-2.21,1.28A.28.28,0,0,1,209.51,358.9Z" transform="translate(-10.28 -15.19)"/><path class="cls-11" d="M212.29,360.5a.29.29,0,0,1-.26-.15.3.3,0,0,1,.11-.42l2.2-1.28a.31.31,0,0,1,.42.12.3.3,0,0,1-.11.42l-2.2,1.27A.32.32,0,0,1,212.29,360.5Z" transform="translate(-10.28 -15.19)"/><path class="cls-11" d="M215.08,362.11a.31.31,0,0,1-.16-.58l2.21-1.27a.3.3,0,0,1,.42.11.32.32,0,0,1-.11.42l-2.21,1.27A.3.3,0,0,1,215.08,362.11Z" transform="translate(-10.28 -15.19)"/><path class="cls-11" d="M217.86,363.71a.31.31,0,0,1-.26-.15.3.3,0,0,1,.11-.42l2.2-1.28a.33.33,0,0,1,.43.11.31.31,0,0,1-.12.42l-2.2,1.28A.29.29,0,0,1,217.86,363.71Z" transform="translate(-10.28 -15.19)"/><path class="cls-11" d="M220.65,365.31a.31.31,0,0,1-.27-.15.31.31,0,0,1,.12-.42l2.2-1.27a.31.31,0,0,1,.31.53l-2.21,1.27A.26.26,0,0,1,220.65,365.31Z" transform="translate(-10.28 -15.19)"/><path class="cls-11" d="M223.44,366.92a.32.32,0,0,1-.27-.16.3.3,0,0,1,.11-.42l2.21-1.27a.31.31,0,0,1,.42.11.32.32,0,0,1-.11.42l-2.21,1.28A.28.28,0,0,1,223.44,366.92Z" transform="translate(-10.28 -15.19)"/><path class="cls-11" d="M226.22,368.52a.28.28,0,0,1-.26-.15.3.3,0,0,1,.11-.42l2.2-1.28a.31.31,0,0,1,.42.12.3.3,0,0,1-.11.42l-2.2,1.27A.32.32,0,0,1,226.22,368.52Z" transform="translate(-10.28 -15.19)"/><path class="cls-11" d="M229,370.12a.31.31,0,0,1-.27-.15.32.32,0,0,1,.11-.42l2.21-1.27a.3.3,0,0,1,.42.11.32.32,0,0,1-.11.42l-2.21,1.27A.28.28,0,0,1,229,370.12Z" transform="translate(-10.28 -15.19)"/><path class="cls-11" d="M241.18,363.09a.28.28,0,0,1-.15,0L191,334.14a.3.3,0,0,1-.11-.42.31.31,0,0,1,.42-.11l50.07,28.91a.31.31,0,0,1-.16.57Z" transform="translate(-10.28 -15.19)"/><path class="cls-11" d="M251.2,357.31a.29.29,0,0,1-.16,0L201,328.36a.3.3,0,0,1-.11-.42.31.31,0,0,1,.42-.11l50.07,28.91a.3.3,0,0,1,.11.42A.29.29,0,0,1,251.2,357.31Z" transform="translate(-10.28 -15.19)"/><path class="cls-11" d="M261.21,351.53a.28.28,0,0,1-.15,0L211,322.58a.32.32,0,0,1-.11-.42.3.3,0,0,1,.42-.11L261.37,351a.31.31,0,0,1-.16.58Z" transform="translate(-10.28 -15.19)"/><path class="cls-11" d="M271.22,345.75a.3.3,0,0,1-.15-.05L221,316.8a.31.31,0,0,1-.11-.43.32.32,0,0,1,.42-.11l50.07,28.91a.3.3,0,0,1,.11.42A.32.32,0,0,1,271.22,345.75Z" transform="translate(-10.28 -15.19)"/><path class="cls-11" d="M281.24,340a.32.32,0,0,1-.16,0L231,311a.31.31,0,0,1,.31-.53l50.07,28.91a.3.3,0,0,1,.11.42A.29.29,0,0,1,281.24,340Z" transform="translate(-10.28 -15.19)"/><path class="cls-11" d="M291.25,334.18a.28.28,0,0,1-.15,0L241,305.23a.31.31,0,0,1-.12-.42.3.3,0,0,1,.42-.11l50.08,28.91a.32.32,0,0,1,.11.42A.31.31,0,0,1,291.25,334.18Z" transform="translate(-10.28 -15.19)"/><path class="cls-11" d="M301.27,328.4a.29.29,0,0,1-.16,0L251,299.45a.31.31,0,0,1,.31-.53l50.07,28.91a.3.3,0,0,1,.11.42A.31.31,0,0,1,301.27,328.4Z" transform="translate(-10.28 -15.19)"/><path class="cls-11" d="M221.16,363.09a.29.29,0,0,1-.22-.09.27.27,0,0,1-.09-.21v-11.2l-14.64,2.82a.3.3,0,0,1-.26-.06.32.32,0,0,1-.11-.24V342.93l-14.65,2.82a.33.33,0,0,1-.26-.07.32.32,0,0,1-.11-.24V333.87a.3.3,0,0,1,.31-.3.29.29,0,0,1,.3.3v11.2l14.66-2.82a.29.29,0,0,1,.25.07.29.29,0,0,1,.12.23v11.19l14.64-2.82a.3.3,0,0,1,.26.06.32.32,0,0,1,.11.24v11.26l19.72,0h0a.3.3,0,0,1,.31.31.3.3,0,0,1-.31.3l-20,0Z" transform="translate(-10.28 -15.19)"/><path class="cls-11" d="M241.19,351.53a.29.29,0,0,1-.22-.09.31.31,0,0,1-.09-.22V340l-14.65,2.82a.31.31,0,0,1-.25-.07.27.27,0,0,1-.12-.23V331.36l-14.65,2.82a.33.33,0,0,1-.26-.06.32.32,0,0,1-.11-.24V322.31a.31.31,0,0,1,.62,0v11.2l14.65-2.82a.28.28,0,0,1,.25.06.3.3,0,0,1,.12.24v11.18l14.65-2.82a.31.31,0,0,1,.36.31v11.25l19.72,0h0a.31.31,0,0,1,0,.62l-20,0Z" transform="translate(-10.28 -15.19)"/><path class="cls-11" d="M261.22,340a.36.36,0,0,1-.22-.09.31.31,0,0,1-.09-.22V328.47l-14.65,2.81a.28.28,0,0,1-.25-.06.3.3,0,0,1-.12-.24V319.8l-14.65,2.82a.33.33,0,0,1-.26-.07.3.3,0,0,1-.11-.23V310.75a.31.31,0,0,1,.62,0v11.19l14.65-2.82a.35.35,0,0,1,.26.07.3.3,0,0,1,.11.24v11.18l14.65-2.82a.32.32,0,0,1,.25.07.28.28,0,0,1,.11.23v11.26l19.72,0h0a.31.31,0,0,1,0,.62l-20,0Z" transform="translate(-10.28 -15.19)"/><path class="cls-11" d="M281.25,328.4a.31.31,0,0,1-.22-.09.29.29,0,0,1-.09-.22V316.9l-14.65,2.82a.3.3,0,0,1-.36-.3l0-11.19-14.65,2.82A.3.3,0,0,1,251,311a.32.32,0,0,1-.11-.24V299.18a.31.31,0,0,1,.62,0v11.2l14.65-2.82a.33.33,0,0,1,.26.06.32.32,0,0,1,.11.24v11.19l14.65-2.82a.28.28,0,0,1,.25.06.32.32,0,0,1,.11.24v11.26l19.72,0h0a.3.3,0,0,1,.31.3.31.31,0,0,1-.31.31l-20,0Z" transform="translate(-10.28 -15.19)"/></g></g><g id="Lamp"><path id="Shadow-2" data-name="Shadow" class="cls-2" d="M231.47,226.72c-6.18,3.56-6.18,9.35,0,12.92s16.2,3.57,22.38,0,6.18-9.36,0-12.92S237.66,223.15,231.47,226.72Z" transform="translate(-10.28 -15.19)"/><g id="Lamp-2" data-name="Lamp"><path class="cls-9" d="M234.91,226.87c-4.28,2.47-4.28,6.48,0,8.95a17.1,17.1,0,0,0,15.51,0c4.28-2.47,4.28-6.48,0-8.95A17.16,17.16,0,0,0,234.91,226.87Z" transform="translate(-10.28 -15.19)"/><path class="cls-13" d="M253.63,231.35h0c0-1.62-1.06-3.24-3.2-4.48a17.16,17.16,0,0,0-15.51,0c-2.14,1.24-3.2,2.86-3.2,4.48h0v1.51h0c0,1.6,1.1,3.19,3.21,4.41a17.1,17.1,0,0,0,15.51,0c2.11-1.22,3.19-2.81,3.21-4.41h0Z" transform="translate(-10.28 -15.19)"/><path class="cls-9" d="M234.91,226.87c-4.28,2.47-4.28,6.48,0,8.95a17.1,17.1,0,0,0,15.51,0c4.28-2.47,4.28-6.48,0-8.95A17.16,17.16,0,0,0,234.91,226.87Z" transform="translate(-10.28 -15.19)"/><path class="cls-10" d="M243.85,159.48h-2.36v71.16h0a.56.56,0,0,0,.33.54,1.82,1.82,0,0,0,1.67,0,.55.55,0,0,0,.34-.54h0Z" transform="translate(-10.28 -15.19)"/><path class="cls-18" d="M258.07,157.23h0l-3.79-18.16H231.05l-3.79,18.16h0c-1,2.9.38,6,4.27,8.27,6.15,3.55,16.11,3.55,22.25,0C257.68,163.25,259.1,160.13,258.07,157.23Z" transform="translate(-10.28 -15.19)"/><path class="cls-11" d="M234.41,144.53c4.56,2.63,12,2.63,16.51,0s4.56-6.9,0-9.54-11.95-2.63-16.51,0S229.85,141.89,234.41,144.53Z" transform="translate(-10.28 -15.19)"/><path class="cls-14" d="M242.67,144.84a14.54,14.54,0,0,1-7.15-1.69c-1.67-1-2.59-2.17-2.59-3.39s.92-2.43,2.59-3.39a16,16,0,0,1,14.3,0c1.67,1,2.59,2.17,2.59,3.39s-.92,2.43-2.59,3.39A14.56,14.56,0,0,1,242.67,144.84Z" transform="translate(-10.28 -15.19)"/></g></g><g id="Table"><g id="Table-2" data-name="Table"><g id="Table-3" data-name="Table"><path class="cls-10" d="M312,289.44a1.07,1.07,0,0,1,.63-.88,3.35,3.35,0,0,1,3,0,1.07,1.07,0,0,1,.62.87l-.62,12.35h0a.75.75,0,0,1-.44.6,2.35,2.35,0,0,1-2.13,0,.75.75,0,0,1-.44-.6h0Z" transform="translate(-10.28 -15.19)"/><path class="cls-13" d="M315.64,288.56a3.35,3.35,0,0,0-3,0,1.07,1.07,0,0,0-.63.88l.27,5.27a22.19,22.19,0,0,0,3.58,3l.42-8.26A1.07,1.07,0,0,0,315.64,288.56Z" transform="translate(-10.28 -15.19)"/><path class="cls-10" d="M365.9,289.44a1.07,1.07,0,0,0-.63-.88,3.35,3.35,0,0,0-3,0,1.07,1.07,0,0,0-.62.87l.62,12.35h0a.75.75,0,0,0,.44.6,2.35,2.35,0,0,0,2.13,0,.75.75,0,0,0,.44-.6h0Z" transform="translate(-10.28 -15.19)"/><path class="cls-13" d="M365.27,288.56a3.35,3.35,0,0,0-3,0,1.07,1.07,0,0,0-.62.87l.43,8.45a22.37,22.37,0,0,0,3.56-2.86l.28-5.58A1.07,1.07,0,0,0,365.27,288.56Z" transform="translate(-10.28 -15.19)"/><path class="cls-10" d="M341.23,298.88a1.07,1.07,0,0,0-.63-.87,3.35,3.35,0,0,0-3,0,1.05,1.05,0,0,0-.62.87l.62,12.34h0a.77.77,0,0,0,.44.6,2.31,2.31,0,0,0,2.14,0,.75.75,0,0,0,.44-.6h0Z" transform="translate(-10.28 -15.19)"/><path class="cls-13" d="M341,303.83l.25-4.95a1.07,1.07,0,0,0-.63-.87,3.35,3.35,0,0,0-3,0,1.05,1.05,0,0,0-.62.87l.25,4.95C338.46,303.88,339.72,303.88,341,303.83Z" transform="translate(-10.28 -15.19)"/><path class="cls-1" d="M369.71,281.72h0c0-4.53-3-9.05-8.94-12.5-12-6.9-31.34-6.9-43.3,0-6,3.45-8.94,8-8.93,12.5h0v2.43h0c.07,4.46,3.06,8.91,9,12.32,12,6.9,31.34,6.9,43.3,0,5.9-3.41,8.89-7.86,9-12.32h0Z" transform="translate(-10.28 -15.19)"/><path class="cls-1" d="M317.44,269.22c-11.95,6.9-11.95,18.09,0,25s31.34,6.9,43.3,0,11.95-18.1,0-25S329.4,262.32,317.44,269.22Z" transform="translate(-10.28 -15.19)"/><g class="cls-19"><path class="cls-5" d="M317.44,269.22c-11.95,6.9-11.95,18.09,0,25s31.34,6.9,43.3,0,11.95-18.1,0-25S329.4,262.32,317.44,269.22Z" transform="translate(-10.28 -15.19)"/></g></g><g id="Bookv"><polygon class="cls-10" points="331.99 271.84 320.75 278.3 305.13 269.29 316.38 262.82 331.99 271.84"/><path class="cls-18" d="M330.92,293.08l10.91-6.31a3.78,3.78,0,0,1,.05-2.37L331,290.65A8.67,8.67,0,0,0,330.92,293.08Z" transform="translate(-10.28 -15.19)"/><path class="cls-13" d="M331.49,289.9a1.94,1.94,0,0,0-.87,1.52v1.77c0,.56.39.79.87.51l10.78-6.23V287l-10.66,6.13c-.29.17-.52,0-.52-.31v-1.64a1.17,1.17,0,0,1,.52-.91l10.65-6.13v-.5Z" transform="translate(-10.28 -15.19)"/><path class="cls-10" d="M342.27,283.67l-15.62-9-10.77,6.23a1.93,1.93,0,0,0-.88,1.52v1.77a.63.63,0,0,0,.26.57l15.61,9a.61.61,0,0,1-.25-.57v-1.77a2,2,0,0,1,.88-1.52Z" transform="translate(-10.28 -15.19)"/><path class="cls-9" d="M330.87,290.56a1.75,1.75,0,0,0-.26.86v1.77a.61.61,0,0,0,.25.57l-15.61-9a.63.63,0,0,1-.26-.57v-1.77a1.82,1.82,0,0,1,.26-.87Z" transform="translate(-10.28 -15.19)"/></g><g id="Pot"><g class="cls-20"><path d="M352.83,273c2.68,1.55,2.68,4.06,0,5.6a10.72,10.72,0,0,1-9.71,0c-2.68-1.54-2.68-4.05,0-5.6A10.72,10.72,0,0,1,352.83,273Z" transform="translate(-10.28 -15.19)"/></g><path class="cls-12" d="M343.71,276.12c-2.34-2.39-3.71-8.34-1.43-10.22h11.59c2.27,1.88.9,7.83-1.43,10.21l-.06.07-.08.08-.22.19-.05,0a1.18,1.18,0,0,1-.18.13l-.3.2a7.67,7.67,0,0,1-6.95,0h0l-.3-.2-.16-.12-.07-.06-.21-.18-.09-.09Z" transform="translate(-10.28 -15.19)"/><path class="cls-11" d="M352.86,265.13c2.64,1.53,2.64,4,0,5.53a10.55,10.55,0,0,1-9.57,0c-2.65-1.52-2.65-4,0-5.53A10.61,10.61,0,0,1,352.86,265.13Z" transform="translate(-10.28 -15.19)"/><path class="cls-12" d="M351,266.22c1.6.93,1.6,2.43,0,3.36a6.44,6.44,0,0,1-5.83,0c-1.61-.93-1.61-2.43,0-3.36A6.44,6.44,0,0,1,351,266.22Z" transform="translate(-10.28 -15.19)"/><path class="cls-14" d="M345.16,267.81a6.44,6.44,0,0,1,5.83,0,2.69,2.69,0,0,1,1,.89,2.76,2.76,0,0,1-1,.88,6.44,6.44,0,0,1-5.83,0,2.67,2.67,0,0,1-1-.88A2.61,2.61,0,0,1,345.16,267.81Z" transform="translate(-10.28 -15.19)"/><path class="cls-1" d="M350.63,268.7a13.43,13.43,0,0,0,2.11-2.8c1-1.73,1.15-4,.65-4.31s-2.55,2-2.55,2a12.37,12.37,0,0,0,.21-2.94c-.08-1.53-.46-2.92-.9-3.2s-1.42,1.65-1.84,3.05-.67,2.55-.67,2.55a21.63,21.63,0,0,0-.76-3.22c-.51-1.46-1-1.78-1.33-1.64s-.59.82-.7,2.76a19.44,19.44,0,0,0,.09,2.77s-.73-.79-1.53-1.56-1.25-1-1.51-.8-.32,1.47,1.05,3.94a13.92,13.92,0,0,0,2.57,3.39S347.41,269.91,350.63,268.7Z" transform="translate(-10.28 -15.19)"/><g class="cls-6"><path d="M350.63,268.7a13.43,13.43,0,0,0,2.11-2.8c1-1.73,1.15-4,.65-4.31s-2.55,2-2.55,2a12.37,12.37,0,0,0,.21-2.94c-.08-1.53-.46-2.92-.9-3.2s-1.42,1.65-1.84,3.05-.67,2.55-.67,2.55a21.63,21.63,0,0,0-.76-3.22c-.51-1.46-1-1.78-1.33-1.64s-.59.82-.7,2.76a19.44,19.44,0,0,0,.09,2.77s-.73-.79-1.53-1.56-1.25-1-1.51-.8-.32,1.47,1.05,3.94a13.92,13.92,0,0,0,2.57,3.39S347.41,269.91,350.63,268.7Z" transform="translate(-10.28 -15.19)"/></g></g></g></g><g id="Characters"><path id="Shadow-3" data-name="Shadow" class="cls-2" d="M251.72,292.69c-5.92-3.42-14.31-4.58-21.88-3.45L247.52,279c1.64-.94,1.64-2.47,0-3.42l-44-25.42a6.5,6.5,0,0,0-5.92,0L103.41,304.5c-1.64.94-1.64,2.47,0,3.41l44.08,25.46a6.59,6.59,0,0,0,5.93,0l21.64-12.5c-3.08,4.28-1.62,9.39,4.41,12.87,8,4.59,20.88,4.59,28.86,0s8-12.07,0-16.67c-6-3.48-14.89-4.33-22.29-2.54l6.32-3.64c5.72,2.54,13.95,2.29,19.19-.75a9.69,9.69,0,0,0,3.14-2.7,16.18,16.18,0,0,0,4.69,3.94c8.92,5.15,23.42,5.15,32.34,0S260.66,297.86,251.72,292.69Z" transform="translate(-10.28 -15.19)"/><g id="Family_on_the_couch" data-name="Family on the couch"><g id="Couch"><path class="cls-10" d="M149.51,322.11h-6.24l1,6.09h0a1.16,1.16,0,0,0,.61.75,3.35,3.35,0,0,0,3,0,1.14,1.14,0,0,0,.6-.75h0Z" transform="translate(-10.28 -15.19)"/><path class="cls-10" d="M117.77,303.65h-6.24l1,6.09h0a1.14,1.14,0,0,0,.6.75,3.35,3.35,0,0,0,3,0,1.16,1.16,0,0,0,.61-.75h0Z" transform="translate(-10.28 -15.19)"/><path class="cls-13" d="M240,274.86h-6.24l1,6.08h0a1.14,1.14,0,0,0,.61.75,3.35,3.35,0,0,0,3,0,1.12,1.12,0,0,0,.6-.75h0Z" transform="translate(-10.28 -15.19)"/><path class="cls-13" d="M208.24,256.39H202l1,6.09h0a1.11,1.11,0,0,0,.6.75,3.35,3.35,0,0,0,3,0,1.16,1.16,0,0,0,.61-.75h0Z" transform="translate(-10.28 -15.19)"/><path class="cls-9" d="M245,242.88v29.05a6.71,6.71,0,0,1-3,5.24l-2.47,1.43,0,0a6.87,6.87,0,0,1-3.78.65l-75,41.59a6.76,6.76,0,0,1-3,5h0l-2.45,1.42a1.34,1.34,0,0,1-.24.12.67.67,0,0,1-.12.06l0,0a6.86,6.86,0,0,1-4.69.21,4.76,4.76,0,0,1-.53-.19s0,0-.08,0-.24-.12-.36-.18L109.72,304.6a6.72,6.72,0,0,1-3-5.24V250.63a6.73,6.73,0,0,1,3-5.24l86.81-50.14a6.65,6.65,0,0,1,6,0l2.46,1.41a8,8,0,0,1,3.49,5.22l2.38,17.83,31,17.92A6.73,6.73,0,0,1,245,242.88Z" transform="translate(-10.28 -15.19)"/><path class="cls-10" d="M205,196.67l-2.46-1.43a6.71,6.71,0,0,0-6,0l-86.81,50.15-.31.2a6.94,6.94,0,0,0-2.68,4.53c.22-1.54,1.48-2.1,3-1.24l2.47,1.43a6.71,6.71,0,0,0,6,0L205,200.16C206.7,199.2,206.7,197.63,205,196.67Z" transform="translate(-10.28 -15.19)"/><path class="cls-13" d="M245,242.88v29.05a6.71,6.71,0,0,1-3,5.24l-2.47,1.43,0,0a6.46,6.46,0,0,1-3.54.67,6,6,0,0,1-2.47-.69l-28-16.18a6.69,6.69,0,0,1-3-5.24V228.13a6.66,6.66,0,0,1,3-5.24l5.49-3.18,31,17.92A6.73,6.73,0,0,1,245,242.88Z" transform="translate(-10.28 -15.19)"/><path class="cls-10" d="M210.9,219.72l-5.49,3.16c-1.67,1-1.67,2.54,0,3.5l28,16.17a6.7,6.7,0,0,1,3,5.24v29.06c0,1.92,1.36,2.71,3,1.75l2.46-1.43a6.7,6.7,0,0,0,3-5.24V242.87a6.72,6.72,0,0,0-3-5.24Z" transform="translate(-10.28 -15.19)"/><path class="cls-9" d="M236.44,247.79v29.06c0,1.92,1.36,2.71,3,1.75l2.46-1.43a6.72,6.72,0,0,0,3-5.24V242.87a6.27,6.27,0,0,0-.88-3l-8.52,4.92A6.18,6.18,0,0,1,236.44,247.79Z" transform="translate(-10.28 -15.19)"/><path class="cls-13" d="M235.18,279.29a7.1,7.1,0,0,1-1.1,1.67,13.6,13.6,0,0,1-2.85,2c-10.64,6.14-56.32,32.55-67,38.69a3.35,3.35,0,0,1-3,0L151.4,316,131.72,304.6a5.68,5.68,0,0,1,0-10.05l11.16-6.45,8.52-4.91,47.26-27.32a6.71,6.71,0,0,1,6.05,0l28,16.18a6.48,6.48,0,0,1,3,5A5.35,5.35,0,0,1,235.18,279.29Z" transform="translate(-10.28 -15.19)"/><path class="cls-9" d="M164.27,315.09l70-40.43c.83-.48,1.51-.09,1.51.87v3.07a3.37,3.37,0,0,1-1.51,2.62l-70,40.42c-.83.48-1.51.09-1.51-.87v-3.06A3.33,3.33,0,0,1,164.27,315.09Z" transform="translate(-10.28 -15.19)"/><path class="cls-9" d="M198.66,240.88l-66.94,38.68a6.7,6.7,0,0,0-3,5.24v6.12a6.72,6.72,0,0,0,3,5.25l28,16.16a6.65,6.65,0,0,0,6.05,0l66.94-38.67a6.69,6.69,0,0,0,3-5.24v-6.13a6.71,6.71,0,0,0-3-5.24l-28-16.17A6.71,6.71,0,0,0,198.66,240.88Z" transform="translate(-10.28 -15.19)"/><path class="cls-13" d="M162.75,300v13.11a6.08,6.08,0,0,1-3-.73l-28-16.16a6.72,6.72,0,0,1-3-5.24v-6.12a6.79,6.79,0,0,1,2.72-5.05c-1.35,1-1.25,2.4.31,3.3l28,16.17A6.21,6.21,0,0,0,162.75,300Z" transform="translate(-10.28 -15.19)"/><path class="cls-10" d="M165.78,299.23l66.94-38.68c1.67-1,1.67-2.53,0-3.5l-28-16.17a6.71,6.71,0,0,0-6.05,0l-66.94,38.68c-1.67,1-1.67,2.53,0,3.5l28,16.17A6.71,6.71,0,0,0,165.78,299.23Z" transform="translate(-10.28 -15.19)"/></g><g id="Character"><path class="cls-21" d="M225,292.23s1.21,6.59,2.41,8.67a33.35,33.35,0,0,0,4.71,6.54c.44.47,1.45,1.34,1.81,1.72a.77.77,0,0,1,0,1.18c-.83.86-4.49,1.21-6.6-.24s-3.94-3.9-5.22-5.09c-.64-.59-1.24-1.16-1.68-1.58a1.69,1.69,0,0,1-.48-1.57q.06-.24.12-.57c.39-2-1.1-7.55-1.1-7.55C220.62,291.23,222.78,291.93,225,292.23Z" transform="translate(-10.28 -15.19)"/><path class="cls-13" d="M219.82,303.81a2.15,2.15,0,0,0,.15,1.07,6.88,6.88,0,0,0,2.37,1.61,4.41,4.41,0,0,1,2,1.87,9.36,9.36,0,0,0,3.93,3.6,11.68,11.68,0,0,0,6.91.41c2.86-.65,3-2.35,3-2.35s.08-1.61-.65-1.83S219.82,303.81,219.82,303.81Z" transform="translate(-10.28 -15.19)"/><path class="cls-9" d="M219.34,301.86a4.53,4.53,0,0,0,.48,1.95c.9,1.14,2.92,1.43,4.15,3s2.71,4,6.51,4.54,6.61-.74,7.26-1.85,0-2.08-2.51-3.28-5.83-4.83-5.83-4.83a16.07,16.07,0,0,1-2.21-4.35c-.06-.14-.16-.31-.31-.3s-.26.23-.35.4a1.22,1.22,0,0,1-.7.49c-.32.13-.65.24-1,.34a9.35,9.35,0,0,1-2,.34.81.81,0,0,0-.63.21.77.77,0,0,0-.1.58,6.58,6.58,0,0,0,.14.75.78.78,0,0,1,0,.37.47.47,0,0,1-.42.31,1,1,0,0,1-.52-.14A2.27,2.27,0,0,1,220,298.9s0-.38-.1-.73a1,1,0,0,0-.44.57c-.06.3,0,.6,0,.9A15,15,0,0,0,219.34,301.86Z" transform="translate(-10.28 -15.19)"/><path class="cls-13" d="M219.82,303.81a2.15,2.15,0,0,0,.15,1.07,6.88,6.88,0,0,0,2.37,1.61,4.41,4.41,0,0,1,2,1.87,9.36,9.36,0,0,0,3.93,3.6,11.68,11.68,0,0,0,6.91.41c2.86-.65,3-2.35,3-2.35s.08-1.61-.65-1.83S219.82,303.81,219.82,303.81Z" transform="translate(-10.28 -15.19)"/><path class="cls-9" d="M219.34,301.86a4.53,4.53,0,0,0,.48,1.95c.9,1.14,2.92,1.43,4.15,3s2.71,4,6.51,4.54,6.61-.74,7.26-1.85,0-2.08-2.51-3.28-5.83-4.83-5.83-4.83a16.07,16.07,0,0,1-2.21-4.35c-.06-.14-.16-.31-.31-.3s-.26.23-.35.4a1.22,1.22,0,0,1-.7.49c-.32.13-.65.24-1,.34a9.35,9.35,0,0,1-2,.34.81.81,0,0,0-.63.21.77.77,0,0,0-.1.58,6.58,6.58,0,0,0,.14.75.78.78,0,0,1,0,.37.47.47,0,0,1-.42.31,1,1,0,0,1-.52-.14A2.27,2.27,0,0,1,220,298.9s0-.38-.1-.73a1,1,0,0,0-.44.57c-.06.3,0,.6,0,.9A15,15,0,0,0,219.34,301.86Z" transform="translate(-10.28 -15.19)"/><path class="cls-13" d="M220.7,300a3.48,3.48,0,0,0,.62.4,1,1,0,0,0,.52.14.47.47,0,0,0,.42-.31.78.78,0,0,0,0-.37c.53,1.63,2.4,3.84,2.25,4s-3.15-3-3.77-3.86Z" transform="translate(-10.28 -15.19)"/><path class="cls-21" d="M238.3,284.46s1.38,6.8,2.49,8.93a33.17,33.17,0,0,0,4.41,6.74c.42.49,1.39,1.4,1.73,1.8a.76.76,0,0,1-.08,1.18c-.87.82-4.53,1-6.59-.53s-3.75-4.08-5-5.32l-1.6-1.66a1.62,1.62,0,0,1-.41-1.58c0-.16.09-.35.14-.57.48-2-1.75-7.14-1.75-7.14C233.43,283.87,236.08,284.05,238.3,284.46Z" transform="translate(-10.28 -15.19)"/><path class="cls-13" d="M233.09,296.41a2.09,2.09,0,0,0,.16,1.07,6.61,6.61,0,0,0,2.37,1.61,4.57,4.57,0,0,1,2,1.87,9.21,9.21,0,0,0,3.93,3.61,11.68,11.68,0,0,0,6.91.4c2.86-.64,3-2.35,3-2.35s.08-1.6-.64-1.82S233.09,296.41,233.09,296.41Z" transform="translate(-10.28 -15.19)"/><path class="cls-9" d="M232.61,294.46a4.83,4.83,0,0,0,.48,2c.9,1.14,2.92,1.44,4.15,3s2.71,4,6.52,4.54,6.61-.74,7.26-1.84,0-2.09-2.51-3.29c-2.63-1.27-5.84-4.83-5.84-4.83a16,16,0,0,1-2.2-4.35c-.06-.14-.16-.3-.31-.3s-.26.24-.35.4a1.25,1.25,0,0,1-.7.49c-.32.13-.65.24-1,.34a8.79,8.79,0,0,1-2,.34.81.81,0,0,0-.63.21.73.73,0,0,0-.1.58,6.58,6.58,0,0,0,.14.75.67.67,0,0,1,0,.37.44.44,0,0,1-.41.31.94.94,0,0,1-.53-.14,2.2,2.2,0,0,1-1.25-1.48,6.62,6.62,0,0,0-.16-.72.91.91,0,0,0-.43.57,8.85,8.85,0,0,0-.05.89A16.55,16.55,0,0,0,232.61,294.46Z" transform="translate(-10.28 -15.19)"/><path class="cls-13" d="M235.65,294.86a10.64,10.64,0,0,1-1.65-2.28h0a2.45,2.45,0,0,0,.59.4.94.94,0,0,0,.53.14.44.44,0,0,0,.41-.31.67.67,0,0,0,0-.37,13.54,13.54,0,0,0,2.35,3.81C238.54,297,236.88,296.23,235.65,294.86Z" transform="translate(-10.28 -15.19)"/><path class="cls-1" d="M187.1,247.56l9.77-2.19L209.94,242s20.67,11.39,23.52,16.37c1.64,2.88,4.77,24.59,5.33,28-1.15,1.1-5.13,1.6-6.67,1.48-1.2-2.61-1.88-3.75-3.57-7.61-1.37-3.15-2-4.33-2.82-6.57a32.7,32.7,0,0,1-1.51-8.38l-8.58-4.62c5.32,4.22,5.65,5.34,6.22,6.35,1.62,2.89,3.43,24,3.72,27.05-.87,1.37-5.43,2.09-6.69,1.4-1.87-4.78-3.13-7.05-4.64-11-2.4-6.26-1.3-10-2-11.35,0,0-4.44-2.64-11.34-6.67-3.45-2-6.4-3.72-8.33-5.56C189.05,257.54,187.92,251.9,187.1,247.56Z" transform="translate(-10.28 -15.19)"/><path class="cls-22" d="M187.1,247.56l9.77-2.19L209.94,242s20.67,11.39,23.52,16.37c1.64,2.88,4.77,24.59,5.33,28-1.15,1.1-5.13,1.6-6.67,1.48-1.2-2.61-1.88-3.75-3.57-7.61-1.37-3.15-2-4.33-2.82-6.57a32.7,32.7,0,0,1-1.51-8.38l-8.58-4.62c5.32,4.22,5.65,5.34,6.22,6.35,1.62,2.89,3.43,24,3.72,27.05-.87,1.37-5.43,2.09-6.69,1.4-1.87-4.78-3.13-7.05-4.64-11-2.4-6.26-1.3-10-2-11.35,0,0-4.44-2.64-11.34-6.67-3.45-2-6.4-3.72-8.33-5.56C189.05,257.54,187.92,251.9,187.1,247.56Z" transform="translate(-10.28 -15.19)"/><path class="cls-2" d="M215.64,260.67l-8.39-6.3A11.69,11.69,0,0,0,210.6,247a13.83,13.83,0,0,1-1.31,7.41l6.68,5.15,8.25,5.72Z" transform="translate(-10.28 -15.19)"/><path class="cls-21" d="M220.39,234.05s-5.41-7.4-8.72-12c-4.1-5.66-5.88-5.89-9-5.58l3.3,13s9.17,9.94,10.86,11.39,3.46,1.87,6.11-.27,8.68-7.66,10.35-9.28,4-3.16,5.27-4.74c1.77-2.18,1.11-6.5-.81-6.64-1.13-.09-1.81,1-2.61,1.77-1,1-2.07,2-2.87,2.76a7.94,7.94,0,0,1,.4-1.85,2.49,2.49,0,0,0,.07-1.21c-.07-.27-.42-.87-.79-.78s-.62.87-.77,1.1a16.74,16.74,0,0,0-1.32,2.47,5.78,5.78,0,0,0-.48,1.6,5.62,5.62,0,0,1-.64,2.19C227.11,230,220.39,234.05,220.39,234.05Z" transform="translate(-10.28 -15.19)"/><path class="cls-1" d="M202.22,216.51c2-.35,3.8-.42,5.52,1s4.3,4.31,7.9,9.83c0,0-.85,3.81-6.71,6.19l-5.25-5.94Z" transform="translate(-10.28 -15.19)"/><path class="cls-11" d="M191.81,217l-4.68,1s-.33,11.44-2.38,12.44c-.26,10.71,3.11,22.57,3.11,22.57s5.81,1.56,14.18-1.37a14.65,14.65,0,0,0,9.14-9.06,29.44,29.44,0,0,1-2.91-4.9c-1.14-3.79-1-10.57-1.34-13.15-.88-5.94-4.3-8-4.3-8h-4.78Z" transform="translate(-10.28 -15.19)"/><path class="cls-21" d="M187.09,218.66c-4.79.72-5.58,3.46-6.31,7.93-.63,3.91-1.63,12.46-2.9,17.46h0c-.66,3.47-1.56,9-2.57,11.1a2.37,2.37,0,0,1-1.23,1.12,18.55,18.55,0,0,0-3.72,2.64c-.9.66-1.61.77-1.54,1a1.34,1.34,0,0,0,1.6.73,10.2,10.2,0,0,0,2.05-.72,11.4,11.4,0,0,1-2.39,2.82c-2.19,1.89-2,3.42,1.77,3.89,2.39.29,4.49-.83,7-5.4a53.67,53.67,0,0,0,2.34-5c1.68-4.13,2.51-6.44,3.51-9.23,1.25-3.48,1.72-4.33,2.07-6.88.47-3.1.92-7.16,1.42-9.17C189.53,225.42,188.6,219.75,187.09,218.66Z" transform="translate(-10.28 -15.19)"/><path class="cls-1" d="M187.13,218c-2.39.27-4.46.83-6,3.41s-3,13.63-3,13.63a12.13,12.13,0,0,0,8.6,2.45l2.09-9.91S190.47,220.66,187.13,218Z" transform="translate(-10.28 -15.19)"/><path class="cls-13" d="M188.66,199.31A1.68,1.68,0,0,1,191,199a1.3,1.3,0,0,1,.27.39l.12.27a7,7,0,0,1,.15,2.24c0,.66.06,1.31.1,2,0,.84.09,1.68.13,2.52l.52,0,.07,3.57-.05,3-.29,0a2.49,2.49,0,0,1-1.58-1.43c-.45-.89-1-1.72-1.44-2.64a21.5,21.5,0,0,1-1.08-2.9,9.29,9.29,0,0,1-.45-3.94,4.62,4.62,0,0,1,1.2-2.57Z" transform="translate(-10.28 -15.19)"/><path class="cls-13" d="M206.78,198.54a.25.25,0,0,1,.12,0c.06,0,.09.06.12.1a3.51,3.51,0,0,1,.71,2.12,3.33,3.33,0,0,1-.38,1.67,2.28,2.28,0,0,1-1.31,1.07.86.86,0,0,1-.5,0,1,1,0,0,1-.47-.32,4.75,4.75,0,0,1-.58-.83,2.32,2.32,0,0,1-.44-1.67.52.52,0,0,1,.12-.26,1.21,1.21,0,0,1,.22-.15,9.58,9.58,0,0,0,.92-.65c.27-.18.54-.38.81-.58S206.49,198.63,206.78,198.54Z" transform="translate(-10.28 -15.19)"/><path class="cls-21" d="M192.35,206.91c-.39.21-.91-.54-1.36-1a1.65,1.65,0,0,0-2.78.34c-.85,1.61.33,3.76,1.42,4.4s2.23-.44,2.23-.44l-.28,7.31a8.06,8.06,0,0,0,5.46,2.78c2.56.27,3.1-1.26,2-2.8l.08-2.29a13.23,13.23,0,0,0,2.49.26c1.66-.09,2.65-.68,3.53-3.24.82-2.38,1.23-4.51,1-10-.24-5.77-7.5-5.82-11.19-3.69S192.35,206.91,192.35,206.91Z" transform="translate(-10.28 -15.19)"/><path class="cls-13" d="M192.32,207.55c-.19,0-.87-1.24-1.33-1.69a1.28,1.28,0,0,1-.2-.81c0-.83.15-1.64.05-2.47a10.08,10.08,0,0,0-.78-2.26,4.29,4.29,0,0,1-.28-2.47,3.69,3.69,0,0,1,1.59-2.17,6.87,6.87,0,0,1,2.56-1,45.21,45.21,0,0,1,5.94-.34,10,10,0,0,0,5.62-1.68c.12-.09.28-.19.42-.12a.43.43,0,0,1,.11.12c.53.79.06,1.85.11,2.81a2.77,2.77,0,0,0,2-.44,1.9,1.9,0,0,1,.38,1.84,5.94,5.94,0,0,1-1.39,2.95,2.65,2.65,0,0,1-2.88.33.35.35,0,0,0-.17,0,.38.38,0,0,0-.23.16,3.93,3.93,0,0,1-3.43,1c-1.23-.13-2.41-.59-3.63-.81a3.14,3.14,0,0,0-1.43,0c-.57.16-.76.52-1.07,1a3.73,3.73,0,0,0-.4.7,4.24,4.24,0,0,0-.19.8C193.55,203.61,193.34,207.57,192.32,207.55Z" transform="translate(-10.28 -15.19)"/><path class="cls-23" d="M199.07,215.16a26.28,26.28,0,0,1-4.56-1.5,3.86,3.86,0,0,1-1.58-1.69,5.31,5.31,0,0,0,.86,2c.83,1.15,5.25,2.14,5.25,2.14Z" transform="translate(-10.28 -15.19)"/><path class="cls-13" d="M198.64,206.14a.68.68,0,1,1-.65-.74A.7.7,0,0,1,198.64,206.14Z" transform="translate(-10.28 -15.19)"/><path class="cls-13" d="M197.69,203.41l-1.49.76a.89.89,0,0,1,.38-1.16A.83.83,0,0,1,197.69,203.41Z" transform="translate(-10.28 -15.19)"/><path class="cls-23" d="M198.14,210.58l2.22.9a1.18,1.18,0,0,1-1.54.71A1.26,1.26,0,0,1,198.14,210.58Z" transform="translate(-10.28 -15.19)"/><path class="cls-13" d="M205.07,204.09,203.78,203a.81.81,0,0,1,1.17-.13A.89.89,0,0,1,205.07,204.09Z" transform="translate(-10.28 -15.19)"/><path class="cls-13" d="M204.52,206.31a.69.69,0,1,1-1.37-.05.69.69,0,0,1,.71-.68A.7.7,0,0,1,204.52,206.31Z" transform="translate(-10.28 -15.19)"/><polygon class="cls-23" points="190.52 190.57 190.59 194.69 193.11 193.94 190.52 190.57"/></g><g id="Character-2" data-name="Character"><path class="cls-21" d="M154.3,242a7.09,7.09,0,0,1,6.31,2.51c1.92,2,10.66,10.63,10.66,10.63l-3.08,6.58-13-10.1Z" transform="translate(-10.28 -15.19)"/><path d="M187.42,236.23a2.3,2.3,0,0,1,.27.89,2.54,2.54,0,0,1,0,.87.9.9,0,0,1,.55.19,1.88,1.88,0,0,1,.58.73,1.86,1.86,0,0,1,.06,1.39,1.83,1.83,0,0,1,.91,1.21,2.12,2.12,0,0,1-.6,1.93,1.82,1.82,0,0,1-.27,2.77.9.9,0,0,0-.34.3c-.12.24,0,.51.12.78a1.59,1.59,0,0,1-.45,1.29,6.75,6.75,0,0,0-.91,1.09,1.07,1.07,0,0,0,.12,1.3,2.53,2.53,0,0,1,.17-4.42,3.89,3.89,0,0,1-.56-1.37,1.28,1.28,0,0,1,.57-1.29,2.08,2.08,0,0,1-1.11-1.18,2.41,2.41,0,0,1-.1-1.5,1.41,1.41,0,0,1-.95-1.69,2.08,2.08,0,0,1-.63-2.82c.11-.17.19-.35.3-.51a2.94,2.94,0,0,1,.66-.61,1,1,0,0,1,.54-.25.83.83,0,0,1,.57.27A2.32,2.32,0,0,1,187.42,236.23Z" transform="translate(-10.28 -15.19)"/><path class="cls-24" d="M191.7,244.25c1.59,2.32,5.67,9.21,5.67,9.21l3.79-5.57,3.64-.4s-3.28,9.92-5.76,12.27a2.42,2.42,0,0,1-3.35.05,25.12,25.12,0,0,1-2.83-3,30.7,30.7,0,0,0-4.13-4.14l-3.19-11.07C187.12,241.56,189.64,241.22,191.7,244.25Z" transform="translate(-10.28 -15.19)"/><path class="cls-21" d="M197.37,253.46a7,7,0,0,0-1.68,2.49,4.3,4.3,0,0,1,1.35-3.06Z" transform="translate(-10.28 -15.19)"/><path class="cls-1" d="M205.17,240.59h0l-.38-.33h0a.42.42,0,0,0-.39,0l-4.13,1.17a1.52,1.52,0,0,0-.92.87l-2.89,8.61a.43.43,0,0,0,.06.44h0l.4.34h0a.41.41,0,0,0,.39,0l4.13-1.16a1.54,1.54,0,0,0,.92-.88c.56-1.69,2.32-6.92,2.88-8.61A.36.36,0,0,0,205.17,240.59Z" transform="translate(-10.28 -15.19)"/><path class="cls-25" d="M205.17,240.59h0l-.38-.33h0a.42.42,0,0,0-.39,0l-4.13,1.17a1.52,1.52,0,0,0-.92.87l-2.89,8.61a.43.43,0,0,0,.06.44h0l.4.34h0a.41.41,0,0,0,.39,0l4.13-1.16a1.54,1.54,0,0,0,.92-.88c.56-1.69,2.32-6.92,2.88-8.61A.36.36,0,0,0,205.17,240.59Z" transform="translate(-10.28 -15.19)"/><path class="cls-1" d="M196.85,251.21l2.89-8.61a1.54,1.54,0,0,1,.92-.88l4.12-1.16c.38-.11.59.11.46.48-.56,1.69-2.32,6.92-2.88,8.61a1.54,1.54,0,0,1-.92.88l-4.13,1.16C196.93,251.8,196.72,251.58,196.85,251.21Z" transform="translate(-10.28 -15.19)"/><path class="cls-26" d="M196.85,251.21l2.89-8.61a1.54,1.54,0,0,1,.92-.88l4.12-1.16c.38-.11.59.11.46.48-.56,1.69-2.32,6.92-2.88,8.61a1.54,1.54,0,0,1-.92.88l-4.13,1.16C196.93,251.8,196.72,251.58,196.85,251.21Z" transform="translate(-10.28 -15.19)"/><path class="cls-1" d="M200.21,242a1.59,1.59,0,0,0-.47.64l-2.89,8.61a.44.44,0,0,0,0,.43l-.37-.32h0a.4.4,0,0,1-.07-.44l2.89-8.61a1.46,1.46,0,0,1,.44-.6Z" transform="translate(-10.28 -15.19)"/><path class="cls-22" d="M200.21,242a1.59,1.59,0,0,0-.47.64l-2.89,8.61a.44.44,0,0,0,0,.43l-.37-.32h0a.4.4,0,0,1-.07-.44l2.89-8.61a1.46,1.46,0,0,1,.44-.6Z" transform="translate(-10.28 -15.19)"/><path class="cls-24" d="M204.05,248.92c1.52-2.18,1.21-4.67.33-5.31l-.4,1.21a19.54,19.54,0,0,1-3.89.92c-1.28,0-2.36-.15-2.69.13-.68.61-.65,2.86,1.56,3.43C200.84,249.8,204.05,248.92,204.05,248.92Z" transform="translate(-10.28 -15.19)"/><path class="cls-24" d="M189.84,262.53s8.49,4.91,11.91,6.77,5,3,4.53,8.85-1.81,14.42-1.81,14.42c-1.6,1.74-3.68,4.2-4.4,1.13l-.13-.41a4.47,4.47,0,0,0,.23-1l0-.43c.07-2.92-2.67-11.13-1.44-13.72l-10.47-4.75Z" transform="translate(-10.28 -15.19)"/><path class="cls-1" d="M198.45,278.17,187,273.53l-6.64-7.2,9.47-4,13.21,7.49c2.53,1.69,3.52,2.17,3.46,5.82a81,81,0,0,1-.87,8.88s-3.6,2.26-6.66.7a37.17,37.17,0,0,1-.66-3.8A16.08,16.08,0,0,1,198.45,278.17Z" transform="translate(-10.28 -15.19)"/><path class="cls-27" d="M198.45,278.17,187,273.53l-6.64-7.2,9.47-4,13.21,7.49c2.53,1.69,3.52,2.17,3.46,5.82a81,81,0,0,1-.87,8.88s-3.6,2.26-6.66.7a37.17,37.17,0,0,1-.66-3.8A16.08,16.08,0,0,1,198.45,278.17Z" transform="translate(-10.28 -15.19)"/><path class="cls-27" d="M199.26,277.78c-.19-1.58-.82-2.54-2.73-3.76l-7.47-4.82s1.09-2.65.46-4.05l-4.45,5.71,2.92,3.07,10.46,4.24a16.08,16.08,0,0,0-.13,3.26c.1.91.27,1.87.41,2.6A59.78,59.78,0,0,0,199.26,277.78Z" transform="translate(-10.28 -15.19)"/><path class="cls-9" d="M211.92,299.38a1.61,1.61,0,0,1-.1,1c-.24.35-1.15,1.29-3.67,1.38a5.77,5.77,0,0,1-4.48-1.59c-.54-.61-1-1.21-1.57-1.7a4.1,4.1,0,0,0-1.73-.78c-.49-.12-.64-.28-.64-1S211.92,299.38,211.92,299.38Z" transform="translate(-10.28 -15.19)"/><path class="cls-1" d="M200.15,291.87c0,.14,0,.29,0,.43s-.15,1,.51,1.14.69-.34,1.23-.84c1.18-1.09,2.71-1.12,3.14-.3a17.29,17.29,0,0,0,3.08,3.56,15,15,0,0,0,1.69,1.19c.64.38,2.18,1.06,2.1,2s-.93,1.56-2.13,1.85a7.2,7.2,0,0,1-4.83-.59,15.13,15.13,0,0,1-2.7-2.36c-.81-.69-2-.76-2.46-1.11a3.12,3.12,0,0,1-.43-2.15c.09-.86.44-1.61.44-2S199.85,291.93,200.15,291.87Z" transform="translate(-10.28 -15.19)"/><path class="cls-22" d="M200.15,291.87c0,.14,0,.29,0,.43s-.15,1,.51,1.14.69-.34,1.23-.84c1.18-1.09,2.71-1.12,3.14-.3a17.29,17.29,0,0,0,3.08,3.56,15,15,0,0,0,1.69,1.19c.64.38,2.18,1.06,2.1,2s-.93,1.56-2.13,1.85a7.2,7.2,0,0,1-4.83-.59,15.13,15.13,0,0,1-2.7-2.36c-.81-.69-2-.76-2.46-1.11a3.12,3.12,0,0,1-.43-2.15c.09-.86.44-1.61.44-2S199.85,291.93,200.15,291.87Z" transform="translate(-10.28 -15.19)"/><path class="cls-15" d="M208,297.12a3.19,3.19,0,0,1,1.62-.23.88.88,0,0,1,.45.14c.64.39,2,1,2,2s-.9,1.61-2.1,1.9a6.69,6.69,0,0,1-4.52-.42A3.85,3.85,0,0,1,208,297.12Z" transform="translate(-10.28 -15.19)"/><path class="cls-24" d="M182.64,267.6s7.82,4.13,11.24,6,5,3,4.53,8.86-1.81,14.42-1.81,14.42c-1.6,1.73-3.68,4.2-4.4,1.13l-.13-.41a4.08,4.08,0,0,0,.23-1l0-.43c.07-2.93-2.67-11.13-1.43-13.72l-15.94-8.31Z" transform="translate(-10.28 -15.19)"/><path class="cls-1" d="M190.58,282.47s-9.64-4.93-14.25-7.13c-5.31-2.55-5.72-6-5.1-11l18.61-1.81c-.34,1.66,0,4.06-2.16,7l7.5,4.62c2.53,1.69,3.52,2.17,3.46,5.83a81,81,0,0,1-.87,8.88s-3.6,2.26-6.66.7a37.77,37.77,0,0,1-.66-3.8A16.92,16.92,0,0,1,190.58,282.47Z" transform="translate(-10.28 -15.19)"/><path class="cls-27" d="M190.58,282.47s-9.64-4.93-14.25-7.13c-5.31-2.55-5.72-5.88-5.1-11l18.61-1.81c-.34,1.66,0,4.06-2.16,7l7.5,4.62c2.53,1.69,3.52,2.17,3.46,5.83a81,81,0,0,1-.87,8.88s-3.6,2.26-6.66.7a37.77,37.77,0,0,1-.66-3.8A16.92,16.92,0,0,1,190.58,282.47Z" transform="translate(-10.28 -15.19)"/><path class="cls-9" d="M204.05,303.68a1.69,1.69,0,0,1-.09,1c-.25.35-1.16,1.29-3.68,1.38a5.81,5.81,0,0,1-4.48-1.59c-.54-.61-1-1.21-1.57-1.7a4.2,4.2,0,0,0-1.73-.79c-.49-.11-.63-.28-.64-1S204.05,303.68,204.05,303.68Z" transform="translate(-10.28 -15.19)"/><path class="cls-1" d="M192.28,296.17c0,.14,0,.28,0,.43,0,0-.15.95.51,1.13s.69-.34,1.23-.84c1.18-1.08,2.71-1.11,3.14-.3a16.8,16.8,0,0,0,3.09,3.56,12.56,12.56,0,0,0,1.69,1.2c.64.38,2.17,1,2.1,2s-.94,1.55-2.14,1.85a7.26,7.26,0,0,1-4.83-.59,15,15,0,0,1-2.69-2.36c-.82-.69-2.05-.76-2.47-1.11a3.14,3.14,0,0,1-.43-2.15c.09-.87.45-1.61.44-2S192,296.23,192.28,296.17Z" transform="translate(-10.28 -15.19)"/><path class="cls-22" d="M192.28,296.17c0,.14,0,.28,0,.43,0,0-.15.95.51,1.13s.69-.34,1.23-.84c1.18-1.08,2.71-1.11,3.14-.3a16.8,16.8,0,0,0,3.09,3.56,12.56,12.56,0,0,0,1.69,1.2c.64.38,2.17,1,2.1,2s-.94,1.55-2.14,1.85a7.26,7.26,0,0,1-4.83-.59,15,15,0,0,1-2.69-2.36c-.82-.69-2.05-.76-2.47-1.11a3.14,3.14,0,0,1-.43-2.15c.09-.87.45-1.61.44-2S192,296.23,192.28,296.17Z" transform="translate(-10.28 -15.19)"/><path class="cls-15" d="M200.08,301.41a3.43,3.43,0,0,1,1.62-.23.89.89,0,0,1,.45.15c.64.38,2,1,2,2s-.89,1.61-2.1,1.9a6.69,6.69,0,0,1-4.52-.42A3.9,3.9,0,0,1,200.08,301.41Z" transform="translate(-10.28 -15.19)"/><path class="cls-1" d="M174.63,242.5c-1.61.25-2.4,1.51-2.78,3.1A10.32,10.32,0,0,0,172,249c.2,1.68,1.12,9,1.12,9l-2.26,8.06c10.45,2.66,18.22-1.45,19.34-3.68a19.34,19.34,0,0,0-1.42-2.06,56.69,56.69,0,0,0,.5-12.41c-.51-3.86-1.59-5.94-3.31-6.36a7.66,7.66,0,0,0-1.49-.06l-6.29.23Z" transform="translate(-10.28 -15.19)"/><path d="M177.74,239.66c-1.08-1.69-4.17-3.44-4.9-6.49-1.1-4.61,1.65-6.93,3-7.11a6.09,6.09,0,0,1,3.44-3.43,8.45,8.45,0,0,1,7.65.61,7,7,0,0,1,2.84,3,7,7,0,0,1,.4,4.58,4.62,4.62,0,0,1-2,2.42,10.66,10.66,0,0,1-2.95,1.18c-.64.17-1.29.31-1.93.49a4.27,4.27,0,0,0-1,.3,3.35,3.35,0,0,0-.57.5l-3.24,2.85C178.27,238.74,178,239.44,177.74,239.66Z" transform="translate(-10.28 -15.19)"/><path class="cls-24" d="M177.33,233.35a.27.27,0,0,1-.08.07c-.46.27-.8-.75-1-1a1.63,1.63,0,0,0-.76-.47,1.24,1.24,0,0,0-1.43.52,2.31,2.31,0,0,0,1.19,3.19c1.5.51,1.91-.51,1.91-.51l.12,6.95a5.69,5.69,0,0,0,4.22,3.32c3.12.48,3-2.06,2-3.35l.14-1.85A7.64,7.64,0,0,0,186,240a3.54,3.54,0,0,0,2.44-2.34,10.14,10.14,0,0,0,.48-1.3,11.81,11.81,0,0,0,.35-3.4c0-.75-.07-1.5-.15-2.24a1.74,1.74,0,0,0-.27-1.06,1.68,1.68,0,0,0-.85-.5,4.55,4.55,0,0,0-1.28-.09,20.61,20.61,0,0,1-3.66.25,6.13,6.13,0,0,1-2.88-1.27,6.13,6.13,0,0,1-.63,2.35,2.7,2.7,0,0,1-1.9,1.3,2.73,2.73,0,0,1-.07,1.27A.77.77,0,0,1,177.33,233.35Z" transform="translate(-10.28 -15.19)"/><path class="cls-13" d="M182.82,232.91a.66.66,0,1,1-.64-.69A.67.67,0,0,1,182.82,232.91Z" transform="translate(-10.28 -15.19)"/><path class="cls-13" d="M182,230.92l-1.4.74a.84.84,0,0,1,.34-1.1A.78.78,0,0,1,182,230.92Z" transform="translate(-10.28 -15.19)"/><path class="cls-23" d="M182.43,236.3l2.44,1a1.29,1.29,0,0,1-1.69.78A1.37,1.37,0,0,1,182.43,236.3Z" transform="translate(-10.28 -15.19)"/><path class="cls-21" d="M182.38,237.09a1.06,1.06,0,0,1,.56-.1,1.09,1.09,0,0,1,1,1.12,1.26,1.26,0,0,1-.74-.06A1.32,1.32,0,0,1,182.38,237.09Z" transform="translate(-10.28 -15.19)"/><path class="cls-13" d="M188.68,231l-1.49-.58a.77.77,0,0,1,1-.47A.83.83,0,0,1,188.68,231Z" transform="translate(-10.28 -15.19)"/><path class="cls-13" d="M188.26,233a.66.66,0,0,1-.66.66.67.67,0,0,1-.64-.69.65.65,0,1,1,1.3,0Z" transform="translate(-10.28 -15.19)"/><polygon class="cls-21" points="174.51 217.04 174.64 220.53 176.47 219.94 174.51 217.04"/><path class="cls-21" d="M183.63,240.22a13.74,13.74,0,0,1-4.5-1.31,4.06,4.06,0,0,1-1.37-1.41,4,4,0,0,0,.77,1.65c1.36,1.67,5,1.8,5,1.8Z" transform="translate(-10.28 -15.19)"/><path class="cls-24" d="M179.87,272.24c.66.38,1.32,1.38,2.4,1.85.63.28,1.25.31,1.91.54a6,6,0,0,1,1.32.49c.32.24.84.86,1.18,1.09a2.88,2.88,0,0,0,1.67.62,2.46,2.46,0,0,0,1.63-.26,1.45,1.45,0,0,0,.33-2,10.32,10.32,0,0,0-1.84-2.85,5.83,5.83,0,0,0-2.05-1.39,18.54,18.54,0,0,0-2.21-.84,5.39,5.39,0,0,1-1.2-.37c-2.42-1.25-9.27-6.81-9.27-6.81l.92-9.95s1.07-7.34-.62-9.74c0,0-3.45.46-4.65,2.59-.94,1.65-1.36,8.67-1.61,16.1-.11,3-.07,4.15,1.62,5.3C172.82,269,178.75,271.57,179.87,272.24Z" transform="translate(-10.28 -15.19)"/><path d="M173.8,237.71a2.64,2.64,0,0,0,0,.93,2.44,2.44,0,0,0,.27.84.87.87,0,0,0-.46.35,1.84,1.84,0,0,0-.32.87,2.47,2.47,0,0,1-.1,2.78,2.11,2.11,0,0,0,1.18,1.63,1.84,1.84,0,0,0,0,1.54,1.8,1.8,0,0,0,1.16,1,.88.88,0,0,1,.42.18c.19.19.11.5.13.77a1.55,1.55,0,0,0,.84,1.08,7.34,7.34,0,0,1,1.2.75,1.1,1.1,0,0,1,.3,1.28,2.53,2.53,0,0,0-1.56-4.14,3.72,3.72,0,0,0,.1-1.48,1.28,1.28,0,0,0-.95-1,2,2,0,0,0,.68-1.47,2.35,2.35,0,0,0-.38-1.46,1.45,1.45,0,0,0,.57-.88,1.4,1.4,0,0,0-.2-1,2.24,2.24,0,0,0-.24-3c-.16-.12-.32-.32-.47-.44a2.6,2.6,0,0,0-.69-.48.87.87,0,0,0-.57-.06c-.21.06-.53.53-.64.72A2.23,2.23,0,0,0,173.8,237.71Z" transform="translate(-10.28 -15.19)"/></g><g id="Character-3" data-name="Character"><path class="cls-13" d="M175.52,306.63c-.41.43-.88.93-.83,1.46a5.56,5.56,0,0,0,1.46,3.07,10.57,10.57,0,0,1,2.09,5.14c.21,1.59.35,5.63,2.36,7.22s6.88,2.39,6.88-.56-5.81-14.29-5.81-14.29Z" transform="translate(-10.28 -15.19)"/><path class="cls-21" d="M178.22,308.52a44.48,44.48,0,0,1,2,6.34c.49,2.36,1.19,4,2.4,4.66s3,.53,2.33-1.08-3.25-9.77-3.25-9.77Z" transform="translate(-10.28 -15.19)"/><path class="cls-1" d="M162.64,268.26s9.58,4.38,14.24,6.89,9.09,5,10,7,.73,7.21.22,12.1-1.58,13.66-1.58,13.66l-13.65-20.46-13.71-9.06Z" transform="translate(-10.28 -15.19)"/><path class="cls-3" d="M180.35,289.77c-1.35-3.13-4.29-5.22-7-6.92-2.19-1.35-7.64-4.52-9.79-5.77a9.73,9.73,0,0,0,.72-3.36s-.67,1.54-1.46,2.93h0l-.57.94,14,10.48,9.62,17.23S181.69,292.9,180.35,289.77Z" transform="translate(-10.28 -15.19)"/><path class="cls-13" d="M186.82,322.86c-.35.23-.3,1.1-.27,1.73s-.42,1.47.5,2.45,2.48,1.06,3.73,2.4,3.19,3.8,6.64,4,5.83-1.33,6.3-2.43-.25-1.95-2.58-2.83S198,327,198,327Z" transform="translate(-10.28 -15.19)"/><path class="cls-24" d="M189.72,315.19a52.14,52.14,0,0,0,3.24,6.33,23.8,23.8,0,0,0,5.18,5.13c.43.34,1.39.93,1.75,1.2a.66.66,0,0,1,.14,1c-.58.84-3.6,1.63-5.58.7s-4.17-3-5.4-3.84l-1.63-1.1a1.41,1.41,0,0,1-.62-1.25c0-.14,0-.31,0-.5,0-1-2.11-4.82-2.11-4.82Z" transform="translate(-10.28 -15.19)"/><path class="cls-1" d="M140.37,273.72A21.58,21.58,0,0,0,144,283.1c2.19,3.47,6.72,6,12.6,8,4.87,1.63,12,4,13.45,4.27s1.72,1.07,2,3.59,2,6.39,5.83,10.9a121.06,121.06,0,0,1,7.73,10.47s3.83.06,5.36-2.59c0,0-10.93-26.15-12.7-29.16s-16.12-11-16.12-11,.24-5.4.43-9.33Z" transform="translate(-10.28 -15.19)"/><path class="cls-11" d="M139.62,243.91a14.52,14.52,0,0,1,2.51,9.9c-.47,4.17-1.85,4.82-4,6-.36,8.54,3.32,18.57,3.32,18.57s6.18,1.79,15-1.6c8-3.08,8.61-7.6,8.61-7.6l-4-4.57-.93-5.91s2.93-4.5,1.42-8.23A17.39,17.39,0,0,0,154.3,242h-2.39l-6.7.55Z" transform="translate(-10.28 -15.19)"/><path class="cls-1" d="M145.16,240.07c-1.22-2.4-3.43-4.32-4.73-6.68a11,11,0,0,1-1.18-6.78,8.44,8.44,0,0,1,1.43-3.69,4.93,4.93,0,0,1,2.7-1.77,8.46,8.46,0,0,1,9-4.07c1.21.25,2.35.71,3.53,1.07a12.16,12.16,0,0,0,4.84.35,2.36,2.36,0,0,1,1.47.11,1.82,1.82,0,0,1,.64,1.78,5.14,5.14,0,0,1-1.48,3.12,1.32,1.32,0,0,1,.79,1.26,2.73,2.73,0,0,1-.52,1.47,6.5,6.5,0,0,1-4.49,2.68l-3.24,2.94-4.65,4.23-2.21,2-.95.86C146,239.07,145.2,240.17,145.16,240.07Z" transform="translate(-10.28 -15.19)"/><path class="cls-22" d="M145.16,240.07c-1.22-2.4-3.43-4.32-4.73-6.68a11,11,0,0,1-1.18-6.78,8.44,8.44,0,0,1,1.43-3.69,4.93,4.93,0,0,1,2.7-1.77,8.46,8.46,0,0,1,9-4.07c1.21.25,2.35.71,3.53,1.07a12.16,12.16,0,0,0,4.84.35,2.36,2.36,0,0,1,1.47.11,1.82,1.82,0,0,1,.64,1.78,5.14,5.14,0,0,1-1.48,3.12,1.32,1.32,0,0,1,.79,1.26,2.73,2.73,0,0,1-.52,1.47,6.5,6.5,0,0,1-4.49,2.68l-3.24,2.94-4.65,4.23-2.21,2-.95.86C146,239.07,145.2,240.17,145.16,240.07Z" transform="translate(-10.28 -15.19)"/><path class="cls-24" d="M158,223.42c.33.38,1.78,2,1.41,8.77-.32,5.77-1.63,6.86-2.58,7.24a10.52,10.52,0,0,1-4.85.09V242c.66.48,2.87,2.1,2.46,3.31-.51,1.49-4,1.67-6.46.59-2.83-1.26-2.84-3-2.84-3l0-7.65a1.81,1.81,0,0,1-1.45.05c-.56-.2-.91-.55-1.41-1.43a4,4,0,0,1-.22-3.11,2.54,2.54,0,0,1,1.67-1.47,1.81,1.81,0,0,1,1.93.84c.29.45.2,1.06.75,1.38a1,1,0,0,0,1.12-.29,5.78,5.78,0,0,0,1-1.38,5.8,5.8,0,0,1,1.4-1.44,10,10,0,0,1,3.3-1.35A7.22,7.22,0,0,0,158,223.42Z" transform="translate(-10.28 -15.19)"/><path class="cls-23" d="M152.27,235a1.42,1.42,0,0,0,2.74.78Z" transform="translate(-10.28 -15.19)"/><path class="cls-21" d="M154,236.78a1.27,1.27,0,0,0-1.74-1.05,1.37,1.37,0,0,0,1.74,1.05Z" transform="translate(-10.28 -15.19)"/><path class="cls-13" d="M153.28,230.93a.72.72,0,1,1-.69-.75A.71.71,0,0,1,153.28,230.93Z" transform="translate(-10.28 -15.19)"/><path class="cls-13" d="M158.62,230.91a.72.72,0,1,1-.69-.75A.71.71,0,0,1,158.62,230.91Z" transform="translate(-10.28 -15.19)"/><path class="cls-21" d="M152,239.52c-2.81-.81-4.66-1.88-5.56-3.88a3.34,3.34,0,0,0,.94,2.42,15.26,15.26,0,0,0,4.62,2.41Z" transform="translate(-10.28 -15.19)"/><path class="cls-13" d="M159.09,229.22l-1.7-.54a.86.86,0,0,1,1.11-.58A.9.9,0,0,1,159.09,229.22Z" transform="translate(-10.28 -15.19)"/><path class="cls-13" d="M152.68,228.83l-1.57.85a.89.89,0,0,1,1.57-.85Z" transform="translate(-10.28 -15.19)"/><polygon class="cls-21" points="144.62 214.97 144.76 219.35 147.02 218.91 144.62 214.97"/></g><path class="cls-13" d="M152.1,325.58V296.51a6.7,6.7,0,0,0-3-5.24l-31-17.91-2.38-17.84a8,8,0,0,0-3.48-5.21l-2.47-1.42c-1.66-1-3-.18-3,1.74v48.73a6.72,6.72,0,0,0,3,5.24l39.36,22.72C150.74,328.28,152.1,327.5,152.1,325.58Z" transform="translate(-10.28 -15.19)"/><path class="cls-10" d="M160.61,291.6v29.06a1.41,1.41,0,0,1,0,.2,6.76,6.76,0,0,1-3,5h0l-2.45,1.42a1.34,1.34,0,0,1-.24.12.67.67,0,0,1-.12.06l0,0-.24.09a7.05,7.05,0,0,1-4.45.12,4.76,4.76,0,0,1-.53-.19c1.46.6,2.58-.22,2.59-2h0V296.51a6.7,6.7,0,0,0-3-5.24l-5.49-3.17L118,273.36l5.49-3.17a6.71,6.71,0,0,1,6.05,0l22.52,13,5.48,3.17A6.69,6.69,0,0,1,160.61,291.6Z" transform="translate(-10.28 -15.19)"/><path class="cls-9" d="M152.1,296.51v29.06h0c0,1.74-1.13,2.56-2.59,2a4.76,4.76,0,0,0,.53.19,7.05,7.05,0,0,0,4.45-.12l.24-.09,0,0a.67.67,0,0,0,.12-.06,1.34,1.34,0,0,0,.24-.12l2.45-1.42h0a6.76,6.76,0,0,0,3-5,1.41,1.41,0,0,0,0-.2V291.6a6.18,6.18,0,0,0-.89-3l-8.51,4.91A6.18,6.18,0,0,1,152.1,296.51Z" transform="translate(-10.28 -15.19)"/><path id="Arm" class="cls-24" d="M161,286.36c-2-3.12-3.44-3.74-5.08-4.29-2.27-.77-3.61-.76-5.2-1.6s-11.07-8.88-11.07-8.88,2-10.22,2.81-15.21c1.5-9.95-2.8-12.47-2.8-12.47a6.12,6.12,0,0,0-4.41,3.35c-1.49,3.31-2.11,7.82-2.61,12.3-.33,2.93-.78,7.28-1.14,11.14-.19,2.07-.48,3.75.82,5,4.41,3.78,14.56,8.46,15.74,9.51,1.74,1.53,2.24,2.3,4.7,2.4,2,.09,2.7,1.62,4.67,2.33S162.62,289,161,286.36Z" transform="translate(-10.28 -15.19)"/></g></g><g id="Plant_with_pot" data-name="Plant with pot"><path id="Shadow-4" data-name="Shadow" class="cls-2" d="M277.11,246c-4.42,2.55-4.42,6.69,0,9.24a17.71,17.71,0,0,0,16,0c4.42-2.55,4.42-6.69,0-9.24A17.71,17.71,0,0,0,277.11,246Z" transform="translate(-10.28 -15.19)"/><g id="Pot-2" data-name="Pot"><path class="cls-9" d="M293.25,250.78c4.35-4.44,6.9-22.51,2.66-26H274.32c-4.24,3.52-1.69,21.58,2.66,26a1.36,1.36,0,0,0,.12.12l.15.15a4.4,4.4,0,0,0,.39.35l.1.08.33.25c.19.13.37.25.56.36a14.3,14.3,0,0,0,13,0h0l.57-.36.31-.23.12-.1c.14-.11.26-.23.38-.34l.18-.17A.47.47,0,0,1,293.25,250.78Z" transform="translate(-10.28 -15.19)"/><path class="cls-10" d="M276.19,223.33c-4.92,2.85-4.92,7.46,0,10.3s12.92,2.85,17.84,0,4.93-7.45,0-10.3S281.12,220.49,276.19,223.33Z" transform="translate(-10.28 -15.19)"/><path class="cls-13" d="M278.56,224.7c-3.61,2.09-3.61,5.48,0,7.57a14.53,14.53,0,0,0,13.1,0c3.62-2.09,3.62-5.48,0-7.57A14.47,14.47,0,0,0,278.56,224.7Z" transform="translate(-10.28 -15.19)"/><path class="cls-11" d="M291.66,228.29a14.47,14.47,0,0,0-13.1,0,5.93,5.93,0,0,0-2.16,2,6.1,6.1,0,0,0,2.16,2,14.53,14.53,0,0,0,13.1,0,6.14,6.14,0,0,0,2.17-2A6,6,0,0,0,291.66,228.29Z" transform="translate(-10.28 -15.19)"/><g id="Plants-4" data-name="Plants"><path class="cls-1" d="M285.39,229.83a14.48,14.48,0,0,1-7.46-.85c-1.64-.61-6.7-3.65-3.32-5.49a5.51,5.51,0,0,0,.87-.45.76.76,0,0,0,.32-.85c-.13-.3-.5-.4-.82-.46a12.58,12.58,0,0,0-2.21-.17,3.82,3.82,0,0,1-1.78-.23c-1-.49-1.18-1.75-1.28-2.83a2.33,2.33,0,0,1,2.22-3.15l2.34-.47c2.31-.47-3.36-2.68-3.34-2.52a15.62,15.62,0,0,1,1.56-7.13c.31-.74.48-1.91,1.34-2.2a4.48,4.48,0,0,1,2.3.37,20.18,20.18,0,0,1,4.55,2c1.57.88,3.47,1.43,3.85,3.43a8.49,8.49,0,0,1-.26,3.39c.46.12.86-.31,1.08-.72s.43-.9.87-1.06a1.58,1.58,0,0,1,1.19.19c1.12.49,2.35,1.12,2.7,2.28a3.88,3.88,0,0,1-.21,2.3,20.48,20.48,0,0,1-1.42,3.38,5.41,5.41,0,0,0,2.91-1.52,12.08,12.08,0,0,1,1,4.3C292.33,223.81,289.35,228.46,285.39,229.83Z" transform="translate(-10.28 -15.19)"/><path class="cls-25" d="M285.39,229.83a14.48,14.48,0,0,1-7.46-.85c-1.64-.61-6.7-3.65-3.32-5.49a5.51,5.51,0,0,0,.87-.45.76.76,0,0,0,.32-.85c-.13-.3-.5-.4-.82-.46a12.58,12.58,0,0,0-2.21-.17,3.82,3.82,0,0,1-1.78-.23c-1-.49-1.18-1.75-1.28-2.83a2.33,2.33,0,0,1,2.22-3.15l2.34-.47c2.31-.47-3.36-2.68-3.34-2.52a15.62,15.62,0,0,1,1.56-7.13c.31-.74.48-1.91,1.34-2.2a4.48,4.48,0,0,1,2.3.37,20.18,20.18,0,0,1,4.55,2c1.57.88,3.47,1.43,3.85,3.43a8.49,8.49,0,0,1-.26,3.39c.46.12.86-.31,1.08-.72s.43-.9.87-1.06a1.58,1.58,0,0,1,1.19.19c1.12.49,2.35,1.12,2.7,2.28a3.88,3.88,0,0,1-.21,2.3,20.48,20.48,0,0,1-1.42,3.38,5.41,5.41,0,0,0,2.91-1.52,12.08,12.08,0,0,1,1,4.3C292.33,223.81,289.35,228.46,285.39,229.83Z" transform="translate(-10.28 -15.19)"/><path class="cls-5" d="M285.27,230a.23.23,0,0,1-.12-.23c.56-8.08-6.6-21.91-10.22-25a.26.26,0,0,1,0-.35.25.25,0,0,1,.35,0c3.68,3.15,10.95,17.21,10.39,25.42a.24.24,0,0,1-.26.22A.2.2,0,0,1,285.27,230Z" transform="translate(-10.28 -15.19)"/><path class="cls-1" d="M284.66,231.55a7.14,7.14,0,0,0,11.12-1.74,1.53,1.53,0,0,0,.25-1,1.51,1.51,0,0,0-.59-.8,9.81,9.81,0,0,0-4.61-2.15,18.33,18.33,0,0,0,2.95-.14,17.53,17.53,0,0,1,4,.39s2.18-.8,1.77-4.44c0,0-2.06-1.5-6.78-.91a15.22,15.22,0,0,1,6.52-2.16c.32,0-.12-4.74-.51-6.85s-1.18-1.79-2.88-1.61-7,1.95-7.67,3.16,0,4.3,0,4.3a6.1,6.1,0,0,1-1.89-2.83,5.86,5.86,0,0,0-3.24,1.34c-1.49,1.27-1.06,2.07-.58,3.33a14.59,14.59,0,0,0,2,3.54,4.74,4.74,0,0,0-.74-.55c-.42-.32-.87-.57-1.26-.93a7.73,7.73,0,0,1-1.81-2.44,13.78,13.78,0,0,0-1.9,4.71,7.18,7.18,0,0,0,.8,4.94,5.54,5.54,0,0,0,5,2.67Z" transform="translate(-10.28 -15.19)"/><path class="cls-5" d="M284.5,232a.21.21,0,0,0,.13-.19c.57-7,8.55-18.06,12.07-20.27a.22.22,0,0,0,.07-.3.21.21,0,0,0-.29-.06c-3.59,2.24-11.7,13.44-12.27,20.6a.21.21,0,0,0,.19.23Z" transform="translate(-10.28 -15.19)"/></g></g></g><g id="Painting"><g id="Painting-2" data-name="Painting"><polygon class="cls-14" points="177.61 166.72 177.61 122.22 175.96 121.27 103.18 163.29 103.18 207.78 104.83 208.74 177.61 166.72"/><polygon class="cls-18" points="104.83 208.74 177.61 166.72 177.61 122.22 104.83 164.24 104.83 208.74"/><polygon class="cls-1" points="109.11 201.32 173.25 164.2 173.25 159.35 159.47 149.91 148.01 165 150.81 169.19 130.93 155.97 109.11 186.49 109.11 201.32"/><path class="cls-1" d="M157.92,161.76c1.71-1,3.1-.19,3.1,1.78a6.86,6.86,0,0,1-3.1,5.37c-1.71,1-3.1.19-3.1-1.79A6.84,6.84,0,0,1,157.92,161.76Z" transform="translate(-10.28 -15.19)"/><polygon class="cls-28" points="109.11 201.32 173.25 164.2 173.25 159.35 159.47 149.91 148.01 165 150.81 169.19 130.93 155.97 109.11 186.49 109.11 201.32"/><path class="cls-28" d="M157.92,161.76c1.71-1,3.1-.19,3.1,1.78a6.86,6.86,0,0,1-3.1,5.37c-1.71,1-3.1.19-3.1-1.79A6.84,6.84,0,0,1,157.92,161.76Z" transform="translate(-10.28 -15.19)"/></g></g></svg>