<?xml version="1.0" encoding="utf-8"?>
<!-- Generator: Adobe Illustrator 24.1.2, SVG Export Plug-In . SVG Version: 6.00 Build 0)  -->
<svg version="1.1" id="Слой_1" xmlns="http://www.w3.org/2000/svg" xmlns:xlink="http://www.w3.org/1999/xlink" x="0px" y="0px"
	 viewBox="0 0 3310 2000" style="enable-background:new 0 0 3310 2000;" xml:space="preserve">
<style type="text/css">
	.st0{fill:#E3EAFF;}
	.st1{fill:#95A6DB;}
	.st2{fill:#3A62AD;}
	.st3{fill:#F37A50;}
	.st4{fill:#201D40;}
	.st5{fill:#2C2858;}
	.st6{fill:#E62552;}
	.st7{fill:#C4204A;}
	.st8{fill:#FFFFFF;}
	.st9{fill:#DE623C;}
	.st10{fill:#FACB32;}
	.st11{fill:#EBA223;}
	.st12{fill:#7F99EB;}
	.st13{fill:#494C7F;}
	.st14{fill:#0E6A41;}
	.st15{fill:#F5A3B7;}
	.st16{fill:#3F964F;}
	.st17{fill:#097A48;}
</style>
<path class="st0" d="M187.2,1841.1c-399.4-310.3,164.3-401.2-29.6-663.3C27.8,1002.2,71.1,698.9,284.8,615.1
	c263.5-103.4,625,97.1,846.6-134.1c159.9-166.8,304-326.9,553-365.6C2117.2,48,2141,491.3,2473.1,501.9
	c203.6,6.5,406.3-91.9,571.5,84.6c237.3,253.5,284.3,638.8,172,962.5c-41.3,119.2-125.2,290.6-125.2,290.6L187.2,1841.1z"/>
<g>
	<path class="st1" d="M1397.8,1432.8c0,0,17.3,31.4-10.3,87.1c-28.1,56.8-23,96.5-23,96.5l-26,24.5c0,0-4.4-63.1,20.4-107.7
		C1389.9,1477.5,1397.8,1432.8,1397.8,1432.8z"/>
	<path class="st1" d="M1473.6,1450.5c0,0,4.6,26-26.5,62.1c-31.8,36.8-37.2,66.8-37.2,66.8l-21.4,17c0,0,9.4-50.6,36.2-79
		C1458.2,1481.9,1473.6,1450.5,1473.6,1450.5z"/>
	<path class="st1" d="M1342.1,1492.2c0,0-23.3,16.1-38.4,81.6c-12.3,53.3-0.2,81.3-7.9,114l33.1-35.4c2.1-23.2-12.8-38.5-4-87.4
		C1333.1,1519.1,1342.1,1492.2,1342.1,1492.2z"/>
	<path class="st1" d="M1132.6,1689.4c0,0-10.4,26.5,13.6,89.1c19.6,51.1,46.2,58,51.3,69.8l11.6-25.7
		c-14.1-20.1-30.2-17.7-50.2-63.2C1140.1,1716.6,1132.6,1689.4,1132.6,1689.4z"/>
	<path class="st1" d="M1287.6,1532.9c0,0-16.2,46.2-19.9,75.7c-5.4,41.9,11,64.4,8.5,107.6l-23.3,28c0,0-20.2-45.4-11.4-96.8
		C1256.3,1561.1,1287.6,1532.9,1287.6,1532.9z"/>
	<path class="st1" d="M1207.4,1554.2c4.5,27.1,5,54.7,1.5,81.9c-11.2,82.4,32.1,145.2,32.1,145.2l-17.3,16.4
		c0,0-53.1-43.8-41.8-112.8C1194,1612.1,1207.4,1554.2,1207.4,1554.2z"/>
	<path class="st1" d="M1327.1,1658.2c0,0,19.5-6.8,100.4,4.1c51.8,7,36.8-12.8,85.6,2.4c-37.3,3-50.1,30.1-98.7,26.4
		c-38.8-3-77.9-2.9-116.7,0.2L1327.1,1658.2z"/>
	<path class="st1" d="M1483.7,1711.9c0,0-32.1,39.8-103.8,34.2c-44.2-3.3-88.6,0.6-131.5,11.6l21.9-36c0,0,29.9-21.4,103.9-8.4
		C1425.1,1722.2,1483.7,1711.9,1483.7,1711.9z"/>
	<path class="st1" d="M1440.4,1779.8c0,0-32.1,39.8-103.8,34.2c-44.2-3.4-88.6,0.6-131.5,11.6l21.9-36c0,0,29.9-21.4,103.9-8.4
		C1381.9,1790.2,1440.4,1779.8,1440.4,1779.8z"/>
	<path class="st1" d="M1535.3,1580.8c0,0-23.1,20.6-68.3,15.3c-45.8-5.4-79.6,4.3-79.6,4.3l13-13.4c0,0,18.9-13.5,65.7-5.3
		C1498.3,1587.3,1535.3,1580.8,1535.3,1580.8z"/>
	<path class="st1" d="M1367.8,1622.4c0,0,35.4-3.3,87.3,1.6c32.8,3,76.5-16.4,76.5-16.4s-33.9,46.7-82.9,39.2
		c-56.1-8.7-111.7-1.5-111.7-1.5L1367.8,1622.4z"/>
	<path class="st1" d="M1396.9,1592.4c0,0,29.7-45.8,79-54.6c29.2-5.5,57.3-15.8,83.1-30.5c0,0-27.6,47.3-73.7,50.5
		c-42.6,3.1-72.4,31-72.4,31L1396.9,1592.4z"/>
	<path class="st1" d="M1201.5,1849.1l-7.4-3.1c19.4-45.5,106.3-193.2,214.9-266.4l4.5,6.7
		C1306.4,1658.4,1220.6,1804.2,1201.5,1849.1z"/>
</g>
<g>
	<path class="st1" d="M2883.9,1805.3c-11.5,5.9-23.6,8.1-29.1,0c-4.8-7,12.4-18.9,29.1-25.8v-29c-9.8,6.3-19.9,10.9-29.1,11.5
		c-14.9,1-14.7-7.5,10.6-22c6.5-3.7,12.7-7.8,18.5-12.5v-80.7c-17.3,27.7-52.6,81.1-64.8,73.6c-17-10.5,59.4-77.9,63.6-100
		c2.6-13.5-25.8-70.6-25.8-70.6s-49.2,116.8-72.8,108.2c-11.4-4.1,57.3-105.6,47.1-124c-10.1-18.4-38.5-33.6-38.5-33.6
		s-23.4,89.3-35.6,79c-9.8-8.3,21.1-66.9,14.7-90.6c-4.9-19-18.4-34.7-36.4-42.3c0,0-15.3,53.9-33,42.8
		c-6.9-4.4,17.8-42.6,15.6-59.5c-23.8,1.3-44.3,0.9-59.9-11.5c-0.3,13.1-18.6,28.4-44.5,44.7c9.4,21.9,57.5,30.1,51.1,46.2
		c-5.3,13.4-61.2-23.5-61.2-23.5s-20.2,26.7-10.1,54.1c7.9,21.3,59.9,42.8,51.1,53.5c-10.8,13.2-67.7-36.1-66.3-31.4
		c11,36-4.6,79.7-4.6,79.7c25.5,66.5,127.8,83.7,113.7,99.7c-12.6,14.2-110.4-54.1-110.4-54.1l11.4,47.6c0,0,53.3,53.2,123.5,68.6
		c-36.2,17.7-113.5-27.7-113.5-27.7s11.3,39.9,35.5,72.3h250.1V1805.3z M2614.2,1526.3c4-5.2,53.3,17.1,46.4,30
		C2653.7,1569.1,2605.1,1537.9,2614.2,1526.3z M2694.2,1681.7c-4.2,12.7-38.3-0.2-57.5-12.3c-24.6-15.5-37.3-33.8-29.3-42.1
		c8.7-9.1,25.4,8.4,48,19.2C2682.1,1659.3,2698.2,1669.4,2694.2,1681.7z M2697.2,1619c-4.8,11.4-36-1.5-33.4-14.2
		C2665.5,1596.5,2702,1607.6,2697.2,1619z M2740.3,1758c-5,13.5-38.9-2.4-33.2-14.7C2711.5,1733.8,2745.3,1744.5,2740.3,1758
		L2740.3,1758z M2728.9,1555.3c-13.5-4.5,8.5-48.2,20.8-41C2761.9,1521.5,2742.2,1559.7,2728.9,1555.3L2728.9,1555.3z
		 M2751.2,1498.8c-3.5-1.2-5.4-4.9-4.2-8.4c1.2-3.5,4.9-5.4,8.4-4.2c3.5,1.2,5.4,4.9,4.2,8.4
		C2758.5,1498.1,2754.7,1500,2751.2,1498.8C2751.2,1498.9,2751.2,1498.9,2751.2,1498.8L2751.2,1498.8z"/>
	<polygon class="st2" points="2694.9,1520 2803.3,1847.9 2817.9,1847.9 	"/>
	<polygon class="st2" points="2690.6,1702.4 2770,1720.2 2770.6,1728.9 	"/>
	<polygon class="st2" points="2746.5,1657.6 2787.3,1581 2742.8,1647.9 	"/>
	<polygon class="st2" points="2787.6,1779.2 2838.8,1729.6 2786.8,1765.1 	"/>
</g>
<g>
	<path class="st1" d="M518.3,1847.9h250.1c24.2-32.4,35.5-72.3,35.5-72.3s-77.3,45.5-113.5,27.7c70.2-15.4,123.5-68.6,123.5-68.6
		l11.4-47.6c0,0-97.8,68.3-110.4,54.1c-14.2-15.9,88.2-33.2,113.7-99.7c0,0-15.6-43.7-4.6-79.7c1.4-4.7-55.5,44.6-66.3,31.4
		c-8.7-10.7,43.2-32.2,51.1-53.5c10.1-27.4-10.1-54.1-10.1-54.1s-55.9,36.9-61.2,23.5c-6.4-16.1,41.6-24.3,51.1-46.2
		c-25.9-16.3-44.2-31.6-44.5-44.7c-15.5,12.4-36.1,12.8-59.9,11.5c-2.2,16.9,22.5,55.2,15.6,59.5c-17.7,11.1-33-42.8-33-42.8
		c-18.1,7.7-31.6,23.3-36.4,42.3c-6.4,23.7,24.6,82.3,14.7,90.6c-12.2,10.3-35.6-79-35.6-79s-28.3,15.2-38.5,33.6
		c-10.1,18.4,58.5,119.9,47.1,124c-23.6,8.5-72.8-108.2-72.8-108.2s-28.3,57.2-25.8,70.6c4.2,22.1,80.6,89.5,63.6,100
		c-12.1,7.6-47.5-45.8-64.8-73.6v80.7c5.8,4.7,12,8.8,18.5,12.5c25.4,14.5,25.5,23,10.6,22c-9.2-0.6-19.3-5.2-29.1-11.5v29
		c16.7,6.9,33.9,18.8,29.1,25.8c-5.5,8.1-17.6,5.9-29.1,0V1847.9z M741.6,1556.3c-6.9-12.9,42.4-35.2,46.4-30
		C797.1,1537.9,748.5,1569.1,741.6,1556.3z M747,1646.4c22.6-10.8,39.2-28.3,48-19.2c8,8.3-4.7,26.6-29.3,42.1
		c-19.2,12-53.3,25-57.5,12.3C704,1669.4,720.1,1659.3,747,1646.4z M738.4,1604.8c2.6,12.7-28.6,25.6-33.4,14.2
		C700.2,1607.6,736.7,1596.5,738.4,1604.8z M661.9,1758c-5-13.5,28.9-24.2,33.2-14.7C700.8,1755.6,666.9,1771.5,661.9,1758
		L661.9,1758z M673.3,1555.3c-13.3,4.5-33-33.8-20.8-41S686.8,1550.8,673.3,1555.3L673.3,1555.3z M651.1,1498.9
		C651.1,1498.9,651.1,1498.9,651.1,1498.9c-3.6,1.2-7.3-0.8-8.5-4.3c-1.2-3.5,0.7-7.3,4.2-8.4c3.5-1.2,7.3,0.7,8.4,4.2
		C656.4,1493.9,654.6,1497.7,651.1,1498.9L651.1,1498.9z"/>
	<polygon class="st2" points="707.3,1520 599,1847.9 584.4,1847.9 	"/>
	<polygon class="st2" points="711.6,1702.4 632.3,1720.2 631.6,1728.9 	"/>
	<polygon class="st2" points="655.8,1657.6 615,1581 659.4,1647.9 	"/>
	<polygon class="st2" points="614.7,1779.2 563.5,1729.6 615.4,1765.1 	"/>
</g>
<g>
	<path class="st1" d="M3045.7,1755.3c-23.3-29-27.9-67.3-13.5-115C3057.1,1683.4,3061.6,1721.7,3045.7,1755.3z"/>
	<path class="st1" d="M3073.7,1689c-17-29.4-15.8-64.5,3.7-105.5C3094,1625.8,3092.7,1661,3073.7,1689z"/>
	<path class="st1" d="M3104.8,1623.3c-11.9-30-5.8-62.8,18.2-98.6C3132.7,1566.8,3126.7,1599.7,3104.8,1623.3z"/>
	<path class="st1" d="M3175.4,1486.6c0.6,36.5-10.2,62.6-32.5,78.4C3138.4,1538.1,3149.2,1511.9,3175.4,1486.6z"/>
	<path class="st1" d="M3222.7,1472c-4.9,30.1-17.7,50.1-38.3,59.8C3184.6,1508.9,3197.4,1489,3222.7,1472z"/>
	<path class="st1" d="M3208.2,1533c8.4-21.2,27.4-35.3,57.2-42.1C3250,1517.3,3231,1531.3,3208.2,1533z"/>
	<path class="st1" d="M3169.5,1716.6c-31.1,39.4-65.4,57.9-102.9,55.3C3085.2,1739.4,3119.5,1720.9,3169.5,1716.6z"/>
	<path class="st1" d="M3109.9,1647.3c23.4-19.9,54.9-24.6,94.6-13.9C3169.6,1655,3138,1659.6,3109.9,1647.3z"/>
	<path class="st1" d="M3220.8,1592.6c-30.4,18.8-57.9,22.8-82.3,12.1C3158.8,1587.3,3186.2,1583.3,3220.8,1592.6z"/>
	<path class="st1" d="M3175.4,1567.4c20.3-17.3,47.8-21.3,82.3-12.1C3227.3,1574.2,3199.8,1578.2,3175.4,1567.4z"/>
	<path class="st1" d="M3034.1,1829.3c19.6-86.9,21.9-79.9,42.4-130.4c5.5-13.7,11.4-26.6,17.7-38.8c13.2-24.9,29-48.4,47.2-69.9
		c20.8-25.7,38.9-42.6,54.3-50.7l1.5-1.7c0.2-0.6,0.9-1,1.5-0.9c0.6-0.3,1.3-0.3,1.9-0.1c0.5,0.4,1,1,1.2,1.6
		c0.3,0.6,0.3,1.3,0.1,1.9l-0.5,1.3c-0.5,0.5-1,1-1.6,1.3l0,0.3l-1.4,0.6c-14.9,8.3-32.4,24.8-52.7,49.6
		c-17.9,21.4-33.3,44.7-46.1,69.5c-6.6,12.4-12.5,25.1-17.7,38.1l-1.3,3.4c20.9-26.6,53.9-38.5,99.1-35.7c-33,31-66,42.9-99.1,35.7
		c-19.8,49.7-21.6,41.3-40.6,126L3034.1,1829.3z"/>
</g>
<g>
	<path class="st1" d="M324.4,1766c23.3-29,27.9-67.3,13.5-115C313,1694.1,308.5,1732.5,324.4,1766z"/>
	<path class="st1" d="M296.4,1699.8c17-29.4,15.8-64.5-3.7-105.5C276.2,1636.6,277.4,1671.7,296.4,1699.8z"/>
	<path class="st1" d="M265.3,1634.1c11.9-30,5.8-62.8-18.2-98.6C237.4,1577.5,243.4,1610.4,265.3,1634.1z"/>
	<path class="st1" d="M194.7,1497.3c-0.6,36.5,10.2,62.6,32.5,78.4C231.7,1548.8,220.9,1522.6,194.7,1497.3z"/>
	<path class="st1" d="M147.4,1482.7c4.9,30.1,17.7,50.1,38.3,59.8C185.5,1519.7,172.7,1499.7,147.4,1482.7z"/>
	<path class="st1" d="M161.9,1543.7c-8.4-21.2-27.4-35.3-57.2-42.1C120.1,1528,139.2,1542,161.9,1543.7z"/>
	<path class="st1" d="M211.1,1718c31.1,39.4,65.4,57.9,102.9,55.3C295.5,1740.7,261.2,1722.3,211.1,1718z"/>
	<path class="st1" d="M260.2,1658c-23.4-19.9-54.9-24.6-94.6-13.9C200.5,1665.7,232.1,1670.4,260.2,1658z"/>
	<path class="st1" d="M149.3,1603.3c30.4,18.8,57.9,22.8,82.3,12.1C211.4,1598,183.9,1594,149.3,1603.3z"/>
	<path class="st1" d="M194.8,1578.2c-20.3-17.3-47.8-21.3-82.3-12.1C142.9,1584.9,170.3,1588.9,194.8,1578.2z"/>
	<path class="st1" d="M336,1840c-19.6-86.9-21.9-79.9-42.4-130.4c-5.5-13.7-11.4-26.6-17.7-38.8c-13.2-24.9-29-48.4-47.2-69.9
		c-20.8-25.7-38.9-42.6-54.3-50.7l-1.5-1.7c-0.2-0.6-0.9-1-1.5-0.9c-0.6-0.3-1.3-0.3-1.9-0.1c-0.5,0.4-1,1-1.2,1.6
		c-0.3,0.6-0.3,1.3-0.1,1.9l0.5,1.3c0.5,0.5,1,1,1.6,1.3l0,0.3l1.4,0.6c14.9,8.3,32.4,24.8,52.7,49.6c17.9,21.4,33.3,44.7,46.1,69.5
		c6.6,12.4,12.5,25.1,17.7,38.1l1.3,3.4c-20.9-26.6-53.9-38.5-99.1-35.7c33,31,66,42.9,99.1,35.7c19.8,49.7,21.6,41.3,40.6,126
		L336,1840z"/>
</g>
<g>
	<path class="st1" d="M202.5,1737.4c-5.3-24.5-23.5-43-54.5-55.7C160,1713.1,178.1,1731.6,202.5,1737.4z"/>
	<path class="st1" d="M97.7,1679.9c15.4,23.8,33.7,35.9,54.9,36.5C143.9,1697,125.6,1684.8,97.7,1679.9z"/>
	<path class="st1" d="M60.9,1691c16.2,17.3,33.1,24.6,50.6,21.9C101.4,1698.3,84.6,1691,60.9,1691z"/>
	<path class="st1" d="M96.6,1724c-14.6-10.1-33-10.8-55.1-2.3C62.9,1732,81.3,1732.8,96.6,1724z"/>
	<path class="st1" d="M201.2,1825.6c37.2,11.9,67.3,8.9,90.3-8.9C265.5,1803.6,235.3,1806.6,201.2,1825.6z"/>
	<path class="st1" d="M209.6,1755c-23.7-2.7-46,8-67,32.1C174.5,1785.9,196.8,1775.2,209.6,1755z"/>
	<path class="st1" d="M114.4,1767.9c27.8-1.1,47.2-10.4,58.3-27.9C152.1,1737.5,132.6,1746.9,114.4,1767.9z"/>
	<path class="st1" d="M132.8,1732c-20.6-2.3-40,7-58.3,27.9C102.3,1758.8,121.7,1749.5,132.8,1732z"/>
	<path class="st1" d="M337.3,1839.5c-50.3-47.5-48.8-42-83.9-65.7c-9.5-6.4-18.9-12.2-28.2-17.4c-19.3-10.4-39.6-18.6-60.7-24.6
		c-24.5-7.5-43.5-10.5-57-9.1l-1.7-0.5c-0.4-0.3-1-0.3-1.4,0.1c-0.5,0.1-1,0.4-1.3,0.8c-0.2,0.5-0.2,1.1-0.1,1.6
		c0.1,0.5,0.4,1,0.8,1.3l0.9,0.6c0.5,0.1,1.1,0.2,1.6,0.1l0.1,0.2l1.2-0.2c13.2-1.1,31.7,1.9,55.4,9.1c20.8,6.1,40.9,14.4,59.9,24.8
		c9.6,5.1,18.9,10.8,27.9,16.9l2.3,1.6c-25-8.1-51.4-1.4-79.4,20c34.7,5.7,61.2-1,79.4-20c34.3,23.5,31.8,17.3,80.8,63.6
		L337.3,1839.5z"/>
</g>
<g>
	<path class="st1" d="M1975.8,1774.5c22.8-31.8,25.3-72.3,7.5-121.4C1959.6,1699.7,1957.1,1740.2,1975.8,1774.5z"/>
	<path class="st1" d="M1942.5,1706.6c16.1-31.8,12.8-68.6-10-110.4C1917.6,1641.5,1920.9,1678.3,1942.5,1706.6z"/>
	<path class="st1" d="M1906,1639.5c10.7-32.1,2.5-66.3-24.8-102.4C1873.5,1581.8,1881.8,1616,1906,1639.5z"/>
	<path class="st1" d="M1824.1,1500.2c1.5,38.3,14.4,65.1,38.6,80.4C1865.9,1552,1853,1525.2,1824.1,1500.2z"/>
	<path class="st1" d="M1773.6,1487.7c6.9,31.3,21.5,51.5,43.7,60.4C1815.7,1524.2,1801.1,1504,1773.6,1487.7z"/>
	<path class="st1" d="M1792.3,1550.8c-10-21.8-30.8-35.4-62.4-40.8C1747.6,1536.7,1768.4,1550.4,1792.3,1550.8z"/>
	<path class="st1" d="M1843.6,1741.1c34.9,39.6,72,56.9,111.2,52.1C1933.5,1760.1,1896.4,1742.7,1843.6,1741.1z"/>
	<path class="st1" d="M1902.1,1664.9c-25.7-19.6-59-22.6-100.1-9C1840,1676.5,1873.3,1679.5,1902.1,1664.9z"/>
	<path class="st1" d="M1782.6,1614c33,18,62,20.6,87.1,7.8C1847.4,1604.8,1818.4,1602.2,1782.6,1614z"/>
	<path class="st1" d="M1828.8,1585c-22.3-17-51.4-19.6-87.1-7.8C1774.7,1595.1,1803.8,1597.7,1828.8,1585z"/>
	<path class="st1" d="M1992.2,1851.4c-25.6-90-27.7-82.5-52.1-134.3c-6.6-14-13.5-27.2-20.8-39.7c-15.3-25.4-33.2-49-53.6-70.5
		c-23.3-25.7-43.3-42.4-59.9-50l-1.6-1.7c-0.3-0.7-1-1-1.7-0.9c-0.6-0.3-1.4-0.2-2,0.1c-0.5,0.5-0.9,1.1-1.2,1.8
		c-0.3,0.6-0.2,1.4,0.1,2l0.6,1.3c0.5,0.5,1.1,0.9,1.8,1.2l0,0.3l1.5,0.5c16.1,7.8,35.4,24.1,58.1,48.9c20,21.4,37.6,45,52.5,70.2
		c7.6,12.6,14.5,25.6,20.8,38.9l1.6,3.5c-23.4-26.7-58.8-37.2-106.1-31.6c36.4,30.6,71.8,41.1,106.1,31.6c23.7,51,25,42,50,129.8
		L1992.2,1851.4z"/>
</g>
<path class="st1" d="M3122.9,1873.1H184.2c-9.3,0-16.9-7.6-16.9-16.9l0,0c0-9.3,7.6-16.9,16.9-16.9h2938.7c9.3,0,16.9,7.6,16.9,16.9
	l0,0C3139.8,1865.6,3132.3,1873.1,3122.9,1873.1z"/>
<g>
	<g id="c_3_">
		<path class="st3" d="M601.1,728.3l-4-26.7c0,0,18.7-2.9,17.7-16.1l-19.7-0.2c0,0-10.6-9.7,1.6-39.3c2.8-27.8-15.5-13.9-18-22.6
			c-3.7-13-26.9,13-27.6,40.5c-0.9,35.6,18,64.4,18,64.4L601.1,728.3z"/>
	</g>
	<path d="M886,1794.3c6.4-17.6,19.9-19.5,19.9-19.5c26.4,37.1,91.2,14.3,89.1,64.6c-98.6-0.6-139.5,0-139.5,0
		c0.1-11.5,2.1-38.9,4.4-49.6l5.1,1L886,1794.3z"/>
	<path d="M738.6,1795.3c6.4-17.6,19.9-19.5,19.9-19.5c26.4,37.1,91.2,14.3,89.1,64.6c-98.6-0.6-139.5,0-139.5,0
		c0.1-11.5,2.1-38.9,4.4-49.6l5.1,1L738.6,1795.3z"/>
	<path class="st4" d="M951.6,1207.9c0,0,16,238,9.5,290.9c-6.5,52.9-29.5,120.7-26.9,295.7c-32.1,8.2-78.7,0-78.7,0
		s-6.9-197.9,27.1-286.2c-13.8-85.8-58.1-282.5-58.1-282.5L951.6,1207.9z"/>
	<path class="st5" d="M903.8,1214.4c0,0-32.3,267.2-48.1,317.8c-15.8,50.7-46.7,93.5-75.3,265.9c-33,1.7-72.4-6.9-72.4-6.9
		s13.1-211.8,64.5-261.5c1.7-87.1-8.3-313.6-8.3-313.6L903.8,1214.4z"/>
	<path class="st1" d="M779.1,893.6c0,0-2.4,1.8-135.5-21.1c0,0-0.1,0-0.1,0l-47.1,40.1c-0.1,0-0.1,0.1,0,0.2
		c35.1,38.8,186.4,62.6,186.4,62.6L779.1,893.6z"/>
	<polygon class="st1" points="835.7,864.4 882.5,856.8 928.9,866.5 881.1,922.7 	"/>
	<path class="st3" d="M852.9,891.7c18.5,14.4,38.1,20.6,58.4,6l2.8-72l-61-0.7L852.9,891.7z"/>
	<path class="st1" d="M942.7,890.9L942.7,890.9l-14.3-4.6l0.5-19.8l-36.6,33.7l-10.8,2.5l-10.7-3l-35.1-35.3l-0.4,19.8l-12.1,3.3
		l0,0l-51.4,7.1v228.7L752.6,1229c60.2,15.7,149.9,16.5,214.1,3.2l-10.6-96.4l20.4-232L942.7,890.9z"/>
	<path class="st6" d="M883.7,928.1c0,0-6.4,139.9-17,211.4c3.4,4.1,18.7,22.7,18.7,22.7s18.6-17.6,23.7-20.8
		c11.5-126.2-9.2-212.6-9.2-212.6L883.7,928.1z"/>
	<polygon class="st7" points="871.9,903.8 891.6,898.7 906.1,904.5 899.9,928.8 882.5,928.7 	"/>
	<path class="st8" d="M891.6,898.7c0,0-15.9,21-30.4,29.4l-37.1-39.4l11.4-24.3L891.6,898.7z"/>
	<path class="st8" d="M891.6,898.7c0,0,12.6,18.3,28.9,30.4l28.9-36.2l-20.6-26.3L891.6,898.7z"/>
	<path class="st1" d="M564.1,724.2c21.2-4.9,32.3-6.9,48.2-5.4c27,116,49.9,160.9,35.6,192.1c-11.9,26-41.3,21-53.8-0.5
		C577.5,882,570.3,779.3,564.1,724.2z"/>
	<path class="st1" d="M976.5,903.9c31.6,1.2,68.5,149,68.5,149l61.6-65.7l24.6,57.9c0,0-80.3,102.3-115,91.9
		c-32.5-9.7-49-126.4-49-126.4L976.5,903.9z"/>
	<g>
		<path class="st5" d="M834.1,822.4c-30,3.6-45.7-34.8-45.7-34.8c-18.4-3-15.3-21.4-15.3-21.4c-8.7-2.7-20.4-12-16.6-28.7
			c3.2-14.1,17-13.4,18.8-30c1.4-13.3-8.1-45.7,34.2-48.2c0,0,1-24.6,26.5-30.5c31.2-7.2,38.9,11.5,52.5,14.9
			c15.3,3.8,48-10.3,52.3,25c0,0,21.8,0.5,31.8,16.4c9.3,14.8,3.9,33.6-2.4,40.6c0,0,17.5,6,21.5,22.5c2.7,11.1-1.6,25.4-12.7,32.4
			c-7,4.4-13.7,4.8-13.7,4.8c-7.1,1.2-7.6,20.3-13.9,23.9c-10.1,5.9-21,10.1-32.2,13.4L834.1,822.4z"/>
		<path class="st3" d="M949.5,749.1c3.5,51.8-25,95.9-63.5,98.5c-38.5,2.6-72.6-37.3-76-89.1c-3.5-51.8,27.4-85.3,65.9-87.8
			C914.4,668,946.1,697.3,949.5,749.1z"/>
		<path d="M851.7,775.7c-4.1,0.3-7.6-2.8-7.9-6.9c-0.3-4.1,2.8-7.6,6.9-7.9c4.1-0.3,7.6,2.8,7.9,6.9
			C858.9,771.9,855.8,775.4,851.7,775.7z"/>
		<path d="M910.8,771.8c-4.1,0.3-7.6-2.8-7.9-6.9c-0.3-4.1,2.8-7.6,6.9-7.9c4.1-0.3,7.6,2.8,7.9,6.9
			C918,767.9,914.9,771.5,910.8,771.8z"/>
		<g>
			<path class="st5" d="M923,756.8c-1.2,0.1-2.4-0.5-3.2-1.5c-2-3-4.4-4.7-7-5.1c-4.5-0.7-8.6,2.5-8.7,2.6c-1.5,1.2-3.8,1-5-0.6
				c-1.2-1.5-1-3.8,0.5-5c0.3-0.2,6.5-5.2,14.1-4.1c4.6,0.7,8.6,3.4,11.9,8.1c1.1,1.6,0.7,3.8-0.9,5
				C924.2,756.5,923.6,756.7,923,756.8z"/>
		</g>
		<g>
			<path class="st5" d="M836.8,762.9c-0.8,0.1-1.6-0.2-2.3-0.6c-1.6-1.1-2-3.4-0.9-5c4.3-6.2,9.3-9.7,14.8-10.5
				c7.1-1,12.3,3,12.5,3.2c1.5,1.2,1.8,3.5,0.6,5c-1.2,1.5-3.5,1.8-5,0.6c-0.1-0.1-3.2-2.4-7.2-1.7c-3.4,0.5-6.8,3.1-9.8,7.5
				C838.8,762.3,837.8,762.8,836.8,762.9z"/>
		</g>
		<path class="st9" d="M888.6,775.6c10.1,6.3,13.2,8.9,17.1,11c-2,8.7-15.1,13.9-19,13.2c9-5.2,9.9-11.6,9.9-11.6L888.6,775.6z"/>
		<path class="st3" d="M822.4,766.9c7.2,10.7,6.6,23.8-1.4,29.1c-8,5.3-20.3,1-27.4-9.8c-7.2-10.7-6.6-23.8,1.4-29.1
			C803,751.8,815.2,756.2,822.4,766.9z"/>
		<g>
			<path class="st9" d="M815.3,787.3c-0.3,0-0.6,0-0.9-0.1c-1.2-0.4-1.9-1.8-1.5-3c1.4-4.1,1.2-7.4-0.5-9.6c-2.7-3.5-8.7-4.2-13-3.8
				c-1.3,0.1-2.5-0.8-2.6-2.1c-0.1-1.3,0.8-2.5,2.1-2.6c5.7-0.6,13.3,0.6,17.2,5.5c2,2.5,3.8,6.9,1.3,14.1
				C817.1,786.6,816.3,787.2,815.3,787.3z"/>
		</g>
		<path class="st8" d="M859.5,811.7c-1.2-1.7,0.2-4,2.2-3.7c5.2,0.7,13.7,1.8,21.9,2c8.2,0.2,16.8-0.5,22-1c2-0.2,3.3,2.1,2.1,3.8
			c-3.9,5-11.8,12.5-24.4,12.2C870.7,824.7,863.1,816.8,859.5,811.7z"/>
		<path class="st5" d="M785.5,721.5l82.4-69.1l93.4,45.3l-10.1,66.9c-3-30.8-21.6-20.4-31.6-29.3c-10.1-8.9-14.6-23.1-37.6-10
			c0,0-19.1-12.6-28.4,5.9c-7.2,14.3-17.4,11.8-27.5,12.7c-11.9,1.1-8.9,12.7-16.2,12.4L785.5,721.5z"/>
	</g>
	<g>
		<g>
			<path class="st10" d="M784.6,509.3c-1-3.2-2.7-5.9-4.8-8.2c-17-24.5-56.1-10.1-112.9,6.4c-9.5,2.7-7.6-10-11.9-35.4
				c-2.8-16.5-20.7-37.6-38-32.2c-28.4,8.9,5.9,22.7-1.8,85.7c-4.1,33.7-39.3,26.6-30,56.3l21.2,67.4c3.6,11.5,8.3,22.3,25.1,18.9
				c16.3-3.2,16.3,9.1,39.1,1.9l114-35.9c11.6-3.7,18.1-16,14.5-27.6c-1.5-4.8-4.6-8.6-8.4-11.3c5.3-5.6,7.6-13.8,5.1-21.7
				c-1.5-4.8-4.6-8.6-8.4-11.3c5.3-5.6,7.6-13.8,5.2-21.7c-1.8-5.7-5.8-10.2-10.7-12.8C785.4,522.6,786.6,515.9,784.6,509.3
				L784.6,509.3z"/>
			<path class="st11" d="M715.8,554l54.4-17.1c7.4-2.3,13.1-8.4,14.9-16c0.7-3.1-1.2-6.2-4.3-6.9c-3.1-0.7-6.2,1.2-7,4.3
				c-0.8,3.6-3.6,6.5-7.1,7.6L711,543.4c-5.5,1.7-11.4-1.3-13.1-6.8c-1.7-5.5,1.4-11.4,6.9-13.1l37.2-11.7c3.1-1,4.8-4.2,3.8-7.2
				c-1-3-4.2-4.7-7.3-3.8l-37.2,11.7c-11.6,3.7-18.1,16-14.5,27.6c2,6.4,6.8,11.2,12.6,13.6c-2.7,5-3.4,11.1-1.6,16.9
				c2,6.5,6.9,11.2,12.7,13.6c-2.7,5-3.4,11-1.6,16.9c2.2,7,7.7,12.1,14.3,14.3c-2.1,4.7-2.7,10.2-1,15.6c3.6,11.6,16,18,27.7,14.3
				l34.6-10.9c7.4-2.3,13.1-8.4,14.9-16c0.7-3.1-1.2-6.2-4.3-6.9c-3.1-0.7-6.2,1.2-7,4.3c-0.9,3.6-3.6,6.5-7.1,7.6l-34.6,10.9
				c-5.5,1.7-11.4-1.3-13.1-6.8c-1.7-5.5,1.4-11.4,6.9-13.1l41.1-12.9c7.4-2.3,13.1-8.5,14.9-16c0.7-3.1-1.2-6.2-4.3-6.9
				c-3.1-0.7-6.2,1.2-7,4.3c-0.9,3.6-3.5,6.5-7.1,7.6l-44.6,14c-5.5,1.7-11.4-1.3-13.1-6.8c-1.7-5.5,1.4-11.4,6.9-13.1l51.1-16.1
				c7.4-2.3,13.1-8.4,14.9-16c0.7-3.1-1.2-6.2-4.3-6.9c-3.1-0.7-6.2,1.2-7,4.3c-0.9,3.6-3.5,6.5-7.1,7.6L722,573.9
				c-5.5,1.7-11.4-1.3-13.1-6.8C707.2,561.6,710.2,555.7,715.8,554L715.8,554z"/>
		</g>
		<path class="st12" d="M617.3,678.3l-35.5,11.2c-4.9,1.5-10.2-1.2-11.7-6.1l-33.2-105.5c-1.5-4.9,1.2-10.2,6.1-11.7l35.5-11.2
			c4.9-1.5,10.2,1.2,11.7,6.1l33.2,105.5C625,671.5,622.2,676.7,617.3,678.3z"/>
	</g>
	<path class="st3" d="M590.7,687.2c4.8-1.8,7.7-2.6,8.4-9.9c0.7-7.3,0.1-16.5,6.2-13.5c6.1,3,10.3,17.3,9.3,23.2
		C607.7,691.2,590.7,687.2,590.7,687.2z"/>
	<path class="st8" d="M564.1,724.2l-4.3,26.3l66.4-7.3l-14.4-25.4C611.8,717.8,585.2,717.4,564.1,724.2z"/>
</g>
<g>
	<path class="st3" d="M2635.8,732.6c0,0,0.6,32.9,4,59.6c0,0,27.7-36.4,27.7-36.4c-2.5-10.7-5.5-31-4.7-42.8
		C2663,710,2606.4,707.7,2635.8,732.6z"/>
	<path d="M2864,1778c-26,34.7-90,13.4-87.9,60.4c97.2-0.6,137.6,0,137.6,0c-0.1-10.8-2-36.4-4.3-46.4L2864,1778z"/>
	<path d="M3009.5,1778.9c-26,34.7-90,13.4-87.9,60.4c97.2-0.6,137.6,0,137.6,0c-0.1-10.8-2-36.4-4.3-46.4L3009.5,1778.9z"/>
	<path class="st4" d="M2819,1247.8c0,0-15.8,222.6-9.4,272.1c6.4,49.5,29.1,112.9,26.5,276.6c31.7,7.7,77.6,0,77.6,0
		s6.8-185.1-26.7-267.7c13.6-80.3,57.3-264.2,57.3-264.2L2819,1247.8z"/>
	<path class="st5" d="M2879,1253.9c0,0,31.9,249.9,47.5,297.3c15.6,47.4,31.3,78.9,59.6,240.2c32.6,1.6,86.1,2.1,86.1,2.1
		s-12.9-198.1-63.6-244.6c-1.7-81.4,8.2-293.4,8.2-293.4L2879,1253.9z"/>
	<g>
		<g>
			<g>
				<path class="st3" d="M3008.8,845c-17.3,43.2-58.8,67.2-92.7,53.6c-33.9-13.6-47.4-59.6-30.1-102.7
					c17.3-43.2,58.8-67.2,92.7-53.6C3012.6,755.9,3026.1,801.9,3008.8,845z"/>
				<path d="M2900.7,810.1c-2,2.9-6,3.6-8.8,1.6c-2.9-2-3.6-6-1.6-8.8c2-2.9,6-3.6,8.8-1.6C2902,803.2,2902.7,807.2,2900.7,810.1z"
					/>
				<path d="M2948.3,829.5c-2.2,3.1-6.5,3.9-9.6,1.7c-3.1-2.2-3.9-6.5-1.7-9.6c2.2-3.1,6.5-3.9,9.6-1.7
					C2949.7,822.1,2950.5,826.4,2948.3,829.5z"/>
				<path class="st9" d="M2910.4,820.2c-8.6,6.8-19.3,14.9-19.3,14.9s-0.1,10.4,12,14.8c-4.4-4-8.2-9.3-3.7-15.4
					C2903.9,828.5,2910.4,820.2,2910.4,820.2z"/>
				<g>
					<path d="M2960.8,825.3c-1.4,0-2.7-1-3.1-2.4c-0.1-0.3-2.2-8.6-9.3-8.6c-1.8,0-3.2-1.4-3.2-3.2c0-1.8,1.4-3.2,3.2-3.2
						c9.7,0,14.3,8.8,15.4,13.5c0.4,1.7-0.6,3.4-2.3,3.8C2961.3,825.3,2961.1,825.3,2960.8,825.3z"/>
				</g>
				<g>
					<path d="M2907.4,796.6c-0.9,0-1.8-0.5-2.3-1.3c0-0.1-1.8-2.8-4.6-3.3c-2-0.4-4.3,0.5-6.7,2.4c-1.1,0.9-2.8,0.7-3.7-0.4
						c-0.9-1.1-0.7-2.8,0.4-3.7c3.7-3,7.4-4.2,11-3.5c5.2,1,8,5.6,8.1,5.8c0.7,1.3,0.3,2.9-0.9,3.6
						C2908.3,796.5,2907.8,796.6,2907.4,796.6z"/>
				</g>
				<path d="M2996.7,849.5c-12.5-40.2,3.3-61.5,3.3-61.5c-10.7-2.1-14.9,1.6-14.9,1.6c-5.9-12-1.3-20.6-1.3-20.6
					c-22.2-8.6-33.2,5.7-53.2,10.6c-27.4,6.6-61.2-4.3-64.4-37.7c-0.5-4.8,4.9-8,8.9-5.3c3.8,2.5,8.7,4.5,14.9,4.4
					c0,0-5.7-6.5-6-15.4c-0.2-4.9,5.6-7.6,9.4-4.4c5.7,4.7,16.3,9.2,35.1,5.7c12.5-2.3,41.2-22.4,59.1-18.5
					c14.6,3.2,26.2,15.6,31.2,33.5c0,0,35.9,3.7,39.5,43.3c3.5,38.8-41.5,68.7-41.5,68.7L2996.7,849.5z"/>
				<path class="st3" d="M2991.8,842.8c-9.5,5.4-13.7,16.1-9.2,23.9c4.4,7.8,15.7,9.7,25.2,4.3c9.5-5.4,13.7-16.1,9.2-23.9
					C3012.6,839.4,3001.3,837.4,2991.8,842.8z"/>
				<g>
					<path class="st9" d="M2993.4,866.2c-0.3-0.2-0.5-0.5-0.7-0.8c-2.6-4.8-2.2-9.8,1.1-13.2c3.4-3.5,8.9-4.6,13.1-2.5
						c1.2,0.6,1.7,2,1.1,3.2c-0.6,1.2-2,1.7-3.2,1.1c-2.3-1.2-5.6-0.5-7.5,1.5c-1.9,1.9-2,4.6-0.3,7.6c0.6,1.2,0.2,2.6-1,3.2
						C2995.1,866.8,2994.1,866.7,2993.4,866.2z"/>
				</g>
				<path class="st8" d="M2893,863.8c-0.9-1.5,0.4-3.4,2.1-3c4.4,0.9,11.8,2.3,18.9,3c7.1,0.6,14.6,0.6,19.1,0.4
					c1.8-0.1,2.8,2,1.6,3.4c-3.6,4.1-11,10.2-21.8,9.2C2902,875.7,2895.9,868.5,2893,863.8z"/>
			</g>
		</g>
	</g>
	<path class="st4" d="M2841.8,918.2c0,0-4.9-2.1-127.7-31.8c0,0-0.1,0-0.1,0l-46.5,34.5c-0.1,0-0.1,0.1,0,0.2
		c30.3,38.4,169,68.7,169,68.7L2841.8,918.2C2841.8,918.3,2841.8,918.2,2841.8,918.2z"/>
	<polygon class="st1" points="2898.2,916.7 2942.4,912.6 2985.1,924.5 2937,974 	"/>
	<path class="st3" d="M2913.5,939.5c18,14.8,23.4,25,59.9,5.2l5.7-58.7l-62.2-4.9L2913.5,939.5z"/>
	<path class="st1" d="M2996.4,948.2L2996.4,948.2l-13.1-5.2l1.8-18.5l-36.3,29.1l-10.2,1.6l-9.8-3.4l-30.5-35.1l-1.6,18.5l-11.5,2.3
		l0,0l-41.6,6.7l-5,231l-16.4,78.6c55.2,18.4,117,23,177.7,14.6l-2-78.9l43.1-225.7L2996.4,948.2z"/>
	<polygon class="st5" points="2930.6,978.6 2904.5,1155 2918.9,1175 2937.7,1160.6 2944.1,980.1 	"/>
	<polygon class="st5" points="2929,957.8 2938.5,955.3 2948.2,959.5 2944.1,980.4 2930.5,979.2 	"/>
	<g>
		<path class="st5" d="M2897.6,918.7l-7,212.9l-28.2,137.2c0,0-44.6-4.5-72-30.6l35.1-103.3l15.2-217.1L2897.6,918.7z"/>
		<polygon class="st13" points="2897.6,918.7 2890.6,1128.8 2858.2,967.8 		"/>
	</g>
	<g>
		<path class="st5" d="M2988.4,931.8l-57.9,345.4c0,0,76.8,9.4,108.4-11.3l-17.1-113.5l21-192.8L2988.4,931.8z"/>
		<polygon class="st13" points="2988.4,931.8 2954.6,1134.3 3015.2,981.5 		"/>
	</g>
	<path class="st4" d="M2623.1,750.7c19.3-6.4,29.4-9.3,44.4-9.3c35.4,105.6,60.7,145.4,50.2,175.7c-8.8,25.3-36.6,23.3-50.2,4.3
		C2649.6,896.4,2633.7,801.5,2623.1,750.7z"/>
	<g>
		<g>
			<path class="st10" d="M2902.2,1413.8c-0.7-2.8-0.8-5.7-0.3-8.4c1.1-26.3,37.1-33.9,87.3-48.5c8.4-2.4,0.9-11.1-7.8-32.1
				c-5.7-13.7-2.2-37.8,13.2-41.9c25.4-6.7,6.2,19.7,41.8,63.1c19,23.2,41.9,1.3,48.9,27.8l15.9,60.3c2.7,10.3,4.3,20.5-9.8,26
				c-13.7,5.3-7.9,14.5-28.3,19.9l-102,27c-10.4,2.7-21.1-3.4-23.8-13.8c-1.1-4.3-0.7-8.6,0.9-12.4c-6.6-1.7-12.2-6.7-14-13.7
				c-1.1-4.3-0.7-8.6,0.9-12.4c-6.6-1.7-12.2-6.7-14.1-13.8c-1.4-5.1-0.5-10.3,2-14.6C2907.9,1424.1,2903.8,1419.7,2902.2,1413.8
				L2902.2,1413.8z"/>
			<path class="st11" d="M2974.6,1414.7l-48.6,12.9c-6.6,1.7-13.8-0.1-18.6-4.9c-2-2-2-5.2,0-7.2c2-2,5.2-2,7.2-0.1
				c2.3,2.3,5.7,3.2,8.8,2.3l49.8-13.2c4.9-1.3,7.9-6.4,6.6-11.3c-1.3-4.9-6.4-7.8-11.3-6.5l-33.3,8.8c-2.7,0.7-5.5-0.9-6.2-3.6
				c-0.7-2.7,0.9-5.5,3.6-6.2l33.3-8.8c10.4-2.7,21.1,3.4,23.8,13.8c1.5,5.8,0.2,11.6-3,16.1c4.4,2.5,7.8,6.6,9.2,11.9
				c1.5,5.8,0.2,11.6-3.1,16.2c4.4,2.5,7.7,6.6,9.1,11.8c1.7,6.3,0,12.7-3.9,17.4c3.8,2.5,6.8,6.4,8.1,11.1
				c2.7,10.3-3.5,21-13.9,23.7l-31,8.2c-6.6,1.7-13.8-0.1-18.6-4.9c-2-2-2-5.2-0.1-7.2c2-2,5.2-2,7.2-0.1c2.3,2.3,5.7,3.2,8.9,2.3
				l31-8.2c4.9-1.3,7.9-6.4,6.6-11.3c-1.3-4.9-6.4-7.8-11.3-6.5l-36.8,9.7c-6.6,1.7-13.8-0.1-18.6-4.9c-2-2-2-5.2-0.1-7.2
				c2-2,5.2-2,7.2-0.1c2.4,2.3,5.7,3.2,8.9,2.3l39.9-10.6c4.9-1.3,7.9-6.4,6.6-11.3c-1.3-4.9-6.4-7.8-11.3-6.5l-45.7,12.1
				c-6.6,1.7-13.8-0.1-18.6-4.9c-2-2-2-5.2-0.1-7.2c2-2,5.2-2,7.2-0.1c2.4,2.3,5.7,3.2,8.9,2.3l47-12.4c4.9-1.3,7.9-6.4,6.6-11.3
				C2984.6,1416.3,2979.6,1413.4,2974.6,1414.7L2974.6,1414.7z"/>
		</g>
		<path class="st12" d="M3106.7,1461.1l31.8-8.4c4.4-1.2,7-5.7,5.9-10.1l-24.9-94.4c-1.2-4.4-5.7-7-10.1-5.9l-31.8,8.4
			c-4.4,1.2-7,5.7-5.9,10.1l24.9,94.4C3097.8,1459.6,3102.3,1462.2,3106.7,1461.1z"/>
	</g>
	<g id="c_1_">
		<path class="st3" d="M3099.1,1312.7l0.6,25.3c0,0-18-0.5-18.7,11.8l16.9,0.5c0,0,10.3,13.3-4.5,39.3c-5.9,25.5,12.8,14.7,14,23.1
			c1.9,12.5,26.5-8.9,30.4-34.3c5.1-32.9-1.7-36.9-1.7-36.9l-7.4-25L3099.1,1312.7z"/>
	</g>
	<path class="st4" d="M3042.7,959.6c29.4,3.1,101.9,184.2,101.9,184.2l-4.8,182.9l-47.6-7.7l-10.8-156.1l-50.2-98L3042.7,959.6z"/>
	<path class="st8" d="M2938.5,955.3c0,0-16.4,16.6-31.5,20.8l-17.8-47l9-12.4L2938.5,955.3z"/>
	<path class="st8" d="M2938.5,955.3c0,0,9.4,16.1,27.3,26.1l25.9-43.3l-6.7-13.6L2938.5,955.3z"/>
</g>
<g>
	<g>
		<g>
			<g>
				<g>
					<path class="st3" d="M2263.4,645.2c-0.5,8.4,1.8,17.9-1.2,25.9l18.7,9.8c22.8-14.2,25.9-45.1,26.2-48.6
						c0.8-8.9,1.7-13.1,0.5-13.8c-1.2-0.7-9.1-2.9-10.7,10.1c-2,16.2-14.9,5.5-2.6-27.5c3.1-8.2-0.9-23.8-6.9-18.2
						C2280.8,589.3,2265.7,607.1,2263.4,645.2z"/>
				</g>
			</g>
		</g>
	</g>
</g>
<g>
	<polygon class="st3" points="2418.9,1765.6 2416.3,1792.6 2438.9,1799.5 2457.1,1780.1 2460.1,1768.9 	"/>
	<polygon class="st3" points="2348.2,1788.5 2345.1,1763.9 2393.2,1760.7 2392.6,1788.4 	"/>
	<path class="st4" d="M2387.2,758.1c-26.3-23.9-73-22.4-80.2,15.1c-7.1,37.5-4.7,62.4-51.3,56.6c-37.1-4.6-75.3,28.7-75.3,81.2
		c0,67.1,46.5,40.9,35.7,74.1c-10.8,33.1-17.7,66.7,30.3,67.8c47.9,1.1,85.2-39.1,79.5-93.6c-5.6-54.5,29.3-34.5,39.4-61.5
		C2379.8,859.4,2387.2,758.1,2387.2,758.1z"/>
	<path class="st14" d="M2491.2,1219.4c0,0,34.7,220,25.4,314.2c-9.4,94.3-56.5,235.3-56.5,235.3l-41.2-3.3c0,0,2.6-14.5,1.3-69.9
		c-1.3-55.5-9.6-133.6,22.4-170.6c-4-72.1-49.4-305.7-49.4-305.7H2491.2z"/>
	<path class="st14" d="M2320.3,1212c-18,64.7-19,244-4.1,347.5c14.9,103.5,28.8,204.4,28.8,204.4l48.1,0.7c0,0,0-206.9,0-251.3
		c0-44.4,12-181.2,12-181.2l15-112.8L2320.3,1212z"/>
	<ellipse class="st3" cx="2413.5" cy="832.7" rx="58.2" ry="78.3"/>
	<path class="st3" d="M2390.8,894.9v83.2c0,0,27.7,14.8,51.8,0c-3.7-18.5-5.9-77.4-5.9-77.4L2390.8,894.9z"/>
	<path class="st15" d="M2341.2,939.8h138c0,0,24.8,55.6,21.4,103.3c-3.4,47.6-9.4,177.2-9.4,177.2s-117.6,11.4-171.7-5.2
		c-4.3-97.7-0.3-173,1.7-204.7C2323.2,978.6,2341.2,939.8,2341.2,939.8z"/>
	<path class="st16" d="M2390.8,939.8c-3.5-1.7-34.7-2.9-34.7-2.9s-47.9-99.9-64.6-129.6c-11.4-47.7-10.6-126.3-10.6-126.3l-18.7-9.8
		c0,0-31.3,93.7-23.4,137.1c2.1,11.4,61.1,164.4,61.1,164.4s-14.4,181.5-21.8,224.5c51.5,11.5,85,3,85,3L2390.8,939.8z"/>
	<path class="st16" d="M2438.7,939.8l26.2,260.3c0,0,21.5,6.9,67.7-6.8c1.8-55-17.8-227.8-17.8-227.8s41.2-68,66.1-168.3
		c-1.8-37.8-18.2-124.4-18.2-124.4l-47.9-2.6l17,122.4c0,0-58.7,128.1-64.8,146.6C2446.7,937.6,2438.7,939.8,2438.7,939.8z"/>
	<path class="st5" d="M2351.4,832.7c32.1-4.1,62-22,78.9-45.2c10.9,27.1,41.4,45.2,41.4,45.2s22.9-51.8-18.7-79.7
		C2413.3,726.3,2318.6,744.5,2351.4,832.7z"/>
	<path d="M2389,849.4c-3.4,0-6.2-2.8-6.2-6.2c0-3.4,2.8-6.2,6.2-6.2s6.2,2.8,6.2,6.2C2395.2,846.6,2392.4,849.4,2389,849.4z"/>
	<path d="M2438.3,849.4c-3.4,0-6.2-2.8-6.2-6.2c0-3.4,2.8-6.2,6.2-6.2s6.2,2.8,6.2,6.2C2444.5,846.6,2441.7,849.4,2438.3,849.4z"/>
	<g>
		<path class="st5" d="M2449.2,837.6c-1,0-2-0.5-2.6-1.5c-1.5-2.6-3.4-4.1-5.5-4.6c-3.7-0.8-7.3,1.6-7.3,1.7
			c-1.3,0.9-3.2,0.6-4.1-0.8c-0.9-1.3-0.6-3.2,0.7-4.1c0.2-0.2,5.7-3.9,12-2.6c3.8,0.8,7,3.3,9.4,7.4c0.8,1.4,0.4,3.2-1,4.1
			C2450.2,837.5,2449.7,837.6,2449.2,837.6z"/>
	</g>
	<g>
		<path class="st5" d="M2377.2,837.9c-0.7,0-1.3-0.2-1.9-0.7c-1.3-1-1.5-2.9-0.5-4.2c3.9-4.9,8.2-7.5,12.9-7.9
			c6-0.5,10.1,3.2,10.2,3.4c1.2,1.1,1.3,3,0.2,4.2c-1.1,1.2-3,1.3-4.2,0.2c-0.1-0.1-2.5-2.1-5.9-1.8c-2.9,0.3-5.8,2.2-8.6,5.7
			C2379,837.5,2378.1,837.9,2377.2,837.9z"/>
	</g>
	<path class="st9" d="M2419.6,851.3c8,5.8,10.5,8.1,13.6,10.1c-2.1,7.1-13.3,10.7-16.5,9.9c7.8-3.8,8.9-9.1,8.9-9.1L2419.6,851.3z"
		/>
	<path class="st3" d="M2363.9,838.7c6.7,8.5,7,19.3,0.7,24.3c-6.3,4.9-16.8,2.1-23.4-6.3c-6.7-8.5-7-19.3-0.7-24.3
		C2346.8,827.4,2357.3,830.2,2363.9,838.7z"/>
	<g>
		<path class="st9" d="M2358.1,857c-0.3,0-0.5-0.1-0.8-0.2c-1-0.4-1.5-1.6-1.1-2.6c1.4-3.4,1.4-6,0.1-8c-2.1-3-7-4-10.6-3.9
			c-1.1,0-2-0.8-2-1.9c0-1.1,0.8-2,1.9-2c4.8-0.2,11,1.2,14,5.6c1.5,2.2,2.8,6,0.3,11.8C2359.6,856.5,2358.8,857,2358.1,857z"/>
	</g>
	<path class="st8" d="M2398,881.8c-0.8-1.4,0.3-3,1.9-2.7c4,0.8,10.5,2.1,16.8,2.6c6.3,0.6,13,0.5,17,0.4c1.6,0,2.4,1.8,1.4,3
		c-3.2,3.7-9.8,9.1-19.4,8.2S2400.6,886,2398,881.8z"/>
	<g>
		<path class="st6" d="M2439.4,1796.5c5.6-14.8,17.6-16.4,17.6-16.4c23.4,31.2,80.7,12,78.8,54.2c-87.2-0.5-123.5,0-123.5,0
			c0.1-9.7,1.8-32.7,3.9-41.7l4.5,0.8L2439.4,1796.5z"/>
		<path class="st8" d="M2530.9,1845.5h-113.4c-2.8,0-5.1-2.3-5.1-5.1v-7.3H2536v7.3C2536,1843.3,2533.7,1845.5,2530.9,1845.5z"/>
	</g>
	<g>
		<path class="st6" d="M2403.2,1834.4c0,0-6.9-25.6-7.5-28.9c-0.7-3.7-2.7-12.6-3.1-17.1c-0.1-1.1-11.9-8.3-20.9-8.3
			c-12.2,0-23.3,7.1-23.5,8.4c-1.4,8.5-1.5,18.6-3.8,26.9c-1.7,6.2-6.4,20.6-6.4,20.6L2403.2,1834.4z"/>
		<g>
			<g>
				<g>
					<g>
						<path class="st8" d="M2403.2,1832.4c-1.6,5.1-21.3-0.8-35.7-0.8c-12.1,0-27.7,4.7-29.5,2.9c-3,5.3-0.5,16.4-0.5,16.4
							s12.6,0.7,27.7,0c15.1-0.7,32.6,0.3,39.1-1.6C2408.4,1842.3,2403.2,1832.4,2403.2,1832.4z"/>
					</g>
				</g>
			</g>
		</g>
	</g>
</g>
<g>
	<g>
		<path class="st3" d="M505.6,1788.6l23.3-91.6l-57.7-7.9c-2,43.3-5.2,86-4.9,97.6L505.6,1788.6z"/>
		<path class="st3" d="M367.9,1688.5h-60.3c2,14.4,9.9,92.7,9.9,92.7c5.1,11.6,50,8.9,50,2.4
			C364.1,1769.5,367.6,1690.3,367.9,1688.5z"/>
		<path class="st7" d="M466.4,1724.3l59.4,8.8l41.2-246.5c-8.5-93.5-90.8-292.6-90.8-292.6l-92.8,32.5l-2.3,87.8l111.8,189.3
			C478.4,1540.2,468.4,1658.5,466.4,1724.3z"/>
		<path class="st6" d="M420.5,1200.7c-0.8-5.8-1.1-7.6-5.9-10.5l-89.1-25.3l-21.2,20.9c-20.1,73-7.6,174.4,8.2,255
			c-23.2,69.7-14.1,213.4-4.8,280.9H371c3.7-45.1,2.5-128.9,2.8-169.3l0,0c8.2-32.5,16.1-67.2,23.2-103.7
			c9.1-46.6,20.4-91.7,23.5-134C423.3,1274.7,424.2,1231.7,420.5,1200.7z"/>
	</g>
	<path class="st5" d="M462.8,940.1c34.2-7.3,108.3-33.6,81.3-85.2c-27-51.6-43.5-33.5-23.6-88.9c19.9-55.4-14.5-105.9-54.7-99.9
		c-40.3,6-54.4,36-100.8,21.5c-46.3-14.5-91.9,24.5-79.3,65.4c12.6,40.9,17.6,60.5-2,79.5c-19.6,19-98,31.6-73.7,86.9
		c24.3,55.3,39.1,54.2,24.6,78.8c-14.5,24.6,6.5,57.9,50.7,59.8c44.2,1.9,85.9-9.1,108.6-55.6C416.7,955.9,462.8,940.1,462.8,940.1z
		"/>
	<path class="st3" d="M342.5,786.4c-4.7,44.6,19.8,83.8,54.9,87.5c35.1,3.7,67.3-29.4,72-74.1c4.7-44.6-19.8-83.8-54.9-87.5
		C379.5,708.6,347.2,741.8,342.5,786.4z"/>
	<path class="st3" d="M352.4,839.8l55.3,34.3c0,0,4.9,24.5,7.4,32.4c5.1,16.4-14.3,23.5-30.7,13.3c-16.4-10.2-27-23.8-27-23.8
		L352.4,839.8z"/>
	<path class="st5" d="M483.6,780.6c-16.2-1.1-28.1-12.1-38.4-29c-20.5,43.2-101.8,55.6-106.8,46.5c3.6-31.4,11.2-79.9,70.9-95.1
		C456.1,691.1,483.6,780.6,483.6,780.6z"/>
	<path d="M451.2,803.8c1.5,3,5.2,4.3,8.2,2.8c3-1.5,4.3-5.2,2.8-8.2c-1.5-3-5.2-4.3-8.2-2.8C450.9,797.1,449.7,800.8,451.2,803.8z"
		/>
	<path d="M402.9,798.4c1.6,3.3,5.6,4.6,8.9,3c3.3-1.6,4.6-5.6,3-8.9c-1.6-3.3-5.6-4.6-8.9-3C402.6,791.2,401.2,795.1,402.9,798.4z"
		/>
	<g>
		<path class="st5" d="M467,795.7c0.2-0.1,0.5-0.2,0.7-0.4c1-0.8,1.2-2.2,0.4-3.2c-6-7.9-15-6.2-15.4-6.1c-1.2,0.2-2.1,1.5-1.8,2.7
			c0.2,1.2,1.4,2.1,2.7,1.8c0.3-0.1,6.6-1.1,10.8,4.4C465.1,795.8,466.1,796.1,467,795.7z"/>
	</g>
	<path class="st9" d="M439.9,812.3c1.6,4.5,2.8,9,4.9,12.2c0.7,1.1,0.4,2.5-0.6,3.3c-4.3,3.1-12.7,3.4-17.8,3.3
		c-0.7,0-0.9-1.1-0.2-1.3c6-1.8,9.1-3.7,10.5-4.9c0.7-0.6,1.1-1.5,1.1-2.4c-0.1-2.1-0.2-6.4-0.1-9.9
		C437.9,811.4,439.5,811.2,439.9,812.3z"/>
	<path class="st3" d="M357.3,805.8c6.6,8.3,6.4,19.3-0.3,24.7c-6.8,5.4-17.6,3.1-24.1-5.2c-6.6-8.3-6.4-19.3,0.3-24.7
		C339.9,795.3,350.7,797.6,357.3,805.8z"/>
	<g>
		<path class="st9" d="M350.6,823.6c0.3-0.2,0.6-0.4,0.8-0.7c3.2-4.3,3.5-9,0.8-12.8c-2.8-3.8-7.9-5.6-12.2-4.2
			c-1.2,0.4-1.9,1.7-1.5,2.9c0.4,1.2,1.7,1.9,2.9,1.5c2.4-0.8,5.4,0.3,7,2.5c1.5,2.1,1.2,4.7-0.7,7.3c-0.8,1-0.6,2.5,0.5,3.2
			C348.9,823.9,349.8,824,350.6,823.6z"/>
	</g>
	<path class="st16" d="M479,982.2l-15.4-64.4c-8.6-4.7-49.4-14.5-49.4-14.5l-4.8,15.7l-45.5-23l-53.4,8.1
		c-8.9,38.6-1.8,50.3,0.9,96.3c1.5,21.7,0.8,74.6,5.6,112.2c-19.6,44.3-31.7,86-31.9,98.8c0,0,142.6,31.9,147.3,31.9l10.7-28.1
		l20.5,22.3c3.9-2,26.7-29.1,26.7-29.1c-9.2-34.5-14.3-89.6-14.3-89.6L479,982.2z"/>
	<path class="st14" d="M356.8,888.8l-30.5,13c2.7,30.6,78.7,48.5,78.7,48.5l4.3-31.3L356.8,888.8z"/>
	<path class="st14" d="M409.3,919l13.6,18.4c0,0,15.6-18.6,9.2-29.8c-6.3-11.2-20.3-14.1-20.3-14.1L409.3,919z"/>
	<g>
		<path class="st9" d="M422.7,854.9c-1.5,0-3-0.1-4.4-0.4c-10.8-2.1-16.9-11.2-17.1-11.6c-0.8-1.2-0.4-2.8,0.7-3.6
			c1.2-0.8,2.8-0.5,3.6,0.7l0,0c0.1,0.1,5.2,7.7,13.9,9.3c5.6,1.1,11.7-0.6,17.9-4.9c1.2-0.8,2.8-0.5,3.6,0.6
			c0.8,1.2,0.5,2.8-0.6,3.6C434.2,852.8,428.4,854.9,422.7,854.9z"/>
	</g>
	<g>
		<g>
			<path class="st10" d="M669.9,954.4c-0.4-4.1-1.8-7.8-3.8-11.1c-14.4-33.8-65.1-26.1-137.8-20.4c-12.1,1-6.7-14-5.6-45.7
				c0.7-20.6-15.7-50.5-37.8-48.3c-36.5,3.7,1.5,28.8-23.5,103c-13.4,39.6-54.1,22.4-50.2,60.4l8.8,86.6
				c1.5,14.8,4.4,28.9,25.6,29.1c20.5,0.2,17.4,15.1,46.7,12.1l146.5-14.9c14.9-1.5,25.8-14.8,24.3-29.7c-0.6-6.2-3.4-11.5-7.3-15.7
				c7.8-5.5,12.6-14.8,11.6-24.9c-0.6-6.1-3.4-11.5-7.3-15.7c7.8-5.5,12.6-14.8,11.6-24.9c-0.7-7.3-4.4-13.7-9.7-18.1
				C667.5,970.7,670.8,962.8,669.9,954.4L669.9,954.4z"/>
			<path class="st11" d="M575.8,991.2l69.8-7.1c9.5-1,17.9-6.9,21.9-15.6c1.7-3.6,0.1-7.8-3.5-9.4c-3.6-1.7-7.8-0.1-9.5,3.5
				c-1.9,4.1-5.9,6.9-10.4,7.4l-71.5,7.3c-7.1,0.7-13.4-4.4-14.2-11.5c-0.7-7.1,4.5-13.4,11.5-14.1l47.8-4.9
				c3.9-0.4,6.8-3.9,6.4-7.8c-0.4-3.9-3.9-6.7-7.8-6.3l-47.8,4.9c-14.9,1.5-25.8,14.8-24.3,29.7c0.8,8.3,5.4,15.2,11.9,19.6
				c-4.5,5.4-6.9,12.5-6.1,20c0.8,8.3,5.5,15.3,11.9,19.6c-4.5,5.4-6.8,12.5-6.1,19.9c0.9,9.1,6.3,16.6,13.7,20.8
				c-3.8,5.2-5.8,11.7-5.1,18.5c1.5,14.9,14.9,25.7,29.8,24.2l44.5-4.5c9.5-1,17.9-6.9,21.9-15.6c1.7-3.6,0.1-7.8-3.5-9.4
				c-3.6-1.6-7.8-0.1-9.5,3.5c-1.9,4.1-5.9,6.9-10.4,7.4l-44.5,4.5c-7.1,0.7-13.4-4.4-14.2-11.5c-0.7-7.1,4.5-13.4,11.5-14.1
				l52.8-5.4c9.5-1,17.9-6.9,21.9-15.6c1.7-3.6,0.1-7.8-3.5-9.4c-3.6-1.7-7.8-0.1-9.5,3.5c-1.9,4.2-5.8,6.9-10.4,7.4l-57.3,5.8
				c-7.1,0.7-13.4-4.4-14.2-11.5c-0.7-7.1,4.5-13.4,11.5-14.1l65.7-6.7c9.5-1,17.9-6.9,21.9-15.6c1.7-3.6,0.1-7.8-3.5-9.4
				c-3.6-1.6-7.8-0.1-9.5,3.5c-1.9,4.2-5.8,6.9-10.4,7.4l-67.5,6.9c-7.1,0.7-13.4-4.4-14.2-11.5
				C563.5,998.3,568.7,991.9,575.8,991.2L575.8,991.2z"/>
		</g>
		<path class="st12" d="M426.1,1116.7l-45.6,4.7c-6.3,0.6-12-4-12.6-10.3l-13.8-135.5c-0.6-6.3,4-12,10.3-12.6l45.6-4.7
			c6.3-0.6,12,4,12.6,10.3l13.8,135.5C437,1110.4,432.4,1116,426.1,1116.7z"/>
	</g>
	<g>
		<g>
			<g>
				<g>
					<g>
						<g>
							<path class="st3" d="M467.1,1121.4c-8.6-1.3-17.9-6.2-24.8-1.2l-11.1-20.1c19.3-19.9,54.8-20.5,58.3-20
								c9.2,1.1,13.6,1.1,14,2.5c0.4,1.4,0.9,9.9-12.5,8.6c-16.8-1.6-8.8,13.9,27.2,8.6c9-1.3,23.8,6.1,16.8,11
								C527.4,1115.9,506.2,1127.3,467.1,1121.4z"/>
						</g>
					</g>
				</g>
			</g>
		</g>
		<path class="st3" d="M292.8,1069.3c-13.4,4.5-21.2,46.5-17.4,49.7c57,22.9,169.7,0.6,169.7,0.6l9.7-20.8
			C454.8,1098.8,367.9,1090.6,292.8,1069.3z"/>
		<path class="st3" d="M273,943.7c-8.8,37.8-6.7,164.5,2.3,175.3l45.7-31c0,0,13.6-127.1,15.1-148.8
			C338.9,901.7,287.2,881.9,273,943.7z"/>
	</g>
	<path class="st14" d="M273,943.7c-8.8,37.8-19.1,144.8-10.1,155.6l65.2-30.9c0,0,6.5-107.6,8.1-129.2
		C338.9,901.7,287.2,881.9,273,943.7z"/>
	<path class="st17" d="M258.1,1099.2l70-30.7c0,0,4.9,0,3.4,5.6c0,0,11.2,2.1,13.5,8.4l-48.5,51.8c0,0-16.1-1.5-20.7-14.8
		C275.6,1119.4,259,1114.4,258.1,1099.2z"/>
	<path id="c_4748_" class="st3" d="M650.2,932.5c-0.4-0.6-0.7-1.2-0.9-1.8c-0.1,0.1-0.2,0.2-0.3,0.2c-5.7,4.3-12.8,4.5-15.8,0.4
		c-0.5-0.7-0.9-1.4-1.1-2.2c-4.3,1.4-8.6,0.7-10.8-2.2c-0.9-1.2-1.3-2.5-1.4-4c-4.2,1.7-8.8,0.8-11.3-2.4c-3.1-4.1-1.7-10.3,3.2-14
		c4.8-3.7,11.3-3.3,14.3,0.7c0.8,1,1.3,2.2,1.5,3.4c5.3-3.2,11.4-3,14.2,0.7c0.5,0.7,0.9,1.4,1.1,2.2c4.3-1.4,8.6-0.7,10.8,2.2
		c0.8,1.1,1.3,2.3,1.4,3.7c3.7-1.6,7.8-1,10,1.8c2.6,3.4,1.4,8.7-2.7,11.8C658.2,936.2,652.8,935.9,650.2,932.5z"/>
	<g>
		<path class="st5" d="M491.6,1787.1c6-15.9,18.9-17.6,18.9-17.6c25.1,33.5,86.7,12.9,84.7,58.2c-93.7-0.6-132.6,0-132.6,0
			c0.1-10.4,2-35.1,4.1-44.7l4.9,0.9L491.6,1787.1z"/>
		<path class="st8" d="M589.7,1839.8H468c-3,0-5.5-2.4-5.5-5.5v-7.9h132.7v7.9C595.2,1837.4,592.8,1839.8,589.7,1839.8z"/>
	</g>
	<g>
		<path class="st5" d="M378.2,1828.2c0,0-7.5-28.1-8.2-31.7c-0.8-4.1-3-13.8-3.4-18.8c-0.1-1.2-13-9.1-22.9-9.1
			c-13.4,0-25.5,7.8-25.8,9.2c-1.6,9.4-1.6,20.4-4.2,29.5c-1.9,6.8-7.1,22.6-7.1,22.6L378.2,1828.2z"/>
		<g>
			<g>
				<g>
					<g>
						<path class="st8" d="M378.2,1826c-1.8,5.6-23.4-0.9-39.2-0.9c-13.2,0-30.4,5.1-32.3,3.1c-3.3,5.9-0.6,18-0.6,18
							s13.8,0.7,30.4,0c16.6-0.7,35.7,0.3,42.9-1.8C384,1836.8,378.2,1826,378.2,1826z"/>
					</g>
				</g>
			</g>
		</g>
	</g>
</g>
<g>
	<g id="c_4682_">
		<g>
			<polygon id="v-2_2_" class="st3" points="2049.4,837.5 2049.4,837.5 2018.9,837.6 2012,903.6 2012,909.5 2047.6,928.3 
				2085.5,909.7 2079.4,837.6 			"/>
			<g>
				<g>
					<path class="st3" d="M2133.1,805.8c-18.7,46.8-63.7,72.8-100.5,58.1c-36.8-14.7-51.4-64.6-32.7-111.4
						c18.7-46.8,63.7-72.8,100.5-58.1C2137.2,709,2151.8,758.9,2133.1,805.8z"/>
					<path d="M2015.9,767.8c-2.2,3.1-6.5,3.9-9.6,1.7c-3.1-2.2-3.9-6.5-1.7-9.6c2.2-3.1,6.5-3.9,9.6-1.7
						C2017.3,760.4,2018.1,764.7,2015.9,767.8z"/>
					<path d="M2067.5,788.9c-2.4,3.4-7,4.2-10.4,1.9c-3.4-2.4-4.2-7-1.9-10.4c2.4-3.4,7-4.2,10.4-1.9
						C2069,780.9,2069.8,785.5,2067.5,788.9z"/>
					<path class="st9" d="M2026.3,778.8c-9.3,7.3-21,16.2-21,16.2s-0.1,11.2,13,16.1c-4.7-4.3-8.9-10-4-16.7
						C2019.3,787.8,2026.3,778.8,2026.3,778.8z"/>
					<g>
						<path class="st4" d="M2081,784.4c0.3,0,0.5,0,0.8-0.1c1.8-0.4,3-2.3,2.5-4.1c-1.2-5-6.2-14.6-16.7-14.6
							c-1.9,0-3.4,1.5-3.5,3.4c0,1.9,1.5,3.4,3.4,3.5c7.8,0,10.1,9.3,10.1,9.4C2078.1,783.3,2079.5,784.4,2081,784.4z"/>
					</g>
					<g>
						<path class="st4" d="M2023.1,753.3c0.5,0,1-0.1,1.4-0.4c1.4-0.8,1.8-2.6,1-3.9c-0.1-0.2-3.1-5.3-8.8-6.3
							c-3.9-0.7-7.9,0.6-11.9,3.8c-1.2,1-1.4,2.8-0.4,4c1,1.2,2.8,1.4,4,0.4c2.7-2.1,5.1-3,7.3-2.6c3.1,0.6,4.9,3.5,4.9,3.6
							C2021.2,752.8,2022.1,753.3,2023.1,753.3z"/>
					</g>
					<path class="st4" d="M2158.6,770.8c15.8-45.1-22.8-71.1-22.8-71.1s10.4-0.9,11.6-15.5c-7.8,2.4-16.4,2.2-24.1-0.5
						c-51.5-18.6-86.9-18.4-86.9,3.6c0,7.8-35.2,2.9-32.3,55.6c4.7-4.9,13.2-25.8,24.6-28c11.5-2.2,1.1,13.2,25.1,16.5
						c24.2,3.3,42-2.6,56.8,11.1c11.6,11.9,14.4,72.5,12.7,76.1C2127.4,810.3,2151.7,790.6,2158.6,770.8z"/>
					<path class="st4" d="M1992.8,778.8c0,0-2.2,27.5,1.8,36c4.1-11,13,0.7,21.3,1.8c20.1,2.7,56.3-4,59.9,26.1
						c24.6,7.8,47.5-44.8,47.5-44.8c1.4,58.7-41.6,92.1-103.4,82.3C1979.2,873.7,1975.4,817,1992.8,778.8z"/>
					<g>
						<path class="st9" d="M2035.1,835.1c4-0.9,8.1-2.6,12.4-4.9c1.1-0.6,1.5-2,0.9-3.1c-0.6-1.1-2-1.5-3.1-0.9
							c-9.5,5.1-18,6.5-25.3,4.3c-9-2.8-13.2-10.4-13.2-10.4c-0.6-1.1-2-1.5-3.1-1c-1.1,0.6-1.6,2-1,3.1c0.2,0.4,5,9.3,15.8,12.7
							C2023.7,836.4,2029.3,836.5,2035.1,835.1z"/>
					</g>
					<g>
						<path class="st3" d="M2123.9,798.2c-10.3,5.8-14.9,17.4-10.1,25.8c4.8,8.5,17,10.6,27.3,4.8c10.3-5.8,14.9-17.4,10.1-25.8
							C2146.5,794.6,2134.3,792.4,2123.9,798.2z"/>
						<g>
							<path class="st9" d="M2125.5,823.6c-0.3-0.2-0.6-0.5-0.8-0.9c-2.8-5.3-2.4-10.6,1.2-14.3c3.7-3.8,9.7-4.9,14.2-2.6
								c1.3,0.6,1.8,2.2,1.1,3.5c-0.6,1.3-2.2,1.8-3.5,1.1c-2.5-1.3-6.1-0.6-8.2,1.6c-2,2.1-2.2,5-0.4,8.3c0.7,1.3,0.2,2.8-1.1,3.5
								C2127.3,824.2,2126.3,824.1,2125.5,823.6z"/>
						</g>
					</g>
				</g>
			</g>
		</g>
		<path d="M1993.9,1778.2c-26.9,37.1-93,14.3-90.8,64.6c100.5-0.6,142.3,0,142.3,0c-0.1-11.5-2.1-38.9-4.4-49.6L1993.9,1778.2z"/>
		<path d="M2152.4,1778.2c-26.9,37.1-93,14.3-90.8,64.6c100.5-0.6,142.3,0,142.3,0c-0.1-11.5-2.1-38.9-4.4-49.6L2152.4,1778.2z"/>
		<path class="st4" d="M1948.1,1210.4c0,0-29.2,246.6-22.5,299.6c6.6,52.9,42.9,112.2,40.3,287.2c32.8,8.2,80.2,0,80.2,0
			s7-197.9-27.6-286.3c14.1-85.9,59.3-282.6,59.3-282.6L1948.1,1210.4z"/>
		<path class="st5" d="M2009.4,1217.7c0,0,33,267.2,49.1,317.9c16.1,50.7,38.1,89.1,67.3,261.6c33.7,1.7,74.5,4.4,74.5,4.4
			s-4.5-218.7-57-268.5c-1.8-87.1,8.5-313.7,8.5-313.7L2009.4,1217.7z"/>
		<g id="v_62_">
			<path id="h-5_2_" class="st6" d="M2161.3,914.4c0,0-57.2-20-76.3-10.8c-59.3,28.6-72.9,0-72.9,0c-20.8-4.6-69.9-4.6-69.9-4.6
				c-6.2,83-16.5,348.5-16.5,348.5s63.1,16.5,122.8,17c59.7-0.4,120.5-16.3,120.5-16.3s-3.2-116.1-5.8-159.2
				C2163.9,1040.6,2161.3,978.1,2161.3,914.4z"/>
		</g>
		<g id="c_4746_">
			<path class="st3" d="M2193.7,1167.9l-10.9,13.4c0,0-4-18.3-16.6-15.9v19.6c0,0-7.1,11.3-37,3c-27.1,0.5-11.6,16.6-19.8,20
				c-12.1,5,15.7,24.5,42.3,22c34.4-3.2,36.7-10.9,36.7-10.9l20.4-14.7L2193.7,1167.9z"/>
		</g>
		<path class="st7" d="M2161.3,914.4c52.3,22.5,116.5,74.3,156,156.5c13.5,28.2-50.8,33.9-63.7,22.7c-12.8-11.1-92.3-94-92.3-94
			V914.4z"/>
		<path class="st7" d="M2186,1175.7c45.7-61.5,66.2-110.2,80.9-117.7c19.7-10,52.2-9.5,52.2,24.8c0,34.4-125.5,138.5-125.5,138.5
			L2186,1175.7z"/>
		<polygon class="st7" points="1942.1,898.9 1716.6,818.7 1681.5,871.8 1936.3,997.8 		"/>
	</g>
	<g>
		<g>
			<path class="st3" d="M1344.7,887.1c4.5,12.8,45.1,20,48.2,16.3c21.5-55.3-1.2-163.8-1.2-163.8l-20.2-9.2
				C1371.5,730.5,1364.5,814.5,1344.7,887.1z"/>
			<path class="st3" d="M1243.7,994.9c37.8-12.1,145-79.9,149.8-93.4l-44.8-24c0,0-122.1,54.2-141.9,64.2
				C1172.4,959,1182,1014.8,1243.7,994.9z"/>
		</g>
		<path class="st5" d="M1272.2,790.2c2.8-38.8-8.4-73.1-39.3-90.5c-31.4-17.7-70.6-0.3-70.6-0.3l0,0c0,0-33.2-11.8-63.4,21.4
			c-30.1,33.2-7.3,62.4-19.7,86.6c-7.3,14.3-44.4,17.3-34.8,64c2.8,13.5,19,22.5,32.7,23.4c24.1,1.6,46.5-7.7,56.3,1.6
			c32.2,30.7,103.5,19.6,113.5-8.5c3.1-8.7,67.3,8.1,60.9-51.2C1304.5,806.6,1269.6,824.9,1272.2,790.2z"/>
		<g>
			<g>
				<g>
					<path class="st16" d="M1275.8,1112.4c0-32.4,28.1-81,14.6-113.8c-9.8-26.3-26.2-70.6-46.3-77.9c-9.5-3.5-19.2-5.9-31-9.2
						c0,0,3.7,21.6-10.2,22.7c-26.7,2.1-40.7-32.1-40.7-32.1c-14.4-1.4-80,20-83.1,30.6c0.2,42.5,37.3,99.7,48.6,145.6
						c4.4,49.6-6.2,76.1-6.2,81.7c0,0,93.8,31.3,156.8-3.3C1278.3,1156.6,1275.8,1134.3,1275.8,1112.4z"/>
				</g>
			</g>
		</g>
		<g>
			<g>
				<g>
					<path class="st3" d="M1200.5,874l-41.4-6.2l2.1,34.2c0,0,11.3,37.8,34.8,38.3c23.5,0.5,17-28.8,17-28.8L1200.5,874z"/>
				</g>
			</g>
		</g>
		<g>
			<path class="st3" d="M1120.8,818.5c10.7,44.6,47.7,74,82.8,65.6c35-8.4,54.8-51.3,44.1-96c-10.7-44.6-47.7-74-82.8-65.6
				C1129.9,730.9,1110.2,773.9,1120.8,818.5z"/>
			<path d="M1231.3,799.8c1.5,3.1,5.3,4.4,8.4,2.8c3.1-1.5,4.4-5.3,2.8-8.4c-1.5-3.1-5.3-4.4-8.4-2.8
				C1231,793,1229.8,796.7,1231.3,799.8z"/>
			<path d="M1182.1,812c1.7,3.4,5.7,4.7,9.1,3c3.4-1.7,4.7-5.7,3-9.1c-1.7-3.4-5.7-4.7-9.1-3C1181.8,804.6,1180.4,808.6,1182.1,812z
				"/>
			<g>
				<path class="st5" d="M1174.6,806.4c0.5-0.2,0.9-0.6,1.1-1.1c3.4-7.3,12.6-8.8,12.7-8.8c1.3-0.2,2.2-1.4,2-2.7
					c-0.2-1.3-1.4-2.2-2.7-2c-0.5,0.1-11.8,1.8-16.3,11.5c-0.5,1.2,0,2.6,1.1,3.1C1173.2,806.7,1174,806.7,1174.6,806.4z"/>
			</g>
			<g>
				<path class="st5" d="M1245,790.8c0.2-0.1,0.4-0.3,0.6-0.5c0.9-0.9,0.9-2.4,0-3.3c-7.2-7.1-16.1-4.2-16.4-4
					c-1.2,0.4-1.9,1.8-1.5,3c0.4,1.2,1.8,1.9,3,1.5c0.3-0.1,6.5-2.1,11.6,2.9C1243,791.1,1244.1,791.2,1245,790.8z"/>
			</g>
			<path class="st9" d="M1227.3,813.5c3.4,3.5,6.5,7.2,9.7,9.2c1.1,0.7,1.5,2.2,0.8,3.3c-2.7,4.7-10.4,8.6-15.1,10.6
				c-0.7,0.3-1.3-0.6-0.7-1.1c4.8-4.2,6.8-7.3,7.7-9c0.4-0.8,0.4-1.8,0-2.7c-1-1.9-2.9-5.9-4.3-9.2
				C1225,813.5,1226.4,812.6,1227.3,813.5z"/>
			<path class="st3" d="M1137.7,818.8c8.5,6.6,11,17.6,5.6,24.6c-5.4,7-16.7,7.2-25.2,0.6c-8.5-6.6-11-17.6-5.6-24.6
				S1129.2,812.2,1137.7,818.8z"/>
			<g>
				<path class="st9" d="M1132.9,841.4c0.3-0.2,0.6-0.4,0.8-0.7c3.3-4.3,3.6-9.2,0.8-13.1c-2.8-3.9-8.1-5.7-12.4-4.3
					c-1.2,0.4-1.9,1.7-1.5,3c0.4,1.2,1.7,1.9,3,1.5c2.4-0.8,5.5,0.3,7.1,2.5c1.5,2.1,1.3,4.8-0.8,7.5c-0.8,1-0.6,2.5,0.5,3.3
					C1131.1,841.7,1132.1,841.8,1132.9,841.4z"/>
			</g>
			<path class="st8" d="M1188.5,849c-1-1.3,0.1-3.2,1.7-3c4.2,0.5,11.1,1.2,17.7,1.2c6.6,0,13.5-0.7,17.7-1.2c1.6-0.2,2.7,1.7,1.7,3
				c-3,4.1-9.3,10.3-19.4,10.3S1191.6,853.1,1188.5,849z"/>
		</g>
		<path class="st5" d="M1120,814.6c41.8-5.6,100.3-48.2,105.1-70.1c-8.1-26.3-51.2-39.5-75.5-27.3
			C1125.3,729.4,1102.3,781.5,1120,814.6z"/>
		<g>
			<path class="st3" d="M1239.2,1743.6c-2.8-27.6,11.5-237.9,11.5-237.9c40.3-184.9,24.5-317.2,24.5-317.2l-69.3,4.9l-27.3,104.5
				l13,174.5c0,0-4.9,13.4-7.4,24.2c-13.9,58.2-0.1,127.8,8.5,174.2c4,21.5,10.1,66.7,10.3,76.9l-17.4,22.5c0,0,63,69.7,72.7,70.2
				c18.8,0.9,13.3-17.8,13.3-17.8C1245.6,1795.9,1240,1751.5,1239.2,1743.6z"/>
			<path class="st6" d="M1184.4,1794.8l3.5,44.8l8.1,0.4l4.1-41.6c21.4,5.5,36.8,44.4,36.8,44.4c14.8,5.3,52.3,8.9,65.6,2
				c3.2-13.1-31-22.3-31-22.3c-3.1,3.7-21.4,6.5-27.9,2.5c-23.9-20.4-35.6-49.9-40.7-77.5
				C1202.9,1747.6,1165.2,1750.2,1184.4,1794.8z"/>
		</g>
		<g>
			<path class="st3" d="M1215.8,1201.9l-97.6-13.4c-37.3,84.5-49.5,231.6-59.7,284c-40.7,68.2-53.6,275.1-53.6,275.1l-17.4,22.5
				c0,0,63,69.7,72.7,70.2c18.8,0.9,13.3-17.8,13.3-17.8c-25.9-26.6-30.9-61.9-32.6-69.7c-2.5-11.7,79-241.2,79-241.2l8.7-21.8
				c99.6-164.5,115.9-288.8,115.9-288.8L1215.8,1201.9z"/>
			<path class="st6" d="M986.4,1794.8l3.5,44.8l8.1,0.4l4.1-41.6c21.4,5.5,36.8,44.4,36.8,44.4c14.8,5.3,52.3,8.9,65.6,2
				c3.2-13.1-31-22.3-31-22.3c-3.1,3.7-21.4,6.5-27.9,2.5c-23.9-20.4-35.6-49.9-40.7-77.5C1004.9,1747.6,967.1,1750.2,986.4,1794.8z
				"/>
		</g>
		<g>
			<g>
				<g>
					<g>
						<path class="st16" d="M1034.3,1462.9c9.7-32.6,5.7-262.5,91.8-326l147.9,12c34.2,55.4,21.7,199.5,10.1,318.2
							C1214.5,1491.9,1159.1,1501.9,1034.3,1462.9z"/>
					</g>
				</g>
			</g>
		</g>
	</g>
	<g>
		<g>
			<path class="st10" d="M1909,516.9c-2.5-8-6.7-15-12.1-20.9c-42.9-62.5-142.2-26.3-286.7,14.7c-24.2,6.9-19.2-25.6-29.9-90.1
				c-7-42-52.1-95.7-96-82.2c-72.3,22.3,14.8,57.6-5.7,217.7c-11,85.5-100.3,67.1-77,142.4l53,171.5c9.1,29.3,20.7,56.6,63.5,48.4
				c41.5-7.9,41.3,23.4,99.2,5.5l289.9-89.6c29.5-9.1,46.2-40.5,37.1-69.9c-3.8-12.2-11.5-22-21.2-28.8
				c13.6-14.2,19.5-34.9,13.3-54.9c-3.8-12.2-11.5-21.9-21.1-28.8c13.6-14.2,19.6-34.9,13.4-55c-4.5-14.5-14.5-25.9-27-32.6
				C1910.8,550.9,1914.2,533.6,1909,516.9L1909,516.9z"/>
			<path class="st11" d="M1733.7,629.5l138.2-42.7c18.8-5.8,33.3-21.3,38-40.4c1.9-7.9-3-15.8-10.9-17.7c-7.9-1.9-15.8,3-17.7,10.9
				c-2.2,9.1-9.1,16.4-18,19.2l-141.5,43.7c-14,4.3-28.9-3.5-33.3-17.5c-4.3-14,3.6-28.8,17.6-33.2l94.6-29.2
				c7.8-2.4,12.1-10.6,9.7-18.3c-2.4-7.7-10.6-12-18.4-9.7l-94.6,29.2c-29.5,9.1-46.2,40.5-37.1,69.9c5.1,16.4,17.2,28.5,31.9,34.7
				c-6.9,12.7-8.9,28.1-4.3,42.9c5.1,16.4,17.3,28.6,32.1,34.8c-6.8,12.7-8.8,28-4.2,42.8c5.5,17.9,19.4,30.9,36,36.4
				c-5.5,12-7,25.9-2.8,39.5c9.1,29.4,40.5,45.9,70,36.8l88.1-27.2c18.8-5.8,33.4-21.3,38-40.3c1.9-7.9-2.9-15.8-10.8-17.7
				c-7.9-1.9-15.9,3-17.8,10.8c-2.2,9.1-9.1,16.4-18.1,19.2l-88.1,27.2c-14,4.3-28.9-3.5-33.3-17.5c-4.3-14,3.6-28.8,17.6-33.2
				l104.5-32.3c18.8-5.8,33.4-21.3,38-40.4c1.9-7.9-2.9-15.8-10.8-17.7c-8-1.9-15.9,3-17.8,10.8c-2.2,9.2-9,16.4-18.1,19.2
				l-113.5,35.1c-14,4.3-28.9-3.5-33.3-17.5c-4.3-14,3.6-28.8,17.6-33.2l130-40.2c18.8-5.8,33.4-21.3,38-40.3
				c1.9-7.9-2.9-15.8-10.8-17.7c-7.9-1.9-15.9,3-17.8,10.8c-2.2,9.2-9,16.4-18.1,19.2l-133.5,41.3c-14,4.3-28.9-3.5-33.3-17.5
				C1711.8,648.7,1719.7,633.8,1733.7,629.5L1733.7,629.5z"/>
		</g>
		<path class="st12" d="M1482.1,943.8l-90.3,27.9c-12.5,3.9-25.8-3.1-29.6-15.6l-82.9-268.2c-3.9-12.5,3.1-25.8,15.6-29.6l90.3-27.9
			c12.5-3.9,25.8,3.1,29.6,15.6l82.9,268.2C1501.6,926.6,1494.6,939.9,1482.1,943.8z"/>
	</g>
	<g>
		<g>
			<g>
				<g>
					<g>
						<g>
							<path class="st3" d="M1468.2,939c-9.4,0.6-20.4-2.5-26.6,4.4l-16.4-18.8c16-25.6,53.5-34.3,57.3-34.6
								c10-0.9,14.7-1.9,15.4-0.6c0.8,1.3,3.2,10.3-11.3,12c-18.2,2.2-6.1,16.8,30.9,2.9c9.3-3.5,26.7,1,20.4,7.8
								C1531,919.5,1511.1,936.4,1468.2,939z"/>
						</g>
					</g>
				</g>
			</g>
		</g>
		<g>
			<path class="st3" d="M1278,994.7c-8.8,12.5,11.3,54.3,16.6,54.8c64.7-16.5,149.1-108.4,149.1-108.4l-4.8-24.5
				C1438.8,916.6,1357.4,965.2,1278,994.7z"/>
			<path class="st3" d="M1104,996.4c38.9,22,176.8,58.7,191.6,52.4l-14.4-55.4c0,0-138.1-59.4-161.5-68.2
				C1079.3,910,1040.5,960.6,1104,996.4z"/>
		</g>
	</g>
</g>
<g>
	<g>
		<path class="st10" d="M2767.4,532.9c0.7-6-0.2-11.8-2-17.1c-10.4-53.2-85.9-57.6-192.3-71.8c-17.8-2.4-5.3-22.2,6-67.6
			c7.3-29.5-7-77.6-39.6-81.2c-53.8-5.9-6.6,42-65.6,141.2c-31.5,53-84.8,15.6-91,71.6L2369,635.6c-2.4,21.8-2.5,43,27.9,49.8
			c29.5,6.6,20.5,27.1,63.6,31.8l215.7,23.5c22,2.4,41.8-13.5,44.2-35.3c1-9.1-1.3-17.7-5.7-24.9c12.9-5.5,22.7-17.4,24.3-32.3
			c1-9-1.3-17.6-5.7-24.9c13-5.4,22.8-17.4,24.4-32.3c1.2-10.8-2.2-21.1-8.5-29C2758.9,555.7,2766,545.3,2767.4,532.9L2767.4,532.9z
			"/>
		<path class="st11" d="M2620.4,557l102.8,11.2c14,1.5,27.9-4.5,36.4-15.7c3.5-4.6,2.5-11.2-2.1-14.7c-4.6-3.5-11.2-2.5-14.7,2.1
			c-4,5.3-10.6,8.2-17.3,7.4l-105.3-11.5c-10.4-1.1-18-10.5-16.9-20.9c1.1-10.4,10.5-17.9,21-16.8l70.4,7.7c5.8,0.6,11-3.5,11.6-9.3
			c0.6-5.7-3.6-10.9-9.3-11.6l-70.4-7.7c-22-2.4-41.8,13.4-44.2,35.3c-1.3,12.2,3.2,23.6,11.1,31.8c-8.1,6.4-13.8,15.9-15,26.9
			c-1.3,12.2,3.2,23.7,11.2,31.9c-8.1,6.4-13.7,15.9-14.9,26.9c-1.5,13.3,3.9,25.8,13.3,34.1c-7,6.3-11.9,15-13,25.1
			c-2.4,21.9,13.5,41.6,35.5,44l65.5,7.1c14,1.5,27.9-4.5,36.4-15.7c3.5-4.6,2.5-11.2-2.1-14.7c-4.7-3.5-11.2-2.6-14.7,2.1
			c-4,5.3-10.7,8.2-17.3,7.5l-65.5-7.1c-10.4-1.1-18-10.5-16.9-20.9c1.1-10.4,10.5-17.9,21-16.8l77.8,8.5c14,1.5,27.9-4.5,36.4-15.7
			c3.5-4.6,2.6-11.2-2.1-14.7c-4.7-3.5-11.3-2.6-14.7,2.1c-4.1,5.4-10.6,8.2-17.3,7.5l-84.4-9.2c-10.4-1.1-18-10.5-16.9-20.9
			c1.1-10.4,10.5-17.9,21-16.8l96.7,10.5c14,1.5,27.9-4.5,36.4-15.7c3.5-4.6,2.5-11.2-2.1-14.7c-4.7-3.5-11.2-2.6-14.7,2.1
			c-4.1,5.4-10.6,8.2-17.3,7.5l-99.3-10.8c-10.4-1.1-18-10.5-16.9-20.9C2600.6,563.4,2610,555.9,2620.4,557L2620.4,557z"/>
	</g>
	<path class="st12" d="M2368.9,692.1l-67.1-7.3c-12.1-1.3-18.8-9.7-17.8-19l21.8-199.5c1-9.3,9.4-16,18.7-15l67.1,7.3
		c9.3,1,16,9.4,15,18.7l-21.8,199.5C2383.8,686.1,2375.4,692.8,2368.9,692.1z"/>
</g>
<g>
	<path class="st10" d="M1534.6,1116.5l44.4,0.3l-39.9,19.4c-5.4,2.6-8.7,8.2-8.3,14.2l3.9,66l-24.9-61.3c-2.2-5.5-7.6-9.2-13.5-9.2
		l-43.4-0.5l38.9-19.1c5.3-2.6,8.6-8.2,8.2-14.1l-3.9-66.1l24.9,61.3C1523.3,1112.8,1528.6,1116.4,1534.6,1116.5z"/>
	<path class="st10" d="M2064.8,409.2l37.3,19.7l-42.2-1.1c-5.7-0.1-10.9,3.1-13.2,8.3l-25.6,57.5l5.8-62.7
		c0.5-5.6-2.4-11.1-7.4-13.7l-36.4-19.4l41.3,0.9c5.7,0.1,10.9-3.2,13.2-8.3l25.6-57.5l-5.8,62.7
		C2056.8,401.1,2059.8,406.5,2064.8,409.2z"/>
	<path class="st10" d="M1371.2,372.9l27.8-0.1l-24.9,12.4c-3.4,1.7-5.4,5.2-5.1,8.9l2.9,41.4l-16-38.3c-1.4-3.4-4.8-5.7-8.5-5.7
		l-27.2-0.1l24.3-12.2c3.3-1.7,5.3-5.2,5.1-8.9l-2.9-41.4l16,38.3C1364.1,370.7,1367.5,372.9,1371.2,372.9z"/>
	<path class="st10" d="M1741.9,1329.1l26.7,16.7l-31.3-3.1c-4.2-0.4-8.3,1.7-10.3,5.5l-22.1,41.3l7.7-46.3c0.7-4.2-1.2-8.3-4.7-10.6
		l-26-16.4l30.6,2.9c4.2,0.4,8.2-1.8,10.2-5.5l22.2-41.3l-7.7,46.2C1736.4,1322.7,1738.3,1326.9,1741.9,1329.1z"/>
	<path class="st10" d="M2853.4,595l24.5,13.2l-27.8-0.9c-3.8-0.1-7.2,2-8.8,5.4l-17.1,37.8l4.1-41.3c0.4-3.7-1.5-7.3-4.8-9.1
		l-23.9-13l27.2,0.8c3.7,0.1,7.2-2,8.7-5.4l17.2-37.8l-4.1,41.3C2848.2,589.7,2850.1,593.3,2853.4,595z"/>
	<path class="st10" d="M653.3,1243.7l27.8-1.9l-24,14.1c-3.2,1.9-5,5.6-4.5,9.3l5.6,41.1l-18.5-37.2c-1.7-3.3-5.2-5.4-8.9-5.1
		l-27.2,1.8l23.4-13.8c3.2-1.9,5-5.5,4.5-9.2l-5.6-41.1l18.5,37.1C646,1242,649.5,1244,653.3,1243.7z"/>
</g>
<path class="st8" d="M2660.4,1254.6c0,17.4-14.1,31.5-31.5,31.5c-17.4,0-31.5-14.1-31.5-31.5c0-17.4,14.1-31.5,31.5-31.5
	C2646.3,1223.1,2660.4,1237.2,2660.4,1254.6z"/>
<path class="st8" d="M1521.9,1450.2c-9.6,9.6-25.2,9.6-34.8,0c-9.6-9.6-9.6-25.2,0-34.8c9.6-9.6,25.2-9.6,34.8,0
	C1531.5,1425,1531.5,1440.6,1521.9,1450.2z"/>
<path class="st8" d="M2678.2,1169.4c9.4,0,17,7.6,17,17c0,9.4-7.6,17-17,17c-9.4,0-17-7.6-17-17
	C2661.2,1177,2668.8,1169.4,2678.2,1169.4L2678.2,1169.4z M2678.2,1162.1c-13.4,0-24.2,10.8-24.2,24.2c0,13.4,10.8,24.2,24.2,24.2
	s24.2-10.8,24.2-24.2C2702.4,1173,2691.6,1162.1,2678.2,1162.1L2678.2,1162.1z"/>
<path class="st8" d="M1175.5,523.3c13.3,0,24.1,10.8,24.1,24.1c0,13.3-10.8,24.1-24.1,24.1s-24.1-10.8-24.1-24.1
	C1151.4,534.1,1162.2,523.3,1175.5,523.3L1175.5,523.3z M1175.5,513c-19,0-34.5,15.4-34.5,34.5c0,19,15.4,34.5,34.5,34.5
	c19,0,34.5-15.4,34.5-34.5C1210,528.4,1194.5,513,1175.5,513L1175.5,513z"/>
<path class="st8" d="M182,750.7c12,0,21.7,9.7,21.7,21.7c0,12-9.7,21.7-21.7,21.7c-12,0-21.7-9.7-21.7-21.7
	C160.3,760.4,170,750.7,182,750.7L182,750.7z M182,741.4c-17.1,0-30.9,13.9-30.9,30.9c0,17.1,13.9,30.9,30.9,30.9
	c17.1,0,30.9-13.9,30.9-30.9C212.9,755.3,199.1,741.4,182,741.4L182,741.4z"/>
</svg>
