<svg id="Capa_1" data-name="Capa 1" xmlns="http://www.w3.org/2000/svg" xmlns:xlink="http://www.w3.org/1999/xlink" viewBox="0 0 1074 732.1"><defs><style>.cls-1,.cls-19,.cls-20{fill:none;}.cls-2{fill:#2264a1;}.cls-3{fill:#00a2e7;}.cls-4{fill:#00314d;}.cls-5{fill:#29abe2;}.cls-6{fill:#b4a9c7;}.cls-7{fill:#ebe4f2;}.cls-8{clip-path:url(#clip-path);}.cls-9{fill:#d1c7de;}.cls-10{fill:#f2eff7;}.cls-11{fill:#3b8bc8;}.cls-12{fill:#9f95b7;}.cls-13{fill:#8d83a7;}.cls-14{fill:#008ac6;}.cls-15{fill:#fff;}.cls-16{clip-path:url(#clip-path-2);}.cls-17{fill:#ff5607;}.cls-18{fill:#ff6b4f;}.cls-19,.cls-20{stroke:#fff;stroke-miterlimit:10;}.cls-19{stroke-width:0.49px;}.cls-20{stroke-width:0.52px;}</style><clipPath id="clip-path" transform="translate(-9 -15.29)"><rect id="SVGID" class="cls-1" x="445" y="356.17" width="427.5" height="187.56"/></clipPath><clipPath id="clip-path-2" transform="translate(-9 -15.29)"><polygon id="SVGID-2" data-name="SVGID" class="cls-1" points="382.38 356.17 217.16 356.17 217.16 623.7 382.38 623.95 382.38 356.17"/></clipPath></defs><rect class="cls-2" x="104.71" y="640.86" width="858.93" height="31.72"/><rect class="cls-3" x="176.24" width="715.88" height="30.47"/><rect class="cls-4" x="104.71" y="52.51" width="68.17" height="11.5"/><rect class="cls-4" x="104.71" y="126.4" width="68.17" height="11.5"/><rect class="cls-5" x="147.57" y="58.93" width="773.21" height="552.78"/><rect class="cls-2" x="188.5" y="322.02" width="204.54" height="306.24"/><rect class="cls-6" x="208.16" y="340.89" width="165.22" height="287.37"/><rect class="cls-2" x="421.28" y="322.02" width="456.92" height="243.8"/><rect class="cls-7" x="208.16" y="340.89" width="165.22" height="229.73"/><rect class="cls-7" x="436" y="340.89" width="427.5" height="187.56"/><g class="cls-8"><path class="cls-9" d="M681.2,487.58s-1.5,4.95-2,6.7-1.85,5.11-2.58,4.92.73-6.77.34-7.16-3.5,3-3.8,3.85.69,7.5,0,7.55-2.38-3.36-2.82-7.16,5-11.48,5-11.48Z" transform="translate(-9 -15.29)"/><path class="cls-9" d="M714.35,488c-.31-16.05-11.94-17.46-11.94-17.46s-11.63-1.42-12.12,14.54c-.39,12.24,3,45.63,4.66,60.5.45,4.2,3.43,7.64,7,8.07h0c3.53.43,6.54-2.29,7.05-6.36C710.75,532.86,714.58,500.36,714.35,488Z" transform="translate(-9 -15.29)"/><path class="cls-9" d="M741.77,488c-.31-16.05-11.94-17.46-11.94-17.46s-11.62-1.42-12.12,14.54c-.38,12.24,3,45.63,4.66,60.5.46,4.2,3.43,7.64,7,8.07h0c3.54.43,6.55-2.29,7-6.36C738.18,532.86,742,500.36,741.77,488Z" transform="translate(-9 -15.29)"/><path class="cls-9" d="M709.13,546.08c-.31-6.69-6.83-6.69-6.83-6.69s-6.52,0-6.83,6.69,3.27,57.78,3.27,57.78h8.44S709.45,552.77,709.13,546.08Z" transform="translate(-9 -15.29)"/><path class="cls-9" d="M699,603.86s-14.68,6.55-16.42,7.39-2.46,2.5,2,2.5h18.74c2.1,0,3.8-1.4,3.8-3.12v-6.77Z" transform="translate(-9 -15.29)"/><path class="cls-9" d="M735.48,541.53c-2.16-6.35-8.42-4.55-8.42-4.55s-6.26,1.8-4.72,8.32,19.1,54.63,19.1,54.63l8.11-2.33S737.63,547.87,735.48,541.53Z" transform="translate(-9 -15.29)"/><path class="cls-9" d="M732.59,409.2s8.77-1.38,9.27,10.51c.44,10.41,1.48,25.77,1.74,32.1.09,2.11-1.88,4-4.52,4.38h0c-2.64.37-5.06-.94-5.55-3-1.46-6.16-4.77-21.19-7-31.37C724,410.22,732.59,409.2,732.59,409.2Z" transform="translate(-9 -15.29)"/><path class="cls-9" d="M730.5,408l-1-.29a48.62,48.62,0,0,0-28.12,0l-1,.29a3.62,3.62,0,0,0-2.19,3.06c-1.52,10.46-.09,44.57.44,55.84.1,2.06,1.37,3.65,2.9,3.65h27.76c1.54,0,2.81-1.59,2.9-3.65.53-11.27,2-45.38.45-55.84A3.61,3.61,0,0,0,730.5,408Z" transform="translate(-9 -15.29)"/><path class="cls-9" d="M740.3,479.26c-2.76-14.89-8-20.08-8-20.08H698.36s-5,7.18-7.78,22.07A5.42,5.42,0,0,0,693,486.8c3.71,2.38,10.92,5.74,22.05,5.74s18.34-3.36,22-5.74C739,485.6,740.7,481.43,740.3,479.26Z" transform="translate(-9 -15.29)"/><rect class="cls-9" x="699.74" y="377.08" width="13.4" height="16.28"/><path class="cls-9" d="M721.76,398s-3.88,4.92-13,4.92v-7Z" transform="translate(-9 -15.29)"/><path class="cls-9" d="M699.76,409.2s-8.77-1.38-9.27,10.51c-.43,10.41-1.48,25.77-1.74,32.1-.09,2.11,1.88,4,4.53,4.38h0c2.64.37,5.05-.94,5.54-3,1.46-6.16,4.78-21.19,7-31.37C708.39,410.22,699.76,409.2,699.76,409.2Z" transform="translate(-9 -15.29)"/><path class="cls-9" d="M694.94,446.58s-5.56-2.51-9.43,8.75c-3.39,9.87-8.66,24.36-10.72,30.36a3.74,3.74,0,0,0,1.78,4.79h0a3.74,3.74,0,0,0,4.66-2.1c2.82-5.68,9.54-19.55,14.09-28.94C700.5,448.72,694.94,446.58,694.94,446.58Z" transform="translate(-9 -15.29)"/><path class="cls-9" d="M740.36,542.7c0-3.81,13.93-66.5-7.7-85.38H698.28s-9.53,12.93-9.53,43.07,1.74,101.14,1.74,101.14H711.3l5.09-109s1.81,38.37,3.44,52,15,55.41,15,55.41L753.25,595S740.36,546.51,740.36,542.7Z" transform="translate(-9 -15.29)"/><path class="cls-9" d="M708.74,404.46s-13.76,1.16-18.25,7.68c-3.59,5.23-3.21,32.32-4.46,36.5s-16.56,32.92-11.24,37.05,8.21,5.55,9.63,4.12,5.09-10.66,5.09-10.66,25.06,3.27,40.58,3.27,18.07-8.16,16.8-13.89S745.35,437,743.6,424s-1.53-14.65-21.46-19.49C714.39,407.06,708.74,404.46,708.74,404.46Z" transform="translate(-9 -15.29)"/><path class="cls-9" d="M743.58,453.48s-1.75,5.84-12.78,1.34c-9.67-3.93-24-9.5-29.92-11.89a3.75,3.75,0,0,1-2.44-4.49h0a3.74,3.74,0,0,1,4.65-2.13c6.13,1.61,21,5.67,31.07,8.43C745.64,447.88,743.58,453.48,743.58,453.48Z" transform="translate(-9 -15.29)"/><path class="cls-9" d="M703.29,447.51a5.36,5.36,0,0,1-2.6-6c.66-2.62,1.7-5.81,3.14-7.24,2.64-2.65,26.26,6.35,26.26,6.35s-1-23.15,4.73-32c8.44,2.4,8.62,6.4,10.8,26.37s-1.8,25.79-10.8,25.79C727.84,460.81,710.64,451.62,703.29,447.51Z" transform="translate(-9 -15.29)"/><path class="cls-9" d="M698.69,603.07s-11.49,3.54-16,5-2.33,5.66-2.33,5.66h26.84v-9.89A9.38,9.38,0,0,1,698.69,603.07Z" transform="translate(-9 -15.29)"/><path class="cls-9" d="M741.69,599.16s-12.39,10.23-13.85,11.5-1.71,3.07,2.63,1.87l18.06-5c2-.56,3.29-2.36,2.83-4L749.55,597Z" transform="translate(-9 -15.29)"/><path class="cls-9" d="M741.15,598.49S731,605,727.06,607.6s-.74,6.08-.74,6.08l25.87-7.17L749.55,597A9.39,9.39,0,0,1,741.15,598.49Z" transform="translate(-9 -15.29)"/><path class="cls-9" d="M689.8,441.06c.05-.67,5.13-.57,5.13-.57s-6.91-1.62-6.81-2.33,7,.54,7,.54-7.25-2.72-7-3.4,7.24,1.51,7.24,1.51-6.67-3.16-6.18-3.79,9.36,2.72,9.36,2.72-4.41-3.1-4.32-3.76c.07-.46,1.25.14,3.17,1a26.64,26.64,0,0,1,6.18,3.84l-1.19,5.71S689.75,441.73,689.8,441.06Z" transform="translate(-9 -15.29)"/><path class="cls-9" d="M707.34,401.24h12.91a8,8,0,0,0,8-8V374.37a5,5,0,0,0-5-5H710a5,5,0,0,0-5,5v24.51A2.36,2.36,0,0,0,707.34,401.24Z" transform="translate(-9 -15.29)"/><path class="cls-9" d="M705,385.29s-6.05,7.67,0,7.67" transform="translate(-9 -15.29)"/><path class="cls-9" d="M718.41,387s-4-4.41-3-13.32c-7.74,0-9.8,2-9.8,2s-4.75-4.11,1.35-9.15,21.59-3.76,23.82,6.33.95,20.48-8.79,25.43C722.75,390.84,718.41,387,718.41,387Z" transform="translate(-9 -15.29)"/><line class="cls-9" x1="710.44" y1="369.29" x2="705.05" y2="372.96"/><line class="cls-9" x1="713.27" y1="375.18" x2="706.66" y2="382.03"/><path class="cls-9" d="M714.89,387.58H703.53a7.8,7.8,0,0,0-1.67,4.6c0,2.64,3.44,8.26,6.92,9.28s8.39-.82,8.39-.82Z" transform="translate(-9 -15.29)"/><path class="cls-9" d="M716.79,386.89c-.9,2.37-.14,4.85,1.69,5.55s4.06-.65,5-3,.14-4.85-1.69-5.55S717.69,384.52,716.79,386.89Z" transform="translate(-9 -15.29)"/><rect class="cls-10" x="431.91" y="450.72" width="440.11" height="162.44"/><rect class="cls-6" x="431.91" y="570.62" width="440.11" height="42.54"/><path class="cls-9" d="M541.51,481.81s1.52,4.37,1.43,6.11-.69,5.18-1.44,5.15-.77-6.49-1.24-6.78-2.77,3.52-2.86,4.41,2.3,6.88,1.65,7.07-3.06-2.65-4.32-6.12,1.7-8.75,1.7-8.75Z" transform="translate(-9 -15.29)"/><path class="cls-9" d="M622.24,468s4.54,1.5,6.36,1.43,5.4-.62,5.37-1.34-6.75-.8-7-1.25,3.69-2.63,4.61-2.71,7.14,2.27,7.35,1.65-2.73-3-6.33-4.21-9.13,1.56-9.13,1.56Z" transform="translate(-9 -15.29)"/><path class="cls-9" d="M533.89,440.15s-6.07.52-3.92,11.77c1.89,9.85,4.41,24.46,5.56,30.44a3.71,3.71,0,0,0,3.9,3.18h0a3.63,3.63,0,0,0,3-4c-.33-6.08-1.28-20.85-1.93-30.85C539.79,439.32,533.89,440.15,533.89,440.15Z" transform="translate(-9 -15.29)"/><path class="cls-9" d="M579.25,405.94l-1-.28a50.58,50.58,0,0,0-28.13,0l-1,.28a3.48,3.48,0,0,0-2.19,2.94c-1.52,10.05-.09,42.79.44,53.62.1,2,1.36,3.51,2.9,3.51H578.1c1.53,0,2.8-1.53,2.9-3.51.53-10.83,2-43.57.44-53.62A3.5,3.5,0,0,0,579.25,405.94Z" transform="translate(-9 -15.29)"/><path class="cls-9" d="M540.52,540.48v-.22C540.3,539.73,540.47,540.45,540.52,540.48Z" transform="translate(-9 -15.29)"/><path class="cls-9" d="M589.13,480.89a62.94,62.94,0,0,0-1-10.69l0-.06c-2.76-14.3-7.07-15-7.07-15h-34.4s-3.38,1.72-6.14,16l-.35,2.64a116.08,116.08,0,0,0-1,13.55c-.25,15.06-.11,41.19,1.43,53.17.2,11.08,3.73,53.54,3.73,53.54h14.2s2.59-49,2.23-55.48c0,0,0,0,0-.08,1-6.53,2.3-16.19,3.48-25.88,1.18,9.69,2.53,19.35,3.49,25.88a.22.22,0,0,0,0,.08c-.37,6.43,2.22,55.48,2.22,55.48h14.2s3.53-42.46,3.73-53.54C589.36,528.22,589.28,496.86,589.13,480.89Z" transform="translate(-9 -15.29)"/><rect class="cls-9" x="551.09" y="375.65" width="13.4" height="15.63"/><path class="cls-9" d="M552.21,385.11c0,2,1.33,3.68,3,3.68s3-1.65,3-3.68-1.33-3.69-3-3.69S552.21,383.07,552.21,385.11Z" transform="translate(-9 -15.29)"/><path class="cls-9" d="M575.5,385.11c0,2,1.33,3.68,3,3.68s3-1.65,3-3.68-1.33-3.69-3-3.69S575.5,383.07,575.5,385.11Z" transform="translate(-9 -15.29)"/><path class="cls-9" d="M561.15,398.76H572.5a6,6,0,0,0,6-6V373.05a4.93,4.93,0,0,0-4.92-4.92H560.1a4.94,4.94,0,0,0-4.92,4.92v19.73A6,6,0,0,0,561.15,398.76Z" transform="translate(-9 -15.29)"/><path class="cls-9" d="M550.29,407.67s-8.2-3.27-11.48,7.72C536,425,531.33,439.11,529.59,445c-.58,2,.89,4.18,3.37,5.11h0c2.48.94,5.14.27,6.09-1.55,2.87-5.42,9.62-18.7,14.18-27.7C558.44,410.56,550.29,407.67,550.29,407.67Z" transform="translate(-9 -15.29)"/><path class="cls-9" d="M581.68,404.79s-8.63,2-4.48,12.74c3.64,9.38,8.63,23.36,10.84,29.06.74,1.91,3.29,2.86,5.87,2.2h0c2.58-.66,4.3-2.71,4-4.71-1-6-3.81-20.54-5.69-30.38C590,402.47,581.68,404.79,581.68,404.79Z" transform="translate(-9 -15.29)"/><path class="cls-9" d="M588.66,441.25s-4.86,4.11,5.25,10.15c8.86,5.29,22.4,12.71,27.79,15.93a3.87,3.87,0,0,0,5.07-.63h0a3.52,3.52,0,0,0-1-4.82c-4.9-3.86-16.92-13.13-25.06-19.4C591.42,435.32,588.66,441.25,588.66,441.25Z" transform="translate(-9 -15.29)"/><path class="cls-9" d="M560.09,403s-14.48,3-20,5.44-10.61,28.8-10.61,28.8l13,5.54-5.33,34.79a7.78,7.78,0,0,0,6.82,8.79c9.25,1.24,25.39,2.52,42.1-.29a7.8,7.8,0,0,0,6.57-8.17c-2.1-31.26-6.42-57.47-6.42-57.47l1.63,22.23,12.55-4.6-5.2-29.82a9.41,9.41,0,0,0-7.31-5.26l-14.23-1.92S567.63,406.15,560.09,403Z" transform="translate(-9 -15.29)"/><path class="cls-9" d="M548.87,594s-17.63,0-17.63,9.5h27.61l-.4-9.5" transform="translate(-9 -15.29)"/><path class="cls-9" d="M579.43,594s17.63,0,17.63,9.5H569.45l.4-9.5" transform="translate(-9 -15.29)"/><path class="cls-9" d="M566.21,400.09a13.44,13.44,0,0,0,12.3-8c3.8-8.37,5.59-16.7-1.33-23.34s-16.6-4.32-20.09-1-6.63,8-5.06,16.83S559.76,400.09,566.21,400.09Z" transform="translate(-9 -15.29)"/><rect class="cls-9" x="393.04" y="382.03" width="103.51" height="188.22"/><rect class="cls-9" x="768.51" y="400.16" width="103.51" height="170.09"/></g><rect class="cls-11" x="138.8" y="608.41" width="790.76" height="32.45"/><rect class="cls-12" x="200.77" y="608.41" width="180" height="32.45"/><rect class="cls-13" x="188.5" y="640.86" width="204.54" height="31.72"/><rect class="cls-14" x="83.27" y="678.42" width="7.86" height="13.24"/><rect class="cls-14" x="153.18" y="678.42" width="7.86" height="13.24"/><rect class="cls-3" x="79.34" y="557.62" width="85.63" height="126.17"/><rect class="cls-4" x="83.89" y="562.17" width="76.53" height="117.07"/><rect class="cls-9" x="208.16" y="374.97" width="133.74" height="195.65"/><polygon class="cls-15" points="228.85 439.94 275.21 425.97 275.21 379.61 228.85 393.58 228.85 439.94"/><g class="cls-16"><path class="cls-4" d="M294.18,346.06V590.55l-66.29,20.24V366.3l70.89-20.24m6.12-13.16-87.74,23.52V624l87.74-23.52V332.9Z" transform="translate(-9 -15.29)"/><path class="cls-4" d="M219.34,490.94h0c0,3,1.3,5.08,2.9,4.6l77.58-23.28c1.6-.48,2.9-3.32,2.9-6.34h0c0-3-1.3-5.09-2.9-4.6l-77.58,23.27C220.64,485.07,219.34,487.91,219.34,490.94Z" transform="translate(-9 -15.29)"/></g><path class="cls-14" d="M83,282.28v56.1a130.94,130.94,0,0,0,102.26,0h0v-56.1Z" transform="translate(-9 -15.29)"/><path class="cls-14" d="M389.77,282.28v56.1l-1.2.51a127.91,127.91,0,0,1-99.86,0l-1.21-.51v-56.1" transform="translate(-9 -15.29)"/><path class="cls-14" d="M594.31,282.28v56.1h0a131,131,0,0,1-102.27,0h0v-56.1" transform="translate(-9 -15.29)"/><path class="cls-14" d="M798.85,282.28v56.1h0a131,131,0,0,1-102.27,0h0v-56.1" transform="translate(-9 -15.29)"/><path class="cls-14" d="M1003.38,282.28v56.1h0a130.94,130.94,0,0,1-102.26,0h0v-56.1" transform="translate(-9 -15.29)"/><path class="cls-7" d="M287.5,282.28v56.1h0a130.94,130.94,0,0,1-102.26,0h0v-56.1" transform="translate(-9 -15.29)"/><path class="cls-7" d="M492,282.28v56.1h0a124.52,124.52,0,0,1-97.41,1.95l-4.86-1.95v-56.1" transform="translate(-9 -15.29)"/><path class="cls-7" d="M696.58,282.28v56.1h0a131,131,0,0,1-102.27,0h0v-56.1" transform="translate(-9 -15.29)"/><path class="cls-7" d="M901.12,282.28v56.1h0a131,131,0,0,1-102.27,0h0v-56.1" transform="translate(-9 -15.29)"/><polyline class="cls-3" points="73.97 266.99 147.57 161.29 233.49 161.29 176.24 266.99"/><polyline class="cls-3" points="892.12 266.99 834.87 161.29 920.78 161.29 994.38 266.99"/><polyline class="cls-10" points="176.24 266.99 233.49 161.29 319.4 161.29 278.5 266.99"/><polyline class="cls-3" points="278.5 266.99 319.4 161.29 405.31 161.29 380.77 266.99"/><polyline class="cls-10" points="380.77 266.99 405.31 161.29 491.22 161.29 483.04 266.99"/><polyline class="cls-3" points="483.04 266.99 491.22 161.29 577.13 161.29 585.31 266.99"/><polyline class="cls-10" points="585.31 266.99 577.13 161.29 663.04 161.29 687.58 266.99"/><polyline class="cls-3" points="687.58 266.99 663.04 161.29 748.96 161.29 789.85 266.99"/><polyline class="cls-10" points="789.85 266.99 748.96 161.29 834.87 161.29 892.12 266.99"/><rect class="cls-11" x="147.57" y="132.82" width="773.21" height="28.47"/><rect class="cls-15" y="34.13" width="122.15" height="122.15" rx="11.17"/><rect class="cls-4" x="8.63" y="42.76" width="104.89" height="104.89" rx="8.56"/><rect class="cls-11" x="147.57" y="30.47" width="773.21" height="28.47"/><ellipse class="cls-17" cx="354.14" cy="717.44" rx="61.62" ry="14.66"/><path class="cls-18" d="M337.11,595.77s1.64,4.93,1.54,6.9-.74,5.84-1.56,5.81-.83-7.33-1.34-7.65-3,4-3.1,5,2.5,7.76,1.79,8-3.32-3-4.68-6.89S331.6,597,331.6,597Z" transform="translate(-9 -15.29)"/><path class="cls-18" d="M328.85,548.8s-6.57.57-4.24,13.26c2.05,11.11,4.78,27.59,6,34.34a4.06,4.06,0,0,0,4.22,3.58h0a4.05,4.05,0,0,0,3.28-4.46c-.35-6.86-1.38-23.52-2.09-34.8C335.24,547.85,328.85,548.8,328.85,548.8Z" transform="translate(-9 -15.29)"/><path class="cls-18" d="M378,510.22l-1-.32a52.75,52.75,0,0,0-30.46,0l-1.05.33a3.86,3.86,0,0,0-2.37,3.31c-1.65,11.33-.1,48.26.48,60.47.1,2.23,1.47,4,3.13,4h30.07c1.66,0,3-1.73,3.14-4,.57-12.21,2.12-49.14.48-60.47A3.89,3.89,0,0,0,378,510.22Z" transform="translate(-9 -15.29)"/><path class="cls-3" d="M336,661.94v-.25C335.8,661.1,336,661.91,336,661.94Z" transform="translate(-9 -15.29)"/><path class="cls-4" d="M388.67,594.74a71.54,71.54,0,0,0-1.11-12l0-.08c-3-16.13-7.66-17-7.66-17H342.63S339,567.59,336,583.72l-.38,3A134.51,134.51,0,0,0,334.49,602c-.28,17-.12,46.45,1.54,60,.22,12.5,4,60.38,4,60.38h15.38s2.8-55.32,2.41-62.56c0,0,0-.06,0-.1,1-7.36,2.5-18.26,3.77-29.19,1.28,10.93,2.75,21.83,3.78,29.19a.34.34,0,0,0,0,.1c-.4,7.24,2.4,62.56,2.4,62.56h15.38s3.83-47.88,4.05-60.38C388.92,648.11,388.83,612.75,388.67,594.74Z" transform="translate(-9 -15.29)"/><rect class="cls-18" x="348.23" y="478.01" width="14.52" height="17.63"/><path class="cls-18" d="M348.69,486.72c0,2.29,1.44,4.15,3.22,4.15s3.22-1.86,3.22-4.15-1.44-4.16-3.22-4.16S348.69,484.42,348.69,486.72Z" transform="translate(-9 -15.29)"/><path class="cls-18" d="M373.91,486.72c0,2.29,1.45,4.15,3.22,4.15s3.23-1.86,3.23-4.15-1.45-4.16-3.23-4.16S373.91,484.42,373.91,486.72Z" transform="translate(-9 -15.29)"/><path class="cls-18" d="M364.52,502.11h0a12.65,12.65,0,0,0,12.61-12.61V478a10.42,10.42,0,0,0-10.39-10.39H362.3A10.43,10.43,0,0,0,351.91,478V489.5A12.65,12.65,0,0,0,364.52,502.11Z" transform="translate(-9 -15.29)"/><path class="cls-18" d="M346.61,512.17s-8.88-3.69-12.42,8.7c-3.11,10.85-8.11,26.75-10,33.34-.63,2.21,1,4.72,3.65,5.77h0c2.69,1.06,5.56.3,6.6-1.74,3.1-6.12,10.41-21.1,15.35-31.24C355.44,515.43,346.61,512.17,346.61,512.17Z" transform="translate(-9 -15.29)"/><path class="cls-18" d="M366.25,518.24s3.67,8.89,14.94,2.63c9.86-5.48,24.64-13.19,30.64-16.51,2-1.12,2.65-4,1.5-6.66h0c-1.16-2.65-3.73-4.15-5.9-3.43-6.52,2.13-22.29,7.55-32.95,11.23C362.31,509.69,366.25,518.24,366.25,518.24Z" transform="translate(-9 -15.29)"/><path class="cls-18" d="M412.51,503s5.47-4.38-5.16-11.7c-9.3-6.41-23.56-15.45-29.21-19.35a4.06,4.06,0,0,0-5.52.46h0a4.07,4.07,0,0,0,.84,5.47c5.1,4.6,17.61,15.65,26.08,23.13C409.21,509.57,412.51,503,412.51,503Z" transform="translate(-9 -15.29)"/><path class="cls-3" d="M357.23,506.88s-15.69,3.37-21.63,6.14-11.49,32.48-11.49,32.48l14,6.25L332.36,591a8.73,8.73,0,0,0,7.44,9.92c10,1.4,27.47,2.83,45.54-.33a8.7,8.7,0,0,0,7.12-9.17c-2.28-35.27-7-64.86-7-64.86l14.66-7.38-6.25-20.34-22,5.87S365.39,510.45,357.23,506.88Z" transform="translate(-9 -15.29)"/><path class="cls-4" d="M345.08,722.32S326,722.33,326,733h29.91l-.44-10.72" transform="translate(-9 -15.29)"/><path class="cls-4" d="M378.17,722.32s19.09,0,19.09,10.72h-29.9l.43-10.72" transform="translate(-9 -15.29)"/><path class="cls-4" d="M363.86,503.61a14.42,14.42,0,0,0,13.31-9c4.12-9.43,6.05-18.83-1.43-26.32s-18-4.87-21.76-1.1-7.18,9-5.48,19S356.87,503.61,363.86,503.61Z" transform="translate(-9 -15.29)"/><ellipse class="cls-17" cx="573.56" cy="717.44" rx="61.62" ry="14.66"/><path class="cls-18" d="M589.29,609.69c2.61-16.18-8.81-19.71-8.81-19.71s-11.7-6.8-15.1,9.13c-2.61,12.22-5,49.64-6,64.87-.31,4.29,2,8.29,5.52,9.36h0c3.47,1.08,7-1.1,8.24-5.11C577.54,654,587.29,622.1,589.29,609.69Z" transform="translate(-9 -15.29)"/><path class="cls-18" d="M573.51,667c.9-6.77-5.65-8-5.65-8s-6.54-1.18-8.07,5.48-7.22,58.61-7.22,58.61l8.47,1.53S572.61,673.79,573.51,667Z" transform="translate(-9 -15.29)"/><path class="cls-18" d="M553.05,722.94s-15,6.69-16.75,7.54-2.52,2.56,2.07,2.56h19.12c2.14,0,3.88-1.43,3.88-3.19v-6.91Z" transform="translate(-9 -15.29)"/><path class="cls-18" d="M617.59,604.77c-.31-16.38-12.18-17.82-12.18-17.82S593.54,585.5,593,601.79c-.39,12.49,3.11,46.55,4.75,61.73.47,4.28,3.5,7.8,7.11,8.24h0c3.6.43,6.68-2.34,7.19-6.5C613.92,650.5,617.83,617.34,617.59,604.77Z" transform="translate(-9 -15.29)"/><path class="cls-18" d="M612.27,664c-.32-6.83-7-6.83-7-6.83s-6.65,0-7,6.83,3.34,59,3.34,59h8.61S612.59,670.82,612.27,664Z" transform="translate(-9 -15.29)"/><path class="cls-18" d="M597.94,522s11.14-2.53,20.15,5.61c7.9,7.13,19.82,17.36,24.61,21.69,1.6,1.45,1.58,4.25,0,6.43h0c-1.63,2.18-4.3,3-6.15,1.89-5.53-3.34-18.84-11.68-27.85-17.32C598.39,533.85,597.94,522,597.94,522Z" transform="translate(-9 -15.29)"/><path class="cls-18" d="M606.2,523.09l-1-.3a49.65,49.65,0,0,0-28.7,0l-1,.31a3.65,3.65,0,0,0-2.24,3.12c-1.55,10.67-.09,45.47.45,57,.1,2.1,1.39,3.73,3,3.73H605c1.56,0,2.85-1.63,3-3.73.54-11.5,2-46.3.46-57A3.66,3.66,0,0,0,606.2,523.09Z" transform="translate(-9 -15.29)"/><path class="cls-18" d="M616.19,595.81c-2.82-15.2-8.19-20.49-8.19-20.49H573.4s-5.12,7.32-7.93,22.52A5.52,5.52,0,0,0,568,603.5c3.77,2.42,11.13,5.86,22.49,5.86s18.71-3.44,22.49-5.86C614.86,602.27,616.6,598,616.19,595.81Z" transform="translate(-9 -15.29)"/><rect class="cls-18" x="577.65" y="491.86" width="13.68" height="16.61"/><path class="cls-18" d="M599.94,512.86s-4,5-13.29,5v-7.14Z" transform="translate(-9 -15.29)"/><path class="cls-18" d="M578.6,500.94c0,2.16,1.36,3.92,3,3.92s3-1.76,3-3.92-1.35-3.91-3-3.91S578.6,498.78,578.6,500.94Z" transform="translate(-9 -15.29)"/><path class="cls-18" d="M602.37,500.94c0,2.16,1.36,3.92,3,3.92s3-1.76,3-3.92-1.36-3.91-3-3.91S602.37,498.78,602.37,500.94Z" transform="translate(-9 -15.29)"/><path class="cls-18" d="M593.52,515.45h0a11.92,11.92,0,0,0,11.89-11.89V492.7a9.83,9.83,0,0,0-9.8-9.8h-4.17a9.83,9.83,0,0,0-9.8,9.8v10.86A11.92,11.92,0,0,0,593.52,515.45Z" transform="translate(-9 -15.29)"/><path class="cls-18" d="M579.18,522.07s-13.3.84-13.81,13c-.44,10.63-1.51,26.29-1.77,32.75-.09,2.16,1.92,4.11,4.61,4.48h0c2.7.37,5.16-1,5.66-3.06,1.49-6.29,4.87-21.63,7.16-32C583.64,525.36,579.18,522.07,579.18,522.07Z" transform="translate(-9 -15.29)"/><path class="cls-18" d="M569.91,562.46s-5.67-2.56-9.62,8.93c-3.46,10.07-8.36,27-10.46,33.09-.7,2-.39,2.06,1.33,2.78h0a3.83,3.83,0,0,0,4.76-2.15c2.88-5.79,9.74-20,14.38-29.53C575.59,564.64,569.91,562.46,569.91,562.46Z" transform="translate(-9 -15.29)"/><path class="cls-18" d="M643.31,550.69s3.6,5.07-6.94,11.14c-9.22,5.31-22.71,13.41-28.32,16.64a3.82,3.82,0,0,1-5.15-.85h0a3.83,3.83,0,0,1,1.2-5.07c5.14-3.93,17.73-13.37,26.26-19.75C640.08,545.53,643.31,550.69,643.31,550.69Z" transform="translate(-9 -15.29)"/><path class="cls-4" d="M609.71,541s-18.81-5.11-37.11-.65c-5.8,4.11-.84,17.82-.84,17.82v17.2s-8.55,17.85-13.51,64.73-7.53,79.73-7.53,79.73l16.08,3.16,23.65-113.58,6.6,112.47H613s2-52.86,4.61-77.5,6-52.17-7.86-70.91C608.2,559.64,609.71,541,609.71,541Z" transform="translate(-9 -15.29)"/><path class="cls-3" d="M547.53,725.41l.1.12c.48.54,2.3,2.83.25,3.82-2.32,1.13-4.37-2.14-4.37-2.14s-6.66,2.38-8.21,3-1,2.85-1,2.85h27.09s1.79-2.86,0-7.63c-3.88,0-8.8,3.22-8.8,3.22l-3.14-4.07" transform="translate(-9 -15.29)"/><path class="cls-18" d="M601.91,722.94s-15,6.69-16.75,7.54-2.52,2.56,2.07,2.56h19.12c2.14,0,3.88-1.43,3.88-3.19v-6.91Z" transform="translate(-9 -15.29)"/><path class="cls-3" d="M596.38,725.41l.11.12c.47.54,2.29,2.83.25,3.82-2.32,1.13-4.37-2.14-4.37-2.14s-6.66,2.38-8.22,3-1,2.85-1,2.85h27.09s1.79-2.86,0-7.63c-3.88,0-8.8,3.22-8.8,3.22l-3.14-4.07" transform="translate(-9 -15.29)"/><path class="cls-4" d="M581.64,500.45a14.35,14.35,0,0,1-.78-12.78c3-6.9-1.76-9.47,6.32-15.93s29.63,6.53,18.23,28.71c-.9-7.93-8.68-1.76-13.53-13.07C584.54,487.38,580.29,494,581.64,500.45Z" transform="translate(-9 -15.29)"/><path class="cls-18" d="M555.15,604.48s.49,4.86,0,6.65-1.89,5.22-2.64,5,.75-6.9.35-7.3-3.58,3-3.87,3.92.69,7.65,0,7.7-2.44-3.42-2.89-7.3,3.73-8.69,3.73-8.69Z" transform="translate(-9 -15.29)"/><path class="cls-18" d="M607.57,582.43c-.55-.42,2.35-4.72,2.35-4.72s-5.21,5-5.76,4.56,4.35-5.74,4.35-5.74-6.35,4.72-6.8,4.14,5.3-5.37,5.3-5.37-6.4,4-6.67,3.2,7.51-6.52,7.51-6.52-5.1,2.06-5.61,1.62.81-1,2.58-2.18a26.5,26.5,0,0,1,4.19-2.24,3.94,3.94,0,0,1,4.31.83h0a4,4,0,0,1,.38,5.19C611.39,578.26,607.93,582.7,607.57,582.43Z" transform="translate(-9 -15.29)"/><path class="cls-15" d="M586.29,501.56h14.83l1.82,8.73s-3.1,5.74-9.73,5.74a11.65,11.65,0,0,1-9.72-5.59Z" transform="translate(-9 -15.29)"/><line class="cls-19" x1="571.64" y1="482.08" x2="578.57" y2="487.55"/><line class="cls-19" x1="597.41" y1="482.08" x2="590.48" y2="487.55"/><ellipse class="cls-17" cx="1012.38" cy="717.44" rx="61.62" ry="14.66"/><path class="cls-4" d="M995.57,501.32c9.52-6.49,1.07-15.06,5.91-26.25,4.57-10.57,12.92-9.78,13.83-9.66.91-.12,9.26-.91,13.83,9.66,4.84,11.19-3.61,19.76,5.92,26.25s-1.74,16.41-19.66,16.48h-.18C997.3,517.73,986.07,507.78,995.57,501.32Z" transform="translate(-9 -15.29)"/><path class="cls-18" d="M1036.34,722.32s15.43,7.1,17.31,8,2.67,2.71-2.2,2.71h-20.29c-2.27,0-4.11-1.52-4.11-3.39l.15-7.33Z" transform="translate(-9 -15.29)"/><path class="cls-18" d="M999.68,508.44s-7.31,1.46-10,11.37c-.47,11.28-1.74,28.65-2,35.51-.1,2.28,2.17,3.6,5,4h0c2.86.39,5.48-1,6-3.25,1.58-6.67,5.17-23,7.6-34C1009,509.53,999.68,508.44,999.68,508.44Z" transform="translate(-9 -15.29)"/><path class="cls-18" d="M1001.94,510.22l1-.32a52.75,52.75,0,0,1,30.46,0l1,.33a3.89,3.89,0,0,1,2.38,3.31c1.64,11.33.09,48.26-.48,60.47-.11,2.23-1.48,4-3.14,4h-30.07c-1.66,0-3-1.73-3.13-4-.58-12.21-2.13-49.14-.49-60.47A3.89,3.89,0,0,1,1001.94,510.22Z" transform="translate(-9 -15.29)"/><path class="cls-4" d="M994.92,659.66c-1.32-10.72-2.56-21.45-3.63-32.2-1-10.14-2.61-20.77-2-31,.43-7.4,3-15.47,5.8-22.31.43-1.06,3.27-8.53,4.94-8.53h36.72c1.25,0,4,8.05,4.31,8.91,4.44,11.69,4.69,22.88,3.92,35.13-.73,11.54-1.81,23.07-3,34.57q-.75,7.5-1.57,15a11.44,11.44,0,0,1-.54,2.43c-.15,12.11-3.56,60.63-3.56,60.63h-9.14s-2.46-55.32-2.12-62.56c0,0,0-.06,0-.1-1.79-14.53-5.08-42.78-5.59-57.9l-.84,0c-1.19,0-2.33,0-3.44-.11-.63,16.36-3.48,44.05-5,57.59a10.87,10.87,0,0,1-.55,2.43c-.15,12.11-3.56,60.63-3.56,60.63H997s-2.47-55.32-2.12-62.56A.34.34,0,0,1,994.92,659.66Z" transform="translate(-9 -15.29)"/><path class="cls-18" d="M1035.23,508.44s9.5-1.51,10,11.37c.47,11.28,1.73,28.79,2,35.64.1,2.29-2.18,3.47-5,3.87h0c-2.86.39-5.47-1-6-3.25-1.58-6.67-5.17-23-7.6-34C1025.88,509.53,1035.23,508.44,1035.23,508.44Z" transform="translate(-9 -15.29)"/><path class="cls-3" d="M1018.22,506.39l19.38,2.11-.85,57.15a60.56,60.56,0,0,1-36.72,0l-1.2-57.27Z" transform="translate(-9 -15.29)"/><path class="cls-18" d="M1047.14,556.39s-1.91,6.32-13.85,1.45c-10.47-4.27-26-10.29-32.4-12.88a4.08,4.08,0,0,1-2.65-4.87h0a4.06,4.06,0,0,1,5-2.3c6.64,1.74,22.75,6.14,33.65,9.13C1049.36,550.32,1047.14,556.39,1047.14,556.39Z" transform="translate(-9 -15.29)"/><path class="cls-18" d="M987.77,556.39s1.91,6.32,13.85,1.45c10.46-4.27,26-10.29,32.4-12.88a4.06,4.06,0,0,0,2.64-4.87h0a4,4,0,0,0-5-2.3c-6.64,1.74-22.75,6.14-33.65,9.13C985.55,550.32,987.77,556.39,987.77,556.39Z" transform="translate(-9 -15.29)"/><path class="cls-18" d="M1018.25,515.09h0a7.26,7.26,0,0,1-7.26-7.25V494.3h14.52v13.54A7.26,7.26,0,0,1,1018.25,515.09Z" transform="translate(-9 -15.29)"/><path class="cls-18" d="M1013,499.11s2.65,6.27,12.55,6.27v-8.26Z" transform="translate(-9 -15.29)"/><path class="cls-3" d="M1037.6,508.5s9.69-.58,9.69,17.78h-10.46Z" transform="translate(-9 -15.29)"/><path class="cls-3" d="M998.83,508.5s-9.69-.58-9.69,17.78h10.61Z" transform="translate(-9 -15.29)"/><path class="cls-3" d="M1043,725.37l-3.71,6.07h-12.4a.8.8,0,0,0-.8.8h0a.8.8,0,0,0,.8.8h28.48a.8.8,0,0,0,.8-.8v-.08a.79.79,0,0,0-.8-.79h-6.65l1.51-2.66-7.58-3.34" transform="translate(-9 -15.29)"/><path class="cls-18" d="M1006.26,722.32s15.44,7.1,17.32,8,2.67,2.71-2.2,2.71h-20.29c-2.28,0-4.12-1.52-4.12-3.39l.16-7.33Z" transform="translate(-9 -15.29)"/><path class="cls-3" d="M1012.87,725.37l-3.71,6.07H996.77a.8.8,0,0,0-.8.8h0a.8.8,0,0,0,.8.8h28.48a.79.79,0,0,0,.79-.8v-.08a.79.79,0,0,0-.79-.79h-6.65l1.51-2.66-7.59-3.34" transform="translate(-9 -15.29)"/><path class="cls-18" d="M988.47,543.12c0-.73,5.55-.62,5.55-.62s-7.47-1.75-7.37-2.52,7.62.58,7.62.58-7.86-2.94-7.61-3.68,7.84,1.63,7.84,1.63-7.22-3.42-6.69-4.1,10.13,3,10.13,3-4.77-3.36-4.67-4.08c.07-.5,1.35.16,3.43,1.06a28.74,28.74,0,0,1,6.69,4.15l-1.29,6.19S988.41,543.85,988.47,543.12Z" transform="translate(-9 -15.29)"/><path class="cls-18" d="M1045.47,543.12c0-.73-5.55-.62-5.55-.62s7.47-1.75,7.37-2.52-7.62.58-7.62.58,7.86-2.94,7.61-3.68-7.84,1.63-7.84,1.63,7.22-3.42,6.69-4.1-10.13,3-10.13,3,4.77-3.36,4.67-4.08c-.07-.5-1.35.16-3.43,1.06a28.74,28.74,0,0,0-6.69,4.15l1.29,6.19S1045.52,543.85,1045.47,543.12Z" transform="translate(-9 -15.29)"/><path class="cls-18" d="M1014.92,469.67h0a14.31,14.31,0,0,1,14.27,14.27V495.8a6.87,6.87,0,0,1-7.91,6.84,19.66,19.66,0,0,1-16.36-19.31v-3.66A10,10,0,0,1,1014.92,469.67Z" transform="translate(-9 -15.29)"/><path class="cls-18" d="M1029.19,486.29s6.3,8,0,8" transform="translate(-9 -15.29)"/><path class="cls-4" d="M1019,467.35c2.23.62,7.93,2.73,10.43,8.39a23.82,23.82,0,0,1-7.64-2.31c-.16,3.88-1.73,10.27-9.52,14.9a12.7,12.7,0,0,0-1.24,11.44s-8.31-.89-8.31-16.9C1002.68,469.28,1013.2,463.93,1019,467.35Z" transform="translate(-9 -15.29)"/><line class="cls-20" x1="1003.96" y1="469.17" x2="1009.8" y2="473.14"/><line class="cls-20" x1="1000.89" y1="475.54" x2="1008.06" y2="482.96"/><path class="cls-15" d="M1017.88,487.71h12.31a8.46,8.46,0,0,1,1.8,5c0,2.86-3.73,8.94-7.49,10s-8.68-1.87-8.68-1.87Z" transform="translate(-9 -15.29)"/><path class="cls-18" d="M1015.83,487c1,2.56.15,5.25-1.84,6s-4.39-.71-5.37-3.27-.15-5.26,1.84-6S1014.85,484.39,1015.83,487Z" transform="translate(-9 -15.29)"/><ellipse class="cls-17" cx="792.97" cy="717.44" rx="61.62" ry="14.66"/><path class="cls-18" d="M764.87,596.41s-1.62,5.35-2.15,7.25-2,5.54-2.79,5.33.79-7.33.37-7.75-3.8,3.21-4.11,4.16.73,8.12,0,8.17-2.59-3.63-3.06-7.75,5.45-12.42,5.45-12.42Z" transform="translate(-9 -15.29)"/><path class="cls-18" d="M800.77,596.9c-.33-17.38-12.92-18.91-12.92-18.91s-12.6-1.53-13.14,15.75c-.41,13.26,3.3,49.41,5.06,65.52.49,4.54,3.71,8.27,7.54,8.74h0c3.82.46,7.08-2.48,7.63-6.9C796.88,645.44,801,610.24,800.77,596.9Z" transform="translate(-9 -15.29)"/><path class="cls-18" d="M830.47,596.9c-.33-17.38-12.93-18.91-12.93-18.91s-12.59-1.53-13.13,15.75c-.41,13.26,3.3,49.41,5.05,65.52.5,4.54,3.72,8.27,7.54,8.74h0c3.83.46,7.09-2.48,7.64-6.9C826.58,645.44,830.72,610.24,830.47,596.9Z" transform="translate(-9 -15.29)"/><path class="cls-18" d="M795.13,659.76c-.35-7.25-7.4-7.25-7.4-7.25s-7.06,0-7.4,7.25,3.54,62.56,3.54,62.56H793S795.47,667,795.13,659.76Z" transform="translate(-9 -15.29)"/><path class="cls-18" d="M784.19,722.32s-15.9,7.1-17.78,8S763.73,733,768.6,733h20.3c2.27,0,4.11-1.52,4.11-3.39v-7.33Z" transform="translate(-9 -15.29)"/><path class="cls-18" d="M823.66,654.83c-2.34-6.87-9.12-4.93-9.12-4.93s-6.78,2-5.11,9,20.69,59.16,20.69,59.16l8.78-2.52S826,661.7,823.66,654.83Z" transform="translate(-9 -15.29)"/><path class="cls-18" d="M820.53,511.53s9.5-1.5,10,11.37c.47,11.28,1.6,27.91,1.88,34.76.1,2.29-2,4.36-4.9,4.75h0c-2.86.4-5.47-1-6-3.24-1.58-6.68-5.17-23-7.6-34C811.18,512.63,820.53,511.53,820.53,511.53Z" transform="translate(-9 -15.29)"/><path class="cls-18" d="M818.27,510.22l-1-.32a52.75,52.75,0,0,0-30.46,0l-1,.33a3.89,3.89,0,0,0-2.38,3.31c-1.65,11.33-.09,48.26.48,60.47.11,2.23,1.48,4,3.14,4H817c1.66,0,3-1.73,3.14-4,.58-12.21,2.13-49.14.48-60.47A3.88,3.88,0,0,0,818.27,510.22Z" transform="translate(-9 -15.29)"/><path class="cls-18" d="M828.87,587.4c-3-16.13-8.69-21.75-8.69-21.75H783.45s-5.42,7.77-8.41,23.9a5.87,5.87,0,0,0,2.64,6c4,2.57,11.82,6.22,23.87,6.22s19.86-3.65,23.87-6.22C827.46,594.25,829.31,589.74,828.87,587.4Z" transform="translate(-9 -15.29)"/><rect class="cls-18" x="785.7" y="478.01" width="14.52" height="17.63"/><path class="cls-18" d="M808.8,499.36s-4.2,5.33-14.1,5.33v-7.57Z" transform="translate(-9 -15.29)"/><path class="cls-18" d="M785,511.53s-9.49-1.5-10,11.37c-.47,11.28-1.6,27.91-1.89,34.76-.09,2.29,2,4.36,4.9,4.75h0c2.86.4,5.48-1,6-3.24,1.58-6.68,5.17-23,7.6-34C794.32,512.63,785,511.53,785,511.53Z" transform="translate(-9 -15.29)"/><path class="cls-18" d="M779.75,552s-6-2.73-10.2,9.47c-3.67,10.69-9.38,26.38-11.61,32.87a4.06,4.06,0,0,0,1.92,5.2h0a4.06,4.06,0,0,0,5-2.28c3.06-6.15,10.34-21.17,15.27-31.34C785.78,554.32,779.75,552,779.75,552Z" transform="translate(-9 -15.29)"/><path class="cls-3" d="M828.94,656.1c0-4.13,15.08-72-8.33-92.47H783.37s-10.32,14-10.32,46.65,1.89,109.53,1.89,109.53h22.53l5.51-118s2,41.55,3.73,56.3,16.24,60,16.24,60l19.95-5.34S828.94,660.23,828.94,656.1Z" transform="translate(-9 -15.29)"/><path class="cls-4" d="M794.7,506.39s-14.9,1.26-19.76,8.32c-3.9,5.66-3.48,35-4.83,39.52s-17.93,35.66-12.17,40.12,8.88,6,10.43,4.47,5.5-11.55,5.5-11.55,27.14,3.54,44,3.54,19.56-8.83,18.18-15-1.67-34.13-3.55-48.29-1.67-15.86-23.24-21.1C800.81,509.2,794.7,506.39,794.7,506.39Z" transform="translate(-9 -15.29)"/><path class="cls-18" d="M832.43,559.48s-1.9,6.32-13.85,1.45c-10.46-4.26-26-10.29-32.39-12.88a4.07,4.07,0,0,1-2.65-4.86h0a4.07,4.07,0,0,1,5-2.31c6.64,1.74,22.75,6.15,33.64,9.13C834.66,553.41,832.43,559.48,832.43,559.48Z" transform="translate(-9 -15.29)"/><path class="cls-4" d="M788.79,553a5.82,5.82,0,0,1-2.81-6.47c.71-2.83,1.84-6.29,3.4-7.84,2.86-2.87,28.45,6.88,28.45,6.88s-1.07-25.07,5.12-34.66c9.13,2.61,9.33,6.94,11.69,28.57s-1.95,27.92-11.69,27.92C815.39,567.41,796.76,557.46,788.79,553Z" transform="translate(-9 -15.29)"/><path class="cls-4" d="M783.81,721.47s-12.44,3.83-17.34,5.44-2.53,6.13-2.53,6.13H793V722.32A10.13,10.13,0,0,1,783.81,721.47Z" transform="translate(-9 -15.29)"/><path class="cls-18" d="M830.39,717.23s-13.43,11.09-15,12.46-1.85,3.33,2.84,2l19.56-5.42c2.19-.61,3.56-2.56,3.06-4.36l-2-7.06Z" transform="translate(-9 -15.29)"/><path class="cls-4" d="M829.8,716.51s-11,7-15.26,9.87-.8,6.58-.8,6.58l28-7.76-2.86-10.32A10.12,10.12,0,0,1,829.8,716.51Z" transform="translate(-9 -15.29)"/><path class="cls-18" d="M774.19,546c0-.73,5.55-.62,5.55-.62s-7.48-1.75-7.37-2.52,7.62.58,7.62.58-7.86-2.94-7.61-3.68,7.84,1.63,7.84,1.63-7.22-3.42-6.7-4.1,10.14,2.94,10.14,2.94-4.77-3.35-4.67-4.07c.07-.5,1.35.16,3.43,1.06a28.74,28.74,0,0,1,6.69,4.15l-1.29,6.18S774.13,546.76,774.19,546Z" transform="translate(-9 -15.29)"/><path class="cls-18" d="M787.06,453.08h14.34a5.44,5.44,0,0,1,5.44,5.44v20.42a8.68,8.68,0,0,1-8.68,8.68h-14a2.56,2.56,0,0,1-2.56-2.56V458.52A5.44,5.44,0,0,1,787.06,453.08Z"/><path class="cls-18" d="M790.62,485.63s-6.54,8.31,0,8.31" transform="translate(-9 -15.29)"/><path class="cls-4" d="M805.17,487.51s-4.32-4.77-3.3-14.43c-8.39,0-10.62,2.16-10.62,2.16s-5.14-4.44,1.47-9.91,23.38-4.06,25.8,6.87,1,22.17-9.53,27.53C809.88,491.64,805.17,487.51,805.17,487.51Z" transform="translate(-9 -15.29)"/><line class="cls-20" x1="797.29" y1="469.57" x2="791.45" y2="473.55"/><line class="cls-20" x1="800.35" y1="475.95" x2="793.19" y2="483.37"/><path class="cls-15" d="M801.36,488.11h-12.3a8.44,8.44,0,0,0-1.81,5c0,2.86,3.73,9,7.49,10.05s9.09-.88,9.09-.88Z" transform="translate(-9 -15.29)"/><path class="cls-18" d="M803.42,487.36c-1,2.57-.16,5.26,1.83,6s4.4-.71,5.37-3.27.16-5.26-1.83-6S804.39,484.8,803.42,487.36Z" transform="translate(-9 -15.29)"/></svg>