<svg xmlns="http://www.w3.org/2000/svg" xmlns:xlink="http://www.w3.org/1999/xlink" viewBox="0 0 500 500"><defs><style>.cls-1{fill:none;}.cls-2{isolation:isolate;}.cls-3{fill:#f0f8fa;}.cls-4{fill:#b8ebf4;}.cls-10,.cls-32,.cls-5{mix-blend-mode:overlay;}.cls-6{fill:url(#Degradado_sin_nombre_4);}.cls-7{opacity:0.6;}.cls-8{fill:#b2c8cc;}.cls-9{fill:#ffbe60;}.cls-10{fill:url(#Degradado_sin_nombre_4-2);}.cls-11{fill:#ffe2bb;}.cls-12{fill:#f29d2c;}.cls-13{fill:#dfdfdf;}.cls-14{fill:#e33b38;}.cls-15{fill:#f25757;}.cls-16,.cls-32{fill:#fff;}.cls-17{fill:#f95d5d;}.cls-18{clip-path:url(#clip-path);}.cls-19{fill:#c7bd3a;}.cls-20{fill:url(#Degradado_sin_nombre_4-3);}.cls-21{fill:#ada028;}.cls-22{clip-path:url(#clip-path-2);}.cls-23{fill:#aac037;}.cls-24{fill:url(#Degradado_sin_nombre_4-4);}.cls-25{fill:#8f9e1e;}.cls-26,.cls-40,.cls-42,.cls-43{fill:#054651;}.cls-27{fill:#d87c0e;}.cls-28{fill:#0e5768;}.cls-29{clip-path:url(#clip-path-3);}.cls-30{fill:#329bad;}.cls-31{clip-path:url(#clip-path-4);}.cls-33{clip-path:url(#clip-path-5);}.cls-34{fill:url(#Degradado_sin_nombre_4-5);}.cls-35{clip-path:url(#clip-path-6);}.cls-36{fill:url(#Degradado_sin_nombre_4-6);}.cls-37{fill:#282f39;}.cls-38{fill:#4d555e;}.cls-39{fill:#f1f9fb;}.cls-40{font-size:12.61px;}.cls-40,.cls-42,.cls-43{font-family:BebasNeueBold;}.cls-41{letter-spacing:-0.01em;}.cls-42{font-size:24.92px;letter-spacing:0.02em;}.cls-43{font-size:30.29px;letter-spacing:0.2em;}</style><linearGradient id="Degradado_sin_nombre_4" x1="233.66" y1="15.93" x2="233.66" y2="383.96" gradientUnits="userSpaceOnUse"><stop offset="0" stop-color="#fff"/><stop offset="1" stop-color="#1d1d1b"/></linearGradient><linearGradient id="Degradado_sin_nombre_4-2" x1="242.23" y1="180.07" x2="242.23" y2="382.28" xlink:href="#Degradado_sin_nombre_4"/><clipPath id="clip-path"><path class="cls-1" d="M67.69,393.19c2.71-5.91,5.58-11.95,6.33-18.42a21.64,21.64,0,0,0-4.67-16c-3.82-4.69-9.5-7.62-13.2-12.41A20.64,20.64,0,0,1,54,325.21c2.93-6,10.55-10.44,16.34-7.14,5.4,3.07,6,10.51,9.48,15.67,4.45,6.65,13.21,9,18.79,14.71A20.88,20.88,0,0,1,104,366.87c-.89,4.36-3.22,8.63-2.44,13,1.49,8.31,12.9,11.57,15.13,19.71,1.42,5.19-1.6,10.79-5.93,14s-9.75,4.46-15,5.56c-8.6,1.8-18.53,3-25.32-2.55C70.41,416.57,59.81,410.35,67.69,393.19Z"/></clipPath><linearGradient id="Degradado_sin_nombre_4-3" x1="82.16" y1="321.85" x2="87.72" y2="430.79" xlink:href="#Degradado_sin_nombre_4"/><clipPath id="clip-path-2"><path class="cls-1" d="M54.59,401.55c-3.23-1.7-5.17-5.16-6.54-8.55s-2.23-7-3.88-10.24a23.87,23.87,0,0,0-8.59-9.46c-4.54-2.87-9.93-4.12-14.65-6.69s-9-7.22-8.58-12.58c.48-5.71,6.4-9.74,12.12-10s11.2,2.17,16.3,4.79a216.2,216.2,0,0,1,20.54,12,39.06,39.06,0,0,1,8.45,7c7.49,8.78,6.67,22.55.56,32.34C70.32,400.06,61.94,405.4,54.59,401.55Z"/></clipPath><linearGradient id="Degradado_sin_nombre_4-4" x1="14.53" y1="346.57" x2="89.85" y2="406.43" xlink:href="#Degradado_sin_nombre_4"/><clipPath id="clip-path-3"><rect class="cls-1" x="139.31" y="256.73" width="64.09" height="150.18"/></clipPath><clipPath id="clip-path-4"><rect class="cls-1" x="244.07" y="257.74" width="140.41" height="94.21"/></clipPath><clipPath id="clip-path-5"><path class="cls-1" d="M408.9,393.19c-2.72-5.91-5.58-11.95-6.33-18.42a21.67,21.67,0,0,1,4.66-16c3.82-4.69,9.5-7.62,13.2-12.41a20.61,20.61,0,0,0,2.16-21.16c-2.92-6-10.55-10.44-16.34-7.14-5.39,3.07-6,10.51-9.48,15.67-4.45,6.65-13.2,9-18.79,14.71a20.88,20.88,0,0,0-5.38,18.42c.9,4.36,3.22,8.63,2.44,13-1.49,8.31-12.9,11.57-15.12,19.71-1.42,5.19,1.59,10.79,5.93,14s9.74,4.46,15,5.56c8.6,1.8,18.52,3,25.32-2.55C406.18,416.57,416.77,410.35,408.9,393.19Z"/></clipPath><linearGradient id="Degradado_sin_nombre_4-5" x1="407.98" y1="314.13" x2="374.62" y2="448.58" xlink:href="#Degradado_sin_nombre_4"/><clipPath id="clip-path-6"><path class="cls-1" d="M422,401.55c3.24-1.7,5.17-5.16,6.54-8.55s2.24-7,3.88-10.24A24,24,0,0,1,441,373.3c4.55-2.87,9.93-4.12,14.65-6.69s9-7.22,8.59-12.58c-.49-5.71-6.41-9.74-12.13-10s-11.19,2.17-16.29,4.79a213.74,213.74,0,0,0-20.54,12,39.11,39.11,0,0,0-8.46,7c-7.48,8.78-6.67,22.55-.55,32.34C406.27,400.06,414.64,405.4,422,401.55Z"/></clipPath><linearGradient id="Degradado_sin_nombre_4-6" x1="466.97" y1="305.95" x2="395.33" y2="434.03" xlink:href="#Degradado_sin_nombre_4"/></defs><g class="cls-2"><g id="BACKGROUND"><rect class="cls-3" width="500" height="500"/></g><g id="OBJECTS"><path class="cls-4" d="M91.56,413.29C61.7,387.46-18,319.57,23.36,267.32c9.44-11.92,28.83-11.51,39.08-22.74,12.89-14.12,6.38-36.27,1.45-54.75-6-22.5-8.35-47-.1-68.73S93,81.2,116.28,82c13.7.49,26.3,7.12,38.79,12.78,20.3,9.19,42.28,16.2,64.52,14.69,28.94-2,55.22-18.07,83.94-22.12,37-5.22,75.06,10.72,101.28,37.26s41.36,62.6,47.54,99.39,3.79,75.67-9.86,110.54-38.91,65.61-72,83.19Z"/><g class="cls-5"><path class="cls-6" d="M91.56,413.29C61.7,387.46-18,319.57,23.36,267.32c9.44-11.92,28.83-11.51,39.08-22.74,12.89-14.12,6.38-36.27,1.45-54.75-6-22.5-8.35-47-.1-68.73S93,81.2,116.28,82c13.7.49,26.3,7.12,38.79,12.78,20.3,9.19,42.28,16.2,64.52,14.69,28.94-2,55.22-18.07,83.94-22.12,37-5.22,75.06,10.72,101.28,37.26s41.36,62.6,47.54,99.39,3.79,75.67-9.86,110.54-38.91,65.61-72,83.19Z"/></g><g class="cls-7"><path class="cls-8" d="M62.16,419.37c-13.51-.2-44.86,3.29-43.55,8.75,1.23,5.15,23.23,7.43,31.69,7.89,37.23,2,68.53,3.68,105.21,4.66,4.48.12,6.28,4.26,2.74,6.32h0c-3.05,1.77-5.85,4.95-2.29,6.13,17.22,5.72,96.31,3.29,136.46,1.43,48.63-2.26,162.63-8,171.25-23.19,2.86-5.07-5.09-8.83-11.77-10.27A200.11,200.11,0,0,0,403,416.86Z"/></g><rect class="cls-9" x="99.98" y="145.86" width="284.5" height="270.86"/><rect class="cls-10" x="99.98" y="145.86" width="284.5" height="270.86"/><rect class="cls-11" x="99.98" y="397.1" width="284.5" height="19.63"/><rect class="cls-12" x="99.98" y="145.86" width="284.5" height="83.66"/><path class="cls-13" d="M82.43,192c-.86,14.36,11.93,26,26.64,26s26.64-11.67,26.64-26-11.93-26.05-26.64-26.05S83.3,177.48,82.43,192Z"/><ellipse class="cls-14" cx="162.34" cy="191.99" rx="26.64" ry="26.05"/><ellipse class="cls-13" cx="215.62" cy="191.99" rx="26.64" ry="26.05"/><ellipse class="cls-14" cx="268.89" cy="191.99" rx="26.64" ry="26.05"/><ellipse class="cls-13" cx="322.16" cy="191.99" rx="26.64" ry="26.05"/><ellipse class="cls-14" cx="375.44" cy="191.99" rx="26.64" ry="26.05"/><polygon class="cls-15" points="402.07 191.99 82.43 191.99 90.17 144.39 396.48 144.39 402.07 191.99"/><polygon class="cls-16" points="82.43 191.99 90.17 144.39 142.99 144.39 135.71 191.99 82.43 191.99"/><polygon class="cls-16" points="242.25 191.99 242.25 144.39 193.94 144.39 188.98 191.99 242.25 191.99"/><polygon class="cls-16" points="295.53 191.99 295.53 144.39 343.84 144.39 348.8 191.99 295.53 191.99"/><rect class="cls-14" x="89.58" y="131.63" width="307.17" height="15.54"/><rect class="cls-17" x="89.58" y="131.63" width="307.17" height="3.96"/><rect class="cls-16" x="89.58" y="131.63" width="307.17" height="0.99"/><rect class="cls-16" x="229.35" y="249.89" width="155.13" height="119.01"/><rect class="cls-16" x="124.47" y="249.89" width="86.1" height="160.46"/><g class="cls-18"><path class="cls-19" d="M67.69,393.19c2.71-5.91,5.58-11.95,6.33-18.42a21.64,21.64,0,0,0-4.67-16c-3.82-4.69-9.5-7.62-13.2-12.41A20.64,20.64,0,0,1,54,325.21c2.93-6,10.55-10.44,16.34-7.14,5.4,3.07,6,10.51,9.48,15.67,4.45,6.65,13.21,9,18.79,14.71A20.88,20.88,0,0,1,104,366.87c-.89,4.36-3.22,8.63-2.44,13,1.49,8.31,12.9,11.57,15.13,19.71,1.42,5.19-1.6,10.79-5.93,14s-9.75,4.46-15,5.56c-8.6,1.8-18.53,3-25.32-2.55C70.41,416.57,59.81,410.35,67.69,393.19Z"/><g class="cls-5"><path class="cls-20" d="M67.69,393.19c2.71-5.91,5.58-11.95,6.33-18.42a21.64,21.64,0,0,0-4.67-16c-3.82-4.69-9.5-7.62-13.2-12.41A20.64,20.64,0,0,1,54,325.21c2.93-6,10.55-10.44,16.34-7.14,5.4,3.07,6,10.51,9.48,15.67,4.45,6.65,13.21,9,18.79,14.71A20.88,20.88,0,0,1,104,366.87c-.89,4.36-3.22,8.63-2.44,13,1.49,8.31,12.9,11.57,15.13,19.71,1.42,5.19-1.6,10.79-5.93,14s-9.75,4.46-15,5.56c-8.6,1.8-18.53,3-25.32-2.55C70.41,416.57,59.81,410.35,67.69,393.19Z"/></g><path class="cls-21" d="M61.29,315.48C62,330.55,74.62,340.63,83,351.89c4.56,6.17,7.79,12.9,8,20.69.09,4.1-.4,8.18-.58,12.27a66.46,66.46,0,0,0,.61,12.29,69.18,69.18,0,0,0,3.26,13.14c1.37,3.94,3,9-.1,12.53-.63.74.43,1.81,1.07,1.08,2.16-2.49,2.54-5.78,2-8.92-.73-4-2.54-7.82-3.51-11.79a64.12,64.12,0,0,1-1.81-12.77c-.17-4.26.22-8.48.47-12.73a41.09,41.09,0,0,0-.73-12.07,35.67,35.67,0,0,0-4.24-9.92c-3.8-6.29-8.92-11.59-13.57-17.24-5.43-6.59-10.53-14.17-11-23,0-1-1.56-1-1.51,0Z"/><path class="cls-21" d="M48.38,332.2A63.9,63.9,0,0,0,78.7,346.76c1,.17,1.36-1.29.41-1.46a62.38,62.38,0,0,1-29.66-14.17c-.73-.63-1.81.43-1.07,1.07Z"/><path class="cls-21" d="M82,348.65a30.54,30.54,0,0,0-2.32-20.84c-.43-.87-1.74-.11-1.31.76a28.87,28.87,0,0,1,2.17,19.68c-.23.95,1.23,1.35,1.46.4Z"/><path class="cls-21" d="M70.57,378.48c1.26,5.09,4.42,9.33,8.08,13,4.23,4.23,9,8,13.54,11.85.73.63,1.81-.43,1.07-1.07-4.36-3.71-8.88-7.3-13-11.3-3.71-3.6-7-7.75-8.25-12.86-.23-.95-1.69-.55-1.46.4Z"/><path class="cls-21" d="M94.68,406.91c-.34-12.28,11.94-21.51,9.53-34.14-.18-.95-1.64-.55-1.46.41,1.21,6.31-1.85,12.31-4.64,17.77-2.56,5-5.1,10.21-5,16,0,1,1.55,1,1.52,0Z"/></g><g class="cls-22"><path class="cls-23" d="M54.59,401.55c-3.23-1.7-5.17-5.16-6.54-8.55s-2.23-7-3.88-10.24a23.87,23.87,0,0,0-8.59-9.46c-4.54-2.87-9.93-4.12-14.65-6.69s-9-7.22-8.58-12.58c.48-5.71,6.4-9.74,12.12-10s11.2,2.17,16.3,4.79a216.2,216.2,0,0,1,20.54,12,39.06,39.06,0,0,1,8.45,7c7.49,8.78,6.67,22.55.56,32.34C70.32,400.06,61.94,405.4,54.59,401.55Z"/><g class="cls-5"><path class="cls-24" d="M54.59,401.55c-3.23-1.7-5.17-5.16-6.54-8.55s-2.23-7-3.88-10.24a23.87,23.87,0,0,0-8.59-9.46c-4.54-2.87-9.93-4.12-14.65-6.69s-9-7.22-8.58-12.58c.48-5.71,6.4-9.74,12.12-10s11.2,2.17,16.3,4.79a216.2,216.2,0,0,1,20.54,12,39.06,39.06,0,0,1,8.45,7c7.49,8.78,6.67,22.55.56,32.34C70.32,400.06,61.94,405.4,54.59,401.55Z"/></g><path class="cls-25" d="M12.61,349.68c14.08,3.62,27.38,10.13,37.72,20.5,8.32,8.35,14.25,18.67,18.58,29.56,2.24,5.62,4.09,11.39,5.83,17.19a.76.76,0,0,0,1.46-.41c-3.22-10.74-6.89-21.43-12.51-31.19a75.48,75.48,0,0,0-26.22-27.12,90.76,90.76,0,0,0-24.46-10,.76.76,0,0,0-.4,1.46Z"/><path class="cls-25" d="M50.14,347.2C54.42,354.87,59.67,362,63.32,370c4,8.66,5.18,18.09,5.35,27.53a.38.38,0,0,0,.76,0c-.17-9.25-1.33-18.51-5.07-27.05-3.66-8.36-9.14-15.74-13.56-23.68a.38.38,0,0,0-.66.38Z"/><path class="cls-25" d="M30.45,376.89c7.73,1.79,15.61,3.62,22.49,7.72a39.07,39.07,0,0,1,8.43,7,36.31,36.31,0,0,0,7.5,6.67.38.38,0,0,0,.38-.66c-3.11-1.86-5.47-4.58-8-7.18a37.51,37.51,0,0,0-8.38-6.72c-6.84-4-14.63-5.79-22.27-7.56-.47-.11-.67.62-.2.73Z"/></g><path class="cls-25" d="M59.23,381C66.56,392,71,404.39,74.74,416.93a.76.76,0,0,0,1.46-.41c-3.8-12.65-8.27-25.19-15.66-36.25-.54-.8-1.86,0-1.31.77Z"/><rect class="cls-26" x="131.09" y="256.73" width="72.3" height="153.62"/><rect class="cls-26" x="236.71" y="257.74" width="147.77" height="104.52"/><rect class="cls-27" x="229.35" y="368.9" width="155.13" height="9.55"/><rect class="cls-28" x="244.07" y="257.74" width="140.41" height="94.21"/><rect class="cls-28" x="139.31" y="256.73" width="64.09" height="150.18"/><g class="cls-29"><rect class="cls-30" x="142.63" y="230.48" width="26.91" height="148.73" transform="translate(201.9 -34.56) rotate(34.8)"/><rect class="cls-30" x="172.95" y="246.31" width="6.54" height="148.73" transform="translate(214.52 -43.22) rotate(34.8)"/></g><g class="cls-31"><rect class="cls-30" x="282.07" y="233.2" width="26.91" height="148.73" transform="translate(228.39 -113.65) rotate(34.8)"/><rect class="cls-30" x="331.63" y="227.39" width="6.54" height="148.73" transform="translate(232.11 -137.16) rotate(34.8)"/></g><path class="cls-32" d="M89.58,147.17H396.75s-59.45,18.23-160,18.77S89.58,147.17,89.58,147.17Z"/><g class="cls-33"><path class="cls-19" d="M408.9,393.19c-2.72-5.91-5.58-11.95-6.33-18.42a21.67,21.67,0,0,1,4.66-16c3.82-4.69,9.5-7.62,13.2-12.41a20.61,20.61,0,0,0,2.16-21.16c-2.92-6-10.55-10.44-16.34-7.14-5.39,3.07-6,10.51-9.48,15.67-4.45,6.65-13.2,9-18.79,14.71a20.88,20.88,0,0,0-5.38,18.42c.9,4.36,3.22,8.63,2.44,13-1.49,8.31-12.9,11.57-15.12,19.71-1.42,5.19,1.59,10.79,5.93,14s9.74,4.46,15,5.56c8.6,1.8,18.52,3,25.32-2.55C406.18,416.57,416.77,410.35,408.9,393.19Z"/><g class="cls-5"><path class="cls-34" d="M408.9,393.19c-2.72-5.91-5.58-11.95-6.33-18.42a21.67,21.67,0,0,1,4.66-16c3.82-4.69,9.5-7.62,13.2-12.41a20.61,20.61,0,0,0,2.16-21.16c-2.92-6-10.55-10.44-16.34-7.14-5.39,3.07-6,10.51-9.48,15.67-4.45,6.65-13.2,9-18.79,14.71a20.88,20.88,0,0,0-5.38,18.42c.9,4.36,3.22,8.63,2.44,13-1.49,8.31-12.9,11.57-15.12,19.71-1.42,5.19,1.59,10.79,5.93,14s9.74,4.46,15,5.56c8.6,1.8,18.52,3,25.32-2.55C406.18,416.57,416.77,410.35,408.9,393.19Z"/></g><path class="cls-21" d="M413.78,315.48c-.75,15.61-14.85,25.84-23,37.81a41.73,41.73,0,0,0-4.91,9.41,33.22,33.22,0,0,0-1.72,11.67c.06,4.26.6,8.5.64,12.76A64.3,64.3,0,0,1,383.65,400a66.56,66.56,0,0,1-1.71,6.85c-.67,2.18-1.54,4.3-2.13,6.5-1,3.61-1,7.61,1.6,10.57.64.73,1.71-.34,1.07-1.08-2.74-3.15-1.77-7.57-.57-11.16a87.19,87.19,0,0,0,3.24-11.52,66.26,66.26,0,0,0,1.17-12.24c0-4.1-.47-8.16-.62-12.25a33.85,33.85,0,0,1,1.5-12.13,40.09,40.09,0,0,1,4.9-9.46c4.15-6.11,9.41-11.35,13.92-17.19,4.81-6.24,8.89-13.32,9.27-21.38,0-1-1.46-1-1.51,0Z"/><path class="cls-21" d="M427.13,331.13a62.39,62.39,0,0,1-29.65,14.17c-1,.17-.55,1.63.4,1.46A63.86,63.86,0,0,0,428.2,332.2c.74-.64-.34-1.7-1.07-1.07Z"/><path class="cls-21" d="M396,348.25a28.87,28.87,0,0,1,2.16-19.68c.43-.87-.87-1.63-1.31-.76a30.54,30.54,0,0,0-2.31,20.84c.23,1,1.69.55,1.46-.4Z"/><path class="cls-21" d="M404.55,378.08c-1.26,5.11-4.54,9.26-8.24,12.86-4.11,4-8.63,7.59-13,11.3-.74.64.33,1.7,1.07,1.07,4.55-3.88,9.3-7.62,13.53-11.85,3.66-3.65,6.83-7.89,8.08-13a.76.76,0,0,0-1.46-.4Z"/><path class="cls-21" d="M383.42,406.91c.16-5.75-2.39-11-4.95-16-2.79-5.46-5.84-11.46-4.64-17.77.19-1-1.27-1.36-1.46-.41-2.4,12.63,9.88,21.86,9.54,34.14a.76.76,0,0,0,1.51,0Z"/></g><g class="cls-35"><path class="cls-23" d="M422,401.55c3.24-1.7,5.17-5.16,6.54-8.55s2.24-7,3.88-10.24A24,24,0,0,1,441,373.3c4.55-2.87,9.93-4.12,14.65-6.69s9-7.22,8.59-12.58c-.49-5.71-6.41-9.74-12.13-10s-11.19,2.17-16.29,4.79a213.74,213.74,0,0,0-20.54,12,39.11,39.11,0,0,0-8.46,7c-7.48,8.78-6.67,22.55-.55,32.34C406.27,400.06,414.64,405.4,422,401.55Z"/><g class="cls-5"><path class="cls-36" d="M422,401.55c3.24-1.7,5.17-5.16,6.54-8.55s2.24-7,3.88-10.24A24,24,0,0,1,441,373.3c4.55-2.87,9.93-4.12,14.65-6.69s9-7.22,8.59-12.58c-.49-5.71-6.41-9.74-12.13-10s-11.19,2.17-16.29,4.79a213.74,213.74,0,0,0-20.54,12,39.11,39.11,0,0,0-8.46,7c-7.48,8.78-6.67,22.55-.55,32.34C406.27,400.06,414.64,405.4,422,401.55Z"/></g><path class="cls-25" d="M463.57,348.22c-14.21,3.66-27.68,10.24-38.16,20.66-8.52,8.48-14.58,19-19,30.06-2.31,5.75-4.2,11.65-6,17.58a.76.76,0,0,0,1.46.41c3.15-10.53,6.73-21,12.21-30.58a74,74,0,0,1,25.66-26.74A89.34,89.34,0,0,1,464,349.68a.76.76,0,0,0-.41-1.46Z"/><path class="cls-25" d="M425.79,346.82c-4.43,7.94-9.91,15.32-13.57,23.68-3.74,8.54-4.89,17.8-5.06,27.05a.38.38,0,0,0,.75,0c.18-9.44,1.4-18.87,5.35-27.53,3.66-8,8.91-15.15,13.18-22.82a.38.38,0,0,0-.65-.38Z"/><path class="cls-25" d="M445.93,376.16c-7.64,1.77-15.42,3.59-22.27,7.56a37.24,37.24,0,0,0-8.23,6.56c-2.53,2.65-4.93,5.44-8.1,7.34a.38.38,0,0,0,.38.66,36.05,36.05,0,0,0,7.5-6.67,39.31,39.31,0,0,1,8.43-7c6.88-4.1,14.77-5.93,22.49-7.72.48-.11.27-.84-.2-.73Z"/></g><path class="cls-25" d="M416.05,380.27c-7.4,11.06-11.87,23.6-15.66,36.25a.76.76,0,0,0,1.46.41C405.61,404.39,410,392,417.36,381c.54-.81-.77-1.57-1.31-.77Z"/><rect class="cls-37" x="56.44" y="410.35" width="371.58" height="12.76"/><rect class="cls-38" x="56.44" y="410.35" width="371.58" height="4.09"/><path class="cls-39" d="M407.58,246.57c-2.87-1.43-5.84-2.93-7.87-5.42s-2.87-6.25-1.1-8.93c1.47-2.21,4.27-3.13,6.91-3.48a26.71,26.71,0,0,1,18.91,4.67A33.13,33.13,0,0,1,436.62,204c4.16-3.27,9.29-5.53,14.58-5.4s10.64,3,12.94,7.73c1.46,3,1.62,6.49,1.48,9.83a61.12,61.12,0,0,1-4.05,19.35c12-3.28,32.28-5.16,35.42,6.9,6.34,24.3-96.31,36.89-102.69,14.92C392.62,251.54,407.58,246.57,407.58,246.57Z"/><path class="cls-39" d="M31.73,291a15.68,15.68,0,0,1-5.4-3.72c-1.39-1.71-2-4.29-.75-6.13,1-1.52,2.93-2.15,4.74-2.39a18.33,18.33,0,0,1,13,3.21,22.77,22.77,0,0,1,8.37-20.2,15.94,15.94,0,0,1,10-3.7,10.18,10.18,0,0,1,8.89,5.3,14.09,14.09,0,0,1,1,6.76,42,42,0,0,1-2.78,13.28c8.25-2.25,22.16-3.54,24.32,4.73,4.35,16.68-66.12,25.33-70.5,10.25C21.46,294.38,31.73,291,31.73,291Z"/><path class="cls-4" d="M353.36,102a13.69,13.69,0,0,1-4.74-3.27c-1.23-1.5-1.74-3.76-.67-5.38a5.73,5.73,0,0,1,4.16-2.1,16.13,16.13,0,0,1,11.41,2.82,20,20,0,0,1,7.35-17.74,14,14,0,0,1,8.78-3.25,8.93,8.93,0,0,1,7.81,4.66,12.3,12.3,0,0,1,.89,5.93,36.73,36.73,0,0,1-2.44,11.66c7.25-2,19.46-3.11,21.35,4.16,3.82,14.65-58.06,22.24-61.91,9C344.34,105,353.36,102,353.36,102Z"/><path class="cls-4" d="M415.85,249.18c-2.25-1.12-4.57-2.3-6.16-4.24s-2.25-4.9-.87-7c1.15-1.73,3.35-2.45,5.41-2.73a21,21,0,0,1,14.82,3.66,25.91,25.91,0,0,1,9.54-23A18.18,18.18,0,0,1,450,211.61c4.14.1,8.34,2.32,10.14,6a16.09,16.09,0,0,1,1.16,7.7,47.79,47.79,0,0,1-3.18,15.16c9.42-2.57,25.29-4,27.75,5.4,5,19-75.43,28.9-80.43,11.69C404.13,253.08,415.85,249.18,415.85,249.18Z"/><path class="cls-4" d="M49.29,63.9A9.3,9.3,0,0,1,46,61.65a3.23,3.23,0,0,1-.46-3.7,4,4,0,0,1,2.86-1.45,11.1,11.1,0,0,1,7.85,1.94,13.75,13.75,0,0,1,5.06-12.2,9.68,9.68,0,0,1,6-2.24,6.15,6.15,0,0,1,5.37,3.21,8.55,8.55,0,0,1,.61,4.08,25.36,25.36,0,0,1-1.68,8c5-1.35,13.39-2.14,14.7,2.87,2.63,10.08-40,15.3-42.61,6.19C43.08,66,49.29,63.9,49.29,63.9Z"/><path class="cls-16" d="M314.28,285.9a2.27,2.27,0,1,1-2.27-2.27A2.27,2.27,0,0,1,314.28,285.9Z"/><rect class="cls-16" x="276.09" y="294.14" width="70.42" height="38.6" rx="3.06"/><text class="cls-40" transform="translate(293.99 308.77)"><tspan class="cls-41">w</tspan><tspan x="9.16" y="0">e a</tspan><tspan class="cls-41" x="24.23" y="0">r</tspan><tspan x="28.23" y="0">e</tspan></text><text class="cls-42" transform="translate(280.97 328.55)">OPEN</text><path class="cls-16" d="M327.45,297.63H295.29L312,285.27Zm-29.1-1h26.23L312,286.54Z"/><rect class="cls-12" x="340.98" y="233.64" width="34.45" height="12.08"/><rect class="cls-12" x="106.02" y="234.04" width="34.45" height="12.08"/><rect class="cls-12" x="309.74" y="236.15" width="17.51" height="7.85"/><rect class="cls-27" x="217.98" y="383.85" width="17.51" height="7.85"/><rect class="cls-27" x="267.33" y="383.85" width="17.51" height="7.85"/><rect class="cls-16" x="182.67" y="88.64" width="124.24" height="38.25"/><path class="cls-30" d="M308.53,128.5H181.06V87H308.53Zm-124.24-3.22h121v-35h-121Z"/><text class="cls-43" transform="translate(200.22 116.41)">SHOP</text></g></g></svg>