<svg xmlns="http://www.w3.org/2000/svg" viewBox="0 0 617.68 340.12"><defs><style>.cls-1{fill:#e8505b;}.cls-2{opacity:0.3;}.cls-3{fill:#fff;}.cls-4{fill:#263238;}.cls-5{fill:#ffbe9d;}.cls-6{fill:#455a64;}.cls-7{fill:#eb996e;}.cls-8{fill:none;stroke:#4e585d;stroke-miterlimit:10;}.cls-9{fill:#e0e0e0;}.cls-10{fill:#ebebeb;}.cls-11{fill:#b78876;}.cls-12{fill:#aa6550;}</style></defs><g id="Icons"><rect class="cls-1" x="241.3" y="11.53" width="6.6" height="29.59"/><rect class="cls-1" x="268.3" y="36.7" width="6.6" height="29.59" transform="translate(193.11 297.93) rotate(-90)"/><path class="cls-1" d="M296.18,51.57a1.87,1.87,0,0,1-.05-.4c0-.29-.05-.68-.08-1.17,0-.26,0-.55-.06-.86s-.1-.66-.16-1a17.67,17.67,0,0,0-.52-2.54,23.68,23.68,0,0,0-2.74-6.52A24.43,24.43,0,0,0,263.2,28.63,24.91,24.91,0,0,0,260,30,25.69,25.69,0,0,0,257,32a29.29,29.29,0,0,0-2.77,2.36,28.36,28.36,0,0,0-2.39,2.83,23.86,23.86,0,0,0-3.49,6.72,26.08,26.08,0,0,0-1.26,7.7,26.2,26.2,0,0,0,1.26,7.71A23.6,23.6,0,0,0,251.86,66a27.08,27.08,0,0,0,2.39,2.83A26.79,26.79,0,0,0,257,71.18a24.44,24.44,0,0,0,3,1.92,26.47,26.47,0,0,0,3.19,1.41A24.56,24.56,0,0,0,276,75.58a24.64,24.64,0,0,0,16.54-11.49,23.54,23.54,0,0,0,2.74-6.53,17.14,17.14,0,0,0,.52-2.54c.06-.37.13-.71.16-1s0-.61.06-.87c0-.49.06-.88.08-1.16a1.73,1.73,0,0,1,.05-.4,2.38,2.38,0,0,1,0,.4c0,.29,0,.68,0,1.17l0,.87c0,.32-.09.66-.14,1a17.18,17.18,0,0,1-.47,2.56,23.49,23.49,0,0,1-2.69,6.62A24.82,24.82,0,0,1,276.11,76,25.08,25.08,0,0,1,263,75a27.35,27.35,0,0,1-3.25-1.42,26.86,26.86,0,0,1-3.06-2,29,29,0,0,1-2.83-2.4,27.2,27.2,0,0,1-2.44-2.89,23.7,23.7,0,0,1-3.57-6.86,26.53,26.53,0,0,1-1.29-7.87,26.52,26.52,0,0,1,1.29-7.86,23.7,23.7,0,0,1,3.57-6.86A28.23,28.23,0,0,1,253.89,34a30.44,30.44,0,0,1,2.83-2.4,26.28,26.28,0,0,1,3.06-1.95A24.44,24.44,0,0,1,263,28.18a24.88,24.88,0,0,1,13.08-1.05A24.85,24.85,0,0,1,292.82,38.9a23.61,23.61,0,0,1,2.69,6.62,17.29,17.29,0,0,1,.47,2.57c0,.37.11.72.14,1l0,.87c0,.5,0,.89,0,1.18A2.47,2.47,0,0,1,296.18,51.57Z" transform="translate(-27 -25.17)"/></g><g id="Character_3" data-name="Character 3"><path class="cls-1" d="M600.72,255.35s29.26-7,30.23-8.2l-24.07-62a45.35,45.35,0,0,0-28.07-27.36,79.53,79.53,0,0,0-28.42-4.39l-40.63-2.15a80.47,80.47,0,0,0-32.06,8.87,64.69,64.69,0,0,0-30.09,33.17l-18.22,45.51,46,9.61,1.74,48.9-6.93,67.47H597.07l-.88-106.94h0Z" transform="translate(-27 -25.17)"/><g class="cls-2"><path class="cls-3" d="M625.94,239.05c0,.14-7.55,2.61-17,5.53s-17.07,5.17-17.12,5,7.55-2.61,17-5.53S625.9,238.91,625.94,239.05Z" transform="translate(-27 -25.17)"/></g><path class="cls-4" d="M493.17,195.47a6.06,6.06,0,0,1-.78-1.07c-.46-.7-1.18-1.7-2.09-2.9a50.31,50.31,0,0,0-3.45-4,51.85,51.85,0,0,0-4.77-4.4,54.93,54.93,0,0,0-5.3-3.74,48.76,48.76,0,0,0-4.67-2.51c-1.37-.65-2.49-1.13-3.28-1.44a5.72,5.72,0,0,1-1.21-.54,6.6,6.6,0,0,1,1.28.35,33,33,0,0,1,3.36,1.29,43.45,43.45,0,0,1,4.76,2.44,50.23,50.23,0,0,1,5.39,3.74,48.81,48.81,0,0,1,4.79,4.48,42.14,42.14,0,0,1,3.39,4.14,30.44,30.44,0,0,1,2,3A6.36,6.36,0,0,1,493.17,195.47Z" transform="translate(-27 -25.17)"/><path class="cls-4" d="M487.18,210.26c.14,0-1.28,15-3.17,33.35s-3.54,33.31-3.68,33.29,1.27-14.94,3.16-33.35S487,210.25,487.18,210.26Z" transform="translate(-27 -25.17)"/><path class="cls-4" d="M587.09,182.6a29.7,29.7,0,0,1-.66-3,56.6,56.6,0,0,0-2-7.17,55.82,55.82,0,0,0-3-6.81,28.9,28.9,0,0,1-1.42-2.75s.22.21.53.65.73,1.09,1.21,1.92a41.58,41.58,0,0,1,3.17,6.82,42.47,42.47,0,0,1,1.89,7.27c.15.95.24,1.72.28,2.26A2.91,2.91,0,0,1,587.09,182.6Z" transform="translate(-27 -25.17)"/><path class="cls-4" d="M589.63,234.8a8.12,8.12,0,0,1-.25-1.47c-.12-1-.28-2.32-.44-4-.33-3.41-.68-8.12-.86-13.34s-.17-9.94-.08-13.36c0-1.71.1-3.09.16-4a9.6,9.6,0,0,1,.14-1.49,7.43,7.43,0,0,1,.06,1.49c0,1.05,0,2.41,0,4.05,0,3.41,0,8.13.23,13.34s.47,9.91.71,13.32c.11,1.63.2,3,.28,4A7.66,7.66,0,0,1,589.63,234.8Z" transform="translate(-27 -25.17)"/><path class="cls-3" d="M528.19,226.07a208.63,208.63,0,0,1-32-.6v4.16h32Z" transform="translate(-27 -25.17)"/><g class="cls-2"><path class="cls-3" d="M560,156.92a3.14,3.14,0,0,1,.13.63c.06.46.16,1.07.28,1.85.2,1.62.48,4,.71,7,.48,6,.9,14.55,1,24.64v.38l-.35-.17c-6.38-3.1-13.54-6.48-21-10.2l-36.37-18.2-11-5.57-3-1.54-.77-.41a2.08,2.08,0,0,1-.25-.15l.28.11.79.36,3,1.45,11.07,5.42,36.44,18.07c7.44,3.72,14.58,7.11,20.95,10.23l-.34.22c-.11-10.07-.46-18.61-.86-24.62-.19-3-.42-5.37-.58-7-.08-.79-.15-1.4-.2-1.85A6.14,6.14,0,0,1,560,156.92Z" transform="translate(-27 -25.17)"/></g><g class="cls-2"><path class="cls-3" d="M483.62,243.31a1.77,1.77,0,0,1-.53-.09l-1.49-.36-5.47-1.39c-4.62-1.18-11-2.8-18.06-4.51s-13.49-3.18-18.13-4.24l-5.5-1.26L433,231.1a2,2,0,0,1-.52-.17,3.45,3.45,0,0,1,.54.06l1.51.27c1.31.24,3.2.62,5.54,1.1,4.66,1,11.1,2.39,18.17,4.1s13.44,3.38,18,4.66c2.3.63,4.15,1.16,5.43,1.55l1.47.45A2.64,2.64,0,0,1,483.62,243.31Z" transform="translate(-27 -25.17)"/></g><path class="cls-4" d="M554.44,149.36c0-.15,2.74,1.29,5.4,5.22s5,10,6.43,17a69.93,69.93,0,0,1,1.17,9.95c0,1.54.06,3,0,4.37s-.09,2.64-.21,3.8-.24,2.19-.34,3.12-.28,1.69-.39,2.33a7.25,7.25,0,0,1-.48,2,7.73,7.73,0,0,1,.07-2c.07-.67.14-1.45.22-2.34s.12-2,.18-3.11,0-2.41.08-3.76-.06-2.8-.11-4.32a78.14,78.14,0,0,0-1.23-9.79,53.59,53.59,0,0,0-6-16.77,23.45,23.45,0,0,0-3.33-4.24A19.34,19.34,0,0,1,554.44,149.36Z" transform="translate(-27 -25.17)"/><path class="cls-4" d="M509,149.64a21.59,21.59,0,0,1-2.11,3,42,42,0,0,0-4.71,8.79,60.11,60.11,0,0,0-3.49,14.38c-.73,5.54-1,11.74-1.45,18.23s-.35,12.67-.36,18.3,0,10.71,0,15-.11,7.73-.24,10.12a16.82,16.82,0,0,1-.36,3.7,16.61,16.61,0,0,1-.24-3.71c-.07-2.43-.16-5.87-.26-10.1s-.26-9.34-.33-15-.1-11.86.24-18.4.76-12.71,1.58-18.34a57.24,57.24,0,0,1,3.9-14.6,37,37,0,0,1,5.24-8.73A13.74,13.74,0,0,1,509,149.64Z" transform="translate(-27 -25.17)"/><path class="cls-4" d="M576.2,233.24a21.37,21.37,0,0,1-.19-3.31c-.06-2.12-.11-5.2-.15-9,0-1.91,0-4-.06-6.22s0-4.64-.13-7.1a11.73,11.73,0,0,0-2.55-7,9.66,9.66,0,0,0-7-3.34,11,11,0,0,0-7.37,2.86,12.79,12.79,0,0,0-3.73,6.49c-.61,2.38-.88,4.77-1.25,7s-.67,4.26-1,6.15c-.6,3.75-1.11,6.79-1.48,8.88a18.09,18.09,0,0,1-.69,3.24,20.91,20.91,0,0,1,.29-3.3c.25-2.11.64-5.16,1.15-8.93.26-1.89.54-4,.85-6.16s.56-4.59,1.18-7.09a13.5,13.5,0,0,1,4-7,12,12,0,0,1,8.06-3.14,10.6,10.6,0,0,1,7.81,3.71,12.58,12.58,0,0,1,2.74,7.58c.15,2.56,0,4.93,0,7.17s0,4.31-.08,6.22c-.05,3.8-.11,6.88-.18,9A18.2,18.2,0,0,1,576.2,233.24Z" transform="translate(-27 -25.17)"/><path class="cls-4" d="M566.55,187.51c-.32,3.51-1.44,7.43-3.87,10a14.06,14.06,0,0,1,6.45.12c-1.52-3-1.76-6.7-1.72-10.1" transform="translate(-27 -25.17)"/><path class="cls-4" d="M576.24,210.26c-.19,0-.3-1.67-1.59-4a12.22,12.22,0,0,0-2.9-3.48,10.8,10.8,0,0,0-4.92-2.34,10.49,10.49,0,0,0-5.42.54,11.83,11.83,0,0,0-3.87,2.34c-1.95,1.76-2.58,3.36-2.75,3.26s.3-1.77,2.24-3.79a11.61,11.61,0,0,1,4-2.71,10.63,10.63,0,0,1,11.3,2,11.94,11.94,0,0,1,2.94,3.87C576.5,208.49,576.33,210.28,576.24,210.26Z" transform="translate(-27 -25.17)"/><path class="cls-5" d="M603,323.55c6,0,11.28-4.29,14.08-9.55s3.51-11.35,3.79-17.3a140.47,140.47,0,0,0-5.72-46.7l-26.1,4.55,7.11,70.29Z" transform="translate(-27 -25.17)"/><polygon class="cls-4" points="470.44 307.13 555.41 304.03 576.02 204.46 486.52 209.43 470.44 307.13"/><path class="cls-6" d="M541.18,232.89l1.28-2.54,6.78-.5s1.72-4.44,11.41-4.9c8.69-.41,9.05,4,9.05,4h4.68v2.14Z" transform="translate(-27 -25.17)"/><path class="cls-5" d="M588.56,300.21l6.44-1.88a7.85,7.85,0,0,1,3.73-.16h0a7.9,7.9,0,0,1,4,2.11c2.13,2.1,5.57,5.57,6.06,6.61.71,1.51.72,4.13,0,5.09s1.58,5.92,1.29,7.58a10.32,10.32,0,0,1-1.29,4c-.58.69,0,3-1.44,4.83a23.42,23.42,0,0,1-2.74,2.88s-17.69.83-19.41,0-4.75-4-4.75-4-1.58-2.89.86-3.17l-10.07-3.86a2.38,2.38,0,0,1-1.46-3,1.68,1.68,0,0,1,.89-1s-4.52-1.43-5.57-1.89c-2.09-.92-2.88-5.79,1.45-5.16,2.28.33,5.37,1,5.37,1s-1.65-2.68.65-4.28c1.4-1,7.71.21,7.71.21l8.28-5.91Z" transform="translate(-27 -25.17)"/><path class="cls-7" d="M590.8,326.77a14.87,14.87,0,0,1-5.23-.78,13,13,0,0,1-4.82-2.18c.07-.12,2.17.91,5,1.68S590.82,326.62,590.8,326.77Z" transform="translate(-27 -25.17)"/><path class="cls-7" d="M587,320.48a136.92,136.92,0,0,1-16.29-4.16A136.92,136.92,0,0,1,587,320.48Z" transform="translate(-27 -25.17)"/><path class="cls-7" d="M589.05,314.22a79.1,79.1,0,0,1-8.84-1.8,80.14,80.14,0,0,1-8.73-2.31,79.5,79.5,0,0,1,8.85,1.8A80.33,80.33,0,0,1,589.05,314.22Z" transform="translate(-27 -25.17)"/><path class="cls-7" d="M595.6,306.16a11.21,11.21,0,0,1-2.28.72l-2.49.65-1.48.36a5.35,5.35,0,0,1-1.7.17,10.46,10.46,0,0,1-1.66-.27l-1.49-.34-2.51-.6a10.72,10.72,0,0,1-2.28-.69,10.79,10.79,0,0,1,2.36.33l2.54.49a30,30,0,0,0,3.07.56,11.7,11.7,0,0,0,3-.48l2.53-.53A10.36,10.36,0,0,1,595.6,306.16Z" transform="translate(-27 -25.17)"/><path class="cls-7" d="M596.73,309.55c.06,0,.3.18.49.65a3,3,0,0,1-1.12,3.56c-.43.28-.75.33-.77.26s1-.68,1.46-2A5.53,5.53,0,0,0,596.73,309.55Z" transform="translate(-27 -25.17)"/><path class="cls-7" d="M596.36,316.39c.13-.06.53.65.47,1.62s-.53,1.63-.64,1.56.08-.74.12-1.59S596.22,316.44,596.36,316.39Z" transform="translate(-27 -25.17)"/><path class="cls-7" d="M596.47,323.81c.13-.05.4.43.27,1.06s-.56,1-.66.87.06-.48.15-1S596.33,323.85,596.47,323.81Z" transform="translate(-27 -25.17)"/><path class="cls-7" d="M598.39,305.75a5.68,5.68,0,0,1-1.7-.09l-1.81-.23a7.1,7.1,0,0,0-2.17-.11,5.24,5.24,0,0,0-1.92.87c-.56.37-1,.78-1.51,1.06a2.87,2.87,0,0,1-1.63.56c0-.09.61-.27,1.43-.87a8.71,8.71,0,0,1,3.56-2.13,5.56,5.56,0,0,1,1.22,0c.4,0,.74.12,1.09.17l1.8.35A5.34,5.34,0,0,1,598.39,305.75Z" transform="translate(-27 -25.17)"/><path class="cls-7" d="M608.62,323.88a8.26,8.26,0,0,1,.45-1.27,8.68,8.68,0,0,0,.33-6c-.2-.88-.61-1.76-.83-2.81a9,9,0,0,1,.21-3.27,5.71,5.71,0,0,0-.57-3.21,15,15,0,0,0-1.84-2.85c-.69-.88-1.36-1.72-2-2.48a11.9,11.9,0,0,0-4.18-3.28,6.83,6.83,0,0,0-3.52-.53c-.85.11-1.28.34-1.3.29a1.39,1.39,0,0,1,.3-.18,4.82,4.82,0,0,1,1-.31,6.65,6.65,0,0,1,3.69.39,11.89,11.89,0,0,1,4.4,3.3c.7.77,1.38,1.6,2.08,2.48a15.74,15.74,0,0,1,1.91,2.95,6.21,6.21,0,0,1,.61,3.5,8.72,8.72,0,0,0-.25,3.11c.19,1,.59,1.89.78,2.79a9.94,9.94,0,0,1,.33,2.56,9.22,9.22,0,0,1-.89,3.61A5.55,5.55,0,0,1,608.62,323.88Z" transform="translate(-27 -25.17)"/><path class="cls-5" d="M549.13,274.63l-69.77,11.08,3.1-36.42-38.8-7.49-4.72,53.91-.82,12.36a24.15,24.15,0,0,0,10.13,21.28h0a24.13,24.13,0,0,0,21.42,3.24l15-4.88,73.12-26" transform="translate(-27 -25.17)"/><path class="cls-5" d="M591.35,267.12a2,2,0,0,0-2-2.33c-3.93,0-14.55,0-18.3,1.1-4.64,1.32-21.93,8.74-21.93,8.74l7.33,27.05L583,302s9.69-4.45,9.81-6.38a33.54,33.54,0,0,0-.24-3.61l2.93-1.57c4.36-2.76,1.56-8.07,1.56-8.07s3-1.68,3.16-4.72a4.75,4.75,0,0,0-2.34-4.48s1.2-4.27-1-5.43-6,.33-6,.33A1.55,1.55,0,0,0,591.35,267.12Z" transform="translate(-27 -25.17)"/><path class="cls-7" d="M592.87,267.56a2.46,2.46,0,0,1-.81.29c-.53.15-1.32.32-2.29.49-1.95.35-4.67.64-7.65,1a62,62,0,0,0-7.58,1.16c-1.91.44-3,1-3,1s.24-.2.73-.47a12.08,12.08,0,0,1,2.2-.85,46.64,46.64,0,0,1,7.61-1.32c3-.32,5.7-.55,7.65-.8S592.85,267.48,592.87,267.56Z" transform="translate(-27 -25.17)"/><path class="cls-7" d="M597.86,273a6.52,6.52,0,0,1-1.86.95,30,30,0,0,1-4.83,1.41c-1.93.4-3.69.66-5,.82a8.42,8.42,0,0,1-2.08.17c0-.17,3.11-.73,6.93-1.5a47.27,47.27,0,0,0,4.82-1.25A11.53,11.53,0,0,1,597.86,273Z" transform="translate(-27 -25.17)"/><path class="cls-7" d="M597.11,282.38a20.8,20.8,0,0,1-5.68,1.93,20.18,20.18,0,0,1-6,.7c0-.15,2.64-.48,5.84-1.21S597.06,282.23,597.11,282.38Z" transform="translate(-27 -25.17)"/><path class="cls-7" d="M595.49,290.4a13.62,13.62,0,0,1-4.37,1.61,13.83,13.83,0,0,1-4.61.56,731.72,731.72,0,0,0,9-2.17Z" transform="translate(-27 -25.17)"/><path class="cls-7" d="M581.65,285.6c0,.07-.27.24-.81.29a3.1,3.1,0,0,1-2-.55,3,3,0,0,1-1.18-1.71c-.13-.53-.06-.86,0-.86s.29,1.29,1.49,2.14A5.28,5.28,0,0,0,581.65,285.6Z" transform="translate(-27 -25.17)"/><path class="cls-7" d="M581.1,294c0,.14-1,.2-2-.61s-1-1.87-.83-1.86.41.8,1.18,1.47S581.11,293.84,581.1,294Z" transform="translate(-27 -25.17)"/><path class="cls-7" d="M578,277c.06.14-.68.37-1.35-.15s-.66-1.28-.51-1.26.32.49.82.85S578,276.81,578,277Z" transform="translate(-27 -25.17)"/><path class="cls-7" d="M549.13,274.63l.21-.12.63-.29,2.46-1.09c2.15-.94,5.29-2.28,9.25-3.91,2-.81,4.17-1.69,6.57-2.58a24.83,24.83,0,0,1,3.8-1.18,40.21,40.21,0,0,1,4.22-.52c2.9-.23,6-.33,9.18-.38l2.43,0h1.24a2.62,2.62,0,0,1,1.32.27,2.13,2.13,0,0,1,1.13,2.41.84.84,0,0,1-.3.35l-.3.18c-.2.11-.4.2-.61.29a8.49,8.49,0,0,1-1.26.43A.25.25,0,0,1,589,268a26,26,0,0,1,3.31-.74,12,12,0,0,1,3.5-.12,3.09,3.09,0,0,1,1.71.74,3,3,0,0,1,.85,1.68,8.63,8.63,0,0,1-.22,3.65l-.13-.3a4.87,4.87,0,0,1,1.46,1.3,5.18,5.18,0,0,1,.77,4.73,7,7,0,0,1-3,3.62l.1-.34a8.35,8.35,0,0,1,.84,4.62,5.31,5.31,0,0,1-2.5,3.78h0l-2.92,1.57.12-.25c.08.7.15,1.4.2,2.09,0,.34,0,.69,0,1,0,.18,0,.35,0,.53a1.26,1.26,0,0,1-.22.58,6.18,6.18,0,0,1-1.5,1.44c-.55.4-1.1.75-1.66,1.09a67.55,67.55,0,0,1-6.58,3.45.15.15,0,0,1-.09,0l-19.31-.29-5.34-.12-1.4,0-.48,0,.48,0h6.74l19.31.11-.09,0a69.11,69.11,0,0,0,6.52-3.46c.55-.34,1.09-.69,1.62-1.08a5.76,5.76,0,0,0,1.38-1.31.82.82,0,0,0,.14-.36c0-.15,0-.32,0-.49,0-.33,0-.67-.06-1,0-.68-.11-1.37-.19-2.06a.26.26,0,0,1,.13-.25l2.92-1.57h0a4.81,4.81,0,0,0,2.27-3.43,7.85,7.85,0,0,0-.8-4.31.28.28,0,0,1,.1-.35,6.45,6.45,0,0,0,2.8-3.33,4.71,4.71,0,0,0-.68-4.26,4.31,4.31,0,0,0-1.29-1.14.28.28,0,0,1-.13-.31,8.22,8.22,0,0,0,.21-3.41,2.61,2.61,0,0,0-.69-1.41,2.71,2.71,0,0,0-1.44-.6,11.7,11.7,0,0,0-3.34.11,26.68,26.68,0,0,0-3.24.72L589,268a10.24,10.24,0,0,0,1.18-.4c.19-.09.38-.17.56-.27s.34-.26.41-.24A2.13,2.13,0,0,0,591,266a1.79,1.79,0,0,0-.77-.77,2,2,0,0,0-1.09-.22h-3.66c-3.21,0-6.27.12-9.16.33a41.41,41.41,0,0,0-4.17.49,24.76,24.76,0,0,0-3.75,1.14c-2.39.87-4.59,1.73-6.57,2.52l-9.31,3.77-2.49,1-.65.25Z" transform="translate(-27 -25.17)"/><path class="cls-7" d="M479.64,285.64a27.78,27.78,0,0,0-5.16,4.45,27.06,27.06,0,0,0-3.43,5.88,5.59,5.59,0,0,1,.52-2,15.63,15.63,0,0,1,2.51-4.25,15.94,15.94,0,0,1,3.72-3.24A5.79,5.79,0,0,1,479.64,285.64Z" transform="translate(-27 -25.17)"/><path class="cls-5" d="M570.75,69.9a35.25,35.25,0,0,0-35.07-32.48h-1.82c-19.68,1.11-29.74,18.44-28.08,38.08l3.39,78.76a3.57,3.57,0,0,0,2,3.06l44.17,20.73L554,136.72s18.92-2.9,19.2-21.82C573.35,105.77,572.09,86.93,570.75,69.9Z" transform="translate(-27 -25.17)"/><path class="cls-7" d="M554.18,136.69a45.92,45.92,0,0,1-24.77-7.3s5.8,13.62,24.68,12Z" transform="translate(-27 -25.17)"/><path class="cls-4" d="M564,81.65a2.7,2.7,0,0,1-2.61,2.72,2.6,2.6,0,0,1-2.78-2.44,2.7,2.7,0,0,1,2.61-2.72A2.57,2.57,0,0,1,564,81.65Z" transform="translate(-27 -25.17)"/><path class="cls-4" d="M566.66,79.15c-.33.35-2.37-1.17-5.28-1.17s-5,1.45-5.35,1.1c-.16-.16.18-.8,1.11-1.47a7.45,7.45,0,0,1,4.29-1.31,7.08,7.08,0,0,1,4.21,1.37C566.53,78.35,566.83,79,566.66,79.15Z" transform="translate(-27 -25.17)"/><path class="cls-4" d="M535.47,82.53a2.7,2.7,0,0,1-2.61,2.72,2.58,2.58,0,0,1-2.78-2.44,2.7,2.7,0,0,1,2.61-2.72A2.58,2.58,0,0,1,535.47,82.53Z" transform="translate(-27 -25.17)"/><path class="cls-4" d="M538.09,79.63c-.33.35-2.38-1.16-5.28-1.16s-5,1.45-5.36,1.09c-.15-.16.19-.79,1.12-1.47a7.43,7.43,0,0,1,4.29-1.31,7.16,7.16,0,0,1,4.2,1.37C538,78.84,538.26,79.47,538.09,79.63Z" transform="translate(-27 -25.17)"/><path class="cls-4" d="M548.6,101.21c0-.16,1.79-.47,4.72-.84.74-.08,1.44-.22,1.57-.73a3.71,3.71,0,0,0-.49-2.2l-2.18-5.66c-3-8-5.23-14.67-4.9-14.79s3,6.31,6.08,14.36c.73,2,1.42,3.88,2.09,5.69a4.32,4.32,0,0,1,.38,2.92,1.9,1.9,0,0,1-1.23,1.08,4.67,4.67,0,0,1-1.26.17C550.44,101.37,548.61,101.38,548.6,101.21Z" transform="translate(-27 -25.17)"/><path class="cls-4" d="M540,103.2c.47,0,.47,3.13,3.17,5.38s6,1.9,6.08,2.34c0,.2-.76.61-2.17.65a7.85,7.85,0,0,1-5.08-1.78,6.84,6.84,0,0,1-2.45-4.51C539.47,104,539.82,103.18,540,103.2Z" transform="translate(-27 -25.17)"/><path class="cls-4" d="M538.87,68.24c-.29.79-3.19.41-6.61.82s-6.17,1.32-6.62.61c-.2-.34.28-1.08,1.4-1.84a11.53,11.53,0,0,1,10.07-1.09C538.36,67.24,539,67.87,538.87,68.24Z" transform="translate(-27 -25.17)"/><path class="cls-4" d="M565.61,70.73c-.51.66-2.51,0-4.92-.06s-4.45.43-4.91-.26c-.21-.34.11-1,1-1.62a7.14,7.14,0,0,1,7.92.26C565.56,69.73,565.84,70.41,565.61,70.73Z" transform="translate(-27 -25.17)"/><path class="cls-5" d="M508.61,89.51c-.33-.14-13-3.87-12.61,9.06s13.29,9.88,13.31,9.51S508.61,89.51,508.61,89.51Z" transform="translate(-27 -25.17)"/><path class="cls-7" d="M506.35,103.3c-.06,0-.22.16-.6.35a2.22,2.22,0,0,1-1.68.08c-1.38-.46-2.6-2.59-2.73-4.92a7.37,7.37,0,0,1,.53-3.24,2.6,2.6,0,0,1,1.65-1.78,1.13,1.13,0,0,1,1.34.57c.19.36.11.62.18.64s.27-.22.15-.76a1.44,1.44,0,0,0-.53-.79,1.69,1.69,0,0,0-1.25-.29,3.17,3.17,0,0,0-2.3,2.07,7.65,7.65,0,0,0-.67,3.63c.16,2.6,1.57,5,3.45,5.49a2.4,2.4,0,0,0,2.05-.41C506.33,103.61,506.39,103.32,506.35,103.3Z" transform="translate(-27 -25.17)"/><path class="cls-4" d="M517.08,51.07,571,52.26c-1.67-3.72-4.67-6.7-7.92-9.17a42.15,42.15,0,0,0-24.42-8.78c-8.79-.16-26.7,10.55-33.07,16.62-5.1,4.85-5.07,9-5.07,9-.81,7,3.11,14.94,4.66,21.81C506,85.33,507.55,96,507.55,96h0c3,0,4.07-2.38,3.62-5.31l-.55-11.53s10.1-7.18,5.31-20.32C515.16,57.83,513.52,53,517.08,51.07Z" transform="translate(-27 -25.17)"/><path class="cls-7" d="M528.41,92a.33.33,0,0,1-.38-.28.34.34,0,0,1,.24-.41.33.33,0,0,1,.38.28A.34.34,0,0,1,528.41,92Z" transform="translate(-27 -25.17)"/><path class="cls-7" d="M534,90.72c-.17,0-.34-.11-.39-.33a.33.33,0,1,1,.63-.12A.36.36,0,0,1,534,90.72Z" transform="translate(-27 -25.17)"/><path class="cls-7" d="M537.7,90.64c-.17,0-.34-.2-.38-.48s.08-.54.26-.56.34.19.38.48S537.88,90.62,537.7,90.64Z" transform="translate(-27 -25.17)"/><path class="cls-7" d="M531.13,95.46c-.18,0-.32-.09-.32-.2s.15-.21.32-.21.32.09.32.21S531.31,95.46,531.13,95.46Z" transform="translate(-27 -25.17)"/><path class="cls-7" d="M536.23,94.29a.33.33,0,0,1-.35-.34.34.34,0,0,1,.29-.39.36.36,0,0,1,.35.34A.35.35,0,0,1,536.23,94.29Z" transform="translate(-27 -25.17)"/><path class="cls-7" d="M562.74,91.18a.37.37,0,1,1,.24-.42A.34.34,0,0,1,562.74,91.18Z" transform="translate(-27 -25.17)"/><path class="cls-7" d="M566.53,90.84a.37.37,0,0,1-.36-.37.36.36,0,0,1,.28-.43.41.41,0,0,1,.08.8Z" transform="translate(-27 -25.17)"/><path class="cls-7" d="M559.4,91.27a.3.3,0,0,1-.37-.22.29.29,0,0,1,.26-.33.3.3,0,0,1,.37.21A.31.31,0,0,1,559.4,91.27Z" transform="translate(-27 -25.17)"/><path class="cls-7" d="M562.2,95.06a.37.37,0,0,1-.3-.68.34.34,0,0,1,.44.21A.35.35,0,0,1,562.2,95.06Z" transform="translate(-27 -25.17)"/><path class="cls-7" d="M565.43,94.42a.3.3,0,0,1-.24-.35.33.33,0,0,1,.62.17A.29.29,0,0,1,565.43,94.42Z" transform="translate(-27 -25.17)"/><path class="cls-4" d="M505.25,51.67a15.94,15.94,0,0,1,15.93-19.82c2.51.1,5,.81,7.52.54,4.67-.51,8.27-4.25,12.59-6.07a16.43,16.43,0,0,1,19.39,5.82c1.65,2.45,2.72,5.47,5.24,7,2.17,1.33,4.91,1.22,7.35,2,4.94,1.48,8.32,6.72,8.06,11.87a14.15,14.15,0,0,1-8.61,11.89,17.28,17.28,0,0,1-14.9-1.06c-4.07-2.26-7.71-6.12-12.37-6-4.82.15-9,4.69-13.76,3.75-2.48-.49-4.39-2.4-6.21-4.16s-3.9-3.56-6.43-3.7-3.84,3.31-2.93,5.68l-10.87-7.73" transform="translate(-27 -25.17)"/><path class="cls-6" d="M570,45.41s0,.07-.08.19a5,5,0,0,1-.32.52A8.52,8.52,0,0,1,568,47.88a9.67,9.67,0,0,1-3.21,1.86,9.19,9.19,0,0,1-4.89.29,9.69,9.69,0,0,1-5.16-2.94c-1.48-1.62-2.35-3.78-3.72-5.68a7,7,0,0,0-6.19-3.15,8.13,8.13,0,0,0-3.67,1,6.89,6.89,0,0,0-2.7,2.78c-.66,1.19-1.12,2.49-1.91,3.64a4.43,4.43,0,0,1-3.45,2.1,6.66,6.66,0,0,1-3.76-1.09,13.89,13.89,0,0,1-2.87-2.37c-1.66-1.68-3.3-3.35-5.34-3.8a6.76,6.76,0,0,0-5.42,1.27,9.27,9.27,0,0,0-3,3.68,15.91,15.91,0,0,0-1.11,3.47c-.2,1-.29,1.76-.35,2.29a5.33,5.33,0,0,1-.12.8.63.63,0,0,1,0-.2c0-.14,0-.34,0-.61a20.45,20.45,0,0,1,.26-2.32,14.72,14.72,0,0,1,1.05-3.55,9.61,9.61,0,0,1,3-3.86,7.18,7.18,0,0,1,5.73-1.4c2.21.48,3.93,2.24,5.59,3.89a14,14,0,0,0,2.78,2.29,6.24,6.24,0,0,0,3.48,1,4,4,0,0,0,3.06-1.88c.73-1.08,1.2-2.37,1.87-3.6a7.39,7.39,0,0,1,2.91-3,8.66,8.66,0,0,1,3.91-1,8.17,8.17,0,0,1,3.82.86,8,8,0,0,1,2.77,2.52c1.4,2,2.25,4.12,3.65,5.67A9.26,9.26,0,0,0,560,49.67a9,9,0,0,0,4.72-.21,9.61,9.61,0,0,0,3.17-1.74A11.59,11.59,0,0,0,570,45.41Z" transform="translate(-27 -25.17)"/><path class="cls-6" d="M579.74,45.61a3,3,0,0,1,.22,1,8.14,8.14,0,0,1-.28,2.88,10,10,0,0,1-2,3.81,11.74,11.74,0,0,1-4.26,3.11A17.58,17.58,0,0,1,564,57.51a24.76,24.76,0,0,1-2.82-.56,4.31,4.31,0,0,1-1-.34c0-.09,1.48.28,3.88.53A18.3,18.3,0,0,0,573.19,56,11.74,11.74,0,0,0,577.3,53a10.09,10.09,0,0,0,2-3.6A11.47,11.47,0,0,0,579.74,45.61Z" transform="translate(-27 -25.17)"/><path class="cls-8" d="M495.72,218.85" transform="translate(-27 -25.17)"/><path class="cls-8" d="M495.72,240" transform="translate(-27 -25.17)"/><path class="cls-9" d="M487.71,254a10.72,10.72,0,0,0,2.26,5.6c1.16,1.51,3.51,3,5.4,2.87a8.24,8.24,0,0,0,7.27-3.65c2.3-3.66,2.87-11.29,1-15.8-1.27-3.11-4.12-6-7.47-6.07a8.27,8.27,0,0,0-8.1,6.29" transform="translate(-27 -25.17)"/><path class="cls-4" d="M488.09,243.2a6.73,6.73,0,0,1,.82-2.15,8.42,8.42,0,0,1,1.65-2.17,7.68,7.68,0,0,1,5.2-2.16,6.29,6.29,0,0,1,2.29.3,9.07,9.07,0,0,1,4.09,2.93,11.89,11.89,0,0,1,2.4,5,21.54,21.54,0,0,1,.44,5.93c-.2,3.13-.81,6.24-2.55,8.63a7.68,7.68,0,0,1-3.32,2.5,8.92,8.92,0,0,1-3.76.63h0a5.64,5.64,0,0,1-2.69-.67,8.44,8.44,0,0,1-2-1.41,9.94,9.94,0,0,1-2.21-3.29,9.58,9.58,0,0,1-.7-2.42,5.25,5.25,0,0,1-.06-.66.52.52,0,0,1,0-.23,13,13,0,0,0,1,3.21,10.07,10.07,0,0,0,2.22,3.14,8.84,8.84,0,0,0,2,1.32,5.42,5.42,0,0,0,2.5.59h0a8,8,0,0,0,6.65-3c1.61-2.23,2.23-5.3,2.42-8.36.22-4-.44-7.94-2.7-10.6a8.58,8.58,0,0,0-3.84-2.82,6.19,6.19,0,0,0-2.15-.31,7.61,7.61,0,0,0-2,.29,7.48,7.48,0,0,0-3,1.69,9.07,9.07,0,0,0-1.67,2.05A22,22,0,0,0,488.09,243.2Z" transform="translate(-27 -25.17)"/><path class="cls-9" d="M485.36,254.16a10.85,10.85,0,0,0,2.27,5.6c1.16,1.5,3.51,3,5.4,2.87A8.24,8.24,0,0,0,500.3,259c2.3-3.67,2.87-11.3,1-15.81-1.27-3.1-4.12-6-7.47-6.06a8.26,8.26,0,0,0-8.1,6.29" transform="translate(-27 -25.17)"/><path class="cls-4" d="M485.75,243.4a6.82,6.82,0,0,1,.81-2.16,8.87,8.87,0,0,1,1.66-2.16,7.68,7.68,0,0,1,5.2-2.16,6.29,6.29,0,0,1,2.29.3,9,9,0,0,1,4.08,2.93,11.79,11.79,0,0,1,2.41,5,21.86,21.86,0,0,1,.44,5.92c-.2,3.14-.82,6.25-2.55,8.63a7.76,7.76,0,0,1-3.32,2.51,9.08,9.08,0,0,1-3.76.63h0a5.64,5.64,0,0,1-2.69-.67,9,9,0,0,1-2-1.41,10.16,10.16,0,0,1-2.2-3.29,9.22,9.22,0,0,1-.7-2.43,5.1,5.1,0,0,1-.06-.66c0-.15,0-.22,0-.22a14.14,14.14,0,0,0,1,3.21,10.18,10.18,0,0,0,2.22,3.14,8.48,8.48,0,0,0,2,1.31,5.3,5.3,0,0,0,2.5.59h0a8,8,0,0,0,6.65-3c1.61-2.23,2.23-5.29,2.42-8.35.22-4-.45-8-2.7-10.6a8.58,8.58,0,0,0-3.84-2.82,6,6,0,0,0-2.15-.31,7.61,7.61,0,0,0-2,.29,7.46,7.46,0,0,0-3,1.68,9.32,9.32,0,0,0-1.67,2.06A20.6,20.6,0,0,0,485.75,243.4Z" transform="translate(-27 -25.17)"/><path class="cls-9" d="M489.61,242.28a5.13,5.13,0,0,0-5.37,3.09,8.87,8.87,0,0,0,0,6.53,8.11,8.11,0,0,0,1.67,2.94,4.44,4.44,0,0,0,3,1.45,5.22,5.22,0,0,0,4.13-2.44,9.34,9.34,0,0,0,1.41-7.67c-.46-1.74-1.73-3.51-3.53-3.56" transform="translate(-27 -25.17)"/><path class="cls-4" d="M490.91,242.62s.14,0,.4,0a2.68,2.68,0,0,1,1.09.36,5.35,5.35,0,0,1,2.28,3.45,9.42,9.42,0,0,1-.61,6.12,8,8,0,0,1-2.25,2.94,4.32,4.32,0,0,1-3.85.92,5.38,5.38,0,0,1-3.09-2.52,11.24,11.24,0,0,1-1.28-3.45,7.69,7.69,0,0,1,1-6,5.37,5.37,0,0,1,3.49-2.22,3.87,3.87,0,0,1,1.14,0c.25.05.38.09.38.11a6.93,6.93,0,0,0-1.49.09,5.26,5.26,0,0,0-3.22,2.23,7.37,7.37,0,0,0-.83,5.73,11,11,0,0,0,1.25,3.29,4.87,4.87,0,0,0,2.79,2.28,3.84,3.84,0,0,0,3.4-.82,7.58,7.58,0,0,0,2.12-2.75,9.13,9.13,0,0,0,.69-5.83,5.21,5.21,0,0,0-2-3.35A4.14,4.14,0,0,0,490.91,242.62Z" transform="translate(-27 -25.17)"/><path class="cls-4" d="M494.65,258.72c-.08,0-.19-.32-.53-.72a3.81,3.81,0,0,0-1.71-1.1,9,9,0,0,0-2.1-.32c-.55,0-.91-.09-.91-.16s.34-.16.91-.21a5.86,5.86,0,0,1,2.26.2,3.27,3.27,0,0,1,1.85,1.38C494.73,258.31,494.71,258.71,494.65,258.72Z" transform="translate(-27 -25.17)"/><path class="cls-4" d="M495.44,240.91c0,.05-.16.36-.62.73a4.81,4.81,0,0,1-2.11.92,5,5,0,0,1-2.3-.12c-.56-.19-.86-.41-.83-.47a7.46,7.46,0,0,0,5.86-1.06Z" transform="translate(-27 -25.17)"/></g><g id="Character_1" data-name="Character 1"><path class="cls-4" d="M219.91,66c.12-4.36-3.91-7.73-8-9.32s-8.56-2.2-12.18-4.63c-3.2-2.16-5.35-5.52-8.06-8.26a26.82,26.82,0,0,0-45.12,12.3c-1.55,6.21-.49,13.54,4.4,17.67,5.67,4.78,14.09,3.72,21.36,2.23s15.51-3,21.58,1.31c3.66,2.58,5.76,6.77,8,10.65s5,7.83,9.28,9.29,10-1.06,10.14-5.53" transform="translate(-27 -25.17)"/><path class="cls-4" d="M219.61,68.4c-.47,3.65,2.17,6.92,4.8,9.5s5.6,5.31,6.06,9c.55,4.27-2.57,8.47-1.67,12.68.58,2.67,2.65,4.72,3.91,7.14a15.22,15.22,0,0,1,.78,11.2c-1.08,3.68-2.81,11.89-5.37,14.75-7.07,7.9-18.32,14.72-28.65,17.09s-21.07,2.39-31.65,1.74c-8.67-.53-18.63-.14-25.85-12.05-3.74-6.18-5.59-14.38-7.58-21.32-1.71-6-3.19-12.37-1.41-18.33,1-3.47,3.13-6.55,4.15-10,1.27-4.34.81-9,1.32-13.48a30.91,30.91,0,0,1,44-24.4" transform="translate(-27 -25.17)"/><path class="cls-5" d="M142.6,83.37c.81-12.43,9.08-27.67,21.47-26.33l38.66,9.86a7.28,7.28,0,0,1,6.5,7.41l-4.34,93.27a2.14,2.14,0,0,0,.27.06s-8.82,26.31-34.38,18.28c-5.07-1.6-7.39-7.14-8.39-12.85l-.26,0c0-.68,0-1.31,0-2a61.23,61.23,0,0,1-.15-12.81h0c-.07-7.53-.07-10.62-.07-10.55s-15.88-2.67-19.13-23.4C141.14,114.08,141.7,97.18,142.6,83.37Z" transform="translate(-27 -25.17)"/><path class="cls-4" d="M148.82,95.86a2.68,2.68,0,0,0,2.56,2.69,2.56,2.56,0,0,0,2.75-2.39,2.66,2.66,0,0,0-2.56-2.69A2.54,2.54,0,0,0,148.82,95.86Z" transform="translate(-27 -25.17)"/><path class="cls-4" d="M146.24,92.17c.33.34,2.35-1.14,5.21-1.13s5,1.45,5.26,1.1c.16-.15-.18-.78-1.09-1.45a7.35,7.35,0,0,0-4.21-1.31,7,7,0,0,0-4.15,1.33C146.38,91.39,146.08,92,146.24,92.17Z" transform="translate(-27 -25.17)"/><path class="cls-4" d="M176.94,95.86a2.66,2.66,0,0,0,2.55,2.69,2.54,2.54,0,0,0,2.75-2.39,2.65,2.65,0,0,0-2.55-2.69A2.54,2.54,0,0,0,176.94,95.86Z" transform="translate(-27 -25.17)"/><path class="cls-4" d="M174.36,92.76c.33.35,2.35-1.13,5.2-1.12s5,1.45,5.27,1.1c.15-.16-.18-.78-1.1-1.45A7.28,7.28,0,0,0,179.52,90a7,7,0,0,0-4.14,1.33C174.5,92,174.2,92.61,174.36,92.76Z" transform="translate(-27 -25.17)"/><path class="cls-4" d="M163.93,114c0-.16-1.76-.47-4.64-.85-.73-.07-1.43-.22-1.55-.72a3.75,3.75,0,0,1,.49-2.16c.7-1.77,1.42-3.62,2.18-5.56,3-7.91,5.2-14.42,4.88-14.54s-3,6.2-6,14.11q-1.09,2.92-2.08,5.59a4.23,4.23,0,0,0-.39,2.87,1.84,1.84,0,0,0,1.2,1.07,5,5,0,0,0,1.24.17C162.12,114.1,163.92,114.11,163.93,114Z" transform="translate(-27 -25.17)"/><path class="cls-7" d="M161.88,147.79a52.73,52.73,0,0,0,27.77-7.34s-7,14.33-27.75,12.35Z" transform="translate(-27 -25.17)"/><path class="cls-7" d="M165.12,120.85a5.19,5.19,0,0,1,4.63-1.91,4.71,4.71,0,0,1,3.24,1.75,3,3,0,0,1,.22,3.41,3.44,3.44,0,0,1-3.75.94,10.78,10.78,0,0,1-3.65-2.19A2.94,2.94,0,0,1,165,122a1,1,0,0,1,0-1.07" transform="translate(-27 -25.17)"/><path class="cls-4" d="M172.34,116c-.46,0-.48,3.08-3.14,5.27s-6,1.85-6,2.29c0,.19.74.6,2.13.64a7.68,7.68,0,0,0,5-1.73,6.73,6.73,0,0,0,2.44-4.42C172.9,116.7,172.55,115.93,172.34,116Z" transform="translate(-27 -25.17)"/><path class="cls-4" d="M173.08,87.75c.28.78,3.14.42,6.49.83s6.07,1.33,6.52.64c.2-.34-.27-1.07-1.37-1.82a10.8,10.8,0,0,0-4.82-1.71,11,11,0,0,0-5.09.59C173.58,86.77,173,87.38,173.08,87.75Z" transform="translate(-27 -25.17)"/><path class="cls-4" d="M147.31,83.89c.5.65,2.48,0,4.85,0s4.37.44,4.83-.24c.21-.33-.11-1-1-1.59a7,7,0,0,0-7.8.22C147.37,82.91,147.09,83.57,147.31,83.89Z" transform="translate(-27 -25.17)"/><path class="cls-4" d="M217.2,135.09a18.39,18.39,0,0,1-21.89-20.35c.64-5.09,3.39-10.27,1.62-15.09C194.6,93.28,185.67,91.32,183.3,85c-1.38-3.69-.14-8-1.7-11.63-1.47-3.41-5-5.37-8.54-6.63s-7.22-2.13-10.15-4.41-4.75-6.56-2.87-9.75a196,196,0,0,1,45.29,11c3.39,1.26,6.94,2.78,8.94,5.79,2.11,3.18,2,7.29,1.83,11.1q-1.29,27.91-2.6,55.83" transform="translate(-27 -25.17)"/><path class="cls-6" d="M215.9,142.21a1.42,1.42,0,0,0,.33-.21l.93-.7c.8-.63,2-1.56,3.43-2.85a36.11,36.11,0,0,0,4.87-5.13,19.14,19.14,0,0,0,3.88-8.53,13,13,0,0,0-2.67-10.9,42.49,42.49,0,0,0-4.83-4.12,11.21,11.21,0,0,1-3.77-5.14c-1.53-4.22-.85-9.11-1.44-14.11a28.11,28.11,0,0,0-5.88-14.28,19.4,19.4,0,0,0-6.14-5,38.33,38.33,0,0,0-7.26-2.45A16.77,16.77,0,0,1,191,65.63a25.32,25.32,0,0,1-4.62-5.1c-2.6-3.69-4.53-7.63-7-10.92a23.43,23.43,0,0,0-4.08-4.33,15.56,15.56,0,0,0-4.84-2.64c-3.35-1.14-6.88-.77-9.21.92a8.47,8.47,0,0,0-3.27,6.2A6.17,6.17,0,0,0,159.21,54a4.29,4.29,0,0,0,.84.81,1.31,1.31,0,0,0,.33.22s-.08-.11-.27-.29a5,5,0,0,1-.76-.85,6.19,6.19,0,0,1-1-4.14A8.18,8.18,0,0,1,161.53,44a9.8,9.8,0,0,1,8.7-.72,15,15,0,0,1,4.61,2.57,23.44,23.44,0,0,1,3.91,4.24c2.41,3.23,4.3,7.16,6.93,11a26.31,26.31,0,0,0,4.76,5.29,18,18,0,0,0,6.66,3.31,37,37,0,0,1,7.09,2.4,18.59,18.59,0,0,1,5.86,4.79,27.34,27.34,0,0,1,5.69,13.82c.61,4.83-.09,9.8,1.54,14.29a12.11,12.11,0,0,0,4.05,5.47,42.14,42.14,0,0,1,4.77,4,12.33,12.33,0,0,1,2.6,10.3,18.73,18.73,0,0,1-3.64,8.33,38.32,38.32,0,0,1-4.71,5.17c-1.41,1.32-2.55,2.29-3.31,3A12.09,12.09,0,0,0,215.9,142.21Z" transform="translate(-27 -25.17)"/><path class="cls-4" d="M219.68,144.78c4.26-4.11,11.54-.53,15.12,4.19s6.11,10.82,11.53,13.19,12.49.34,17,4.12c6.28,5.22,2.75,17.31,9.54,21.85,2.7,1.8,6.26,1.73,9.14,3.22,6.79,3.5,6.71,13.08,5.66,20.65-1.47,10.62-3.09,21.63-9,30.61s-17.27,15.29-27.41,11.83c-9.76-3.33-14.76-13.85-18.73-23.36q-8.22-19.74-16.46-39.47c-3.17-7.62-6.38-15.34-7.41-23.52s.35-17,5.56-23.42" transform="translate(-27 -25.17)"/><path class="cls-1" d="M222.42,135.71c3.09-.37,5.45,3.42,4.64,6.43s-3.71,5-6.65,6.05a10,10,0,0,1-5.14.59,5.06,5.06,0,0,1-3.89-3.13,3,3,0,0,1,1.43-3.89c2-1.27,3.23-2.27,4.84-3.16,2.45-1.35,2.31-1.54,4.77-2.89" transform="translate(-27 -25.17)"/><polygon class="cls-1" points="124.18 143.89 136.21 134.78 181.51 131.88 183.33 137.96 168.6 229.92 180.22 339.64 117.02 339.64 124.18 143.89"/><g class="cls-2"><path d="M199.7,325.88c-1.45-1.54-3.82-3.66-5.93-3.71-15.14-.33-30.6-1.85-45.73-2.18l-1.21,44.84c3.62-6.38,7-13,8-20.3.42-3.18.95-7,3.85-8.34,1.64-.77,3.56-.47,5.34-.11,5.47,1.08,10.9,2.49,16.46,2.83s11.38-.46,16.05-3.5a9.72,9.72,0,0,0,3.84-4.15A5.08,5.08,0,0,0,199.7,325.88Z" transform="translate(-27 -25.17)"/></g><path class="cls-1" d="M161,170.91l-1.4-13.15a4.17,4.17,0,0,1,3.77-4.59l41.71-3.77a2,2,0,0,1,2.15,1.9l.47,15.65L195.6,187.44l-12.41,3.95H168l-8.74-9.32Z" transform="translate(-27 -25.17)"/><path class="cls-4" d="M201.52,161.93s-.6-.06-1.67-.17a30,30,0,0,0-4.54-.08,45.21,45.21,0,0,0-6.68,1c-2.49.53-5.2,1.26-8.07,2a53.93,53.93,0,0,1-8.21,1.46,21.21,21.21,0,0,1-6.81-.46,14.3,14.3,0,0,1-4.25-1.77,9.44,9.44,0,0,1-1-.73,1.48,1.48,0,0,1-.32-.3s.5.33,1.44.86a15.51,15.51,0,0,0,4.23,1.58,21.55,21.55,0,0,0,6.68.34,55.19,55.19,0,0,0,8.13-1.49c2.86-.69,5.58-1.42,8.09-1.92a42.33,42.33,0,0,1,6.76-.86,25,25,0,0,1,4.59.25c.53.09,1,.17,1.22.24A1.42,1.42,0,0,1,201.52,161.93Z" transform="translate(-27 -25.17)"/><g class="cls-2"><path d="M162,164c-1.12,3.07-1.15,6.87,1.12,9.22,1.84,1.92,4.81,2.4,7.42,1.88a23.41,23.41,0,0,0,7.25-3.26c5.74-3.41,11.57-7,18.1-8.4A2.31,2.31,0,0,0,197,163a.78.78,0,0,0,0-1.13,1.12,1.12,0,0,0-.54-.15c-5.77-.58-11.5,1.05-17.16,2.32s-11.69,2.17-17.15.2" transform="translate(-27 -25.17)"/></g><path class="cls-4" d="M170,152.75a3.65,3.65,0,0,0-1.43,1.36c-.66,1.06-.62,2.85-.57,4.79.11,3.9.75,7,.6,7a6.7,6.7,0,0,1-.57-2,31.65,31.65,0,0,1-.55-5,23.06,23.06,0,0,1,.06-2.79,4.82,4.82,0,0,1,.72-2.21,2.89,2.89,0,0,1,1.17-1C169.73,152.72,169.94,152.72,170,152.75Z" transform="translate(-27 -25.17)"/><path class="cls-4" d="M181,164.18c-.17,0,.21-2.88-.3-6.37a59.94,59.94,0,0,0-1.49-6.19,5.35,5.35,0,0,1,.86,1.69,20,20,0,0,1,1.14,4.43,21,21,0,0,1,.14,4.58A5.68,5.68,0,0,1,181,164.18Z" transform="translate(-27 -25.17)"/><path class="cls-4" d="M194.39,150.51a3.88,3.88,0,0,1,.8,1.55,10.74,10.74,0,0,1,.54,4.17,10.5,10.5,0,0,1-1.09,4.06,3.77,3.77,0,0,1-1,1.43,13.72,13.72,0,0,0,.74-11.21Z" transform="translate(-27 -25.17)"/><path class="cls-10" d="M135.91,175s-14.21,9.53-18,26.73c-2.94,13.52-11,84.93-11,84.93L92.89,314.06l9.2,21.88h0a33.59,33.59,0,0,0,22.1-6.32l6.19-4.49,11.35-16.84Z" transform="translate(-27 -25.17)"/><polygon class="cls-10" points="133.02 137.19 108.91 149.8 103.22 168.5 98.15 222.69 107.7 286.21 90.96 339.44 119.83 339.66 120.51 308.45 123.39 207.46 126.23 143.12 133.02 137.19"/><path class="cls-4" d="M148.35,246.55a4.93,4.93,0,0,1-.45-.75c-.3-.54-.7-1.28-1.2-2.21s-1-2.22-1.61-3.64c-.29-.72-.54-1.51-.84-2.34s-.61-1.71-.85-2.65c-2.27-7.49-3.77-18.3-3.45-30.22,0-.92.06-1.84.13-2.74v-.16l.15-.06,4.21-1.78-.06.44-4.21-3.39-.09-.07v-.1A36.54,36.54,0,0,1,142,184.82c1.06-3.52,2.22-6.56,3.24-9.06s1.9-4.45,2.54-5.77c.31-.67.57-1.18.74-1.52a2.92,2.92,0,0,1,.29-.5,2.66,2.66,0,0,1-.21.54l-.67,1.54c-.59,1.35-1.43,3.32-2.4,5.83s-2.1,5.55-3.12,9.06a36.65,36.65,0,0,0-1.84,11.9l-.09-.18,4.22,3.38.34.27-.4.17-4.21,1.77.16-.22c-.07.9-.1,1.81-.13,2.73-.32,11.86,1.12,22.63,3.29,30.09a27.68,27.68,0,0,0,.81,2.65c.28.83.51,1.63.79,2.35.6,1.42,1,2.67,1.52,3.65l1.11,2.25A7,7,0,0,1,148.35,246.55Z" transform="translate(-27 -25.17)"/><path class="cls-4" d="M129.43,284.5s-.09-.27-.23-.78-.33-1.33-.57-2.28-.54-2.2-.81-3.62-.65-3-.94-4.82-.65-3.76-.92-5.88-.54-4.4-.8-6.79c-.43-4.8-.72-10.09-.72-15.65s.33-10.85.78-15.64c.27-2.4.5-4.67.83-6.79s.62-4.09.94-5.88.66-3.4,1-4.82.58-2.63.83-3.61.43-1.71.58-2.27a4.36,4.36,0,0,1,.23-.79,4.76,4.76,0,0,1-.13.81L129,208c-.23,1-.49,2.21-.74,3.63s-.61,3-.88,4.82-.62,3.76-.88,5.88-.52,4.39-.77,6.77c-.42,4.79-.72,10.06-.74,15.6s.28,10.82.68,15.6c.24,2.39.45,4.67.75,6.78s.57,4.09.86,5.88.59,3.41.85,4.83.51,2.63.73,3.63.35,1.72.47,2.29A4.76,4.76,0,0,1,129.43,284.5Z" transform="translate(-27 -25.17)"/><path class="cls-4" d="M136,333.28a10.83,10.83,0,0,1-1.17,2.43,39.94,39.94,0,0,1-3.69,5.35,39.49,39.49,0,0,1-4.52,4.67,11.19,11.19,0,0,1-2.15,1.63,19.24,19.24,0,0,1,1.9-1.9,58.29,58.29,0,0,0,4.37-4.73,61.14,61.14,0,0,0,3.78-5.21A18.23,18.23,0,0,1,136,333.28Z" transform="translate(-27 -25.17)"/><path class="cls-10" d="M246.73,173.43A33.17,33.17,0,0,1,267.11,197C275,231.79,288.49,278,288.7,293c.27,19-8,32-18.88,34.41-8.58,1.9-86.32-2.36-86.32-2.36l-3.64-29,63-9.26L234.2,238.6l8.53-66.72Z" transform="translate(-27 -25.17)"/><path class="cls-10" d="M242.73,171.88l-17.41-7.11L207,154l-.12,3.15h0A18.41,18.41,0,0,1,209,169.92l-15.27,79.66,3.46,58.21,7.11,57h55.21L234.2,305.18l8.94-80.39Z" transform="translate(-27 -25.17)"/><path class="cls-4" d="M258.85,327.85a2.26,2.26,0,0,1-.37,0l-1.11.11c-1,.1-2.43.09-4.31.14-3.74,0-9.18-.08-15.95-.3-13.53-.45-32.37-1.36-53.63-2.59h-.21l0-.22c-.43-3.45-.89-7.09-1.36-10.78-.78-6.25-1.54-12.35-2.27-18.18l0-.25.24,0,48.08-7,14.11-2,3.8-.51,1-.13.34,0-.33.07-1,.17L242,287,228,289.12l-48,7.17.21-.29c.74,5.84,1.5,11.93,2.29,18.18.46,3.7.92,7.34,1.35,10.79l-.24-.23c21.26,1.25,40.09,2.22,53.62,2.76,6.76.27,12.19.42,15.93.46,1.87,0,3.32,0,4.3,0l1.11-.06A1.83,1.83,0,0,1,258.85,327.85Z" transform="translate(-27 -25.17)"/><path class="cls-4" d="M233.69,233.73a2,2,0,0,1,.14.53l.3,1.55c.26,1.41.61,3.34,1,5.69.85,4.88,2,11.49,3.28,18.8s2.32,13.94,3.13,18.83c.37,2.36.68,4.29.9,5.71.09.63.16,1.15.22,1.56a3.24,3.24,0,0,1,0,.55,2.08,2.08,0,0,1-.15-.53c-.08-.41-.19-.92-.31-1.54-.26-1.42-.62-3.34-1.06-5.69-.87-4.81-2-11.45-3.29-18.8s-2.35-14-3.12-18.83c-.36-2.36-.66-4.3-.88-5.72q-.12-.94-.21-1.56A1.91,1.91,0,0,1,233.69,233.73Z" transform="translate(-27 -25.17)"/><path class="cls-4" d="M215,159.62s0,.07.07.2l.16.58c.12.51.35,1.27.55,2.26a70.84,70.84,0,0,1,1.33,8.58,95.88,95.88,0,0,1,.33,13.08c-.17,5-.69,10.47-1.44,16.3l0,.18-.18,0-5.69,1,.19-.35c.33.88.66,1.82.92,2.79a35.45,35.45,0,0,1-.65,19.31,60.46,60.46,0,0,1-6.68,14.4c-2.38,3.86-4.53,6.82-6,8.87l-1.73,2.34-.46.6a1.21,1.21,0,0,1-.17.2s0-.09.13-.23l.42-.63c.4-.58.95-1.38,1.64-2.4,1.43-2.08,3.53-5.08,5.85-8.94a61.62,61.62,0,0,0,6.54-14.35c1.65-5.66,2.43-12.41.61-19-.25-1-.59-1.88-.9-2.74l-.11-.29.3-.06,5.7-1-.21.22c.76-5.81,1.3-11.3,1.5-16.25a100.51,100.51,0,0,0-.21-13,79.75,79.75,0,0,0-1.17-8.57c-.18-1-.38-1.76-.47-2.28-.05-.24-.09-.43-.12-.59A.66.66,0,0,1,215,159.62Z" transform="translate(-27 -25.17)"/><path class="cls-1" d="M215,241.34V228.63s.17-3.13-2.47-2.47-2.15,5.61-2.15,5.61-.49,19.31.66,19.14,1.6-1.65,1.6-1.65v-7.42Z" transform="translate(-27 -25.17)"/><path class="cls-4" d="M226,242.13a43.86,43.86,0,0,1-6.81.26,43.86,43.86,0,0,1-6.81-.26,45.4,45.4,0,0,1,6.81-.26A45.4,45.4,0,0,1,226,242.13Z" transform="translate(-27 -25.17)"/><path class="cls-4" d="M251.11,181a9.31,9.31,0,0,1-1.43.53,32.06,32.06,0,0,0-3.77,1.63,29.46,29.46,0,0,0-10.22,8.7,21.41,21.41,0,0,0-2,3.28,19.93,19.93,0,0,0-1.2,3.36,33.11,33.11,0,0,0-1,6c-.15,1.73-.18,3.14-.19,4.12s0,1.51,0,1.52a6.11,6.11,0,0,1-.17-1.52,38.51,38.51,0,0,1,0-4.15,31.75,31.75,0,0,1,.92-6.1,21,21,0,0,1,1.21-3.46,22.22,22.22,0,0,1,2.05-3.36,28.29,28.29,0,0,1,10.47-8.73,26.55,26.55,0,0,1,3.88-1.5A7.49,7.49,0,0,1,251.11,181Z" transform="translate(-27 -25.17)"/><polygon class="cls-4" points="0 261.46 90.96 295.15 167.63 306.87 76.47 262.43 0 261.46"/><path class="cls-5" d="M65.93,323a38.84,38.84,0,0,0-4.84-13.78,10,10,0,0,1-1.24-2.59,2.93,2.93,0,0,1,.51-2.71c1.17-1.27,3.3-.71,4.74.25a16.72,16.72,0,0,1,6.12,8.58,49.16,49.16,0,0,1,2,10.51" transform="translate(-27 -25.17)"/><path class="cls-5" d="M101.38,314.3H96.86a8.86,8.86,0,0,0-4-2.28,3.14,3.14,0,0,0-3,1.17c2-3.34,4.2-7,4.62-8,.81-1.95-1-3.42-3.91-3.42S74.82,320,74.82,320s8-14.67,8.77-16.91c1.93-5.6-4.19-6-6.41-3.31C74.42,303.13,63.26,320,63.26,320s-2.11,3.42-.65,6.67,5.7,1.95,5.7,1.95a5.47,5.47,0,0,0,3,4.53c3.26,1.82,7.56-.29,7.56-.29L95.5,336.6l6-.6A18.48,18.48,0,0,0,118,320.32h0Z" transform="translate(-27 -25.17)"/><path class="cls-7" d="M90.17,312.93c.18.12-2,3.6-4.9,7.78-1.44,2.09-2.77,4-3.76,5.3a13.26,13.26,0,0,1-1.68,2.1,13.57,13.57,0,0,1,1.38-2.31c.91-1.4,2.19-3.3,3.63-5.39s2.75-4,3.72-5.32l1.15-1.59A3.76,3.76,0,0,1,90.17,312.93Z" transform="translate(-27 -25.17)"/><path class="cls-7" d="M89.17,331.49a16,16,0,0,1,1.48-2.72c1-1.64,2.38-3.88,3.92-6.35.77-1.23,1.51-2.41,2.11-3.5a4.06,4.06,0,0,0,.37-3.09,7.89,7.89,0,0,0-1.42-2.65,2,2,0,0,1,.64.54,5.31,5.31,0,0,1,1.13,2,4.29,4.29,0,0,1-.3,3.41c-.59,1.13-1.32,2.31-2.09,3.56-1.54,2.47-3,4.68-4.05,6.27A21.86,21.86,0,0,1,89.17,331.49Z" transform="translate(-27 -25.17)"/><path class="cls-7" d="M97.92,333.15a9.58,9.58,0,0,1,.88-2.6c.37-.82.77-1.73,1.19-2.71a20.38,20.38,0,0,0,1.22-3.36,3.91,3.91,0,0,0-.52-3.25,3,3,0,0,0-1.19-.84,3.29,3.29,0,0,0-1.24-.35,4.89,4.89,0,0,0-1.79.63,2,2,0,0,1-.69.28s.2-.19.59-.46c.2-.13.44-.29.74-.45a2.74,2.74,0,0,1,1.15-.37,3.52,3.52,0,0,1,1.42.32,3.44,3.44,0,0,1,1.38.94,4.29,4.29,0,0,1,.66,3.67,19.14,19.14,0,0,1-1.29,3.44c-.47,1-.92,1.91-1.29,2.67C98.38,332.21,98,333.17,97.92,333.15Z" transform="translate(-27 -25.17)"/><path class="cls-7" d="M101,317.41a1.76,1.76,0,0,1,.71.21,8.17,8.17,0,0,1,1.74,1,9.48,9.48,0,0,1,2.69,12.06,7.74,7.74,0,0,1-1.14,1.67c-.32.35-.52.51-.55.49a26.4,26.4,0,0,0,1.36-2.32,9.64,9.64,0,0,0-2.59-11.61A23.24,23.24,0,0,0,101,317.41Z" transform="translate(-27 -25.17)"/><path class="cls-7" d="M71.69,307.84a48.84,48.84,0,0,1-3.77,6,50.76,50.76,0,0,1-4.19,5.74,48,48,0,0,1,3.76-6A48.68,48.68,0,0,1,71.69,307.84Z" transform="translate(-27 -25.17)"/><path class="cls-5" d="M179.59,297.12l-10.4-2.35-10-9.41a7.12,7.12,0,0,0-4.45-1.92l-18.17-1a7.08,7.08,0,0,0-5,1.66l-13,11,56.67,27.63,7.78.69Z" transform="translate(-27 -25.17)"/><path class="cls-7" d="M148.78,292.27c0,.08-1.35-.17-3.5-.44s-5.24-.53-8.23.85a21.47,21.47,0,0,0-3.92,2.46C132,296,131,296.8,130,297.41a16.44,16.44,0,0,1-2.25,1.31,3.11,3.11,0,0,1-.9.33c0-.08,1.2-.63,2.94-1.94.87-.64,1.87-1.47,3-2.36a20.63,20.63,0,0,1,4-2.54,11.77,11.77,0,0,1,4.64-1,19.92,19.92,0,0,1,3.85.3c1.09.17,1.95.37,2.54.52A2.79,2.79,0,0,1,148.78,292.27Z" transform="translate(-27 -25.17)"/><path class="cls-7" d="M152.51,302.39c0,.08-.75-.25-2-.38a10.7,10.7,0,0,0-4.68.65,25.39,25.39,0,0,0-4.28,2.2,8.74,8.74,0,0,1-1.76,1,7.29,7.29,0,0,1,1.56-1.3,18.81,18.81,0,0,1,4.31-2.38,9.54,9.54,0,0,1,4.9-.52A3.71,3.71,0,0,1,152.51,302.39Z" transform="translate(-27 -25.17)"/><path class="cls-7" d="M175.9,304.07c-.13.07-1.6-2.1-3.53-4.68s-3.58-4.61-3.47-4.71a23.35,23.35,0,0,1,3.89,4.4A22.68,22.68,0,0,1,175.9,304.07Z" transform="translate(-27 -25.17)"/><path class="cls-1" d="M147.28,283.47l23-21.46a2.2,2.2,0,0,0-.16-3.35h0a2.19,2.19,0,0,0-2.81.11l-27,24.22" transform="translate(-27 -25.17)"/><g class="cls-2"><path d="M147.28,283.47l23-21.46a2.2,2.2,0,0,0-.16-3.35h0a2.19,2.19,0,0,0-2.81.11l-27,24.22" transform="translate(-27 -25.17)"/></g></g><g id="Character_2" data-name="Character 2"><path class="cls-11" d="M335.5,76.73c-.35-.14-14.3-3.8-13.46,10.31S336.87,97.39,336.87,97,335.5,76.73,335.5,76.73Z" transform="translate(-27 -25.17)"/><path class="cls-12" d="M332.24,91.89c-.06,0-.23.19-.63.41a2.49,2.49,0,0,1-1.84.14c-1.52-.45-2.92-2.75-3.14-5.28a8.07,8.07,0,0,1,.48-3.56,2.85,2.85,0,0,1,1.73-2,1.24,1.24,0,0,1,1.49.59c.22.38.14.67.22.69s.29-.26.14-.83a1.52,1.52,0,0,0-.61-.85,1.82,1.82,0,0,0-1.38-.28,3.45,3.45,0,0,0-2.43,2.34,8.22,8.22,0,0,0-.62,4c.26,2.84,1.87,5.41,4,5.88a2.61,2.61,0,0,0,2.22-.51C332.24,92.24,332.29,91.92,332.24,91.89Z" transform="translate(-27 -25.17)"/><path class="cls-4" d="M370.73,26.34c7.17,0,14.46,0,23.44,4.68,5.66,3,9.18,7.64,12.13,13.3a30.6,30.6,0,0,1,3.34,14.89c-.26,4.88-.28,8.29-2.23,12.77" transform="translate(-27 -25.17)"/><path class="cls-11" d="M367.86,27.45a38,38,0,0,1,40.65,35.93c.92,17.67,1.73,36.79,1.54,46.41-.42,20.66-21.11,23.71-21.11,23.71s.45,6.12,1,13.72a27.2,27.2,0,0,1-26.11,29h0a27.2,27.2,0,0,1-28.22-26.18L332.49,66.8a38.05,38.05,0,0,1,35.37-39.35Z" transform="translate(-27 -25.17)"/><path class="cls-12" d="M388.94,133.5s-12.7.66-26.5-8.17c0,0,6.24,15,26.87,13.33Z" transform="translate(-27 -25.17)"/><path class="cls-4" d="M400.59,74.88a2.94,2.94,0,0,1-2.87,3,2.82,2.82,0,0,1-3-2.68,3,3,0,0,1,2.87-3A2.82,2.82,0,0,1,400.59,74.88Z" transform="translate(-27 -25.17)"/><path class="cls-4" d="M403.45,70.7c-.36.38-2.59-1.29-5.76-1.31s-5.51,1.56-5.86,1.16c-.16-.17.21-.86,1.23-1.59a8.14,8.14,0,0,1,4.7-1.41,7.82,7.82,0,0,1,4.58,1.52C403.31,69.83,403.64,70.53,403.45,70.7Z" transform="translate(-27 -25.17)"/><path class="cls-4" d="M369.46,74.88a2.94,2.94,0,0,1-2.87,3,2.81,2.81,0,0,1-3-2.68,3,3,0,0,1,2.87-3A2.83,2.83,0,0,1,369.46,74.88Z" transform="translate(-27 -25.17)"/><path class="cls-4" d="M372.24,71c-.36.39-2.59-1.29-5.76-1.3s-5.52,1.55-5.86,1.16c-.16-.18.21-.87,1.23-1.6a8.06,8.06,0,0,1,4.69-1.4,7.69,7.69,0,0,1,4.59,1.52C372.1,70.17,372.42,70.87,372.24,71Z" transform="translate(-27 -25.17)"/><path class="cls-4" d="M383.58,94.68c0-.18,2-.51,5.16-.89.81-.08,1.58-.23,1.72-.78a4.06,4.06,0,0,0-.52-2.41l-2.35-6.19c-3.26-8.82-5.61-16.06-5.25-16.19s3.28,6.91,6.54,15.73q1.19,3.26,2.25,6.22a4.67,4.67,0,0,1,.39,3.19,2,2,0,0,1-1.34,1.17,5.18,5.18,0,0,1-1.38.18C385.58,94.86,383.59,94.86,383.58,94.68Z" transform="translate(-27 -25.17)"/><path class="cls-4" d="M374.22,96.8c.51,0,.49,3.42,3.42,5.89s6.6,2.12,6.63,2.6c0,.22-.83.67-2.38.69a8.57,8.57,0,0,1-5.53-2,7.48,7.48,0,0,1-2.65-4.94C373.59,97.63,374,96.78,374.22,96.8Z" transform="translate(-27 -25.17)"/><path class="cls-4" d="M373.16,58.61c-.32.86-3.48.43-7.21.84s-6.75,1.41-7.24.64c-.22-.38.31-1.18,1.54-2a12.67,12.67,0,0,1,11-1.13C372.62,57.52,373.3,58.2,373.16,58.61Z" transform="translate(-27 -25.17)"/><path class="cls-4" d="M403,59.4c-.56.72-2.75,0-5.38-.11s-4.86.45-5.36-.31c-.22-.37.13-1.09,1.11-1.76a7.79,7.79,0,0,1,8.66.33C403,58.3,403.26,59.05,403,59.4Z" transform="translate(-27 -25.17)"/><path class="cls-4" d="M332.74,73.25s.89,4.77,1.14,6.93c.08.79,0,9.54,2.11,10,1.82.37,5.46-1.29,7.08-4.91s4.7-12.31,4.36-16.26c-.45-5.39-.7-10.86.37-16.16s3.61-10.47,7.87-13.8,10.4-4.5,15.24-2.07c3,1.5,5.21,4.15,8,6a12.42,12.42,0,0,0,8.52,2.22,8,8,0,0,0,6.58-5.4c.89-3.15-.74-6.61-3.26-8.69s-5.78-3-9-3.69c-8.91-1.77-18.36-1.42-26.82,1.88s-16,9.6-19.6,17.94c-4.18,9.63-3.7,15.54-2.59,26" transform="translate(-27 -25.17)"/><path class="cls-4" d="M380,75a24.26,24.26,0,0,0-.54-3.4,13.88,13.88,0,0,0-18.2-9.56,13.78,13.78,0,0,0-6.4,4.81,13.73,13.73,0,0,0,0,16.3,13.78,13.78,0,0,0,6.4,4.81,13.91,13.91,0,0,0,18.2-9.56A24.26,24.26,0,0,0,380,75a1,1,0,0,1,0,.23v.67a6.79,6.79,0,0,1-.09,1.09,9.44,9.44,0,0,1-.26,1.46,14.14,14.14,0,0,1-18.56,10,14.24,14.24,0,0,1-6.65-5,14.19,14.19,0,0,1,0-16.9,13.82,13.82,0,0,1,3-3,13.6,13.6,0,0,1,3.62-1.93,14.17,14.17,0,0,1,7.49-.59,14.14,14.14,0,0,1,11.07,10.55,9.34,9.34,0,0,1,.26,1.47,6.59,6.59,0,0,1,.09,1.08v.67A1,1,0,0,1,380,75Z" transform="translate(-27 -25.17)"/><path class="cls-4" d="M416.32,75a25,25,0,0,0-.53-3.4A14,14,0,0,0,410.67,64a13.79,13.79,0,0,0-13.09-2,13.82,13.82,0,0,0-6.39,4.81,13.75,13.75,0,0,0,0,16.3,13.31,13.31,0,0,0,2.92,2.93A13.08,13.08,0,0,0,397.58,88a13.93,13.93,0,0,0,18.21-9.56,25,25,0,0,0,.53-3.4.6.6,0,0,1,0,.23c0,.18,0,.4,0,.67a6.63,6.63,0,0,1-.08,1.09,9.57,9.57,0,0,1-.27,1.46A14.1,14.1,0,0,1,404.92,89a14.2,14.2,0,0,1-7.5-.59,13.47,13.47,0,0,1-3.62-1.93,13.61,13.61,0,0,1-3-3,14.23,14.23,0,0,1,0-16.9,14.24,14.24,0,0,1,6.65-5,14.2,14.2,0,0,1,7.5-.59A14.14,14.14,0,0,1,416,71.56a9.46,9.46,0,0,1,.27,1.47,6.45,6.45,0,0,1,.08,1.08c0,.27,0,.49,0,.67A.6.6,0,0,1,416.32,75Z" transform="translate(-27 -25.17)"/><path class="cls-4" d="M388.58,73.51c-.05.07-.51-.18-1.3-.44a8.38,8.38,0,0,0-3.18-.41,8.69,8.69,0,0,0-3.1.82c-.75.37-1.17.68-1.23.62s.31-.47,1.05-.94a7.22,7.22,0,0,1,6.6-.44A2.79,2.79,0,0,1,388.58,73.51Z" transform="translate(-27 -25.17)"/><path class="cls-4" d="M394.21,38.66c.21-1.07-.15-1.67.46-2.11s2,.81,2.46,1.34c.15.16.64-.49.83-.61a3.7,3.7,0,0,0,.36-1.37c-.09-.75-1.26-.95-1.81-1.46a5.65,5.65,0,0,0-1.95-1.11,1.9,1.9,0,0,0-1.87.11,1.81,1.81,0,0,0-.41,1.4,3.83,3.83,0,0,0,.28,1.46,2,2,0,0,0,1,1.06" transform="translate(-27 -25.17)"/><path class="cls-10" d="M332,62.27s10.13,3.71,15.4,5.95l-.3-5.18-14.73-5.83S332,61.06,332,62.27Z" transform="translate(-27 -25.17)"/><path class="cls-10" d="M332.91,54.22A57,57,0,0,1,340.08,57a56.26,56.26,0,0,1,7,3.23,58.3,58.3,0,0,1-7.17-2.75A58,58,0,0,1,332.91,54.22Z" transform="translate(-27 -25.17)"/><path class="cls-1" d="M336,163.34l-.78-24.51s4.87,22.43,30.37,22.14c24.38-.28,23.94-19.77,23.94-19.77l.87,9.88V191l-15.9,65.11-20.31,2.58-22.44-89Z" transform="translate(-27 -25.17)"/><path class="cls-4" d="M387.23,155.5a5,5,0,0,1-.29.52,16.11,16.11,0,0,1-1,1.42,21,21,0,0,1-4.54,4.39,26.12,26.12,0,0,1-8.48,4,30.08,30.08,0,0,1-11.45.79,37.4,37.4,0,0,1-11-3.31,47.88,47.88,0,0,1-8-4.84,58.52,58.52,0,0,1-4.86-4c-.55-.5-.95-.92-1.23-1.2s-.42-.43-.4-.44a2.32,2.32,0,0,1,.47.36l1.3,1.12c1.12,1,2.78,2.34,4.94,3.88a49.73,49.73,0,0,0,8,4.71,37.47,37.47,0,0,0,10.86,3.22,29.89,29.89,0,0,0,11.25-.74,26.34,26.34,0,0,0,8.39-3.82,22.34,22.34,0,0,0,4.6-4.22C386.74,156.16,387.18,155.47,387.23,155.5Z" transform="translate(-27 -25.17)"/><path class="cls-10" d="M369.53,364.76l-.37-115.71L336.3,164.61l-1.1-25.42-20,15.15S286,254.66,285.57,251.18s0,113.58,0,113.58Z" transform="translate(-27 -25.17)"/><path class="cls-4" d="M368.74,364.44c-.15,0-.26-26.07-.26-58.23s.11-58.23.26-58.23.26,26.07.26,58.23S368.88,364.44,368.74,364.44Z" transform="translate(-27 -25.17)"/><polygon class="cls-9" points="288.46 145.69 292.53 148.77 289.67 167.49 337.63 217.72 294.07 160.52 297.78 145.69 288.46 145.69"/><path class="cls-10" d="M371.33,305.49l-73.61-21.58L295.28,228l20.19-73.66s-48.12,24-51.4,39.28-11.17,52.42-12,79.26c-.75,24-.86,40.05,4.62,47.71,15.7,22,119.14,25.86,160.46,0" transform="translate(-27 -25.17)"/><path class="cls-4" d="M365.56,244.11l-.24-.27c-.16-.21-.38-.48-.66-.82l-2.5-3.21L353.05,228l-29.93-39.17-2.25-3-.08-.1,0-.12c1.29-5.12,2.54-10.09,3.72-14.83l.25.31h-9.56v-.24c0-6.05,0-11.6,0-16.52v-.1l.08-.06,14.46-11c1.71-1.27,3-2.27,4-3l1-.76.37-.25a3.06,3.06,0,0,1-.34.3l-1,.81L330,143.36l-14.36,11.13.08-.15c0,4.92,0,10.47,0,16.52l-.24-.24h9.64l-.08.31-3.7,14.84-.05-.23,2.25,3,29.81,39.26c3.78,5,6.84,9.1,9,11.94,1,1.4,1.85,2.49,2.42,3.26l.62.86A1.91,1.91,0,0,1,365.56,244.11Z" transform="translate(-27 -25.17)"/><path class="cls-10" d="M398.38,150c-5.87-10.27-8.92-9.2-8.92-9.2l.31,3.66v7.69l-2.78,33-17.83,71.69.37,107.94h67.41L445.33,233l-.76-56.77Z" transform="translate(-27 -25.17)"/><path class="cls-10" d="M444.57,176.23s17.44,12.88,19,33.6c1.22,16.84,4,62.92,4.55,73,.79,15.62-11.37,52.21-43.05,41.85-19-6.22-89.18-30.08-89.18-30.08l4.67-29.8,83.3,5,1.66-69.48Z" transform="translate(-27 -25.17)"/><path class="cls-11" d="M339.57,268.19s-23.58-2.55-29-1.23c-5.25,1.27-12.72,7.69-12.72,7.69l.1,9.31,37.94,10.6Z" transform="translate(-27 -25.17)"/><path class="cls-4" d="M369.16,246a2,2,0,0,1,.1-.32l.36-.92c.33-.84.81-2,1.41-3.53,1.26-3.08,3.06-7.48,5.27-12.92s4.93-11.94,7.89-19.13c.75-1.8,1.49-3.67,2.42-5.49s1.93-3.66,3-5.49a120.4,120.4,0,0,1,7.48-10.8c1.36-1.76,2.73-3.46,4.15-5.1l-.05.26q-1.5-3.81-2.93-7.47l-.1-.24.25-.09,12.29-4.18-.13.35-13.93-23.26c-1.68-2.83-3.13-5.08-4.65-6a6.24,6.24,0,0,0-1.87-.75,6.5,6.5,0,0,1-.68-.17,6.06,6.06,0,0,1,.7.09,6.19,6.19,0,0,1,1.93.7,8.58,8.58,0,0,1,2.36,2.3,41.14,41.14,0,0,1,2.45,3.68L411,170.73l.15.24-.28.1-12.27,4.21.15-.33q1.44,3.65,2.95,7.46l.05.15-.1.12c-1.4,1.62-2.77,3.33-4.13,5.08a123.08,123.08,0,0,0-7.46,10.75c-1.08,1.81-2.12,3.61-3,5.44s-1.66,3.65-2.42,5.45c-3,7.18-5.71,13.65-8,19.09l-5.42,12.86c-.65,1.49-1.15,2.66-1.51,3.49-.16.37-.3.67-.4.9A1.62,1.62,0,0,1,369.16,246Z" transform="translate(-27 -25.17)"/><path class="cls-4" d="M454.14,318.84s-.09.11-.29.31l-.9.87a25.89,25.89,0,0,1-3.83,2.9,25.56,25.56,0,0,1-7,2.94,28.44,28.44,0,0,1-10,.64,31.7,31.7,0,0,1-5.74-1.22c-2-.62-3.92-1.39-6-2.11-4.11-1.5-8.53-3.05-13.17-4.68-9.3-3.26-19.55-6.74-30.35-10.29-21.6-7.09-41.3-13.07-55.58-17.34l-16.92-5-4.6-1.37-1.19-.37a2,2,0,0,1-.4-.14l.42.09,1.2.32,4.63,1.27c4,1.12,9.81,2.77,17,4.85,14.3,4.17,34,10.1,55.63,17.2,10.8,3.54,21,7,30.34,10.32,4.65,1.65,9.06,3.22,13.17,4.73,2.06.73,4,1.52,6,2.14a31.9,31.9,0,0,0,5.67,1.23,28.16,28.16,0,0,0,9.92-.55,26.31,26.31,0,0,0,7-2.83,29.25,29.25,0,0,0,3.86-2.81l.93-.83A1.63,1.63,0,0,1,454.14,318.84Z" transform="translate(-27 -25.17)"/><path class="cls-4" d="M297.91,284.13c0,.11-1.32-.18-3.43-.09a15,15,0,0,0-3.64.6,16.78,16.78,0,0,0-4.11,1.87,19.12,19.12,0,0,0-5.7,5.86c-1.12,1.8-1.6,3-1.69,3a3.39,3.39,0,0,1,.28-.89,15.41,15.41,0,0,1,1.1-2.3,17.91,17.91,0,0,1,5.73-6.11,16.34,16.34,0,0,1,4.26-1.89,14.27,14.27,0,0,1,3.76-.51,13.16,13.16,0,0,1,2.54.22A2.89,2.89,0,0,1,297.91,284.13Z" transform="translate(-27 -25.17)"/><path class="cls-4" d="M274.73,276.82s0-.09.09-.26a2.64,2.64,0,0,1,.46-.65,4.73,4.73,0,0,1,2.62-1.3,13.29,13.29,0,0,1,4.32,0,25.09,25.09,0,0,1,5.13,1.24,22.67,22.67,0,0,1,8.13,5,17.78,17.78,0,0,1,1.89,2.21,4,4,0,0,1,.54.91c-.08.06-.9-1.21-2.68-2.85a24,24,0,0,0-8.06-4.76,26.92,26.92,0,0,0-5-1.26A14,14,0,0,0,278,275a4.9,4.9,0,0,0-2.54,1.08C274.94,276.5,274.77,276.85,274.73,276.82Z" transform="translate(-27 -25.17)"/><path class="cls-4" d="M302.21,212.61a8.12,8.12,0,0,1-.34-1.51c-.15-.48-.37-1-.59-1.72s-.63-1.37-1.09-2.13a30.61,30.61,0,0,0-3.75-5,40.17,40.17,0,0,0-5.75-5.06,34.49,34.49,0,0,0-12.57-5.77,26.38,26.38,0,0,0-4.19-.54,9.23,9.23,0,0,1-1.55-.12,8.6,8.6,0,0,1,1.56-.08,22,22,0,0,1,4.25.37,33,33,0,0,1,12.8,5.72,38.34,38.34,0,0,1,5.8,5.15,28.75,28.75,0,0,1,3.72,5.14c.44.78.74,1.56,1,2.21s.4,1.28.52,1.77A10.55,10.55,0,0,1,302.21,212.61Z" transform="translate(-27 -25.17)"/><path class="cls-4" d="M442,298.1a2.37,2.37,0,0,1,0-.35l0-1.05c0-.92-.07-2.27-.2-4a56.1,56.1,0,0,0-3-14.41,20.43,20.43,0,0,0-2-4.4,8.63,8.63,0,0,0-3.9-3.31c-3.35-1.44-7.38-1.25-11.48-1.48L394.51,268c-22.19-1-41.92-1.8-54.31-2.46l.16-.14c-.74,4.56-1.34,8.17-1.75,10.67-.21,1.22-.37,2.16-.49,2.83-.05.3-.1.54-.13.73l-.06.24a.67.67,0,0,1,0-.25l.1-.73c.09-.67.23-1.62.4-2.84.38-2.51.92-6.13,1.61-10.7l0-.14h.15l54.31,2.26,26.84,1.17c2.06.1,4.07.15,6,.31a17.59,17.59,0,0,1,5.59,1.25,9.12,9.12,0,0,1,4.07,3.49,20.83,20.83,0,0,1,2,4.5,54,54,0,0,1,2.81,14.52c.1,1.74.11,3.1.1,4q0,.66,0,1.05A1.6,1.6,0,0,1,442,298.1Z" transform="translate(-27 -25.17)"/><path class="cls-4" d="M426.07,232.89c.14,0,.26,8.07.26,18s-.12,18-.26,18-.26-8.07-.26-18S425.92,232.89,426.07,232.89Z" transform="translate(-27 -25.17)"/><path class="cls-4" d="M264.65,191.82s-.06.23-.2.66-.4,1.08-.61,2c-.48,1.74-1.1,4.32-1.79,7.69-1.39,6.74-3.11,16.6-5,28.94-.95,6.17-2,13-3,20.31-.51,3.66-.83,7.49-1.09,11.44s-.48,8.05-.63,12.25c-.3,8.41-.48,17.29-.24,26.54.07,2.31.16,4.65.35,7,.06,1.18.25,2.34.4,3.51a29,29,0,0,0,.85,3.45A19.82,19.82,0,0,0,257,321.9a14.48,14.48,0,0,0,5.69,4.38h0A87,87,0,0,0,277.56,332c5.17,1.54,10.51,2.79,15.93,3.91a219.06,219.06,0,0,0,35.8,4.36,163.45,163.45,0,0,0,17.09-.45c5.57-.38,11-1,16.25-1.74a171.89,171.89,0,0,0,29.16-6.78,148.6,148.6,0,0,0,23.58-10.12l0,.33L383.05,310l-8.71-3.11-2.25-.81c-.51-.19-.76-.3-.76-.3l.77.25,2.27.77,8.74,3,32.4,11.3.38.13-.35.19a148.63,148.63,0,0,1-23.62,10.21,171.55,171.55,0,0,1-29.22,6.85c-5.26.79-10.7,1.38-16.28,1.77a167.18,167.18,0,0,1-17.14.46,218.63,218.63,0,0,1-35.89-4.36c-5.44-1.12-10.79-2.37-16-3.93a86.5,86.5,0,0,1-14.92-5.71l0,0a14.66,14.66,0,0,1-5.92-4.55,20.29,20.29,0,0,1-3.4-6.49,29.58,29.58,0,0,1-.86-3.52c-.15-1.2-.34-2.38-.4-3.56-.19-2.37-.28-4.71-.34-7-.24-9.27,0-18.15.27-26.57q.24-6.32.65-12.25c.28-4,.6-7.8,1.13-11.48,1-7.34,2.05-14.13,3-20.3,2-12.34,3.74-22.19,5.19-28.92.71-3.37,1.36-6,1.87-7.68.23-.87.5-1.51.65-1.94S264.65,191.82,264.65,191.82Z" transform="translate(-27 -25.17)"/><path class="cls-9" d="M297.81,277.22c12.31-13.63,11.76-37.86,4.7-55.06-.65,18.63-2.85,35.15-4.53,53.25" transform="translate(-27 -25.17)"/><path class="cls-4" d="M302.54,225.65a2.74,2.74,0,0,1,0,.6c0,.45-.06,1-.11,1.7-.12,1.55-.29,3.66-.49,6.25-.44,5.34-1,12.59-1.7,20.61s-1.19,15.28-1.61,20.61c-.2,2.59-.36,4.71-.47,6.25l-.15,1.7a2.33,2.33,0,0,1-.09.59,3.3,3.3,0,0,1,0-.59c0-.45,0-1,.05-1.71.05-1.48.15-3.62.3-6.26.3-5.29.81-12.58,1.47-20.63s1.32-15.34,1.84-20.6c.28-2.58.5-4.7.66-6.24.09-.69.15-1.25.21-1.69A2.2,2.2,0,0,1,302.54,225.65Z" transform="translate(-27 -25.17)"/><path class="cls-4" d="M332.88,201a105.27,105.27,0,0,1,.26,10.57,105.15,105.15,0,0,1-.26,10.56c-.14,0-.26-4.73-.26-10.56S332.74,201,332.88,201Z" transform="translate(-27 -25.17)"/><path class="cls-9" d="M324.86,236.14a10.85,10.85,0,0,0,2.27,5.6c1.15,1.51,3.51,3,5.4,2.87A8.25,8.25,0,0,0,339.8,241c2.3-3.67,2.87-11.29,1-15.8-1.27-3.11-4.12-6-7.47-6.07a8.27,8.27,0,0,0-8.1,6.29" transform="translate(-27 -25.17)"/><path class="cls-4" d="M325.25,225.38a6.82,6.82,0,0,1,.81-2.15,8.9,8.9,0,0,1,1.65-2.17,7.72,7.72,0,0,1,5.21-2.16,6.32,6.32,0,0,1,2.29.3,9,9,0,0,1,4.08,2.93,11.66,11.66,0,0,1,2.4,5,21.54,21.54,0,0,1,.45,5.93c-.2,3.13-.82,6.24-2.55,8.63a7.8,7.8,0,0,1-3.32,2.5,8.92,8.92,0,0,1-3.76.63h0a5.61,5.61,0,0,1-2.69-.67,8.71,8.71,0,0,1-2-1.41,9.9,9.9,0,0,1-2.2-3.29,9.17,9.17,0,0,1-.7-2.42c0-.29-.06-.51-.07-.66a.82.82,0,0,1,0-.23,14,14,0,0,0,1,3.21,10,10,0,0,0,2.21,3.14,9.15,9.15,0,0,0,2,1.32,5.42,5.42,0,0,0,2.5.59h0a8,8,0,0,0,6.64-3c1.62-2.23,2.24-5.3,2.43-8.36.22-4-.45-7.94-2.7-10.6a8.61,8.61,0,0,0-3.85-2.82,6.14,6.14,0,0,0-2.14-.31,7.54,7.54,0,0,0-5,2,9.07,9.07,0,0,0-1.67,2.05A19.12,19.12,0,0,0,325.25,225.38Z" transform="translate(-27 -25.17)"/><path class="cls-9" d="M322.52,236.34a10.77,10.77,0,0,0,2.27,5.6c1.15,1.5,3.5,3,5.4,2.87a8.25,8.25,0,0,0,7.27-3.65c2.3-3.67,2.87-11.3,1-15.81-1.27-3.1-4.12-6-7.48-6.06a8.26,8.26,0,0,0-8.09,6.29" transform="translate(-27 -25.17)"/><path class="cls-4" d="M322.91,225.58a6.82,6.82,0,0,1,.81-2.16,9.06,9.06,0,0,1,1.65-2.16,7.85,7.85,0,0,1,3.12-1.83,7.75,7.75,0,0,1,2.09-.33,6.32,6.32,0,0,1,2.29.3,9,9,0,0,1,4.08,2.93,11.66,11.66,0,0,1,2.4,5,21.47,21.47,0,0,1,.45,5.92c-.2,3.14-.82,6.25-2.55,8.63a7.82,7.82,0,0,1-3.32,2.51,9.08,9.08,0,0,1-3.76.63h0a5.61,5.61,0,0,1-2.69-.67,8.8,8.8,0,0,1-2-1.41,10.2,10.2,0,0,1-2.21-3.29,9.52,9.52,0,0,1-.69-2.43c0-.28-.06-.51-.07-.66a.72.72,0,0,1,0-.22,14.14,14.14,0,0,0,1,3.21,10.13,10.13,0,0,0,2.21,3.14,8.77,8.77,0,0,0,2,1.31,5.3,5.3,0,0,0,2.5.59h0a8,8,0,0,0,6.64-3c1.62-2.23,2.24-5.29,2.43-8.35.21-4-.45-7.95-2.7-10.6a8.61,8.61,0,0,0-3.85-2.82,5.7,5.7,0,0,0-2.14-.31,7.54,7.54,0,0,0-2,.29,7.46,7.46,0,0,0-3,1.68,8.78,8.78,0,0,0-1.67,2.06A18.06,18.06,0,0,0,322.91,225.58Z" transform="translate(-27 -25.17)"/><path class="cls-9" d="M326.77,224.46a5.13,5.13,0,0,0-5.37,3.09,8.87,8.87,0,0,0,0,6.53,8.09,8.09,0,0,0,1.66,2.94,4.45,4.45,0,0,0,3,1.45,5.22,5.22,0,0,0,4.13-2.44,9.34,9.34,0,0,0,1.41-7.67c-.46-1.74-1.74-3.52-3.53-3.56" transform="translate(-27 -25.17)"/><path class="cls-4" d="M328.07,224.8s.14,0,.4,0a2.6,2.6,0,0,1,1.08.36,5.36,5.36,0,0,1,2.29,3.45,9.37,9.37,0,0,1-.62,6.12,7.94,7.94,0,0,1-2.24,2.94,4.34,4.34,0,0,1-3.86.92,5.33,5.33,0,0,1-3.08-2.52,11.24,11.24,0,0,1-1.28-3.45,7.65,7.65,0,0,1,1-6,5.39,5.39,0,0,1,3.49-2.22,3.85,3.85,0,0,1,1.14,0c.26.05.39.09.39.11a6.93,6.93,0,0,0-1.49.09,5.31,5.31,0,0,0-3.23,2.23,7.41,7.41,0,0,0-.82,5.73,10.77,10.77,0,0,0,1.25,3.29,4.89,4.89,0,0,0,2.78,2.28,3.86,3.86,0,0,0,3.41-.82,7.69,7.69,0,0,0,2.12-2.75,9.27,9.27,0,0,0,.69-5.83,5.21,5.21,0,0,0-2-3.35A4.22,4.22,0,0,0,328.07,224.8Z" transform="translate(-27 -25.17)"/><path class="cls-4" d="M331.81,240.89c-.08,0-.19-.31-.53-.71a3.87,3.87,0,0,0-1.71-1.1,9.1,9.1,0,0,0-2.1-.32c-.56,0-.91-.09-.91-.16s.34-.16.91-.21a5.88,5.88,0,0,1,2.26.2,3.27,3.27,0,0,1,1.85,1.38C331.89,240.49,331.87,240.89,331.81,240.89Z" transform="translate(-27 -25.17)"/><path class="cls-4" d="M332.6,223.09s-.16.36-.62.73a4.87,4.87,0,0,1-2.11.92,5,5,0,0,1-2.3-.12c-.56-.19-.86-.41-.83-.47a11.75,11.75,0,0,0,3,.08A12,12,0,0,0,332.6,223.09Z" transform="translate(-27 -25.17)"/><path class="cls-4" d="M401.31,151.46a1.12,1.12,0,0,1,.33.13,7,7,0,0,1,.89.46,17.6,17.6,0,0,1,3,2.14A21.53,21.53,0,0,1,412,164.37a65.11,65.11,0,0,1,2.45,11.86c.17,1.54.27,2.79.33,3.65a6.09,6.09,0,0,1,0,1.35,8.1,8.1,0,0,1-.23-1.33c-.12-1-.29-2.17-.48-3.63a76.5,76.5,0,0,0-2.59-11.75,22.16,22.16,0,0,0-6.18-10.06A36.05,36.05,0,0,0,401.31,151.46Z" transform="translate(-27 -25.17)"/><path class="cls-4" d="M388.85,261.54c2.9-.11,5.22-3,8.11-2.85a4,4,0,1,1-.68,8c-3-.35-4.82-3.92-7.8-4.6" transform="translate(-27 -25.17)"/><path class="cls-4" d="M413.43,264a17.2,17.2,0,0,1-2.71-.23l.15-1c3.59.57,6.59,0,8.95-1.75,3-2.17,4.87-6.07,5.67-11.56l0-.21c.33-2.18.78-44.95.78-53.07,0-12.69-11.13-14.42-11.61-14.49S404.12,180,398.75,193.8c-5.62,14.51-14.61,42.47-15.2,45.75-.08.4-.19.89-.32,1.47-.93,4.2-2.87,12.92,2.95,18,6.49,5.61,11.61,3.44,11.82,3.34l.41.92c-.24.1-5.89,2.54-12.89-3.5-6.27-5.42-4.24-14.54-3.26-18.93.12-.56.23-1,.3-1.43.6-3.31,9.62-31.38,15.26-45.93s16.92-12.73,17-12.7,12.45,1.9,12.45,15.47c0,6.68-.44,50.9-.79,53.21l0,.21c-.84,5.77-2.89,9.89-6.07,12.23A11.51,11.51,0,0,1,413.43,264Z" transform="translate(-27 -25.17)"/><path class="cls-4" d="M426.8,204.39a18.42,18.42,0,0,0-2.08-5,17,17,0,0,0-10.38-7.31,18.77,18.77,0,0,0-12.66,1.65,22.72,22.72,0,0,0-4.4,3.15,1.32,1.32,0,0,1,.23-.31,8,8,0,0,1,.75-.79,15,15,0,0,1,3.25-2.38,18.33,18.33,0,0,1,5.64-2,17.93,17.93,0,0,1,7.31.15,17.11,17.11,0,0,1,6.6,3.16,16.6,16.6,0,0,1,4,4.47,12.92,12.92,0,0,1,1.54,3.72,6.55,6.55,0,0,1,.2,1.08C426.81,204.25,426.82,204.38,426.8,204.39Z" transform="translate(-27 -25.17)"/><path class="cls-4" d="M452.26,284.33a31.34,31.34,0,0,0-1.37-4.26,18.5,18.5,0,0,0-6.78-8.14,14.71,14.71,0,0,0-5.51-2,47.15,47.15,0,0,0-4.84-.5l-3.29-.23a6.14,6.14,0,0,1-1.21-.16,5.16,5.16,0,0,1,1.22,0l3.3.06a41.65,41.65,0,0,1,4.9.4,14.45,14.45,0,0,1,5.71,2,18.11,18.11,0,0,1,6.84,8.43,17,17,0,0,1,.92,3.2A4.24,4.24,0,0,1,452.26,284.33Z" transform="translate(-27 -25.17)"/><path class="cls-11" d="M401.82,267.64s9.84-14.89,12.35-16.85,24-11.64,26.49-10.08,1,4.94,1,4.94,9.08-3.18,10.05-1.93a4.49,4.49,0,0,1,0,5.12s5-.77,5,.78a6.37,6.37,0,0,1-2.9,5.22c-2.32,1.74-17.41,11.78-18.62,14.55l-4.89-.29Z" transform="translate(-27 -25.17)"/><path class="cls-12" d="M430.12,263.38a3.73,3.73,0,0,1,.45-.94,17.85,17.85,0,0,1,1.62-2.33,27.17,27.17,0,0,1,7.13-6,53.88,53.88,0,0,1,8.43-4c1.12-.43,2-.75,2.66-1a4.22,4.22,0,0,1,1-.28,3.8,3.8,0,0,1-.93.47l-2.59,1.11a67.07,67.07,0,0,0-8.3,4.07,29.81,29.81,0,0,0-7.12,5.79C430.91,262.13,430.2,263.43,430.12,263.38Z" transform="translate(-27 -25.17)"/><path class="cls-12" d="M417.65,263.14a5.47,5.47,0,0,1,.47-1.1c.34-.68.84-1.68,1.52-2.87a26.78,26.78,0,0,1,2.71-4,12.44,12.44,0,0,1,2.06-2c.83-.56,1.7-1.08,2.6-1.62a73.14,73.14,0,0,1,9.6-4.79,28.13,28.13,0,0,1,3.09-1,4.88,4.88,0,0,1,1.18-.21c0,.09-1.63.47-4.13,1.58a93.74,93.74,0,0,0-9.47,4.9c-.9.53-1.77,1.06-2.58,1.59a13,13,0,0,0-2,1.93,31.85,31.85,0,0,0-2.76,3.89q-1,1.66-1.65,2.79A5.32,5.32,0,0,1,417.65,263.14Z" transform="translate(-27 -25.17)"/></g><g id="Desk"><path class="cls-4" d="M644.68,365c0,.14-130.95.26-292.46.26S59.73,365.17,59.73,365s130.93-.26,292.49-.26S644.68,364.89,644.68,365Z" transform="translate(-27 -25.17)"/></g></svg>