<svg xmlns="http://www.w3.org/2000/svg" viewBox="0 0 554.6 479.15"><defs><style>.cls-1{fill:#ebebeb;}.cls-2{fill:#fff;}.cls-3{fill:#263238;}.cls-4{fill:#ffbe9d;}.cls-5{fill:#eb996e;}.cls-6{fill:#ff725e;}.cls-7{fill:none;stroke:#fff;stroke-miterlimit:10;}.cls-8{opacity:0.2;}.cls-9{fill:#9f6b5b;}.cls-10{fill:#774f44;}.cls-11{fill:#e0e0e0;}.cls-12{fill:#455a64;}</style></defs><g id="Background_Complete" data-name="Background Complete"><path class="cls-1" d="M53.44,202.09a4,4,0,0,0-.89-2.26,3.8,3.8,0,0,0-1.94-1.38,3.14,3.14,0,0,0-2.47.32,3,3,0,0,0-1.08,1.06,3,3,0,0,0-.86-1.07,3.22,3.22,0,0,0-2.41-.65,3.94,3.94,0,0,0-2.11,1.11,4,4,0,0,0-1.18,2.12,4.88,4.88,0,0,0,.41,3.06,7,7,0,0,0,2.24,2.41c1.5,1,3.48,2.36,3.48,2.36s1.83-1.18,3.45-2a7,7,0,0,0,2.55-2.08A4.91,4.91,0,0,0,53.44,202.09Z" transform="translate(-15.13 -10.42)"/></g><g id="Hearts"><rect class="cls-2" x="371.63" y="77.84" width="8.48" height="22.54"/><rect class="cls-2" x="386.76" y="88.26" width="8.48" height="22.54" transform="translate(276.34 480.11) rotate(-90)"/></g><g id="Character_4" data-name="Character 4"><path class="cls-3" d="M547.08,65.41c-3.9-4.34-8.63-8.45-9.92-14.14-1.18-5.22.77-11.15-1.89-15.8-3.28-5.72-11.73-6.35-15.7-11.61-1.93-2.55-2.55-5.89-4.45-8.46-3.25-4.37-9.41-5.46-14.81-4.81s-10.59,2.66-16,3.12c-7.44.61-15.16-1.71-22.28.52-7.86,2.47-12.59,9.51-17.63,16.34L437.8,38.5a29.28,29.28,0,0,1-4.41,3.68c-2.79,1.85-6,3.15-8.38,5.51-5.11,5-4.55,14.58,1.12,19a14.1,14.1,0,0,0-9.31,14c.23,3.3,1.64,6.38,2.68,9.53s1.68,6.65.4,9.71-5.14,5.19-8,3.6a14.8,14.8,0,0,0,8.22,9.77,8.87,8.87,0,0,1-5.93,2.73c6.24,14.1,22.77,21.33,38.19,21.18s30.09-6.2,44.31-12.16L538,113.59c3.63-.89,5.08-5.34,5-9.08s-1.12-7.61.17-11.12c1.76-4.82,7.29-7.44,9.13-12.23C554.38,75.72,551,69.75,547.08,65.41Z" transform="translate(-15.13 -10.42)"/><path class="cls-4" d="M487.46,21l-2.29-.1c-24.7.38-38.17,21.57-37.11,46.26l-.92,85a28.92,28.92,0,0,0,27.09,29.18h0a28.92,28.92,0,0,0,30.71-27.49c.22-4.47.38-7.59.4-7.59s23.84-2.67,25.15-26.34c.63-11.43,0-35.09-.78-56.48A44.18,44.18,0,0,0,487.46,21Z" transform="translate(-15.13 -10.42)"/><path class="cls-5" d="M505.34,146.27s-15,.23-30.45-10.44c0,0,6.4,17.6,30.13,16.48Z" transform="translate(-15.13 -10.42)"/><path class="cls-3" d="M519.78,82.38a3.38,3.38,0,0,1-3.41,3.27,3.24,3.24,0,0,1-3.35-3.2,3.38,3.38,0,0,1,3.4-3.27A3.23,3.23,0,0,1,519.78,82.38Z" transform="translate(-15.13 -10.42)"/><path class="cls-3" d="M524.22,73.06c-.44.42-2.92-1.58-6.56-1.73s-6.38,1.56-6.76,1.09c-.18-.2.28-1,1.48-1.78a9.29,9.29,0,0,1,5.43-1.42,8.93,8.93,0,0,1,5.2,1.93C524.09,72.06,524.44,72.87,524.22,73.06Z" transform="translate(-15.13 -10.42)"/><path class="cls-3" d="M485.24,82.38a3.38,3.38,0,0,1-3.41,3.27,3.23,3.23,0,0,1-3.35-3.2,3.38,3.38,0,0,1,3.4-3.27A3.24,3.24,0,0,1,485.24,82.38Z" transform="translate(-15.13 -10.42)"/><path class="cls-3" d="M488.51,73c-.44.42-2.92-1.58-6.56-1.73s-6.39,1.56-6.76,1.1c-.19-.21.27-1,1.47-1.78a9.3,9.3,0,0,1,5.44-1.43,8.93,8.93,0,0,1,5.2,1.93C488.37,72,488.72,72.81,488.51,73Z" transform="translate(-15.13 -10.42)"/><path class="cls-3" d="M500.36,101.53c0-.21,2.27-.5,6-.82.93,0,1.82-.2,2-.83a4.76,4.76,0,0,0-.51-2.78c-.77-2.28-1.59-4.68-2.44-7.19C502,79.67,499.59,71.26,500,71.13s3.49,8.06,6.88,18.3c.81,2.53,1.59,4.93,2.32,7.23.31,1.07.86,2.3.33,3.67a2.29,2.29,0,0,1-1.59,1.29,6.25,6.25,0,0,1-1.59.16C502.66,101.82,500.37,101.73,500.36,101.53Z" transform="translate(-15.13 -10.42)"/><path class="cls-3" d="M489.54,103.58c.6,0,.44,4,3.7,6.9s7.48,2.69,7.49,3.24c0,.25-1,.73-2.75.7a9.84,9.84,0,0,1-6.27-2.48,8.65,8.65,0,0,1-2.84-5.77C488.79,104.51,489.27,103.55,489.54,103.58Z" transform="translate(-15.13 -10.42)"/><path class="cls-3" d="M488.94,58.22c-.4,1-4,.35-8.3.68s-7.8,1.35-8.33.44c-.23-.44.41-1.34,1.84-2.24a14.46,14.46,0,0,1,12.67-.85C488.36,57,489.12,57.76,488.94,58.22Z" transform="translate(-15.13 -10.42)"/><path class="cls-3" d="M523.24,60.9c-.68.8-3.15-.17-6.16-.34s-5.59.32-6.14-.57c-.24-.43.19-1.25,1.34-2a9,9,0,0,1,9.92.73C523.22,59.64,523.54,60.5,523.24,60.9Z" transform="translate(-15.13 -10.42)"/><path class="cls-4" d="M449.24,84.77c-.4-.2-16.07-5.52-16.24,10.7s16.13,13,16.17,12.58S449.24,84.77,449.24,84.77Z" transform="translate(-15.13 -10.42)"/><path class="cls-5" d="M444.28,101.85c-.07,0-.28.2-.76.41a2.79,2.79,0,0,1-2.11,0c-1.71-.65-3.12-3.38-3.17-6.3a9.36,9.36,0,0,1,.84-4,3.23,3.23,0,0,1,2.14-2.14,1.43,1.43,0,0,1,1.66.79c.21.45.11.78.19.81s.35-.27.23-.94a1.78,1.78,0,0,0-.63-1,2.15,2.15,0,0,0-1.55-.43,4,4,0,0,0-3,2.48,9.58,9.58,0,0,0-1,4.51c.07,3.27,1.71,6.35,4,7.05a3,3,0,0,0,2.59-.4C444.25,102.24,444.34,101.88,444.28,101.85Z" transform="translate(-15.13 -10.42)"/><path class="cls-3" d="M448.7,37.24a33.91,33.91,0,0,1,10.55-11.61,48.87,48.87,0,0,1,15.6-8.83c8.91-3,19.06-2.79,27.39,1.56A21.34,21.34,0,0,1,510,25c5.81,3.61,11.59,10.34,9.28,11.6l-3.21-3.41s-1.41,2.91-7.28,7.35a3,3,0,0,1-.42.27,7.93,7.93,0,0,1-1.71,1l-.31.19c-6.93,2.32-11.42,1.38-18.31-1-4.77-1.66-9.11-4.37-13.72-6.4a16.88,16.88,0,0,0-11.1,4.14A10.76,10.76,0,0,0,461.88,40c-1.71,2.24-1.8,5.35-1.17,8.09s1.91,5.3,2.7,8c1.44,5,1.22,10.25,1,15.42-.33,7.27-.74,14.86-4.32,21.2-1.68,3-5.31,5.93-8.27,2.76a6.78,6.78,0,0,1-1.68-5c.2-4.94-4.14-7.21-6.39-10.8-1.83-2.91-2.18-6.48-2.27-9.91C441.18,58.54,443.25,47.07,448.7,37.24Z" transform="translate(-15.13 -10.42)"/><path class="cls-6" d="M449.24,150.58s19.49,18.08,35.2,18,19.47-8.34,19.47-8.34l8.84,11.26s.84,73.44,1.82,74.72-9.23,7.67-9.23,7.67l-52.12-74.81Z" transform="translate(-15.13 -10.42)"/><path class="cls-1" d="M559.63,420.4S567,418,569,411.13s-3.49-75.19-3.49-75.19l-4.15-4.13,3.17-2.54V307.56l-7.39-45.72s-7.26-62.81-16.08-67.31l-13.68,62.19,10.06,145.85Z" transform="translate(-15.13 -10.42)"/><path class="cls-1" d="M503.91,160.24h0l1-6.38c2.37,1.85,8.68,11.71,8.68,11.71,8.66,7.32,26.72,25.82,30,33.05,4.67,10.27,5.14,57.44,5.14,57.44l-2.31,233.27-156,.23L393,383.88l5-208.49,38.29-19.27,10.27-11.29L511,250l-.45-70.8A31,31,0,0,0,503.91,160.24Z" transform="translate(-15.13 -10.42)"/><path class="cls-1" d="M339.4,351.53a34.37,34.37,0,0,1-2.28-25.64c8.78-29.31,36.07-120.07,41-131.36,5.45-12.38,21-19.78,21-19.78l23.95,62.92L417.05,267,395.1,329.66h0l64.21,75.12-45.89,37.75s-69.21-81.86-73.88-90.73C339.5,351.71,339.45,351.62,339.4,351.53Z" transform="translate(-15.13 -10.42)"/><path class="cls-4" d="M507.93,411.71c-.48-.19-16.78,2.77-19.87,2a106,106,0,0,0-17.42-3.26c-7.49-.65-15.71-2-15.71-2l-31.68,26.06,13,4.62s8.3,1.31,20-2.28,30.77-13.35,30.77-13.35a72.58,72.58,0,0,0,13-.65C505.65,421.8,514.77,414.31,507.93,411.71Z" transform="translate(-15.13 -10.42)"/><path class="cls-3" d="M513.59,489.56a2.74,2.74,0,0,1,0-.63l0-1.88c0-1.69,0-4.11,0-7.2,0-6.3.09-15.33.16-26.48.16-22.36.54-53.24.48-87.36,0-17.06-.2-33.31-.48-48.09-.16-7.39-.32-14.41-.47-21-.3-6.56-.57-12.68-.83-18.26-.48-11.14-.87-20.17-1.14-26.46-.12-3.09-.21-5.5-.27-7.19,0-.79,0-1.41-.05-1.87a6.26,6.26,0,0,1,0-.64,3.08,3.08,0,0,1,.08.63c0,.46.07,1.08.13,1.87.1,1.69.24,4.1.42,7.19.33,6.29.81,15.31,1.4,26.44.29,5.59.6,11.71.93,18.27s.36,13.6.55,21c.32,14.78.51,31,.54,48.1.06,34.12-.41,65-.72,87.37-.17,11.14-.32,20.18-.42,26.48-.06,3.09-.11,5.5-.15,7.19,0,.8,0,1.42-.05,1.88A4.31,4.31,0,0,1,513.59,489.56Z" transform="translate(-15.13 -10.42)"/><path class="cls-3" d="M436.21,156.12a4.82,4.82,0,0,1,.54.71l1.44,2.11,5.3,8,18.27,28-.23-.17,13.68,3.42.49.12-.23.46c-1.53,3-3.13,6.12-4.77,9.31l-.73,1.43,0-.44c11.73,15.22,22.3,28.93,30,38.92l9,11.8L511.3,263l.61.85a1.27,1.27,0,0,1,.18.31s-.09-.08-.25-.26l-.67-.8c-.62-.77-1.46-1.82-2.53-3.13l-9.18-11.65-30.18-38.77-.16-.2.12-.24.73-1.43c1.64-3.18,3.24-6.32,4.77-9.3l.27.58-13.67-3.46-.15,0-.08-.12-18-28.13L438,159.08l-1.33-2.18A4.61,4.61,0,0,1,436.21,156.12Z" transform="translate(-15.13 -10.42)"/><path class="cls-3" d="M512.09,264.14a6.58,6.58,0,0,1,.36-1.05c.24-.68.68-1.66,1.12-3,.93-2.59,2.14-6.39,3.44-11.15,2.58-9.54,5.52-22.93,8.1-37.94l0,.28-1.2-1.95-6.47-10.54L517,198l.95.23,7.67,1.84-.45.5-8.43-25.14c-1-3-1.78-5.47-2.35-7.23-.24-.79-.44-1.43-.59-1.94a2.64,2.64,0,0,1-.16-.69,4,4,0,0,1,.28.65c.19.49.42,1.12.71,1.89.62,1.76,1.48,4.17,2.56,7.17,2.17,6.24,5.18,14.91,8.71,25l.23.66-.69-.16L517.74,199l.44-.6,6.48,10.53c.42.67.82,1.33,1.2,1.95l.08.13,0,.15a376,376,0,0,1-8.36,38c-1.38,4.76-2.68,8.54-3.7,11.11-.48,1.29-1,2.25-1.26,2.91A5.46,5.46,0,0,1,512.09,264.14Z" transform="translate(-15.13 -10.42)"/><path class="cls-4" d="M556.85,391.31s-11.78.8-15.53,2.5-6.35,7.5-9.31,9.88-7.38,3.57-6.36,6.56,5.11,5,8.86,3.66a82.6,82.6,0,0,0,8.17-3.66h18.74s3.75-14.82,4.09-14.61S560.25,391.29,556.85,391.31Z" transform="translate(-15.13 -10.42)"/><path class="cls-3" d="M547.92,232.42c.23,0,.41,35.75.41,79.85s-.18,79.85-.41,79.85-.41-35.75-.41-79.85S547.69,232.42,547.92,232.42Z" transform="translate(-15.13 -10.42)"/><path class="cls-3" d="M374.75,396.29s.27.26.74.8,1.18,1.38,2.08,2.41l7.85,9.25,28.25,33.57-.47-.05,45.85-37.8-.05.58-14.78-17.29-49.39-57.88-.13-.15.07-.19c6.66-18.82,12.19-34.45,16.07-45.43l4.54-12.66c.52-1.43.93-2.53,1.22-3.32s.45-1.13.45-1.13-.1.4-.35,1.17-.64,1.91-1.12,3.35l-4.36,12.73-15.79,45.52-.07-.34,49.48,57.79,14.78,17.3.27.31-.32.27-45.94,37.69-.26.22-.21-.26-28-33.75-7.72-9.37-2-2.47C375,396.6,374.75,396.29,374.75,396.29Z" transform="translate(-15.13 -10.42)"/><path class="cls-3" d="M388.32,183.36a2,2,0,0,1,.67-.06c.44,0,1.09-.05,1.93,0a38.43,38.43,0,0,1,7,.94,41.86,41.86,0,0,1,31.71,31.33,38.79,38.79,0,0,1,1,7c.06.83,0,1.49,0,1.92a2.06,2.06,0,0,1-.06.68,22.74,22.74,0,0,1-.29-2.58,44.53,44.53,0,0,0-1.27-6.89,42.66,42.66,0,0,0-31.27-30.9,46.77,46.77,0,0,0-6.92-1.19A19.84,19.84,0,0,1,388.32,183.36Z" transform="translate(-15.13 -10.42)"/><path class="cls-3" d="M370.37,334.35a11,11,0,0,1,3.11-2.15,28.24,28.24,0,0,1,17.8-2.94,11.68,11.68,0,0,1,3.64,1c0,.28-5.68-1.4-12.65-.21S370.49,334.6,370.37,334.35Z" transform="translate(-15.13 -10.42)"/><polygon class="cls-1" points="532.1 399.83 547.88 399.83 528.16 458.99 522.31 417.71 532.1 399.83"/><path class="cls-3" d="M542.68,410.25a6.74,6.74,0,0,1,1.46-.11l4.13-.1,14.74-.15h.49l-.16.47c-1.91,5.81-4.17,12.65-6.58,20-3.61,10.83-6.92,20.62-9.36,27.69-1.21,3.45-2.19,6.28-2.93,8.37-.33.91-.61,1.66-.83,2.26a4,4,0,0,1-.34.77,2.8,2.8,0,0,1,.18-.82c.19-.62.41-1.38.69-2.31.67-2.11,1.57-5,2.68-8.45,2.29-7.12,5.51-16.94,9.12-27.78,2.46-7.29,4.75-14.11,6.7-19.91l.34.46-14.74-.15-4.13-.09A8.91,8.91,0,0,1,542.68,410.25Z" transform="translate(-15.13 -10.42)"/><path class="cls-3" d="M547.92,392.12a7.25,7.25,0,0,1,1.85-.57,24.39,24.39,0,0,1,5.24-.64,15.12,15.12,0,0,1,7.65,1.83,14.24,14.24,0,0,1,5.94,7.54c2.46,6.55.6,13.45-2.7,16.61a14.29,14.29,0,0,1-4.43,2.92,6.64,6.64,0,0,1-1.84.59,13.3,13.3,0,0,1,1.7-.88,15.76,15.76,0,0,0,4.15-3c3-3.07,4.7-9.68,2.35-15.92a13.69,13.69,0,0,0-5.56-7.17,15,15,0,0,0-7.27-1.9A53.27,53.27,0,0,0,547.92,392.12Z" transform="translate(-15.13 -10.42)"/><path class="cls-7" d="M542,410.58" transform="translate(-15.13 -10.42)"/><path class="cls-3" d="M428.69,437.32a30.92,30.92,0,0,0,8.78,1.83,36.54,36.54,0,0,0,9.67-.9,85.91,85.91,0,0,0,11.44-3.55c8-3,15.28-5.63,20.55-7.51l6.26-2.18a14.5,14.5,0,0,1,2.34-.7,14.13,14.13,0,0,1-2.23,1l-6.17,2.43c-5.22,2-12.45,4.76-20.47,7.74A81.54,81.54,0,0,1,447.3,439a35.35,35.35,0,0,1-9.87.75,24.05,24.05,0,0,1-6.53-1.37,15.51,15.51,0,0,1-1.66-.72C428.87,437.46,428.68,437.35,428.69,437.32Z" transform="translate(-15.13 -10.42)"/><path class="cls-3" d="M432.1,489c-.22,0-1.36-9.76-2.54-21.83s-1.94-21.89-1.72-21.91,1.37,9.75,2.54,21.83S432.33,488.93,432.1,489Z" transform="translate(-15.13 -10.42)"/><path class="cls-3" d="M474.34,487c0-.08.83-.33,2.28-1a19.33,19.33,0,0,0,5.57-3.62,25.6,25.6,0,0,0,5.68-8,46.25,46.25,0,0,0,3.52-11.6,103.94,103.94,0,0,0,1.2-22.12c-.12-2.85-.28-5.15-.4-6.74a15.77,15.77,0,0,1-.11-2.47,13.3,13.3,0,0,1,.43,2.44c.22,1.58.47,3.88.66,6.73a94.24,94.24,0,0,1-1,22.31,45.54,45.54,0,0,1-3.66,11.78,25.32,25.32,0,0,1-6,8.13,18.35,18.35,0,0,1-5.83,3.48,12.12,12.12,0,0,1-1.77.54A2,2,0,0,1,474.34,487Z" transform="translate(-15.13 -10.42)"/><path class="cls-3" d="M428.85,441c.11-.09,1.38,1.52,3.71,3.85a53.34,53.34,0,0,0,21.71,13.24c3.13,1,5.14,1.39,5.12,1.53a5.54,5.54,0,0,1-1.44-.13,34.78,34.78,0,0,1-3.85-.84,47.24,47.24,0,0,1-11.92-5.17,46.68,46.68,0,0,1-10-8.23,32.76,32.76,0,0,1-2.51-3A5.19,5.19,0,0,1,428.85,441Z" transform="translate(-15.13 -10.42)"/><path class="cls-3" d="M484.44,265a5,5,0,0,1,1.84,4c-.16,2.45,0,19.16,0,19.16s.61,2.46-1.84,2.46V265Z" transform="translate(-15.13 -10.42)"/><rect class="cls-3" x="464.67" y="251.9" width="5.12" height="8.39"/><path class="cls-3" d="M480.83,263.27H484V260a1.57,1.57,0,0,0-1.57-1.57h0a1.56,1.56,0,0,0-1.56,1.57Z" transform="translate(-15.13 -10.42)"/><path class="cls-3" d="M441.11,270.19c0-.22,11.5-.41,25.7-.41s25.7.19,25.7.41-11.5.42-25.7.42S441.11,270.42,441.11,270.19Z" transform="translate(-15.13 -10.42)"/><g class="cls-8"><polyline points="492.57 248.05 490.2 245.79 446.94 204.44 451.68 190.9 444.18 190.9 429.14 158.16 446.3 184.69 459.97 188.13 454.47 198.86"/></g><g class="cls-8"><path d="M471.64,314.19c4.25-.33,8.59-1.28,12.1-3.7s5.94-7.23,6.85-10.16c-.42,3.41-.84,7.61-2,10.84a15.51,15.51,0,0,1-6.05,8.1c-3.37,2.09-7.55,2.32-11.5,2a48.06,48.06,0,0,1-15.36-3.85c-3.46-1.51-7.09-3.87-7.8-7.58A47.7,47.7,0,0,0,471.64,314.19Z" transform="translate(-15.13 -10.42)"/></g></g><g id="Character_2" data-name="Character 2"><path class="cls-3" d="M49.21,66.82s-10.16,38-11,64.85l-.29,9S60.3,159.23,79.1,160.38l15.75-38.75Z" transform="translate(-15.13 -10.42)"/><path class="cls-3" d="M148.76,90.12C144.47,71.59,142.83,50,127.43,38,116,29,103,26.5,88.46,27.11,81.32,27.4,73.25,30.7,67,34.22c-8.54,4.83-12.15,14.63-16.27,23.53-8.25,17.83-7.2,42-1.62,48.68l74.51,39.35c14.88-7.74,24.2-10.83,26.57-30.66A72.77,72.77,0,0,0,148.76,90.12Z" transform="translate(-15.13 -10.42)"/><path class="cls-9" d="M125.81,52.68,78.93,38.84C63.82,36.64,53,54.92,51.44,70.1c-1.73,16.87-3.17,37.54-1.67,50.23,3,25.54,22.35,29.53,22.35,29.53s0,.38-.1,7.92L71.52,170a21.19,21.19,0,0,0,4.13,13.83c6.91,9,19.52,10.15,34.38,4.66,8.61-3.19,14.6-9.6,15.26-18.34L133.44,62A8.92,8.92,0,0,0,125.81,52.68Z" transform="translate(-15.13 -10.42)"/><path class="cls-3" d="M60.11,93.27a3.26,3.26,0,0,0,3,3.4,3.11,3.11,0,0,0,3.47-2.8,3.26,3.26,0,0,0-3-3.41A3.13,3.13,0,0,0,60.11,93.27Z" transform="translate(-15.13 -10.42)"/><path class="cls-3" d="M55.37,85.4c.38.44,2.92-1.28,6.42-1.14s6,2,6.4,1.59c.19-.18-.19-1-1.28-1.82a8.9,8.9,0,0,0-5.1-1.8,8.6,8.6,0,0,0-5.13,1.44C55.57,84.45,55.18,85.21,55.37,85.4Z" transform="translate(-15.13 -10.42)"/><path class="cls-3" d="M92.75,93a3.25,3.25,0,0,0,3,3.41,3.12,3.12,0,0,0,3.47-2.81,3.25,3.25,0,0,0-3-3.4A3.1,3.1,0,0,0,92.75,93Z" transform="translate(-15.13 -10.42)"/><path class="cls-3" d="M89.81,85.82c.39.44,2.93-1.29,6.43-1.14s6,2,6.39,1.58c.2-.18-.18-1-1.27-1.82a8.93,8.93,0,0,0-5.1-1.8,8.58,8.58,0,0,0-5.13,1.44C90,84.87,89.62,85.62,89.81,85.82Z" transform="translate(-15.13 -10.42)"/><path class="cls-3" d="M76.17,108.52c0-.2-2.14-.66-5.64-1.25-.9-.13-1.73-.34-1.86-1a4.54,4.54,0,0,1,.7-2.63c.93-2.13,1.89-4.37,2.91-6.71,4.06-9.55,7-17.41,6.64-17.57s-4,7.45-8,17c-1,2.35-1.91,4.6-2.8,6.75-.38,1-1,2.13-.6,3.49A2.2,2.2,0,0,0,68.9,108a5.75,5.75,0,0,0,1.51.27C74,108.62,76.15,108.72,76.17,108.52Z" transform="translate(-15.13 -10.42)"/><path class="cls-10" d="M72.12,149.86a64.62,64.62,0,0,0,34.34-7.73s-9.1,17.43-34.4,14.05Z" transform="translate(-15.13 -10.42)"/><path class="cls-10" d="M87.48,115.51a5.62,5.62,0,0,0-4.57-2.73,7.33,7.33,0,0,0-6.8,3,4.58,4.58,0,0,0-.43,3.27c.23.57,0,.29.47.69a12.85,12.85,0,0,0,5.1,3.45,5.5,5.5,0,0,0,5.88-1.91A5.6,5.6,0,0,0,87.48,115.51Z" transform="translate(-15.13 -10.42)"/><path class="cls-3" d="M87,111.5c-.57-.06-.75,3.74-4.12,6.29s-7.4,1.95-7.45,2.48c-.07.24.86.78,2.57.9a9.4,9.4,0,0,0,6.21-1.85A8.27,8.27,0,0,0,87.43,114C87.65,112.45,87.27,111.49,87,111.5Z" transform="translate(-15.13 -10.42)"/><path class="cls-3" d="M88.49,73c.25,1,3.77.87,7.82,1.76s7.24,2.33,7.87,1.53c.28-.38-.21-1.33-1.45-2.38a14,14,0,0,0-12-2.51C89.21,71.86,88.38,72.53,88.49,73Z" transform="translate(-15.13 -10.42)"/><path class="cls-3" d="M55.66,76c.79.69,3.34-.52,6.55-1s6-.33,6.51-1.24c.21-.44-.33-1.17-1.62-1.74A10.55,10.55,0,0,0,56.57,73.8C55.56,74.77,55.3,75.64,55.66,76Z" transform="translate(-15.13 -10.42)"/><path class="cls-3" d="M79.58,36.11c0,.18-.07.37-.12.55l.09,0Z" transform="translate(-15.13 -10.42)"/><path class="cls-3" d="M112.37,160.1c.71-6.65-2-13.33-1.19-20,.83-7.05,5.39-13.08,7.26-19.93,3-11-1.11-22.61-2.62-33.93-6.35-.79-12.27-4.6-16.5-9.53-5.09-5.93-8.17-13.29-11.17-20.51A34.36,34.36,0,0,0,95.06,76a9.25,9.25,0,0,1-7.91-2.57,20.69,20.69,0,0,1-4.64-7.21A56.31,56.31,0,0,1,78,45.87a72.82,72.82,0,0,0,3.32,29.64c-1.78-.55-3.68-.06-5.52.21s-4,.21-5.25-1.11a6.59,6.59,0,0,1-1.44-3.39,76,76,0,0,1-.84-25.83,78.9,78.9,0,0,0-5.82,14.32A27.72,27.72,0,0,0,62.35,75a2.24,2.24,0,0,1-3.15,0,5.31,5.31,0,0,1-1.38-3.19c-.67-4.26.08-8.61.83-12.86-2.53,4.5-3.37,9.72-4.78,14.69s-3.64,10.07-7.95,12.9A67.54,67.54,0,0,1,46.55,67c.85-5.32,3.38-10.59,5.71-15.45,2.61-5.44,6.23-10.77,10.29-14.32C70,30.7,73.15,33.52,77.93,36l.56.24c0-.12,0-.24,0-.35l.21-1a71.6,71.6,0,0,1,37.72,1.77c9,2.93,20.08,12.19,24.66,20.47l.26.47C152,76.74,159,99,159.51,146.94h0Z" transform="translate(-15.13 -10.42)"/><path class="cls-3" d="M132.35,220.36a7.33,7.33,0,0,1,.05-1.91,32.68,32.68,0,0,1,.93-5.13,36.06,36.06,0,0,1,22.37-24.65,32.6,32.6,0,0,1,5-1.42,7.67,7.67,0,0,1,1.9-.23c0,.15-2.67.56-6.7,2.2a37.44,37.44,0,0,0-22,24.25C132.65,217.65,132.51,220.38,132.35,220.36Z" transform="translate(-15.13 -10.42)"/><path class="cls-11" d="M21.12,359.33s-2.93,49.3,10,68.58l9.59-32.48V359.69Z" transform="translate(-15.13 -10.42)"/><path class="cls-6" d="M121.14,161.74s-27.3,20.64-40.59,18.31C69.89,178.18,71.73,162,71.73,162l-5.18,11.18L55.39,217.86l4.72,21,25.37-15.66Z" transform="translate(-15.13 -10.42)"/><path class="cls-11" d="M27.93,251c2.87-29.48,38.33-80.56,38.33-80.56l5.61-9.06-5.59,25S60.72,223,59.93,223.74L91.2,193.46l35.14-37.22,7,10,30.86,17.1L161,280.17,150,308.55s32.59,89.2,36.81,120.82l7.05,60-166.35-.27S33.3,395.28,34,375.26L36,310.93S25.07,280.49,27.93,251Z" transform="translate(-15.13 -10.42)"/><path class="cls-3" d="M193.81,489.33a2.91,2.91,0,0,1-.1-.54c-.06-.41-.14-.94-.23-1.61l-.81-6.17c-.67-5.41-1.62-13.16-2.8-22.71-.58-4.8-1.22-10.05-1.9-15.69-.34-2.82-.69-5.74-1.05-8.74s-.7-6.1-1.27-9.22c-2.38-12.52-6.31-26-10.55-40.13-2.35-7.66-4.66-15.11-7.09-22.21s-4.76-13.9-7-20.34L149.7,308.64l0-.1,0-.09c3.11-7.75,5.59-13.95,7.31-18.26.86-2.09,1.52-3.72,2-4.87.22-.52.39-.93.53-1.25a2.63,2.63,0,0,1,.2-.42,2,2,0,0,1-.13.45c-.12.32-.27.74-.46,1.27-.44,1.17-1.06,2.82-1.86,4.93-1.67,4.33-4.08,10.56-7.08,18.35v-.19c3.16,9.11,7.09,20.44,11.55,33.27l7,20.32c2.44,7.11,4.76,14.56,7.11,22.23,4.25,14.12,8.15,27.63,10.5,40.23.57,3.17.91,6.28,1.25,9.28s.69,5.92,1,8.74c.65,5.64,1.25,10.9,1.8,15.7,1.07,9.57,1.93,17.32,2.54,22.74.28,2.65.5,4.73.65,6.19.06.68.11,1.21.15,1.62A2.08,2.08,0,0,1,193.81,489.33Z" transform="translate(-15.13 -10.42)"/><g class="cls-8"><path d="M168.23,361.61s-22.48,29-27.81,28.11-10.6-11.07-10.6-11.07L124,375.92l-5.73-10.45,12.38-11.07Z" transform="translate(-15.13 -10.42)"/></g><path class="cls-11" d="M61.14,177.9S48,183.49,43.7,190.21s-7.16,35.9-7.16,35.9l20.89-35.17Z" transform="translate(-15.13 -10.42)"/><path class="cls-9" d="M80.41,363.25l20.67-7.66L116.82,345l13.4,21.47-6.07,3.63-.19,5.83c0,.62-2.06,5.77-18.72,5.43s-20.55-8.79-20.55-8.79S76,382.49,72.44,384s-7-3.15-7-3.15Z" transform="translate(-15.13 -10.42)"/><path class="cls-9" d="M35.74,320.12s-7.86,8.25-9.78,14.72-.8,24.65-.8,24.65l2.27.07s-.05,11.92,3.29,12.31,6.5.49,6.68-4.89-1.51-14.8-1.51-14.8Z" transform="translate(-15.13 -10.42)"/><path class="cls-3" d="M51.67,489.33a5.16,5.16,0,0,1-.05-.69c0-.49,0-1.17-.08-2,0-1.83-.11-4.44-.2-7.79-.13-6.8-.33-16.56-.58-28.62-.41-24.2-1-57.57-1.6-94.42-1.19-36.88-1.4-70.33.62-94.46,1.14-12.06,3.5-21.66,5.88-28,.56-1.6,1.13-3,1.66-4.18a32.46,32.46,0,0,1,1.37-3c.38-.77.68-1.37.91-1.81a6.34,6.34,0,0,1,.33-.61,3.74,3.74,0,0,1-.26.65l-.83,1.84c-.39.8-.82,1.81-1.29,3s-1,2.59-1.58,4.2c-2.29,6.34-4.54,15.91-5.61,27.93-1.86,24.08-1.57,57.52-.37,94.38.53,36.86,1,70.24,1.36,94.44.13,12.06.24,21.83.32,28.63,0,3.35,0,6,0,7.78,0,.86,0,1.53,0,2A6.2,6.2,0,0,1,51.67,489.33Z" transform="translate(-15.13 -10.42)"/><path class="cls-3" d="M109.77,454a3.27,3.27,0,0,1-.81-.27,24.24,24.24,0,0,1-2.26-1,34.73,34.73,0,0,1-7.51-5.1,44.49,44.49,0,0,1-8.59-10.37A56.09,56.09,0,0,1,84.3,422c-2.79-11.45-2.37-22.19-1.86-29.79.27-3.81.59-6.89.84-9,.13-1,.23-1.79.31-2.44a3.17,3.17,0,0,1,.17-.85,3.24,3.24,0,0,1,0,.87c0,.65-.1,1.46-.16,2.45-.15,2.13-.39,5.21-.58,9-.36,7.58-.68,18.25,2.08,29.55a56.64,56.64,0,0,0,6.16,15,45.46,45.46,0,0,0,8.32,10.33C105.23,452.33,109.91,453.79,109.77,454Z" transform="translate(-15.13 -10.42)"/><path class="cls-3" d="M61.14,177.9a6.62,6.62,0,0,1,0,1.07c-.05.76-.13,1.79-.22,3.09-.23,2.77-.56,6.69-1,11.61v.13l-.11.06-3.55,2,.14-.25c.6,8.13,1.36,18.49,2.22,30.21l-.51-.33,28.09-10.15,9-3.24-.27.45c-.44-3.08-.88-6.1-1.3-9.05l-.1-.66.63.23,10.69,3.79-.44.14,20.73-29.46,6-8.41,1.62-2.21a5.78,5.78,0,0,1,.59-.75,4.65,4.65,0,0,1-.49.81l-1.51,2.29-5.82,8.52L105,207.47l-.17.24-.27-.1-10.71-3.76.53-.43c.43,3,.87,6,1.32,9l0,.33-.31.11-9,3.24-28.11,10.1-.48.17,0-.5c-.78-11.74-1.46-22.1-2-30.23v-.18l.15-.08,3.57-2-.13.19c.51-4.91.91-8.82,1.2-11.58.15-1.3.26-2.33.35-3.09A5.43,5.43,0,0,1,61.14,177.9Z" transform="translate(-15.13 -10.42)"/><path class="cls-3" d="M35.89,352.18a6,6,0,0,1,0-.74q0-.81-.06-2.16c0-2-.08-4.73-.14-8.23-.07-7.16-.16-17.29-.28-29.47v.09c-1.86-6.49-3.52-13.7-5.12-21.41q-1.18-5.79-2.27-11.93a80.51,80.51,0,0,1-1.46-12.68,85.35,85.35,0,0,1,5.73-33.36v0A153.71,153.71,0,0,1,41,212.51c3-5.78,5.8-10.76,8.18-14.85s4.34-7.28,5.72-9.44l1.59-2.46a5.28,5.28,0,0,1,.59-.82,6.87,6.87,0,0,1-.48.89l-1.49,2.52c-1.31,2.2-3.21,5.43-5.53,9.54s-5.08,9.12-8,14.91A156.94,156.94,0,0,0,33,232.57h0v0a85.27,85.27,0,0,0-5.61,33,82.09,82.09,0,0,0,1.44,12.57c.72,4.08,1.46,8.06,2.25,11.91,1.57,7.7,3.2,14.92,5,21.37l0,.06v0c0,12.19,0,22.32,0,29.48,0,3.5,0,6.27-.06,8.22,0,.91,0,1.63,0,2.17A3.52,3.52,0,0,1,35.89,352.18Z" transform="translate(-15.13 -10.42)"/><g class="cls-8"><path d="M159.74,287.77c-17.21-12.3-27.52-33.75-27.8-54.91Z" transform="translate(-15.13 -10.42)"/></g><path class="cls-11" d="M152,177.78s14.69,2.87,20.48,15.46,44.2,107.82,44.94,114.52S215,323,207.12,331.28s-67.47,50.28-67.47,50.28l-25.84-41.39,52.6-37.88-34.28-70.77S134.66,183,152,177.78Z" transform="translate(-15.13 -10.42)"/><path class="cls-3" d="M188.35,311.73c-.16.21-4.06-3.21-9.77-5.9s-10.81-3.6-10.75-3.86a10.56,10.56,0,0,1,3.36.43,37,37,0,0,1,7.74,2.68,36.39,36.39,0,0,1,7,4.32A10.7,10.7,0,0,1,188.35,311.73Z" transform="translate(-15.13 -10.42)"/><path class="cls-3" d="M186.39,296.72c0,.26-4.37.09-9.5,1.48s-8.86,3.65-9,3.42,3.48-2.83,8.78-4.22S186.44,296.52,186.39,296.72Z" transform="translate(-15.13 -10.42)"/><path class="cls-3" d="M207.12,331.28a3.23,3.23,0,0,1,.34-.42l1.06-1.19a20,20,0,0,0,1.67-2,29.72,29.72,0,0,0,2.08-2.84,29.08,29.08,0,0,0,4-8.67,22.81,22.81,0,0,0,.87-5.9,14.77,14.77,0,0,0-1.16-6.51c-6.89-17.76-16.37-42.2-26.84-69.21-4.09-9.87-8-19.41-11.74-28.37-1.86-4.47-3.65-8.81-5.37-13a27.09,27.09,0,0,0-8.12-9.66l0,0L134.36,167l0,0,0,0-6-7.93L126.83,157a6.24,6.24,0,0,1-.49-.72,4.45,4.45,0,0,1,.57.66l1.6,2,6.1,7.82-.06-.05L164.32,183l0,0h0a27.48,27.48,0,0,1,8.4,9.9l5.41,13L190,234.28c10.52,27,19.84,51.56,26.63,69.31a15.25,15.25,0,0,1,1.13,6.72,22.64,22.64,0,0,1-1,6,32.38,32.38,0,0,1-6.38,11.54,21.64,21.64,0,0,1-1.73,1.93l-1.13,1.13A2.25,2.25,0,0,1,207.12,331.28Z" transform="translate(-15.13 -10.42)"/><path class="cls-3" d="M169.61,360.14a3.67,3.67,0,0,1-.5.41l-1.54,1.15L161.64,366l-21.81,15.77-.26.19-.17-.28-25.93-41.34-.2-.31.3-.22,23.69-17.08L166.18,302l-.12.49-25.17-51-7.2-14.76-1.89-4-.48-1a2,2,0,0,1-.14-.36,1.5,1.5,0,0,1,.2.33c.14.25.32.58.54,1l2,3.89,7.41,14.67,25.43,50.89.15.3-.27.2-28.89,20.83L114,340.5l.11-.54c9.77,15.72,18.56,29.87,25.76,41.44l-.43-.08,22-15.55,6-4.21,1.59-1.08A2.5,2.5,0,0,1,169.61,360.14Z" transform="translate(-15.13 -10.42)"/><path class="cls-3" d="M132.35,220.36a7.33,7.33,0,0,1,.05-1.91,32.68,32.68,0,0,1,.93-5.13,36.06,36.06,0,0,1,22.37-24.65,32.6,32.6,0,0,1,5-1.42,7.67,7.67,0,0,1,1.9-.23c0,.15-2.67.56-6.7,2.2a37.44,37.44,0,0,0-22,24.25C132.65,217.65,132.51,220.38,132.35,220.36Z" transform="translate(-15.13 -10.42)"/><path class="cls-3" d="M169.61,360.14a3.67,3.67,0,0,1-.5.41l-1.54,1.15L161.64,366l-21.81,15.77-.26.19-.17-.28-25.93-41.34-.2-.31.3-.22,23.69-17.08L166.18,302l-.12.49-25.17-51-7.2-14.76-1.89-4-.48-1a2,2,0,0,1-.14-.36,1.5,1.5,0,0,1,.2.33c.14.25.32.58.54,1l2,3.89,7.41,14.67,25.43,50.89.15.3-.27.2-28.89,20.83L114,340.5l.11-.54c9.77,15.72,18.56,29.87,25.76,41.44l-.43-.08,22-15.55,6-4.21,1.59-1.08A2.5,2.5,0,0,1,169.61,360.14Z" transform="translate(-15.13 -10.42)"/><g class="cls-8"><polygon points="89.54 196.84 80.77 196.55 82.6 205.43 43.09 215.46 80.16 202.1 78.84 193.06 89.54 196.84"/></g><path class="cls-3" d="M27.46,489.06a6.67,6.67,0,0,1,0-1.22c0-.87.08-2,.14-3.5.16-3.12.38-7.52.66-12.95.63-11.06,1.51-26.32,2.49-43.5l.09.27a28.62,28.62,0,0,1-3.65-6.78,86.88,86.88,0,0,1-4.62-19.54c-.85-6.29-1.29-12.24-1.55-17.65-.5-10.82-.31-19.51-.06-24.87v-.17h.17l4.68.26,1.21.08.41.06s-.14,0-.41,0H25.81l-4.7-.09.18-.16c-.11,5.35-.17,14,.41,24.82.3,5.39.78,11.32,1.64,17.58a88.65,88.65,0,0,0,4.6,19.33,28.47,28.47,0,0,0,3.54,6.6l.09.12v.15c-1.09,17.18-2.06,32.43-2.76,43.48-.38,5.43-.69,9.82-.91,12.94-.12,1.46-.21,2.63-.28,3.49A9.66,9.66,0,0,1,27.46,489.06Z" transform="translate(-15.13 -10.42)"/><path class="cls-12" d="M125.71,201.86l-2.14-.9c0-.11,4.83-11.59,9.54-23.75,1.87-4.82,2.54-8.85,2-12a5.56,5.56,0,0,0-5.63-4.51l-1.46-2.1c4.11-.88,8.71,2.41,9.38,6.21.61,3.54-.11,8-2.13,13.2C130.55,190.24,125.75,201.74,125.71,201.86Z" transform="translate(-15.13 -10.42)"/><path class="cls-12" d="M129.16,228.69l-3-1.15c2.42-6.23,5.73-17.28,4.3-20.39-.86-1.88-3.35-3.52-6.34-4.19a10.59,10.59,0,0,0-9.27,1.9c-3.38,2.86-8.49,13-10.17,16.61l-2.88-1.33c.26-.56,6.4-13.8,11-17.7a13.74,13.74,0,0,1,12-2.57c4,.89,7.26,3.17,8.53,6C135.79,211.06,130.29,225.79,129.16,228.69Z" transform="translate(-15.13 -10.42)"/><path class="cls-3" d="M97.27,276.86c-3.66,0-7.24-1.95-10.68-5.83l1.18-1c3.79,4.27,7.68,6,11.57,5.06,15.8-3.72,27.82-47.6,27.94-48l1.52.41c-.49,1.84-12.39,45.24-29.1,49.17A10.6,10.6,0,0,1,97.27,276.86Z" transform="translate(-15.13 -10.42)"/><path class="cls-3" d="M89.63,272.84h0a1.9,1.9,0,0,1-2.47.17l-3.43-2.55a2.27,2.27,0,0,1-.64-3.15h0a2.27,2.27,0,0,1,3.5-.34l3.08,3.21A1.9,1.9,0,0,1,89.63,272.84Z" transform="translate(-15.13 -10.42)"/><path class="cls-3" d="M104,278.29c-4.88,0-8.5-1.61-10.78-4.8-9.71-13.62,8.6-51.43,9.38-53l1.42.69c-.18.39-18.68,38.56-9.51,51.42,2.39,3.35,6.59,4.68,12.48,3.95l.2,1.57A25.64,25.64,0,0,1,104,278.29Z" transform="translate(-15.13 -10.42)"/><path class="cls-3" d="M103.69,277.44h0a1.9,1.9,0,0,0,1.73,1.76l4.26.35a2.27,2.27,0,0,0,2.57-1.94h0a2.28,2.28,0,0,0-2.4-2.57l-4.43.38A1.89,1.89,0,0,0,103.69,277.44Z" transform="translate(-15.13 -10.42)"/><circle class="cls-3" cx="27.53" cy="240.33" r="12.4" transform="translate(-105.43 18.65) rotate(-22.61)"/><circle class="cls-3" cx="27.53" cy="240.33" r="12.4" transform="translate(-105.43 18.65) rotate(-22.61)"/><path class="cls-11" d="M36.69,240.33a9.16,9.16,0,1,1-9.16-9.16A9.16,9.16,0,0,1,36.69,240.33Z" transform="translate(-15.13 -10.42)"/><path class="cls-12" d="M32.62,229.15l-2.06-1.06c1-2,25.56-49.69,27-51.85.26-.38.57-.9.92-1.49a34.3,34.3,0,0,1,2.45-3.7c2.47-3,5.41-5.87,8.95-6.51l-2.06,3.33c-1.89.74-2.88,1.92-5.09,4.65a32.64,32.64,0,0,0-2.26,3.42c-.38.64-.72,1.2-1,1.61C58.35,179.24,39.71,215.37,32.62,229.15Z" transform="translate(-15.13 -10.42)"/></g><g id="Character_3" data-name="Character 3"><path class="cls-4" d="M301.77,78.4,303,173.49c.21,16.17-2.8,40-28.39,39.12h0c-22.13-2.41-28-23.37-28.18-38.46-.08-7.16-.16-13.13-.22-13.86,0,0-24.24-2-26.28-25.92-1-11.56-1.09-35.56-.92-57.26a44.75,44.75,0,0,1,41.5-44.27l2.31-.17C287.81,32.31,302.1,53.37,301.77,78.4Z" transform="translate(-15.13 -10.42)"/><path class="cls-5" d="M246.16,160.29s15.17-.22,30.52-11.5c0,0-6.33,18.05-30.4,17.64Z" transform="translate(-15.13 -10.42)"/><path class="cls-3" d="M259.88,86.92c.48.48,3.24-1.74,7.25-1.85s7,1.86,7.43,1.34c.21-.23-.29-1.11-1.59-2a10.07,10.07,0,0,0-6-1.69,9.68,9.68,0,0,0-5.75,2.09C260,85.79,259.65,86.7,259.88,86.92Z" transform="translate(-15.13 -10.42)"/><path class="cls-3" d="M264,95.16a3.25,3.25,0,0,0,3.36,3A3.09,3.09,0,0,0,270.45,95a3.25,3.25,0,0,0-3.35-3A3.11,3.11,0,0,0,264,95.16Z" transform="translate(-15.13 -10.42)"/><path class="cls-3" d="M249.84,114.82c0-.21-2.32-.44-6.06-.65-.95,0-1.85-.15-2.06-.78a4.78,4.78,0,0,1,.43-2.83q1.07-3.51,2.25-7.36c3.12-10.48,5.3-19.06,4.88-19.18s-3.29,8.27-6.41,18.74c-.74,2.58-1.46,5-2.14,7.4-.27,1.09-.8,2.35-.21,3.72a2.36,2.36,0,0,0,1.64,1.27,6.19,6.19,0,0,0,1.61.1C247.52,115.18,249.84,115,249.84,114.82Z" transform="translate(-15.13 -10.42)"/><path class="cls-3" d="M261.59,71.84c.39.89,3.6.22,7.44.42s7,1,7.45.19c.2-.41-.4-1.23-1.71-2A12.59,12.59,0,0,0,263.43,70C262.07,70.65,261.42,71.42,261.59,71.84Z" transform="translate(-15.13 -10.42)"/><path class="cls-3" d="M223.5,79.27c.42.73,3.55-.08,7.34-.2s6.94.37,7.34-.39c.18-.36-.45-1-1.77-1.58a13.14,13.14,0,0,0-5.61-.93,13.69,13.69,0,0,0-5.58,1.37C223.92,78.22,223.31,78.92,223.5,79.27Z" transform="translate(-15.13 -10.42)"/><path class="cls-4" d="M301.11,96.28c.4-.2,16.11-6.07,16.78,10.35s-15.95,13.71-16,13.24S301.11,96.28,301.11,96.28Z" transform="translate(-15.13 -10.42)"/><path class="cls-5" d="M306.65,113.44c.08,0,.3.19.79.39a2.82,2.82,0,0,0,2.14,0c1.71-.71,3.06-3.52,3-6.48a9.46,9.46,0,0,0-1-4.07,3.29,3.29,0,0,0-2.24-2.1,1.45,1.45,0,0,0-1.66.85c-.2.47-.08.79-.17.82s-.36-.26-.26-.94a1.83,1.83,0,0,1,.61-1.06,2.18,2.18,0,0,1,1.56-.48,4,4,0,0,1,3.09,2.42,9.68,9.68,0,0,1,1.18,4.54c0,3.31-1.54,6.48-3.88,7.26a3,3,0,0,1-2.63-.33C306.7,113.84,306.6,113.47,306.65,113.44Z" transform="translate(-15.13 -10.42)"/><path class="cls-3" d="M253.71,126.18c-.18-.41,3-1.37,5.3-4.39a18.6,18.6,0,0,0,2.27-4.29c.48-1.19.84-1.94,1-1.88s.13.85-.14,2.15a12,12,0,0,1-2.11,4.8,9.7,9.7,0,0,1-4.19,3.21C254.6,126.29,253.75,126.32,253.71,126.18Z" transform="translate(-15.13 -10.42)"/><path class="cls-3" d="M322.94,69.7c-3.42-5.79-4.22-12.7-6.08-19.16s-5.47-13.15-11.81-15.41l-.14.06c-5.69-2.29-12.7-2.32-17.38,1.63-1.15-8.53-8.63-15.29-17-17.48s-21.69-.88-29.68,2.34c-6.17,2.48-12.15,7.58-19.4,15.06a79.82,79.82,0,0,0-8.38,10.15l-7.24,22.37L212.07,81c.37.8.76,1.6,1.22,2.39v-.06L218.89,108c.36-6.74-.13-30.19.22-36.93A37.55,37.55,0,0,0,245.9,58.73c3.68-4.08,6.57-9.18,11.5-11.62,6.34-3.14,13.91-.86,20.6,1.47l-.28-.26A30,30,0,0,1,287,55,93.48,93.48,0,0,0,291,94.56c.62,1.91,2.34,5.85,4.21,6.58,3.69,1.42,4.68-2.33,6.9-4.33,1.64-1.47,4.06-1.66,6.71-1.65,1.55-4.09,3.16-11,4.51-17a14.88,14.88,0,0,0,6.89.46q-1.06-2.53-2.12-5.07a7.71,7.71,0,0,0,2.95,1.33,2.66,2.66,0,0,0,2.79-1.21C324.51,72.37,323.66,70.91,322.94,69.7Z" transform="translate(-15.13 -10.42)"/><path class="cls-12" d="M280,39.57a20.41,20.41,0,0,1,2.4,2.2,17.12,17.12,0,0,1,3.68,7.95,30.75,30.75,0,0,1,.61,6.08c0,2.21-.17,4.57-.34,7.06a63.18,63.18,0,0,0-.18,7.85,28.29,28.29,0,0,0,.54,4.14,8.58,8.58,0,0,0,1.69,4A3.61,3.61,0,0,0,291.78,80a5.41,5.41,0,0,0,3-1.72c1.54-1.8,1.93-4.08,2.31-6.09l-.5.06a20,20,0,0,0,2.91,5,7.13,7.13,0,0,0,4.66,2.53,4.6,4.6,0,0,0,2.47-.43,4,4,0,0,0,1.68-1.65,4.14,4.14,0,0,0,.5-2.12,3,3,0,0,0-.76-1.87l-.26.23A15.57,15.57,0,0,0,313,77.83a14.72,14.72,0,0,0,1.59.62,2.28,2.28,0,0,0,.57.14,3.4,3.4,0,0,0-.54-.23c-.36-.14-.88-.36-1.54-.69a15.9,15.9,0,0,1-5-3.92l-.25.23a3.06,3.06,0,0,1,.15,3.55A3.52,3.52,0,0,1,306.48,79a4.2,4.2,0,0,1-2.24.36A6.69,6.69,0,0,1,299.92,77,19.67,19.67,0,0,1,297.11,72l-.34-.77-.16.83c-.39,2-.79,4.2-2.2,5.82a4.88,4.88,0,0,1-2.72,1.54,3,3,0,0,1-2.87-1,8.09,8.09,0,0,1-1.56-3.76,26.94,26.94,0,0,1-.54-4,64.52,64.52,0,0,1,.15-7.79c.15-2.49.31-4.86.28-7.09a29.92,29.92,0,0,0-.69-6.17,16.91,16.91,0,0,0-3.9-8A9.52,9.52,0,0,0,280,39.57Z" transform="translate(-15.13 -10.42)"/><path class="cls-12" d="M205.92,62.87s.06.06.19.16l.6.44a8.38,8.38,0,0,0,1,.65,13.52,13.52,0,0,0,1.45.77,21.37,21.37,0,0,0,10.25,1.84,27.08,27.08,0,0,0,14.45-5.34A46.8,46.8,0,0,0,246.3,47.08c1.74-2.9,3.16-5.87,4.73-8.61a31.44,31.44,0,0,1,5.35-7.29,16.23,16.23,0,0,1,6.9-4.19,11.46,11.46,0,0,1,3.64-.42,12.69,12.69,0,0,1,3.33.64,13.8,13.8,0,0,1,7.69,6.51,16.88,16.88,0,0,1,1.24,3.59.94.94,0,0,0,0-.25c0-.2-.07-.44-.12-.73a11.67,11.67,0,0,0-.9-2.71A13.79,13.79,0,0,0,275.46,30a14.22,14.22,0,0,0-5.08-3.16,13,13,0,0,0-3.44-.69,11.81,11.81,0,0,0-3.79.4A16.75,16.75,0,0,0,256,30.8a32.15,32.15,0,0,0-5.47,7.39c-1.58,2.77-3,5.73-4.73,8.61A47.11,47.11,0,0,1,233.58,61a26.9,26.9,0,0,1-14.17,5.35,21.62,21.62,0,0,1-10.14-1.64A33.89,33.89,0,0,1,205.92,62.87Z" transform="translate(-15.13 -10.42)"/><path class="cls-3" d="M223.32,88.43c.48.48,3.24-1.74,7.25-1.85s7,1.86,7.43,1.34c.2-.23-.29-1.11-1.6-2a10,10,0,0,0-6-1.69,9.68,9.68,0,0,0-5.75,2.09C223.48,87.3,223.09,88.21,223.32,88.43Z" transform="translate(-15.13 -10.42)"/><path class="cls-3" d="M228.83,95.16a3.24,3.24,0,0,0,3.36,3A3.11,3.11,0,0,0,235.31,95,3.25,3.25,0,0,0,232,92,3.09,3.09,0,0,0,228.83,95.16Z" transform="translate(-15.13 -10.42)"/><path class="cls-3" d="M215.12,44.13c-2,2.72-5.11,5.21-8.47,4.89a24.9,24.9,0,0,1-3.59-1c-1.16.72-.83,4.74,0,5.83a20.92,20.92,0,0,0,2.55,2.57c-3.91,2.17-7.51,1.17-11.73-.31A20.61,20.61,0,0,0,206.3,72.46c2.13.86,4.7,1.31,6.62,0,1.68-1.12,2.35-3.23,2.84-5.19a90,90,0,0,0,2.66-22.05Z" transform="translate(-15.13 -10.42)"/><path class="cls-12" d="M234.88,178.73,246,172.84s11.73,17.38,29.14,15.68,28.48-17.14,28.48-17.14L314.78,177l-37.94,62.33Z" transform="translate(-15.13 -10.42)"/><path class="cls-6" d="M359.75,360.08l-12.85-87.9,9.43-82.54-43.85-15.33-35.87,58.56-41.05-56.73-24.3,10.66c-21.19,9.29-40.33,29.36-44.71,52.08l-.18.91c-5.62,30.42.6,73.8.6,73.8l41.58-18.4-3.36-14.67,8,33.49S179.2,437.79,184,478.36c0,0,64.11,14.3,123.15,4.58s75.06-12.41,75.06-12.41Z" transform="translate(-15.13 -10.42)"/><path class="cls-6" d="M356.33,189.64s25.51,22.1,28.32,53,8,58.32,8,58.32l-51.41,5.5s-1.2-21.13,0-22.4,9.64-64.66,9.64-64.66Z" transform="translate(-15.13 -10.42)"/><g class="cls-8"><path d="M202.38,357.41l-1.84,8.51L231.69,377c11.1,4,22.26,7.93,33.88,9.93,21.31,3.65,43.13.49,64.51-2.67,12-1.77,25.37-4.44,31.93-14.58A583.41,583.41,0,0,1,202.38,357.41Z" transform="translate(-15.13 -10.42)"/></g><path class="cls-12" d="M170.78,311.87c.41.42,14.27,40.6,22.3,47.78s54.62,4.65,74.3-2.53,61.47-15.91,61.47-15.91l-6.39-32.42s-15.29,1.52-35.4,4.8c-7.28,1.19-73.9.42-73.9.42l-4.61-18.82Z" transform="translate(-15.13 -10.42)"/><path class="cls-12" d="M389.94,301.21c-.12,0-1.27,53-6.9,59.71s-25.27,14.79-40.15,16.48S237.66,375,224.4,363.94l52.21-36.4,53.22,13.14,14.91-6.41,1.35-28.38Z" transform="translate(-15.13 -10.42)"/><path class="cls-3" d="M342.22,385.12a6.89,6.89,0,0,1-.71.89l-2.16,2.45c-.93,1.07-2.1,2.36-3.53,3.78s-3,3.12-4.86,4.82-3.88,3.65-6.18,5.56-4.75,3.94-7.4,6a167.17,167.17,0,0,1-37.79,21.73c-3.13,1.21-6.08,2.44-8.93,3.35-1.41.47-2.77,1-4.09,1.38l-3.83,1.12c-2.42.75-4.67,1.25-6.62,1.73s-3.66.85-5.06,1.1l-3.21.59a5.22,5.22,0,0,1-1.13.15,6.2,6.2,0,0,1,1.1-.31l3.18-.74c1.38-.3,3.07-.69,5-1.24s4.16-1.06,6.57-1.84l3.79-1.17c1.32-.43,2.66-.93,4.07-1.42,2.82-.93,5.75-2.17,8.86-3.4A187.37,187.37,0,0,0,298.79,420a185.12,185.12,0,0,0,18.13-12c2.65-2,5.18-4,7.42-5.92s4.35-3.76,6.22-5.46,3.48-3.33,4.94-4.72,2.65-2.64,3.62-3.68l2.26-2.34A6,6,0,0,1,342.22,385.12Z" transform="translate(-15.13 -10.42)"/><path class="cls-3" d="M325.11,178.73s-.05.15-.19.44-.38.72-.65,1.24l-2.58,4.73c-2.29,4.15-5.57,10.07-9.61,17.37-8.22,14.68-19.54,34.92-32.1,57.37l-.32.56-.37-.52c-.4-.53-.82-1.11-1.24-1.69L238.46,204l-11.92-16.5-3.2-4.5-.82-1.19a2.52,2.52,0,0,1-.26-.42s.13.12.33.37l.88,1.14,3.33,4.41,12.13,16.34,39.78,54.1,1.24,1.69-.69,0c12.64-22.4,24-42.59,32.32-57.24,4.13-7.25,7.49-13.13,9.84-17.24l2.7-4.66.73-1.21A2.23,2.23,0,0,1,325.11,178.73Z" transform="translate(-15.13 -10.42)"/><path class="cls-3" d="M294.47,310.31a4,4,0,0,1-.08-1c0-.74-.05-1.67-.08-2.82,0-2.56-.08-6.07-.13-10.37s-.06-9.61-.09-15.37q0-4.35,0-9.08c0-1.57,0-3.17,0-4.8V264.1a1,1,0,0,1,.19-.51,1.06,1.06,0,0,1,.85-.38l1.26-.07c13.39-.23,25.47,0,34.22.16l10.36.25,2.82.11a4.51,4.51,0,0,1,1,.1,4.43,4.43,0,0,1-1,.07l-2.82,0-10.37,0c-8.74,0-20.85-.16-34.18.08l-1.22.06c-.28,0-.2,0-.26.06a.09.09,0,0,0,0,.07v2.73c0,1.63,0,3.23,0,4.8,0,3.15,0,6.18,0,9.08,0,5.76-.06,11-.09,15.37s-.1,7.81-.13,10.37c0,1.15-.06,2.08-.08,2.82A4,4,0,0,1,294.47,310.31Z" transform="translate(-15.13 -10.42)"/><path class="cls-3" d="M346.09,305.89a1.61,1.61,0,0,1,0,.5c0,.38,0,.85,0,1.45,0,1.34-.1,3.2-.17,5.55-.2,4.88-.49,11.81-.83,20.29v.2l-.19.08c-6,2.36-13,5-20.7,7.75S308,347,299.1,349.37c-20.34,5.43-39.13,8.67-52.69,11l-16.09,2.68-4.38.7-1.14.16a2,2,0,0,1-.4,0,1.87,1.87,0,0,1,.38-.11l1.13-.24,4.35-.86,16.05-2.94c13.54-2.47,32.28-5.8,52.58-11.21,8.89-2.42,17.37-4.89,25-7.6s14.68-5.31,20.72-7.61l-.2.28c.47-8.48.84-15.4,1.11-20.28.15-2.35.26-4.2.35-5.54,0-.59.08-1.07.11-1.45A2.46,2.46,0,0,1,346.09,305.89Z" transform="translate(-15.13 -10.42)"/><path class="cls-4" d="M323.06,311.4a132.31,132.31,0,0,1,15.14-1.09,43.72,43.72,0,0,1,7.63,1.08l-1.09,22.88-16,6.41Z" transform="translate(-15.13 -10.42)"/><path class="cls-3" d="M192.34,227.59a17.7,17.7,0,0,1,.76,2.7c.45,1.89,1.05,4.41,1.78,7.45,1.51,6.41,3.53,15,5.77,24.58s4.38,18.28,5.95,24.54c.77,3,1.4,5.54,1.87,7.42a17.55,17.55,0,0,1,.6,2.75,19.65,19.65,0,0,1-.91-2.66c-.54-1.72-1.25-4.24-2.12-7.36-1.72-6.23-3.92-14.89-6.19-24.5s-4.2-18.32-5.54-24.64c-.62-3.07-1.14-5.6-1.52-7.51A19.67,19.67,0,0,1,192.34,227.59Z" transform="translate(-15.13 -10.42)"/><path class="cls-3" d="M345,275.42a9,9,0,0,1-2,.21c-1.28.09-3.13.18-5.42.26-4.58.17-10.92.3-17.91.29s-13.33-.16-17.91-.33c-2.29-.09-4.15-.19-5.43-.27a10,10,0,0,1-2-.22,9.25,9.25,0,0,1,2-.11h5.43l17.9.1,17.9-.05H343A9.31,9.31,0,0,1,345,275.42Z" transform="translate(-15.13 -10.42)"/><path class="cls-3" d="M252.19,314.23a6.26,6.26,0,0,1-1-1.33l-2.46-3.76c-2.08-3.16-5-7.5-8.44-12.15s-6.71-8.73-9.12-11.65l-2.85-3.47a6.36,6.36,0,0,1-1-1.33c.05,0,.48.36,1.22,1.12s1.8,1.88,3.07,3.3c2.53,2.83,5.89,6.87,9.33,11.54s6.31,9.08,8.27,12.33c1,1.63,1.74,3,2.24,3.9A6.08,6.08,0,0,1,252.19,314.23Z" transform="translate(-15.13 -10.42)"/><path class="cls-3" d="M261.29,314.66c-.17.12-2.29-2.62-3.92-6.54s-2.12-7.35-1.91-7.38,1.06,3.24,2.67,7.06S261.49,314.52,261.29,314.66Z" transform="translate(-15.13 -10.42)"/><path class="cls-3" d="M286.75,247a4.58,4.58,0,0,1-.58-.67l-1.56-2L279,236.78l-18.19-25-18-25.12L237.44,179,236,176.91a3.91,3.91,0,0,1-.45-.77,4.93,4.93,0,0,1,.59.67l1.55,2,5.59,7.51,18.2,25,18,25.11,5.38,7.67,1.43,2.11A3.12,3.12,0,0,1,286.75,247Z" transform="translate(-15.13 -10.42)"/><path class="cls-3" d="M308.53,174.31a3.13,3.13,0,0,1-.26.84,20.14,20.14,0,0,1-.95,2.31,30.23,30.23,0,0,1-5.14,7.64,36.22,36.22,0,0,1-11,8.08,41.15,41.15,0,0,1-16.23,4,36.76,36.76,0,0,1-16.37-3.29,38.19,38.19,0,0,1-11.27-7.7,35.07,35.07,0,0,1-5.68-7.25c-.58-.92-.89-1.71-1.16-2.21a3.37,3.37,0,0,1-.33-.81c.2-.15,2,4.5,7.58,9.85a38.28,38.28,0,0,0,11.17,7.42,36.52,36.52,0,0,0,16,3.17,41,41,0,0,0,15.93-3.83,36.4,36.4,0,0,0,10.9-7.79,32.38,32.38,0,0,0,5.29-7.38C308,175.4,308.45,174.28,308.53,174.31Z" transform="translate(-15.13 -10.42)"/><g class="cls-8"><path d="M224.4,363.94c42.26,3.52,86.75,4.46,121.71-30.55-36.77,15.08-82.39,24.69-121.71,30.55" transform="translate(-15.13 -10.42)"/></g><g class="cls-8"><path d="M346,311.33c-5.77-5.25-6.6-13.94-6.42-21.74.29-13.06,3.46-27.59,7.11-40.13-.76,22.28-2.41,41.87-.95,62" transform="translate(-15.13 -10.42)"/></g><path class="cls-3" d="M213.16,314c.06.12-.77.65-2,1.58a17.91,17.91,0,0,0-4.21,4.32,42.36,42.36,0,0,0-2.85,5.42,7.81,7.81,0,0,1-1.24,2.26,8,8,0,0,1,.7-2.49,27.05,27.05,0,0,1,2.71-5.65,15,15,0,0,1,4.56-4.34A6.87,6.87,0,0,1,213.16,314Z" transform="translate(-15.13 -10.42)"/><polygon class="cls-6" points="360.54 453.91 364.45 478.91 172.21 478.91 174.48 460.11 360.54 453.91"/><path class="cls-3" d="M381.23,470.24a2.56,2.56,0,0,1-.48.17l-1.46.41-5.6,1.52c-2.44.67-5.43,1.45-8.92,2.24s-7.46,1.79-11.89,2.64l-6.94,1.4c-2.42.48-4.95.87-7.56,1.33-5.22,1-10.85,1.72-16.75,2.57-11.84,1.51-24.91,2.76-38.67,3.39s-26.9.45-38.82,0c-6-.34-11.63-.6-16.91-1.11-2.64-.23-5.2-.4-7.65-.67l-7-.8c-4.49-.45-8.52-1.1-12.07-1.6s-6.59-1-9.08-1.45l-5.71-1-1.49-.29a2.38,2.38,0,0,1-.5-.12,2,2,0,0,1,.52,0l1.49.21,5.74.88c2.49.4,5.54.87,9.1,1.31s7.58,1.06,12.07,1.47l7,.75c2.45.25,5,.4,7.64.62,5.28.48,10.94.72,16.89,1,11.91.44,25,.53,38.76,0s26.78-1.86,38.6-3.33c5.9-.82,11.52-1.55,16.73-2.48,2.61-.45,5.14-.82,7.56-1.29l6.94-1.34c4.44-.81,8.4-1.77,11.9-2.52s6.5-1.48,8.95-2.1l5.64-1.37,1.47-.33Z" transform="translate(-15.13 -10.42)"/><path class="cls-3" d="M351.34,214.49a4.24,4.24,0,0,1-.08,1c-.1.73-.23,1.65-.39,2.79-.37,2.42-.87,5.91-1.44,10.24-1.17,8.66-2.5,20.65-3.31,33.95s-.9,25.37-.78,34.1c.06,4.37.13,7.9.21,10.34,0,1.15,0,2.09.05,2.82a4.94,4.94,0,0,1,0,1,3.75,3.75,0,0,1-.13-1c-.06-.73-.13-1.66-.21-2.81-.18-2.44-.34-6-.47-10.34-.27-8.74-.25-20.84.54-34.17s2.24-25.33,3.55-34c.65-4.32,1.24-7.81,1.7-10.21.23-1.13.41-2.05.55-2.77A4.28,4.28,0,0,1,351.34,214.49Z" transform="translate(-15.13 -10.42)"/></g></svg>