<svg id="_Layer_" data-name="&lt;Layer&gt;" xmlns="http://www.w3.org/2000/svg" viewBox="0 0 2313 1507.38"><defs><style>.cls-1{fill:#fbecdb;}.cls-2{fill:#e8945b;}.cls-3{fill:#163560;}.cls-4{fill:#2b478b;}.cls-5{fill:#233862;}.cls-6{fill:#ffb27d;}.cls-7{fill:#f99746;}.cls-8{fill:#ed7d2b;}.cls-9{fill:#2c3a64;}.cls-10{fill:#aa443e;}.cls-11{fill:#ed985f;}.cls-12{fill:#739af0;}.cls-13{fill:#4a82d3;}.cls-14{fill:#ebf2f9;}.cls-15{fill:#1f396d;}.cls-16{fill:#c65447;}.cls-17{fill:#b2443b;}.cls-18{fill:#35488b;}.cls-19{fill:#fff;}.cls-20{fill:#0f2949;}.cls-21{fill:#c8d9e8;}.cls-22{fill:#2e3552;}</style></defs><path class="cls-1" d="M326.89,1590.36S-121.32,1185.09,131.1,637.29C252.2,374.48,574.71,312.8,672.47,366.59c128.91,70.91,299.88-120.67,669.43-252.2,277.76-98.86,906.48,102.71,701.73,722.73-124.2,376.1,353.89,277.17,279.74,757.83Z" transform="translate(-54 -90.49)"/><path class="cls-2" d="M1120.07,397s50.55,23.91,62,20.9,55.12-10.72,61.25-8c0,0,7,11.09,1.7,18.38s-47.69,27-63,27.73-73.55-9.84-85.9-19.49Z" transform="translate(-54 -90.49)"/><path class="cls-2" d="M1241.82,410.07s19.49-8.09,25.87.95,10,18.2,9.21,22.83-14,6.67-19.22,3.07-18.3-8.63-18.3-8.63Z" transform="translate(-54 -90.49)"/><path class="cls-3" d="M1335,1544.69s-10.76,17.41-11,37.61a8.1,8.1,0,0,0,8.12,8.16h67.08a10,10,0,0,0,9.69-12.41c-3.13-12.28-9.81-30.84-23.21-42.11C1364.29,1518,1335,1544.69,1335,1544.69Z" transform="translate(-54 -90.49)"/><path class="cls-3" d="M1228.85,1526.87S1225,1589.07,1213,1590c-1.6.12-61,.12-61,.12h-76.66s1.29-18.72,23.46-22.58,59.3-19.45,72.73-48.76C1185.6,1487.9,1228.85,1526.87,1228.85,1526.87Z" transform="translate(-54 -90.49)"/><path class="cls-4" d="M1261,1142.65c-2.68,34.55-3,61.82.52,74.75,15.82,57.85-28.52,319-28.52,319-32.68,15.63-79.1-.17-79.1-.17,2.82-36.18-14.38-360.08-30.39-557.68-6.7-83-11.72-141-11.72-141l195.79-22.8S1270.23,1022.64,1261,1142.65Z" transform="translate(-54 -90.49)"/><path class="cls-5" d="M1307.54,814.81s-37.31,207.83-46.58,327.84L1123.47,978.6c-6.7-83-11.72-141-11.72-141Z" transform="translate(-54 -90.49)"/><path class="cls-4" d="M1211.49,859.13s99.11,577.1,116.17,688.85c0,0,37.1,10.36,75-5.7,0,0,4.91-268.17-8.07-349s6.91-330.51-14-353.74S1211.49,859.13,1211.49,859.13Z" transform="translate(-54 -90.49)"/><path class="cls-6" d="M1221.7,367s-7.6,51.29-4.27,66.6,54.28,23.65,75.6,11,14.9-17.35,14.9-17.35-3.25-58.72-6.25-62.91S1221.7,367,1221.7,367Z" transform="translate(-54 -90.49)"/><path class="cls-7" d="M1385.67,680c6.74-64.43,5-112.92-1.34-149.39C1365.72,423.55,1307.4,420,1307.4,420.68c0,14.4-31,27.7-56,26.06-21.07-1.38-34.74-17.39-34.74-26.06,0-.08-.39-.07-1.1,0-5.44.05-30.45.51-54.08,4.6-17.13,3-33.54,7.83-41.24,15.85-4,4.13-18.15,15.72-36.37,31.48C1037.5,512.72,965,579.87,968.17,619.88c0,0,89.66,65.84,146.48,24.57-3.1,107.15-22.54,220.63-17.78,220.55,0,0,31.67,27.43,127.9,27.43,52.61,0,90.65-4.51,117-9.73,36-7.09,50.28-15.47,50.28-15.47C1400.12,867.11,1383.34,702.24,1385.67,680Z" transform="translate(-54 -90.49)"/><path class="cls-8" d="M1392.1,867.23s-14.32,8.38-50.28,15.47c-49.72-22-148.4-78.93-152.25-174.49-5.12-127.13,150.08-202.82,150.08-202.82s20.82,11.57,44.68,25.22c6.35,36.47,8.08,85,1.34,149.39C1383.34,702.24,1400.12,867.11,1392.1,867.23Z" transform="translate(-54 -90.49)"/><path class="cls-2" d="M1220.9,372.8s19.76,27.85,40.66,28.11,42.23-27.68,42.23-27.68Z" transform="translate(-54 -90.49)"/><path class="cls-6" d="M1219,371.41c5.47,4.3,17.69,10.25,27.69,14.18a34.18,34.18,0,0,0,23.69.5c11.53-4,29-10.19,33.42-12.86,10.46-6.34,9.79-19.18,10.32-37,.65-21.13,2.78-37.73.42-49.91-2.81-14.57-12-22.86-37.91-25.12-47.49-4.12-67.27,7.77-68.1,23.69-.21,4.28-.41,8.36-.55,12.22C1206.07,346.73,1210,364.33,1219,371.41Z" transform="translate(-54 -90.49)"/><path class="cls-9" d="M1208.23,290.73a20,20,0,0,1,22.39-7c14.62,4.5,16.12,17,41.09,15s31-13.82,35.47-7.91,7.1,40.83,7.1,40.83,50.21-114.51-51.57-114.51c0,0-104.89-6.33-54.48,110.06Z" transform="translate(-54 -90.49)"/><path class="cls-6" d="M1023.29,399.18l.14.08A.1.1,0,0,1,1023.29,399.18Z" transform="translate(-54 -90.49)"/><path class="cls-2" d="M1257.56,751.33a57.27,57.27,0,0,1-32.8,10.49s-19.88-21.89-36.62-43.08c-10.84-13.71-20.36-27.13-22.33-34.1-5-17.73-98.48-22.72-109.93-35.21s46.45-43.82,46.45-43.82,94.9,14.51,109.17,33.16c5.67,7.42,14.12,26.76,22.25,47.36C1246,717.3,1257.56,751.33,1257.56,751.33Z" transform="translate(-54 -90.49)"/><path class="cls-8" d="M1124.72,491.16s18-34.92,26.88-33.91-20.43,72.29-23.09,106.92S1124.72,491.16,1124.72,491.16Z" transform="translate(-54 -90.49)"/><path class="cls-6" d="M1181,731.56a526.41,526.41,0,0,1-30.72,61.24l-.22.37h-.29c-3,0-29.08-.6-31.63-11.06,0,0-.84-36.21.6-65,.65-12.86,1.75-24.22,3.58-30.22,0,0-141.32-.95-138.83-40.92s76.36-61.12,118.83-40.39c0,0,56.32,20.46,86,47.49C1202.85,666.38,1193.89,700.39,1181,731.56Z" transform="translate(-54 -90.49)"/><path class="cls-4" d="M987.7,590s-18.81,27.65-14.4,53.45S1031.39,683,1069,684.64c0,0,107.45-24.63,90.79-67.46C1156,607.47,987.7,590,987.7,590Z" transform="translate(-54 -90.49)"/><path class="cls-10" d="M1026.72,250.1s-17.06-34.93-58.28-13.57-1.09,101.83-22.73,121.94,7.84,33.28,3.45,47.7,8.15,30.83,37,28.9,59.22-.38,72.25-25.61,10.07-80.76,5-88.57S1026.72,250.1,1026.72,250.1Z" transform="translate(-54 -90.49)"/><path class="cls-6" d="M1093.52,441.55l-70.09-42.29c.39-.16,1.8-2.28,7-17.44a83.86,83.86,0,0,0,4-16.51c.06-.45.12-.88.16-1.3a45.56,45.56,0,0,0,.19-10.19l15.35,5.55,28.4,10.28c-.33,7.21.68,12.27,2.22,15.75,3.7,8.44,10.61,8.5,10.81,8.5Z" transform="translate(-54 -90.49)"/><path class="cls-11" d="M1080.79,385.4a52.68,52.68,0,0,1-46.32-20.09c-.5-.66-.76-1-.76-1l.92-.27c2.23-.66,8.29-2.49,15.54-4.64l28.4,10.28C1078.24,376.86,1079.25,381.92,1080.79,385.4Z" transform="translate(-54 -90.49)"/><path class="cls-6" d="M1082.16,375.54s-61,6.7-62.22-34.53-10.27-60.1,31.92-63.77,52.16,11.52,54.64,25.47C1114.27,346.28,1099.34,373.69,1082.16,375.54Z" transform="translate(-54 -90.49)"/><path class="cls-10" d="M1055.14,297.38c-21.58-5.47-13.33,32.76-18.78,30.14-6.1-2.93-16.58-2.88-14.93,4.48s4.05,10,5.29,14.6,0,13.71-5,11.87S970,303.35,1003,261.85s131.19-15.93,100.26,27.48C1097.77,297,1070.5,301.27,1055.14,297.38Z" transform="translate(-54 -90.49)"/><path class="cls-12" d="M1133.45,605.58s-18.32,9.72-47.17,9.26c-18.38-.27-57.4-8.26-82.49-17.32-14.3-5.14-24.08-10.65-22.9-15.27,1.69-6.65,13.94-57.76,25.26-105,10.34-43.25,19.91-83.3,19.91-83.3s28.56,20.29,45.2,13.13,14.51-15.25,14.51-15.25,19.61-2.41,24.92-1.78c8.5,1,38.48,11.93,38.48,11.93s3.95,11.08-6.51,28.36c-8.65,14.32-17.08,17.1-17.08,17.1S1150.09,524.65,1133.45,605.58Z" transform="translate(-54 -90.49)"/><path class="cls-6" d="M1041.69,536.6s17.61-3.29,24.5,1.22,8.93,11.56,4,14.44c-15.55,9-31.3-1-31.3-1Z" transform="translate(-54 -90.49)"/><path class="cls-13" d="M1003.79,597.52c-14.3-5.14-24.08-10.65-22.9-15.27,1.69-6.65,13.94-57.76,25.26-105,3.34-6.13,5.46-9.8,5.46-9.8S1033.08,565.57,1003.79,597.52Z" transform="translate(-54 -90.49)"/><path class="cls-6" d="M1026.77,399.41s-54.24,11.49-75.63,95.81a25.56,25.56,0,0,0,5.77,23.38c9.84,10.9,31.52,26.84,81.95,32.71,5.5.64,6.24-13.33,6.24-13.33-.55,1.12-34.25-21.77-48.6-34.08-2.59-2.22-2.48-6.89-.61-9.75,4.85-7.4,13-20.19,15.71-26.75C1015.59,457.82,1041.93,403.76,1026.77,399.41Z" transform="translate(-54 -90.49)"/><path class="cls-12" d="M1026.07,393.9s-31.89,2.27-57.9,36.94c0,0,8.8,31.89,50.11,40.41C1018.28,471.25,1043.74,413.82,1026.07,393.9Z" transform="translate(-54 -90.49)"/><path class="cls-14" d="M1181,731.56a526.41,526.41,0,0,1-30.72,61.24l-.51.37c-3,0-29.08-.6-31.63-11.06,0,0-.84-36.21.6-65C1122.9,721.11,1138.9,733,1181,731.56Z" transform="translate(-54 -90.49)"/><path class="cls-14" d="M1257.56,751.33a57.27,57.27,0,0,1-32.8,10.49s-19.88-21.89-36.62-43.08c18.84-8.14,38.74-26.09,45.61-32.61C1246,717.3,1257.56,751.33,1257.56,751.33Z" transform="translate(-54 -90.49)"/><path class="cls-10" d="M1190.29,832.25a6,6,0,0,1-7.12,4.75c-7.81-1.59-21.93-4.61-27.78-6.74-8.31-3-24.24-12.43-32.54-15.45-2.86-1-9.72-3.81-14.15-5.61a5,5,0,0,1-2.9-6,105.51,105.51,0,0,1,8.38-20.9,7.63,7.63,0,0,1,3.47-3.07,32.23,32.23,0,0,0,20.18,7.3,44.2,44.2,0,0,0,18.21-3.84c.57,1.16,11.9,24,19.91,26.92C1183.17,812.25,1192.62,819.14,1190.29,832.25Z" transform="translate(-54 -90.49)"/><path class="cls-10" d="M1308.84,751.61a6,6,0,0,1-2.65,8.14c-7.11,3.58-20.07,10-26,11.91-8.39,2.77-26.73,5.25-35.12,8-2.88,1-10,3-14.59,4.36a5,5,0,0,1-6-2.9,104.86,104.86,0,0,1-6.36-21.6A7.59,7.59,0,0,1,1219,755a32.16,32.16,0,0,0,20.36-6.77,44.11,44.11,0,0,0,11.92-14.29c1.16.56,24.2,11.48,32.31,8.8C1290.87,740.31,1302.56,739.87,1308.84,751.61Z" transform="translate(-54 -90.49)"/><path class="cls-7" d="M1194.5,705.93s-4.06,23.56-19.39,34.41c0,0-62.23-8.56-120.17-23.21-42.59-10.78-82.87-24.83-94.39-41.21-27.22-38.62,14.23-85.64,14.23-85.64s79.9,38.56,166.4,85.79C1158.9,685.74,1176.87,695.79,1194.5,705.93Z" transform="translate(-54 -90.49)"/><path class="cls-6" d="M1100.87,740.34s-18.48,1.5-25.48,8.5-17.59,27.33-10,35.39,43.51-9.61,44.51-12.51S1100.87,740.34,1100.87,740.34Z" transform="translate(-54 -90.49)"/><path class="cls-8" d="M1194.5,705.93s-4.06,23.56-19.39,34.41c0,0-62.23-8.56-120.17-23.21,27.24-23.68,62.82-35.47,86.24-41.06C1158.9,685.74,1176.87,695.79,1194.5,705.93Z" transform="translate(-54 -90.49)"/><path class="cls-7" d="M1405.65,451.73c-12.44-29.55-94.26-30.68-94.26-30.68-41.63,109.24-51.64,180.88-62.64,226.92a23.62,23.62,0,0,0-5,0s-58.48,22.82-145.4,85.94c0,0-9.09,24.93,7.23,45.33,0,0,149.77-33.06,191.61-57.58l.06,0,1.25-.81c.64-.39,1.24-.78,1.82-1.17C1436.38,631.32,1423.44,494,1405.65,451.73Z" transform="translate(-54 -90.49)"/><path class="cls-6" d="M1057.56,975.86s42,14.51,36.08,62.88c0,0-3.87,19.63-16,10.92s-6.42-7.1-23.69-19-28.53-30.67-26.57-45.59Z" transform="translate(-54 -90.49)"/><path class="cls-12" d="M1059.48,979l-24.87,30.18a5,5,0,0,1-4.78,1.72c-23.32-4.28-103.56-56-129.85-77.11a80.48,80.48,0,0,1-6.5-5.68c-9.8-10-43.59-59.26-67.58-103.14-13.81-25.27-24.37-48.75-25.2-61.91-3-47,21.71-112.66,21.71-112.66,73.1,25.44,80.78,83.8,80.78,83.8L943.72,885l114.77,85.78A5.71,5.71,0,0,1,1059.48,979Z" transform="translate(-54 -90.49)"/><path class="cls-13" d="M900,933.76a80.48,80.48,0,0,1-6.5-5.68c-9.8-10-43.59-59.26-67.58-103.14-3.11-26.51-1-51.39,10-68.78C835.85,756.16,898,865.49,900,933.76Z" transform="translate(-54 -90.49)"/><path class="cls-6" d="M857.87,1368.25l-12.42,51.81-7.69,32.07-25.6,106.76s-21.91,6.75-44.69,0a389.75,389.75,0,0,1-8.67-79.39c-.14-23,2-48.49,8.71-72.51a167.53,167.53,0,0,1,10.67-28.35C814.3,1304.87,857.87,1368.25,857.87,1368.25Z" transform="translate(-54 -90.49)"/><path class="cls-4" d="M879.09,1590.08H758.79s-1.91-18.2,3.39-35.62a62.55,62.55,0,0,1,2.86-7.65s26.86,6.09,50,0c0,0,21.77,18.55,34.94,24.23S877.7,1573.64,879.09,1590.08Z" transform="translate(-54 -90.49)"/><path class="cls-2" d="M845.45,1420.06l-7.69,32.07a185.33,185.33,0,0,1-79,27.37c-.14-23,2-48.49,8.71-72.51,11.07-5.61,22.33-8.55,31.92-6.88C823.31,1404.28,837.5,1413,845.45,1420.06Z" transform="translate(-54 -90.49)"/><path class="cls-15" d="M816.6,1590.08H758.79s-1.91-18.2,3.39-35.62C776.7,1559,806.24,1570.32,816.6,1590.08Z" transform="translate(-54 -90.49)"/><path class="cls-6" d="M762,1368.25l-12.43,51.81-7.69,32.07-25.6,106.76s-21.91,6.75-44.68,0a389.3,389.3,0,0,1-8.68-79.39c-.14-23,2-48.49,8.72-72.51a165.84,165.84,0,0,1,10.67-28.35C718.4,1304.87,762,1368.25,762,1368.25Z" transform="translate(-54 -90.49)"/><path class="cls-4" d="M669.14,1546.81s26.86,6.1,50,0c0,0,21.78,18.55,34.94,24.24s27.7,2.59,29.09,19H662.89S660.38,1566.07,669.14,1546.81Z" transform="translate(-54 -90.49)"/><path class="cls-2" d="M749.55,1420.06l-7.69,32.07a185.33,185.33,0,0,1-79,27.37c-.14-23,2-48.49,8.72-72.51,11.06-5.61,22.32-8.55,31.91-6.88C727.41,1404.28,741.6,1413,749.55,1420.06Z" transform="translate(-54 -90.49)"/><path class="cls-16" d="M883,1416.63a24.5,24.5,0,0,1-23.66,18.11H666.41a24.91,24.91,0,0,1-24.85-26.82c2-26.28,9.26-69.19,12.42-98.17,1.3-12,1.91-21.67,1.15-26.7-19.47-128.83-35.81-280.58-33.83-309.59.28-4.08.48-6.19.48-6.19s14.05-1.18,35.42-2c62.12-2.45,186.12-2,206.72,38.6,21,41.38,33.66,316.15,33.66,316.15C900.65,1345.67,889.81,1391.33,883,1416.63Z" transform="translate(-54 -90.49)"/><path class="cls-17" d="M654,1309.75c1.3-12,1.91-21.67,1.15-26.7-19.47-128.83-35.81-280.58-33.83-309.59.28-4.08.48-6.19.48-6.19s14.05-1.18,35.42-2c32.13,18.93,53,51.18,53,51.18S703.77,1257.53,654,1309.75Z" transform="translate(-54 -90.49)"/><path class="cls-17" d="M773.75,436.6c-15.41-3.85-24.36,8.29-24.36,22.58a25.89,25.89,0,0,0,25.89,25.89c14.3,0,25.89-16.56,25.89-30.86S787.62,440.07,773.75,436.6Z" transform="translate(-54 -90.49)"/><path class="cls-16" d="M765.8,584.84s-80.28-72.29-7.61-123.47c0,0,21.69-5.78,32.71-3.72,0,0,39.5-11.56,62.62,15.27s33.16,46.23,13.34,70.17S765.8,584.84,765.8,584.84Z" transform="translate(-54 -90.49)"/><path class="cls-6" d="M673.69,1021.48s19.81,39.76-18.28,70.15c0,0-16.52,11.3-19-3.38s.39-9.57-3.6-30.16,1.12-41.88,13-51.14Z" transform="translate(-54 -90.49)"/><path class="cls-6" d="M831.56,584.17s-1,10.83-2.83,25.46c-.89,7.14-2,15.21-3.27,23.35-.92,5.85-1.94,11.75-3.05,17.4l-24.85,83.93L739.2,639.87s13.72-11.34,32.3-72.84c.18-.65.31-1,.31-1Z" transform="translate(-54 -90.49)"/><path class="cls-12" d="M865.56,998.27c.76,9.44-1.63,11.15-1.63,11.15s-35.89,13-126.13,8.51q-14.65-.73-27.55-1.5c-58.17-3.43-89.27-7-89.27-7S573.34,899.47,662.84,764a434.31,434.31,0,0,1,35.88-46.81c14.5-16.53,17.7-38.65,23.18-59.67,1.57-6-3-7.35-.7-13,0,0,16.32-4.61,18-4.61,9.27,8.17,21.5,24,51.85,27.18,20.52,2.14,28.55-9.42,31.47-16.35,7.82,2.82,15.92,7.71,22.56,10.9,55,26.4,60,77.6,60,77.6s-50.53,166.17-53.67,186.92C850.05,935.34,861.64,949.69,865.56,998.27Z" transform="translate(-54 -90.49)"/><path class="cls-2" d="M828.73,609.63c-.89,7.14-3.92,26.71-5.21,34.85-61.79-24.09-53.7-71-52-77.45.18-.65.31-1,.31-1S804.5,589.23,828.73,609.63Z" transform="translate(-54 -90.49)"/><path class="cls-6" d="M842,617.93s-71.38,2.29-72.12-42.18-10.46-74.12,35.08-77.47,54.68,13.48,58.54,28.26S860.52,616.19,842,617.93Z" transform="translate(-54 -90.49)"/><path class="cls-16" d="M848.21,491.62s-4.48,74.25-91.49,66.28C756.72,557.9,758.57,455.08,848.21,491.62Z" transform="translate(-54 -90.49)"/><path class="cls-16" d="M831.56,499s24.38,30.18,35.44,39.81C867,538.81,894.12,499.89,831.56,499Z" transform="translate(-54 -90.49)"/><path class="cls-16" d="M831.56,499s21.9,37,33,46.62c0,0,29.6-45.73-33-46.62Z" transform="translate(-54 -90.49)"/><path class="cls-13" d="M710.25,1016.43c-58.17-3.43-89.27-7-89.27-7S573.34,899.47,662.84,764C681,806.23,723.69,919.1,710.25,1016.43Z" transform="translate(-54 -90.49)"/><path class="cls-12" d="M739.2,639.87S670.15,654,639.39,689.66C615.82,717,590,850.41,590,872.46c0,21.07,24.23,133.1,39.34,154.58a5,5,0,0,0,4.62,2.13l38.89-4.13a5.71,5.71,0,0,0,5-6.55L656.07,876.87l76.7-136S778,687.25,739.2,639.87Z" transform="translate(-54 -90.49)"/><path class="cls-9" d="M1035.43,1551.74s5.85,11.41,18.81,14.24c8.16,1.78,15.15,6,19.5,12a7.61,7.61,0,0,1-6.11,12.12h-65.79a9.46,9.46,0,0,1-9.41-10.41c.49-4.87,1-10.55,1.22-14.9.49-9.5,10-17.15,10-17.15Z" transform="translate(-54 -90.49)"/><path class="cls-18" d="M1050.33,1385.83c2.74,50-4.08,163.72-4.08,163.72s-4.59,12.68-33.55,15.71a86.7,86.7,0,0,1-29.48-2.41q-8.78-40.36-16.23-77.06c-35.76-175.43-49.7-283.79-49.7-283.79l141.15-32.81s-6.19,99-8,166.58C1049.87,1356.85,1049.73,1374.86,1050.33,1385.83Z" transform="translate(-54 -90.49)"/><path class="cls-9" d="M1058.44,1169.19s-6.19,99-8,166.58l-83.44,150c-35.76-175.43-49.7-283.79-49.7-283.79Z" transform="translate(-54 -90.49)"/><path class="cls-18" d="M916.53,942.36s-54.62-24.86-95.95-3.11-16.05,201.26,43,218.66h0S974.32,1193.31,916.53,942.36Z" transform="translate(-54 -90.49)"/><path class="cls-2" d="M1074.52,1211a7.15,7.15,0,0,0-.53-.7,90.82,90.82,0,0,1-5.12-10.76h0c11-53.78,3.59-84.88,3.59-84.88,1.31-15.66,10.66-125.06-10.87-175.74-10.39-24.45-27.79-24.49-27.79-24.49s4.08,39.06,1.39,60.06c-2.47,19.28,15.91,199.93,18.94,229.46-.05,0-.09,0-.1,0l.87,30,8.81-2.08a6.83,6.83,0,0,0,1.1-.39h0a6.33,6.33,0,0,0,2.69-2.35l7.11-11.28a6.33,6.33,0,0,0-.09-6.88Zm-16.76-4.87.37-.22-.18.24S1057.85,1206.2,1057.76,1206.17Z" transform="translate(-54 -90.49)"/><path class="cls-9" d="M920.9,1551.74s5.85,11.41,18.82,14.24c8.16,1.78,15.15,6,19.5,12a7.61,7.61,0,0,1-6.11,12.12H887.32a9.46,9.46,0,0,1-9.41-10.41c.49-4.87,1-10.55,1.22-14.9.49-9.5,10-17.15,10-17.15Z" transform="translate(-54 -90.49)"/><path class="cls-18" d="M966.67,714c-14.07,0-31.74,6.06-41.23,15.27-10.07,9.79-20.55,10.29-28,21.85-7.78,12-12.6,24.56-8.69,41.51,4.27,18.51,3.4,36.42,15,50,5.76,6.72,15.13,7.49,21.67,13.67,12,11.35,25.66,14.94,41.23,14.94,29.35,0,47.62-17.39,62.64-39.05,12-17.36,9.65-29.06,12.48-43.91C1050.67,741.53,1011.69,714,966.67,714Z" transform="translate(-54 -90.49)"/><path class="cls-6" d="M1008,902.37,951.89,931l-11.25-38.92s7.15-13.47,10.38-35.54a147.82,147.82,0,0,0,1.17-32L997.9,848a86.71,86.71,0,0,0-1.82,10.47c-.78,6.74-1.13,15.82.79,24.46C998.52,890.29,1001.84,897.36,1008,902.37Z" transform="translate(-54 -90.49)"/><path class="cls-18" d="M878,1184.42s-10.67,141.39-8.29,366.73a86.66,86.66,0,0,0,28.39,8.31c29,2.88,36-8.6,36-8.6s29.64-110,37.05-159.53c6.83-45.69,51.68-210.54,51.68-210.54Z" transform="translate(-54 -90.49)"/><path class="cls-7" d="M1045.08,906.29c-5-2.34-20.68-8.67-44.22-12.54.25,8.06-1.86,15.65-16,17.51-18.83,2.45-35.67-10.4-44.2-19.14h0s-13.28,1.43-28.76,4.81a181.62,181.62,0,0,0-23.5,6.66c-9,3.33-16.86,7.48-21,12.59h0C852.85,934,829,987.52,829,987.52s39.68,14.71,49.69,23.3l.23,1.91,6.21,51.57L866.65,1167a16.37,16.37,0,0,0-.24,2.68A15.14,15.14,0,0,0,878,1184.42s1.59.26,4.52.67c19.61,2.75,99.21,12.25,161.63-4.7a30.29,30.29,0,0,0,22.11-31.72L1056.09,1021c5.43-.93,11.69-1.92,16.79-2.49,4.24-.46,7.64-.62,9-.19C1081.93,1018.31,1074.88,918.6,1045.08,906.29Z" transform="translate(-54 -90.49)"/><path class="cls-8" d="M927.31,1095.78c-.79,35.84-24.28,78-44.79,89.31-2.93-.41-4.52-.67-4.52-.67a15.14,15.14,0,0,1-11.59-14.71,16.37,16.37,0,0,1,.24-2.68l18.5-102.73-6.21-51.57.46-1.38S928.7,1032.46,927.31,1095.78Z" transform="translate(-54 -90.49)"/><path class="cls-8" d="M1072.88,1018.5c-5.22.58-16.82,2.49-16.82,2.49l-5.88-53.48S1069.81,1005.21,1072.88,1018.5Z" transform="translate(-54 -90.49)"/><path class="cls-18" d="M870,1148.68l4.8-26.68c81.36-117.71,87.52-138.82,50.93-191.67-10.48-15.14-29.54-24.6-37.31-26.74a181.62,181.62,0,0,1,23.5-6.66c7.73,3.63,14.83,7.2,20.33,12C1043.88,1005.57,870,1148.68,870,1148.68Z" transform="translate(-54 -90.49)"/><path class="cls-6" d="M965,997.62c-31.85,2.2-36.26,34.84-36.26,34.84s-53.46,4.85-61.36,8.36c0,0,4.34-11.73,12-29.47-7-6.85-29.87-17-45-21.73-11.57,29.51-16,58.73-9.53,86.89a6.82,6.82,0,0,0,6.35,5.25c17,.79,73.24.51,114.4-33.57l.72-.2c9.86-.59,19.11-10.37,22.66-23.24s3.84-8.93,6.56-18S965,997.62,965,997.62Z" transform="translate(-54 -90.49)"/><path class="cls-2" d="M996.87,882.88c-26-.7-45.85-26.3-45.85-26.3l45.06,1.84C995.3,865.16,995,874.24,996.87,882.88Z" transform="translate(-54 -90.49)"/><path class="cls-6" d="M999.34,867.18s-57.43,7-58.65-33.47S963.4,767,979.38,767.34c31.86.59,37.12,13.47,40.81,26.88S1025.79,864.32,999.34,867.18Z" transform="translate(-54 -90.49)"/><path class="cls-19" d="M984,843.85s1.25,5,13.83,4.12c0,0,10.56-.78,10.17-6.33C1008,841.64,997.69,837.8,984,843.85Z" transform="translate(-54 -90.49)"/><path class="cls-18" d="M993.59,767.71s-49.08,0-37.8,33.67c7.11,21.24-16.53,24.54-16.53,24.54l-11.37-34L935,765.36Z" transform="translate(-54 -90.49)"/><path class="cls-6" d="M1660.51,746.38c-12.23-20.32-19.83-111-28.65-135.27-5.58-15.35-20.52-33.69-18.94-34.83C1597,566.91,1554,562.4,1554,562.4s0,.06,0,.09c-1.67-.35-3.34-.7-5-1-5.15-1-10-4.05-10.6-9.27,0-.26,0-.53-.08-.79a163.82,163.82,0,0,1-.72-18.68,1,1,0,0,1,0-.24c.14-9.3.85-16.21.85-16.21l-.17,0-55.75-9c-.76,17.4-1.77,30.36-2.84,40a15.27,15.27,0,0,1-14.24,13.6l-3.36.21h0s-35.94-1.4-49.69,2.8a22.86,22.86,0,0,0-3.49,1.45c.83.87-132.35,134.35-128.91,149.81s61.87,103.25,83.06,119.43h21.21s-47-107.21-47.62-115.9c-.89-12.72,118.2-83.93,118.2-96.91,0-4.72,33.2-6.15,54.92-6,23,.18,66.29-11.83,66.29-11.83s18.72,141.85,42.38,183.92c18.65,33.18,101.06,118.19,101.06,118.19l17.38-15.42S1690.13,795.57,1660.51,746.38Z" transform="translate(-54 -90.49)"/><path class="cls-16" d="M1491.77,1292.31c10.07,99.08-2.12,228.82-2.12,228.82h-34.14c-51.55-135.59-53.1-220.65-56-252.59-1.6-17.41-25.1-87-46.19-153.88-17.62-55.87-33.55-109.89-33.66-130.13-.23-46.39,46-120.79,46-120.79S1432,889.36,1473,914.66c13.68,8.46,24.15,16.72,27.73,23.72,9.5,18.63,16.54,151.63-8.74,232.88-15.22,48.91-7.43,74-7.43,74A412.28,412.28,0,0,1,1491.77,1292.31Z" transform="translate(-54 -90.49)"/><path class="cls-17" d="M1492,1171.26c-15.22,48.91-7.43,74-7.43,74a412.28,412.28,0,0,1,7.21,47l-138.49-177.65c-17.62-55.87-33.55-109.89-33.66-130.13-.23-46.39,46-120.79,46-120.79S1432,889.36,1473,914.66c13.68,8.46,24.15,16.72,27.73,23.72C1510.23,957,1517.27,1090,1492,1171.26Z" transform="translate(-54 -90.49)"/><path class="cls-4" d="M1455.51,1521.13s-1.94,22.27-4.8,26.85-14.89,20-28.63,25.2S1369,1575.66,1366,1590h138.58s1.91-21.42-3.44-35.51-11.45-33.31-11.45-33.31Z" transform="translate(-54 -90.49)"/><path class="cls-4" d="M1687.18,1516.11s15.5,21.18,19.32,29.58,29,44,26,44.26-70.25,0-70.25,0-6.87-16.77-6.11-28.23-9.16-33.19-7.25-45.61S1687.18,1516.11,1687.18,1516.11Z" transform="translate(-54 -90.49)"/><path class="cls-16" d="M1687.18,1516.11h-38.33s-149.48-216.09-154.62-271c-6.42-68.7-54.43-339.9-54.43-339.9l153.33-47.74s13.4,34.46,24.63,69.21c4.9,15.15,9.37,30.36,12.16,42.79,6.14,27.43-11.15,131.08-22.94,204.77-5.83,36.3-10.32,65.33-10,74.4C1597.85,1276.1,1648.24,1279.66,1687.18,1516.11Z" transform="translate(-54 -90.49)"/><path class="cls-4" d="M1481.83,522.34c-.09,1.39-.17,2.74-.27,4C1481.65,525.08,1481.74,523.73,1481.83,522.34Z" transform="translate(-54 -90.49)"/><path class="cls-4" d="M1482.15,516.62c-.07,1.48-.16,2.92-.24,4.33C1482,519.54,1482.07,518.1,1482.15,516.62Z" transform="translate(-54 -90.49)"/><path class="cls-4" d="M1482.61,507.3q-.08,1.63-.15,3.21c0-1.05.09-2.12.14-3.21Z" transform="translate(-54 -90.49)"/><path class="cls-4" d="M1614.53,893.56c5,15-67.15,23.8-147.22,22.74-22.62-.3-43.65-3-61-7.54-36.65-9.48-56.81-26.73-40.72-45,4.58-5.21,55.33-77.83,55.33-77.83,3-6.5-.26-27.82-15.75-78.45-6.35-20.71,1.92-33.59,4.88-41.81h0c1-2.86,1.41-5.15.32-7-6.93-12-16.94-23.53-26-32.74a256.71,256.71,0,0,0-21.75-19.81s29.72-32.39,46.33-40.72c17.12,17.94,54.24,50.09,100.86,50.46,40.22.3,79.3-22.36,103.09-39.55a16.67,16.67,0,0,1,4.24,3.34c14.86,17.44,19.1,48.91,19.1,48.91s-47.84,26.4-47,35c2.37,23.69,4.61,30.62,3.57,39.07v.08a57.24,57.24,0,0,1-2.47,10.3c-8.16,25.63-25.82,65.21-21.41,78.54C1570.11,795,1607.37,872,1614.53,893.56Z" transform="translate(-54 -90.49)"/><path class="cls-6" d="M1412.48,563.91c.77-.23,1.61-.46,2.51-.65-.9.2-1.75.43-2.52.66Z" transform="translate(-54 -90.49)"/><path class="cls-6" d="M1541,557.47a13.22,13.22,0,0,0,4.29,2.84A13.17,13.17,0,0,1,1541,557.47Z" transform="translate(-54 -90.49)"/><path class="cls-6" d="M1545.32,560.31a18.26,18.26,0,0,0,1.84.67A16.1,16.1,0,0,1,1545.32,560.31Z" transform="translate(-54 -90.49)"/><path class="cls-6" d="M1736.94,890.68s29.3,7.59,33.31,11.68,15.49,35.87,11.46,36.16c-21,1.53-32.07-9.73-32.07-9.73-12.7-14-31.66-16.2-30.72-26.43S1736.94,890.68,1736.94,890.68Z" transform="translate(-54 -90.49)"/><path class="cls-6" d="M1363.12,834.61s-21.22,26.79-21.22,31.66,4.3,25.2,9.45,25.48,6.88-16.6,10.88-19.75,18.33-9.07,20.33-14.56,1.77-22.83,1.77-22.83Z" transform="translate(-54 -90.49)"/><path class="cls-2" d="M1480,545.6c26.33-3.39,58.39-29.34,58.39-29.34-18.71-10.15-34.95-11.13-47.55-7.65a47.43,47.43,0,0,0-8.41,3.19Z" transform="translate(-54 -90.49)"/><path class="cls-6" d="M1470.41,520.07s65.14,21.74,78-19,30-65.43-11-81-54.09-2.62-61.71,9.94S1453.8,513.37,1470.41,520.07Z" transform="translate(-54 -90.49)"/><path class="cls-19" d="M1493.78,502.13s-2.4,4.73-14.7.92c0,0-10.32-3.2-8.66-8.64C1470.42,494.41,1481.54,493,1493.78,502.13Z" transform="translate(-54 -90.49)"/><path class="cls-16" d="M1645.19,424.35c-7.29-9.38,16.66-28.71-32-51.94-36.91-17.63-48.35,9.07-51.72,23-21.94-12.53-57.76-48.61-80.61-25.1-27.35,28.14,2.32,52.91,2.32,52.91,10.37,7.55,15.41,5.46,30.58,8.8s5.47,20.88,6.66,26.79S1532,476.7,1546,470.65s12.41,17.07-.92,21.82c-3.8,1.35-7.75,22.6-2.24,23.49,4.63.76,21.35.91,23-12.73,1-8.09,11.3-12.32,22.21-20.68,7.54,7.18,18.16,10.84,24,10,8.61-1.24,8.71-8.15,27.17-20.47S1652.49,433.72,1645.19,424.35Z" transform="translate(-54 -90.49)"/><path class="cls-5" d="M1406.33,908.76c-36.65-9.48-56.82-26.73-40.72-45,4.57-5.19,55.33-77.83,55.33-77.83S1434.54,867.93,1406.33,908.76Z" transform="translate(-54 -90.49)"/><path class="cls-5" d="M1643.92,1590l-5.48-587.65s-4.74-42.32-41.66-42.32c-39.4,0-41.66,42.32-41.66,42.32a4.48,4.48,0,0,0,4.61,3.66,4.77,4.77,0,0,0,4.93-3.66s1.74-32.63,32.12-32.63c28.46,0,32.12,32.63,32.12,32.63V1590Z" transform="translate(-54 -90.49)"/><path class="cls-5" d="M1623.83,1590h24.51l-2.19-25.62s.21-3.56-4.74-3.76c-4.6-.19-13.68-.84-14.55,1.94C1626.1,1565,1623.83,1590,1623.83,1590Z" transform="translate(-54 -90.49)"/><path class="cls-6" d="M1596.48,928.91l-1.68,8.4s-41.55-.16-51.26,44.37c0,0-2.63,18.52,10.72,14.57s11.28-13.41,30.2-18.59,31.23-9.15,34.1-22.92l3.1-15.32Z" transform="translate(-54 -90.49)"/><path class="cls-7" d="M1743.39,564.55s-11,43.23-20.47,82.77c-3.82,15.93-7.38,31.24-9.9,42.89-2.57,12-4,20.07-3.47,21,8.24,13.38-6.81,95-18.72,124.58-1,2.62-2.5,5.7-4.24,9.12-16.65,32.65-61,96.73-61,96.73s-12.51,1.31-20.69-1.78c-6.83-2.59-11.49-10.93-11.49-10.93,4-6.38,20-81.77,40.65-124,8.83-18.09,21.84-185.86,39-208.45C1687.28,577.56,1743.39,564.55,1743.39,564.55Z" transform="translate(-54 -90.49)"/><path class="cls-8" d="M1709.55,711.18c8.24,13.38-6.81,95-18.72,124.58-1,2.62-2.5,5.7-4.24,9.12-15.91-70.41,10.46-170.15,10.46-170.15C1703.64,677.34,1709,710.28,1709.55,711.18Z" transform="translate(-54 -90.49)"/><path class="cls-20" d="M1824.87,1525.29s4.24,63.72-7.8,64.62c-1.6.11-61,.11-61,.11h-76.66s1.29-18.72,23.47-22.58,59.29-19.45,72.73-48.76C1789.71,1487.84,1824.87,1525.29,1824.87,1525.29Z" transform="translate(-54 -90.49)"/><path class="cls-3" d="M1940.17,1525.29s4.24,63.72-7.79,64.62c-1.61.11-61,.11-61,.11h-76.66s1.29-18.72,23.47-22.58,59.29-19.45,72.73-48.76C1905,1487.84,1940.17,1525.29,1940.17,1525.29Z" transform="translate(-54 -90.49)"/><path class="cls-4" d="M1828.5,1371.71c1.89,26.94,5.74,61.59,4.37,92.82-1.92,43.67-3.3,80.5-3.3,80.5-28.8,9.79-81.63-2.09-81.63-2.09s-18.74-110.36-34.17-198.46c-6.93-39.47-12.67-73.62-14.82-89.75-6.94-52.12,7.4-329.25,7.4-329.25s77.9-49.93,110.09-24.18,52,50.89.14,332.88C1812.64,1255.57,1824.28,1311.35,1828.5,1371.71Z" transform="translate(-54 -90.49)"/><path class="cls-5" d="M1828.5,1371.71c1.89,26.94,5.37,70.07,4,101.3-27.09-28.67-80.47-89.14-118.73-128.53-6.93-39.47-12.67-73.62-14.82-89.75-6.94-52.12,7.4-329.25,7.4-329.25s77.9-49.93,110.09-24.18,52,50.89.14,332.88C1812.64,1255.57,1824.28,1311.35,1828.5,1371.71Z" transform="translate(-54 -90.49)"/><path class="cls-4" d="M1776.75,931.12s7,277.41,17.93,328.85,68,286.89,68,286.89,53.49,4.87,81.44-7.1c0,0-1.78-109-11.26-173.12-8.86-59.85-24.75-114.57-22.47-136.2,30-285.14,8.35-308.7-25.72-331.9S1776.75,931.12,1776.75,931.12Z" transform="translate(-54 -90.49)"/><path class="cls-6" d="M1882.48,955.41s-18.53,37.19,17.1,65.6c0,0,15.44,10.57,17.81-3.16s-.37-9,3.36-28.2-1-39.16-12.11-47.83Z" transform="translate(-54 -90.49)"/><path class="cls-6" d="M1726.27,501.69s21.39,32.51,17.13,62.85l31.65,76.26,57.1-87.3s-30.16-32.84-41.42-77.6Z" transform="translate(-54 -90.49)"/><path class="cls-6" d="M1716.89,529.43s77.89,3.37,79.31-43.39,22.47-77.87-35.79-82c-47.91-3.38-63.84,16.6-68.11,32.09S1688,526.92,1716.89,529.43Z" transform="translate(-54 -90.49)"/><path class="cls-7" d="M1907.58,944.49c-16.73,1.56-39.77,3.49-67.73,5.24q-8.37.53-17.32,1c-84.4,4.73-118-8.94-118-8.94s-2.24-1.81-1.53-11.72c3.67-51,14.51-66.12,13.2-75.82-2.94-21.8-55.83-199.71-55.83-199.71s-1-56.2,61.48-82.57a148.21,148.21,0,0,1,21.4-7.12c2.74,7.28,10.24,19.43,29.43,17.19,28.38-3.31,48.58-20,57.24-28.61,1.57,0,2.19,0,2.19,0a170.52,170.52,0,0,1,5.24,18.54c5.12,22.09,8.12,45.33,21.68,62.7a476.69,476.69,0,0,1,34.59,50.61,421.23,421.23,0,0,1,21.08,40.46C1970.07,848.11,1927.27,942.64,1907.58,944.49Z" transform="translate(-54 -90.49)"/><path class="cls-8" d="M1907.58,944.49c-16.73,1.56-39.77,3.49-67.73,5.24-8.15-137.38,47.83-269.33,47.83-269.33a49.42,49.42,0,0,1,6,5c9.75,9.48,16.55,23.53,21.08,40.46C1931.42,788.11,1917.46,889.32,1907.58,944.49Z" transform="translate(-54 -90.49)"/><path class="cls-21" d="M1691.78,484.83s-15.16,60.15,10.57,68.63,94.05,1.68,94-72.07c0,0-35.85,21.38-53,20.84s-28.18-10.42-44-2.71C1699.39,499.52,1693.6,499.14,1691.78,484.83Z" transform="translate(-54 -90.49)"/><path class="cls-7" d="M1832.15,553.5s54.45,1.22,83.22,38.65c22,28.68,45.34,182.58,45.34,205.75S1935.9,949,1922,962.85a52.29,52.29,0,0,1-21,0,42.44,42.44,0,0,1-20.24-9.83s6.91-142.37,6.91-155.73c0-19.33-60.45-137.68-60.45-137.68S1795.88,603.28,1832.15,553.5Z" transform="translate(-54 -90.49)"/><path class="cls-21" d="M1792.54,418.6c-1.31-4.77-7.19-7.28-7.19-7.28-43.87-19.1-75.93,1.8-75.93,1.8,26.89-36.09,91.79-28.51,105.46,4,22.31,53.16-18.51,64.23-18.51,64.23s-40.76-17.13-17.16-38.61c7.82-7.11,11.61-13.44,12.86-18.94h0A18.83,18.83,0,0,0,1792.54,418.6Z" transform="translate(-54 -90.49)"/><path class="cls-19" d="M1723,513.44s-1.43,5.11-14.24,3.77c0,0-10.75-1.12-10.18-6.78C1698.61,510.43,1709.23,506.84,1723,513.44Z" transform="translate(-54 -90.49)"/><rect class="cls-22" x="143.73" y="1484.74" width="2169.27" height="22.64" rx="2.94"/></svg>