<svg id="Слой_1" data-name="Слой 1" xmlns="http://www.w3.org/2000/svg" xmlns:xlink="http://www.w3.org/1999/xlink" viewBox="0 0 891.95 509.69"><defs><style>.cls-1{fill:none;}.cls-2{fill:#dae7ff;}.cls-3{fill:#e7f3fe;}.cls-4{fill:url(#linear-gradient);}.cls-5{fill:url(#linear-gradient-2);}.cls-6{fill:#64a4ff;}.cls-7{fill:#bbd070;}.cls-8{fill:#97a43c;}.cls-9{fill:#48753a;}.cls-10{fill:#dbd8e3;}.cls-11{fill:#323657;}.cls-12{fill:#eea987;}.cls-13{fill:#e8734d;}.cls-14{fill:#c4c1cc;}.cls-15{fill:#efaa88;}.cls-16{fill:#eea886;}.cls-17{fill:#16202e;}.cls-18{fill:#a77860;}.cls-19{fill:#4da8f2;}.cls-20{fill:#ffad01;}.cls-21{fill:#ffc955;}.cls-22{clip-path:url(#clip-path);}.cls-23{fill:#96cbff;}.cls-24{fill:#95caff;}.cls-25{fill:#94c9ff;}.cls-26{fill:#93c9ff;}.cls-27{fill:#92c8ff;}.cls-28{fill:#91c7ff;}.cls-29{fill:#90c6ff;}.cls-30{fill:#8fc6ff;}.cls-31{fill:#8ec5ff;}.cls-32{fill:#8dc4ff;}.cls-33{fill:#8cc3ff;}.cls-34{fill:#8bc2ff;}.cls-35{fill:#8ac2ff;}.cls-36{fill:#89c1ff;}.cls-37{fill:#88c0ff;}.cls-38{fill:#87bfff;}.cls-39{fill:#86bfff;}.cls-40{fill:#85beff;}.cls-41{fill:#84bdff;}.cls-42{fill:#83bcff;}.cls-43{fill:#82bbff;}.cls-44{fill:#81bbff;}.cls-45{fill:#80baff;}.cls-46{fill:#7fb9ff;}.cls-47{fill:#7eb8ff;}.cls-48{fill:#7db7ff;}.cls-49{fill:#7cb7ff;}.cls-50{fill:#7bb6ff;}.cls-51{fill:#7ab5ff;}.cls-52{fill:#79b4ff;}.cls-53{fill:#78b4ff;}.cls-54{fill:#77b3ff;}.cls-55{fill:#76b2ff;}.cls-56{fill:#74b1ff;}.cls-57{fill:#73b0ff;}.cls-58{fill:#72b0ff;}.cls-59{fill:#71afff;}.cls-60{fill:#70aeff;}.cls-61{fill:#6fadff;}.cls-62{fill:#6eadff;}.cls-63{fill:#6dacff;}.cls-64{fill:#6cabff;}.cls-65{fill:#6baaff;}.cls-66{fill:#6aa9ff;}.cls-67{fill:#69a9ff;}.cls-68{fill:#68a8ff;}.cls-69{fill:#67a7ff;}.cls-70{fill:#66a6ff;}.cls-71{fill:#65a6ff;}.cls-72{fill:#64a5ff;}.cls-73{fill:#63a4ff;}.cls-74{fill:#62a3ff;}.cls-75{fill:#61a2ff;}.cls-76{fill:#60a2ff;}.cls-77{fill:#5fa1ff;}.cls-78{fill:#5ea0ff;}.cls-79{fill:#5d9fff;}.cls-80{fill:#5c9eff;}.cls-81{fill:#5b9eff;}.cls-82{fill:#5a9dff;}.cls-83{fill:#599cff;}.cls-84{fill:#589bff;}.cls-85{fill:#579bff;}.cls-86{fill:#569aff;}.cls-87{fill:#59f;}.cls-88{fill:#cfa345;}.cls-89{fill:#6069a8;}.cls-90{fill:#202338;}.cls-91{fill:#464240;}.cls-92{fill:#eb4747;}.cls-93{fill:#5f8cc9;}.cls-94{fill:#5e5853;}.cls-95{fill:#91887f;}.cls-96{fill:#eddad3;}.cls-97{fill:#6e6760;}.cls-98{fill:#807066;}.cls-99{fill:#ffcb55;}.cls-100{fill:#cf8c6c;}.cls-101{fill:#3b3f66;}.cls-102{fill:#555c94;}.cls-103{fill:#354c70;}.cls-104{fill:#deb135;}.cls-105{fill:#d9d0c4;}.cls-106{fill:#ffd255;}.cls-107{fill:#3c5780;}.cls-108{fill:#c48a6f;}.cls-109{clip-path:url(#clip-path-2);}.cls-110{fill:#db9c7c;}.cls-111{clip-path:url(#clip-path-3);}.cls-112{fill:#293b57;}.cls-113{fill:#e3f2ff;}.cls-114{fill:#ebebeb;}.cls-115{fill:#162d40;}.cls-116{fill:#1d3b54;}.cls-117{fill:#d1c0ba;}.cls-118{fill:#fae6de;}.cls-119{fill:#54281a;}.cls-120{fill:#366e9c;}.cls-121{fill:#5c544d;}.cls-122{fill:#3c4145;}.cls-123{fill:#fccca2;}.cls-124{fill:#e2d2ca;}.cls-125{fill:#f25f54;}.cls-126{fill:#c98462;}.cls-127{fill:#de9d7d;}.cls-128{fill:#252e3b;}.cls-129{fill:#5fa0ff;}.cls-130{fill:#5189db;}.cls-131{fill:#c2bebc;}.cls-132{fill:#d6d6d6;}.cls-133{fill:#e8e8e8;}.cls-134{fill:#c2c2c2;}</style><linearGradient id="linear-gradient" x1="552.4" y1="333.17" x2="743.05" y2="333.17" gradientUnits="userSpaceOnUse"><stop offset="0" stop-color="#96cbff"/><stop offset="1" stop-color="#59f"/></linearGradient><linearGradient id="linear-gradient-2" x1="-102.27" y1="872.57" x2="40.09" y2="872.57" gradientTransform="matrix(0.99, -0.1, 0.1, 0.99, 142.01, -662.47)" xlink:href="#linear-gradient"/><clipPath id="clip-path" transform="translate(-0.21 -0.1)"><rect class="cls-1" x="63.92" y="365.21" width="380.48" height="6.02"/></clipPath><clipPath id="clip-path-2" transform="translate(-0.21 -0.1)"><path class="cls-1" d="M426.51,405.6l.66-.31-3-6.34-1.67.78,2.53,5.38A1,1,0,0,0,426.51,405.6Z"/></clipPath><clipPath id="clip-path-3" transform="translate(-0.21 -0.1)"><polygon class="cls-1" points="420.3 400.33 426.89 399.1 425.82 393.69 419.28 395.18 420.3 400.33"/></clipPath></defs><rect class="cls-2" width="891.95" height="509.69"/><path class="cls-3" d="M209.51,92.32c86-40.23,173.32-4.66,232.57,72.82S625.68,111.66,691.63,189c45,52.79,24.39,188.51-37.32,247.29-83.88,79.9-339,39.36-394.16,25.76-63.57-15.67-110-63.19-128.93-120.88C85.73,202.18,171.52,110.11,209.51,92.32Z" transform="translate(-0.21 -0.1)"/><path class="cls-4" d="M718.08,375.46a82,82,0,0,0,8.9-21l15.75-3,.16-17.42.16-17.42-15.69-3.31a81.63,81.63,0,0,0-8.51-21.12l9-13.27-12.21-12.43-12.2-12.43L690,262.82a81.88,81.88,0,0,0-21-8.9l-3-15.75L648.61,238l-17.42-.16-3.31,15.69a81.77,81.77,0,0,0-21.12,8.51l-13.26-9-12.44,12.21-12.43,12.2,8.75,13.43a81.12,81.12,0,0,0-8.9,20.95l-15.75,3-.17,17.43-.16,17.42L568.09,353a81.77,81.77,0,0,0,8.51,21.12l-9,13.26,12.21,12.44L592,412.27l13.43-8.75a81.33,81.33,0,0,0,21,8.9l3,15.75,17.42.17,17.42.16,3.31-15.7a81.24,81.24,0,0,0,21.12-8.5l13.26,9,12.44-12.21,12.43-12.2ZM617.24,363.1a42.72,42.72,0,1,1,60.41.56A42.72,42.72,0,0,1,617.24,363.1Z" transform="translate(-0.21 -0.1)"/><path class="cls-5" d="M255.74,234.79a61.36,61.36,0,0,0,5-16.25l11.47-3.45-1.21-13-1.21-12.95-11.91-1.27a60.86,60.86,0,0,0-7.93-15l5.67-10.54-10-8.31-10-8.3-9.3,7.52a61,61,0,0,0-16.25-5l-3.45-11.47L193.65,138l-13,1.21-1.27,11.91a60.53,60.53,0,0,0-15,7.93l-10.54-5.67-8.31,10-8.3,10,7.52,9.3a60.88,60.88,0,0,0-5,16.25l-11.47,3.44,1.21,13,1.21,13,11.91,1.26a60.41,60.41,0,0,0,7.93,15l-5.67,10.54,10,8.31,10,8.3,9.3-7.52a61.25,61.25,0,0,0,16.25,5l3.44,11.47,13-1.21,12.95-1.21,1.26-11.91a60.74,60.74,0,0,0,15-7.93l10.54,5.67,8.31-10,8.3-10Zm-75.85-1.49a31.9,31.9,0,1,1,44.92-4.19A31.9,31.9,0,0,1,179.89,233.3Z" transform="translate(-0.21 -0.1)"/><path class="cls-6" d="M688.74,496.79h-1.1V419.16a31.36,31.36,0,0,0-31.32-31.32H576.45A32.46,32.46,0,0,1,544,355.42V210.32A31.36,31.36,0,0,0,512.71,179H309.05V177.9H512.71a32.45,32.45,0,0,1,32.41,32.42v145.1a31.37,31.37,0,0,0,31.33,31.33h79.87a32.46,32.46,0,0,1,32.42,32.41Z" transform="translate(-0.21 -0.1)"/><path class="cls-7" d="M312.67,128.73s12.33,49.08-17.27,62.5-23.92-11.15-23.92-11.15-12.14-3.37,20.89-22.1C307.94,149.15,312.67,128.73,312.67,128.73Z" transform="translate(-0.21 -0.1)"/><path class="cls-8" d="M390.17,133s6.07,42.79-49.94,61.28-64,42-64,42S274.57,141.42,390.17,133Z" transform="translate(-0.21 -0.1)"/><path class="cls-9" d="M276,218.82c-16.61-6.34,22.87-40.33,53.2-39.41s50.9,12.14,71.22,7.4C400.42,186.81,357.78,250,276,218.82Z" transform="translate(-0.21 -0.1)"/><path class="cls-10" d="M331.79,247.22q1.44-19.36,2-36.23c-3.11-1.65-6.85-3.58-9.85-5-9.27-4.41-22.18-10.35-30.47-14.15-4.85-2.23-9.6-3.86-9.6-3.86s-33.12-3.18-35.81-3c-.85.05-5,1.5-10.42,3.57-11.74,4.45-34.38,13.53-38,16.12-5.29,3.78-24.2,96.52-24.71,102.82-.49,6.11,25.73,14.48,50,20.9,0,9.4-.2,22.57-.42,34.59q0,3.09-.11,6H330.67c-.14-2.07-.26-4.11-.37-6l0-.76c-.41-8.14-2-22.73-1.59-36.93,0,0-.26-15,1.23-21.42C330.07,275.4,331.79,247.22,331.79,247.22ZM197.07,301.74c.17-12.07,16.25-34.53,16.25-34.53a5.22,5.22,0,0,1,.75-.28s.83-.12.83-.11,2.5-2.36,2.52-2.36c.59,2.14,5.91,32.47,7.22,50.13C209.54,311.62,197,307.5,197.07,301.74Z" transform="translate(-0.21 -0.1)"/><path class="cls-11" d="M333.76,363c-.7-5-1.36-10.06-1.95-15,0,0,0,0,0-.07-.19-1.64-.38-3.25-.57-4.87,0-.07,0-.16,0-.25-.77-6.78-1.42-13.28-1.88-19.24a61.2,61.2,0,0,1,.59-13.37c1.85-30.45,2.77-62.55,2.77-62.55,1-13.14,1.53-25.42,1.9-36.86,0,0-41.59-19.65-45.36-20.78,0,0,7.89,18.52,13.81,59.93,2.27,15.9,6.48,42.67,9.54,70h0c1.66,14.74,4.76,29.76,7.12,43.05q.54,3.09,1,6h13.92C334.32,367,334,365,333.76,363Z" transform="translate(-0.21 -0.1)"/><path class="cls-11" d="M264.52,314.07c1.64-15.39,3.11-30.76,2.4-39.17-5.73-67.68-22-85.59-24.32-88.21-1.81.69-8.74,3.29-10.77,4.1-11.1,4.37-33.72,12.39-36.77,14.58-5.29,3.79-26.14,101-26.77,107.3-.42,4.25,26.79,13.13,54.54,21.05-.25,7.61.47,18.35-2.06,29.56-.44,2-1.1,3.24-1.2,5.87l38.69-.15q.36-3,.73-6c.73-6.05,1.5-12.24,2.27-18.82,11.6,3,19.49,4.94,19.49,4.94s10.9-18.43,14.06-25.89C295.35,321.92,281.32,318.55,264.52,314.07Zm-50-23.3c-.37-13.85-.3-23.52-.3-23.52,1.37,4.75,3.26,18.31,4.94,31.8C213.5,296.22,214.56,293.57,214.49,290.77Z" transform="translate(-0.21 -0.1)"/><path class="cls-12" d="M246.32,186s4.22-8,3.05-30.55c-.32-6.27,32.89,14.84,32.89,14.84s-.12,2.16-.19,5.07c0,1.21-.06,2.54-.06,3.91,0,.38,0,.75,0,1.13,0,.62,0,1.23,0,1.84s0,1.5.08,2.22.09,1.58.17,2.29a21.07,21.07,0,0,0,1.23,4.43C285,194.73,258.76,194.93,246.32,186Z" transform="translate(-0.21 -0.1)"/><path class="cls-13" d="M274.16,200.41l6.12,8.22s-3.58,4.8-9.95,1.26Z" transform="translate(-0.21 -0.1)"/><path class="cls-13" d="M278.65,209s22.42,54.77,17.64,124.33l-7.08,12.83-8-10.93s-1.29-92.38-7.65-126.45Z" transform="translate(-0.21 -0.1)"/><path class="cls-12" d="M280.72,192.74l-6.56,7.67s-10.51-2-13.6-7.53S280.72,192.74,280.72,192.74Z" transform="translate(-0.21 -0.1)"/><path class="cls-14" d="M282.22,186s-.76,5.85-8.06,14.38l8,10.69,4.31-22.19Z" transform="translate(-0.21 -0.1)"/><path class="cls-14" d="M248.32,179s15.21,17.2,25.84,21.41l-4.94,12.23L245,185.87Z" transform="translate(-0.21 -0.1)"/><path class="cls-11" d="M404.65,334.61S384.47,315,371.23,311.78c-6.12-1.5-14.18-9.95-21.84-19.88-2.53-3.27-5-6.71-7.36-10.1a0,0,0,0,1,0,0c-9.39-13.57-16.76-26.57-16.76-26.57s-27.78-32.56-5.48-47.07c0,0,9.55-.2,14.79,2.64s16.88,26.91,18.83,31.16,23.05,43.69,24.47,44.58,3.77,4.13,12.21,8.68c10.34,5.57,26.59,21.86,26.59,21.86Z" transform="translate(-0.21 -0.1)"/><path class="cls-15" d="M307.76,357.27a12.64,12.64,0,0,1-4-.77s-2.1-1.35-3.66-2.22a11.75,11.75,0,0,0-1.23-.62,23.67,23.67,0,0,1-6.78-3.23c-2.66-2-11.31-10.12-11.31-10.12l5.59-8.6,2.59-8.51s20.17,2,22.86,3.61a7.9,7.9,0,0,1,.74.49c2.15,1.58,3.08,3.65,4.12,4.6.37.36,3.89,4.12,3.69,5.64a5,5,0,0,1-2.63,4.12s-.71,4.13-2.84,6c0,0-.54,3.83-3.84,5.36C311,353,310.05,356.81,307.76,357.27Z" transform="translate(-0.21 -0.1)"/><path class="cls-16" d="M275.64,97.17s36.46-8.79,28.78,37.38-16.42,49.91-38.63,40.7-20.67-38.73-22-53.18S264,97.84,275.64,97.17Z" transform="translate(-0.21 -0.1)"/><path class="cls-16" d="M256.48,129.14c-.54-4-8.59-5.42-9.15.67s3.9,16.73,6.93,15.63S257.23,134.73,256.48,129.14Z" transform="translate(-0.21 -0.1)"/><path class="cls-17" d="M245.92,145.67s.73-14.52,6-15,6.19,5.3,6.19,5.3l5.36.93s-1.87-12.69,3.38-15,34.39,6.5,38.58,2.71,1.81-29.56-5.92-33-29.06-11-44.45-.26c0,0-12.13-1.21-13.78,8.6S242.52,138.45,245.92,145.67Z" transform="translate(-0.21 -0.1)"/><path class="cls-11" d="M295.81,323.2l-15.06,25.88s-39.88-10.27-49.19-12.9l21.27-25.32S284.2,318,295.81,323.2Z" transform="translate(-0.21 -0.1)"/><path class="cls-18" d="M282.12,184.49h0c-19.56-2-27.14-17.05-27.14-17.05a40.44,40.44,0,0,0,27,11.86c0,.38,0,.75,0,1.13,0,.62,0,1.23,0,1.84S282.08,183.77,282.12,184.49Z" transform="translate(-0.21 -0.1)"/><path class="cls-19" d="M600.78,413.93a6,6,0,0,0-10.4,1.67h0a6.1,6.1,0,0,0-.31,1.83,5.77,5.77,0,0,0,.37,2.12,5.93,5.93,0,0,0,5,3.88l.46,0h.4a6.42,6.42,0,0,0,1.71-.35,6,6,0,0,0,2.73-9.17Zm-3.24,7.77h0a4.48,4.48,0,0,1-1.28.26H596a4.78,4.78,0,0,1-1.21-.19,4.49,4.49,0,0,1-1.46-.75,4.09,4.09,0,0,1-.44-.39,4.43,4.43,0,0,1-1.29-3.19,4.74,4.74,0,0,1,.12-.94,3.6,3.6,0,0,1,.12-.44,4.46,4.46,0,1,1,5.74,5.63Z" transform="translate(-0.21 -0.1)"/><path class="cls-16" d="M305.11,301.94c22.67,23.33,52.61,52.72,52.61,52.72l11.71-22.23s-26.6-31.18-44.63-52C319.27,283.15,309.12,289.62,305.11,301.94Z" transform="translate(-0.21 -0.1)"/><path class="cls-16" d="M310.11,333.31s6.1,2.95,7.69,4.27,8.05,6.14,9.62,7.28-2.36,4.37-13.91-.63S310.11,333.31,310.11,333.31Z" transform="translate(-0.21 -0.1)"/><polygon class="cls-20" points="310.43 266.43 299.8 365.32 439.8 365.32 450.43 266.43 310.43 266.43"/><path class="cls-20" d="M448,360.85H306.9l10.75-100h141.1Zm-139.88-1.09H447L457.53,262H318.63Z" transform="translate(-0.21 -0.1)"/><rect class="cls-21" x="288.86" y="356.52" width="23.38" height="8.9" transform="translate(600.9 721.85) rotate(180)"/><g class="cls-22"><path class="cls-23" d="M63.92,365.21v0Z" transform="translate(-0.21 -0.1)"/><rect class="cls-23" x="63.71" y="365.12" width="5.85" height="6.02"/><rect class="cls-24" x="69.56" y="365.12" width="5.85" height="6.02"/><rect class="cls-25" x="75.42" y="365.12" width="5.85" height="6.02"/><rect class="cls-26" x="81.27" y="365.12" width="5.85" height="6.02"/><rect class="cls-27" x="87.12" y="365.12" width="5.85" height="6.02"/><rect class="cls-28" x="92.98" y="365.12" width="5.85" height="6.02"/><rect class="cls-29" x="98.83" y="365.12" width="5.85" height="6.02"/><rect class="cls-30" x="104.68" y="365.12" width="5.85" height="6.02"/><rect class="cls-31" x="110.54" y="365.12" width="5.85" height="6.02"/><rect class="cls-32" x="116.39" y="365.12" width="5.85" height="6.02"/><rect class="cls-33" x="122.25" y="365.12" width="5.85" height="6.02"/><rect class="cls-34" x="128.1" y="365.12" width="5.85" height="6.02"/><rect class="cls-35" x="133.95" y="365.12" width="5.85" height="6.02"/><rect class="cls-36" x="139.81" y="365.12" width="5.85" height="6.02"/><rect class="cls-37" x="145.66" y="365.12" width="5.85" height="6.02"/><rect class="cls-38" x="151.51" y="365.12" width="5.85" height="6.02"/><rect class="cls-39" x="157.37" y="365.12" width="5.85" height="6.02"/><rect class="cls-40" x="163.22" y="365.12" width="5.85" height="6.02"/><rect class="cls-41" x="169.07" y="365.12" width="5.85" height="6.02"/><rect class="cls-42" x="174.93" y="365.12" width="5.85" height="6.02"/><rect class="cls-43" x="180.78" y="365.12" width="5.85" height="6.02"/><rect class="cls-44" x="186.63" y="365.12" width="5.85" height="6.02"/><rect class="cls-45" x="192.49" y="365.12" width="5.85" height="6.02"/><rect class="cls-46" x="198.34" y="365.12" width="5.85" height="6.02"/><rect class="cls-47" x="204.19" y="365.12" width="5.85" height="6.02"/><rect class="cls-48" x="210.05" y="365.12" width="5.85" height="6.02"/><rect class="cls-49" x="215.9" y="365.12" width="5.85" height="6.02"/><rect class="cls-50" x="221.75" y="365.12" width="5.85" height="6.02"/><rect class="cls-51" x="227.61" y="365.12" width="5.85" height="6.02"/><rect class="cls-52" x="233.46" y="365.12" width="5.85" height="6.02"/><rect class="cls-53" x="239.32" y="365.12" width="5.85" height="6.02"/><rect class="cls-54" x="245.17" y="365.12" width="5.85" height="6.02"/><rect class="cls-55" x="251.02" y="365.12" width="5.85" height="6.02"/><rect class="cls-56" x="256.88" y="365.12" width="5.85" height="6.02"/><rect class="cls-57" x="262.73" y="365.12" width="5.85" height="6.02"/><rect class="cls-58" x="268.58" y="365.12" width="5.85" height="6.02"/><rect class="cls-59" x="274.44" y="365.12" width="5.85" height="6.02"/><rect class="cls-60" x="280.29" y="365.12" width="5.85" height="6.02"/><rect class="cls-61" x="286.14" y="365.12" width="5.85" height="6.02"/><rect class="cls-62" x="292" y="365.12" width="5.85" height="6.02"/><rect class="cls-63" x="297.85" y="365.12" width="5.85" height="6.02"/><rect class="cls-64" x="303.71" y="365.12" width="5.85" height="6.02"/><rect class="cls-65" x="309.56" y="365.12" width="5.85" height="6.02"/><rect class="cls-66" x="315.41" y="365.12" width="5.85" height="6.02"/><rect class="cls-67" x="321.27" y="365.12" width="5.85" height="6.02"/><rect class="cls-68" x="327.12" y="365.12" width="5.85" height="6.02"/><rect class="cls-69" x="332.97" y="365.12" width="5.85" height="6.02"/><rect class="cls-70" x="338.83" y="365.12" width="5.85" height="6.02"/><rect class="cls-71" x="344.68" y="365.12" width="5.85" height="6.02"/><rect class="cls-72" x="350.53" y="365.12" width="5.85" height="6.02"/><rect class="cls-73" x="356.39" y="365.12" width="5.85" height="6.02"/><rect class="cls-74" x="362.24" y="365.12" width="5.85" height="6.02"/><rect class="cls-75" x="368.09" y="365.12" width="5.85" height="6.02"/><rect class="cls-76" x="373.95" y="365.12" width="5.85" height="6.02"/><rect class="cls-77" x="379.8" y="365.12" width="5.85" height="6.02"/><rect class="cls-78" x="385.65" y="365.12" width="5.85" height="6.02"/><rect class="cls-79" x="391.51" y="365.12" width="5.85" height="6.02"/><rect class="cls-80" x="397.36" y="365.12" width="5.85" height="6.02"/><rect class="cls-81" x="403.21" y="365.12" width="5.85" height="6.02"/><rect class="cls-82" x="409.07" y="365.12" width="5.85" height="6.02"/><rect class="cls-83" x="414.92" y="365.12" width="5.85" height="6.02"/><rect class="cls-84" x="420.77" y="365.12" width="5.85" height="6.02"/><rect class="cls-85" x="426.63" y="365.12" width="5.85" height="6.02"/><rect class="cls-86" x="432.48" y="365.12" width="5.85" height="6.02"/><rect class="cls-87" x="438.34" y="365.12" width="5.85" height="6.02"/><path class="cls-87" d="M444.4,371.24v0Z" transform="translate(-0.21 -0.1)"/></g><rect class="cls-20" x="376.77" y="493.38" width="329.65" height="6.03"/><path class="cls-88" d="M348.55,314.39c-1.13,5.5,1.44,10.68,5.73,11.55s8.69-2.87,9.82-8.38-1.45-10.68-5.74-11.56S349.67,308.88,348.55,314.39Z" transform="translate(-0.21 -0.1)"/><path class="cls-89" d="M683.13,275.19s3.23,5.47,4.6,6.37c1.85,1.21.69,2.44-.19,2.44s-5.37.32-6.36-.8-1.48-4.49-2.4-5.37-1.87-4.37.45-5.22C681.28,271.85,683.13,275.19,683.13,275.19Z" transform="translate(-0.21 -0.1)"/><path class="cls-90" d="M681.73,272.78s3.7,6.41,4.34,7.36-1.2.94-2.34.49-4-5-4.41-5.88a3.09,3.09,0,0,1-.09-2.14Z" transform="translate(-0.21 -0.1)"/><polygon class="cls-89" points="677.78 276.13 678.64 282.71 679.09 282.73 678.95 278 677.78 276.13"/><path class="cls-89" d="M651.11,275.19s3.23,5.47,4.59,6.37c1.85,1.21.69,2.44-.19,2.44s-5.36.32-6.35-.8-1.48-4.49-2.4-5.37-1.9-4.47.45-5.22C649.27,271.94,651.11,275.19,651.11,275.19Z" transform="translate(-0.21 -0.1)"/><path class="cls-90" d="M649.91,272.79s3.5,6.4,4.14,7.35-1.2.94-2.34.49-4-5-4.42-5.88a3.06,3.06,0,0,1-.08-2.14Z" transform="translate(-0.21 -0.1)"/><polygon class="cls-89" points="645.76 276.13 646.61 282.71 647.07 282.73 646.92 278 645.76 276.13"/><path class="cls-90" d="M636.78,225.37,666,238.68a5.61,5.61,0,0,1,3.63,4.69c1.14,11.3,9.6,29.24,9.6,29.24,2.71,1.32,2.5.17,2.5.17-1.71-5.49-3.79-28.11-4.53-37.21-.16-1.92-.25-3.24-.27-3.66s-.33-.67-.88-1.1c-4-3.26-20.5-10-20.5-10C643.16,220.51,636.78,225.37,636.78,225.37Z" transform="translate(-0.21 -0.1)"/><path class="cls-90" d="M631.27,231.08c.91,7.9,12.18,7,12.18,7h13.67a85.63,85.63,0,0,0-5,14.72c-1.47,7.15-4.93,19.81-4.93,19.81s.22.42,2.7.18c0,0,10.72-21.38,14.83-26.75a36.56,36.56,0,0,0,3.85-11.18c.15-1.26.06-2.24-.41-2.63a33.81,33.81,0,0,0-3-2.06c-4.28-2.7-11.72-6.86-15.86-7.79-5.55-1.24-14.32-3.58-14.32-3.58A15.12,15.12,0,0,0,631.27,231.08Z" transform="translate(-0.21 -0.1)"/><path class="cls-91" d="M640.57,170.24a12.78,12.78,0,0,1-1.05-8c1-4.13,4.84-8.25,10.46-6.36s10.16,6.26,6.79,11.3,3.05,7.33,1.41,9.73-1,4.91-.32,5.47,2.92,2.55,2.68,4.91-10.9-6.88-10.9-6.88S643.84,168.73,640.57,170.24Z" transform="translate(-0.21 -0.1)"/><path class="cls-92" d="M657.7,219.87S656.85,224,635,218.8C635,218.8,642.34,216.37,657.7,219.87Z" transform="translate(-0.21 -0.1)"/><path class="cls-93" d="M634.78,220l-1,1.94,23.94.69c-1.26-4.22-.85-9.94-.63-14.29.27-5.3,3.2-9,2.88-14.36l3.44.55c-2.42-6.89-3.25-10.3-10.76-13a14,14,0,0,0-6.7-.81c-8.69.72-11.32.82-15.59,8.7,6.69,1.06,5.59,3.47,7.62,10.12,1,3.24,2,6.86,1.49,10.28S634.78,216.88,634.78,220Z" transform="translate(-0.21 -0.1)"/><path class="cls-16" d="M648.66,183.19c-3.56-.67-2.8-2.65-2.8-2.65s.16-1.12.22-2.53c0-.36,0-.74,0-1.13a14.55,14.55,0,0,0-.1-1.75c-.29-2.39,6.46-1,6.46-1s-.39,4.83.54,6.28S652.22,183.87,648.66,183.19Z" transform="translate(-0.21 -0.1)"/><path class="cls-16" d="M641.87,180.53s7.18,8.29,9.83,10.21c0,0,3-2.75,1.17-10C652.87,180.71,649.41,179,641.87,180.53Z" transform="translate(-0.21 -0.1)"/><path class="cls-16" d="M642.06,160.58s-3.73,7.18,0,14,11-3,11.44-4.11,3-7.63-2-9.6S643.12,158.63,642.06,160.58Z" transform="translate(-0.21 -0.1)"/><path class="cls-91" d="M643.3,163.12s-2.56,3.38-2.87,5.87a13.38,13.38,0,0,1,1.87-9.24c2.89-4.52,10.24-.21,11.22,1.59s3.87,3.41-1,11.18C652.54,172.52,643.83,166.46,643.3,163.12Z" transform="translate(-0.21 -0.1)"/><path class="cls-18" d="M649.26,175.28a7,7,0,0,1-3.18,2.73c0-.36,0-.74,0-1.13A6,6,0,0,0,649.26,175.28Z" transform="translate(-0.21 -0.1)"/><path class="cls-16" d="M610.45,213.48s-1.77.79-2.61.44a7.76,7.76,0,0,0-2.55-.43c-.55,0-2.26-.62-2.23,0s2.78,1.14,3.35,1.35-1.69,1.45-1.9,2,2.33,4.17,3.76,3.14,2.22-3.09,2.51-3.22a10.22,10.22,0,0,0,1.07-.71Z" transform="translate(-0.21 -0.1)"/><path class="cls-16" d="M604.78,216.57s-4.16,3.45-4.22,3.91.15.69.56.38l4.12-3.21s-4.17,4.92-4.31,5.28.32.66.55.52,4.66-4.78,4.66-4.78-3.88,4.6-3.9,5a.46.46,0,0,0,.77.3l4.17-4.38s-2.6,3.53-2.44,3.85.43.58,1.07-.35,2.39-3,2.39-3Z" transform="translate(-0.21 -0.1)"/><path class="cls-20" d="M655.69,238.08H643.45s-11.27.9-12.18-7A15.12,15.12,0,0,1,635,218.8s6,1.59,11.16,2.84a40.59,40.59,0,0,1,9.41-.82s22,7.29,21.38,11.12C676.93,231.94,667.71,227,655.69,238.08Z" transform="translate(-0.21 -0.1)"/><polygon class="cls-94" points="623.94 224.31 647.28 223.96 635.5 229.95 623.94 224.31"/><path class="cls-93" d="M655,221.42a20,20,0,0,1-11.69.19l-.3-2.4,13.25.74Z" transform="translate(-0.21 -0.1)"/><polygon class="cls-95" points="635.5 229.95 623.94 225.47 623.94 224.31 636.41 228.8 635.5 229.95"/><path class="cls-96" d="M654.9,222.53a1.15,1.15,0,0,0,1.6,1.15l1.35-.58a1,1,0,0,0,.58-1c-.57-3.53-1.78-17.27,0-19.63a8.46,8.46,0,0,0,1.29-2.3c1.17,3,2.63,6.89,3.2,9l11,14.67,3.69.94a125.24,125.24,0,0,0-8.31-17c-.72-1.93-2.79-7.8-4.63-13-1.15-3.3-2.22-6.34-2.79-8a3.77,3.77,0,0,0-1.61-2c-1.71-1-4.55-2.63-7.13-3.89h0l-.24-.12h0c4.91,7.42,3,28.39,2,41.79Z" transform="translate(-0.21 -0.1)"/><path class="cls-96" d="M636.68,181.34c-1.57.24-5.47,4-7.54,7.85-2.36,4.35-4.76,9.32-6.57,10.95-3.31,3-12.58,13.61-13,13.36a29.76,29.76,0,0,0,2.88,3.32c.18.07,15.25-13,16.7-15s5-9.8,6.14-9.63h0a60,60,0,0,1,2.69,7.31l.06.21a23.52,23.52,0,0,1,.32,9.75c-.36,2.72-2.39,7.16-3.61,9.33a1.45,1.45,0,0,0,0,1.13h0a.8.8,0,0,0,.4.47l4.43,1.64,1,.38a2.27,2.27,0,0,0,3-1.83c1-7.57,2.23-15.3,3.22-18.21A27.62,27.62,0,0,0,645.2,180,83.88,83.88,0,0,0,636.68,181.34Z" transform="translate(-0.21 -0.1)"/><polygon class="cls-97" points="659.07 229.95 666.01 210.99 688.39 211.36 681.78 228.82 659.07 229.95"/><path class="cls-98" d="M673.38,219.47c-.68,1.37-.48,2.85.46,3.32s2.25-.25,2.93-1.62.48-2.85-.46-3.32S674.06,218.11,673.38,219.47Z" transform="translate(-0.21 -0.1)"/><path class="cls-91" d="M649.79,167.73s1.44,2.23.11,4.15.34,3.82.62,5.85-5.52,7.45.94,10.18,8.53-1.78,6.88-4.26-2.82-4.49-3-8S654.07,166.59,649.79,167.73Z" transform="translate(-0.21 -0.1)"/><polygon class="cls-99" points="617.98 158.38 631.47 158.38 631.47 168.16 631.47 170.22 629.41 168.16 617.98 168.16 617.98 158.38"/><path class="cls-7" d="M474.87,308.54s-29.41,28-15.1,49.77,21,2.7,21,2.7,9.67,2.92-4.69-23.94C469.31,324.41,474.87,308.54,474.87,308.54Z" transform="translate(-0.21 -0.1)"/><path class="cls-8" d="M420.5,278.2s-22.47,26.4,7.57,63S453.44,397,453.44,397,495.25,333.48,420.5,278.2Z" transform="translate(-0.21 -0.1)"/><path class="cls-9" d="M460.22,386c14,2.83,2.66-37.81-18.3-50.2s-39.7-13.6-51.44-25.53C390.48,310.27,391.39,372.08,460.22,386Z" transform="translate(-0.21 -0.1)"/><path class="cls-16" d="M421.7,403.82s.64-1.58.75-1.82a4.08,4.08,0,0,1,1.47-1,4.88,4.88,0,0,1,2.05-.5.74.74,0,0,1,.46.42,1.38,1.38,0,0,1,.11.7.87.87,0,0,1,.31.78.73.73,0,0,1,.17.81.63.63,0,0,1,.17.67,5.34,5.34,0,0,0-.8.6,11.73,11.73,0,0,1-2.92,1.44S422,405.93,421.7,403.82Z" transform="translate(-0.21 -0.1)"/><path class="cls-100" d="M424,403a4.06,4.06,0,0,1-.1,1.1c-.12.25,1.75.79,1.75.79S425,403,424,403Z" transform="translate(-0.21 -0.1)"/><polygon class="cls-101" points="389.05 486.89 389.86 484.36 393.3 484.91 392.79 487.2 389.05 486.89"/><polygon class="cls-102" points="417.23 486.59 417.42 487.98 421.18 487.35 420.98 485.28 417.23 486.59"/><path class="cls-103" d="M409.28,447.71s-.55,3-1.19,6.37c-.12.58-.23,1.18-.35,1.77-.62,3.23-1.26,6.34-1.49,7-.54,1.46-12.06,22.57-12.06,22.57s-4.71-.35-4.89-1c0,0,9.66-22.93,9.6-23.76s1.19-24.34,1.19-24.34S409,446.35,409.28,447.71Z" transform="translate(-0.21 -0.1)"/><path class="cls-103" d="M414.55,435s4.51,23.09,4.89,24.86,2.1,25.42,2.1,25.42-1,2.09-4.76,1.3c0,0-5.1-25.41-5.53-26.26-1.67-3.31-9.86-19.31-10.66-21.6a13.82,13.82,0,0,1-.56-4.95S406.12,430.34,414.55,435Z" transform="translate(-0.21 -0.1)"/><path class="cls-104" d="M412.65,405.09s2,4.93,2.48,4.78,6.18-6.82,6.18-6.82,2.6,3.25,2.25,3.62-7.2,11.68-8.12,11.48-5.05-7-5.05-7S410.15,406,412.65,405.09Z" transform="translate(-0.21 -0.1)"/><path class="cls-20" d="M404.2,395.68a84.31,84.31,0,0,1,6.54,5.47c1.41,1.55,5.32,8,5,9.94a142.1,142.1,0,0,0-1.63,18.85c0,4.42,1.38,5.54.51,5.61s-13.92,4.75-15.83,5.32c0,0,1.26-15.56,1.89-17.36S398.69,402.9,404.2,395.68Z" transform="translate(-0.21 -0.1)"/><path class="cls-105" d="M437.22,388.24l1.16,5.8,1.15,5.8a31.48,31.48,0,0,0-14.06-.58L425,396.7l-.51-2.57A31.79,31.79,0,0,0,437.22,388.24Z" transform="translate(-0.21 -0.1)"/><path class="cls-41" d="M417.63,488.08s2.84-.55,2.94-.64.71-1.21,1.14-1,.45,1.56.88,1.79,3.82,2.52,4.23,2.94,3,.17,3.28.89.32,2.44-3.51,2-8.2.22-9-.23S417.36,489.18,417.63,488.08Z" transform="translate(-0.21 -0.1)"/><path class="cls-41" d="M389.21,486.92s2.89-.09,3-.16.9-1.08,1.3-.81.19,1.61.57,1.91,3.37,3.1,3.72,3.58,2.91.64,3.09,1.41-.08,2.45-3.79,1.44-8.14-1.09-8.88-1.67S388.77,488,389.21,486.92Z" transform="translate(-0.21 -0.1)"/><path class="cls-12" d="M411.67,436.06s.35,1.41.9,1.72-2.59,3.31-2.59,3.31a27.48,27.48,0,0,1-1.24-3.07A19.69,19.69,0,0,1,411.67,436.06Z" transform="translate(-0.21 -0.1)"/><path class="cls-106" d="M401.92,401.75s-3.68,17.51-4,19.3S408.73,439,408.73,439l3.68-2.19s-8.94-16.25-8.93-17,4.29-14.85,4.29-14.85,1.79-3.08-1.38-4.57A3.16,3.16,0,0,0,401.92,401.75Z" transform="translate(-0.21 -0.1)"/><path class="cls-107" d="M413.83,437.27a59.13,59.13,0,0,1,1.12,7.78c-.07,1.82-6.87-2.87-6.52-4.68Z" transform="translate(-0.21 -0.1)"/><path class="cls-16" d="M404.2,395.68s9.34,10.2,8.76,9.07c-2-4-3.48-4.72-3.45-5.47,0-.57.24-2.25.28-2.81.08-1.07.15-1.94.15-1.94s-4.63-6.52-4.43-4.3S404.2,395.68,404.2,395.68Z" transform="translate(-0.21 -0.1)"/><path class="cls-16" d="M413.09,383.66a23,23,0,0,1,1.3,3.72,15.32,15.32,0,0,0-.05,2.06,27.52,27.52,0,0,1,.73,3.1c-.1.59-1.34.28-1.51,1.26s-1.08,2.8-1.53,2.84c-1.16.09-5.58-1.72-5.87-2.64s-1.88-6.09-2.38-7.08,7.8-6.36,8.55-4.81Z" transform="translate(-0.21 -0.1)"/><path class="cls-17" d="M401.8,385.9c-.58-2.56,2.36-2.87,2.36-2.87s1.91-2.23,6.49-2,3.89,6.25,3.89,6.25a16.92,16.92,0,0,0-4.55-.13,21.58,21.58,0,0,0,0,3.19l-1.73-.16s.19-2.26-.64-2.37-1.1,4.8-2.65,5.88a1.6,1.6,0,0,0-.21-.69h0a20,20,0,0,1-1.2-2.5A28.46,28.46,0,0,1,401.8,385.9Z" transform="translate(-0.21 -0.1)"/><path class="cls-16" d="M408.76,388.39a1.32,1.32,0,0,0-2.17-.61c-1.1.82,0,3.74,1.11,3.72S409.21,389.9,408.76,388.39Z" transform="translate(-0.21 -0.1)"/><path class="cls-108" d="M405.91,393.19a3.32,3.32,0,0,0,.48,1.13,9.68,9.68,0,0,0,3.43,1.79l-.18,1.82S405.71,396.41,405.91,393.19Z" transform="translate(-0.21 -0.1)"/><g class="cls-109"><path class="cls-23" d="M422.51,399v0Z" transform="translate(-0.21 -0.1)"/><rect class="cls-23" x="422.3" y="398.85" width="0.07" height="6.94"/><rect class="cls-24" x="422.37" y="398.85" width="0.07" height="6.94"/><rect class="cls-25" x="422.45" y="398.85" width="0.07" height="6.94"/><rect class="cls-26" x="422.52" y="398.85" width="0.07" height="6.94"/><rect class="cls-27" x="422.59" y="398.85" width="0.07" height="6.94"/><rect class="cls-28" x="422.66" y="398.85" width="0.07" height="6.94"/><rect class="cls-29" x="422.73" y="398.85" width="0.07" height="6.94"/><rect class="cls-30" x="422.8" y="398.85" width="0.07" height="6.94"/><rect class="cls-31" x="422.88" y="398.85" width="0.07" height="6.94"/><rect class="cls-32" x="422.95" y="398.85" width="0.07" height="6.94"/><rect class="cls-33" x="423.02" y="398.85" width="0.07" height="6.94"/><rect class="cls-34" x="423.09" y="398.85" width="0.07" height="6.94"/><rect class="cls-35" x="423.16" y="398.85" width="0.07" height="6.94"/><rect class="cls-36" x="423.23" y="398.85" width="0.07" height="6.94"/><rect class="cls-37" x="423.31" y="398.85" width="0.07" height="6.94"/><rect class="cls-38" x="423.38" y="398.85" width="0.07" height="6.94"/><rect class="cls-39" x="423.45" y="398.85" width="0.07" height="6.94"/><rect class="cls-40" x="423.52" y="398.85" width="0.07" height="6.94"/><rect class="cls-41" x="423.59" y="398.85" width="0.07" height="6.94"/><rect class="cls-42" x="423.66" y="398.85" width="0.07" height="6.94"/><rect class="cls-43" x="423.74" y="398.85" width="0.07" height="6.94"/><rect class="cls-44" x="423.81" y="398.85" width="0.07" height="6.94"/><rect class="cls-45" x="423.88" y="398.85" width="0.07" height="6.94"/><rect class="cls-46" x="423.95" y="398.85" width="0.07" height="6.94"/><rect class="cls-47" x="424.02" y="398.85" width="0.07" height="6.94"/><rect class="cls-48" x="424.1" y="398.85" width="0.07" height="6.94"/><rect class="cls-49" x="424.17" y="398.85" width="0.07" height="6.94"/><rect class="cls-50" x="424.24" y="398.85" width="0.07" height="6.94"/><rect class="cls-51" x="424.31" y="398.85" width="0.07" height="6.94"/><rect class="cls-52" x="424.38" y="398.85" width="0.07" height="6.94"/><rect class="cls-53" x="424.45" y="398.85" width="0.07" height="6.94"/><rect class="cls-54" x="424.53" y="398.85" width="0.07" height="6.94"/><rect class="cls-55" x="424.6" y="398.85" width="0.07" height="6.94"/><rect class="cls-56" x="424.67" y="398.85" width="0.07" height="6.94"/><rect class="cls-57" x="424.74" y="398.85" width="0.07" height="6.94"/><rect class="cls-58" x="424.81" y="398.85" width="0.07" height="6.94"/><rect class="cls-59" x="424.88" y="398.85" width="0.07" height="6.94"/><rect class="cls-60" x="424.96" y="398.85" width="0.07" height="6.94"/><rect class="cls-61" x="425.03" y="398.85" width="0.07" height="6.94"/><rect class="cls-62" x="425.1" y="398.85" width="0.07" height="6.94"/><rect class="cls-63" x="425.17" y="398.85" width="0.07" height="6.94"/><rect class="cls-64" x="425.24" y="398.85" width="0.07" height="6.94"/><rect class="cls-65" x="425.31" y="398.85" width="0.07" height="6.94"/><rect class="cls-66" x="425.39" y="398.85" width="0.07" height="6.94"/><rect class="cls-67" x="425.46" y="398.85" width="0.07" height="6.94"/><rect class="cls-68" x="425.53" y="398.85" width="0.07" height="6.94"/><rect class="cls-69" x="425.6" y="398.85" width="0.07" height="6.94"/><rect class="cls-70" x="425.67" y="398.85" width="0.07" height="6.94"/><rect class="cls-71" x="425.74" y="398.85" width="0.07" height="6.94"/><rect class="cls-72" x="425.82" y="398.85" width="0.07" height="6.94"/><rect class="cls-73" x="425.89" y="398.85" width="0.07" height="6.94"/><rect class="cls-74" x="425.96" y="398.85" width="0.07" height="6.94"/><rect class="cls-75" x="426.03" y="398.85" width="0.07" height="6.94"/><rect class="cls-76" x="426.1" y="398.85" width="0.07" height="6.94"/><rect class="cls-77" x="426.18" y="398.85" width="0.07" height="6.94"/><rect class="cls-78" x="426.25" y="398.85" width="0.07" height="6.94"/><rect class="cls-79" x="426.32" y="398.85" width="0.07" height="6.94"/><rect class="cls-80" x="426.39" y="398.85" width="0.07" height="6.94"/><rect class="cls-81" x="426.46" y="398.85" width="0.07" height="6.94"/><rect class="cls-82" x="426.53" y="398.85" width="0.07" height="6.94"/><rect class="cls-83" x="426.61" y="398.85" width="0.07" height="6.94"/><rect class="cls-84" x="426.68" y="398.85" width="0.07" height="6.94"/><rect class="cls-85" x="426.75" y="398.85" width="0.07" height="6.94"/><rect class="cls-86" x="426.82" y="398.85" width="0.07" height="6.94"/><rect class="cls-87" x="426.89" y="398.85" width="0.07" height="6.94"/><path class="cls-87" d="M427.17,405.88v0Z" transform="translate(-0.21 -0.1)"/></g><path class="cls-110" d="M425.77,400.57s-1.87,1-1.74,1.35a.54.54,0,0,0,.37.36l-.58.77s-.09.73.73.62c0,0-.16.67.62.47,0,0,.09.49.47.46a7,7,0,0,0,1.55-.74s.18-.26-.17-.67a.72.72,0,0,0-.17-.81.82.82,0,0,0-.31-.78s.18-.91-.57-1.12Z" transform="translate(-0.21 -0.1)"/><g class="cls-111"><path class="cls-23" d="M419.28,393.69v0Z" transform="translate(-0.21 -0.1)"/><rect class="cls-23" x="419.08" y="393.6" width="0.12" height="6.63"/><rect class="cls-24" x="419.19" y="393.6" width="0.12" height="6.63"/><rect class="cls-25" x="419.31" y="393.6" width="0.12" height="6.63"/><rect class="cls-26" x="419.43" y="393.6" width="0.12" height="6.63"/><rect class="cls-27" x="419.54" y="393.6" width="0.12" height="6.63"/><rect class="cls-28" x="419.66" y="393.6" width="0.12" height="6.63"/><rect class="cls-29" x="419.78" y="393.6" width="0.12" height="6.63"/><rect class="cls-30" x="419.9" y="393.6" width="0.12" height="6.63"/><rect class="cls-31" x="420.01" y="393.6" width="0.12" height="6.63"/><rect class="cls-32" x="420.13" y="393.6" width="0.12" height="6.63"/><rect class="cls-33" x="420.25" y="393.6" width="0.12" height="6.63"/><rect class="cls-34" x="420.36" y="393.6" width="0.12" height="6.63"/><rect class="cls-35" x="420.48" y="393.6" width="0.12" height="6.63"/><rect class="cls-36" x="420.6" y="393.6" width="0.12" height="6.63"/><rect class="cls-37" x="420.72" y="393.6" width="0.12" height="6.63"/><rect class="cls-38" x="420.83" y="393.6" width="0.12" height="6.63"/><rect class="cls-39" x="420.95" y="393.6" width="0.12" height="6.63"/><rect class="cls-40" x="421.07" y="393.6" width="0.12" height="6.63"/><rect class="cls-41" x="421.18" y="393.6" width="0.12" height="6.63"/><rect class="cls-42" x="421.3" y="393.6" width="0.12" height="6.63"/><rect class="cls-43" x="421.42" y="393.6" width="0.12" height="6.63"/><rect class="cls-44" x="421.54" y="393.6" width="0.12" height="6.63"/><rect class="cls-45" x="421.65" y="393.6" width="0.12" height="6.63"/><rect class="cls-46" x="421.77" y="393.6" width="0.12" height="6.63"/><rect class="cls-47" x="421.89" y="393.6" width="0.12" height="6.63"/><rect class="cls-48" x="422" y="393.6" width="0.12" height="6.63"/><rect class="cls-49" x="422.12" y="393.6" width="0.12" height="6.63"/><rect class="cls-50" x="422.24" y="393.6" width="0.12" height="6.63"/><rect class="cls-51" x="422.35" y="393.6" width="0.12" height="6.63"/><rect class="cls-52" x="422.47" y="393.6" width="0.12" height="6.63"/><rect class="cls-53" x="422.59" y="393.6" width="0.12" height="6.63"/><rect class="cls-54" x="422.71" y="393.6" width="0.12" height="6.63"/><rect class="cls-55" x="422.82" y="393.6" width="0.12" height="6.63"/><rect class="cls-56" x="422.94" y="393.6" width="0.12" height="6.63"/><rect class="cls-57" x="423.06" y="393.6" width="0.12" height="6.63"/><rect class="cls-58" x="423.17" y="393.6" width="0.12" height="6.63"/><rect class="cls-59" x="423.29" y="393.6" width="0.12" height="6.63"/><rect class="cls-60" x="423.41" y="393.6" width="0.12" height="6.63"/><rect class="cls-61" x="423.53" y="393.6" width="0.12" height="6.63"/><rect class="cls-62" x="423.64" y="393.6" width="0.12" height="6.63"/><rect class="cls-63" x="423.76" y="393.6" width="0.12" height="6.63"/><rect class="cls-64" x="423.88" y="393.6" width="0.12" height="6.63"/><rect class="cls-65" x="423.99" y="393.6" width="0.12" height="6.63"/><rect class="cls-66" x="424.11" y="393.6" width="0.12" height="6.63"/><rect class="cls-67" x="424.23" y="393.6" width="0.12" height="6.63"/><rect class="cls-68" x="424.34" y="393.6" width="0.12" height="6.63"/><rect class="cls-69" x="424.46" y="393.6" width="0.12" height="6.63"/><rect class="cls-70" x="424.58" y="393.6" width="0.12" height="6.63"/><rect class="cls-71" x="424.7" y="393.6" width="0.12" height="6.63"/><rect class="cls-72" x="424.81" y="393.6" width="0.12" height="6.63"/><rect class="cls-73" x="424.93" y="393.6" width="0.12" height="6.63"/><rect class="cls-74" x="425.05" y="393.6" width="0.12" height="6.63"/><rect class="cls-75" x="425.16" y="393.6" width="0.12" height="6.63"/><rect class="cls-76" x="425.28" y="393.6" width="0.12" height="6.63"/><rect class="cls-77" x="425.4" y="393.6" width="0.12" height="6.63"/><rect class="cls-78" x="425.52" y="393.6" width="0.12" height="6.63"/><rect class="cls-79" x="425.63" y="393.6" width="0.12" height="6.63"/><rect class="cls-80" x="425.75" y="393.6" width="0.12" height="6.63"/><rect class="cls-81" x="425.87" y="393.6" width="0.12" height="6.63"/><rect class="cls-82" x="425.99" y="393.6" width="0.12" height="6.63"/><rect class="cls-83" x="426.1" y="393.6" width="0.12" height="6.63"/><rect class="cls-84" x="426.22" y="393.6" width="0.12" height="6.63"/><rect class="cls-85" x="426.34" y="393.6" width="0.12" height="6.63"/><rect class="cls-86" x="426.45" y="393.6" width="0.12" height="6.63"/><rect class="cls-87" x="426.57" y="393.6" width="0.12" height="6.63"/><path class="cls-87" d="M426.89,400.33v0Z" transform="translate(-0.21 -0.1)"/></g><path class="cls-16" d="M422.5,402a7.27,7.27,0,0,1,2.28.29c.18.07.34.18.34.37s-.28.45-.92.5a5.21,5.21,0,0,0-1.42.41S422.11,403.39,422.5,402Z" transform="translate(-0.21 -0.1)"/><path class="cls-112" d="M408.09,454.08c-.12.58-.23,1.18-.35,1.77L404,445.94Z" transform="translate(-0.21 -0.1)"/><rect class="cls-20" x="101.14" y="226.86" width="74.85" height="109.09" rx="6.4"/><rect class="cls-113" x="164.16" y="297.31" width="3.88" height="29.52"/><rect class="cls-113" x="156.5" y="300.62" width="3.88" height="26.21"/><rect class="cls-113" x="148.18" y="304.92" width="3.88" height="21.91"/><rect class="cls-113" x="139.63" y="310.35" width="3.88" height="16.48"/><polygon class="cls-113" points="116.48 306.85 115.64 306.55 122.96 286.03 138.82 281.84 144.52 259.32 156.76 253.92 159.5 236.41 160.38 236.54 157.56 254.54 145.28 259.96 139.55 282.57 123.64 286.78 116.48 306.85"/><path class="cls-21" d="M141.23,280.79a2.38,2.38,0,1,1-3.34-.33A2.37,2.37,0,0,1,141.23,280.79Z" transform="translate(-0.21 -0.1)"/><path class="cls-113" d="M141.18,284.49a2.83,2.83,0,1,1,.4-4A2.85,2.85,0,0,1,141.18,284.49Zm-3-3.69a1.93,1.93,0,1,0,2.72.28A1.94,1.94,0,0,0,138.17,280.8Z" transform="translate(-0.21 -0.1)"/><path class="cls-21" d="M147,258.37a2.38,2.38,0,1,1-3.35-.34A2.37,2.37,0,0,1,147,258.37Z" transform="translate(-0.21 -0.1)"/><path class="cls-113" d="M147,262.06a2.83,2.83,0,1,1,.4-4A2.81,2.81,0,0,1,147,262.06Zm-3-3.69a1.94,1.94,0,0,0,2.45,3,1.94,1.94,0,0,0-2.45-3Z" transform="translate(-0.21 -0.1)"/><path class="cls-21" d="M159.06,252.81a2.38,2.38,0,1,1-3.35-.34A2.38,2.38,0,0,1,159.06,252.81Z" transform="translate(-0.21 -0.1)"/><path class="cls-113" d="M159,256.5a2.82,2.82,0,1,1,.4-4A2.83,2.83,0,0,1,159,256.5Zm-3-3.68a1.93,1.93,0,1,0,2.72.27A1.94,1.94,0,0,0,156,252.82Z" transform="translate(-0.21 -0.1)"/><path class="cls-21" d="M125.44,285.2a2.38,2.38,0,1,1-3.35-.34A2.38,2.38,0,0,1,125.44,285.2Z" transform="translate(-0.21 -0.1)"/><path class="cls-113" d="M125.38,288.89a2.83,2.83,0,1,1,.4-4A2.83,2.83,0,0,1,125.38,288.89Zm-3-3.68a1.93,1.93,0,1,0,2.72.27A1.92,1.92,0,0,0,122.37,285.21Z" transform="translate(-0.21 -0.1)"/><rect class="cls-114" x="109.09" y="257.83" width="23.83" height="4.94" rx="1.38"/><rect class="cls-114" x="109.09" y="249.2" width="23.83" height="4.94" rx="1.38"/><path class="cls-17" d="M92.2,266.83s-.7,6.81.56,8.52c0,0-3.33-.72-4.1-1.87S92.2,266.83,92.2,266.83Z" transform="translate(-0.21 -0.1)"/><path class="cls-16" d="M113,288.59l1.39-.93a3.42,3.42,0,0,1,1.52,0,4,4,0,0,1,1.69.62.6.6,0,0,1,.12.51,1.17,1.17,0,0,1-.25.56.75.75,0,0,1-.16.69.63.63,0,0,1-.27.65.55.55,0,0,1-.19.56,4.82,4.82,0,0,0-.86,0,10.25,10.25,0,0,1-2.74-.38S111.9,290.61,113,288.59Z" transform="translate(-0.21 -0.1)"/><path class="cls-100" d="M115.06,289.15a3.68,3.68,0,0,1-.55.77c-.19.12.93,1.33.93,1.33S115.82,289.62,115.06,289.15Z" transform="translate(-0.21 -0.1)"/><path class="cls-16" d="M112.29,288.71a5.27,5.27,0,0,0,1.23-.3c.47-.22-.09,2.36-.09,2.36a4.86,4.86,0,0,0-1.88-.8C110.81,289.94,112.29,288.71,112.29,288.71Z" transform="translate(-0.21 -0.1)"/><path class="cls-115" d="M80.77,357.57A42,42,0,0,0,84,361.78s1.66.87,1.71,1.55c.1,1.3.16,2.07-2,2.13s-3.54,0-3.94-1.33a10,10,0,0,0-1.09-2.36l-.17,3.44H78s-.22-3.44-.25-3.94-.36-2.38.68-3.22A2.9,2.9,0,0,1,80.77,357.57Z" transform="translate(-0.21 -0.1)"/><path class="cls-115" d="M84.29,362a5.39,5.39,0,0,1-2.58,0c-1.4-.35-2.75-3.71-3.16-4l-.36-1.36h2.73a5,5,0,0,0,.47,1.87A33.07,33.07,0,0,0,84.29,362Z" transform="translate(-0.21 -0.1)"/><path class="cls-115" d="M96.21,356.27a8.5,8.5,0,0,0,1,1.72c.49.65,2,3.29,2.7,3.48s2.77.55,3,1.72.28,2-1.78,2.09-3.41.21-4.4-1.23a10.53,10.53,0,0,0-2.55-2.49v3.77h-.8a33,33,0,0,0-.58-4.2c-.21-.28-.77-3.29,1.14-4.86S96.21,356.27,96.21,356.27Z" transform="translate(-0.21 -0.1)"/><path class="cls-115" d="M99.94,361.47s-1.84.46-2.55,0-3.11-4.53-3.91-4.77c0,0,.78-1.57,2.73-.43C96.21,356.27,99.42,360.79,99.94,361.47Z" transform="translate(-0.21 -0.1)"/><path class="cls-116" d="M79.72,299.82a19.24,19.24,0,0,0-3.3,7.39c-.71,4,.41,17.48.38,19.46s-1.75,8.15-1.38,11.89,2.3,19.32,2.3,19.32l4.51-.08s-.9-16.82-.67-18.39,1-8.24,1-8.88,5.14-17.72,5.14-20.61S86,295.1,79.72,299.82Z" transform="translate(-0.21 -0.1)"/><path class="cls-116" d="M92.79,301.14s4.27,16.31,4.78,18.57,1.52,5.21,1.47,5.62-.53,7.38-.53,7.38l-1.22,23.7h-4.5s-1.45-15.08-1.68-18.12,1.66-7.75,1.2-9-7.42-16.18-7.42-16.18S79.62,296.41,92.79,301.14Z" transform="translate(-0.21 -0.1)"/><path class="cls-96" d="M91.47,276.73a5.17,5.17,0,0,1,3,1.55,20,20,0,0,1,2.84,4.32c.33.74,5.08,7.58,5.32,7.73s2.32-.39,4-.53a36,36,0,0,0,6.76-1.6l.6,3.06s-10,3.21-12.27,2.65c-2.81-.69-9.28-9-9.28-9S87.59,279.25,91.47,276.73Z" transform="translate(-0.21 -0.1)"/><path class="cls-96" d="M88.48,275.53a22.72,22.72,0,0,0,3,1.2c.76.16,3.75,4,4.27,5.45s0,3.53-1.08,6-.06,3.32-.55,5.81a70.17,70.17,0,0,0-.4,10.66c.09,1.38-14.23,4-17.09,1.47,0,0,1.94-6.38,4.23-8.77.49-.52.44-4,.1-4.84s-4.15-7.28-4.15-7.28-.28-6.52,1.39-7.81c1.44-1.12,5.38-1.52,6.09-1.77A12.29,12.29,0,0,1,88.48,275.53Z" transform="translate(-0.21 -0.1)"/><path class="cls-117" d="M89.19,280.47l1.35-1.58-1.17-4.14A27.67,27.67,0,0,0,89.19,280.47Z" transform="translate(-0.21 -0.1)"/><path class="cls-16" d="M80.76,276.73A3.85,3.85,0,0,0,76.37,279c-1.6,3.07-1.2,4.73-1.57,6.11s-1.84,10.64-1.93,11-1.51,5.1-1.32,6.55,1.5,12.39,1.44,12.76,2.55-.36,2.55-.36-.1-11.17,0-12.09.18-5.77.87-7,2.4-8.86,2.77-9.64S83.11,277.73,80.76,276.73Z" transform="translate(-0.21 -0.1)"/><path class="cls-16" d="M89.54,273a53.4,53.4,0,0,0-.35,5.38s-2.3,2.31-4.91-2.69a6.85,6.85,0,0,0,.27-4.86C83.72,268,89.54,273,89.54,273Z" transform="translate(-0.21 -0.1)"/><polygon class="cls-16" points="88.99 278.27 88.99 280.37 86.51 278.18 88.99 278.27"/><polygon class="cls-117" points="88.99 280.37 87.89 279.01 84.19 275.32 82.8 275.94 88.99 280.37"/><polygon class="cls-118" points="90.33 278.8 92.03 279.27 89.16 274.65 90.33 278.8"/><polygon class="cls-118" points="87.89 279.01 86.34 281.49 82.74 275.85 84.28 275.07 87.89 279.01"/><path class="cls-117" d="M96,289.12a18.82,18.82,0,0,0,0-5.92s-.32,1.8-1.11,4.62Z" transform="translate(-0.21 -0.1)"/><path class="cls-117" d="M78.79,288.63s1.53-5.06,1.62-5.34a43.59,43.59,0,0,1-.69,6.95Z" transform="translate(-0.21 -0.1)"/><polygon class="cls-119" points="135.58 263.16 111.5 293.5 112.34 294.15 135.58 263.16"/><path class="cls-110" d="M117.43,288.24s-1.81-.17-1.87.12a.43.43,0,0,0,.09.43l-.78.27s-.41.47.22.78c0,0-.43.4.21.63,0,0-.17.39.11.55a6,6,0,0,0,1.45.22s.25-.1.19-.56a.62.62,0,0,0,.27-.65.69.69,0,0,0,.16-.69s.56-.57.13-1.07Z" transform="translate(-0.21 -0.1)"/><path class="cls-16" d="M114.46,287.66a6.39,6.39,0,0,1,1.47,1.28c.09.15.15.3.06.44s-.42.18-.89-.09a4.49,4.49,0,0,0-1.2-.4S113.5,288.48,114.46,287.66Z" transform="translate(-0.21 -0.1)"/><path class="cls-16" d="M87.68,259.16s4.07-.1,4.82,4.72-1,9.06-1.66,9.74-4.76.17-5.72-2.34S82.76,267,83,264.79,82.66,259.08,87.68,259.16Z" transform="translate(-0.21 -0.1)"/><path class="cls-17" d="M92.67,265.71s1.09-6-4.32-7.1-7.3,2.62-7.82,4.82.1,8.41.1,8.41,3.6,3.16,5.76,4c0,0-1.81-6.6-1.13-11.33a23.12,23.12,0,0,0,7.32,0S92.67,265.45,92.67,265.71Z" transform="translate(-0.21 -0.1)"/><path class="cls-18" d="M89.45,273.89a6.87,6.87,0,0,1-3.34-1.26A7.89,7.89,0,0,0,89.35,275S89.46,274.1,89.45,273.89Z" transform="translate(-0.21 -0.1)"/><rect class="cls-120" x="66.51" y="306.16" width="15.94" height="11.79" transform="translate(-49.52 15.99) rotate(-9.27)"/><path class="cls-16" d="M72.45,319a2.06,2.06,0,0,1-.27-.63s0-.42,0-.71c0-.1,0-.18,0-.23a4,4,0,0,1-.19-1.24,27.43,27.43,0,0,1,.8-2.92l1.39,0,1.31-.14A26.62,26.62,0,0,1,77,316.68a.75.75,0,0,1,0,.15,5.73,5.73,0,0,1-.25,1c0,.08-.21.92-.44,1a.83.83,0,0,1-.81,0,2,2,0,0,1-1.1.17,1.23,1.23,0,0,1-1.1,0S72.72,319.23,72.45,319Z" transform="translate(-0.21 -0.1)"/><path class="cls-96" d="M80.76,276.73A3.85,3.85,0,0,0,76.37,279a13.89,13.89,0,0,0-1.8,5.88c-.2,1.42-2.15,9.84-2.24,10.24s-.74,5.66-.78,7.58c0,1.45.3,11,.24,11.37s4.42-.64,4.42-.64-.5-8.81-.41-9.73.29-5.52.74-6.87c.53-1.59,2.62-9.59,3-10.37S83.11,277.73,80.76,276.73Z" transform="translate(-0.21 -0.1)"/><path class="cls-121" d="M224.94,359.5l.28-2.7s-3.81,0-4.25.29c0,0,.32,2.27.36,2.61S224.94,359.5,224.94,359.5Z" transform="translate(-0.21 -0.1)"/><path class="cls-122" d="M218.46,365.15c4.53,0,6.72.27,7.2-.47s-.7-5.42-.7-5.42a9.48,9.48,0,0,1-3.67.15,9.33,9.33,0,0,1-2.22,2c-1.09.6-2.8.84-3.45,1.45C215.16,363.27,213.92,365.19,218.46,365.15Z" transform="translate(-0.21 -0.1)"/><path class="cls-121" d="M199.41,359.5l.29-2.7s-3.81,0-4.26.29c0,0,.32,2.27.37,2.61S199.41,359.5,199.41,359.5Z" transform="translate(-0.21 -0.1)"/><path class="cls-122" d="M192.93,365.15c4.53-.12,6.72.27,7.21-.47s-.71-5.42-.71-5.42a8.73,8.73,0,0,1-3.66.15,9.56,9.56,0,0,1-2.22,2c-1.09.6-5.11,1.09-5.76,1.71C187.33,363.52,186.55,365.32,192.93,365.15Z" transform="translate(-0.21 -0.1)"/><path class="cls-10" d="M219.7,298.49A33.5,33.5,0,0,1,221.35,309c-.25,4.85,1,10.16,1.48,15.23.56,5.65,2.86,19,2.94,22.06s-.36,12.68-.36,12.68l-4.59.11S217,335.66,216,333.27s-6-19.4-6.12-21.31S219.7,298.49,219.7,298.49Z" transform="translate(-0.21 -0.1)"/><path class="cls-10" d="M200.4,299.49s-2.53,13.31-2.86,16.28-.55,14.37-.72,16.23-1.11,24.3-2,27.06h5.87s4.51-16.32,4.51-24,3.48-16.78,5.73-21.87,7.39-5.21,8.77-14.66C219.7,298.49,202.27,296.5,200.4,299.49Z" transform="translate(-0.21 -0.1)"/><path class="cls-16" d="M212.33,254s-4.63-1.73-6.76,1.79-1.93,10.58.4,11.45,5.84.41,7-1.79a17.66,17.66,0,0,0,2.22-7.53A4.63,4.63,0,0,0,212.33,254Z" transform="translate(-0.21 -0.1)"/><path class="cls-16" d="M206.75,267.05a3.86,3.86,0,0,1-.12,1.81c-.31.6,5.82.61,5.82.61a39.22,39.22,0,0,1,1.44-6C214.83,260.73,206.75,267.05,206.75,267.05Z" transform="translate(-0.21 -0.1)"/><path class="cls-123" d="M213.89,263.48s-.43.69-2.15.42-3.84-2.57-4.56-2.82-.72-.67-.72-.67l-.46.66-.76,0s.7-2.05-.36-2.89,1.1-6.65,6.63-4.72c0,0,4,.79,4.21,3.2A11,11,0,0,1,213.89,263.48Z" transform="translate(-0.21 -0.1)"/><path class="cls-124" d="M206.26,268.79s0-1.14.54-1.25,5.71-.61,6.35-.36v1.33S211.92,269.26,206.26,268.79Z" transform="translate(-0.21 -0.1)"/><path class="cls-16" d="M206.57,259.53c.1-.41,1.13-1.57,1.52-.33s-.59,2.92-1.15,2.77S206.32,260.56,206.57,259.53Z" transform="translate(-0.21 -0.1)"/><path class="cls-73" d="M206.26,268.79s-2.85,1-6.15,2.42a6.93,6.93,0,0,0-4.2,5.61c-.22,2.23-2.59,14-3,15s-5.7,17-5.88,17.38,4.28,2.19,4.58,2,5.09-14.64,5.57-15.71c0,0,2.75-8.69,2.83-10,0,0,.08,3.69.22,4.73s-2.45,21.15-2.37,21.7,11.81,1.26,16.51.75a57.72,57.72,0,0,0,8.49-1.6s-3.7-15.88-3.58-17.64c.24-3.83,1.53-11.06,1.53-11.06l3.83,7.23L219.7,302.3l1.13,3.84s9.11-13.77,9.41-15-.45-2.86-.93-3.9-3.64-8.92-4.38-10-2-5.55-5-6.79a46.43,46.43,0,0,0-6.77-1.88Z" transform="translate(-0.21 -0.1)"/><rect class="cls-125" x="180.1" y="298.53" width="22.16" height="15.46" transform="translate(81.85 -37.98) rotate(14.38)"/><path class="cls-126" d="M185.13,312.51s-.62,1-.84,1.27.55.46.88.17S185.13,312.51,185.13,312.51Z" transform="translate(-0.21 -0.1)"/><path class="cls-127" d="M189.6,315.89a2.48,2.48,0,0,0,.44-.62s.11-.45.2-.77a1.23,1.23,0,0,1,.09-.24,4.65,4.65,0,0,0,.49-1.3c.09-.61.36-3.36.36-3.36l-1.66-.42-1.34-.28a27.84,27.84,0,0,0-3,3.44.9.9,0,0,0,0,.16,4.84,4.84,0,0,0,0,1.14c0,.1,0,1.05.23,1.23a.94.94,0,0,0,.88.22,2.33,2.33,0,0,0,1.15.43,1.38,1.38,0,0,0,1.2.22S189.23,316.13,189.6,315.89Z" transform="translate(-0.21 -0.1)"/><path class="cls-73" d="M196.09,298.52s-3.81,11.54-4.51,12.75a12.64,12.64,0,0,1-4.58-2l4.18-12.45Z" transform="translate(-0.21 -0.1)"/><path class="cls-128" d="M588.43,316.51s14.14-41.48-12.85-54.34S525.67,267.9,521.34,278s-3.19,28.35.51,41.11S525,351.24,517,357.73,499,375,499.51,397c.3,13.62,53.59-34.84,53.59-34.84Z" transform="translate(-0.21 -0.1)"/><path class="cls-20" d="M550.5,365.86s-22.19,4.92-31,10.06-28.36,28.82-28.36,39,85.52,19.69,85.52,19.69l16.21,59.18s43.22-10.55,48.37-19.3S624.83,403,621.14,390.35c-3.76-12.94-19.26-22-37.27-24.49A123.82,123.82,0,0,0,550.5,365.86Z" transform="translate(-0.21 -0.1)"/><path class="cls-16" d="M582.33,365.65s-.5,27-21.88,27.77-16.94-25.86-16.94-25.86S559.16,361.22,582.33,365.65Z" transform="translate(-0.21 -0.1)"/><path class="cls-128" d="M591.38,284.28s7.57,43.37-14,74.7C555.09,391.43,591.38,284.28,591.38,284.28Z" transform="translate(-0.21 -0.1)"/><path class="cls-16" d="M577.74,346.59s-1.48,12.9,1,20.92-32.7,8.24-32.68,1.65c0-7.5,3.6-13.76.23-26.6S577.74,346.59,577.74,346.59Z" transform="translate(-0.21 -0.1)"/><path class="cls-18" d="M550.45,348.23s11.11,11.58,25.32,1.21c0,0-1.18,7.4-11.39,8.35S550.45,348.23,550.45,348.23Z" transform="translate(-0.21 -0.1)"/><path class="cls-16" d="M564.36,269.25s28.08,8.3,24.07,47.26-22.35,37-24.07,37.24-23.49,1.72-30.36-45.54S564.36,269.25,564.36,269.25Z" transform="translate(-0.21 -0.1)"/><path class="cls-128" d="M557.12,286.62s15.25,24.27,31.31,29.89c0,0,8.76-40.71-27.45-49.24s-30.53,41.12-27.83,54.36C533.15,321.63,540.69,302.15,557.12,286.62Z" transform="translate(-0.21 -0.1)"/><path class="cls-37" d="M536.66,283s8-15.55,21.58-16.24,21.63,11.07,21.63,11.07-5.3-13.25-21.61-13.25S536.66,283,536.66,283Z" transform="translate(-0.21 -0.1)"/><polygon class="cls-129" points="591.65 405.17 601.17 493.69 475.87 493.69 466.35 405.17 591.65 405.17"/><path class="cls-129" d="M598.36,490.74H472l-9.64-89.6h126.4Zm-125.42-1.09h124.2l-9.4-87.42H463.53Z" transform="translate(-0.21 -0.1)"/><path class="cls-130" d="M474.16,448.09c1.12,5.51-1.44,10.68-5.74,11.56s-8.68-2.87-9.81-8.38,1.44-10.68,5.74-11.56S473,442.59,474.16,448.09Z" transform="translate(-0.21 -0.1)"/><rect class="cls-129" x="565.95" y="484.88" width="23.38" height="8.9" transform="translate(1155.08 978.57) rotate(180)"/><path class="cls-6" d="M449.25,228a19.28,19.28,0,1,1,19.28-19.28A19.3,19.3,0,0,1,449.25,228Zm0-37.46a18.19,18.19,0,1,0,18.18,18.18A18.21,18.21,0,0,0,449.25,190.56Z" transform="translate(-0.21 -0.1)"/><path class="cls-131" d="M128.28,424v-1.64c3.27,0,6.56-.12,9.79-.27l.08,1.64C134.89,423.89,131.57,424,128.28,424Zm-9.86-.1c-3.24-.09-6.55-.24-9.85-.45l.1-1.64c3.28.21,6.58.36,9.8.45Zm29.56-.83-.15-1.63c3.24-.28,6.51-.63,9.74-1l.21,1.62C154.53,422.44,151.23,422.8,148,423.08Zm-49.24-.41c-3.36-.33-6.66-.76-9.79-1.27l.26-1.62c3.1.51,6.36.93,9.69,1.26Zm68.79-2.08-.27-1.62c3.16-.53,6.4-1.13,9.63-1.8l.33,1.61C174,419.45,170.71,420.06,167.53,420.59Zm-88.27-1.14c-3.31-.8-6.5-1.72-9.51-2.76l.54-1.55c2.95,1,6.1,1.93,9.35,2.72Zm107.58-2.82-.38-1.59c3-.73,6.12-1.51,9.51-2.42l.42,1.59C193,415.11,189.86,415.91,186.84,416.63ZM60.57,413a73.23,73.23,0,0,1-8.65-4.87l.9-1.37a70,70,0,0,0,8.46,4.76Zm145.31-1.36-.45-1.58,4.08-1.15,5.39-1.52.44,1.58L210,410.45Zm85.43-1.37c-3-1.43-6.05-2.69-9-3.75l.55-1.54a98.34,98.34,0,0,1,9.15,3.81Zm-66.5-3.85-.41-1.59c3.53-.91,6.68-1.64,9.61-2.24l.33,1.6C231.43,404.75,228.31,405.48,224.81,406.38ZM273,403.73a77.29,77.29,0,0,0-9.59-1.58l.16-1.64a78.55,78.55,0,0,1,9.8,1.63Zm-29-1.21-.21-1.62a93.23,93.23,0,0,1,9.87-.76l0,1.64A92.41,92.41,0,0,0,244,402.52ZM44.09,402a56,56,0,0,1-6.66-7.4l1.32-1a52.66,52.66,0,0,0,6.46,7.18ZM32.25,386a57.87,57.87,0,0,1-3.59-9.29l1.58-.45a54.88,54.88,0,0,0,3.48,9Zm-5.62-19a77.77,77.77,0,0,1-.67-9.91H27.6a76.32,76.32,0,0,0,.65,9.7Zm1.45-19.65-1.63-.17c.33-3.21.82-6.51,1.47-9.8l1.61.32C28.89,341,28.4,344.21,28.08,347.37Zm3.76-19.14-1.58-.46a88.06,88.06,0,0,1,3.22-9.41L35,319A85.14,85.14,0,0,0,31.84,328.23Z" transform="translate(-0.21 -0.1)"/><path class="cls-131" d="M552.55,129.34s-2.77-2.45-7.67-6.1l1-1.31c5,3.69,7.75,6.16,7.78,6.19ZM536.86,117.6c-2.7-1.8-5.48-3.57-8.28-5.25l.84-1.41c2.83,1.7,5.63,3.48,8.35,5.29Zm-16.8-10.11c-2.88-1.55-5.81-3-8.73-4.44l.71-1.48c2.94,1.41,5.9,2.91,8.8,4.48ZM502.39,99c-3-1.27-6.1-2.46-9.13-3.54l.55-1.55c3.06,1.1,6.16,2.3,9.21,3.58ZM377.86,97l0-1.64a68,68,0,0,0,9.66-.91l.27,1.62A69.73,69.73,0,0,1,377.86,97Zm-9.92-.51a71.6,71.6,0,0,1-9.74-1.92l.42-1.58a71.55,71.55,0,0,0,9.53,1.87Zm29.49-2.65L397,92.3c1-.31,2.13-.65,3.19-1,2-.69,4.14-1.33,6.21-1.92l.44,1.58c-2,.58-4.11,1.21-6.13,1.89C399.6,93.21,398.5,93.56,397.43,93.87ZM484,92.46c-3.14-.93-6.33-1.76-9.46-2.49l.37-1.6c3.16.74,6.38,1.58,9.56,2.52Zm-135.16-1c-2.88-1.13-5.84-2.43-9.05-4l.72-1.47c3.16,1.53,6.08,2.81,8.93,3.92Zm67.52-2.83-.33-1.6c3.22-.65,6.5-1.18,9.77-1.58l.2,1.63C422.72,87.51,419.48,88,416.31,88.67Zm48.59-.6c-3.23-.53-6.49-1-9.7-1.27l.16-1.63c3.24.31,6.54.74,9.8,1.28Zm-288-1.56-.9-1.38c2.81-1.82,5.62-3.58,8.36-5.23l.85,1.41C182.47,83,179.68,84.7,176.89,86.51Zm258.79-.22-.08-1.63c3.26-.16,6.58-.19,9.89-.1l0,1.64C442.18,86.11,438.9,86.14,435.68,86.29ZM331,83c-2.78-1.51-5.54-3.07-8.6-4.79l.81-1.43c3.05,1.72,5.8,3.27,8.57,4.78ZM193.68,76.4,192.89,75c2.93-1.62,5.87-3.17,8.73-4.59l.73,1.47C199.51,73.26,196.6,74.79,193.68,76.4Zm120.14-3c-3.21-1.76-6.05-3.26-8.68-4.57l.74-1.47c2.64,1.33,5.5,2.83,8.72,4.6Zm-102.6-5.69-.65-1.51c3.09-1.34,6.17-2.57,9.17-3.67l.56,1.54C217.33,65.16,214.28,66.39,211.22,67.72Zm85-3c-3.14-1.32-6.13-2.45-9.13-3.43l.51-1.56c3.05,1,6.08,2.14,9.26,3.48ZM229.59,61l-.46-1.58c3.23-.93,6.47-1.72,9.61-2.36l.33,1.61C236,59.34,232.78,60.12,229.59,61Zm48.15-2.3a88.44,88.44,0,0,0-9.6-1.57l.18-1.63a93.74,93.74,0,0,1,9.77,1.59Zm-29-1.52-.17-1.63a94.7,94.7,0,0,1,9.89-.55v1.63A94.42,94.42,0,0,0,248.7,57.22Z" transform="translate(-0.21 -0.1)"/><polygon class="cls-132" points="356.14 428.12 314.94 416.14 327.29 412.42 356.14 428.12"/><polygon class="cls-133" points="356.14 428.12 340.74 412.65 331.26 414.58 356.14 428.12"/><polygon class="cls-134" points="324.42 418.89 324.75 423.66 356.14 428.12 324.42 418.89"/><polygon class="cls-132" points="140.81 113.66 177.12 93.35 164.63 92.53 140.81 113.66"/><polygon class="cls-133" points="140.81 113.66 151.98 95.69 161.35 95.44 140.81 113.66"/><polygon class="cls-134" points="168.76 98.03 169.49 102.6 140.81 113.66 168.76 98.03"/></svg>