<?xml version="1.0" encoding="utf-8"?>
<!-- Generator: Adobe Illustrator 24.1.2, SVG Export Plug-In . SVG Version: 6.00 Build 0)  -->
<svg version="1.1" id="Layer_1" xmlns="http://www.w3.org/2000/svg" xmlns:xlink="http://www.w3.org/1999/xlink" x="0px" y="0px"
	 viewBox="0 0 1568 1568" style="enable-background:new 0 0 1568 1568;" xml:space="preserve">
<style type="text/css">
	.st0{clip-path:url(#SVGID_2_);}
	.st1{fill:#D7B7B6;}
	.st2{fill:#F3F4EB;}
	.st3{fill:#A4A4A5;}
	.st4{fill:#C07E74;}
	.st5{fill:#E4C6A4;}
	.st6{fill:#CD9E82;}
	.st7{fill:#E0E4EB;}
	.st8{fill:#3D3131;}
	.st9{fill:#C0A2AA;}
	.st10{fill:#FFF7D0;}
	.st11{fill:#BABAB8;}
	.st12{fill:#7B3535;}
	.st13{fill:#A88C94;}
	.st14{fill:#916D61;}
	.st15{fill:#BC9C80;}
	.st16{fill:#573F3D;}
	.st17{fill:#FFC7AC;}
	.st18{fill:#414F50;}
	.st19{fill:#879393;}
	.st20{fill:#2E3837;}
	.st21{fill:#C76B42;}
	.st22{fill:#3B221D;}
	.st23{fill:#AA9F11;}
	.st24{fill:#637171;}
	.st25{fill:#DE9086;}
	.st26{fill:url(#XMLID_109_);}
	.st27{fill:#C82238;}
	.st28{fill:#3E202C;}
	.st29{fill:#951D04;}
	.st30{fill:#FFFFFF;}
	.st31{fill:#C92C12;}
	.st32{fill:#CE460B;}
	.st33{fill:#FE938B;}
	.st34{fill:#4C2832;}
	.st35{fill:#3093AA;}
	.st36{fill:#529493;}
	.st37{fill:url(#XMLID_161_);}
	.st38{fill:url(#XMLID_166_);}
	.st39{fill:url(#XMLID_167_);}
	.st40{fill:#5B6C7E;}
	.st41{fill:#A37872;}
	.st42{fill:#4B5C6B;}
	.st43{fill:#76899B;}
	.st44{fill:#F36519;}
	.st45{fill:#22200B;}
	.st46{fill:#F28C1C;}
	.st47{fill:url(#XMLID_168_);}
	.st48{fill:#82D0C3;}
	.st49{fill:#427E7F;}
	.st50{fill:#C32234;}
	.st51{fill:#9E1134;}
	.st52{fill:#E87E71;}
	.st53{fill:#DEDEDE;}
	.st54{fill:url(#XMLID_169_);}
	.st55{fill:#E54438;}
	.st56{fill:url(#XMLID_170_);}
	.st57{fill:#DEF6F6;}
	.st58{fill:#ED5F77;}
	.st59{fill:url(#XMLID_171_);}
	.st60{fill:url(#XMLID_172_);}
	.st61{fill:url(#XMLID_173_);}
	.st62{fill:url(#XMLID_174_);}
	.st63{fill:url(#XMLID_175_);}
</style>
<g id="XMLID_165_">
	<g>
		<defs>
			<rect id="SVGID_1_" width="1568" height="1568"/>
		</defs>
		<clipPath id="SVGID_2_">
			<use xlink:href="#SVGID_1_"  style="overflow:visible;"/>
		</clipPath>
		<g id="XMLID_6_" class="st0">
			<rect id="XMLID_1_" class="st1" width="1568" height="1568"/>
			<g id="XMLID_149_">
				<rect id="XMLID_125_" x="-52.7" y="237.1" class="st2" width="459.1" height="55.3"/>
				<rect id="XMLID_148_" x="-52.7" y="274.7" class="st3" width="459.1" height="17.6"/>
				<g id="XMLID_146_">
					<rect id="XMLID_126_" x="-26.3" y="292.4" class="st4" width="405.6" height="1036.7"/>
					<g id="XMLID_142_">
						<rect id="XMLID_127_" x="176.5" y="292.4" class="st5" width="202.8" height="1029.9"/>
						<rect id="XMLID_129_" x="182.3" y="292.4" class="st6" width="23.2" height="1029.9"/>
						<rect id="XMLID_133_" x="290.3" y="292.4" class="st6" width="23.2" height="1029.9"/>
						<rect id="XMLID_131_" x="232.1" y="292.4" class="st6" width="12.9" height="1029.9"/>
						<rect id="XMLID_132_" x="262.3" y="292.4" class="st6" width="12.9" height="1029.9"/>
					</g>
					<g id="XMLID_144_">
						<rect id="XMLID_128_" x="-52.7" y="327.4" class="st7" width="202.8" height="458"/>
						<rect id="XMLID_130_" x="-42.4" y="350.3" class="st8" width="171.5" height="412.2"/>
						<rect id="XMLID_134_" x="-26.6" y="366.1" class="st7" width="139.9" height="380.6"/>
						<rect id="XMLID_135_" x="-42.4" y="515.5" class="st8" width="155.7" height="40.8"/>
						<rect id="XMLID_136_" x="43.2" y="366.1" class="st8" width="5.5" height="381.7"/>
						<rect id="XMLID_143_" x="-97.5" y="437.2" class="st8" width="219.4" height="5.5"/>
						<rect id="XMLID_145_" x="-97.5" y="644.8" class="st8" width="219.4" height="5.5"/>
					</g>
				</g>
			</g>
			<polygon id="XMLID_147_" class="st9" points="1568,0 0,0 0,16.9 1568,749.1 			"/>
			<g id="XMLID_358_">
				<rect id="XMLID_353_" x="1494.8" y="739.9" class="st4" width="20.8" height="565.8"/>
				<polygon id="XMLID_199_" class="st10" points="1592.8,776.2 1417.3,776.2 1459,644 1551.1,644 				"/>
			</g>
			<rect id="XMLID_13_" y="1258" class="st11" width="1568" height="310"/>
			<rect id="XMLID_368_" x="1342" y="1076.8" class="st12" width="298.4" height="195.7"/>
			<rect id="XMLID_366_" x="1342" y="1051.5" class="st6" width="298.4" height="47.1"/>
			<g id="XMLID_154_">
				<polygon id="XMLID_153_" class="st13" points="1343.3,416.2 1440.8,458.3 1440.8,415.6 				"/>
				<polygon id="XMLID_152_" class="st13" points="1440.8,489.9 1612,566.6 1590.9,416.2 1467.1,415.6 				"/>
				<g id="XMLID_151_">
					<rect id="XMLID_140_" x="1440.8" y="400.4" class="st14" width="20.3" height="89.6"/>
					<rect id="XMLID_150_" x="1440.8" y="400.4" class="st15" width="20.3" height="30.8"/>
					<rect id="XMLID_137_" x="1343.3" y="384.6" class="st2" width="247.6" height="31.6"/>
					<polygon id="XMLID_141_" class="st16" points="1494.5,284.2 1530.3,384.6 1454.5,384.6 					"/>
					<polygon id="XMLID_138_" class="st14" points="1414.4,202.6 1530.3,202.6 1494.5,384.6 1378.6,384.6 					"/>
					<polygon id="XMLID_139_" class="st2" points="1433.4,218.6 1505,218.6 1479.2,350.1 1407.3,350.1 					"/>
				</g>
			</g>
			<g id="XMLID_3_">
				<path id="XMLID_63_" class="st17" d="M1226.4,836.3c34.2,6.1,68.2,12.9,101.9,20.5c6.3,1.3,12.9,2.9,18.7,5.8
					c1.1,0.5,2.4,1.8,1.3,2.6c-25.8,26.3-71.1,18.2-107.7,14.2c-3.2-0.3-6.6-0.8-9-2.9c-1.8-1.6-2.6-4-3.7-6.3
					C1223.5,857.4,1227.7,849.5,1226.4,836.3z"/>
				<g id="XMLID_42_">
					<path id="XMLID_120_" class="st18" d="M440.4,1029.4H229.2l-12.6,412h176.7h46.9h47.1v-359
						C487.3,1053.1,466.2,1029.4,440.4,1029.4z"/>
					<path id="XMLID_121_" class="st19" d="M276,1441.3h-93.8v-365.1c0-25.8,21.1-46.9,46.9-46.9l0,0c25.8,0,46.9,21.1,46.9,46.9
						V1441.3z"/>
				</g>
				<path id="XMLID_119_" class="st20" d="M1298.8,1455.5H271.3v-212.8c0-48.7,31.6-62.2,70.3-62.2l957.2-25.8L1298.8,1455.5
					L1298.8,1455.5z"/>
				<g id="XMLID_124_">
					<path id="XMLID_123_" class="st21" d="M367.7,1101.3c0,0,15.8-115.9,47.9-200.2c12.4-32.4,43.5-53.7,78-53.7h909.5
						c37.7,0,65.3,35.6,55.8,71.9l-44.8,175.9l-47.4,124.3H351.9L367.7,1101.3z"/>
					<g id="XMLID_225_">
						<path id="XMLID_228_" class="st22" d="M1403.4,847.3L1403.4,847.3c-9,0-17.1,5.3-20.5,13.4c-32.1,75.9-77.7,208.6-81.9,358.5
							h65.8l47.7-124.1l44.8-175.9C1468.7,882.9,1441,847.3,1403.4,847.3z"/>
					</g>
				</g>
				<path id="XMLID_62_" class="st23" d="M1216.6,901.6c15.3-17.9,25.8-42.1,30.8-65.1c-29-7.4-58.7-11.3-88.5-12.4
					c-5.8,22.1-11.6,42.4-10,65.3c0,1.6,0.3,2.9,1.1,4.2c1.6,2.6,4.7,3.2,7.6,3.4c17.6,1.8,35.6,1.8,53.2,0.3
					C1212.4,897.4,1215,901.9,1216.6,901.6z"/>
				<polygon id="XMLID_257_" class="st23" points="1244.5,847.3 1148.7,878.4 1158.7,834.4 				"/>
				<path id="XMLID_221_" class="st24" d="M1253.8,1239.5H313.2c-20.8,0-37.7-16.9-37.7-37.7l0,0c0-20.8,16.9-37.7,37.7-37.7h940.6
					V1239.5z"/>
				<g id="XMLID_8_">
					<path id="XMLID_78_" class="st17" d="M633.5,1147.9c-17.6-24-35-48.2-55.3-69.8c-7.6,3.7-15.5,8.4-21.9,14.2
						c14.8,23.2,35.3,40.8,57.4,57.2c4.7,3.4,9.5,6.8,14.5,9.7c4.2,2.4,8.4,4.2,12.9,5.8C642.7,1159.2,636.9,1152.6,633.5,1147.9z"
						/>
					<path id="XMLID_60_" class="st25" d="M456.2,1091c-6.3-10.5-15-15.5-25.5-22.1c1.8,1.1-29.8,38.7-33.2,41.9
						c-14,12.4-30.3,22.7-45.6,33.7c-5,1.3-9.5,3.2-11.6,4.5c-6.1,3.4-11.1,10-10.3,17.1c9.5,1.3,19,1.8,28.4,1.6
						c1.3,0,2.6-0.3,3.7-1.1c0.8-0.5,1.3-1.3,1.6-2.1c1.3-2.4,2.4-4.7,3.4-7.4c32.7-14.2,62.4-35.3,88-60.3c0.8-0.8,1.3-1.3,1.6-2.4
						C457.5,1093.1,457,1092,456.2,1091z"/>
					<g id="XMLID_61_">
						<g id="XMLID_465_">
							<path id="XMLID_466_" class="st17" d="M342.7,1155.3c5.3-4.7,11.3-7.9,17.4-11.3c30.6-17.6,56.9-42.1,76.9-71.1
								c-2.1-1.3-4.2-2.6-6.3-4.2c1.8,1.1-29.8,38.7-33.2,41.9c-14,12.4-30.3,22.7-45.6,33.7c-5,1.3-9.5,3.2-11.6,4.5
								c-6.1,3.4-11.1,10-10.3,17.1c1.3,0.3,2.9,0.3,4.2,0.5C336.4,1162.1,339.3,1158.2,342.7,1155.3z"/>
						</g>
					</g>
					
						<linearGradient id="XMLID_109_" gradientUnits="userSpaceOnUse" x1="502.94" y1="558.1283" x2="513.4187" y2="417.1424" gradientTransform="matrix(1 0 0 -1 0 1568.7)">
						<stop  offset="0" style="stop-color:#5AE6DB"/>
						<stop  offset="1" style="stop-color:#3093AA"/>
					</linearGradient>
					<path id="XMLID_77_" class="st26" d="M531.3,1160c-30,4.7-61.1,2.9-90.3-5.5c-6.1-1.8-11.1-3.2-14.8-8.2
						c4.2-18.7,10.5-37.9,18.7-55.3c-12.6-8.4-23.4-20.5-31.1-33.7c15-7.4,26.9-19.8,39.8-30.8c12.9-11.1,28.2-20.5,44.8-20.3
						c15,0.3,29.8-0.3,42.4,8.2c12.6,8.4,22.1,20.3,31.1,32.4s17.6,24.8,29,34.5c-15.8,9.2-31.9,18.2-47.7,27.4
						c-3.7-6.6-8.2-12.9-12.9-18.4c0,22.4,1.1,45,4.7,67.2C540.2,1158.4,535.7,1159.2,531.3,1160z"/>
					<path id="XMLID_76_" class="st25" d="M488.3,1002.5c-2.4,11.1-10,25.3,3.4,32.1c13.7,7.4,22.4-7.6,25.5-18.7
						c1.3-4.7,2.6-10,0.3-14.2C507.8,1002.2,497.8,1002.8,488.3,1002.5L488.3,1002.5z"/>
					<path id="XMLID_82_" class="st25" d="M381.9,1270.9c-4.7,5.3-10.5,9.7-17.1,12.4c-2.4,1.1-5,1.8-7.6,1.6
						c-2.6-0.3-5.3-2.4-5.5-5c-0.3-2.9,2.1-5.5,4.2-7.6c6.1-6.1,11.1-13.4,14.8-21.3c1.3-2.6,4.2-4.7,7.1-4.7
						c2.4,4.7,9,8.4,9.5,13.7C387.5,1263.3,384,1268.3,381.9,1270.9z"/>
					<path id="XMLID_10_" class="st25" d="M438.8,1284.8c-4.7,5.3-10.5,9.7-17.1,12.4c-2.4,1.1-5,1.8-7.6,1.6s-5.3-2.4-5.5-5
						c-0.3-2.9,2.1-5.5,4.2-7.6c6.1-6.1,11.1-13.4,14.8-21.3c1.3-2.6,4.2-4.7,7.1-4.7c2.4,4.7,9,8.4,9.5,13.7
						C444.6,1277.5,441.2,1282.5,438.8,1284.8z"/>
					<path id="XMLID_81_" class="st27" d="M422.2,1146.8c-5-0.8-10-1.6-14.8-2.4c-12.9-2.1-27.4-4.2-38.5,3.2
						c-13.4,8.7-16.1,26.9-16.1,42.7c0.3,22.7,3.7,45,10.5,66.6c7.9,0.3,16.6,1.3,24.8,1.6c-0.5-4.7-1.3-9-1.8-13.4
						c-1.1-10.5-1.8-21.1-1.1-31.9c1.1-11.3,4.2-22.7,9.5-32.9c15-1.8,29.2-1.8,44.3-3.7c1.1,0,2.1-0.3,2.6-1.1
						c1.3-1.1,0.8-3.2,0-4.7C438,1161.6,432.2,1148.7,422.2,1146.8z"/>
					<g id="XMLID_54_">
						<path id="XMLID_73_" class="st25" d="M459.9,975.1c-5.5-2.1-9.7-6.6-12.6-11.9c-2.9-5-4.2-10.8-5.3-16.6
							c-0.5-2.9-0.8-6.1,0.3-8.7c1.1-2.6,4-5,6.8-4.5c2.6,0.5,4.7,2.9,6.1,5.3c3.2,5,6.3,10.8,6.1,16.9
							C461.2,961.7,460.2,968.8,459.9,975.1z"/>
						<path id="XMLID_75_" class="st28" d="M462.8,957.7c-4-8.7-6.6-17.9-8.2-27.4c-1.1-6.6-1.6-14,2.1-19.5
							c2.6-4.2,7.4-7.1,11.6-9.7c5.3,4.5,8.4,11.1,8.4,17.9c0,6.8-2.4,13.4-5.3,19.5C468.6,944.5,464.9,951.4,462.8,957.7z"/>
						<path id="XMLID_64_" class="st17" d="M464.4,933.2c-2.6,10-10.5,17.9-12.1,27.9c-1.1,6.8,1.1,14,4,20
							c8.2,16.9,24.2,30.3,42.7,34.2c30.8,6.6,47.9-27.7,53.2-52.7c2.9-13.7,2.1-28.2-4-40.8c-6.1-12.4-17.1-22.1-30-26.3
							c-10.8-3.7-24.5-4.2-35.6-0.5C465.2,900.8,468.3,918.7,464.4,933.2z"/>
						<path id="XMLID_65_" class="st29" d="M526.3,968.5c-13.4,1.6-26.9,1.1-40.3,0.5c-6.1-0.3-12.1-0.5-17.4-2.9
							c0.5,1.6,0.5,3.7,1.1,5.5c4.7,17.4,15,21.3,32.4,20.3C514.4,991.4,523.4,980.1,526.3,968.5z"/>
						<path id="XMLID_340_" class="st30" d="M524.9,972.5c0.5-1.3,0.8-2.4,1.3-3.7c-13.4,1.6-26.9,1.1-40.3,0.5
							c-4.2-0.3-8.2-0.3-12.1-1.1c0,2.9,0,6.1,0,6.1C491,976.4,508.1,974.6,524.9,972.5z"/>
						<path id="XMLID_338_" class="st31" d="M482.8,989.6c5,2.4,11.3,2.9,19.2,2.6c7.9-0.5,14.5-5.3,19-11.6
							C507.6,978.5,493.9,982.2,482.8,989.6z"/>
						
							<ellipse id="XMLID_66_" transform="matrix(3.442086e-02 -0.9994 0.9994 3.442086e-02 -481.4608 1386.5874)" class="st28" cx="476.9" cy="942.5" rx="8.7" ry="4.5"/>
						
							<ellipse id="XMLID_68_" transform="matrix(3.442086e-02 -0.9994 0.9994 3.442086e-02 -444.0869 1425.2794)" class="st28" cx="515.6" cy="942.5" rx="8.7" ry="4.5"/>
						<path id="XMLID_67_" class="st32" d="M487.3,926.9c-5.8-0.3-11.3-0.3-17.1,0.5c0-1.8,0.3-3.4,2.1-4c1.6-0.8,3.7-0.5,5.3-0.3
							C480.2,923.5,484.9,925.3,487.3,926.9z"/>
						<path id="XMLID_69_" class="st32" d="M529.4,930.3c-6.6-3.7-14.8-2.9-22.1-1.8c2.6-2.6,5.3-4.7,8.7-5.5
							c2.6-0.8,5.8-1.1,8.2,0.3C526.8,924.5,530,927.7,529.4,930.3z"/>
						<path id="XMLID_70_" class="st33" d="M491.5,956.4c-2.1-0.3-4.2-1.1-5.5-2.6c-1.3-1.6-1.8-4-0.8-5.8c1.8-2.9,6.3-2.9,8.2-5.5
							C493.9,947.2,492.8,952.2,491.5,956.4z"/>
						<path id="XMLID_71_" class="st17" d="M538.1,989.1c9.2-1.3,17.6-6.3,25-11.9c4-2.9,7.6-5.8,10.5-9.7c2.9-4,4.7-8.7,4-13.4
							c-0.3-2.6-1.6-5.3-4.2-6.6c-1.3-0.8-3.2-0.8-4.7-0.5c-10,0.8-18.4,8.2-24.8,16.1C539.2,969.3,538.6,980.9,538.1,989.1z"/>
						<path id="XMLID_72_" class="st25" d="M548.4,978.8c2.6-8.7,9.2-16.3,17.4-20.3c-2.9,2.9-5.5,5.8-8.4,8.7
							c1.8-0.8,3.7,2.4,3.2,4.5c-0.5,2.1-2.4,3.4-4.2,4c0.5-0.8,1.1-1.6,0.8-2.4c-0.3-0.8-1.1-1.6-1.8-1.3c-0.3,0.3-0.5,0.5-0.8,0.8
							C553.1,974.3,549.7,976.9,548.4,978.8z"/>
						<path id="XMLID_74_" class="st28" d="M561,931.1c0.5-10,0.3-20.5-3.4-30c-3.7-9.5-11.6-17.6-21.6-19.5
							c2.4,3.4,3.2,7.6,2.6,11.6c-4.5-6.6-10.5-12.4-17.4-16.3c-14.2-8.2-32.7-11.3-44-23.2c-4,1.6-7.9,3.7-11.1,6.3
							c-5.3,4.5-8.7,11.3-9,18.2c0,6.8,3.7,14,9.7,17.4c-4.5-0.8-8.7-2.9-12.1-5.8c1.1,10.5,8.7,20,18.7,23.4
							c8.7,2.9,17.4,0,26.1-1.6c8.7-1.3,17.6-1.3,26.1,1.1c8.4,2.4,16.3,7.6,20.8,15c-1.1,3.4-1.8,6.8-2.1,10.5
							c-0.5,5,0.5,10.3,2.6,15c-1.3,6.3-2.1,12.1-2.1,18.7c2.6-2.1,6.3-7.4,8.2-10c1.1-1.3,1.8-2.9,2.6-4.5
							C559.5,949.5,560.5,940.1,561,931.1z"/>
						<g id="XMLID_337_">
							<g id="XMLID_475_">
								<g id="XMLID_476_">
									<path id="XMLID_477_" class="st34" d="M536,881.9c2.4,3.4,3.2,7.6,2.6,11.6c-4.5-6.6-10.5-12.4-17.4-16.3
										c-14.2-8.2-32.7-11.3-44-23.2c-4,1.6-7.9,3.7-11.1,6.3c-5.3,4.5-8.7,11.3-9,18.2s3.7,14,9.7,17.4
										c-4.5-0.8-8.7-2.9-12.1-5.8c0.3,2.1,0.8,4.2,1.6,6.3c6.8,6.3,15.8,10.3,25.3,10.5c-8.2-5-13.4-14.2-13.4-23.7
										c2.6,7.6,11.9,10,19.8,11.6c12.6,2.4,25.5,4.7,38.2,7.4c-4.2-3.7-8.7-7.4-13.2-10.5c12.4,0.3,24.5,5.5,32.9,14.8
										c0.8-5.3,0.5-10.5-0.5-15.8c6.8,4.2,11.6,10.8,14.8,18.2c-0.5-2.6-1.3-5-2.4-7.4C553.9,891.9,546,883.7,536,881.9z"/>
								</g>
							</g>
						</g>
					</g>
					<g id="XMLID_302_">
						<path id="XMLID_305_" class="st35" d="M441.2,1068.3c-2.1,4.7-4.2,9.7-7.1,14c3.4,3.2,7.1,6.1,10.8,8.7c0,0,11.9-50.3,20-64
							C455.7,1039.6,447.2,1053.8,441.2,1068.3z"/>
						<path id="XMLID_334_" class="st35" d="M562.1,1103.9c-10-19.5-15.3-41.6-20.3-63c-1.6,16.3-1.6,33.2-1.6,49.5
							c4.7,5.8,9.5,12.1,12.9,18.4C556,1107.3,559.2,1105.7,562.1,1103.9z"/>
					</g>
					<path id="XMLID_80_" class="st27" d="M542.9,1158.4c-0.8,10-9.7,26.1-18.4,30.6c-6.6,3.4-14.5,3.4-22.1,3.2
						c-20.3-0.5-42.1-2.9-62.4-3.4c-5.8,18.7-2.6,39,0.5,58.2c1.3,8.7,1.8,18.7,3.2,27.1c-6.3,0.8-12.1-0.8-18.4-1.1
						c-19.5-31.6-29-69.3-26.1-106.1c0.5-7.6,1.8-15.5,6.3-21.9c5.5-7.6,15.5-11.1,24.8-11.3c9.5-0.3,18.7,2.4,27.7,5.3
						C481.8,1146.3,543.7,1148.4,542.9,1158.4z"/>
					<ellipse id="XMLID_106_" class="st30" cx="474.4" cy="940.9" rx="2.1" ry="2.6"/>
					<ellipse id="XMLID_194_" class="st30" cx="513.1" cy="940.9" rx="2.1" ry="2.6"/>
				</g>
				<g id="XMLID_4_">
					<path id="XMLID_50_" class="st25" d="M1012.2,1066.8c32.7-17.4,59-44.8,75.3-78c-3.2-14.2-15.5-25.5-30.3-26.3
						c-2.1,6.6-5.5,12.4-9.2,18.2c-11.6,18.7-24.5,36.9-38.2,54.3C1010.7,1044.9,1011.4,1057,1012.2,1066.8z"/>
					<path id="XMLID_51_" class="st25" d="M1336.2,1062c-29.5-34.2-56.1-70.6-80.1-108.8c-7.1,6.8-16.1,10.3-24.5,15
						c10.8,39.8,30.6,75.1,61.4,102.5c7.4,6.6,16.1,12.9,25.8,13.4C1325.9,1076.8,1329.1,1069.1,1336.2,1062z"/>
					<path id="XMLID_49_" class="st36" d="M1102.1,1015.1c-20.5-19.5-42.1-37.7-64.5-55c18.2-14,28.2-39.5,46.1-53.7
						C1088.9,942.4,1099.4,979,1102.1,1015.1z"/>
					<g id="XMLID_222_">
						<path id="XMLID_46_" class="st25" d="M804.1,982.7c-4.5,3.2-7.6,7.9-10.5,12.6c-23.2,35.3-48.7,69-76.4,101.1
							c20.5,12.1,40.6,22.9,64.5,25.3c4,0.5,8.2,0.5,11.6-1.3c2.6-1.6,4.5-4,6.1-6.6c24-36.9,40-78.8,46.6-122.5
							c0.8-4.5,1.3-9.2-0.5-13.4c-2.9-6.6-11.1-9.2-18.2-8.2C819.7,970.9,809.9,978.5,804.1,982.7z"/>
						<g id="XMLID_223_">
							<g id="XMLID_438_">
								<g id="XMLID_439_">
									<path id="XMLID_440_" class="st17" d="M728,1090.2c24.2-25,48.5-50.3,68.7-78.5c10-14.2,19.5-29.2,32.4-41.1
										c0.5-0.5,1.1-0.8,1.6-1.3c-1.1,0-2.4,0-3.4,0.3c-7.1,1.1-16.9,9-22.7,13.2c-4.5,3.2-7.6,7.9-10.5,12.6
										c-23.2,35.3-48.7,69-76.4,101.1c0.8,0.5,1.6,1.1,2.6,1.6C722.8,1095.7,725.4,1092.8,728,1090.2z"/>
								</g>
							</g>
						</g>
						
							<linearGradient id="XMLID_161_" gradientUnits="userSpaceOnUse" x1="765.694" y1="637.3296" x2="840.1762" y2="637.3296" gradientTransform="matrix(1 0 0 -1 0 1568.7)">
							<stop  offset="0" style="stop-color:#DED437"/>
							<stop  offset="1" style="stop-color:#BDB313"/>
						</linearGradient>
						<path id="XMLID_41_" class="st37" d="M893.2,841.8c-30.8,11.1-51.9,39.2-68.7,67.4s-32.7,58.2-58.7,78
							c22.1,14.2,45,26.3,70.6,33.7L893.2,841.8z"/>
						
							<linearGradient id="XMLID_166_" gradientUnits="userSpaceOnUse" x1="784.3951" y1="593.886" x2="1049.066" y2="593.886" gradientTransform="matrix(1 0 0 -1 0 1568.7)">
							<stop  offset="0" style="stop-color:#DED437"/>
							<stop  offset="1" style="stop-color:#BDB313"/>
						</linearGradient>
						<path id="XMLID_36_" class="st38" d="M1021.2,1093.6c6.3-55.3,20.3-109.8,41.6-161.5c4.2-10.5,9.5-21.3,18.7-27.9
							c5.8-4.2,12.9-6.3,19.8-8.2c15.8-4.5,35.8-8.7,51.9-12.6c1.1-19-0.3-38.2-3.7-56.9c-2.9-0.5-4.7,1.6-7.9,1.3
							c-49-5.5-101.1-9.7-150.4-8.2c-5.3-2.9-48.2,1.6-64.8,7.4c-16.3,5.5-32.9,11.3-46.4,22.1c-14,11.3-23.7,27.1-31.6,43.2
							c-20.5,41.1-32.9,85.6-45.3,129.6c-6.3,22.1-12.4,44.5-18.7,66.6c48.7,8.4,96.1,18.2,144.9,26.6c10.8,1.8,21.6,3.7,32.1,6.8
							c9.5,2.9,18.7,6.6,28.4,8.2c9.7,1.6,20.5,0.3,28.2-6.1C1025.7,1117.9,1027.2,1101.3,1021.2,1093.6z"/>
						
							<linearGradient id="XMLID_167_" gradientUnits="userSpaceOnUse" x1="1012.3843" y1="774.4666" x2="1083.5013" y2="707.3004" gradientTransform="matrix(1 0 0 -1 0 1568.7)">
							<stop  offset="0" style="stop-color:#AA9F11"/>
							<stop  offset="1" style="stop-color:#BDB313"/>
						</linearGradient>
						<path id="XMLID_226_" class="st39" d="M1149.5,826.5c-2.9-0.5-4.7,1.6-7.9,1.3c-48.5-5.5-100.4-9.7-149.1-8.2l-21.1,30.8
							c0,0,14,31.9,112.2,52.7c5.5-3.4,11.6-5,17.9-6.8c15.8-4.5,35.8-8.7,51.9-12.6C1154.2,864.5,1152.9,845.2,1149.5,826.5z"/>
						<g id="XMLID_195_">
							<path id="XMLID_204_" class="st23" d="M1100.5,847.3c-14.2,11.1-26.1,21.6-36.6,36.3c-38.7,55-73.2,115.4-95.6,178.8
								c-58.2-7.6-118-14.2-175.4-4.2c-2.9,10-5.5,20-8.4,30.3c48.7,8.4,96.1,18.2,144.9,26.6c10.8,1.8,21.6,3.7,32.1,6.8
								c9.5,2.9,18.7,6.6,28.4,8.2c9.7,1.6,20.5,0.3,28.2-6.1c7.6-6.3,9.2-22.9,3.2-30.6c6.3-55.3,20.3-109.8,41.6-161.5
								c4.2-10.5,9.5-21.3,18.7-27.9c5.8-4.2,12.9-6.3,19.8-8.2c15.8-4.5,35.8-8.7,51.9-12.6c0.3-6.3,5.5-42.9,5.5-49.3
								c-16.9,25.5-47.7,35.8-69,38.5C1092,863.9,1095.7,855.2,1100.5,847.3z"/>
						</g>
						<g id="XMLID_43_">
							<path id="XMLID_211_" class="st17" d="M541.8,1476.1c10-8.4,18.2-19.2,23.4-31.3c11.1-1.3,22.1,0,32.9,2.6
								c1.6,12.6,5.5,24,9.7,36.1C586.1,1483.4,562.9,1480.8,541.8,1476.1z"/>
							<path id="XMLID_209_" class="st40" d="M803.9,1096.5c-42.4-8.7-85.1-17.4-127.5-25.8c-20.8-4.2-42.7-8.4-62.7-1.8
								c-19.8,6.6-35,22.9-44.5,41.4c-9.5,18.4-14.2,39-18.4,59.3c-19.8,94.8,13.7,190.2-2.1,285.5c19.2,3.7,38.5,7.1,57.9,8.2
								c3.7-58.5,36.3-113.5,46.9-171.2c7.1-38.2,5.8-79.3,24.8-113.3c10.8,0.5,22.1,0.8,32.9,1.3c28.2,1.1,56.9,2.1,84.6-2.9
								c17.1-19.8,22.9-48.2,16.6-73.5C812.1,1101.8,806,1097,803.9,1096.5z"/>
							<path id="XMLID_207_" class="st41" d="M608.4,1476.6h-37.9c-5.3-7.6-14.2-12.9-23.4-13.2c-11.3-0.5-22.4,5.5-29.5,14.2
								c-2.6,3.2-5,6.8-6.8,10.5h103.8L608.4,1476.6z"/>
							<g id="XMLID_45_">
								<path id="XMLID_52_" class="st42" d="M672.5,1166.3c-6.6-11.9-18.7-25.5-30.6-32.4c6.3,14.8,9.7,30.8,9.5,46.9
									c-0.3,11.9-2.1,23.7-4.2,35.3c-3.2,17.6-6.1,35.6-9.2,53.2c-3.2,19.2-6.6,38.5-11.9,57.2c-4.7,17.4-11.1,34.5-15.8,51.9
									c-7.4,27.7-10,56.1-11.9,84.6c2.6,0.3,5,0.5,7.6,0.5c3.7-58.5,36.3-113.5,46.9-171.2c7.1-38.2,5.8-79.3,24.8-113.3
									c10.8,0.5,22.1,0.8,32.9,1.3c28.2,1.1,56.9,2.1,84.6-2.9c2.9-3.4,5.5-6.8,7.6-10.8c-4,0.5-7.9,1.1-11.6,1.3
									C752.3,1172.9,712,1172.4,672.5,1166.3z"/>
							</g>
							<path id="XMLID_44_" class="st43" d="M676.4,1070.7c-20.8-4.2-42.7-8.4-62.7-1.8c-15,5-27.4,15.5-36.6,28.4
								c-4.7,4.7-8.2,10.3-9.7,16.3c-8.4,17.6-12.9,36.9-16.9,55.8c-19.8,94.8,13.7,190.2-2.1,285.5c1.6,0.3,2.9,0.5,4.5,0.8
								c7.1-55.8,9-112.2,5.3-168.3c-1.3-19.2-3.2-38.5-2.9-57.7c0.5-29.8,6.6-61.9,18.7-90.9c25.3,36.1,59.3-35.8,60.6-58.7
								c0-1.3,0-2.6-0.5-4c21.3-5.5,45.6-3.4,69,0c2.4,0.3,5,0.8,7.4,1.1C699.1,1075.2,687.7,1072.8,676.4,1070.7z"/>
						</g>
						<g id="XMLID_39_">
							<path id="XMLID_38_" class="st17" d="M709.6,1476.1c10-8.4,18.2-19.2,23.4-31.3c11.1-1.3,22.1,0,32.9,2.6
								c1.6,12.6,5.5,24,9.7,36.1C753.8,1483.4,730.9,1480.8,709.6,1476.1z"/>
							<path id="XMLID_37_" class="st40" d="M971.9,1096.5c-42.4-8.7-85.1-17.4-127.5-25.8c-20.8-4.2-42.7-8.4-62.7-1.8
								c-19.8,6.6-35,22.9-44.5,41.4c-9.5,18.4-14.2,39-18.4,59.3c-19.8,94.8,13.7,190.2-2.1,285.5c19.2,3.7,38.5,7.1,57.9,8.2
								c3.7-58.5,36.3-113.5,46.9-171.2c7.1-38.2,5.8-79.3,24.8-113.3c10.8,0.5,22.1,0.8,32.9,1.3c28.2,1.1,56.9,2.1,84.6-2.9
								c17.1-19.8,22.9-48.2,16.6-73.5C979.8,1101.8,973.8,1097,971.9,1096.5z"/>
							<path id="XMLID_40_" class="st41" d="M776.2,1476.6h-37.9c-5.3-7.6-14.2-12.9-23.4-13.2c-11.3-0.5-22.4,5.5-29.5,14.2
								c-2.6,3.2-5,6.8-6.8,10.5h103.8L776.2,1476.6z"/>
							<g id="XMLID_157_">
								<path id="XMLID_205_" class="st42" d="M840.5,1166.3c-6.6-11.9-18.7-25.5-30.6-32.4c6.3,14.8,9.7,30.8,9.5,46.9
									c-0.3,11.9-2.1,23.7-4.2,35.3c-3.2,17.6-6.1,35.6-9.2,53.2c-3.2,19.2-6.6,38.5-11.9,57.2c-4.7,17.4-11.1,34.5-15.8,51.9
									c-7.4,27.7-10,56.1-11.9,84.6c2.6,0.3,5,0.5,7.6,0.5c3.7-58.5,36.3-113.5,46.9-171.2c7.1-38.2,5.8-79.3,24.8-113.3
									c10.8,0.5,22.1,0.8,32.9,1.3c28.2,1.1,56.9,2.1,84.6-2.9c2.9-3.4,5.5-6.8,7.6-10.8c-4,0.5-7.9,1.1-11.6,1.3
									C920.3,1172.9,880,1172.4,840.5,1166.3z"/>
							</g>
							<path id="XMLID_220_" class="st43" d="M844.4,1070.7c-20.8-4.2-42.7-8.4-62.7-1.8c-15,5-27.4,15.5-36.6,28.4
								c-4.7,4.7-8.2,10.3-9.7,16.3c-8.4,17.6-12.9,36.9-16.9,55.8c-19.8,94.8,13.7,190.2-2.1,285.5c1.6,0.3,2.9,0.5,4.5,0.8
								c7.1-55.8,9-112.2,5.3-168.3c-1.3-19.2-3.2-38.5-2.9-57.7c0.5-29.8,6.6-61.9,18.7-90.9c25.3,36.1,59.3-35.8,60.6-58.7
								c0-1.3,0-2.6-0.5-4c21.3-5.5,45.6-3.4,69,0c2.4,0.3,5,0.8,7.4,1.1C867.1,1075.2,855.8,1072.8,844.4,1070.7z"/>
						</g>
						<path id="XMLID_21_" class="st17" d="M961.9,783.3c0.8,15,3.2,29.8,7.1,44.3c-0.3,0.5-0.5,1.8-0.5,2.4
							c-1.1,3.4-2.4,7.1-2.4,10.8c0,3.7,1.6,7.6,5,9.5c3.4,2.1,7.9,1.1,11.9-0.5c10-4,18.2-11.6,22.9-21.1
							c-1.8-20.3-4.7-41.6-6.3-61.9L961.9,783.3z"/>
						<path id="XMLID_186_" class="st25" d="M1003.3,803.6c-1.3-12.4-2.6-24.5-4-36.6l-37.7,16.6c0.3,5,0.8,10,1.3,15
							C976.4,803.4,989.8,804.4,1003.3,803.6z"/>
						<g id="XMLID_155_">
							<path id="XMLID_9_" class="st17" d="M928.7,758.3c2.1,13.2,6.1,27.9,17.9,33.5c20,9.5,43.5-5.8,57.7-19.2
								c20.5-19.5,22.4-43.7,22.1-70.9c-0.3-14-0.8-29.5-10-40c-10.5-12.4-28.4-14.5-44.5-15c-17.9-0.5-48.7,0-50,23.7
								C920.6,699.3,924.3,729.6,928.7,758.3z"/>
							<g id="XMLID_160_">
								<path id="XMLID_163_" class="st30" d="M930.1,752.8c-4.2-29.8-6.6-60.1-6.6-90.1c-1.1,2.1-1.6,4.7-1.6,7.6
									c-1.3,29.2,2.4,59.5,6.8,88.2c2.1,13.2,6.1,27.9,17.9,33.5c1.8,0.8,3.7,1.3,5.5,1.8c-1.8-0.8-3.4-1.8-5-2.9
									C935.6,782.6,932.2,767,930.1,752.8z"/>
							</g>
							<g id="XMLID_159_">
								<g id="XMLID_418_">
									<g id="XMLID_419_">
										<path id="XMLID_420_" class="st25" d="M971.9,646.6c-17.9-0.5-48.7,0-50,23.7c-0.3,5.3-0.3,10.3-0.3,15.5
											c9,2.1,19.2,0.8,28.4-2.1c12.6-4,24.8-10.5,38.2-12.4c0.8,8.7,10.5,15.3,19,12.9c2.6,8.2,10.8,12.9,19.2,15
											c-0.3-13.4-1.3-27.7-10-37.7C1005.9,649.3,988,647.2,971.9,646.6z"/>
									</g>
								</g>
							</g>
							<path id="XMLID_12_" class="st44" d="M927.2,695.1H949C949,695.1,943.8,682.7,927.2,695.1z"/>
							<path id="XMLID_14_" class="st44" d="M976.9,695.6l25.5-2.6C1002.2,693,985.6,682.5,976.9,695.6z"/>
							<ellipse id="XMLID_16_" class="st45" cx="942.2" cy="714.1" rx="4" ry="7.4"/>
							<ellipse id="XMLID_18_" class="st45" cx="980.9" cy="711.4" rx="4" ry="7.4"/>
							<path id="XMLID_17_" class="st33" d="M958.8,735.4c-3.2,0.3-7.1,0.3-8.7-2.6c-1.1-1.8-0.3-4.2,0.5-6.3
								c2.6-6.1,7.6-11.6,8.7-18.2C958.8,717.2,958.5,726.4,958.8,735.4z"/>
							<path id="XMLID_19_" class="st29" d="M988.5,748.6c-15,1.6-30.6,1.8-45.6,0.8c-1.6,5.3,1.8,12.4,6.6,14.8
								c4.7,2.4,10.8,2.1,15.8,0.3c2.6-0.8,5.3-2.1,7.6-3.7C978,757.8,984.6,752.8,988.5,748.6z"/>
							<path id="XMLID_162_" class="st30" d="M988.5,748.6c-15,1.6-30.6,1.8-45.6,0.8c-0.5,1.6-0.5,3.4,0,5c12.6,0,26.1,0,39.2,0
								C984.6,752.5,986.7,750.4,988.5,748.6z"/>
							<path id="XMLID_20_" class="st44" d="M1031.7,728.8c-2.9,5.5-5.5,11.1-8.4,16.6c-0.5,1.1-1.1,2.1-1.8,2.9
								c-2.6,2.1-6.3-0.8-9.5-2.4c-0.5-8.4-0.8-17.6,0.5-25.8c-1.8-0.3-3.7-0.8-4.7-2.1c-0.5-0.8-0.5-2.1-0.5-3.2
								c0.3-9.5,2.1-19,5.8-27.7c-4-0.3-8.4-5.3-7.4-9.2c-2.6-1.3-5.8-0.5-9-0.5c-2.9,0-6.6-1.6-6.8-4.5c-0.3-1.6,0.5-4-1.1-4.7
								c-0.5-0.3-1.1-0.3-1.6,0c-9.7,1.6-17.9,9-27.7,10.5c-4,0.5-9.5-1.3-9-5.3c-4.5,0.8-8.4,3.4-12.4,5.8c-4,2.4-7.9,4.7-12.6,5.3
								c-4.5,0.5-23.7-15.3-25.5-22.1c-0.3-0.8-0.5-1.8,0-2.6c0.5-0.8,1.3-1.1,1.8-1.3c6.3-2.6,12.9-5,19.2-7.6
								c-5.3-4.2-4-13.4,1.1-17.9c5-4.7,12.1-6.1,19-6.8c9.5-1.3,19.2-2.4,29-2.9c1.1,0,2.4,0,3.4,0.3c2.6,1.1,3.2,4.2,4.7,6.6
								c4.2,6.1,13.7,4,20.8,1.3c6.1-2.4,12.4-4.5,18.7-3.7c6.3,0.8,12.9,5.3,13.7,11.6c0.8,6.1,8.7,8.2,12.4,13.2
								c1.3,1.8,2.1,4.2,2.4,6.6c0.5,4.2,0.3,8.7-1.3,12.9c-2.4,6.6-7.1,12.9-6.3,19.8c0.5,3.2,2.1,6.3,2.4,9.5
								C1043.1,709.6,1035.7,721.2,1031.7,728.8z"/>
							<g id="XMLID_164_">
								<path id="XMLID_191_" class="st46" d="M1018.6,627.7c-6.3-0.8-12.6,1.3-18.7,3.7c-7.1,2.6-16.6,5-20.8-1.3
									c-1.6-2.4-2.1-5.5-4.7-6.6c-1.1-0.5-2.1-0.3-3.4-0.3c-9.7,0.5-19.2,1.6-29,2.9c-6.8,1.1-14,2.1-19,6.8
									c-5,4.7-6.3,13.7-1.1,17.9c-6.3,2.6-12.9,5-19.2,7.6c-0.8,0.3-1.6,0.5-1.8,1.3c-0.5,0.8-0.3,1.8,0,2.6
									c1.8,6.8,20.8,22.7,25.5,22.1l0,0c-4.2-4-7.9-8.4-11.1-13.2c-1.1-1.6-1.8-3.2-1.6-5c0.5-2.4,3.4-3.4,5.8-3.4s5,0.3,7.1-1.1
									c2.1-1.3,2.4-5.3,0-5.8c5.8-0.5,11.6-0.3,17.1,1.1c-2.1-3.2-6.1-4.2-9.2-6.3s-5.8-6.6-3.4-9.5c0.8-1.1,2.1-1.6,3.4-2.1
									c11.1-4.2,23.2-5.8,35-5.3c-1.8,2.9-2.4,6.3-1.6,9.5c5-0.5,10-1.1,14.8-1.6c-3.4,4.5-8.7,7.4-14.2,7.9
									c4.5,4,11.9,3.2,17.1,0.3c5.3-2.9,9.7-7.4,14.8-10.5c6.1-3.7,12.9-5.8,20-5.5c4.2,0,9,1.1,11.9,4l0,0
									C1030.7,632.4,1024.6,628.5,1018.6,627.7z"/>
							</g>
							<g id="XMLID_182_">
								<path id="XMLID_202_" class="st32" d="M1039.4,691.7c-0.8-5.5,2.4-10.8,4.7-16.1c-0.8,1.3-1.6,2.4-2.6,3.4
									c-3.7-2.9-9,0-12.6,2.9c0.3,5.3-0.3,10.3-1.6,15.3c-1.1,3.4-4,7.4-7.1,5.8c-3.4-1.6-1.8-7.4-4.2-10.3
									c-2.6,2.9-5,6.1-7.1,9.5c-0.8,4.2-1.3,8.2-1.3,12.4c0,1.1,0,2.1,0.5,3.2c0.8,1.6,2.9,1.8,4.7,2.1
									c-1.3,8.2-1.1,17.4-0.5,25.8c2.9,1.6,6.8,4.5,9.5,2.4c0.8-0.8,1.3-1.8,1.8-2.9c2.9-5.5,5.5-11.1,8.4-16.6
									c3.7-7.6,11.1-19.2,10-27.7C1041.5,698,1039.9,695.1,1039.4,691.7z"/>
							</g>
							<path id="XMLID_11_" class="st17" d="M1005.6,766c11.9,0.5,24-4.7,31.6-14c7.4-8.7,10.3-20.3,9-31.3
								c-2.4-20-29,11.1-31.9,17.9C1011.4,745.9,1009.1,759.1,1005.6,766z"/>
							<path id="XMLID_15_" class="st25" d="M1019.3,750.4c1.3-9.2,7.4-17.6,15.5-22.1c1.1,5.3,1.1,10-1.1,14.8
								c0.3-3.2,0-6.3-0.8-9.2C1031.5,740.7,1025.1,746.7,1019.3,750.4z"/>
							<circle id="XMLID_156_" class="st30" cx="940.3" cy="712" r="2.1"/>
							<circle id="XMLID_158_" class="st30" cx="979" cy="709.9" r="2.1"/>
						</g>
					</g>
					<g id="XMLID_35_">
						<path id="XMLID_47_" class="st17" d="M1205.8,883.7c-14.2-7.9-28.7-16.3-42.9-24c-1.8-14.2-2.4-26.3-1.3-40.8
							c-5.8,1.8-10.8,1.8-16.6,3.7c0,15,0,29.8,0,44.8c-13.4,9-26.9,17.1-40.3,25.3c6.8,23.4,14.5,46.6,23.2,69.3
							C1159.5,942.4,1179,909.2,1205.8,883.7z"/>
						<path id="XMLID_274_" class="st25" d="M1161.6,819.2c-5.8,1.8-10.8,1.8-16.6,3.7c0,8.2,0,16.6,0,24.8
							c5.5,2.6,11.3,4.7,17.1,6.3C1160.8,842.1,1160.5,831.5,1161.6,819.2z"/>
						
							<linearGradient id="XMLID_168_" gradientUnits="userSpaceOnUse" x1="1149.4882" y1="640.092" x2="1179.3397" y2="436.3987" gradientTransform="matrix(1 0 0 -1 0 1568.7)">
							<stop  offset="0" style="stop-color:#67B3AF"/>
							<stop  offset="1" style="stop-color:#529493"/>
						</linearGradient>
						<path id="XMLID_253_" class="st47" d="M1279.8,966.4c-8.4-11.1-17.1-22.1-23.7-34.5c-4.5-8.7-7.9-17.9-14.5-25.3
							c-6.3-7.1-14.8-11.6-23.2-15.8c-4.2-2.4-8.7-4.7-12.9-7.1c-26.9,25.3-46.4,58.7-78,78.5c-8.7-22.7-16.3-45.8-23.2-69.3
							c-7.1,4.5-14,8.7-21.1,13.4c-3.7,8.2-6.8,17.6-8.4,26.3c-2.6,13.7-5.3,27.7-3.4,41.6c0.8,4.7,1.8,9.5,3.2,14.2
							c1.1,4.2,2.1,8.4,3.4,12.6c6.6,25.5-3.7,52.7-11.3,77.7c-2.1,6.8-4.2,13.4-7.6,19.8c-2.4,4.5-8.4,7.9-7.6,12.9
							c0.3,1.3,1.1,2.6,2.1,3.7c6.8,8.7,17.1,14,27.9,16.6c10.5,2.9,21.6,3.4,32.7,4.2c23.2,1.6,46.4,4.5,69.3,8.2
							c13.2,2.1,28.4-0.3,40.6,5.5c17.1-49,23.2-101.9,13.2-152.8C1250.9,986.2,1265.6,977.5,1279.8,966.4z"/>
					</g>
					<path id="XMLID_294_" class="st48" d="M1180.8,936.6c13.2-15.8,26.6-32.4,44-42.7c-2.1-1.1-4.2-2.1-6.1-3.4
						c-4.2-2.4-8.7-4.7-12.9-7.1c-26.9,25.3-46.4,58.7-78,78.5c-8.7-22.7-16.3-45.8-23.2-69.3c-4,2.4-7.9,5-11.9,7.4
						c7.4,28.7,17.1,56.9,29.2,84C1146,977.7,1164.7,956.1,1180.8,936.6z"/>
					<g id="XMLID_48_">
						<path id="XMLID_271_" class="st49" d="M1216.9,1062c-5.5,29.2-15.5,57.7-31.3,82.7c12.6,1.6,26.6-0.3,37.9,5.3
							c17.1-49,23.2-101.9,13.2-152.8c-4.7-15.8-9.5-33.7-14.5-49.5C1225.8,985.1,1223.7,1024.9,1216.9,1062z"/>
					</g>
					<g id="XMLID_230_">
						<path id="XMLID_34_" class="st28" d="M1197.1,696.4c5.3-1.3,10.8-2.1,16.1-0.3c6.6,2.4,10.8,8.4,13.4,15
							c4.7,11.9,4.7,24.8,6.6,37.4c2.1,12.6,7.1,25.8,18.4,31.6c-6.6,3.2-14.2,0.3-20.8-2.6c1.6,9.7,2.9,19.5,1.3,29.2
							c-1.6,9.7-7.1,19.2-16.1,23.2c-7.4,3.4-15.8,2.4-23.7,1.6c-4.7-0.5-10-1.3-13.4-5c-4.7-5.3-3.2-13.2-1.8-20
							c2.1-12.6,1.6-25.8-1.6-38.2c-2.4-9.7-6.3-19-8.4-28.7C1161.1,712.8,1172.4,702.2,1197.1,696.4z"/>
						<path id="XMLID_33_" class="st28" d="M1121.8,832.3c-8.2-9.7-19.5-16.9-28.7-25.5c-9.2-9-17.1-21.1-15.5-33.7
							c0.8-7.4,5-14.2,8.7-20.5c7.1-11.6,14-23.2,21.1-34.8c24.8-5.3,51.9,0.8,74.3,12.6c9,4.7,20.8,3.4,28.4,9.7
							c8.4,7.1,9.7,19.2,10,30.3c0,9.5-0.5,19-1.8,28.2c-1.6,12.6-5,25.8-14.8,34c-12.1,10-30.6,8.7-44.8,2.1
							c-4.2-1.8-8.7-4.2-13.2-4.2C1137.1,830,1129.7,833.9,1121.8,832.3z"/>
						<path id="XMLID_22_" class="st17" d="M1190.8,803.1c-7.9,22.4-33.5,35.3-57.4,34.5c-6.1-0.3-12.4-1.3-17.4-4.7
							c-11.1-7.6-11.3-23.4-10.5-36.9c1.3-20,2.4-39.8,3.7-59.8c10-9.7,24.2-15,38.2-17.9c13.7-2.6,29.8-3.2,40,6.6
							c7.1,6.8,9.5,17.4,10.3,27.1C1198.5,766.7,1195.8,789.1,1190.8,803.1z"/>
						<g id="XMLID_291_">
							<path id="XMLID_293_" class="st30" d="M1109.7,822.1c-2.1-6.1-1.8-12.6-1.3-19c1.3-23.2,2.4-46.1,3.7-69.3
								c-1.1,0.8-1.8,1.6-2.6,2.4c-1.3,20-2.4,39.8-3.7,59.8c-0.8,13.4-0.5,29.2,10.5,36.9c0.5,0.3,1.1,0.5,1.3,0.8
								C1113.9,830.5,1111.3,826.5,1109.7,822.1z"/>
						</g>
						<path id="XMLID_24_" class="st33" d="M1138.9,779.4c-1.3-3.7-4.7-6.3-8.7-6.3c-2.1,0-4.7,1.3-4.7,3.4
							C1128.7,777.8,1135.5,778.6,1138.9,779.4z"/>
						<path id="XMLID_28_" class="st45" d="M1162.9,755.7c0.3,0,0.5,0,0.8,0c2.1,0.3,3.4,3.7,2.6,7.6c-0.8,3.7-2.9,6.6-5,6.3
							c-2.1-0.3-3.4-3.7-2.6-7.6c0.3-0.8,0.3-1.6,0.5-2.1c-6.3-1.6-6.8-5.3-6.8-5.3C1156,755.7,1160.8,755.7,1162.9,755.7z"/>
						<path id="XMLID_26_" class="st45" d="M1125,753.3c0.3,0,0.5,0,0.8,0c2.1,0.3,3.4,3.7,2.6,7.6c-0.8,3.7-2.9,6.6-5,6.3
							c-2.1-0.3-3.4-3.7-2.6-7.6c0.3-0.8,0.3-1.6,0.5-2.1c-6.3-1.6-6.8-5.3-6.8-5.3C1118.1,753.3,1122.9,753.3,1125,753.3z"/>
						<g id="XMLID_31_">
							<path id="XMLID_30_" class="st50" d="M1148.7,795.7c-7.6-0.3-15.3-1.1-22.9-2.4c-1.8,1.8-4,4.2-3.2,6.6s3.7,3.7,6.3,4
								C1136.8,805.5,1143.9,801.8,1148.7,795.7z"/>
							<path id="XMLID_29_" class="st51" d="M1119.4,791.8c5.5,3.7,12.4,5.3,19,5.3c6.6,0.3,13.4-0.8,19.8-1.8
								c-9,0.5-18.4-3.2-27.4-3.7C1127.1,791.5,1123.4,791.5,1119.4,791.8z"/>
						</g>
						<path id="XMLID_27_" class="st28" d="M1127.9,746.7l-16.1-4.2C1111.8,742.8,1116,735.9,1127.9,746.7z"/>
						<path id="XMLID_234_" class="st28" d="M1202.1,760.7c3.2-16.3,1.1-36.3-9-49c-2.9-3.7-6.1-6.8-10.3-9.2
							c-6.8-3.7-15.5-4.2-23.7-4.2c-17.4,0-34.8,2.1-51.6,5.8c-4,0.8-7.9,1.8-10.5,4.2c-2.6,2.4-7.9,7.4-2.1,13.7
							c10,11.3,33.7,27.1,47.7,35.3c-9.2-8.2-12.4-18.2-14.8-21.9c16.9,12.1,36.3,21.9,56.9,29c-1.6,12.6,0.5,26.1,6.3,37.4
							c8.4-10.3,12.9-24.8,11.6-37.9C1202.7,762.8,1202.4,761.7,1202.1,760.7z"/>
						<g id="XMLID_242_">
							<path id="XMLID_255_" class="st34" d="M1182.9,702.5c-6.8-3.7-15.5-4.2-23.7-4.2c-17.4,0-34.8,2.1-51.6,5.8
								c-4,0.8-7.9,1.8-10.5,4.2c-1.3,1.1-2.9,2.6-4,4.7c16.3,13.7,38.5,20,60.1,23.4c-5.8-3.4-10.8-8.2-14.8-13.4
								c7.4,4.2,16.3,6.3,25,5.5c6.3-0.5,12.4-2.4,18.7-3.2c6.3-0.5,13.2,0.5,17.6,5c1.6,1.6,2.6,3.4,3.4,5.3
								c-1.3-9-4.5-17.4-9.5-23.7C1190.6,708,1187.1,704.8,1182.9,702.5z"/>
						</g>
						<path id="XMLID_23_" class="st17" d="M1182.4,797.8c7.1-6.6,16.1-11.3,25.3-13.7c2.4-0.5,4.7-1.1,6.8,0.3
							c1.8,1.1,2.6,3.4,2.6,5.8c0.8,9.2-6.3,17.4-14,22.4c-9.2,6.1-20.3,9.2-31.3,9.2C1177.4,816.3,1176.9,802.8,1182.4,797.8z"/>
						<path id="XMLID_25_" class="st25" d="M1187.4,806c5-7.6,14.2-11.3,22.9-14.5c-1.3,5.5-3.4,11.1-7.4,15
							c1.6-2.9,2.6-6.1,3.7-9.2C1200.6,801.8,1194.5,803.6,1187.4,806z"/>
						<ellipse id="XMLID_32_" class="st30" cx="1122.1" cy="759.4" rx="0.8" ry="2.1"/>
						<ellipse id="XMLID_238_" class="st30" cx="1159.5" cy="762" rx="0.8" ry="2.1"/>
					</g>
					<g id="XMLID_58_">
						<path id="XMLID_328_" class="st17" d="M883.7,1476.9c9.2-7.6,16.6-17.6,21.6-28.7c10-1.3,20.3,0,30,2.6
							c1.3,11.6,5.3,22.1,9,32.9C924.3,1484,902.9,1481.3,883.7,1476.9z"/>
						<path id="XMLID_317_" class="st52" d="M944.8,1477.4H910c-4.7-7.1-12.9-11.9-21.6-12.1c-10.3-0.5-20.5,5-27.1,12.9
							c-2.4,2.9-4.5,6.3-6.3,9.7h95.1L944.8,1477.4z"/>
						<path id="XMLID_296_" class="st53" d="M999.3,1104.9c-16.3-4-33.7-7.6-49.8-1.6c-15.5,6.1-27.7,21.1-35.3,37.9
							s-11.3,35.8-14.5,54.5c-15.8,86.9,10.8,174.4-1.8,262.1c15,3.4,30.6,6.3,45.8,7.4c2.9-53.7,28.7-104,37.1-157
							c5.5-35,4.7-72.7,19.8-103.8c8.4,0.3,17.6,0.8,26.1,1.1c7.1,0.3,14.5,0.5,21.6,0.8c37.4,0.8,68.7-19.8,61.4-56.4
							C1109.7,1149.7,1033,1112.9,999.3,1104.9z"/>
						<g id="XMLID_59_">
							<g id="XMLID_279_">
								<path id="XMLID_280_" class="st11" d="M996.2,1192.7c-5.3-10.8-14.8-23.4-24.2-29.5c5,13.4,7.6,28.2,7.4,42.9
									c0,10.8-1.8,21.6-3.4,32.4c-2.4,16.3-4.7,32.7-7.4,49c-2.6,17.6-5.3,35.3-9.2,52.4c-3.7,16.1-9,31.6-12.4,47.7
									c-5.8,25.3-7.9,51.4-9.5,77.4c2.1,0.3,4,0.3,6.1,0.5c2.9-53.7,28.7-104,37.1-157c5.5-35,4.7-72.7,19.8-103.8
									c8.4,0.3,17.6,0.8,26.1,1.1c7.1,0.3,14.5,0.5,21.6,0.8c17.4,0.3,33.7-4,45-12.4c-1.1,0.3-1.8,0.3-2.9,0.5
									C1059.4,1198.7,1027.5,1198.2,996.2,1192.7z"/>
							</g>
						</g>
					</g>
					<g id="XMLID_53_">
						<path id="XMLID_55_" class="st17" d="M997.5,1476.9c9.2-7.6,16.6-17.6,21.6-28.7c10-1.3,20.3,0,30,2.6
							c1.3,11.6,5.3,22.1,9,32.9C1038.3,1484,1017,1481.3,997.5,1476.9z"/>
						<path id="XMLID_56_" class="st52" d="M1058.9,1477.4h-34.8c-4.7-7.1-12.9-11.9-21.6-12.1c-10.3-0.5-20.5,5-27.1,12.9
							c-2.4,2.9-4.5,6.3-6.3,9.7h95.1L1058.9,1477.4z"/>
						<path id="XMLID_57_" class="st53" d="M1113.1,1104.9c-16.3-4-33.7-7.6-49.8-1.6c-15.5,6.1-27.7,21.1-35.3,37.9
							c-7.6,16.9-11.3,35.8-14.5,54.5c-15.8,86.9,10.8,174.4-1.8,262.1c15,3.4,30.6,6.3,45.8,7.4c2.9-53.7,28.7-104,37.1-157
							c5.5-35,4.7-72.7,19.8-103.8c8.4,0.3,17.6,0.8,26.1,1.1c7.1,0.3,14.5,0.5,21.6,0.8c37.4,0.8,68.7-19.8,61.4-56.4
							C1223.5,1149.7,1146.8,1112.9,1113.1,1104.9z"/>
						<g id="XMLID_215_">
							<g id="XMLID_270_">
								<path id="XMLID_272_" class="st11" d="M1110.2,1192.7c-5.3-10.8-14.8-23.4-24.2-29.5c5,13.4,7.6,28.2,7.4,42.9
									c0,10.8-1.8,21.6-3.4,32.4c-2.4,16.3-4.7,32.7-7.4,49c-2.6,17.6-5.3,35.3-9.2,52.4c-3.7,16.1-9,31.6-12.4,47.7
									c-5.8,25.3-7.9,51.4-9.5,77.4c2.1,0.3,4,0.3,6.1,0.5c2.9-53.7,28.7-104,37.1-157c5.5-35,4.7-72.7,19.8-103.8
									c8.4,0.3,17.6,0.8,26.1,1.1c7.1,0.3,14.5,0.5,21.6,0.8c17.4,0.3,33.7-4,45-12.4c-1.1,0.3-1.8,0.3-2.9,0.5
									C1173.2,1198.7,1141.3,1198.2,1110.2,1192.7z"/>
							</g>
						</g>
					</g>
				</g>
				<g id="XMLID_5_">
					<path id="XMLID_90_" class="st44" d="M325.8,1282.7c8.2-17.1,3.4-39.5-10.8-52.2c-5.8-5-12.9-9-16.3-15.8
						c-3.2-6.3-2.4-14-4-20.8c-2.4-11.1-11.1-20.3-21.3-25c-10.3-4.7-22.1-5.3-33.2-3.4c-13.4,2.4-31.3,0.3-37.7,12.4
						c-6.6,12.4-10.8,32.9-6.6,46.1c1.6,5.3,4.7,10.3,6.6,15.5c3.2,8.2,3.4,17.1,0.8,25.5c-2.1,6.6-5.5,12.4-8.4,18.4
						s-5.3,12.9-4.2,19.8c1.1,6.8,6.1,13.2,12.9,13.7C247.3,1320.9,307.1,1322.5,325.8,1282.7z"/>
					<path id="XMLID_98_" class="st35" d="M216.2,1416c-12.1,9.7-23.4,20.3-33.7,31.6c20.5,12.9,41.9,25.8,65.6,30.8
						c22.4,4.7,45.8,1.8,67.4-6.1c21.6-7.9,41.1-20.3,58.7-34.5c7.1-5.5,14.2-11.9,23.2-13.4c-4.7-7.9-12.9-15.8-21.9-17.6
						c-9-2.1-18.4-1.6-27.7-1.1c-7.9,0.3-15.8,0.8-23.7,1.1C288.9,1408.4,251.5,1413.6,216.2,1416z"/>
					<path id="XMLID_101_" class="st17" d="M371.7,1407.3c16.3-1.1,32.9,2.6,47.4,10.3c7.4,4,14.5,9.5,17.1,17.4
						c2.4,6.8,0.5,14.8-3.2,21.1c-4,6.3-9.7,11.1-15.8,15c-25.8,16.6-57.9,19.5-88.8,19.5c-20.5,0-40.8-1.1-61.1-3.2
						c-1.6-5.5-3.2-11.3-4.5-16.9c14-1.6,26.6-12.1,38.2-20C323.5,1434.5,343.7,1409.2,371.7,1407.3z"/>
					<g id="XMLID_240_">
						<g id="XMLID_361_">
							<g id="XMLID_362_">
								<path id="XMLID_363_" class="st25" d="M331.9,1447.6c21.1-5,42.4-10,64-9.7c-10-3.7-20.8-5.3-31.6-5
									c11.6-1.1,24.2-7.1,32.4-15.5c1.8-2.1,3.7-4.2,5.5-6.6c-9.7-2.9-20.3-4.2-30.6-3.4c-27.9,1.8-47.9,27.1-70.9,42.9
									c-7.1,5-14.5,10.5-22.4,14.8c11.9-3.7,23.7-8.2,30.8-11.1C316.3,1451.3,324,1449.5,331.9,1447.6z"/>
							</g>
						</g>
					</g>
					
						<linearGradient id="XMLID_169_" gradientUnits="userSpaceOnUse" x1="156.9844" y1="215.1813" x2="382.7413" y2="215.1813" gradientTransform="matrix(1 0 0 -1 0 1568.7)">
						<stop  offset="0" style="stop-color:#FF7666"/>
						<stop  offset="1" style="stop-color:#E54438"/>
					</linearGradient>
					<path id="XMLID_93_" class="st54" d="M331.1,1434.2c-41.9,6.3-84.3,2.6-125.1-9c-0.3-12.1,0.8-23.4,1.1-35.6
						c-17.4-2.6-34.5-7.9-50-15.8c9.2-18.4,18.2-36.6,27.4-55c3.4-7.1,7.1-14.2,11.9-20.3c5-6.3,11.1-11.3,17.4-16.3
						c7.6-6.3,24-10.3,34-11.3c47.9-5.5,128.8,11.3,135.1,12.9c0.5,0.3-7.1,43.5-7.1,58.5c-11.6,4.7-29.5-8.2-41.9-8.2
						C330.6,1366.5,339,1402.3,331.1,1434.2z"/>
					<g id="XMLID_346_">
						<path id="XMLID_382_" class="st55" d="M223.9,1328.3c-5,20.5-12.1,40.8-16.9,61.4c-0.3,12.1-1.3,23.4-1.1,35.6
							c9.7,2.9,19.5,5,29.5,6.8c-0.5-1.6-1.1-3.2-1.6-4.7C223.9,1395.5,218.9,1361.5,223.9,1328.3z"/>
					</g>
					<path id="XMLID_92_" class="st17" d="M275,1261.1c0.5,8.2,2.6,17.1,8.7,22.7c-1.6,4-3.4,7.9-5.3,11.6c-1.3,2.4-2.9,5.3-5.5,6.1
						s-5.5-0.3-8.2-1.8c-4.5-2.6-9-5.8-12.4-9.5c1.6-7.9,0.8-16.3-2.6-23.4c0-0.8,2.4-1.3,3.2-1.3
						C259.4,1263.8,268.4,1262.5,275,1261.1z"/>
					<path id="XMLID_378_" class="st25" d="M280.5,1280.1c-3.7-5.3-5.3-12.4-5.8-19c-6.3,1.3-15.5,2.9-21.9,4.2
						c-0.8,0.3-3.2,0.5-3.2,1.3c1.8,4.2,2.9,8.4,3.2,12.9C262.1,1279.3,271.3,1280.1,280.5,1280.1z"/>
					<path id="XMLID_83_" class="st17" d="M207.3,1202.7c-1.3,10,5.3,19.2,7.1,29c1.1,5.8,0.8,11.6,1.8,17.4
						c2.4,10.5,10.8,19.2,20.8,23.4c10,4,21.6,3.7,31.9,0.5c8.7-2.9,17.1-8.2,21.3-16.3c5.5-11.1,2.1-24.2,0.5-36.6
						c-1.8-12.4-2.1-26.1-10.3-35.6c-6.1-6.8-15.5-10-24.5-10.5C237.3,1173.4,210.2,1180,207.3,1202.7z"/>
					<path id="XMLID_84_" class="st29" d="M276.3,1235.1c-13.7,4.2-27.4,7.4-41.6,9.7c2.6,7.4,9.7,13.2,17.4,13.4
						c2.6,0,5-0.3,7.6-0.8c3.2-0.5,6.3-1.6,9-3.4C274.2,1250.1,276.6,1241.7,276.3,1235.1z"/>
					<path id="XMLID_467_" class="st30" d="M276.3,1235.1c-13.7,4.2-27.4,7.4-41.6,9.7c0.5,1.1,1.1,2.1,1.6,3.2
						c13.7-2.1,27.4-4.2,39.8-9C276.3,1237.4,276.3,1236.1,276.3,1235.1z"/>
					<path id="XMLID_95_" class="st17" d="M169.6,1415c-16.3-1.1-32.9,2.6-47.4,10.3c-7.4,4-14.5,9.5-17.1,17.4
						c-2.4,6.8-0.5,14.8,3.2,21.1c4,6.3,9.7,11.1,15.8,15c25.8,16.6,57.9,19.5,88.8,19.5c20.5,0,40.8-1.1,61.1-3.2
						c1.6-5.5,3.2-11.3,4.5-16.9c-14-1.6-26.6-12.1-38.2-20C217.6,1442.1,197.5,1416.5,169.6,1415z"/>
					<g id="XMLID_299_">
						<path id="XMLID_388_" class="st25" d="M169.6,1415c-10.3-0.5-20.5,0.5-30.6,3.4c1.8,2.4,3.4,4.5,5.5,6.6
							c8.2,8.4,20.5,14.5,32.4,15.5c-10.8-0.3-21.6,1.6-31.6,5c21.6,0,42.9,4.7,64,9.7c7.6,1.8,15.5,3.7,22.9,6.3
							c7.1,2.6,18.7,7.4,30.8,11.1c-7.9-4.2-15.3-9.7-22.4-14.8C217.6,1442.1,197.5,1416.5,169.6,1415z"/>
					</g>
					<path id="XMLID_88_" class="st44" d="M297.6,1196.9c-4.7,0.8-9.7,1.3-14.5,2.1c-1.8-5-4-9.7-6.8-14.2c1.6,4.5,2.6,9.2,3.2,14
						c-13.7,1.3-27.7,4-40.6,8.2c-1.6-7.1-4.7-13.2-8.7-19.5c2.1,6.6,2.9,13.7,3.7,20.5c-7.4,1.3-14.8,3.2-21.6,5.8
						c-4,1.6-7.1,2.4-10.8,4c-3.4-8.4-5.3-17.9-4-27.1c5.3-35.3,56.1-41.9,80.6-23.7c6.1,4.5,11.1,10.3,14.8,16.9
						C293.7,1185,298.7,1196.9,297.6,1196.9z"/>
					<path id="XMLID_94_" class="st17" d="M197.3,1387.8c-2.9,3.4-1.6,8.7,1.1,12.4c2.6,3.7,6.6,5.8,10.5,7.9
						c10,5.8,20.3,12.1,27.1,21.3c7.1,9.2,10.5,21.9,6.3,32.9c-0.5,1.1-1.1,2.1-1.8,2.9c-1.8,1.3-4.5,1.1-6.3-0.3
						c-1.8-1.3-2.9-3.4-4-5.5c-2.1-4.2-4.5-8.4-6.6-12.4c-11.6-2.6-24-5.8-35.3-8.4c-8.2-1.8-16.3-3.7-23.7-7.6
						c-7.4-4-13.7-10.3-15.5-18.4c0,0-2.6-14,14-35.8L197.3,1387.8z"/>
					<path id="XMLID_99_" class="st24" d="M313.2,1467.9c2.4,1.8,4.5,4,5,6.8c0.8,4.7-4,8.4-7.9,11.1c-4.2,2.6-8.2,5.3-12.9,6.8
						c-10.8,3.4-22.4,0-33.7,1.8c-3.4,0.5-6.8,1.6-10.3,0.5c-2.4-0.8-4.5-2.4-6.6-4c-2.9-2.4-6.1-5-6.1-8.7c0-2.9,2.1-5.5,4.7-7.1
						c2.6-1.6,5.5-2.1,8.4-2.9c5-1.3,10-3.2,14.8-5.3C286.3,1459,296.6,1455.3,313.2,1467.9z"/>
					<path id="XMLID_97_" class="st42" d="M228.1,1475.5c-2.4,1.8-4.5,4-5,6.8c-0.8,4.7,4,8.4,7.9,11.1c4.2,2.6,8.2,5.3,12.9,6.8
						c10.8,3.4,22.4,0,33.7,1.8c3.4,0.5,6.8,1.6,10.3,0.5c2.4-0.8,4.5-2.4,6.6-4c2.9-2.4,6.1-5,6.1-8.7c0-2.9-2.1-5.5-4.7-7.1
						c-2.6-1.6-5.5-2.1-8.4-2.9c-5-1.3-10-3.2-14.8-5.3C255,1466.6,244.4,1462.9,228.1,1475.5z"/>
					<path id="XMLID_86_" class="st29" d="M234.9,1214.8c0.3,0,0.5-0.3,0.8-0.3c2.1,0,4,3.2,3.7,7.1c0,4-1.8,6.8-4.2,6.8
						c-2.1,0-4-3.2-3.7-7.1c0-0.8,0.3-1.6,0.3-2.4c-6.6-0.8-7.6-4.2-7.6-4.2C228.4,1215.8,233.1,1215.3,234.9,1214.8z"/>
					<path id="XMLID_87_" class="st33" d="M260.2,1229.3c-0.3-1.1-1.6-1.8-2.6-2.1c-1.1-0.3-2.4,0-3.7,0.3c-1.3,0.3-2.4,0.5-3.4,1.3
						s-1.8,1.8-1.6,3.2C252.3,1231.4,256.8,1230.3,260.2,1229.3z"/>
					<ellipse id="XMLID_89_" class="st33" cx="233.9" cy="1231.9" rx="9.5" ry="3.2"/>
					
						<ellipse id="XMLID_91_" transform="matrix(0.9598 -0.2806 0.2806 0.9598 -331.7337 126.2484)" class="st33" cx="275" cy="1221.6" rx="9.5" ry="3.2"/>
					<g id="XMLID_300_">
						<g id="XMLID_203_">
							<g id="XMLID_206_">
								<path id="XMLID_208_" class="st46" d="M213.1,1197.1c2.4-0.8,4-2.6,5.3-4.5c2.4-3.4,4.2-7.9,3.2-12.1
									c-1.3-4.2-6.8-6.8-10-4.2c9.5-8.7,22.4-12.9,35.3-13.7c10-0.5,20,1.1,30,3.4c-25.3-16.6-73.8-9.5-79,25
									c-1.3,9.2,0.5,18.4,4,27.1c0.3,0,0.5-0.3,0.5-0.3c0-8.2,1.1-16.3,5-23.2C208.1,1196.6,211,1197.7,213.1,1197.1z"/>
							</g>
						</g>
					</g>
					<path id="XMLID_85_" class="st29" d="M269.5,1207.4c0.3-0.3,0.5-0.3,0.8-0.3c2.1-0.3,4.2,2.6,4.7,6.6c0.3,4-1.1,7.1-3.2,7.4
						c-2.1,0.3-4.2-2.6-4.7-6.6c0-0.8,0-1.6,0-2.4c-6.6,0-7.9-3.2-7.9-3.2C263.1,1209.3,267.6,1207.9,269.5,1207.4z"/>
					<g id="XMLID_7_">
						<path id="XMLID_111_" class="st21" d="M398,1219.8c-9.2,4.7-19,7.6-28.2,12.1c-9,4.7-17.6,11.1-22.7,20
							c-4.5,8.2-5.5,17.6-5.8,27.1c-0.8,18.7,0.8,37.7,4.5,56.1c0.8,3.4,1.6,7.1,4.5,9.2c2.6,1.8,6.1,2.1,9.2,1.3
							c10.5-2.1,18.4-11.1,22.4-21.1c4-10,4.5-20.8,5.3-31.3c1.8-21.6,5.3-43.2,13.2-63.2c0.8-1.8,1.6-4,1.6-5.8
							C402.2,1222.2,400.1,1220.3,398,1219.8z"/>
						
							<linearGradient id="XMLID_170_" gradientUnits="userSpaceOnUse" x1="437.4651" y1="360.949" x2="442.9985" y2="238.1062" gradientTransform="matrix(1 0 0 -1 0 1568.7)">
							<stop  offset="0" style="stop-color:#FC7A66"/>
							<stop  offset="1" style="stop-color:#FFB04E"/>
						</linearGradient>
						<path id="XMLID_102_" class="st56" d="M414.1,1368.1c-0.5-8.4-2.1-16.6-4.2-24.8c-1.1-4-2.4-7.9-4.7-11.3
							c-2.9-4-7.1-6.3-10.8-9.5c-13.4-10.8-21.1-28.7-19-45.8c0.8-7.4,3.2-14.8,6.1-21.6c4.7-12.1,10.3-23.7,16.6-35
							c30-15,68.2-13.7,96.1,4.7c6.8,17.1,11.3,34.8,12.4,53.2c0.3,6.3,0.5,12.6-1.6,18.7c-2.6,8.4-9.2,15.5-10.8,24.5
							c-1.6,8.7,2.1,16.9,5.8,24.8c-6.1,7.9-14.2,15.5-23.7,18.7c-5.3,1.8-10.8,2.6-16.3,3.4
							C444.4,1369.9,429.9,1369.4,414.1,1368.1z"/>
						<g id="XMLID_96_">
							<path id="XMLID_396_" class="st57" d="M466.7,1321.2c0,0,16.1-6.6,26.9-29c10.8-22.4-18.7-17.6-18.7-17.6
								c-5.8-16.1-14.2-15.5-14.2-15.5l-7.6,2.1c-0.8-12.6-0.5-37.9-0.3-51.1c-4.7-0.5-9.5-0.5-14.5-0.5c-3.7,13.4-8.4,36.1-5,55.3
								l-10-4.7c0,0-9.2,3.7-15.5,16.1c0,0-17.4-15.5-12.4,5.8c5,21.1,27.7,45.3,27.7,45.3s2.9,19.2,8.7,42.1
								c9.2,0.3,18.4,0,27.9-1.3c5.3-0.8,10.5-1.6,15.8-3.2C465.2,1342.8,466.7,1321.2,466.7,1321.2z"/>
						</g>
						<ellipse id="XMLID_103_" class="st22" cx="411.2" cy="1248" rx="6.6" ry="13.2"/>
						<ellipse id="XMLID_104_" class="st22" cx="474.9" cy="1246.7" rx="6.1" ry="14.5"/>
						<path id="XMLID_105_" class="st27" d="M460.4,1259c-11.6-5.5-25.8-5.3-37.1,1.1c2.6,5,5.8,9.7,10.8,12.4
							c2.4,1.3,5.3,2.1,8.2,2.1c3.7-0.3,7.1-2.6,9.7-5.3C454.6,1266.7,457.8,1261.7,460.4,1259z"/>
						<g id="XMLID_2_">
							<path id="XMLID_100_" class="st58" d="M422.2,1299.6c-0.8,0-1.3,0.3-2.1,0.5c5.3,3.7,12.1,7.6,16.6,10.8
								c1.6,1.1,4,0.8,5.8,0.5c6.3-1.3,12.6-3.7,18.7-6.8c-1.1-0.5-2.4-1.1-3.4-1.6C446.7,1298.8,434.1,1297.5,422.2,1299.6z"/>
							<path id="XMLID_108_" class="st27" d="M483.6,1287.5c-4,1.8-9,3.7-12.9,5.8c-9.2-6.3-20.5-9.5-31.9-9.5
								c-2.9,0-5.8,0.3-8.7,0.5c-5,0.5-11.6,1.3-16.3,3.4c-4.2-2.4-8.2-4.7-12.4-7.1c4.7,6.6,8.4,11.6,14.8,16.6
								c1.1,0.8,2.4,1.8,4,2.9c0.8-0.3,1.3-0.3,2.1-0.5c11.9-2.1,24.5-0.8,35.8,3.4c1.1,0.5,2.4,1.1,3.4,1.6
								C469.9,1300.1,477.5,1294.3,483.6,1287.5z"/>
						</g>
						<path id="XMLID_110_" class="st21" d="M488.3,1221.1c6.1,0.3,10.3,4,15.5,6.8c12.1,6.8,27.9,6.6,37.7,16.3
							c7.4,7.4,9.5,18.4,10.3,28.7c1.1,14,0.3,28.2-2.4,42.1c-1.1,6.1-2.6,12.1-6.1,17.4c-3.4,5.3-9.5,9-15.5,8.4
							c-4.7-0.5-9.2-3.4-12.1-7.4s-4.7-8.4-6.3-12.9c-4-11.6-6.3-24-7.6-36.1c-0.5-5.8-0.8-11.9-1.3-17.6
							C498.6,1251.7,493.3,1235.1,488.3,1221.1z"/>
						
							<linearGradient id="XMLID_171_" gradientUnits="userSpaceOnUse" x1="507.9829" y1="222.2729" x2="513.4866" y2="104.4967" gradientTransform="matrix(1 0 0 -1 0 1568.7)">
							<stop  offset="0" style="stop-color:#FC7A66"/>
							<stop  offset="1" style="stop-color:#FFB04E"/>
						</linearGradient>
						<path id="XMLID_113_" class="st59" d="M728.8,1486.1c8.2-44.3-26.3-150.4-172.3-139.3c-19,1.3-37.4,7.1-55.3,0.5
							c-27.4,12.6-55.3,19.2-85.3,21.9c0.5,12.9,1.1,26.1,1.6,39c0.3,4.2,0.3,9-2.1,12.4c-1.3,2.1-3.7,3.7-5.8,5
							c-9.7,6.6-19.5,13.2-29,19.8c-6.8,4.5-13.7,9.2-21.3,12.1c-11.9,4.5-25,4.7-37.1,8.7s-24,14-23.4,26.9c0,1.1,0.3,2.4,0.8,3.2
							c1.3,2.4,4.7,2.6,7.4,2.6c46.4,0.5,93,1.1,139.1-5c11.9-1.6,21.9,0.3,34-0.8c8.4-0.5,16.9-1.8,25.3-2.4
							c10.8-1.1,21.3-1.3,32.1-1.6c13.7-0.5,27.4-1.1,41.1-1.6c19.5-0.8,39.2-1.3,59-1.1C660.9,1486.9,704.8,1482.4,728.8,1486.1z"
							/>
						
							<linearGradient id="XMLID_172_" gradientUnits="userSpaceOnUse" x1="432.5983" y1="98.2736" x2="336.316" y2="88.3134" gradientTransform="matrix(1 0 0 -1 0 1568.7)">
							<stop  offset="0" style="stop-color:#FC7A66"/>
							<stop  offset="1" style="stop-color:#FFB04E"/>
						</linearGradient>
						<path id="XMLID_107_" class="st60" d="M615.8,1466.6c-31.3-7.9-63-16.1-94.3-24c-8.4-2.1-16.9-4.2-24.5-7.9
							c-6.1-2.6-11.9-6.3-18.4-7.6c-19.8-4.2-37.9,12.4-48.7,29.2c-1.8,3.2-4,6.3-6.6,8.4c-4.5,3.7-10.5,4.5-16.3,5.3
							c-25,4-49,14-69.5,28.7c36.1,0.3,72.4-0.5,108.3-5.3c11.9-1.6,21.9,0.3,34-0.8c8.4-0.5,16.9-1.8,25.3-2.4
							c10.8-1.1,21.3-1.3,32.1-1.6c13.7-0.5,27.4-1.1,41.1-1.6c19.5-0.8,39.2-1.3,59-1.1c16.6,0.3,36.1-2.1,54.3-2.4
							C665.9,1479.5,640.6,1473.2,615.8,1466.6z"/>
						<path id="XMLID_117_" class="st57" d="M431.7,1454.2c-5.8-11.9-7.1-25.8-5.3-39c0.8-5.8,2.1-11.6,5.3-16.3
							c3.2-4.7,8.4-8.4,14.2-8.4c5.5,0,10.3,3.4,14,7.4c3.7,4,6.8,8.4,10.5,12.4c13.2,12.9,33.5,14.5,51.9,15.3
							c10.8,0.5,21.6,0.8,32.4,1.3c10,0.3,20.3,0.8,29.5,4.2c21.6,7.9,34.5,30.6,38.7,53.2c-48.2,8.4-97.2,11.1-146.2,8.4
							c-4.5-0.3-9.2-0.5-12.9-3.2c-4.5-2.9-2.1-6.8-4.2-10c-1.8-2.6-7.6-3.7-10.5-5.5C441.7,1469.2,435.7,1462.4,431.7,1454.2z"/>
						<path id="XMLID_112_" class="st27" d="M413,1358.1c0,0,46.1,12.4,84.6-17.4c0,0,10.5-1.3,7.1,10
							c-3.4,11.1-33.2,35.6-91.7,26.9C413,1377.6,398.3,1365.7,413,1358.1z"/>
						
							<linearGradient id="XMLID_173_" gradientUnits="userSpaceOnUse" x1="670.0306" y1="208.4212" x2="747.1842" y2="208.4212" gradientTransform="matrix(1 0 0 -1 0 1568.7)">
							<stop  offset="0" style="stop-color:#FC7A66"/>
							<stop  offset="1" style="stop-color:#FFB04E"/>
						</linearGradient>
						<path id="XMLID_115_" class="st61" d="M713.5,1342.5c1.8-7.4,2.4-15.3,4-22.7c0.3-2.1,1.1-4.2,3.2-5c1.1-0.3,2.4,0,3.4,0.5
							c6.3,2.6,10.8,8.7,14.5,14.5c2.6,4.2,5.3,8.7,6.8,13.4c5,15-1.1,31.9-12.4,42.9c-11.3,11.1-26.9,16.6-42.4,19
							c-7.4,1.3-19.5,1.1-20.5-9c-0.8-7.4,7.9-10,13.2-13.2C698,1373.9,709.3,1359.4,713.5,1342.5z"/>
						
							<linearGradient id="XMLID_174_" gradientUnits="userSpaceOnUse" x1="543.512" y1="138.4952" x2="436.1629" y2="114.1481" gradientTransform="matrix(1 0 0 -1 0 1568.7)">
							<stop  offset="0" style="stop-color:#FC7A66"/>
							<stop  offset="1" style="stop-color:#FFB04E"/>
						</linearGradient>
						<path id="XMLID_116_" class="st62" d="M479.9,1438.1c0.8,2.1,1.8,4.5,1.3,6.8c-0.5,1.8-1.8,3.2-3.2,4.5
							c-11.1,9.7-25.8,13.4-39.8,18.2c-14,4.7-28.4,11.9-34.5,25.3c-1.3,2.9-2.4,6.6-0.8,9.5c2.1,3.7,6.8,4.5,11.1,4.7
							c39,2.1,78.2-0.3,116.7-7.4c2.6-0.5,5-1.1,7.4-2.1c4.2-2.4,6.6-7.4,7.9-12.1c5.3-19.8-4-40.3-9-60.3
							c-3.4-13.2-5.3-27.7-14.8-37.4c-4-4-8.7-6.8-14-8.7c-11.1-4-35.6-4.7-41.9,8.2c-3.7,7.6,1.8,16.9,4,24.2
							C473.1,1420.5,476.2,1429.5,479.9,1438.1z"/>
						
							<linearGradient id="XMLID_175_" gradientUnits="userSpaceOnUse" x1="694.2159" y1="151.9693" x2="572.4797" y2="112.1283" gradientTransform="matrix(1 0 0 -1 0 1568.7)">
							<stop  offset="0" style="stop-color:#FC7A66"/>
							<stop  offset="1" style="stop-color:#FFB04E"/>
						</linearGradient>
						<path id="XMLID_114_" class="st63" d="M656.6,1368.3c-12.9-6.1-26.6-10.5-40.8-11.3s-28.7,2.4-40.6,10.3
							c-4.7,3.2-9,7.1-11.6,12.1c-3.4,6.6-4.2,14.5-3.4,21.9c2.6,26.6,21.1,48.7,38.7,69c-17.9,4-36.1,8.2-54,12.1
							c-4.2,0.8-8.4,1.8-11.6,4.5c-3.4,2.6-5.3,7.4-3.4,11.1c2.1,4.7,8.4,5.3,13.7,5.5c47.1,0.3,94.3,0.8,141.4,1.1
							c8.4,0,17.1,0,25-2.4c8.2-2.6,15.5-8.2,18.4-16.1c2.4-6.8,1.1-14.2-0.3-21.1c-1.6-7.6-2.9-15-4.5-22.7
							c-3.2-16.1-9-29.5-20.8-41.4C690.4,1388.4,673,1376,656.6,1368.3z"/>
					</g>
					<ellipse id="XMLID_192_" class="st30" cx="232.8" cy="1220.8" rx="1.1" ry="2.1"/>
					<ellipse id="XMLID_200_" class="st30" cx="268.7" cy="1214.3" rx="1.1" ry="2.1"/>
				</g>
				<g id="XMLID_219_">
					<path id="XMLID_122_" class="st18" d="M1444.2,1029.4H1233l-12.6,427h176.7h46.9h46.9v-372.2
						C1491.4,1053.8,1470.3,1029.4,1444.2,1029.4z"/>
					<path id="XMLID_118_" class="st19" d="M1280.1,1456.3h-93.8v-380.1c0-25.8,21.1-46.9,46.9-46.9l0,0c25.8,0,46.9,21.1,46.9,46.9
						L1280.1,1456.3L1280.1,1456.3z"/>
				</g>
			</g>
		</g>
	</g>
</g>
</svg>
