<?xml version="1.0" encoding="utf-8"?>
<!-- Generator: Adobe Illustrator 24.1.2, SVG Export Plug-In . SVG Version: 6.00 Build 0)  -->
<svg version="1.1" id="master-artboard" xmlns="http://www.w3.org/2000/svg" xmlns:xlink="http://www.w3.org/1999/xlink" x="0px"
	 y="0px" viewBox="0 0 1568 1568" style="enable-background:new 0 0 1568 1568;" xml:space="preserve">
<style type="text/css">
	.st0{fill-rule:evenodd;clip-rule:evenodd;fill:#FFFFFF;}
	.st1{fill-rule:evenodd;clip-rule:evenodd;fill:#9ED15A;}
	.st2{fill-rule:evenodd;clip-rule:evenodd;fill:url(#SVGID_1_);}
	.st3{fill-rule:evenodd;clip-rule:evenodd;fill:#E9EBE6;}
	.st4{fill-rule:evenodd;clip-rule:evenodd;fill:#9A9787;}
	.st5{fill-rule:evenodd;clip-rule:evenodd;fill:#FAFDFF;}
	.st6{fill-rule:evenodd;clip-rule:evenodd;fill:#E9F7FF;}
	.st7{fill-rule:evenodd;clip-rule:evenodd;fill:#8E8870;}
	.st8{opacity:0.13;fill-rule:evenodd;clip-rule:evenodd;fill:#56B1E8;enable-background:new    ;}
	.st9{fill-rule:evenodd;clip-rule:evenodd;fill:#D3A9A9;}
	.st10{fill-rule:evenodd;clip-rule:evenodd;fill:#6E818C;}
	.st11{fill-rule:evenodd;clip-rule:evenodd;fill:#F7BE7F;}
	.st12{fill-rule:evenodd;clip-rule:evenodd;fill:#FFD39E;}
	.st13{fill-rule:evenodd;clip-rule:evenodd;fill:#4E3818;}
	.st14{fill-rule:evenodd;clip-rule:evenodd;fill:#66471F;}
	.st15{fill-rule:evenodd;clip-rule:evenodd;fill:#B57F28;}
	.st16{fill-rule:evenodd;clip-rule:evenodd;fill:#F67D58;}
	.st17{fill-rule:evenodd;clip-rule:evenodd;fill:#CC9A42;}
	.st18{fill-rule:evenodd;clip-rule:evenodd;fill:#8393C4;}
	.st19{fill-rule:evenodd;clip-rule:evenodd;fill:#FF463D;}
	.st20{fill-rule:evenodd;clip-rule:evenodd;fill:#247970;}
	.st21{fill-rule:evenodd;clip-rule:evenodd;fill:#333642;}
	.st22{fill-rule:evenodd;clip-rule:evenodd;fill:#4C4E59;}
	.st23{fill-rule:evenodd;clip-rule:evenodd;fill:#414143;}
	.st24{fill-rule:evenodd;clip-rule:evenodd;fill:#F58484;}
	.st25{opacity:0.2;fill-rule:evenodd;clip-rule:evenodd;fill:#56B1E8;enable-background:new    ;}
	.st26{opacity:0.2;}
	.st27{fill-rule:evenodd;clip-rule:evenodd;fill:#C3E4F4;}
	.st28{fill-rule:evenodd;clip-rule:evenodd;fill:#E95854;}
	.st29{fill-rule:evenodd;clip-rule:evenodd;fill:#2A2A2D;}
	.st30{fill-rule:evenodd;clip-rule:evenodd;fill:#B0E4E1;}
	.st31{fill-rule:evenodd;clip-rule:evenodd;fill:#4E4E4F;}
	.st32{fill-rule:evenodd;clip-rule:evenodd;fill:#C3C3DB;}
	.st33{fill-rule:evenodd;clip-rule:evenodd;fill:#56B1E8;}
</style>
<path class="st0" d="M1568,25.6"/>
<path class="st1" d="M0,461h1568v889.9H0V461z"/>
<linearGradient id="SVGID_1_" gradientUnits="userSpaceOnUse" x1="810.4081" y1="2113.7183" x2="810.4081" y2="772.9768" gradientTransform="matrix(0.5235 0 0 -0.5235 359.7479 1122.953)">
	<stop  offset="0" style="stop-color:#CCE3FF"/>
	<stop  offset="1" style="stop-color:#7CE3FF"/>
</linearGradient>
<path class="st2" d="M0,0h1568v733.8H0V0z"/>
<path class="st3" d="M1568,1230.6v226H0v-226l661.1-500.4h245.8L1568,1230.6z"/>
<path class="st4" d="M1568,1318.1V1568H0v-249.9l661.1-585.1h245.8L1568,1318.1z"/>
<g>
	<path class="st5" d="M658.3,453.9c18.9,0,35.9,10,45.2,25.5c11.6-11.4,27.1-17.9,43.8-17.9c33.3,0,60.7,26.1,62.7,58.9
		c27.1,2.2,48.4,25,48.4,52.6c0,29.1-23.7,52.7-52.7,52.7H606.1c-29.1,0-52.7-23.7-52.7-52.7c0-29.1,23.7-52.7,52.7-52.7
		c0.4,0,0.8,0,1.2,0c-1.2-4.4-1.8-9-1.8-13.7C605.5,477.6,629.2,453.9,658.3,453.9z"/>
	<path class="st5" d="M218.8,489.5c24.6,0,44.7,20,44.7,44.7c0,1.4-0.1,2.8-0.2,4.2c1.6-0.2,3.2-0.3,4.8-0.3
		c19.9,0,36.1,16.1,36.1,36.1c0,19.9-16.1,36.1-36.1,36.1H110.8c-15.5,0-28.2-12.6-28.2-28.2c0-15.5,12.6-28.2,28.2-28.2
		c5.7,0,11,1.7,15.5,4.7c-1.2-3.5-1.9-7.2-1.9-11c0-18.4,14.9-33.3,33.3-33.3c7,0,13.4,2.1,18.7,5.8
		C182.2,502.3,199,489.5,218.8,489.5z"/>
	<path class="st6" d="M1376.5,416.6c-20.6,0-39,10.8-49.1,27.7c-12.6-12.4-29.5-19.4-47.6-19.4c-36.2,0-65.9,28.3-68.1,64
		c-29.4,2.4-52.5,27.1-52.5,57.1c0,31.6,25.7,57.3,57.3,57.3h216.8c31.6,0,57.3-25.7,57.3-57.3c0-31.6-25.7-57.3-57.3-57.3
		c-0.5,0-0.9,0-1.4,0c1.3-4.8,1.9-9.8,1.9-14.8C1433.8,442.3,1408,416.6,1376.5,416.6z"/>
	<path class="st5" d="M1301.3,476.5c-16.1,0-30.6,8.6-38.6,21.8c-9.9-9.7-23.2-15.3-37.5-15.3c-28.4,0-51.8,22.3-53.6,50.3
		c-23.1,1.9-41.3,21.3-41.3,44.9c0,24.8,20.2,45.1,45.1,45.1h170.5c24.8,0,45.1-20.2,45.1-45.1c0-24.8-20.2-45.1-45.1-45.1
		c-0.3,0-0.7,0-1,0c1-3.8,1.5-7.7,1.5-11.7C1346.3,496.7,1326.1,476.5,1301.3,476.5z"/>
</g>
<g>
	<path class="st7" d="M1274.6,1216.2c0,9.8-223.5,17.7-499.2,17.7s-499.2-7.9-499.2-17.7c0-9.8,223.5-17.7,499.2-17.7
		S1274.6,1206.4,1274.6,1216.2z"/>
	<g>
		<path class="st8" d="M1127.8,841.9l-68.7-153.7c-20-44.8-64.5-73.6-113.6-73.6H622.4c-49.1,0-93.6,28.8-113.6,73.6l-68.7,153.7"/>
		<path class="st9" d="M1118.1,838H449.9l21.5-40.1h625.1L1118.1,838z"/>
		<g>
			<g>
				<g>
					<path class="st10" d="M931.8,789.6l-118.8,68.6l-5.6-27.1c-2.7-13,1.5-26.6,11.2-35.7l0,0c15.8-15,35-26.2,56-32.3l0,0
						c12.8-3.8,26.6-0.7,36.6,8.1L931.8,789.6z"/>
					<path class="st11" d="M852.5,789.1L852.5,789.1c5.6-3.2,7.5-10.4,4.3-15.9l-16.6-28.7L820,756.1l16.6,28.7
						C839.8,790.4,846.9,792.3,852.5,789.1z"/>
					<g>
						<g>
							<path class="st11" d="M851.1,733.3c1,2.8,3.7,4.3,5.9,3.5s2.6-5.5,1.5-8.2c-1-2.8-3-2.6-5.3-1.8S850,730.5,851.1,733.3z"/>
							<path class="st11" d="M804.9,759.9c1.9,2.3,1.9,5.4,0.1,6.9c-1.9,1.5-6-0.5-7.9-2.8c-1.9-2.3-0.8-4,1.1-5.5
								S803,757.6,804.9,759.9z"/>
						</g>
						<path class="st12" d="M787.5,746.9c9.7,16.9,39.1,36.2,56,26.4c16.9-9.7,14.8-44.9,5.1-61.8c-9.7-16.9-31.3-22.6-48.2-12.9
							C783.5,708.5,777.7,730.1,787.5,746.9z"/>
						<path class="st13" d="M798.2,759.8c-13-17.6-11.4-47.1,4.8-56.5c16.2-9.4,42.6,3.9,51.3,24c-3.8-25.3-16.9-44-30.8-35
							C790.4,683.5,761,730.2,798.2,759.8z"/>
						<path class="st14" d="M823.5,692.3c-38-10.1-51.6,34-42.1,50.3C803.2,741.4,849.1,714.2,823.5,692.3z"/>
					</g>
				</g>
			</g>
			<g>
				<g>
					<g>
						<path class="st15" d="M678.2,772.1c0,0,10.7,12.8,24.9,21c14.2,8.2,30.7,11,30.7,11c26.2-18.7,66.2-79.7,23.3-104.5
							C714.2,674.9,681.3,740.1,678.2,772.1z"/>
						<g>
							<path class="st12" d="M649.7,777.5c6.8-10.7,19.9-15.6,32.1-12c3.6,1,7.2,2.3,10.7,3.7l-14,24.3l36.8,21.2l14-24.3
								c2.9,2.3,5.8,4.8,8.5,7.5c9.2,8.8,11.5,22.5,5.7,33.7l-11.6,22.4l-95.7-55.2L649.7,777.5z"/>
							<path class="st11" d="M678.5,793.4l14-24.3c6.6,2.6,13,5.7,19.2,9.2c6.1,3.5,12,7.6,17.5,12l-14,24.3L678.5,793.4z"/>
						</g>
						<g>
							<g>
								<path class="st16" d="M678.5,764.7c1.1,0.2,2.1,0.5,3.2,0.8l0,0c5,1.5,10,3.2,14.8,5.3c-2.4,8.4-2.6,18.7,3,28.4
									c11.2,0,20.1-5.4,26.1-11.6c4.2,3.2,8.2,6.6,12,10.2l0,0c0.8,0.8,1.6,1.6,2.3,2.4c-10.1,10.2-19.6,25.4-29.1,41.7
									l-53.8-31.1C666.4,794.4,674.8,778.5,678.5,764.7z"/>
							</g>
							<path class="st11" d="M704,791.6L704,791.6c5.6,3.2,12.7,1.3,15.9-4.3l16.6-28.7L716.3,747l-16.6,28.7
								C696.5,781.3,698.4,788.5,704,791.6z"/>
							<g>
								<g>
									<path class="st11" d="M751.6,762.5c-1.9,2.3-1.9,5.4-0.1,6.9c1.9,1.5,6-0.5,7.9-2.8c1.9-2.3,0.8-4-1.1-5.5
										C756.5,759.6,753.5,760.2,751.6,762.5z"/>
									<path class="st11" d="M705.5,735.8c-1,2.8-3.7,4.3-5.9,3.5s-2.6-5.5-1.5-8.2c1-2.8,3-2.6,5.3-1.8
										C705.5,730.2,706.5,733.1,705.5,735.8z"/>
								</g>
								<path class="st12" d="M707.9,714.2c-9.7,16.9-11.8,52,5.1,61.8c16.9,9.7,46.3-9.6,56-26.4c9.7-16.9,3.9-38.5-12.9-48.2
									C739.3,691.6,717.7,697.4,707.9,714.2z"/>
							</g>
						</g>
					</g>
				</g>
				<path class="st17" d="M698.8,756.5c-1.9-11.6,0.6-25.3,5.9-38.4l-3.3-1.9c14.1-18.2,33.5-29.3,55.6-16.5
					c22.2,12.8,22.2,35.2,13.5,56.5l-3.3-1.9c-8.6,11.2-19.3,20.2-30.3,24.3c11.5-8.4,19.1-20.6,23.2-28.4l-48.4-28
					C707.1,729.7,700.4,742.4,698.8,756.5z"/>
			</g>
		</g>
		<g>
			<g>
				<path class="st18" d="M700,764.8l-8.5,68.7H511l-8.5-68.7c-2.5-20,13.1-37.6,33.3-37.6h12.4l2.6-24.2
					c2.7-25.8,24.5-45.4,50.5-45.4l0,0c25.9,0,47.8,19.6,50.5,45.4l2.6,24.2h12.4C686.8,727.2,702.4,744.8,700,764.8z"/>
				<g>
					<path class="st13" d="M642,750.3c0,0-19.9,6.1-40.7,6.1c-20.8,0-40.7-6.1-40.7-6.1c-16.9-30.9-22.2-107.7,40.7-107.7
						S658.9,719.3,642,750.3z"/>
					<g>
						<path class="st12" d="M669.9,795.9c-0.7-16.1-12-29.7-27.6-33.5c-4.6-1.1-9.3-2.1-14.1-2.8v35.6h-53.8v-35.6
							c-4.7,0.8-9.4,1.7-14.1,2.8c-15.7,3.8-26.9,17.5-27.6,33.5l-1.4,32h140L669.9,795.9z"/>
						<path class="st11" d="M628.2,795.2v-35.5c-8.9-1.4-17.9-2.1-26.9-2.1c-9,0-18,0.7-26.9,2.1v35.6L628.2,795.2L628.2,795.2z"/>
					</g>
					<g>
						<g>
							<path class="st19" d="M646.3,763.6c-1.3-0.4-2.7-0.8-4.1-1.2l0,0c-6.5-1.6-13-2.8-19.7-3.6c-2.7,10.6-9,22.2-21.3,29.3
								c-12.3-7.1-18.6-18.6-21.3-29.3c-6.6,0.8-13.2,2-19.7,3.6l0,0c-1.4,0.3-2.7,0.8-4.1,1.2c4.6,17.6,5.5,40.3,5.6,64.3h78.9
								C640.9,803.9,641.8,781.2,646.3,763.6z"/>
						</g>
						<path class="st11" d="M601.3,777.1L601.3,777.1c-8.2,0-14.8-6.6-14.8-14.8v-42H616v42C616.1,770.5,609.5,777.1,601.3,777.1z"
							/>
						<g>
							<g>
								<path class="st11" d="M567.4,714.8c0.6,3.7-1.3,7.1-4.3,7.6c-3,0.5-6.3-4.3-6.9-8.1c-0.6-3.7,1.7-4.8,4.7-5.4
									S566.8,711.1,567.4,714.8z"/>
								<path class="st11" d="M635.1,714.8c-0.6,3.7,1.3,7.1,4.3,7.6c3,0.5,6.3-4.3,6.9-8.1c0.6-3.7-1.7-4.8-4.7-5.4
									C638.7,708.6,635.7,711.1,635.1,714.8z"/>
							</g>
							<path class="st12" d="M646,689.5c0,24.7-20,64.6-44.8,64.6c-24.7,0-44.8-39.9-44.8-64.6s20-44.8,44.8-44.8
								C626,644.8,646,664.8,646,689.5z"/>
						</g>
					</g>
					<g>
						<path class="st14" d="M572.1,717.7c-6-26.6,13.6-38,44-47.2c15.6,9,15.7,41.7,36.8,39.7c2.4-32.4-8.9-67.7-51.6-67.7
							c-62.9,0-57.6,76.8-40.7,107.7C560.5,750.3,578.1,744.2,572.1,717.7z"/>
					</g>
				</g>
			</g>
			<g>
				<path class="st18" d="M1065.4,764.8l-8.4,68.7H876.5l-8.5-68.7c-2.5-20,13.1-37.6,33.3-37.6h12.4l2.6-24.2
					c2.7-25.8,24.5-45.4,50.5-45.4l0,0c25.9,0,47.8,19.6,50.5,45.4l2.6,24.2h12.4C1052.3,727.2,1067.9,744.8,1065.4,764.8z"/>
				<g>
					<path class="st20" d="M1053.7,827.9H879.8l11-33.3c5.3-16,18.6-28.2,34.9-32.2l0,0c26.9-6.5,55-6.5,81.9,0l0,0
						c16.4,3.9,29.6,16.1,34.9,32.2L1053.7,827.9z"/>
					<path class="st11" d="M966.7,777.1L966.7,777.1c-8.2,0-14.8-6.6-14.8-14.8v-42h29.6v42C981.5,770.5,974.9,777.1,966.7,777.1z"
						/>
					<g>
						<g>
							<path class="st11" d="M932.9,714.8c0.6,3.7-1.3,7.1-4.3,7.6c-3,0.5-6.3-4.3-6.9-8.1c-0.6-3.7,1.7-4.8,4.7-5.4
								C929.3,708.6,932.3,711.1,932.9,714.8z"/>
							<path class="st11" d="M1000.5,714.8c-0.6,3.7,1.3,7.1,4.3,7.6c3,0.5,6.3-4.3,6.9-8.1c0.6-3.7-1.7-4.8-4.7-5.4
								C1004.1,708.6,1001.1,711.1,1000.5,714.8z"/>
						</g>
						<path class="st12" d="M1011.5,689.5c0,24.7-20,64.6-44.8,64.6c-24.7,0-44.8-39.9-44.8-64.6s20-44.8,44.8-44.8
							C991.5,644.8,1011.5,664.8,1011.5,689.5z"/>
						<path class="st21" d="M1007.8,710.5c3.2-27.6-17.3-58.9-41.1-58.9c-23.7,0-44.2,31.3-41.1,58.9c-11.9-30.2-9.4-59,11.6-58
							C968,621.7,1030,654.4,1007.8,710.5z"/>
						<path class="st22" d="M937.2,652.4c12-17,53.6-25.8,80,11.6c-7-2.7-17.7,1.4-17.7,1.4c9.2,11.5,9.2,15.7,9.2,15.7
							C986.6,687.4,923.1,692.6,937.2,652.4z"/>
						<path class="st21" d="M991,728.2c-3.8,0-10.6-3.2-24.2-3.2s-20.5,3.2-24.2,3.2c-3.8,0-7.9-2.7-16.8-17.8
							c9.8,33.1,27.7,45.1,41.1,45.1l0,0c13.4,0,31.3-11.9,41.1-45.1C998.9,725.5,994.8,728.2,991,728.2z M971.4,745.5
							c-1,0-0.6-6.5-0.6-6.5l-4.1-0.4l-4.1,0.4c0,0,0.4,6.5-0.6,6.5c-3.7,0-15.8-5.5-16.8-13c5.2-4.4,16.2-1,18.8-1.5
							c2.5-0.5,2.7-2.3,2.7-2.6c0,0.3,0.2,2.1,2.7,2.6c2.6,0.6,13.7-2.9,18.8,1.5C987.2,740.1,975.2,745.5,971.4,745.5z"/>
					</g>
				</g>
				<g>
					<path class="st23" d="M966.7,905.5c-32.4,0-58.7-26.4-58.7-58.7c0-32.4,26.4-58.7,58.7-58.7s58.7,26.4,58.7,58.7
						C1025.5,879.2,999.1,905.5,966.7,905.5z M966.7,804.5c-23.3,0-42.3,19-42.3,42.3c0,23.3,19,42.3,42.3,42.3s42.3-19,42.3-42.3
						C1009.1,823.5,990.1,804.5,966.7,804.5z"/>
				</g>
			</g>
		</g>
		<g>
			<g>
				<path class="st24" d="M461.3,832.8c-21.2-62.8-25.6-80.2-64.2-79.8c-38.6,0.3-70.3,12.8-56.3,46.7c11.6,28,63.4,28.3,80.3,40.4
					C438,852.3,463.7,849.5,461.3,832.8z"/>
				<path class="st24" d="M1106.7,832.8c21.2-62.8,25.6-80.2,64.2-79.8c38.6,0.3,70.3,12.8,56.3,46.7c-11.6,28-63.4,28.3-80.3,40.4
					C1130,852.3,1104.3,849.5,1106.7,832.8z"/>
			</g>
			<path class="st25" d="M1127.8,841.9l-68.7-153.7c-20-44.8-64.5-73.6-113.6-73.6H622.4c-49.1,0-93.6,28.8-113.6,73.6l-68.7,153.7"
				/>
			<g class="st26">
				<path class="st27" d="M818.6,834h-78.3l78.1-219h78.3L818.6,834z"/>
				<path class="st27" d="M667.7,834h-59.3l78.1-219h59.3L667.7,834z"/>
				<path class="st27" d="M881.4,830.2h-27.6L932,611.2h27.6L881.4,830.2z"/>
			</g>
			<g>
				<path class="st28" d="M1053.7,664c-18.9-38.9-57.4-64.5-100.6-66.9H614.9c-43.2,2.3-81.7,28-100.6,66.9l-88.7,182.9h24.1
					l76.7-158.2c18-37.2,54.9-61.6,96.1-63.9h323c41.3,2.2,78.1,26.7,96.1,63.9l76.7,158.2h24.1L1053.7,664z"/>
			</g>
			<g>
				<path class="st23" d="M489.8,1215h-88.7c-14.4,0-26-11.7-26-26v-139.9c0-14.4,11.7-26,26-26h88.7c14.4,0,26,11.7,26,26V1189
					C515.8,1203.3,504.1,1215,489.8,1215z"/>
				<g>
					<path class="st29" d="M454.8,1023h9.9V1215h-9.9V1023z"/>
					<path class="st29" d="M483.4,1023h9.9V1215h-9.9V1023z"/>
					<path class="st29" d="M397.5,1023h9.9V1215h-9.9V1023z"/>
					<path class="st29" d="M426.2,1023h9.9V1215h-9.9V1023z"/>
				</g>
			</g>
			<g>
				<path class="st23" d="M1155.4,1215h-88.7c-14.4,0-26-11.7-26-26v-139.9c0-14.4,11.7-26,26-26h88.7c14.4,0,26,11.7,26,26V1189
					C1181.4,1203.3,1169.7,1215,1155.4,1215z"/>
				<g>
					<path class="st29" d="M1120.4,1023h9.9V1215h-9.9V1023z"/>
					<path class="st29" d="M1149,1023h9.9V1215h-9.9V1023z"/>
					<path class="st29" d="M1063.1,1023h9.9V1215h-9.9V1023z"/>
					<path class="st29" d="M1091.7,1023h9.9V1215h-9.9V1023z"/>
				</g>
			</g>
			<path class="st28" d="M1085.8,820.8H482.2c-70.5,4.9-124.1,65.4-120.4,135.9c3.8,73.1,3.1,122.8,46.5,151.5
				c35.4,23.3,78.9,34.3,375.7,34.3s340.4-11,375.7-34.3c43.3-28.6,42.7-78.4,46.5-151.5C1209.9,886.2,1156.3,825.7,1085.8,820.8z"
				/>
			<path class="st24" d="M1073.4,820.8H494.6c32.1,38.6,29.1,91.8,29.1,91.8c28.1,9.5,67.8,19.9,260.4,19.9s232.3-10.4,260.4-19.9
				C1044.4,912.7,1041.4,859.4,1073.4,820.8z"/>
			<g>
				<g>
					<g>
						<path class="st30" d="M495.3,1075.6c0,12.1-9.8,21.9-21.9,21.9c-12.1,0-21.9-9.8-21.9-21.9c0-12.1,9.8-21.9,21.9-21.9
							C485.5,1053.7,495.3,1063.5,495.3,1075.6z"/>
					</g>
					<g>
						<path class="st0" d="M446.2,998.4l102.6,5.7c12.6,0.7,22.3-10.8,19.5-23.1l0,0c-2.8-12.1-11.8-21.8-23.7-25.3l-111-32.6
							c-16.8-5-32.2,11.3-26.2,27.8l9.2,25.5C421.1,989,432.8,997.7,446.2,998.4z"/>
						<g>
							<path class="st30" d="M537.9,973.6c0,11.9-9.7,21.6-21.6,21.6c0,0,0,0,0,0c-11.9,0-21.6-9.7-21.6-21.6l0,0
								c0-11.9,9.7-21.6,21.6-21.6c0,0,0,0,0,0C528.2,952,537.9,961.7,537.9,973.6L537.9,973.6z"/>
							<path class="st30" d="M490.7,966.6c0,15.8-12.8,28.6-28.6,28.6h0c-15.8,0-28.6-12.8-28.6-28.6l0,0
								c0-15.8,12.8-28.6,28.6-28.6h0C477.9,938,490.7,950.8,490.7,966.6L490.7,966.6z"/>
						</g>
					</g>
				</g>
				<g>
					<g>
						<path class="st30" d="M1116.4,1075.6c0,12.1-9.8,21.9-21.9,21.9c-12.1,0-21.9-9.8-21.9-21.9c0-12.1,9.8-21.9,21.9-21.9
							C1106.6,1053.7,1116.4,1063.5,1116.4,1075.6z"/>
					</g>
					<g>
						<path class="st0" d="M1121.8,998.4l-102.6,5.7c-12.6,0.7-22.3-10.8-19.5-23.1l0,0c2.8-12.1,11.8-21.8,23.7-25.3l111-32.6
							c16.8-5,32.2,11.3,26.2,27.8l-9.2,25.5C1146.9,989,1135.1,997.7,1121.8,998.4z"/>
						<g>
							<path class="st30" d="M1073.3,973.6c0,11.9-9.7,21.6-21.6,21.6l0,0c-11.9,0-21.6-9.7-21.6-21.6v0c0-11.9,9.7-21.6,21.6-21.6
								h0C1063.6,952,1073.3,961.7,1073.3,973.6L1073.3,973.6z"/>
							<path class="st30" d="M1134.5,966.6c0,15.8-12.8,28.6-28.6,28.6l0,0c-15.8,0-28.6-12.8-28.6-28.6l0,0
								c0-15.8,12.8-28.6,28.6-28.6l0,0C1121.7,938,1134.5,950.8,1134.5,966.6L1134.5,966.6z"/>
						</g>
					</g>
				</g>
			</g>
			<g>
				<path class="st23" d="M924.4,1120.7l3-9.4c4.6-14.1-6-28.6-20.9-28.6H661.5c-14.8,0-25.4,14.5-20.9,28.6l3,9.4
					c1.8,5.6,6.2,9.9,11.8,11.6c8.2,2.5,20.8,6.2,32.6,9.7c28.6,0.3,60.5,0.5,95.9,0.5c35.5,0,67.3-0.1,95.9-0.5
					c11.7-3.5,24.4-7.2,32.6-9.7C918.2,1130.6,922.6,1126.3,924.4,1120.7z"/>
			</g>
			<g>
				<path class="st31" d="M963.8,976.5l-11.7,31.3c-2.3,6.3-8.1,10.9-14.9,11.7l-148.1,17.6c-3.4,0.4-6.8,0.4-10.3,0l-148.1-17.6
					c-6.8-0.8-12.5-5.3-14.9-11.7l-11.7-31.3c-4.4-11.9,4.3-24.5,17-24.5h325.5C959.4,952,968.2,964.7,963.8,976.5z"/>
				<path class="st32" d="M797,1019.3h-26.2c-7.5,0-13.6-6.1-13.6-13.6v-26.2c0-7.5,6.1-13.6,13.6-13.6H797
					c7.5,0,13.6,6.1,13.6,13.6v26.2C810.6,1013.2,804.6,1019.3,797,1019.3z"/>
			</g>
		</g>
	</g>
</g>
<path class="st33" d="M440.2,778.4h687.5"/>
</svg>
