<svg id="Layer_1" data-name="Layer 1" xmlns="http://www.w3.org/2000/svg" viewBox="0 0 1568 1568"><defs><style>.cls-1{fill:#fff;}.cls-2{fill:#def5ff;}.cls-3{fill:#7d6a3c;}.cls-4{fill:#695831;}.cls-5{fill:#8ec641;}.cls-6{fill:#80b33b;}.cls-7{fill:#4a4b4d;}.cls-8{fill:#58595b;}.cls-9{fill:#916345;}.cls-10{fill:#ab7552;}.cls-11{fill:#a16c4b;}.cls-12{fill:#e0c69d;}.cls-13{fill:#ffe4b5;}.cls-14{fill:#e0c89f;}.cls-15{fill:#9bd3fa;}.cls-16{fill:#8fc1e6;}.cls-17{fill:#ff7e6a;}.cls-18{fill:#e6cba1;}.cls-19{fill:#c4865d;}.cls-20{fill:#4f5052;}.cls-21{fill:#7da32a;}.cls-22{fill:#91bd2f;}.cls-23{fill:#9af0e3;}.cls-24{fill:#a3fff2;}</style></defs><rect class="cls-1" width="1568" height="1226.29"/><path class="cls-2" d="M1349.9,655.59c.6-6.7.9-13.5.9-20.3,0-127.2-103.1-230.3-230.3-230.3a231.77,231.77,0,0,0-76.7,13.1c-58.8-88.2-159.2-146.4-273.3-146.4-93,0-176.8,38.7-236.6,100.7a328.87,328.87,0,0,0-92-13.1c-181.5,0-328.6,147.1-328.6,328.6a327.81,327.81,0,0,0,22.9,120.5,205.44,205.44,0,0,0-74.1,158.2c0,113.8,92.2,206,206,206h969.6c149.5,0,270.7-121.2,270.7-270.7C1508.5,792.49,1443.4,698.29,1349.9,655.59Z"/><path class="cls-3" d="M1284.1,893c-71.6-22.4-124.9-134.3-127.2-139.1l19-8.9c.5,1.1,51.6,108.4,114.4,128Z"/><path class="cls-4" d="M1305.4,856.49l-12.6-16.8c64.8-48.6,94.8-132.1,95.1-132.9l19.8,7C1406.4,717.49,1375.2,804.19,1305.4,856.49Z"/><rect class="cls-3" x="1267" y="702.79" width="27.9" height="469.8"/><rect class="cls-4" x="1294.8" y="702.79" width="17.9" height="469.8"/><path class="cls-5" d="M1481.4,725.89a43.15,43.15,0,0,0-14.4-2.5h-9.8v-7.6a37.77,37.77,0,0,0-37.8-37.8h-11a37.68,37.68,0,0,0-22.3,7.3v-26.1a37.77,37.77,0,0,0-37.8-37.8H1319a37.81,37.81,0,0,0-32.3,18.3,102.68,102.68,0,0,0-27.2-24.5v-21.1a37.77,37.77,0,0,0-37.8-37.8h-29.4a37.77,37.77,0,0,0-37.8,37.8v21.1a100.61,100.61,0,0,0-45,110.6,43.79,43.79,0,0,0-29.1,41.3v6.1a43.05,43.05,0,0,0,7.4,24.3l360.1-15C1447.8,782.79,1496,782,1481.4,725.89Z"/><path class="cls-6" d="M1481.4,725.89c14.5,56.2-33.6,56.9-33.6,56.9l-360.1,15a43.9,43.9,0,0,0,36.5,19.6H1467a44,44,0,0,0,43.9-43.9v-6.1A43.75,43.75,0,0,0,1481.4,725.89Z"/><path class="cls-3" d="M232.3,904.89c-68.6-21.4-119.6-128.6-121.8-133.2l18.2-8.5c.5,1,49.4,103.8,109.6,122.6Z"/><path class="cls-4" d="M252.7,870l-12-16.1c62-46.5,90.8-126.5,91-127.3l18.9,6.7C349.4,736.79,319.6,819.79,252.7,870Z"/><rect class="cls-3" x="215.9" y="722.79" width="26.7" height="449.9"/><rect class="cls-4" x="242.6" y="722.79" width="17.1" height="449.9"/><path class="cls-5" d="M440.5,687.89a68.74,68.74,0,0,0-46.9-18.3h-4.1a56.57,56.57,0,0,0,5.2-23.6v-6.3a56.29,56.29,0,0,0-56.3-56.3H245.9a56.28,56.28,0,0,0-51.6-33.8H188a56.29,56.29,0,0,0-56.3,56.3v14.4a58.21,58.21,0,0,0-68.1,89.6A49.14,49.14,0,0,0,22.2,776l369.2-11.6C391.5,764.49,452.6,763.39,440.5,687.89Z"/><path class="cls-6" d="M440.5,687.89c12,75.5-49,76.6-49,76.6L22.4,776.09a49.21,49.21,0,0,0,46.2,32.2H399.1a49.47,49.47,0,0,0,26.4-7.7,69.32,69.32,0,0,0,15-112.7Z"/><rect class="cls-7" y="1226.29" width="1568" height="39.39"/><rect class="cls-8" y="1265.8" width="1568" height="302.2"/><rect class="cls-9" x="1115.2" y="1138.19" width="452.7" height="34.4"/><rect class="cls-9" x="1115.2" y="998.19" width="452.7" height="34.4"/><polygon class="cls-10" points="1501.2 1172.59 1548.9 1172.59 1548.9 981.89 1525.1 955.19 1501.2 981.89 1501.2 1172.59"/><polygon class="cls-10" points="1414 1172.59 1461.7 1172.59 1461.7 981.89 1437.9 955.19 1414 981.89 1414 1172.59"/><polygon class="cls-10" points="1326.8 1172.59 1374.5 1172.59 1374.5 981.89 1350.6 955.19 1326.8 981.89 1326.8 1172.59"/><polygon class="cls-10" points="1239.6 1172.59 1287.3 1172.59 1287.3 981.89 1263.4 955.19 1239.6 981.89 1239.6 1172.59"/><polygon class="cls-10" points="1152.4 1172.59 1200.1 1172.59 1200.1 981.89 1176.2 955.19 1152.4 981.89 1152.4 1172.59"/><rect class="cls-9" y="1138.19" width="452.7" height="34.4"/><rect class="cls-9" y="998.19" width="452.7" height="34.4"/><polygon class="cls-10" points="66.7 1172.59 18.9 1172.59 18.9 981.89 42.8 955.19 66.7 981.89 66.7 1172.59"/><polygon class="cls-10" points="153.9 1172.59 106.1 1172.59 106.1 981.89 130 955.19 153.9 981.89 153.9 1172.59"/><polygon class="cls-10" points="241.1 1172.59 193.3 1172.59 193.3 981.89 217.2 955.19 241.1 981.89 241.1 1172.59"/><polygon class="cls-10" points="328.3 1172.59 280.5 1172.59 280.5 981.89 304.4 955.19 328.3 981.89 328.3 1172.59"/><polygon class="cls-10" points="415.5 1172.59 367.7 1172.59 367.7 981.89 391.6 955.19 415.5 981.89 415.5 1172.59"/><polygon class="cls-10" points="487.5 454.99 408 730.19 687.8 730.19 784 730.19 808.8 730.19 1028 730.19 1072 730.19 796.8 454.99 487.5 454.99"/><polygon class="cls-11" points="1160 730.19 1074.7 435.09 784 435.09 493.3 435.09 487.5 454.99 796.8 454.99 1072 730.19 1149 730.19 1160 730.19"/><polygon class="cls-12" points="1115 730.19 453 730.19 453 739.39 1115 741.29 1115 730.19"/><polygon class="cls-13" points="453 739.39 453 1162.89 1115 1162.89 1115 741.29 453 739.39"/><path class="cls-14" d="M631.6,975.59a15.62,15.62,0,0,1-15.6,15.6H511.8a15.62,15.62,0,0,1-15.6-15.6V796a15.62,15.62,0,0,1,15.6-15.6H616A15.62,15.62,0,0,1,631.6,796Z"/><rect class="cls-15" x="567.8" y="803.69" width="41.8" height="77.8"/><rect class="cls-15" x="517" y="803.69" width="41.8" height="77.8"/><rect class="cls-15" x="517" y="890.59" width="41.8" height="77.8"/><rect class="cls-15" x="567.8" y="890.59" width="41.8" height="77.8"/><path class="cls-10" d="M509.9,796.69v178.8H616.6V796.69Zm7.1,7h41.8v77.8H517Zm0,86.9h41.8v77.8H517Zm92.6,77.8H567.8v-77.8h41.8Zm0-86.8H567.8v-77.8h41.8Z"/><polygon class="cls-16" points="521.1 877.29 521.1 803.69 517 803.69 517 881.59 519 881.59 521.1 881.59 558.7 881.59 558.7 877.29 521.1 877.29"/><polygon class="cls-16" points="572 877.29 572 803.69 567.8 803.69 567.8 881.59 569.9 881.59 572 881.59 609.6 881.59 609.6 877.29 572 877.29"/><polygon class="cls-16" points="521.1 964.19 521.1 890.59 517 890.59 517 968.39 519 968.39 521.1 968.39 558.7 968.39 558.7 964.19 521.1 964.19"/><polygon class="cls-16" points="572 964.19 572 890.59 567.8 890.59 567.8 968.39 569.9 968.39 572 968.39 609.6 968.39 609.6 964.19 572 964.19"/><path class="cls-14" d="M851.7,975.59a15.62,15.62,0,0,1-15.6,15.6H731.9a15.62,15.62,0,0,1-15.6-15.6V796a15.62,15.62,0,0,1,15.6-15.6H836A15.62,15.62,0,0,1,851.6,796v179.6Z"/><rect class="cls-15" x="787.9" y="803.69" width="41.8" height="77.8"/><rect class="cls-15" x="737.1" y="803.69" width="41.8" height="77.8"/><rect class="cls-15" x="737.1" y="890.59" width="41.8" height="77.8"/><rect class="cls-15" x="787.9" y="890.59" width="41.8" height="77.8"/><path class="cls-10" d="M730,796.69v178.8H836.7V796.69Zm7.1,7h41.8v77.8H737.1Zm0,86.9h41.8v77.8H737.1Zm92.6,77.8H787.9v-77.8h41.8Zm0-86.8H787.9v-77.8h41.8Z"/><polygon class="cls-16" points="741.3 877.29 741.3 803.69 737.1 803.69 737.1 881.59 739.2 881.59 741.3 881.59 778.9 881.59 778.9 877.29 741.3 877.29"/><polygon class="cls-16" points="792.1 877.29 792.1 803.69 787.9 803.69 787.9 881.59 790 881.59 792.1 881.59 829.7 881.59 829.7 877.29 792.1 877.29"/><polygon class="cls-16" points="741.3 964.19 741.3 890.59 737.1 890.59 737.1 968.39 739.2 968.39 741.3 968.39 778.9 968.39 778.9 964.19 741.3 964.19"/><polygon class="cls-16" points="792.1 964.19 792.1 890.59 787.9 890.59 787.9 968.39 790 968.39 792.1 968.39 829.7 968.39 829.7 964.19 792.1 964.19"/><path class="cls-14" d="M1071.8,975.59a15.62,15.62,0,0,1-15.6,15.6H952.1a15.62,15.62,0,0,1-15.6-15.6V796a15.62,15.62,0,0,1,15.6-15.6h104.1a15.62,15.62,0,0,1,15.6,15.6v179.6Z"/><rect class="cls-15" x="1008" y="803.69" width="41.8" height="77.8"/><rect class="cls-15" x="957.2" y="803.69" width="41.8" height="77.8"/><rect class="cls-15" x="957.2" y="890.59" width="41.8" height="77.8"/><rect class="cls-15" x="1008" y="890.59" width="41.8" height="77.8"/><path class="cls-10" d="M950.1,796.69v178.8h106.7V796.69Zm7.1,7H999v77.8H957.2Zm0,86.9H999v77.8H957.2Zm92.6,77.8H1008v-77.8h41.8Zm0-86.8H1008v-77.8h41.8Z"/><polygon class="cls-16" points="961.4 877.29 961.4 803.69 957.2 803.69 957.2 881.59 959.3 881.59 961.4 881.59 999 881.59 999 877.29 961.4 877.29"/><polygon class="cls-16" points="1012.2 877.29 1012.2 803.69 1008 803.69 1008 881.59 1010.1 881.59 1012.2 881.59 1049.8 881.59 1049.8 877.29 1012.2 877.29"/><polygon class="cls-16" points="961.4 964.19 961.4 890.59 957.2 890.59 957.2 968.39 959.3 968.39 961.4 968.39 999 968.39 999 964.19 961.4 964.19"/><polygon class="cls-16" points="1012.2 964.19 1012.2 890.59 1008 890.59 1008 968.39 1010.1 968.39 1012.2 968.39 1049.8 968.39 1049.8 964.19 1012.2 964.19"/><polygon class="cls-11" points="626.3 655.09 626.3 582.69 784 487.79 834 487.79 1005.8 655.09 626.3 655.09"/><path class="cls-1" d="M777.2,640.39H660.3l116.9-124Zm-109.4-3.2H774V524.59Z"/><path class="cls-1" d="M907.7,640.39H790.8v-124Zm-113.6-3.2H900.2L794.1,524.59Z"/><polygon class="cls-15" points="792.4 520.49 792.4 638.79 904 638.79 792.4 520.49"/><polygon class="cls-15" points="775.6 638.79 775.6 520.49 664.1 638.79 775.6 638.79"/><path class="cls-13" d="M784,487.79,626.3,655.09H941.7Zm-8.4,151H664.1l111.5-118.3Zm16.8-118.3L904,638.79H792.4Z"/><polygon class="cls-16" points="775.6 520.49 664.1 638.79 775.6 638.79 775.6 632.19 677.8 632.19 775.6 527.89 775.6 520.49"/><polygon class="cls-16" points="792.4 520.49 792.4 638.79 904 638.79 897.3 631.69 797.7 631.69 797.7 525.99 792.4 520.49"/><path class="cls-17" d="M975.9,662.59a7.55,7.55,0,0,1-7.5,7.5H599.6a7.55,7.55,0,0,1-7.5-7.5h0a7.55,7.55,0,0,1,7.5-7.5H968.4a7.49,7.49,0,0,1,7.5,7.5Z"/><rect class="cls-11" x="602.6" y="670.09" width="366.5" height="5.2"/><path class="cls-17" d="M644.2,992.19a7.55,7.55,0,0,1-7.5,7.5H490a7.55,7.55,0,0,1-7.5-7.5h0a7.55,7.55,0,0,1,7.5-7.5H636.7a7.43,7.43,0,0,1,7.5,7.5Z"/><rect class="cls-11" x="493" y="999.69" width="144.5" height="5.2"/><path class="cls-17" d="M864.2,992.19a7.55,7.55,0,0,1-7.5,7.5H710a7.55,7.55,0,0,1-7.5-7.5h0a7.55,7.55,0,0,1,7.5-7.5H856.7a7.43,7.43,0,0,1,7.5,7.5Z"/><rect class="cls-11" x="713" y="999.69" width="144.5" height="5.2"/><path class="cls-17" d="M1084.3,992.19a7.55,7.55,0,0,1-7.5,7.5H930.1a7.55,7.55,0,0,1-7.5-7.5h0a7.55,7.55,0,0,1,7.5-7.5h146.7a7.43,7.43,0,0,1,7.5,7.5Z"/><rect class="cls-11" x="933.2" y="999.69" width="144.5" height="5.2"/><rect class="cls-10" x="441.9" y="1043.89" width="684.2" height="45.6"/><rect class="cls-18" x="453" y="1089.59" width="661.9" height="5.7"/><path class="cls-19" d="M1008,1072.49a5.76,5.76,0,0,1-5.7,5.7H458.7a5.7,5.7,0,0,1-5.7-5.7h0a5.76,5.76,0,0,1,5.7-5.7h543.6a5.63,5.63,0,0,1,5.7,5.7Z"/><path class="cls-19" d="M1099.1,1072.49a5.76,5.76,0,0,1-5.7,5.7h-54.2a5.7,5.7,0,0,1-5.7-5.7h0a5.76,5.76,0,0,1,5.7-5.7h54.2a5.7,5.7,0,0,1,5.7,5.7Z"/><polygon class="cls-8" points="1118.3 1136.79 441.9 1136.79 441.9 1162.89 1114.2 1162.89 1118.3 1136.79"/><polygon class="cls-20" points="1118.3 1136.79 1114.2 1162.89 441.9 1162.89 441.9 1172.59 1126.1 1172.59 1126.1 1136.79 1118.3 1136.79"/><rect class="cls-10" y="1211.69" width="1568" height="29.3"/><rect class="cls-21" y="1172.59" width="1568" height="29.3"/><rect class="cls-22" y="1201.89" width="1568" height="9.8"/><path class="cls-20" d="M453.4,1316.19a26.12,26.12,0,0,1-26.1,26.1H86.3a26.12,26.12,0,0,1-26.1-26.1h0a26.12,26.12,0,0,1,26.1-26.1h341a26.18,26.18,0,0,1,26.1,26.1Z"/><path class="cls-20" d="M1016.9,1316.19a26.12,26.12,0,0,1-26.1,26.1H554.3a26.12,26.12,0,0,1-26.1-26.1h0a26.12,26.12,0,0,1,26.1-26.1H990.8a26.18,26.18,0,0,1,26.1,26.1Z"/><path class="cls-20" d="M1228.3,1316.19a26.12,26.12,0,0,1-26.1,26.1h-74.9a26.12,26.12,0,0,1-26.1-26.1h0a26.12,26.12,0,0,1,26.1-26.1h74.9a26.18,26.18,0,0,1,26.1,26.1Z"/><path class="cls-20" d="M766.5,1422.09a26.12,26.12,0,0,1-26.1,26.1H86.3a26.12,26.12,0,0,1-26.1-26.1h0A26.12,26.12,0,0,1,86.3,1396H740.4a26.18,26.18,0,0,1,26.1,26.1Z"/><path class="cls-23" d="M1444.9,323.79a23.36,23.36,0,0,0,3-11.4,23.9,23.9,0,0,0-23.9-23.9h-52.9a57.07,57.07,0,0,0-104-32.5,47,47,0,0,0-22.6-6,47.68,47.68,0,0,0-46.9,39.4,23.84,23.84,0,0,0-17.5,22.9,24.18,24.18,0,0,0,3,11.4h261.8Z"/><path class="cls-24" d="M1465.6,323.79H1319.7a28.5,28.5,0,0,0,.3-2.9,31.71,31.71,0,0,0-31.7-31.7h-39.4a53.22,53.22,0,0,0,.6-8.1,57.37,57.37,0,0,0-107-28.8,45.16,45.16,0,0,0-35-16.5,33.93,33.93,0,0,0-5.5.4,68.38,68.38,0,0,0-117.4-14.7,45.83,45.83,0,0,0-18.1-3.8A45.32,45.32,0,0,0,921.2,263v.3a43.61,43.61,0,0,0-5.1-.3,50.63,50.63,0,0,0-44.3,26.3,31.75,31.75,0,0,0-30.3,31.6,28.5,28.5,0,0,0,.3,2.9h-2.7a21.2,21.2,0,0,0,0,42.4h626.5a21.2,21.2,0,1,0,0-42.4Z"/><path class="cls-23" d="M709.1,389.19a49.39,49.39,0,0,0-78.1-34.8,77,77,0,0,0-142-27.2,56.1,56.1,0,0,0-5.9-.6A53.39,53.39,0,0,0,429.7,380a56.23,56.23,0,0,0,.9,9.2Z"/><path class="cls-24" d="M154.2,389.19a35.5,35.5,0,0,1,31.2-52.8h79.2a85.41,85.41,0,0,1,155.7-48.6,70.73,70.73,0,0,1,104.1,50.1,35.37,35.37,0,0,1,21.6,51.4H154.2Z"/></svg>