<?xml version="1.0" encoding="utf-8"?>
<!-- Generator: Adobe Illustrator 24.1.2, SVG Export Plug-In . SVG Version: 6.00 Build 0)  -->
<svg version="1.1" id="Capa_1" xmlns="http://www.w3.org/2000/svg" xmlns:xlink="http://www.w3.org/1999/xlink" x="0px" y="0px"
	 viewBox="0 0 1568 1568" style="enable-background:new 0 0 1568 1568;" xml:space="preserve">
<style type="text/css">
	.st0{fill:#DCECF8;}
	.st1{fill:#C0D9EB;}
	.st2{fill:#F6D0C1;}
	.st3{fill-rule:evenodd;clip-rule:evenodd;fill:#EDB19A;}
	.st4{fill-rule:evenodd;clip-rule:evenodd;fill:#F6D0C1;}
	.st5{fill-rule:evenodd;clip-rule:evenodd;fill:#66BB6A;}
	.st6{fill-rule:evenodd;clip-rule:evenodd;fill:#546E7A;}
	.st7{fill-rule:evenodd;clip-rule:evenodd;fill:#263238;}
	.st8{fill-rule:evenodd;clip-rule:evenodd;fill:#37474F;}
	.st9{fill-rule:evenodd;clip-rule:evenodd;fill:#424242;}
	.st10{fill-rule:evenodd;clip-rule:evenodd;fill:#A5D6A7;}
	.st11{fill-rule:evenodd;clip-rule:evenodd;fill:#E8F5E9;}
	.st12{fill-rule:evenodd;clip-rule:evenodd;fill:#388E3C;}
	.st13{fill-rule:evenodd;clip-rule:evenodd;fill:#E53935;}
	.st14{fill-rule:evenodd;clip-rule:evenodd;fill:#42A5F5;}
	.st15{fill-rule:evenodd;clip-rule:evenodd;fill:#0D47A1;}
	.st16{fill-rule:evenodd;clip-rule:evenodd;fill:#1976D2;}
	.st17{fill-rule:evenodd;clip-rule:evenodd;fill:#1A237E;}
	.st18{fill-rule:evenodd;clip-rule:evenodd;fill:#FFAB91;}
	.st19{fill-rule:evenodd;clip-rule:evenodd;fill:#1E88E5;}
	.st20{fill-rule:evenodd;clip-rule:evenodd;fill:#90CAF9;}
	.st21{fill-rule:evenodd;clip-rule:evenodd;fill:#FFFFFF;}
	.st22{fill-rule:evenodd;clip-rule:evenodd;fill:#E0E0E0;}
	.st23{fill-rule:evenodd;clip-rule:evenodd;fill:#EF6C00;}
	.st24{fill-rule:evenodd;clip-rule:evenodd;fill:#5D4037;}
	.st25{fill-rule:evenodd;clip-rule:evenodd;fill:#FFC107;}
	.st26{fill-rule:evenodd;clip-rule:evenodd;fill:#FFE082;}
	.st27{fill-rule:evenodd;clip-rule:evenodd;fill:#FFF8E1;}
	.st28{fill-rule:evenodd;clip-rule:evenodd;fill:#FB8C00;}
	.st29{fill-rule:evenodd;clip-rule:evenodd;fill:#F06292;}
	.st30{fill-rule:evenodd;clip-rule:evenodd;fill:#F48FB1;}
	.st31{fill-rule:evenodd;clip-rule:evenodd;fill:#AD1457;}
	.st32{fill-rule:evenodd;clip-rule:evenodd;fill:#EC407A;}
	.st33{fill-rule:evenodd;clip-rule:evenodd;fill:#BDBDBD;}
	.st34{fill-rule:evenodd;clip-rule:evenodd;fill:#78909C;}
	.st35{fill:#B0BEC5;}
	.st36{fill:#263238;}
	.st37{fill-rule:evenodd;clip-rule:evenodd;fill:#455A64;}
	.st38{fill-rule:evenodd;clip-rule:evenodd;fill:#F8BBD0;}
	.st39{fill-rule:evenodd;clip-rule:evenodd;fill:#607D8B;}
	.st40{fill:#607D8B;}
	.st41{fill-rule:evenodd;clip-rule:evenodd;}
	.st42{fill:#FFFFFF;}
	.st43{fill-rule:evenodd;clip-rule:evenodd;fill:#FFB247;}
	.st44{fill-rule:evenodd;clip-rule:evenodd;fill:#AB47BC;}
	.st45{fill-rule:evenodd;clip-rule:evenodd;fill:#FF8A65;}
	.st46{fill-rule:evenodd;clip-rule:evenodd;fill:#395FAB;}
	.st47{fill-rule:evenodd;clip-rule:evenodd;fill:#4CAF50;}
</style>
<g id="Layer_2">
	<rect x="-0.4" y="-0.1" class="st0" width="1568.8" height="1571.8"/>
</g>
<g id="Layer_1">
	<ellipse class="st1" cx="300.3" cy="1259.7" rx="119.8" ry="15.4"/>
	<ellipse class="st1" cx="954.1" cy="1275.1" rx="90.1" ry="15.4"/>
	<ellipse class="st1" cx="1274.1" cy="1267.2" rx="90.1" ry="15.4"/>
	<ellipse class="st1" cx="647.1" cy="1282.6" rx="80.2" ry="15.4"/>
	
		<ellipse transform="matrix(0.2934 -0.956 0.956 0.2934 348.1536 1769.2206)" class="st2" cx="1370.9" cy="649.1" rx="15.5" ry="10.2"/>
	
		<ellipse transform="matrix(0.9922 -0.1245 0.1245 0.9922 -69.8447 164.4491)" class="st2" cx="1281.2" cy="641.2" rx="10.2" ry="15.5"/>
	
		<rect x="1282.5" y="691" transform="matrix(8.628631e-02 -0.9963 0.9963 8.628631e-02 503.1658 1960.4103)" class="st2" width="75.8" height="29.7"/>
	<path class="st3" d="M1336.1,697.4c-5.4,3.4-11.1,5.3-16.9,4.8c-4.7-0.5-9.2-2.3-12.9-5.2l2.6-30l29.6,2.6L1336.1,697.4z"/>
	<path class="st4" d="M1329.7,582.1c24.8,2.2,43.2,24.1,41.1,48.9c-2.2,24.8-26,65.9-50.9,63.7s-41.3-46.7-39.1-71.5
		C1283,598.4,1304.9,580,1329.7,582.1z"/>
	<path class="st4" d="M1217.4,552.5c0,0-0.2-27.1,9.4-37.6s14.7-16,9.3-24s-2.4-12.8-11-22.1s-32-6-39.7,1.2
		c-9.5,8.9-10.5,25.5,5.9,45.4c1.7,2,2.9,4.3,3.8,6.8c3.9,11.7,0.1,30.8,0.1,30.8L1217.4,552.5z"/>
	<path class="st4" d="M1446.6,540.3c0,0,5.9-26.5-1.3-38.7s-11-18.8-4-25.4s5-12,15.4-19.3s32.5,0.9,38.6,9.6
		c7.4,10.7,4.9,27.2-15.3,43.1c-2,1.6-3.8,3.6-5.1,5.8c-6.3,10.6-6.6,30-6.6,30L1446.6,540.3z"/>
	<path class="st3" d="M1230.5,488.3c0,0-18-2.1-19,3.2s11,8,15.7,9.3c-3-0.7-6.2-0.3-9,1.2c-5.6,3.1-3.3,6.3-8.5,6.2
		c-4.3-0.1-5-4.5-10.9-4.9c-9.4-0.6-17.2-10.5-15.6-18.9c0.6-3.3,1.3-4.3,2.7-4.2c2,0.1,1.7,2.4,1,3c-2.2,1.8,0.9,4,2.9,5.2
		c3,1.8,5.7,1.6,7.4-0.5c2.3-2.9-3-11.9-1.3-13.8s3.1,11.9,4.2,14.6s6.7,2.9,6.8-1.2c0.1-5.2-2.6-12.3-1.1-14.2s2.7,11.7,3.2,13.5
		c1.2,4,6.1,1.3,6.6-1c0.4-1.8-1.7-11.7-0.1-12.2c0.9-0.3,1,11.3,2.2,12.6c1.6,1.6,3.7,1.3,5.1-0.4s-0.7-14.4,1.5-12
		C1227.8,477.6,1230.7,485.7,1230.5,488.3z"/>
	<path class="st3" d="M1447.4,474.8c0,0,18,1.8,17.9,7.1s-12.5,5.5-17.3,5.8c3.1,0,6.2,1.1,8.5,3.1c4.8,4.3,2,6.8,7,7.8
		c4.2,0.8,5.8-3.4,11.7-2.5c9.3,1.4,19-6.7,19.2-15.2c0.1-3.3-0.4-4.4-1.8-4.7c-2-0.4-2.2,2-1.6,2.7c1.8,2.3-1.7,3.7-3.9,4.5
		c-3.3,1.1-5.9,0.4-7.2-2.1c-1.7-3.3,5.4-11,4.2-13.2s-5.5,11-7.1,13.4s-7.2,1.4-6.4-2.6c1-5.1,5.2-11.5,4.1-13.6s-5.1,10.9-6,12.5
		c-2,3.7-6.3,0-6.3-2.4c0-1.8,4.2-11,2.7-11.9c-0.8-0.5-3.4,10.8-4.8,11.8c-1.9,1.3-3.9,0.5-4.9-1.5s3.7-13.9,1-12
		C1452.3,464.9,1447.7,472.2,1447.4,474.8z"/>
	<path class="st5" d="M1230.2,574.1c0,0-5.1-16.4-4.6-33.5c0.2-4.9-3.6-9-8.5-9.2c-0.2,0-0.3,0-0.5,0c-6,0.1-13.4,0.3-18.6,0.4
		c-3.8,0.1-7.1,2.6-8.3,6.2l-15.5,48.7C1174.3,586.6,1209.1,588.4,1230.2,574.1z"/>
	<path class="st5" d="M1429.6,558.7c0,0,8.4-15,11.5-31.8c0.8-4.8,5.4-8,10.3-7.2c0.2,0,0.3,0.1,0.5,0.1c5.8,1.3,13,3.1,18.1,4.3
		c3.7,0.9,6.4,4,6.8,7.8c1.4,14.9,4.9,50.9,4.9,50.9S1447.3,577.1,1429.6,558.7z"/>
	<path class="st6" d="M1157.4,565.4c-0.8-27.9,96.6-31.4,100.7-8.5c0,0-35.5,133.4,41.2,149.8s126.3-90.5,102.8-167.9
		c11.2-7.3,70-27.6,100.2,27.5c0,0-55.4,135.8-109.6,192.9c0,0,18.3,109.3,23.1,172c1.4,18.8-70.2,31.9-114.9,33.1
		c-90.5,2.5-99.1-37.3-99.1-37.3l57.6-169.3C1259.4,757.9,1161.2,698.7,1157.4,565.4z"/>
	<path class="st7" d="M1172,549.2c16.8,10.1,30.1,24.5,28.1,41.6c-5.8,16-16.5,32.5-29.7,48.3c-7.9-23.8-12.3-48.6-12.9-73.7
		C1157.3,558.5,1163.1,553.1,1172,549.2z"/>
	<path class="st5" d="M1211.9,897.5c18.1-13.5,48.5-23,93.1-24.2c53-1.4,86.8,11.1,108,28c1.2,10.7,2.2,20.8,2.9,30
		c1.4,18.8-70.2,31.9-114.9,33.1c-90.5,2.5-99.1-37.3-99.1-37.3L1211.9,897.5z"/>
	<path class="st8" d="M1201.9,926.9c1-2.9,14-32.3,104.9-34.7c94.1-2.5,108.6,37.8,109.1,39l0,0c1.4,18.8-70.2,31.9-114.9,33.1
		c-90.5,2.5-99.1-37.3-99.1-37.3L1201.9,926.9z"/>
	<path class="st5" d="M1296.8,892.7h-1.3h-0.7h-0.1h-0.4h-0.3c-23.4,1.4-40.9,4.7-54,8.7c-0.1,0.8-0.1,1.5,0,2.3
		c0,0-13.1,130.2,28.1,233.6l24.6-10.1c0,0-5.8-102.9-0.9-181.8c-0.1,47.3,4.7,121.1,30.1,184.8l25.1-12.1c0,0-8.8-145.1,2.8-222.4
		l0.2-1.2c-14.3-2-28.8-2.8-43.2-2.3C1303.3,892.3,1300,892.5,1296.8,892.7z"/>
	<path class="st6" d="M1292.7,1127.3c0,0,18.9,4.8,9.8,28c-9.1,23-35.4,58.7-44.8,53.7s-5.9-51,10.4-71.5
		C1274.1,1129.8,1285.9,1130.1,1292.7,1127.3z"/>
	<path class="st6" d="M1345.7,1118.4c0,0,18.9,4.8,9.8,28c-9.1,23.1-35.4,58.7-44.8,53.7s-5.9-51,10.4-71.6
		C1327.1,1120.9,1338.9,1121.1,1345.7,1118.4z"/>
	<path class="st9" d="M1320.1,605.3c0,0,14.4,25.6,39.9,28.9c0,0,4.4,11.5,1,21.7s9.4-21.5,9.4-21.5s22.9-43.3-30.2-60.1
		c-32.4-10.3-45.7,16.9-45.7,16.9c-12.5,3.5-20.5,22.4-16.2,34.7c2.8,8.2,4.7,16.7,5.8,25.2c0,0,1-20.7,2.4-26.6
		S1302.6,634.2,1320.1,605.3z"/>
	<path class="st9" d="M1330.2,572.3c0,0,25.1,2.2,40.9-10.9c0,0-2,10.9-9.1,13.3c0,0,5.3,4.7,14.6,3.5c0,0-14.5,10-29.6,5.5
		S1330.2,572.3,1330.2,572.3z"/>
	<path class="st5" d="M1354.8,696.1c-5.8,24.1-31.3,74.1-56.6,71.5c-23-2.4-17.7-45.9-13.9-66.1c4.8,2.5,9.8,4.3,15.1,5.4
		C1320.2,711.2,1339,706.7,1354.8,696.1z"/>
	<path class="st10" d="M1340.9,703.4c-7.3,21.3-23.4,51.1-39.2,49.4c-14.9-1.5-13.2-30.2-10.5-48.4c2.7,1,5.4,1.7,8.2,2.3
		C1313.3,709.9,1327.7,708.8,1340.9,703.4z"/>
	<path class="st11" d="M1329.1,707.1c-6.3,17.6-15.1,34.6-23.1,33.8c-7.8-0.8-8.3-17.9-7-34.1l0.4,0.1
		C1309.2,709,1319.3,709.1,1329.1,707.1z"/>
	<path class="st12" d="M1239,918c0.5-9,1-14.2,1-14.2c-0.1-0.8-0.1-1.5,0-2.3c13.1-4,30.6-7.3,54-8.7l1.5-0.1l1.3-0.1
		c3.2-0.2,6.6-0.3,10-0.4c14.4-0.5,28.9,0.3,43.2,2.3l-0.2,1.2c-1,6.3-1.8,13-2.4,20.1c-14-3-31.4-4.6-53-4.1
		C1271.2,912.4,1253.1,914.7,1239,918z"/>
	<path class="st13" d="M494.6,634.1h-3.8v77.4l1.8-5.1l2,5.1L494.6,634.1z"/>
	<path class="st4" d="M295,649.7c4.9,1.8,6.7,9.2,4,16.6s-8.8,12-13.6,10.3s-6.7-9.2-4-16.6S290.1,647.9,295,649.7z"/>
	
		<ellipse transform="matrix(0.9969 -7.845910e-02 7.845910e-02 0.9969 -50.53 18.3387)" class="st2" cx="208.1" cy="652.2" rx="9.4" ry="14.3"/>
	<path class="st4" d="M80.9,618.6c0,0-14.4-20.4-12.7-33.3s2.7-19.8-5.6-23s-8.5-8.4-19.9-10.9s-27.3,12.3-29.3,21.9
		c-2.5,11.8,5.5,24.8,28.3,31.2c2.3,0.6,4.5,1.7,6.4,3.1c9.1,6.7,16.3,23.1,16.3,23.1L80.9,618.6z"/>
	<path class="st4" d="M427.4,629.5c0,0,14.4-20.3,12.7-33.3s-2.7-19.8,5.6-23s8.5-8.4,19.9-10.9s27.3,12.3,29.3,21.8
		c2.5,11.7-5.5,24.8-28.3,31.1c-2.3,0.6-4.5,1.7-6.4,3.1c-9.1,6.7-16.3,23.1-16.3,23.1L427.4,629.5z"/>
	<path class="st3" d="M57,563.3c0,0-14.6,7.9-12.7,12.4s12.5,0.2,16.7-1.3c-2.7,1.1-4.8,3.1-6.1,5.6c-2.5,5.3,0.8,6.5-3.2,9.2
		c-3.3,2.2-6.1-0.8-10.8,2c-7.4,4.5-18.5,1.1-21.7-6c-1.3-2.8-1.2-3.9-0.1-4.6c1.6-1,2.5,0.9,2.3,1.7c-0.7,2.5,2.8,2.5,4.9,2.4
		c3.2-0.2,5.2-1.8,5.3-4.3c0.2-3.4-8.5-7.4-8.3-9.7s8.6,7.3,10.8,8.8s6.6-1.3,4.5-4.5c-2.7-4-8.5-7.9-8.3-10.1s8.2,7.4,9.5,8.5
		c3,2.4,5.3-2.2,4.5-4.3c-0.6-1.5-7.5-7.9-6.5-9.1c0.5-0.7,6.7,8,8.3,8.3c1.6,0.3,3.2-0.7,3.5-2.3c0-0.2,0.1-0.4,0.1-0.7
		c0.1-1.9-8.1-10.5-5.2-9.8C49.3,556.7,55.8,561.2,57,563.3z"/>
	<path class="st3" d="M451.4,574.2c0,0,14.6,7.9,12.6,12.4s-12.5,0.2-16.7-1.3c2.7,1.1,4.8,3.1,6.1,5.7c2.5,5.3-0.8,6.5,3.2,9.2
		c3.2,2.2,6.1-0.8,10.8,2c7.4,4.5,18.5,1.1,21.7-6c1.3-2.8,1.2-3.9,0.1-4.6c-1.6-1-2.5,0.9-2.3,1.7c0.7,2.5-2.8,2.5-4.9,2.4
		c-3.2-0.2-5.2-1.8-5.3-4.3c-0.2-3.4,8.5-7.4,8.2-9.7s-8.6,7.3-10.8,8.8s-6.6-1.4-4.5-4.5c2.7-4,8.5-7.9,8.3-10.1s-8.2,7.4-9.5,8.5
		c-3,2.4-5.3-2.2-4.5-4.3c0.6-1.5,7.5-7.9,6.5-9.1c-0.5-0.7-6.7,8-8.3,8.3c-1.6,0.3-3.2-0.7-3.5-2.3c0-0.2-0.1-0.4-0.1-0.7
		c-0.1-1.9,8.1-10.5,5.2-9.8C459.1,567.6,452.6,572.1,451.4,574.2z"/>
	<path class="st14" d="M398.7,638.9c0,0,14.3-6.8,25.5-17.9c3.2-3.2,8.3-3.2,11.5,0c0.1,0.1,0.2,0.2,0.3,0.4
		c3.7,4.1,8.2,9.2,11.4,12.8c2.3,2.6,2.7,6.4,1,9.4l-23.1,40.9C425.3,684.5,402.3,662.1,398.7,638.9z"/>
	<path class="st14" d="M107.5,640.9c0,0-12.5-9.7-21.1-22.9c-2.4-3.8-7.5-4.9-11.3-2.4c-0.1,0.1-0.3,0.2-0.4,0.3
		c-4.5,3.2-10,7.2-13.8,10c-2.8,2.1-4,5.7-3,9c4.1,13.1,13.9,44.9,13.9,44.9S99.1,662.8,107.5,640.9z"/>
	<path class="st15" d="M205.3,930.9c0,0-38.8,83.6-29,112.1c9.8,28.6,99.6,99.1,99.6,99.1l13.5-19.2c0,0-37.2-60.2-63.6-84.6
		c0,0,16.3-25.4,29.3-98.1L205.3,930.9z"/>
	<path class="st16" d="M235.6,913.3c0,0,1.4,92.1,22.6,113.6c21.3,21.4,132.8,46,132.8,46l3.8-23.2c0,0-59.7-38-94-48.5
		c0,0,3.6-30-16.3-101.1L235.6,913.3z"/>
	<path class="st17" d="M180.2,998.5c8.8-32.5,25.1-67.6,25.1-67.6l31.4,5.9c-0.9-13.8-1.1-23.5-1.1-23.5l48.9-13.2
		c14,50,16.4,79.6,16.5,92.8c-18.3,3.5-36.8,5.8-55.4,6.9c-0.7-2.7-1.4-5.5-2-8.4c-0.9,3-1.7,5.9-2.5,8.6
		C220.8,1001,200.4,1000.5,180.2,998.5z"/>
	
		<rect x="206.7" y="699.7" transform="matrix(0.1323 -0.9912 0.9912 0.1323 -497.4763 858.3603)" class="st2" width="69.7" height="27.3"/>
	<path class="st18" d="M256.1,707.3c-5.2,2.3-11,3.1-16.6,2.5c-3.8-0.5-7.5-1.8-10.8-3.7l3.9-29.2l27.1,3.6L256.1,707.3z"/>
	<path class="st4" d="M255.3,599.9c22.7,3,38.7,23.9,35.7,46.7c-3,22.7-26.7,59.4-49.4,56.4s-35.9-44.7-32.9-67.4
		C211.7,612.9,232.6,596.9,255.3,599.9z"/>
	<path class="st6" d="M395.2,611.1c32,18.1,50,51.2,56,97c0,0-75.8,40-145.3,58.1c0,0-6.5,117.6,58.4,188.5
		c0,0-102.4,44.6-230.1,16.2c0,0,43.6-105.4,45.6-194.6c0,0-99.6-17.1-138.9-91.9c0,0-3.3-44,67.8-73.9
		C108.2,633.5,224.1,843.4,395.2,611.1z"/>
	<path class="st14" d="M354.1,942.5c3.2,4.2,6.6,8.3,10.2,12.3c0,0-102.4,44.6-230.1,16.2c0,0,2.5-6.1,6.4-16.5
		C166.1,960.4,248.7,974.6,354.1,942.5z"/>
	<path class="st19" d="M183.4,704.2c29.7,16.9,67.3,23,111.1,0.9c-4.5,28.7-24.6,100-53.8,98.3C206,801.4,186.9,731.1,183.4,704.2z"
		/>
	<path class="st14" d="M199.7,712.1c22.7,8.8,49,10.9,78.6,0.2c-7,32.2-20.4,72.7-37.9,71.4C220,782.1,206.4,743.1,199.7,712.1z"/>
	<path class="st20" d="M264.5,716.3c-5.1,20.7-13.7,43.1-24.5,42.3c-12.6-0.9-21.4-22.4-26.4-42.3
		C230.2,720.5,247.7,720.5,264.5,716.3z"/>
	<path class="st21" d="M496.2,670.4c1.8-21-12.7-111.9-97.5-115.4c0,0,1.4-6.3,6.8-14.2l9.5-0.1l-1.8-9c8.5-8.2,21.6-16.3,42-20.3
		c1.3,34,25.4,107.9,86,114.6C541.2,626.1,532.4,668.1,496.2,670.4z"/>
	<path class="st22" d="M541.1,626.2c-0.5,2.5-9.8,41.8-44.7,44.2h-0.2c3.5-10.9,9.7-20.8,18-28.8c13.8-13.2,27-15.5,27-15.5
		L541.1,626.2z"/>
	<path class="st13" d="M508.4,614.5c2.4,0,4.5,1.3,5.7,3.3l-21.6,21.6c-1.5-1.5-2.5-3.6-1.9-7.1L508.4,614.5z"/>
	<path class="st21" d="M522.1,635.1l7.4,5.6c-18.8,4.8-33.1,29.7-33.1,29.7h-0.2c3.5-10.9,9.7-20.8,18-28.8
		C516.7,639.2,519.3,637,522.1,635.1z"/>
	<path class="st8" d="M289.4,1122.7c0,0,4.8-5.1,12.8,1.6c5.8,5,11.3,10.3,16.5,15.9c0,0-28.2,64.8-34.5,72s-18.1-3.4-14.4-24.2
		s3.8-32.9,6.2-46S289.4,1122.7,289.4,1122.7z"/>
	<path class="st8" d="M394.7,1049.5c0,0,2.1-6.6,12.2-4.1c7.4,2,14.7,4.4,21.8,7.2c0,0,2.8,70.6,0.2,79.9s-17.8,4.8-23.4-15.5
		s-10.9-31.3-14.4-44.1S394.7,1049.5,394.7,1049.5z"/>
	<path class="st23" d="M202.9,639.8c-4.4-1-2.8-26.4,9.6-33.6c0,0,3.6-24.8,37.8-21.5s48.7-6.3,57.1-23.4c0,0,1.2,35.2-6.7,46.5
		c0,0,8,2.5,17.9-3.5c0,0-5.8,12.9-13.9,22.5s-9.5,22.9-9.5,22.9s-9.4,3.5-13.9,20.5c0,0-1.5-17.2,2.4-25.8c1.3-3.2,1.4-6.7,0.2-10
		c-1-3.3-2.6-6.3-4.6-9.1c0,0-7.3,4.7-1.4,10.8c0,0-22,5.6-33.2-9c-5.5-7.2-13.5-9.4-17.5-9s-6.5,10.9-4,16.6c0,0-6.4-4.6-7.5-7.6
		c0,0-0.4,9.9-0.5,19.9c-0.2,6.4-1.4,12.7-3.6,18.7C211.7,665.8,211.6,631.3,202.9,639.8z"/>
	<path class="st4" d="M468,563.5c0,0-9.1,4.5-10.3,14.7c-0.1,0.8,15.8,21.3,19,21.4c4.2,0.1,12.7,0,14-4c0.6-1.9-1.4-10.4-5.3-15.3
		C481.1,574.6,472.3,566.7,468,563.5z"/>
	<path class="st24" d="M559.9,805.6c0,0,12.9,14.4,23.9,16.4s26.5-17.7,26.5-17.7s18.2,23.6,23,25.2c17.7,5.9,40.4-8,44.5-25
		c0,0,10.4,9,23.6,11.8l16.3-12.4c0,0-14.2-4.7-24.9-16c0,0,17.1,7.5,28,7.4l7.3-9.8c0,0-27.4,2.8-30-47.2
		c-1.5-25.7-16.7-55.4-50.5-56.1c0,0-37.5-1.3-44.9,34.5S579.8,776,546,771.7l6.7,18.7c0,0,15.8,0.9,22.3-2.7
		C572.5,797.7,567.4,803.5,559.9,805.6"/>
	<path class="st4" d="M626.9,814.6c3.1-11.3,5.4-22.8,7-34.5l17.8,1.4c-0.2,11.7,0.4,23.5,1.7,35.1L626.9,814.6z"/>
	<path class="st3" d="M632.1,791.7c1.2-6.9,1.8-11.5,1.8-11.5l17.8,1.4c0,0-0.1,4.3,0,10.9c-3.5,2.7-7.2,4.1-10.9,3.8
		C637.5,795.7,634.4,794.1,632.1,791.7z"/>
	<path class="st4" d="M650.7,687.1c22.5,2.1,39.1,22,37.1,44.6c0,0,0,0,0,0.1c-2.1,22.5-24,59.7-46.6,57.6s-37.2-42.7-35.1-65.3
		C608.2,701.5,628.1,685,650.7,687.1C650.7,687.1,650.7,687.1,650.7,687.1z"/>
	<path class="st6" d="M571.1,816.8c21.4-17.6,48.2-15.7,71.1-14s44.7,4.7,66.2,24.4c28,25.7,28,29.9,28,29.9s23.1-17,16.2-77.8
		c0,0,3.1-21.1,49.5-4.8c32.4,11.4,33.4,32,33.4,32s-60.7,118.8-99.6,107.3c-19.3-5.7-34.6-18.5-45.2-30.1
		c-0.5,49.8,15.2,119.6,26.2,155.9c11.2,37-199.8,22.1-186.5-14.2c15.3-41.7,42.4-101,49.5-150.1c-12.2,9.8-29.3,20.2-49.2,22.9
		c-40.1,5.5-82.2-121.1-82.2-121.1s4.1-20.2,37.9-26.6c48.3-9.1,48.2,12.2,48.2,12.2c-16,59,4.2,79.3,4.2,79.3
		S541.8,840.9,571.1,816.8z"/>
	<path class="st8" d="M752.6,779.3c0.2-1.2,4.6-20.5,49.5-4.7c31.4,11.1,33.3,30.7,33.4,32v0.1c-65.7,21.2-82.9-27.2-82.9-27.2
		L752.6,779.3z"/>
	<path class="st4" d="M774.7,793.7c0,0,1.6-27.8,16.7-37.3c12.2-7.7,27.2-3.7,36.1,10.2s-2.8,24.4-13.7,22.2s-21.2,5.5-23,9
		L774.7,793.7z"/>
	<path class="st25" d="M768.1,799.9l3.2-11.1c0.8-2.9,3.8-4.5,6.6-3.8l17.6,4.5c2.7,0.7,4.4,3.3,4.1,6l-2.1,16.1
		C786.8,810.6,776.6,806.6,768.1,799.9z"/>
	<path class="st3" d="M790.6,767.9c6.3-6.6,15.1-4.6,16.3-1.9s2,7.1,6,11s2.9,7.9-2.2,7.2s-6.7,0.4-13.7-0.5s-8.2-4.6-8.2-4.6
		s19.9-9.1,15.6-12.9S790.6,767.9,790.6,767.9z"/>
	<path class="st25" d="M535.4,1012.4c14.7-7.7,34.4-10.9,60-11.6c62.9-1.8,86.4,8.6,116.7,21.9c2.7,10.7,2.4,9.1,4.8,17.1
		c11.2,37-199.8,22.1-186.5-14.2C532.8,1019.2,532.7,1019.4,535.4,1012.4z"/>
	<path class="st8" d="M530.2,1026.5c0,0,12.1-11.4,71.7-11c94.8,0.6,115.4,25.9,115.4,26C721.5,1076,520.9,1061.5,530.2,1026.5z"/>
	<path class="st8" d="M670.1,1198.2c0,0-2.9,14.9,8.6,37.6c10.8,21.3,19.3,26,26.7,23.2c9.1-3.5,9.8-35.7-11.6-67.5
		C686.2,1180.1,670.1,1198.2,670.1,1198.2z"/>
	<path class="st24" d="M632.6,712.6c0,0,18.4,52.3,61.5,38.3c16.2-5.3,24-31.1,24-31.1l-7.1-3.3c0,0-8.3,18.7-26.6-14.2
		s-64-13.2-72.4-1.1s-15.4,38.9-34.4,39l3.8,11.3c0,0,18.1-0.6,23.1-7.4l0.4,18.7C605,762.7,627.3,744.8,632.6,712.6z"/>
	<path class="st8" d="M534.6,762.7c0-1.2-1.4-21-48.2-12.2c-32.7,6.2-37.6,25.3-37.9,26.5v0.1C510.2,808,534.6,762.7,534.6,762.7
		L534.6,762.7z"/>
	<path class="st4" d="M507.3,771.1c0,0,2.6-27.7-10.9-39.4c-10.9-9.4-26.3-7.8-37.3,4.5s-1,24.5,10.2,24s20.1,8.6,21.4,12.4
		L507.3,771.1z"/>
	<path class="st25" d="M483.3,787.7l0.3-17.4c0-2.8,2.2-5.2,5-5.4c6-0.5,12-1.5,18-2c2.9-0.2,5.4,1.8,5.9,4.6c0,0,0.8,6.6,1.6,14.4
		C506.3,785.9,496.1,788.7,483.3,787.7z"/>
	<path class="st3" d="M495.5,743.1c-5.2-7.5-14.3-6.9-15.8-4.3s-3,6.7-7.6,9.9s-4.1,7.4,1.1,7.5s6.5,1.4,13.6,1.6s8.8-3.3,8.8-3.3
		s-18.3-12-13.5-15.1S495.5,743.1,495.5,743.1z"/>
	<path class="st26" d="M628.5,1016.3c21.3,1.4,37.8,4.1,50.5,7.3l15.5,174c1.9,13.6-19.3,17.9-23.4,4.3
		C661.5,1170.7,636,1051.3,628.5,1016.3z"/>
	<path class="st26" d="M623.4,1016.1l-23.3,71.2c4.5,17.3,26.7,80,26.7,80l-18.5,14.6c0,0-52.1-66.3-48.6-92.3
		c2.7-19.3,13-55.9,18.1-73.5c7-0.4,15-0.6,24-0.6C609.5,1015.5,616.7,1015.7,623.4,1016.1z"/>
	<path class="st8" d="M619.3,1162.9c0,0,4.8-4.3,11.6,2.4c5,5,9.6,10.3,14,15.8c0,0-30.5,57.7-36.8,63.8s-16.4-4.4-11.5-23.3
		s5.8-30,8.9-41.9S619.3,1162.9,619.3,1162.9z"/>
	<path class="st25" d="M602,803.1c13.5-2.3,27.5-1.3,40.2-0.3c13.5,1,26.6,2.5,39.4,7.5c-6.7,23.6-22.5,67.9-46.1,66.8
		C611.6,876,604.2,827.7,602,803.1z"/>
	<path class="st26" d="M611.6,802c10.4-0.7,20.9,0.1,30.6,0.8c10.2,0.8,20.2,1.8,30,4.4c-6.3,22.2-18.4,55.1-35.3,54.4
		C619.8,860.9,613.8,825.3,611.6,802z"/>
	<path class="st27" d="M621.5,801.7c7.1,0.1,14,0.6,20.7,1.1c7,0.5,13.8,1.2,20.6,2.4c-5,18.4-13.4,41.2-24.3,40.8
		S623.2,821.1,621.5,801.7z"/>
	<path class="st28" d="M631.5,1030.4c-1.2-5.6-2.2-10.3-3-14.1c21.3,1.4,37.8,4.1,50.4,7.3l1.3,14.2
		C668,1034.7,652.1,1031.9,631.5,1030.4z M573.8,1030.2c1.5-5.4,2.9-10.3,4.1-14.2c7-0.4,15-0.6,24-0.6c7.7,0,14.8,0.3,21.5,0.6
		l-4.5,13.7c-5.4-0.2-11.1-0.4-17-0.4C591,1029.3,581.7,1029.6,573.8,1030.2z"/>
	<path class="st29" d="M968.9,876.6c0,0,0.7,84.9-2.6,100.3s-73.7,22-73.7,22l-3.4,22.2c0,0,91.6,2.5,107.1-18.1
		s26.7-107.6,26.7-107.6L968.9,876.6z"/>
	<path class="st30" d="M950.4,905.2c0,0,43.7,68.8,50.7,82.9s-11.8,109.4-11.8,109.4l20,5.5c0,0,35.6-89.1,34.8-114.9
		s-39.8-101.9-39.8-101.9L950.4,905.2z"/>
	<path class="st31" d="M968.6,940.3c0-2,0.1-4,0.1-6c-10-16-18.3-29.1-18.3-29.1l18.6-6.6c0-12.8-0.1-22-0.1-22l31.5,10.9l4-1.4
		c0,0,0.6,1.2,1.7,3.4l16.9,5.9c0,0-1.2,9.3-3.3,22.5c1.9,4.3,4,8.7,5.9,13.3C1008.4,936,988.5,939.8,968.6,940.3z"/>
	<path class="st29" d="M1043.7,591.7c0,0-38.1,66.8-27.6,105.8c10.5,39-90.6,17.5-99.6,2.5S992.7,570.1,1043.7,591.7z"/>
	<path class="st4" d="M1010.7,659.2v40.9h-18.6v-47L1010.7,659.2z"/>
	<path class="st3" d="M992.1,669.4v-16.3l18.6,6.1v22.8C1003.8,681.4,997.4,676.6,992.1,669.4z"/>
	<path class="st4" d="M1012.1,568.5c19,0,34.5,14,34.5,42.4s-15.4,60.4-34.5,60.4s-34.4-32.1-34.4-60.4S993.1,568.5,1012.1,568.5z"
		/>
	<path class="st6" d="M930.2,707.5c17.4-14.5,46.3-26.8,93.5-25.2c39.4,1.3,68.8-103.2,73.2-137.6c2.1-16.7,91.9,9.4,86.9,51.9
		c-19.3,52.9-91.5,111.5-133,131.8c0,0-6.7,108.7,28.9,170.5c0,0-111.1,56.6-178.4,12.8c0,0,5.6-13.7,19.1-43.8
		c0,0-53.8-36.6-60.2-63.1C856.1,787.5,914.2,720.9,930.2,707.5z"/>
	<path class="st32" d="M1071.8,882.9c2.3,5.5,4.9,10.8,7.9,16c0,0-111.1,56.6-178.4,12.8c0,0,2.1-5.2,6.9-16.2
		c12.1,8.3,37.6,19.7,82.7,14.7C1019.5,907.1,1047.1,897.8,1071.8,882.9z"/>
	<path class="st8" d="M999.1,1084.3c0,0-5.2-3.5-10.8,3.9c-4.1,5.5-7.8,11.2-11.3,17.1c0,0,37.1,51.1,44.1,56.1s15.1-6.5,7.8-23.9
		s-9.7-28-14.3-38.9S999.1,1084.3,999.1,1084.3z"/>
	<path class="st8" d="M903.6,1003.9c0,0,0.6-6.2-8.6-7.7c-6.8-1-13.6-1.5-20.4-1.7c0,0-27,57.1-28.1,65.6s13,10.1,24.7-4.6
		s19.9-21.9,27.3-31.2C905.9,1015.2,903.6,1003.9,903.6,1003.9z"/>
	<path class="st21" d="M1056.6,925.1c0,0,6.5-60.2,65.7-77.5c0.8-0.2,1.2-1,1-1.8c-0.2-0.8-1-1.2-1.8-1l0,0
		c-61,17.9-67.8,80-67.8,80c-0.1,0.8,0.5,1.5,1.3,1.6C1055.8,926.5,1056.5,925.9,1056.6,925.1L1056.6,925.1z"/>
	<path class="st21" d="M1132.4,848.7c0,0,20.7,3.4,21.5,0.9s-4.6-5.1-4.6-5.1s4.9-1.3,4.7-3.5s-5-2.3-5-2.3s2.6-3.7,1.6-5.5
		s-19.3,8.3-19.3,8.3L1132.4,848.7z"/>
	<path class="st21" d="M1130.4,841.2c-1.3,0.2-2.2,1.4-2,2.7c0,0,0,0,0,0c0.2,1.1,0.4,2.3,0.5,3.4c0.2,1.3,1.4,2.2,2.7,2
		c0,0,0,0,0,0l0,0c1.3-0.2,2.2-1.4,2-2.7c0,0,0,0,0,0c-0.2-1.1-0.4-2.3-0.5-3.4C1132.9,841.9,1131.7,841,1130.4,841.2
		C1130.4,841.2,1130.4,841.2,1130.4,841.2L1130.4,841.2z"/>
	<path class="st33" d="M1128.6,842.4c1.1,0,2.1,0.9,2.3,2c0.2,1.1,0.4,2.3,0.5,3.4c0.1,0.5,0,1-0.2,1.5h0.4l0,0
		c1.3-0.2,2.2-1.4,2-2.7c0,0,0,0,0,0c-0.2-1.1-0.4-2.3-0.5-3.4c-0.2-1.3-1.4-2.2-2.7-2c0,0,0,0,0,0l0,0
		C1129.6,841.3,1129,841.8,1128.6,842.4z"/>
	<path class="st21" d="M1119.8,847c-0.4-2.8,1.4-5.3,4.2-5.8s5.3,1.4,5.8,4.2c0.4,2.8-1.4,5.3-4.2,5.8
		C1122.8,851.6,1120.3,849.7,1119.8,847z"/>
	<path class="st33" d="M1119.8,846.7c-0.3-2.8,1.7-5.3,4.5-5.6c2.8-0.3,5.3,1.7,5.6,4.5c0.3,2.4-1.3,4.7-3.7,5.4
		c0.7-1.4,0.5-4.2-1.4-5.2C1123.1,844.8,1121,845.2,1119.8,846.7z"/>
	<path class="st34" d="M970.8,943.6c-4.3-3.4-5.1-9.6-2-14.1c13.9-20,50.1-72.2,65-93.7c3.3-4.7,9.8-5.9,14.5-2.6
		c0.2,0.2,0.5,0.4,0.7,0.5l81.2,67.7c4.2,3.5,5,9.6,1.9,14c-13.7,19.7-49.4,71-64.1,92c-3.3,4.7-9.8,5.9-14.5,2.6
		c-0.2-0.1-0.4-0.3-0.6-0.4L970.8,943.6z"/>
	<path class="st6" d="M1048.6,882.9c3.9-0.4,15.3,0.2,17.4,0c18.5-1.8,35.4,15.6,37.7,38.9s-11,43.6-29.5,45.4
		c-3.9,0.4-15.3-0.2-17.4,0c-18.5,1.8-35.4-15.6-37.7-38.9S1030.1,884.7,1048.6,882.9z"/>
	
		<ellipse transform="matrix(0.9954 -9.619320e-02 9.619320e-02 0.9954 -84.0201 107.2237)" class="st35" cx="1070.1" cy="925" rx="33.7" ry="42.3"/>
	
		<ellipse transform="matrix(0.9954 -9.619320e-02 9.619320e-02 0.9954 -84.0191 107.2246)" class="st36" cx="1070.1" cy="925" rx="30.6" ry="38.4"/>
	<path class="st37" d="M1074.1,963.2h-0.3c-16.8,1.6-32.1-14.2-34.2-35.3s10-39.5,26.8-41.2c1.7-0.2,3.3-0.2,5,0
		c11.1,6,19.6,19.1,21.1,35C1094.3,939.9,1086.5,956.3,1074.1,963.2z"/>
	<path class="st8" d="M1067.1,886.7c1.4-0.1,2.9-0.1,4.3,0.1c11.1,6,19.6,19.1,21.1,35c1.8,18.1-6.1,34.5-18.4,41.4h-0.3
		c-15.6,1.5-29.8-11.9-33.5-30.7c10.1,5.8,22.8,8.6,32.5-4C1086.3,910.9,1074.8,894.6,1067.1,886.7z"/>
	<path class="st4" d="M972.2,859.9c-5.5-5,4.7-17.2,10.9-13.4c5,3,10.9,5.8,15.8,5.6c11.1-0.3,16.9-0.4,18.8,6.8s6.3,7.9,7.3,17.8
		c1,9.9-12.8,21.9-21.1,22.7c-10.1,1-20.4-6.9-23.7-26.7c-0.3-2-1-3.9-2-5.6C976.6,864.4,974.6,862,972.2,859.9z"/>
	<path class="st30" d="M1035.9,599c-44.5,25.8-41.4,55.5-76.4,63.5c-32.1,7.3-41.6,22.6-43,37.6c0,0-21.4-47.5,15.9-69.1
		c26-15,20.5-37.4,33.7-51.8C1006.2,535.4,1072.7,577.6,1035.9,599z"/>
	<path class="st8" d="M1097.1,543.9c4.6-15.1,91.4,10.7,86.8,52.4v0.3c-5,1.6-22.4,0.7-50.1-16.2
		C1097.7,558.3,1097.1,544.1,1097.1,543.9z"/>
	<path class="st4" d="M1131.7,565.6c0,0,8.8-20.5,4.9-31.5s-6-16.8,0.7-21.1s5.9-8.9,15.4-13.2s26.1,5.7,29.7,13.7
		c4.3,9.8-0.2,22.7-19,32.5c-1.9,1-3.6,2.3-5,3.9c-6.7,7.6-10,23.2-10,23.2L1131.7,565.6z"/>
	<path class="st3" d="M1142.3,512.8c0,0,14.3,4.2,13.4,8.5s-10.9,2.5-14.8,2c2.5,0.5,4.8,1.8,6.4,3.8c3.2,4.2,0.5,5.8,4.5,7.4
		c3.2,1.3,5.2-1.8,9.8-0.2c7.3,2.5,16.3-2.5,17.9-9.3c0.6-2.7,0.4-3.7-0.7-4.1c-1.6-0.6-2,1.3-1.7,1.9c1.1,2.1-1.9,2.7-3.9,3
		c-2.8,0.4-4.8-0.6-5.5-2.8c-0.8-2.9,6-8,5.4-10s-6.2,8-7.8,9.7s-6,0-4.8-3.1c1.6-4,5.9-8.5,5.4-10.4s-5.8,8-6.8,9.2
		c-2.2,2.7-5-0.9-4.7-2.9c0.3-1.5,5.1-8.3,4-9.2c-0.6-0.5-4.4,8.2-5.7,8.8c-1.3,0.6-2.9,0-3.5-1.3c-0.1-0.2-0.2-0.4-0.2-0.6
		c-0.5-1.6,5.1-10.7,2.7-9.6C1147.8,505.6,1143,510.7,1142.3,512.8z"/>
	<path class="st30" d="M1119.6,570.8c3.8-5.4,6.9-11.3,9.4-17.4c0.7-1.9,2.2-3.4,4-4.2c1.9-0.8,3.9-0.7,5.8,0.1
		c4.5,2,10,4.5,13.9,6.2c2.9,1.3,4.6,4.2,4.3,7.3l-2.6,28.1c-7.1-3-14-6.6-20.6-10.7C1128.3,577,1123.5,573.8,1119.6,570.8z"/>
	<path class="st32" d="M1027.2,682.1l1,0.4c0,0-6,52.1-13.2,58.1c-6.3,5.2-37.3-36.3-45.7-52.8c14.7-4.1,32.6-6.3,54.5-5.6
		C1024.9,682.3,1026,682.2,1027.2,682.1z"/>
	<path class="st29" d="M977.3,685.9c14.6-3,29.5-4.2,44.4-3.7c-1.2,9.7-5.3,39.4-10,43.4S985.3,700.3,977.3,685.9z"/>
	<path class="st38" d="M1015.8,682.1c-1.3,10.5-3.9,28.4-6.9,31.2s-16.5-16.3-23.7-28.9C995.3,682.8,1005.6,682.1,1015.8,682.1z"/>
	<path class="st30" d="M979.8,834.5c2.6,2.9,5.4,5.5,8.4,8c3.1,2.5,3.6,7.1,1.1,10.2c-0.1,0.1-0.2,0.2-0.3,0.3
		c-3.3,3.7-7.4,8.2-10.3,11.3c-2.1,2.3-5.4,3.1-8.3,1.8l-8.1-3.5C969,853.8,974.9,844.4,979.8,834.5z"/>
	<path class="st34" d="M946.1,739.8c0,0-12.4,19.5-15.8,34.5c-0.7,3-1,6.1-0.7,9.2c0.2,2.7,1.5,5.2,3.6,7
		c10.7,8.4,46.3,19.9,54,22.3c-2.8,8.3-18.2,49.5-49.1,71.4l-16.7-17.3c-0.6-0.6-1.5-0.7-2.2-0.1c-0.6,0.6-0.7,1.5-0.1,2.2
		c0,0,0.1,0.1,0.1,0.1l17.6,18.2c0.5,0.6,1.4,0.6,2,0.2c36-24.7,51.9-75.2,51.9-75.2c0.1-0.4,0.1-0.8-0.1-1.2
		c-0.2-0.4-0.5-0.6-0.9-0.8c0,0-42.8-13-54.5-22.3c-1.5-1.3-2.4-3.1-2.5-5c-0.2-2.7,0-5.5,0.6-8.1c3.2-14.5,15.3-33.5,15.3-33.5
		c0.4-0.8,0.1-1.7-0.6-2.1C947.4,739,946.6,739.1,946.1,739.8L946.1,739.8z"/>
	<path class="st21" d="M734.7,609.9c0,0,37.4-4.8,65.6,52.1c0.4,0.7,1.3,1,2,0.7c0.7-0.4,1-1.3,0.7-2
		c-29.4-59.3-68.7-53.8-68.7-53.8c-0.8,0.2-1.3,1-1.1,1.8C733.3,609.5,733.9,609.9,734.7,609.9L734.7,609.9z"/>
	<path class="st21" d="M799.9,671.5c0,0-4.5,21.3-1.9,22.3s5.5-4.5,5.5-4.5s1.1,5.1,3.4,5.1s2.6-5.1,2.6-5.1s3.7,2.9,5.7,1.9
		s-7.7-20.4-7.7-20.4L799.9,671.5z"/>
	<path class="st21" d="M807.8,669.7c-0.2-1.3-1.4-2.3-2.7-2.2l-3.5,0.4c-1.4,0.2-2.3,1.4-2.2,2.7c0,0,0,0,0,0l0,0
		c0.2,1.4,1.4,2.3,2.7,2.2l3.5-0.4C807,672.3,807.9,671.1,807.8,669.7z"/>
	<path class="st22" d="M806.6,667.8c-0.1,1.2-1,2.1-2.2,2.2l-3.5,0.4c-0.5,0.1-1,0-1.5-0.3c0,0.2,0,0.3,0,0.5l0,0
		c0.2,1.4,1.4,2.3,2.7,2.2l3.5-0.4c1.3-0.2,2.3-1.4,2.2-2.7l0,0C807.7,668.9,807.3,668.2,806.6,667.8z"/>
	<path class="st21" d="M802.3,658.5c2.9-0.3,5.5,1.7,5.8,4.6c0.3,2.9-1.7,5.5-4.6,5.8c-2.9,0.3-5.5-1.7-5.8-4.6
		C797.3,661.4,799.4,658.8,802.3,658.5C802.2,658.5,802.2,658.5,802.3,658.5z"/>
	<path class="st22" d="M802.5,658.5c2.9-0.2,5.4,2,5.6,4.9c0.2,2.9-2,5.4-4.9,5.6c-2.6,0.2-4.9-1.5-5.4-4c1.5,0.8,4.3,0.7,5.5-1.2
		C804.4,662,804.1,659.7,802.5,658.5z"/>
	<path class="st6" d="M694.1,630.5c0,0-1.4-66.8-2-95.8c0-2.7,2.1-4.9,4.8-4.9c1.4,0,2.8,0.6,3.7,1.6l57.8,65.2
		c3.6,4,5.5,9.2,5.4,14.6c-0.3,19.2-0.9,66.7-1.2,90c0,2.7-2.2,4.8-4.9,4.8c-1.4,0-2.8-0.7-3.7-1.8L694.1,630.5z"/>
	<path class="st39" d="M707.6,573.9c6.7-1.9,19.7,15.8,29.2,40.1c9.3,23.7,12,45.1,6.2,49v0.1l-26.1,10.4l-35.5-89.2l25.6-10.2
		l0.2-0.1l0.2-0.1L707.6,573.9L707.6,573.9z"/>
	
		<ellipse transform="matrix(0.9309 -0.3654 0.3654 0.9309 -181.4823 299.0658)" class="st35" cx="699.5" cy="629.1" rx="12.9" ry="48.3"/>
	
		<ellipse transform="matrix(0.9309 -0.3654 0.3654 0.9309 -181.4823 299.0658)" class="st40" cx="699.5" cy="629.1" rx="10.6" ry="45.2"/>
	<path class="st8" d="M684.1,586.8c5.8,0.2,16.8,16.6,25.3,38.4c8.1,20.5,11.3,39,8.2,44.5c-7.1-4.3-17-19.5-24.6-39
		C685.8,612.3,682.5,595.4,684.1,586.8z"/>
	<path class="st21" d="M214.6,501.6c0,0,4.4-15,13.8-27.6c6.2-8.2,14.6-15.5,25.5-16.5c9-0.8,15.8,4,20.9,9.9
		c7.8,9.2,11.3,21.3,11.3,21.3c0.1,0.6,0.7,1.1,1.3,1c0.6-0.1,1.1-0.7,1-1.3c0-0.1-0.1-0.2-0.1-0.3c0,0-3.7-12.6-11.8-22.2
		c-5.5-6.5-13.1-11.7-22.9-10.8c-11.6,1.1-20.6,8.6-27.2,17.4c-9.7,12.9-14.2,28.3-14.2,28.3c-0.2,0.6,0.2,1.3,0.8,1.5c0,0,0,0,0,0
		C213.7,502.5,214.4,502.2,214.6,501.6C214.6,501.6,214.6,501.6,214.6,501.6z"/>
	<path class="st6" d="M292,473.3c1.6-2.1,1.3-5-0.8-6.7c-0.8-0.6-1.7-1-2.7-1c-20-0.8-67.9-2-85.9-2.8c-4.6-0.2-8.9,1.9-11.7,5.5
		c-10.9,14.4-40.5,52.4-52.6,68.3c-1.6,2.1-1.2,5.1,0.9,6.6c0.8,0.6,1.8,0.9,2.8,1c20,0.3,67.9,0.5,85.5,0.8
		c4.3,0.1,8.5-1.9,11.2-5.3C249.5,526.1,279.6,489,292,473.3z"/>
	<path class="st34" d="M177.8,529.4c-1.4-3,13.3-18.4,35.4-28.8s43.3-12,44.7-9.1l15.2,32L193,561.4L177.8,529.4z"/>
	<path class="st41" d="M230.5,537.2c22.1-10.5,41.2-16.5,42.6-13.6s-15.4,13.8-37.5,24.3s-41.1,16.5-42.6,13.6
		S208.4,547.6,230.5,537.2z"/>
	<path class="st21" d="M290.7,496.9c0,0,8.1,14.9,10.1,14.2s0.9-5.4,0.9-5.4s3.3,2.5,4.6,1.3s-1-4.4-1-4.4s3.7-0.2,4.3-1.7
		s-14.9-8.2-14.9-8.2L290.7,496.9z"/>
	<path class="st21" d="M294.4,491.9c-0.8-0.7-2-0.7-2.7,0.1c0,0,0,0,0,0l-1.9,2c-0.7,0.8-0.7,2,0.1,2.7c0,0,0,0,0,0l0,0
		c0.8,0.7,2,0.7,2.7-0.1c0,0,0,0,0,0l1.9-2C295.2,493.8,295.2,492.6,294.4,491.9C294.4,491.9,294.4,491.9,294.4,491.9z"/>
	<path class="st22" d="M292.8,491.4c0.5,0.7,0.5,1.8-0.2,2.4l-1.9,2c-0.3,0.3-0.6,0.5-1,0.6c0.1,0.1,0.2,0.2,0.3,0.3l0,0
		c0.8,0.7,2,0.7,2.7-0.1c0,0,0,0,0,0l1.9-2c0.7-0.8,0.7-2-0.1-2.7c0,0,0,0,0,0l0,0C294,491.4,293.4,491.3,292.8,491.4z"/>
	<path class="st21" d="M285.5,488.1c1.5-1.7,4.1-1.7,5.8-0.2c1.7,1.5,1.7,4.1,0.2,5.8s-4.1,1.7-5.8,0.2c0,0,0,0,0,0
		C284,492.3,284,489.7,285.5,488.1C285.5,488.1,285.5,488.1,285.5,488.1z"/>
	<path class="st22" d="M285.7,487.9c1.6-1.6,4.2-1.5,5.8,0.1c1.6,1.6,1.5,4.2-0.1,5.8c-1.4,1.4-3.6,1.5-5.2,0.3
		c1.6-0.4,2.7-1.9,2.6-3.5C288.5,489,287.2,487.8,285.7,487.9z"/>
	<path class="st21" d="M1330,448.1c0,0,16-1.2,29.9-8c8.6-4.2,16.3-10.5,19.2-19.7c1.9-6.2,1.8-13.7-1.8-22.9
		c-9.3-23.8-0.5-31.1-0.5-31.1c0.7-0.6,0.8-1.6,0.3-2.3c-0.6-0.7-1.6-0.8-2.3-0.3c0,0,0,0,0,0c0,0-10.9,8.2-0.5,34.9
		c3.2,8.3,3.5,15.1,1.7,20.7c-2.6,8.4-9.7,14-17.5,17.8c-13.3,6.5-28.7,7.6-28.7,7.6c-0.9,0.1-1.5,0.9-1.5,1.8
		C1328.4,447.4,1329.2,448.1,1330,448.1L1330,448.1z"/>
	<path class="st21" d="M1385.1,361.4c0,0,21.1-9.8,20.2-12.6s-7.3-1.8-7.3-1.8s3.7-4.2,2.2-6.1s-6,1-6,1s0.1-5-2-6.1
		s-12.5,19.6-12.5,19.6L1385.1,361.4z"/>
	<path class="st21" d="M1378.6,355.9c-1.1,1-1.1,2.6-0.1,3.7c0,0,0,0,0,0c0.8,0.9,1.8,1.9,2.6,2.8c1,1.1,2.6,1.1,3.7,0.1
		c0,0,0,0,0,0l0,0c1.1-1,1.1-2.7,0.1-3.7l-2.6-2.8C1381.3,354.9,1379.6,354.9,1378.6,355.9C1378.6,355.9,1378.6,355.9,1378.6,355.9
		L1378.6,355.9z"/>
	<path class="st22" d="M1377.8,358.1c1.1-0.7,2.4-0.5,3.3,0.4l2.6,2.8c0.4,0.4,0.6,0.9,0.7,1.5c0.1-0.1,0.3-0.2,0.4-0.3l0,0
		c1.1-1,1.1-2.7,0.1-3.7l-2.6-2.8c-1-1.1-2.6-1.1-3.7-0.1c0,0,0,0,0,0l0,0C1377.9,356.5,1377.7,357.3,1377.8,358.1z"/>
	
		<ellipse transform="matrix(0.6896 -0.7242 0.7242 0.6896 163.7518 1109.8191)" class="st42" cx="1376.6" cy="363.9" rx="5.6" ry="5.6"/>
	<path class="st22" d="M1372.3,367.5c-2-2.4-1.7-5.9,0.7-7.9s5.9-1.7,7.9,0.7c1.8,2.1,1.8,5.1,0,7.2c-0.3-1.8-2.1-4.1-4.6-3.9
		C1374.2,363.7,1372.5,365.4,1372.3,367.5z"/>
	<path class="st37" d="M1231.3,433.5c-3,0.8-4.7,3.8-3.9,6.8c0.2,0.7,0.5,1.3,0.9,1.8c22.9,30.7,101.6,38.2,101.6,38.2
		s76.7-5.8,101.6-39.1c1.8-2.4,1.3-5.9-1.1-7.7c-0.6-0.5-1.4-0.8-2.1-1c-25.2-5.5-66.6-17.3-93.2-43.2c-4.2-4.1-10.9-4.4-15.4-0.6
		C1292.7,411,1260.1,425.3,1231.3,433.5z"/>
	<path class="st39" d="M1281.5,455.1c0.1-4.8,21.8-8.7,48.6-8.7s48.6,3.9,48.6,8.7v32.7h-97.2V455.1z"/>
	<ellipse class="st35" cx="1330.1" cy="487.9" rx="48.6" ry="8.7"/>
	<ellipse class="st40" cx="1330.1" cy="487.9" rx="45.7" ry="6.9"/>
	<path class="st8" d="M1286.4,485.8c5.8-2.8,23.2-4.8,43.7-4.8s37.9,2,43.7,4.8c-5.8,2.8-23.2,4.8-43.7,4.8
		S1292.2,488.6,1286.4,485.8z"/>
	<path class="st43" d="M614.2,519.8c0,0,16.1,7,16.8,21l16.1-6.3c0,0-4.9-18.2-18.9-25.9L614.2,519.8z"/>
	<path class="st44" d="M600.5,602.4c0,0-17.5-0.7-23.3-13.4l-12.7,11.7c0,0,11.2,15.2,27,17.2L600.5,602.4z"/>
	<path class="st43" d="M65.1,855.1c0,0-17.5-0.7-23.3-13.4l-12.7,11.7c0,0,11.2,15.2,27,17.2L65.1,855.1z"/>
	<path class="st21" d="M910.6,1125.6c0,0-17.5-0.7-23.3-13.4l-12.7,11.7c0,0,11.2,15.2,27,17.2L910.6,1125.6z"/>
	<path class="st43" d="M1551,632.5c0,0-17.5-0.7-23.3-13.4l-12.7,11.7c0,0,11.2,15.2,27,17.2L1551,632.5z"/>
	<path class="st45" d="M1486.9,745.6c0,0-17.5-0.7-23.3-13.4l-12.7,11.7c0,0,11.2,15.2,27,17.2L1486.9,745.6z"/>
	<path class="st46" d="M1518.9,963.3c0,0-17.5-0.7-23.3-13.4l-12.7,11.7c0,0,11.2,15.2,27,17.2L1518.9,963.3z"/>
	<path class="st47" d="M420,438.5c0,0-17.5-0.6-23.3-13.4l-12.7,11.7c0,0,11.2,15.1,27,17.2L420,438.5z"/>
	<path class="st29" d="M846.4,493.1c0,0-17.5-0.6-23.3-13.4l-12.7,11.7c0,0,11.2,15.1,27,17.2L846.4,493.1z"/>
</g>
</svg>
