<?xml version="1.0" encoding="utf-8"?>
<!-- Generator: Adobe Illustrator 24.1.2, SVG Export Plug-In . SVG Version: 6.00 Build 0)  -->
<svg version="1.1" id="Capa_1" xmlns="http://www.w3.org/2000/svg" xmlns:xlink="http://www.w3.org/1999/xlink" x="0px" y="0px"
	 viewBox="0 0 1140.5 800" style="enable-background:new 0 0 1140.5 800;" xml:space="preserve">
<style type="text/css">
	.st0{fill:url(#SVGID_1_);}
	.st1{opacity:0.3;fill:#F7F7F7;enable-background:new    ;}
	.st2{fill:#353A85;}
	.st3{fill:#474EBB;}
	.st4{opacity:6.000000e-02;}
	.st5{fill:#5D66D3;}
	.st6{fill:#EACDB0;}
	.st7{fill:#EED5D5;}
	.st8{fill:#292949;}
	.st9{fill:#EFBFA5;}
	.st10{fill:#F7F7F7;}
	.st11{fill:#D67086;}
	.st12{opacity:3.000000e-02;enable-background:new    ;}
	.st13{fill:#FFA134;}
	.st14{opacity:0.1;fill:#232020;enable-background:new    ;}
	.st15{fill:#FFD22C;}
	.st16{fill:#EBCEB1;}
	.st17{fill:#8CABEF;}
	.st18{opacity:0.2;}
	.st19{fill:#FFFFF1;}
	.st20{opacity:0.1;enable-background:new    ;}
	.st21{fill:#35383F;}
	.st22{fill:#BABCBE;}
	.st23{fill:#FFFFFF;}
	.st24{opacity:0.12;}
	.st25{fill:#2F3789;}
	.st26{opacity:0.26;enable-background:new    ;}
	.st27{opacity:0.12;enable-background:new    ;}
	.st28{font-family:'Aquawax-Light';}
	.st29{font-size:15.3638px;}
</style>
<g id="Background">
	
		<linearGradient id="SVGID_1_" gradientUnits="userSpaceOnUse" x1="0" y1="400" x2="1140.5" y2="400" gradientTransform="matrix(1 0 0 -1 0 800)">
		<stop  offset="0" style="stop-color:#6A11CB"/>
		<stop  offset="1" style="stop-color:#2575FC"/>
	</linearGradient>
	<rect class="st0" width="1140.5" height="800"/>
</g>
<g id="Shadow">
	<path class="st1" d="M1073.3,639H172.9c-30.6,0-55.6,10-55.6,22.1l0,0c0,8.4,12,15.8,29.5,19.5H85.7c-30.6,0-55.6,10-55.6,22.1l0,0
		c0,12.2,25.1,22.1,55.6,22.1h5.6C83,728.7,78,733.7,78,739.1v8.9c0,12.2,25.1,22.1,55.6,22.1h885.9c30.6,0,55.6-10,55.6-22.1v-8.9
		c0-12.2-25.1-22.1-55.6-22.1l2.3,0.5c5,0,13-1.5,18.4-4.7c9.4-5.5,9.8-13.8,5.3-20.7c-2.9-4.5-7.8-8-19.6-9.3l47.4,0.3
		c30.6,0,55.6-10,55.6-22.1l0,0C1128.9,649,1103.8,639,1073.3,639z"/>
</g>
<g>
	<g>
		<g>
			<path class="st2" d="M334.8,330.9c-38,9.2-57.7-7.9-60.5-10.4c0,0-0.1-0.2-0.1-0.1c-0.1-0.1-0.1,0.1-0.1,0.1
				c-2.5,2.7-21.4,20.9-59.8,13.7c0,0-4,68.7,19,96.1c24.6,29.3,44.8,37.7,44.9,37.6c0.1,0.1,20.1-9.4,42.8-40
				C342.3,399.2,334.8,330.9,334.8,330.9z"/>
			<path class="st3" d="M329.3,338.2c-34.4,8.3-52.4-7-54.8-9.2c0,0-0.1-0.2-0.1-0.1c-0.1-0.1-0.1,0.1-0.1,0.1
				c-2.3,2.4-19.5,18.6-54.3,12.2c0,0-3.7,61.2,17.2,85.6c22.3,26,40.7,35.2,40.8,35.1c0.1,0.1,18.2-10,38.8-37.3
				C336.2,399,329.3,338.2,329.3,338.2z"/>
			<g class="st4">
				<path d="M274.4,334.9c0,0,0-0.2,0.1-0.1c0.1-0.1,0.1,0.1,0.1,0.1c2.5,2.3,20.7,17.7,55.4,10.2c-0.3-6.2-0.8-10.1-0.8-10.1
					c-34.4,8.3-52.4-7-54.8-9.2c0,0-0.1-0.2-0.1-0.1c-0.1-0.1-0.1,0.1-0.1,0.1c-2.3,2.4-19.5,18.6-54.3,12.2c0,0-0.2,3.9-0.2,10.1
					C254.7,353.7,272,337.3,274.4,334.9z"/>
			</g>
		</g>
		<path class="st5" d="M319.5,355.4c-26,6.4-42.7-6-44.6-7.7c0,0,0-0.2-0.1-0.1c-0.1-0.1-0.1,0.1-0.1,0.1
			c-1.7,1.8-17.6,15-43.9,10.1c0,0,0.2,46.4,16,65.3c16.9,20,30.8,25.9,30.8,25.8c0.1,0,13.8-6.4,29.4-27.4
			C321.6,401.7,319.5,355.4,319.5,355.4z"/>
	</g>
	<g>
		<g>
			<g>
				<polygon class="st6" points="280.5,470.2 276.4,466.3 276.3,461.3 275.2,460.7 274.5,462 273.2,457.9 270.3,455.9 265.9,457.6 
					263.4,461.7 265.5,466 270.2,469 275.6,474.5 				"/>
			</g>
			<polygon class="st7" points="280.1,465.5 272.7,474.3 292.7,504.7 300.1,507.2 331.8,481.8 323.3,464.5 299.6,484.7 			"/>
		</g>
		<g>
			<g>
				<polygon class="st8" points="380.7,704 381.9,709.1 373,716.3 367,712.4 370.9,706.2 379.6,698.9 				"/>
				<polygon class="st3" points="350,547.8 359.8,570.5 360.8,634 380.9,702.3 371.5,706.4 330.4,627.1 325.7,602 323.9,549 				"/>
			</g>
			<g>
				<polygon class="st3" points="302.6,553 301.8,619.5 314.4,705.3 324,705.3 330.1,626.1 343.4,547 				"/>
				<polygon class="st8" points="324,704.1 324,709.3 313.6,714.6 308.3,709.3 313.6,704.1 				"/>
			</g>
		</g>
		<path class="st7" d="M321.6,462.8l25.7-1c0,0,15.3,13.5,23.3,48.4c8,35.6-1.5,86.8-1.5,86.8s-68.7-9.1-80-10.5l17.2-70.3
			L321.6,462.8z"/>
		<g>
			<path class="st9" d="M330.7,465.4c3-0.3,6-0.5,9-0.9c0-2.4-0.1-4.8-0.4-7.2c2.5-0.9,5.3-2.2,5.8-4.8c0.1-0.9,0-1.6-0.1-2.5
				c-0.5-3.4-1.2-6.7-1.7-10.2c-0.2-1.2-0.4-2.4-1.1-3.4c-1.1-1.7-3.3-2.5-5.3-2.9c-5.2-0.9-11,0.2-15,3.7c-1.1,0.9-2.1,2.1-2.5,3.4
				c-0.8,2.1-0.2,4.4,0.3,6.4c0.5,2,1,3.9,1.5,5.9c0.5,2.3,1.4,4.8,3.6,5.7c1.2,0.4,2.5,0.3,3.6,1
				C330.1,460.7,329.9,463.5,330.7,465.4z"/>
			<path class="st8" d="M301.6,431.5c-0.1-2.3,0.2-4.7,0.8-6.9c0.8-3.7,5.1-5.3,8.8-5.5c8-0.5,15.8-4.2,23.6-1.4
				c4.5,1.6,10.5,2,14.6,4.2c1.7,1,3,2.4,4.1,4c3.7,5.7,3.7,13.5,0,19.1c-0.8,1.3-1.7,2.4-2.8,3.6c-2.2,2.3-4.7,5.1-7.6,6
				c-0.1-2.6,2.3-10.8,0.3-12.9c-3.2-3.4-10.3-2.2-14.2-1.4c-4.4,0.9-8.2,3.9-12.4,4.6c-3,0.4-7-1.1-9.6-2.6
				C303,439.9,301.7,435.7,301.6,431.5z"/>
		</g>
		<path class="st10" d="M328.7,466l-27,107.8l-2.2,14.1l33.6,4.5c0,0-1.3-51.5-0.9-58.5c0.4-6.9,5.4-21.8,6.2-37.7
			c0.4-9.2,3.4-25.9,1.3-31.3L328.7,466z"/>
		<g>
			<polygon class="st6" points="304.5,523.5 298.5,525.3 293.7,522.7 292.6,523.5 293.4,524.9 288.8,523.8 285.3,525.6 284.5,530.8 
				287.2,535.3 292.3,535.6 297.8,532.7 306.2,530.4 			"/>
			<path class="st7" d="M299.4,523.9c9.4-2.2,18.6-4.4,27.9-6.5c2.5-0.5,5.1-0.8,7.6-1.3c3.7-0.9,4.7-1.2,5.2-4.7
				c1.5-10.1-0.4-20.7,1.1-30.7c3.7-0.3,7.3-1.2,11-1.2c6.1,0.1,5.7,4.4,6,9c0.4,5.5,0.7,11.2,0.7,16.7c0,4.7,1.5,24.8-5.2,26.2
				c-4.9,1.1-54,3.7-54,4.7C299.6,535.8,299.4,523.9,299.4,523.9z"/>
		</g>
	</g>
</g>
<g>
	<g>
		<polygon class="st6" points="228.7,476.1 232.2,472.8 232.2,468.6 233.1,468.1 233.7,469.2 234.7,465.7 237.2,464.2 240.8,465.5 
			243,469 241.1,472.5 237.3,475 232.8,479.7 		"/>
		<polygon class="st10" points="229.8,471 210.5,493.8 185.2,469.4 181.3,498.6 212.1,513.8 236.2,477.6 		"/>
	</g>
	<g>
		<polygon class="st8" points="145.5,700.2 145.1,704.3 152.6,709.4 157,705.9 153.5,701.2 146,696.1 		"/>
		<polygon class="st9" points="145.8,573.9 144.4,586.5 155.6,629.5 145.2,698.8 152.9,701.4 173.3,633.9 176.4,614.2 176.3,572.5 
					"/>
	</g>
	<g>
		<polygon class="st9" points="204.9,587.9 188.7,703.9 181.3,703.9 180,629.5 166.6,577.3 		"/>
		<polygon class="st8" points="181.4,703 181.4,707.2 189.4,711.3 193.3,707.2 189.4,703 		"/>
	</g>
	<path class="st10" d="M186.8,468.8c-0.5-1-1.4-1.7-2.4-2.4c-7.3-4.1-19.5-0.5-27.3-0.5c-2.4,24.7-8.8,48.2-13.1,72.4
		c-4.5,25.7-9.5,51.3-15,76.9c-0.3,1.4,22.1,0.8,24.1,0.8c21.5,0.3,49.7,0.3,70.5-6.2c-13.3-35.6-18.1-73.8-28.5-110.4
		c-1.8-6.4-4-12.7-5.7-19.1C188.5,476.4,188.7,471.8,186.8,468.8z"/>
	<path class="st8" d="M177.1,432.4c5.4,1.5,9.8,6.5,10.3,12.2c2.9-2.8,4.5-7.1,3.9-11.1c-0.5-4-3.2-7.7-6.7-9.6
		c-3.4,1.7-6,5-7.1,8.6L177.1,432.4z"/>
	<path class="st9" d="M188.2,439.7c-2.8-14.9-21.4-12.3-26.8-0.2c-3,6.9,0.1,16.5,6.2,21.3c0.1,1.3,0.3,4.9,1.3,5.9
		c1.1,1,4.6,0,5.9-0.2c0.3-0.1,0.8-0.2,1-0.4c0.3-0.3,0.4-1.2,0.4-2.3c1-0.1,2-0.2,3-0.5c4.4-1.4,7.4-5.4,8.7-9.8
		C189.3,448.9,188.9,444.2,188.2,439.7z"/>
	<g>
		<g>
			<path class="st11" d="M161,513.8c-0.5-1-1-2.2-1.2-3.3c-0.3-1.8-0.1-3.8,0.8-5.5c0.3-0.8,1.2-1.2,2-0.9c0.8,0.3,1.2,1.2,0.9,2
				c-0.8,1.7-0.9,3.7-0.1,5.4c0.3-0.2,0.8-0.4,1.2-0.5c1.5-0.5,3.7-1.1,4.8,0.4c1.2,1.6,0.1,3.6-1.5,4.5c-1.3,0.7-2.8,0.9-4.1,0.4
				c0,1.8,0.5,2.8,2.3,3.4c1.1,0.3,3.8,0.5,4.7-0.4c0.5-0.7,0.5-2.7,0.8-3.6c0.5-2.5,1.4-4.9,2.4-7.2c2.2-4.7,5.3-8.8,9-12.3
				c8.4-7.9,19.6-12.5,30.8-14.5c0.7-0.1,1.2-0.2,1.8-0.3c7.7-1.2,15.3-1,22.4,0.7c1.5-2.5,3.6-4.7,6-6.4c5.4-3.7,12.9-4.6,18.7-1.3
				c-4.6,5.3-8.3,12.8-8.8,14.1c6.7,4.2,12.5,10,16.7,17.4c0.1,0.1,0.2,0.3,0.2,0.4l8.5,1.3c0,0,3.2,16.5,1.3,21.5
				c0,0-6.5,2.7-10.5,3.8c-2.9,6.7-8,12.9-14.6,17.8c-0.4,0.3-0.9,0.7-1.3,1l2.1,13.2c0,0-10.1,5.1-15.6,4.1l-4.6-8.8
				c-2.6,0.8-5.2,1.3-8,1.7c-3.3,0.5-6.4,0.8-9.6,0.9l-1.6,9.9c-4.9,2.5-16.1,0.8-16.1,0.8l-2.1-13.2c-14.6-4.6-25.2-15-27.6-30.7
				c-0.2-1.3-0.3-2.6-0.4-3.9c-2.4-0.1-4.7-0.7-6.5-2.2c-1.4-1.2-2.4-2.7-2.9-4.5C160.5,517.3,160.2,515.4,161,513.8z"/>
			<path class="st7" d="M234.3,483.7l-1,5c0,0-15.6-1.8-30.7,4.8l-3.9-2.8C198.7,490.5,211.9,478,234.3,483.7z"/>
			<path class="st12" d="M174.6,530.1c7.1,10.2,18.5,16.4,30.3,19.6c8.7,2.3,18.2,3.4,27.3,2.5c13.3-1.3,25.1-7.2,36-14.2
				c0.4-0.3,1-0.7,1.4-1c-2.9,4.7-7,8.9-11.7,12.5c-7.4,5.7-16.9,9.7-27.3,11.3c-27.9,4.4-53.1-7.2-57-32.2
				C173.9,529.1,174.2,529.6,174.6,530.1z"/>
			<path class="st12" d="M273.4,505.6c0,0,6.7,16.1-1,26.3l4-1.3C276.5,530.7,280.4,515.3,273.4,505.6z"/>
		</g>
		<g>
			<g>
				<g>
					<path class="st13" d="M226.1,435.7c-8.6,1.4-14.4,9.5-12.9,17.9c1.4,8.6,9.5,14.4,17.9,12.9c8.6-1.4,14.4-9.5,12.9-17.9
						C242.8,440.2,234.7,434.3,226.1,435.7z"/>
					<path class="st14" d="M225.9,434.3c-9.4,1.5-15.7,10.2-14.1,19.6c1.5,9.4,10.2,15.7,19.6,14.1c9.4-1.5,15.7-10.2,14.1-19.6
						C244.1,439.1,235.3,432.8,225.9,434.3z M230.9,465.2c-7.7,1.2-15-4-16.3-11.7c-1.2-7.7,4-15,11.7-16.3c7.7-1.2,15,4,16.3,11.7
						C244,456.7,238.6,464,230.9,465.2z"/>
					<path class="st15" d="M225.7,432.6c-10.2,1.6-17.3,11.3-15.6,21.6c1.6,10.2,11.3,17.3,21.6,15.6c10.2-1.6,17.3-11.3,15.6-21.6
						C245.6,437.9,235.9,430.9,225.7,432.6z M231.1,466.6c-8.6,1.4-16.6-4.5-17.9-12.9c-1.4-8.6,4.5-16.6,12.9-17.9
						c8.6-1.4,16.6,4.5,17.9,12.9C245.5,457.3,239.7,465.3,231.1,466.6z"/>
				</g>
			</g>
			<g>
				<g>
					<path class="st15" d="M224.4,456.6c-0.2-0.1-0.3-0.3-0.3-0.7c-0.2-0.7,0.1-1.2,0.8-1.3c1-0.2,2,0.3,2.9,0.5
						c0.8,0.2,1.5,0.3,2.4,0.1c0.9-0.1,1.6-0.4,2.1-1s0.7-1.2,0.5-1.8c-0.1-0.8-0.4-1.2-0.9-1.4c-0.5-0.2-1.3-0.3-2.4-0.1l-0.8,0.1
						c-1.7,0.3-3.2,0.1-4.1-0.4c-1.1-0.5-1.6-1.6-1.8-2.9c-0.2-1.4,0.1-2.5,0.9-3.4c0.8-0.9,2-1.4,3.6-1.7c0.7-0.1,1.3-0.1,2.1,0
						c1.5,0.2,4,1,3.8,2.5c-0.3,1.7-3.2-0.2-4.1-0.5c-0.5-0.1-1.2-0.1-1.8,0c-0.8,0.1-1.4,0.4-1.8,1c-0.4,0.5-0.5,1.1-0.4,1.7
						c0.1,0.7,0.4,1.1,1,1.3c0.5,0.2,1.6,0.2,3.4,0c1.8-0.2,3.2-0.1,4.1,0.5c1,0.5,1.5,1.6,1.7,3c0.2,1.4-0.1,2.6-0.9,3.6
						c-0.8,1-2,1.6-3.5,1.8c-0.5,0.1-1.1,0.1-1.6,0.1C227.6,457.5,225.8,457.4,224.4,456.6z"/>
				</g>
				<path class="st15" d="M230.6,461.2L230.6,461.2c-0.5,0.1-1.1-0.3-1.2-1l-2.9-19.1c-0.1-0.7,0.2-1.2,0.8-1.3l0,0
					c0.5-0.1,1.1,0.3,1.2,1l2.9,19.1C231.4,460.5,231.1,461.1,230.6,461.2z"/>
			</g>
		</g>
	</g>
	<g>
		<polygon class="st6" points="168.8,521.6 173.8,523.3 177.8,521.1 178.7,521.7 177.9,522.9 181.9,522.1 184.7,523.6 185.2,527.8 
			183.1,531.6 178.8,531.7 174.4,529.4 167.5,527.4 		"/>
		<path class="st10" d="M155.8,516.3c-2.1-1.4-3.5-3.4-3.7-6.3c-0.2-2.7,0.4-5.4,1-8c1.5-8.5,1.3-17.3-0.5-25.8
			c-1.8-8.4-11.6,2.2-12.8,6c-1.3,4.2-1,8.8-1.3,13.1c-0.4,5.9-0.7,11.6-0.7,17.5c0,3.7-0.9,12.4,3,14.6c1.1,0.5,2.3,0.8,3.5,1
			c1.8,0.3,24,3,24.4,2l3-9.7C167,519.6,160,519.1,155.8,516.3z"/>
	</g>
	<path class="st8" d="M160.7,498.7c0.2,0,0.3,0,0.4,0c3.3-0.5,8.5-1.6,10-5.1c1.5-3.6-1.2-10-1.6-13.6c-0.7-5.5-1-11.2-1.2-16.9
		c-0.2-5.1,1.5-10,4.2-14.4c2.6-4.4,6.1-8,9.6-11.9c1.4-1.5,2.9-3.3,3.4-5.3c0.4-2.3-0.4-4.7-2-6.5c-2.3-2.7-5.1-4.1-8.6-4.2
		c-12.3-0.3-21.5,7-25,18.9c-5,17.2,1.2,33.6,0.3,50.7c-0.1,2.9-1.1,5.8-2.7,8.3C147.8,498.1,158,498.8,160.7,498.7z"/>
</g>
<g>
	<g>
		<g>
			<polygon class="st16" points="959.7,425.3 958.4,415.9 962.4,415.3 964.7,421.4 966.4,420.2 966.4,428.3 962.5,429.6 			"/>
			<polygon class="st17" points="1018.8,474.3 983.3,464.6 967.4,425.6 959.6,428.5 968.2,478.9 1008.8,500.5 			"/>
		</g>
		<g>
			<g>
				<polygon class="st2" points="1012,569.2 1012,581.7 995.3,635.8 999.5,692 989.2,694.2 972.4,625.5 973.1,605.3 980.8,563.9 
									"/>
				<polygon class="st2" points="998.8,583.9 1015.6,698.6 1023.2,698.6 1028,636 1038.4,573.6 				"/>
				<polygon class="st8" points="990.8,695.6 982.8,704 985.2,708.3 1001.5,700.4 998.6,694.2 				"/>
				<polygon class="st8" points="1015.7,701.2 1005.9,707.4 1007.1,712.1 1024.9,708.6 1023.5,701.7 				"/>
			</g>
			<g>
				<path class="st9" d="M989,444c6.7,0.5,13.1-5,19.7-3.7c4.4,0.9,7.7,4.7,9,9c0.7,2.1,0.9,4.2,0.2,6.2c-0.4,1.3-1.1,2.5-2,3.5
					c-1.1,1.4-2.5,2.5-4,3.5c0.9,1.4,1.8,2.6,2.9,3.8c-3.2,1.2-6.2,2.4-9.4,3.6c-0.7-1.7-1.4-3.6-2.1-5.3c-1,0-1.8-0.2-2.8-0.4
					c-5.5-1.4-10.1-6.3-11.3-12C988.8,449.4,988.9,446.7,989,444z"/>
				<polygon class="st8" points="990.8,445.9 1011.7,443.6 1015.7,459.4 1021.6,454.8 1018.5,428.7 989,428.1 976.3,435.5 
					976.9,443 988.3,450.7 				"/>
			</g>
			<path class="st10" d="M998.8,472.4l24.8-9.8c0,0,11.5,24.5,21.6,59.5c10,35-3.3,83.7-3.3,83.7s-69.2-14.1-80.5-16.3l22.4-70.1
				L998.8,472.4z"/>
		</g>
		<g>
			<g>
				<path class="st11" d="M1002.4,397.5l-7.6-9.2h-0.2c-0.3-1.1-0.8-2.2-1.1-3.3c-2-5.7-3.9-11.3-5.8-17c-1.7-5-2.7-13.3-9.1-14
					l-60.1-7.5c-6.6-0.9-13.3,2.5-17,8.5l-12.8,20.8l-1-0.1l-21,3.8c-7.5,2.6-12.9,9.2-13.9,17.1l-1.5,11.9l152.8,19.1l2.1-16.9
					C1006.8,406,1005.5,401.2,1002.4,397.5z"/>
				<path class="st7" d="M944.9,380.3l40.1,5l-6.3-23.6c-0.3-1.2-1.3-2.1-2.4-2.2l-28.4-3.6L944.9,380.3z"/>
				<path class="st7" d="M941,355.1l-22.9-2.8c-4.9-0.7-9.7,1.7-12.4,6.2l-9.7,15.8l42,5.2L941,355.1z"/>
				<g class="st18">
					<path class="st19" d="M979.1,367.3c0.5,0.3,1,0.7,1.5,1.1l-1.7-6.4c-0.3-1.2-1.3-2.1-2.4-2.2l-9.8-1.2
						C970.8,361.4,974.9,364.4,979.1,367.3z"/>
					<path class="st19" d="M979.3,372.8c-6.9-4.9-14-10.4-20.9-15.4l-9.2-1c5.7,6.2,13.1,12.1,19.6,17.3c3.9,3.2,7.9,6.2,12.1,8.9
						c1.4,0.9,2.8,1.7,4.2,2.6l-2.7-10.2C981.2,374.2,980.2,373.5,979.3,372.8z"/>
					<path class="st19" d="M931.9,368.7c-2.8-2.4-5.9-4.7-8.8-6.9c-3-2.2-6.1-4.5-9.4-6.3c-1.1-0.7-2.2-1.2-3.3-1.8
						c-2,1.1-3.6,2.6-4.8,4.7l-0.1,0.1c3.2,2.8,6.3,5.7,9.5,8.6c4.7,4.2,9.9,7.7,15.1,11.3l7.8,1l0.5-4.4
						C936.3,373,934.2,370.7,931.9,368.7z"/>
				</g>
				<g>
					<path class="st20" d="M909.1,415.7c0.2-0.7,0.3-1.4,0.4-2.1c0.9-7.1-5.1-13.7-13.5-14.7c-3.3-0.4-6.4,0.1-9,1.3
						c5,1.7,9.2,4.9,12.5,8.7c1.6,2,2.9,3.9,3.8,6.1L909.1,415.7z"/>
				</g>
				<g>
					<path class="st20" d="M988.3,425.6c0.2-0.7,0.3-1.4,0.4-2.1c0.9-7.1-5-13.6-13.2-14.7c-3.2-0.4-6.2,0.1-8.8,1.3
						c4.9,1.7,9,4.8,12.2,8.7c1.6,2,2.8,3.9,3.7,6.1L988.3,425.6z"/>
				</g>
				<g>
					
						<ellipse transform="matrix(0.7894 -0.6139 0.6139 0.7894 -65.1979 633.9443)" class="st21" cx="891.3" cy="412" rx="13.5" ry="13.5"/>
					<g>
						<g>
							
								<ellipse transform="matrix(0.6349 -0.7726 0.7726 0.6349 7.099 839.0712)" class="st19" cx="891.3" cy="412" rx="7.7" ry="7.7"/>
						</g>
						<path class="st20" d="M892,417.5c1.5,0.1,3-0.2,4.1-1.2c-0.7,1.3-1.8,2.2-3.3,2.4c-0.4,0.1-1,0.1-1.4,0c-0.5,0-1-0.1-1.5-0.2
							c-1.3-0.3-2.5-1.4-2.9-2.6c0.2,0.4,1.6,0.9,2,1C890,417.1,890.9,417.3,892,417.5z"/>
					</g>
				</g>
				<g>
					
						<ellipse transform="matrix(0.7894 -0.6139 0.6139 0.7894 -54.5528 684.7475)" class="st21" cx="970.7" cy="421.9" rx="13.5" ry="13.5"/>
					<g>
						<g>
							<path class="st19" d="M967.1,428.7c-3.7-2.1-5.1-6.6-3.2-10.4c2.1-3.7,6.6-5.1,10.4-3.2c3.7,2.1,5.1,6.6,3.2,10.4
								C975.4,429.3,970.8,430.7,967.1,428.7z"/>
						</g>
						<path class="st20" d="M971.3,427.3c1.5,0.1,3-0.2,4.1-1.2c-0.7,1.3-1.8,2.2-3.3,2.4c-0.4,0.1-1,0.1-1.4,0
							c-0.5,0-1-0.1-1.5-0.2c-1.3-0.3-2.5-1.4-2.9-2.6c0.2,0.4,1.6,0.9,2,1C969.2,427.1,970.3,427.3,971.3,427.3z"/>
					</g>
				</g>
			</g>
			<path class="st20" d="M931.7,388.8l-4.1-0.5c-0.9-0.1-1.5-0.9-1.4-1.7l0,0c0.1-0.9,0.9-1.5,1.7-1.4l4.1,0.5
				c0.9,0.1,1.5,0.9,1.4,1.7l0,0C933.4,388.3,932.6,389,931.7,388.8z"/>
		</g>
		<g>
			<polygon class="st9" points="952.4,430 951.7,420.6 955.8,420.2 957.6,426.5 959.4,425.4 958.9,433.5 954.9,434.5 			"/>
			<polygon class="st10" points="1008.1,483 973.3,470.8 960,430.8 952,433.2 957.2,484 996.3,508.4 			"/>
		</g>
	</g>
	<g>
		<g>
			<path class="st9" d="M887.8,473.7c2.9-0.1,5.9-0.2,8.8-0.4c0.1-2.3,0.1-4.7-0.1-7.1c0,0.3,4.7-2.2,5.1-2.7
				c1.2-1.6,1.3-4.4,1.8-6.3c1.1-4.1,2.1-8.7-0.1-12.4c-2.3-3.8-7.1-5.1-11.5-5.2c-5.5-0.1-11.6,1.4-14.5,6.2
				c-2.6,4.2,0.7,10.5,1.6,15.1c0.4,2.2,1.2,4.8,3.3,5.7c1.1,0.5,2.4,0.4,3.4,1.2C887.4,469,886.9,471.7,887.8,473.7z"/>
			<path class="st8" d="M868.8,437.7c-0.3-3-0.7-6.1-1-9.1c-0.1-1.1-0.2-2.3,0.1-3.4c0.7-1.7,2.4-2.9,4.2-3.4
				c1.8-0.5,3.7-0.5,5.5-0.9c2-0.4,3.9-1.3,5.9-1.2c3.8,0.2,6.7,3.7,10.5,4.4c5.2,0.9,10.1-1.5,13.3,4.6c0.5,1.1,0.8,2.4,1.3,3.6
				c0.7,1.5,1.8,2.7,2.8,4c4.1,6,2.8,14.9-2.2,20c-2.4,2.4-3.5,4.7-6.7,5.4c1.5-3.2-0.5-15.6-4.7-17c-1.1-0.3-4.5,1-5.7,1.2
				c-2.7,0.4-5.4,0.9-7.9,2c-3.8,1.6-7.9,2.7-12.1,3c-0.5,0-1.1,0.1-1.5-0.3c-0.3-0.3-0.4-0.9-0.5-1.4
				C869.5,445.3,869.2,441.5,868.8,437.7z"/>
		</g>
		<g>
			<path class="st22" d="M866.6,484.3c0,0-26.9,34.4-40.3,42.6l0,0c-0.9,0.1-1.5,0.8-2.1,1.4c-0.7,0.9-0.9,2-1.1,2.9
				c-0.3,1.8-0.5,3.7-0.5,5.5c0,1.5,0.1,3.2,0.8,4.6c0.7,1.4,2.1,2.5,3.6,2.6c2.1,0.1,2.9-2,3.4-4.5c7.2-4.9,26.5-18.4,28.1-21.2
				c1.8-3.5,11.6-34.1,11.6-34.1h-3.4V484.3z"/>
			<g>
				<polygon class="st8" points="934.4,698 935.6,703 926.8,710.3 920.7,706.5 924.6,700.4 933.3,693.1 				"/>
				<polygon class="st8" points="914.4,544.7 918,559.7 913.5,629.7 934.6,696.3 925.2,700.6 882.8,623.8 877.8,599.2 875.3,547.3 
									"/>
			</g>
			<g>
				<polygon class="st8" points="855.7,550.7 855,615.7 867.2,699.6 876.6,699.6 882.6,622.1 895.5,544.8 				"/>
				<polygon class="st8" points="876.6,698.5 876.6,703.6 866.4,708.7 861.3,703.6 866.4,698.5 				"/>
			</g>
			<path class="st22" d="M925.6,563.1c0.1,6-0.1,13.9-2.3,14.2c-0.4,0.1-0.9-0.1-1.2-0.3c-3.9-2.2-6.7-5.2-10.7-7.3
				c-4-2.2-8.7-3.4-13.3-4.1c-6.9-1.2-13.8-2.1-20.8-2.2c-5.4-0.1-11,0.3-16.4,0.9c-4.6,0.3-8.8,1.7-13.4,1.4
				c-4.8-0.3-9.4-1.7-13.5-4.2c-0.1-0.1-0.3-0.2-0.3-0.3c-0.1-0.2,0-0.3,0.1-0.5c1-2.6,1.6-5.3,3.4-7.5c2-2.5,3.4-5.5,4.8-8.4
				c2.9-5.8,5.8-12,7.8-18.1c3.2-8.4,6.6-16.6,9.7-25.1c2.1-5.9,4-11.9,6.9-17.4c2.2-4.4,6.2-10.7,11-12.6c1.6-0.7,3.4-0.7,5.1-0.8
				c5.3-0.1,10.5-0.3,15.9-0.4c2-0.1,3.9-0.1,5.7,0.7c2.6,1.2,4.1,3.9,5.4,6.5c5.9,11.5,9.6,24,11.6,36.9c1.1,6.7,2.1,13.4,2.8,20.1
				c0.9,7.5,1.5,15.1,1.6,22.6C925.4,557.8,925.5,560.2,925.6,563.1z"/>
			<path class="st23" d="M890.4,499.4c-0.2,2.9,0.2,6,0.7,8.9c2.6,18.1,5.2,36.1,7.7,54.2c-14.1-0.1-28.3-0.2-42.5-0.3
				c0.5-6.7,1-13.5,1.5-20.3c0.3-4.4,0.7-8.7,1.5-12.9c1.5-6.9,4.5-13.4,7.4-19.8c5.4-11.9,10.9-23.7,16.3-35.5
				c0.3-0.7,0.5-1.3,1.1-1.7c0.7-0.5,1.5-0.8,2.4-0.9c4-0.7,8.6-1.3,12.7-0.7c1,3.7-2.7,10.1-4.1,13.6
				C893.2,489,890.7,493.9,890.4,499.4z"/>
			<g>
				<g>
					<g>
						<path class="st3" d="M908.9,589H844c-8.6,0-15.4-7-15.4-15.4v-39.7c0-8.6,7-15.4,15.4-15.4h64.9c8.6,0,15.4,7,15.4,15.4v39.7
							C924.3,582,917.4,589,908.9,589z"/>
						<path class="st3" d="M897.4,514.5c0-4.5,0-9,0-13.5c0-1.2-1.2-2.3-2.6-2.3c-10.9,0-21.8,0-32.6,0c-1.5,0-3.2,0-4.7,0
							c-1.4,0-2.6,1.1-2.6,2.3c0,4.5,0,9,0,13.5c-2.1,0.1-3.8,1.7-3.8,3.9l0,0h12.6l0,0c0-2.1-1.6-3.8-3.7-3.9c0-3.7,0-7.5,0-11.2
							c10,0,20,0,30.1,0c0.7,0,1.4,0,2.1,0c0,3.7,0,7.5,0,11.2h-0.2c-2.2,0-3.9,1.7-3.9,3.9l0,0h12.6l0,0
							C900.7,516.4,899.3,514.8,897.4,514.5z"/>
					</g>
					<g class="st24">
						<path d="M916.2,575c-3.3,2.5-7,4.1-10.9,5.2c-5.4,1.4-11.1,2.4-16.7,3c-20,2.2-40,0.1-60.1-0.5l-0.2-0.9c0,3.5,3,7.3,6.5,7.3
							h80.4c5,0,9.1-4.1,9.1-9.1v-13.5C922.1,569.6,919.3,572.5,916.2,575z"/>
					</g>
				</g>
				<path class="st23" d="M898.6,546.5c-5.2,0-10.3,0-15.6,0c-0.4,0-1,0-1.4,0c0-3.8,0-7.6,0-11.3c0-1.8,0-3.8,0-5.7
					c0-0.7-0.5-1.2-1.2-1.2c-3.3,0-6.4,0-9.7,0c-0.7,0-1.2,0.5-1.2,1.2c0,5.2,0,10.3,0,15.6c0,0.4,0,1,0,1.4c-3.8,0-7.6,0-11.3,0
					c-1.8,0-3.8,0-5.7,0c-0.7,0-1.2,0.5-1.2,1.2c0,3.3,0,6.4,0,9.7c0,0.3,0.1,0.7,0.3,0.9s0.4,0.3,0.9,0.3c5.2,0,10.3,0,15.6,0
					c0.4,0,1,0,1.4,0c0,3.8,0,7.6,0,11.3c0,1.8,0,3.8,0,5.7c0,0.7,0.5,1.2,1.2,1.2c3.3,0,6.4,0,9.7,0c0.3,0,0.7-0.1,0.9-0.3
					s0.3-0.4,0.3-0.9c0-5.2,0-10.3,0-15.6c0-0.4,0-1,0-1.4c3.8,0,7.6,0,11.3,0c1.8,0,3.8,0,5.7,0c0.7,0,1.2-0.5,1.2-1.2
					c0-3.3,0-6.4,0-9.7C899.8,547.1,899.2,546.5,898.6,546.5z"/>
			</g>
			<g>
				<path class="st6" d="M823.8,540.1c0.1,0.2,0.1,0.3,0.2,0.5c0.3,0.5,0.9,1.3,1.5,1.6c0,0,2,0.7,1.5,0l-1-1.2l4.6,0.5l3-2.1
					l0.2-4.9l-2.9-4.1c-2.7,0.2-5.8-0.2-7,2.8c-0.3,1-0.4,2-0.5,2.9C823.5,537.6,823.4,538.9,823.8,540.1z"/>
			</g>
		</g>
	</g>
</g>
<g>
	<polygon class="st9" points="695.8,486.9 703.3,481.8 701.3,478.6 695.4,480.9 695.1,478.9 689.2,484 690.9,487.8 	"/>
	<path class="st11" d="M690.6,481.6l2.9,7.5c0.4,1.2-27.9,17.3-30.6,18.4c-5.5,2.5-15.7,8.5-15.7,8.5c-7.7,0.1-22.3-3.9-27.2-6
		c-2-0.9-3.4-5.2-4.6-7c-1.5-2.2,0.4-6.1,1.7-7.8c2.6-3.7,6.7-6.3,11.2-7.2c1.6-0.3,3.3-0.4,4.8,0c1.6,0.4,3.7-7,5-6
		c2.4,1.7,3.8,13.1,6.6,14C648.7,497.5,689.7,479.9,690.6,481.6z"/>
</g>
<path class="st11" d="M632.2,447c-0.2,0-0.3,0-0.5,0c-7.9,0.4-17.6,10.9-23.2,17c-14.5,15.9-24.5,34.1-32.1,54.6
	c-4,11-7.6,22.2-11,33.4c-1,3.2-7.4,31.4-9,31.6c16.2-2.1,32.5-3.7,48.7-2.6c16.1,1.1,32.2,5.1,46,13.6c7.1-36.4,12.3-74.2,14-111
	c0.2-4.5,0.9-8.9,0.4-13.4c-0.4-5-2.9-7.3-5.8-11.2c-1-1.3-2-2.6-3.2-3.7C650.6,449.8,640.6,446.8,632.2,447z"/>
<g>
	<g>
		<polygon class="st9" points="575.6,570.8 592.5,639.2 592.9,689.7 601.1,691.5 604.4,644.5 612.4,558.6 		"/>
	</g>
	<polygon class="st8" points="601.2,692.9 602.5,698 601.4,708 594.8,708 592.3,693.6 593,691.1 	"/>
</g>
<g>
	<polygon class="st9" points="640.1,563.2 641.5,622.3 633.7,706 625.6,706.5 622.7,630 606.2,560.5 	"/>
	<polygon class="st8" points="633.4,704.6 644.4,710.3 643.5,715.4 624.3,713 625.1,705.8 	"/>
</g>
<polygon class="st23" points="642.4,570.8 648,639.2 642.4,686.1 620.5,684.9 616.5,631.5 607.1,573.4 608.6,564.4 640.1,564.8 "/>
<polygon class="st23" points="609.2,634.2 606.6,683.2 587.6,682.3 588,635.7 576.1,577.3 578.8,561 610.8,563.1 "/>
<path class="st10" d="M646.4,576.4c-19.6-3.4-51.2-11.5-70.7-14.9c10.2-33.9,26.5-71.7,45.5-101.5c3.5-5.4,7.7-11.1,13.9-12.3
	c6.6-1.4,18.2,2.9,19.5,10.3c1.8,10.8-2.1,25.7-3.3,36.6C648.6,519.5,651.1,552.1,646.4,576.4z"/>
<g>
	<path class="st9" d="M643.1,424c7.4-12.8,23.6-4.5,24.7,8.3c0.7,8.4-7.5,17.7-16,18.4c-0.2,2.1-0.4,4-0.8,6.1
		c-2.2-0.5-4.2-1.2-6.4-1.7c-0.7-0.2-1.4-0.4-1.6-1.1c-0.1-0.4,0-0.9,0.1-1.2c0.4-1.3,0.8-2.7,1.2-4c-0.1-0.1-0.3-0.2-0.4-0.3
		c-3.5-2.7-5.1-7.4-4.9-11.7C639,432,640.8,427.8,643.1,424z"/>
	<g>
		<g>
			<path class="st25" d="M643.5,428.3c-3.6,3.4-3.9,8.8-4.1,13.5c-0.2,4.1-0.9,6.6-5.2,5.4c-2.5-0.7-7-1.7-7.9-4.5
				c-0.8-2.1,2.2-5.5,3.7-6.7c1.2-0.9,2.9-0.8,4.1-1.7c0.4-0.4,0.8-1,1.1-1.5c1.2-2.2,2.1-4.6,2.6-7.1c0.3-1.6,0.5-3.4,1.2-5
				c1-2.3,3.8-4,5.8-5.5c3.5-2.9,11.4-5.2,14.2,0.1c0.7,1.2,0.7,2.6,0.5,4c-0.1,0.8-0.1,1.6-0.5,2.4c-1.5,2.9-4.4,2-6.9,2.4
				C648.8,424.5,645.8,426.2,643.5,428.3z"/>
			<path class="st25" d="M664,440c-0.9,2.1-3.2,3.8-2.9,6.1c0.1,1,0.7,2,1.1,2.8c1.1,2.6,0.8,5.8-1,7.9c4.1,2,8.3,3.9,12.4,6
				c0.7,0.3,1.3,0.7,2,0.5c1.5-0.1,2.4-1.6,2.9-2.9c1.2-2.6,2.5-5.5,2-8.4c-0.2-1.3-0.9-2.6-1.1-3.9c-1.2-6.4,6.5-12.5,4.1-18.6
				c-1.1-2.7-3.8-4.4-5.7-6.5c-3.3-3.9-3.7-9.6-7.2-13.3c-6.5-7-19.5-1.3-18.5,8.4C653,425.9,667.6,431.4,664,440z"/>
		</g>
	</g>
</g>
<path class="st11" d="M631.2,449.1c0,0-33.8,81.5-26.3,102.2c7.5,20.8,11,28.8,11,28.8l-51.8,2.2C564,582.3,597.1,463.2,631.2,449.1
	z"/>
<g>
	<rect x="509.3" y="352.9" class="st8" width="139.7" height="186.5"/>
	<polygon class="st26" points="519.7,531.4 521.8,531.4 645.2,535.2 642,358.8 636.2,360.5 	"/>
	<rect x="516.4" y="358.8" class="st10" width="125.6" height="172.6"/>
	<g>
		<g>
			<path class="st10" d="M595.2,342.4h-0.8v-0.5c0-5.3-5-9.8-11.2-9.8h-8.2c-6.2,0-11.2,4.4-11.2,9.8v0.5H563
				c-6.2,0-11.2,4.4-11.2,9.8v10.9h54.6v-10.9C606.4,346.8,601.4,342.4,595.2,342.4z M586.3,342.6h-14.4c-1.5,0-2.7-1.2-2.7-2.7
				s1.2-2.7,2.7-2.7h14.4c1.5,0,2.7,1.2,2.7,2.7S587.8,342.6,586.3,342.6z"/>
		</g>
		<rect x="551.8" y="358" class="st27" width="54.6" height="5.1"/>
	</g>
	<g>
		<rect x="532.7" y="421.9" class="st22" width="94.4" height="2.5"/>
		<rect x="532.7" y="440.6" class="st22" width="94.4" height="2.5"/>
		<rect x="532.7" y="459.3" class="st22" width="94.4" height="2.5"/>
		<rect x="532.7" y="478" class="st22" width="94.4" height="2.5"/>
	</g>
	<rect x="532.6" y="516.1" class="st22" width="34.7" height="0.9"/>
	<path class="st22" d="M616.1,500.1c-1.6-0.7-3.6-0.4-5.1,0.3c-0.2-0.1-0.4-0.2-0.8-0.3c-2.5-1-5.4-0.1-7.1,2
		c-1.6,2.1-1.8,4.9-0.5,7.2c1.3,2.3,4,3.5,6.6,2.9c0.7-0.1,1.2-0.3,1.7-0.7c1.2,0.7,2.7,0.9,4.1,0.7c2.9-0.5,5.1-3.3,5.1-6.2
		C620.2,503.4,618.6,501.1,616.1,500.1z M609.9,511c-2.1,0.8-4.5,0.1-5.9-1.5c-1.4-1.7-1.6-4.2-0.5-6.1c1.1-2,3.4-2.9,5.5-2.5
		c0.3,0.1,0.5,0.1,0.9,0.2c-0.3,0.3-0.7,0.7-1,1c-1.6,2.1-1.8,4.9-0.5,7.2C608.9,509.9,609.5,510.5,609.9,511
		C610,511,610,511,609.9,511z M613.5,506.1c0,1.7-1,3.5-2.4,4.5c-0.4-0.3-0.8-0.7-1.2-1c-1.4-1.7-1.6-4.2-0.5-6.1
		c0.4-0.7,1-1.3,1.6-1.7C612.5,502.6,613.4,504.2,613.5,506.1z M615.8,511c-1.2,0.4-2.5,0.4-3.7,0c1.4-1.2,2.4-3,2.4-4.9
		c0-2-1-3.8-2.4-4.9c0.9-0.3,2-0.4,2.9-0.2c2.5,0.5,4.2,2.7,4.2,5.2C619.3,508.3,617.8,510.2,615.8,511z"/>
</g>
<text transform="matrix(1 0 0 1 553.6338 391.48)"><tspan x="0" y="0" class="st28 st29">PÓLIZA </tspan><tspan x="-18" y="18.4" class="st28 st29">DE SEGUROS</tspan></text>
</svg>
