<?xml version="1.0" encoding="UTF-8"?>
<svg xmlns="http://www.w3.org/2000/svg" xmlns:xlink="http://www.w3.org/1999/xlink" width="148pt" height="90pt" viewBox="0 0 148 90" version="1.1">
<g id="surface1">
<path style=" stroke:none;fill-rule:nonzero;fill:rgb(16.470588%,47.843137%,50.980392%);fill-opacity:1;" d="M 20.253906 23.445312 L 30.722656 23.445312 L 30.722656 63.714844 C 30.722656 66.265625 30.460938 68.5 29.9375 70.417969 C 29.480469 72.175781 28.753906 73.851562 27.792969 75.390625 C 26.945312 76.726562 25.875 77.902344 24.625 78.863281 C 23.441406 79.761719 22.148438 80.496094 20.777344 81.050781 C 19.429688 81.59375 18.03125 81.980469 16.597656 82.207031 C 15.222656 82.433594 13.835938 82.550781 12.445312 82.5625 C 10.261719 82.5625 8.101562 82.125 6.089844 81.273438 C 4.03125 80.417969 2.011719 79.019531 0.0234375 77.085938 L 3.035156 74.0625 C 3.671875 73.398438 4.441406 72.875 5.289062 72.519531 C 6.140625 72.1875 7.050781 72.023438 7.960938 72.035156 C 8.382812 72.03125 8.804688 72.082031 9.210938 72.183594 C 9.585938 72.273438 9.949219 72.386719 10.3125 72.519531 C 10.664062 72.648438 11.015625 72.761719 11.367188 72.855469 C 11.71875 72.953125 12.078125 73.003906 12.441406 73.003906 C 13.308594 72.992188 14.167969 72.875 15.003906 72.648438 C 15.949219 72.398438 16.820312 71.929688 17.550781 71.28125 C 18.328125 70.605469 18.976562 69.664062 19.488281 68.449219 C 20 67.238281 20.253906 65.65625 20.253906 63.707031 Z M 20.253906 23.445312 "/>
<path style=" stroke:none;fill-rule:nonzero;fill:rgb(16.470588%,47.843137%,50.980392%);fill-opacity:1;" d="M 54.226562 23.445312 L 63.25 23.445312 L 83.289062 69.527344 L 76.535156 69.527344 C 75.847656 69.53125 75.164062 69.4375 74.503906 69.253906 C 73.863281 69.078125 73.253906 68.808594 72.695312 68.449219 C 72.136719 68.09375 71.628906 67.660156 71.191406 67.164062 C 70.738281 66.652344 70.371094 66.070312 70.101562 65.441406 L 67.859375 60.332031 L 49.617188 60.332031 L 47.441406 65.445312 C 47.175781 66.039062 46.8125 66.582031 46.367188 67.050781 C 45.90625 67.550781 45.382812 67.988281 44.816406 68.355469 C 44.238281 68.730469 43.613281 69.023438 42.957031 69.222656 C 42.316406 69.425781 41.648438 69.527344 40.972656 69.527344 L 34.195312 69.527344 Z M 53.808594 50.78125 L 63.605469 50.78125 L 59.605469 41.132812 C 59.425781 40.726562 59.277344 40.304688 59.15625 39.878906 C 59.050781 39.492188 58.964844 39.148438 58.902344 38.851562 C 58.820312 38.535156 58.765625 38.210938 58.738281 37.886719 C 58.695312 38.183594 58.632812 38.515625 58.546875 38.882812 C 58.484375 39.179688 58.394531 39.523438 58.277344 39.910156 C 58.160156 40.292969 58.015625 40.703125 57.84375 41.132812 Z M 53.808594 50.78125 "/>
<path style=" stroke:none;fill-rule:nonzero;fill:rgb(100%,67.843137%,0.392157%);fill-opacity:1;" d="M 140.574219 23.339844 L 140.574219 3.621094 L 126.546875 3.621094 L 126.546875 11.132812 L 113.753906 0 L 79.53125 29.777344 L 85.300781 29.777344 L 85.300781 69.527344 L 142.207031 69.527344 L 142.207031 29.777344 L 147.980469 29.777344 Z M 131.414062 52.496094 C 130.5625 55.546875 128.9375 58.320312 126.695312 60.550781 C 125.585938 61.660156 124.339844 62.617188 122.984375 63.402344 C 121.609375 64.203125 120.136719 64.820312 118.601562 65.242188 C 115.417969 66.109375 112.0625 66.109375 108.878906 65.242188 C 107.351562 64.820312 105.882812 64.199219 104.511719 63.402344 C 103.15625 62.617188 101.910156 61.660156 100.800781 60.550781 C 98.558594 58.324219 96.929688 55.546875 96.082031 52.496094 C 95.203125 49.3125 95.203125 45.949219 96.082031 42.765625 C 97.371094 38.167969 100.394531 34.253906 104.511719 31.859375 C 105.886719 31.0625 107.359375 30.441406 108.894531 30.019531 C 112.070312 29.152344 115.425781 29.152344 118.605469 30.019531 C 120.136719 30.441406 121.609375 31.0625 122.988281 31.859375 C 124.339844 32.644531 125.585938 33.605469 126.695312 34.710938 C 128.9375 36.941406 130.5625 39.71875 131.414062 42.765625 C 132.292969 45.949219 132.292969 49.3125 131.414062 52.496094 Z M 131.414062 52.496094 "/>
<path style=" stroke:none;fill-rule:nonzero;fill:rgb(100%,67.843137%,0.392157%);fill-opacity:1;" d="M 120.898438 40.515625 C 119.960938 39.601562 118.863281 38.867188 117.65625 38.351562 C 115.164062 37.28125 112.34375 37.28125 109.851562 38.351562 C 108.648438 38.867188 107.550781 39.601562 106.617188 40.515625 C 105.679688 41.429688 104.925781 42.519531 104.398438 43.71875 C 103.304688 46.210938 103.304688 49.050781 104.398438 51.546875 C 105.46875 53.972656 107.417969 55.894531 109.851562 56.925781 C 112.347656 57.976562 115.160156 57.976562 117.65625 56.925781 C 118.867188 56.417969 119.96875 55.683594 120.90625 54.761719 C 121.839844 53.839844 122.589844 52.75 123.121094 51.546875 C 124.214844 49.050781 124.214844 46.210938 123.121094 43.71875 C 122.589844 42.519531 121.835938 41.429688 120.898438 40.515625 Z M 120.898438 40.515625 "/>
<path style=" stroke:none;fill-rule:nonzero;fill:rgb(49.803922%,49.803922%,49.803922%);fill-opacity:1;" d="M 35.007812 76.390625 C 34.804688 76.390625 34.601562 76.410156 34.402344 76.445312 C 34.222656 76.476562 34.046875 76.535156 33.882812 76.617188 C 33.738281 76.691406 33.613281 76.792969 33.515625 76.917969 C 33.421875 77.042969 33.375 77.195312 33.378906 77.351562 C 33.363281 77.570312 33.429688 77.78125 33.5625 77.953125 C 33.726562 78.121094 33.921875 78.25 34.140625 78.332031 C 34.457031 78.457031 34.78125 78.566406 35.109375 78.65625 C 35.496094 78.761719 35.949219 78.90625 36.46875 79.082031 C 37.097656 79.292969 37.703125 79.566406 38.277344 79.90625 C 38.800781 80.210938 39.273438 80.59375 39.675781 81.046875 C 41.003906 82.597656 41.28125 84.796875 40.378906 86.632812 C 40.03125 87.316406 39.554688 87.921875 38.972656 88.414062 C 38.371094 88.921875 37.683594 89.3125 36.945312 89.574219 C 36.179688 89.851562 35.375 89.992188 34.5625 89.988281 C 33.882812 89.992188 33.207031 89.886719 32.558594 89.675781 C 31.9375 89.472656 31.351562 89.179688 30.8125 88.804688 C 30.285156 88.433594 29.816406 87.984375 29.421875 87.472656 C 29.027344 86.960938 28.710938 86.390625 28.488281 85.785156 L 29.734375 85.066406 C 29.9375 84.949219 30.148438 84.859375 30.371094 84.792969 C 30.59375 84.726562 30.828125 84.691406 31.058594 84.691406 C 31.382812 84.6875 31.699219 84.761719 31.988281 84.910156 C 32.261719 85.050781 32.53125 85.207031 32.792969 85.375 C 33.054688 85.542969 33.328125 85.699219 33.605469 85.84375 C 33.902344 85.992188 34.230469 86.066406 34.5625 86.058594 C 34.828125 86.054688 35.089844 86.019531 35.34375 85.949219 C 35.621094 85.871094 35.886719 85.761719 36.136719 85.617188 C 36.371094 85.480469 36.574219 85.296875 36.738281 85.082031 C 36.898438 84.871094 36.980469 84.609375 36.976562 84.34375 C 36.988281 84.109375 36.910156 83.878906 36.757812 83.695312 C 36.589844 83.511719 36.386719 83.363281 36.160156 83.257812 C 35.878906 83.121094 35.589844 83.007812 35.292969 82.914062 C 34.964844 82.8125 34.621094 82.6875 34.265625 82.546875 C 33.675781 82.324219 33.09375 82.078125 32.519531 81.8125 C 31.960938 81.558594 31.441406 81.230469 30.976562 80.832031 C 30.519531 80.4375 30.144531 79.957031 29.875 79.414062 C 29.574219 78.769531 29.425781 78.058594 29.453125 77.34375 C 29.4375 76.625 29.601562 75.914062 29.925781 75.269531 C 30.230469 74.675781 30.65625 74.152344 31.171875 73.734375 C 31.703125 73.3125 32.304688 72.988281 32.949219 72.78125 C 33.613281 72.558594 34.308594 72.445312 35.007812 72.449219 C 35.511719 72.449219 36.015625 72.535156 36.496094 72.707031 C 36.972656 72.878906 37.433594 73.105469 37.863281 73.378906 C 38.292969 73.65625 38.699219 73.972656 39.070312 74.324219 C 39.433594 74.660156 39.773438 75.019531 40.085938 75.402344 L 38.878906 76.425781 C 38.664062 76.621094 38.40625 76.769531 38.132812 76.867188 C 37.851562 76.957031 37.558594 77.003906 37.265625 77 C 37.039062 77.003906 36.8125 76.972656 36.597656 76.902344 C 36.414062 76.84375 36.234375 76.773438 36.058594 76.695312 C 35.890625 76.617188 35.722656 76.546875 35.554688 76.484375 C 35.378906 76.417969 35.195312 76.386719 35.007812 76.390625 Z M 35.007812 76.390625 "/>
<path style=" stroke:none;fill-rule:nonzero;fill:rgb(49.803922%,49.803922%,49.803922%);fill-opacity:1;" d="M 55.378906 89.832031 L 43.972656 89.832031 L 43.972656 72.621094 L 55.378906 72.621094 L 55.378906 76.296875 L 47.882812 76.296875 L 47.882812 79.3125 L 53.976562 79.3125 L 53.976562 82.988281 L 47.882812 82.988281 L 47.882812 86.160156 L 55.378906 86.160156 Z M 55.378906 89.832031 "/>
<path style=" stroke:none;fill-rule:nonzero;fill:rgb(49.803922%,49.803922%,49.803922%);fill-opacity:1;" d="M 73.25 80.171875 L 73.25 87.652344 C 72.816406 88.109375 72.324219 88.5 71.785156 88.8125 C 71.269531 89.109375 70.71875 89.347656 70.152344 89.523438 C 69.585938 89.699219 69.003906 89.820312 68.414062 89.890625 C 67.816406 89.957031 67.214844 89.992188 66.613281 89.992188 C 65.824219 89.996094 65.039062 89.890625 64.28125 89.679688 C 62.816406 89.277344 61.480469 88.5 60.402344 87.425781 C 59.867188 86.898438 59.40625 86.304688 59.027344 85.65625 C 58.644531 84.996094 58.347656 84.292969 58.144531 83.558594 C 57.71875 82.03125 57.71875 80.417969 58.144531 78.886719 C 58.34375 78.152344 58.640625 77.445312 59.023438 76.789062 C 59.402344 76.140625 59.863281 75.542969 60.398438 75.015625 C 61.476562 73.945312 62.8125 73.167969 64.277344 72.761719 C 65.039062 72.550781 65.824219 72.445312 66.613281 72.449219 C 67.253906 72.449219 67.894531 72.527344 68.515625 72.6875 C 69.148438 72.847656 69.761719 73.078125 70.347656 73.367188 C 70.953125 73.667969 71.53125 74.027344 72.066406 74.441406 C 72.628906 74.871094 73.148438 75.351562 73.628906 75.871094 L 72.636719 76.902344 C 71.75 77.800781 70.355469 77.941406 69.3125 77.242188 C 68.917969 76.976562 68.488281 76.765625 68.039062 76.609375 C 67.578125 76.453125 67.097656 76.375 66.613281 76.375 C 65.964844 76.371094 65.324219 76.503906 64.734375 76.761719 C 63.570312 77.253906 62.636719 78.175781 62.128906 79.335938 C 61.597656 80.550781 61.601562 81.9375 62.144531 83.148438 C 62.410156 83.726562 62.78125 84.246094 63.246094 84.679688 C 63.707031 85.113281 64.246094 85.453125 64.835938 85.6875 C 65.4375 85.933594 66.082031 86.058594 66.730469 86.054688 C 67.1875 86.054688 67.644531 86.011719 68.09375 85.925781 C 68.519531 85.847656 68.933594 85.710938 69.324219 85.527344 L 69.324219 83.875 C 68.964844 83.867188 68.609375 83.804688 68.273438 83.679688 C 67.972656 83.570312 67.695312 83.40625 67.453125 83.195312 C 67.230469 82.992188 67.046875 82.75 66.921875 82.472656 C 66.792969 82.183594 66.730469 81.871094 66.738281 81.554688 L 66.738281 80.171875 Z M 73.25 80.171875 "/>
<path style=" stroke:none;fill-rule:nonzero;fill:rgb(49.803922%,49.803922%,49.803922%);fill-opacity:1;" d="M 80.769531 82.902344 C 80.765625 83.324219 80.855469 83.742188 81.03125 84.125 C 81.203125 84.503906 81.445312 84.847656 81.742188 85.136719 C 82.039062 85.425781 82.386719 85.65625 82.765625 85.820312 C 83.550781 86.15625 84.433594 86.15625 85.21875 85.820312 C 85.597656 85.65625 85.945312 85.421875 86.246094 85.136719 C 86.542969 84.847656 86.785156 84.503906 86.957031 84.125 C 87.132812 83.742188 87.222656 83.324219 87.222656 82.902344 L 87.222656 72.621094 L 91.128906 72.621094 L 91.128906 82.902344 C 91.132812 83.851562 90.941406 84.789062 90.566406 85.660156 C 90.207031 86.503906 89.6875 87.269531 89.035156 87.914062 C 88.382812 88.558594 87.617188 89.074219 86.773438 89.433594 C 85.894531 89.804688 84.945312 89.992188 83.992188 89.984375 C 82.730469 89.988281 81.492188 89.652344 80.40625 89.015625 C 79.878906 88.710938 79.394531 88.339844 78.960938 87.914062 C 78.082031 87.050781 77.445312 85.972656 77.113281 84.785156 C 76.9375 84.171875 76.851562 83.535156 76.855469 82.898438 L 76.855469 72.621094 L 80.777344 72.621094 Z M 80.769531 82.902344 "/>
<path style=" stroke:none;fill-rule:nonzero;fill:rgb(49.803922%,49.803922%,49.803922%);fill-opacity:1;" d="M 99.167969 89.832031 L 95.257812 89.832031 L 95.257812 72.621094 L 101.976562 72.621094 C 103.132812 72.605469 104.269531 72.929688 105.246094 73.550781 C 105.683594 73.832031 106.078125 74.171875 106.417969 74.5625 C 106.75 74.941406 107.035156 75.359375 107.265625 75.808594 C 107.492188 76.246094 107.664062 76.707031 107.78125 77.183594 C 107.894531 77.644531 107.953125 78.117188 107.953125 78.589844 C 107.953125 79.050781 107.90625 79.507812 107.804688 79.953125 C 107.703125 80.414062 107.542969 80.859375 107.332031 81.28125 C 107.105469 81.730469 106.824219 82.148438 106.496094 82.523438 C 106.128906 82.941406 105.710938 83.3125 105.253906 83.628906 L 109.820312 89.828125 L 106.480469 89.828125 C 106.355469 89.820312 106.234375 89.808594 106.113281 89.789062 C 105.914062 89.757812 105.71875 89.703125 105.535156 89.621094 C 105.292969 89.519531 105.0625 89.386719 104.851562 89.226562 C 104.585938 89.019531 104.355469 88.769531 104.171875 88.492188 L 101.300781 84.589844 L 99.167969 84.589844 Z M 102.179688 80.640625 C 102.421875 80.636719 102.660156 80.574219 102.875 80.453125 C 103.097656 80.332031 103.296875 80.175781 103.464844 79.984375 C 103.636719 79.792969 103.777344 79.570312 103.878906 79.332031 C 104.082031 78.863281 104.082031 78.328125 103.878906 77.859375 C 103.777344 77.621094 103.636719 77.402344 103.464844 77.207031 C 103.296875 77.015625 103.097656 76.859375 102.875 76.738281 C 102.660156 76.621094 102.421875 76.554688 102.179688 76.554688 L 99.167969 76.554688 L 99.167969 80.636719 Z M 102.179688 80.640625 "/>
<path style=" stroke:none;fill-rule:nonzero;fill:rgb(100%,67.843137%,0.392157%);fill-opacity:1;" d="M 110.511719 81.21875 C 110.507812 80.429688 110.613281 79.644531 110.828125 78.882812 C 111.03125 78.148438 111.332031 77.445312 111.71875 76.789062 C 112.09375 76.144531 112.550781 75.550781 113.074219 75.023438 C 113.609375 74.492188 114.207031 74.03125 114.855469 73.65625 C 115.519531 73.269531 116.226562 72.972656 116.960938 72.769531 C 118.488281 72.355469 120.097656 72.355469 121.625 72.769531 C 122.359375 72.972656 123.066406 73.269531 123.730469 73.65625 C 125.707031 74.800781 127.160156 76.675781 127.78125 78.882812 C 128.203125 80.414062 128.203125 82.027344 127.78125 83.558594 C 127.578125 84.289062 127.277344 84.996094 126.890625 85.652344 C 126.125 86.953125 125.039062 88.035156 123.734375 88.792969 C 123.074219 89.175781 122.367188 89.472656 121.628906 89.675781 C 120.101562 90.09375 118.492188 90.09375 116.960938 89.675781 C 116.226562 89.472656 115.523438 89.175781 114.863281 88.792969 C 114.214844 88.417969 113.613281 87.957031 113.082031 87.425781 C 112.550781 86.894531 112.089844 86.296875 111.707031 85.652344 C 111.324219 84.996094 111.023438 84.289062 110.820312 83.558594 C 110.609375 82.796875 110.503906 82.007812 110.511719 81.21875 Z M 114.417969 81.21875 C 114.414062 81.867188 114.550781 82.507812 114.816406 83.097656 C 115.324219 84.265625 116.253906 85.191406 117.421875 85.6875 C 118.621094 86.191406 119.972656 86.191406 121.171875 85.6875 C 122.34375 85.195312 123.28125 84.269531 123.792969 83.105469 C 124.320312 81.90625 124.320312 80.542969 123.792969 79.347656 C 123.542969 78.769531 123.179688 78.25 122.730469 77.808594 C 122.28125 77.367188 121.75 77.015625 121.171875 76.769531 C 119.972656 76.257812 118.621094 76.257812 117.421875 76.769531 C 116.84375 77.015625 116.316406 77.371094 115.867188 77.808594 C 115.417969 78.25 115.058594 78.769531 114.804688 79.347656 C 114.542969 79.933594 114.40625 80.574219 114.410156 81.21875 Z M 114.417969 81.21875 "/>
<path style=" stroke:none;fill-rule:nonzero;fill:rgb(49.803922%,49.803922%,49.803922%);fill-opacity:1;" d="M 136.503906 76.390625 C 136.300781 76.390625 136.097656 76.410156 135.898438 76.445312 C 135.71875 76.476562 135.542969 76.535156 135.378906 76.617188 C 135.234375 76.691406 135.109375 76.792969 135.011719 76.917969 C 134.917969 77.042969 134.871094 77.195312 134.875 77.351562 C 134.859375 77.570312 134.925781 77.78125 135.058594 77.953125 C 135.21875 78.121094 135.417969 78.25 135.636719 78.332031 C 135.953125 78.460938 136.277344 78.566406 136.605469 78.65625 C 136.992188 78.761719 137.441406 78.90625 137.960938 79.082031 C 138.59375 79.292969 139.199219 79.566406 139.773438 79.90625 C 140.296875 80.210938 140.769531 80.59375 141.171875 81.046875 C 142.5 82.597656 142.773438 84.796875 141.871094 86.632812 C 141.527344 87.316406 141.050781 87.921875 140.464844 88.414062 C 139.867188 88.921875 139.179688 89.3125 138.441406 89.574219 C 137.675781 89.851562 136.871094 89.992188 136.058594 89.988281 C 135.378906 89.992188 134.703125 89.886719 134.054688 89.675781 C 133.433594 89.472656 132.84375 89.179688 132.308594 88.804688 C 131.78125 88.433594 131.3125 87.984375 130.917969 87.472656 C 130.523438 86.960938 130.207031 86.390625 129.984375 85.785156 L 131.226562 85.066406 C 131.429688 84.949219 131.644531 84.859375 131.867188 84.792969 C 132.089844 84.726562 132.320312 84.691406 132.554688 84.691406 C 132.875 84.6875 133.195312 84.761719 133.480469 84.910156 C 133.757812 85.050781 134.023438 85.207031 134.289062 85.375 C 134.550781 85.542969 134.820312 85.699219 135.101562 85.84375 C 135.398438 85.992188 135.726562 86.066406 136.058594 86.058594 C 136.324219 86.054688 136.585938 86.019531 136.839844 85.949219 C 137.117188 85.871094 137.382812 85.761719 137.628906 85.617188 C 137.863281 85.480469 138.070312 85.296875 138.234375 85.082031 C 138.390625 84.871094 138.476562 84.609375 138.472656 84.34375 C 138.480469 84.109375 138.402344 83.878906 138.25 83.695312 C 138.082031 83.511719 137.878906 83.363281 137.652344 83.257812 C 137.375 83.121094 137.082031 83.007812 136.789062 82.914062 C 136.460938 82.8125 136.117188 82.6875 135.757812 82.546875 C 135.167969 82.324219 134.585938 82.078125 134.011719 81.8125 C 133.457031 81.558594 132.9375 81.230469 132.46875 80.832031 C 131.445312 79.972656 130.878906 78.679688 130.941406 77.339844 C 130.925781 76.621094 131.089844 75.910156 131.414062 75.265625 C 131.722656 74.671875 132.15625 74.152344 132.679688 73.734375 C 133.210938 73.3125 133.8125 72.988281 134.457031 72.78125 C 135.117188 72.558594 135.808594 72.449219 136.503906 72.449219 C 137.011719 72.449219 137.511719 72.535156 137.992188 72.707031 C 138.472656 72.878906 138.929688 73.105469 139.359375 73.378906 C 139.789062 73.65625 140.195312 73.972656 140.566406 74.324219 C 140.929688 74.660156 141.269531 75.023438 141.585938 75.402344 L 140.375 76.429688 C 140.160156 76.625 139.90625 76.773438 139.628906 76.871094 C 139.347656 76.960938 139.054688 77.007812 138.761719 77.003906 C 138.535156 77.007812 138.308594 76.976562 138.089844 76.90625 C 137.910156 76.84375 137.726562 76.773438 137.554688 76.699219 C 137.382812 76.621094 137.21875 76.550781 137.054688 76.488281 C 136.875 76.421875 136.691406 76.390625 136.503906 76.390625 Z M 136.503906 76.390625 "/>
</g>
</svg>
